<svg width="24" height="24" viewBox="0 0 24 24" fill="none" xmlns="http://www.w3.org/2000/svg">
<path fill-rule="evenodd" clip-rule="evenodd" d="M16.3401 9.32738C17.0461 9.32738 17.5881 9.60138 17.9641 10.1474C18.3421 10.6944 18.5341 11.4744 18.5411 12.4874V13.8634C18.5411 14.9074 18.3511 15.7074 17.9721 16.2604C17.5941 16.8144 17.0531 17.0914 16.3511 17.0914C15.6551 17.0914 15.1181 16.8214 14.7391 16.2834C14.3611 15.7464 14.1641 14.9754 14.1501 13.9724V12.5454C14.1501 11.5034 14.3391 10.7074 14.7161 10.1554C15.0931 9.60338 15.6351 9.32738 16.3401 9.32738ZM6.33258 9.32748C7.02758 9.32748 7.57258 9.51948 7.96758 9.90348C8.36158 10.2875 8.55858 10.8135 8.55858 11.4805C8.55858 11.8235 8.46958 12.1415 8.29158 12.4335C8.11358 12.7255 7.87958 12.9495 7.58858 13.1055C7.94458 13.2575 8.21058 13.4855 8.38458 13.7905C8.55958 14.0945 8.64758 14.4545 8.64758 14.8695C8.64758 15.5415 8.43358 16.0795 8.00558 16.4835C7.57858 16.8885 7.01758 17.0905 6.32258 17.0905C5.67558 17.0905 5.15058 16.8915 4.74758 16.4915C4.34458 16.0915 4.14258 15.5665 4.14258 14.9165H5.61158C5.61158 15.1865 5.68258 15.4135 5.82358 15.5965C5.96558 15.7795 6.14558 15.8715 6.36358 15.8715C6.61658 15.8715 6.81658 15.7775 6.96358 15.5915C7.10958 15.4045 7.18358 15.1555 7.18358 14.8435C7.18358 14.1005 6.89458 13.7265 6.31758 13.7235H5.59558V12.5405H6.30658C6.57658 12.5405 6.77458 12.4455 6.90158 12.2565C7.02658 12.0685 7.09058 11.8165 7.09058 11.5015C7.09058 11.2015 7.02558 10.9665 6.89558 10.7985C6.76558 10.6305 6.59158 10.5465 6.37458 10.5465C6.17058 10.5465 6.00358 10.6265 5.87358 10.7855C5.74358 10.9445 5.67858 11.1455 5.67858 11.3875H4.21058C4.21058 10.9935 4.30058 10.6395 4.48258 10.3265C4.66458 10.0135 4.91858 9.76848 5.24558 9.59248C5.57258 9.41648 5.93458 9.32748 6.33258 9.32748ZM12.687 9.35378V10.5988H12.604C12.054 10.6028 11.617 10.7678 11.293 11.0948C10.97 11.4218 10.774 11.8788 10.704 12.4678C11.019 12.1078 11.413 11.9268 11.887 11.9268C12.434 11.9268 12.871 12.1608 13.198 12.6278C13.525 13.0948 13.688 13.7178 13.688 14.4958C13.688 14.9908 13.595 15.4368 13.408 15.8348C13.221 16.2328 12.959 16.5418 12.622 16.7608C12.284 16.9808 11.903 17.0908 11.478 17.0908C10.793 17.0908 10.243 16.8158 9.82998 16.2658C9.41698 15.7158 9.20998 14.9748 9.20998 14.0448V13.4998C9.20998 12.6658 9.34098 11.9358 9.60198 11.3098C9.86298 10.6838 10.24 10.2018 10.733 9.86478C11.226 9.52778 11.801 9.35678 12.458 9.35378H12.687ZM16.3401 10.5474C15.8731 10.5474 15.6311 11.0914 15.6141 12.1814V14.0654C15.6141 14.6744 15.6731 15.1274 15.7931 15.4244C15.9121 15.7224 16.0981 15.8714 16.3511 15.8714C16.5891 15.8714 16.7671 15.7324 16.8831 15.4534C16.9991 15.1754 17.0601 14.7484 17.0671 14.1744V12.3324C17.0671 11.7374 17.0081 11.2914 16.8911 10.9934C16.7731 10.6954 16.5891 10.5474 16.3401 10.5474ZM11.426 13.1418C11.239 13.1418 11.082 13.2008 10.956 13.3188C10.83 13.4358 10.736 13.5808 10.673 13.7538V14.2828C10.673 14.8168 10.744 15.2138 10.886 15.4768C11.028 15.7398 11.215 15.8708 11.447 15.8708C11.682 15.8708 11.87 15.7438 12.012 15.4898C12.154 15.2358 12.225 14.9098 12.225 14.5118C12.225 14.1068 12.151 13.7778 12.004 13.5228C11.857 13.2688 11.664 13.1418 11.426 13.1418ZM18.762 6.90918C19.366 6.90918 19.857 7.39718 19.857 7.99818C19.857 8.59618 19.366 9.08718 18.762 9.08718C18.161 9.08718 17.67 8.59618 17.67 7.99818C17.67 7.39718 18.161 6.90918 18.762 6.90918ZM18.762 7.62618C18.554 7.62618 18.387 7.79418 18.387 7.99818C18.387 8.20318 18.554 8.37018 18.762 8.37018C18.97 8.37018 19.14 8.20318 19.14 7.99818C19.14 7.79418 18.97 7.62618 18.762 7.62618Z" fill="white"/>
</svg>
