<svg width="24" height="24" viewBox="0 0 24 24" fill="none" xmlns="http://www.w3.org/2000/svg">
<path d="M18.7273 8.36357H5.27278C4.6546 8.36357 4.14551 8.87266 4.14551 9.49084C4.14551 10.109 4.6546 10.6181 5.27278 10.6181L8.94551 10.909C9.0546 10.909 9.16369 10.9817 9.16369 11.0908C9.30914 11.6727 9.38187 12.0363 9.38187 12.6545C9.38187 12.909 9.34551 13.1636 9.27278 13.3817L7.38187 20.0727C7.23642 20.6908 7.56369 21.309 8.18187 21.4545C8.80005 21.5999 9.41824 21.2727 9.56369 20.6545L11.6728 15.3817H12.0364L14.1455 20.6545C14.291 21.2727 14.9091 21.6363 15.5273 21.4545C16.1455 21.309 16.4728 20.6545 16.3273 20.0727L14.4364 13.3817C14.3637 13.1272 14.3273 12.8727 14.3273 12.6545C14.3273 12.0727 14.4001 11.6727 14.5455 11.0908C14.5819 10.9817 14.6546 10.909 14.7637 10.909L18.691 10.6181C19.3091 10.6181 19.8182 10.109 19.8182 9.49084C19.8546 8.87266 19.3455 8.36357 18.7273 8.36357ZM11.891 6.98175C13.1273 6.98175 14.1455 5.96357 14.1455 4.7272C14.1455 3.49084 13.1273 2.47266 11.891 2.47266C10.6546 2.47266 9.63642 3.49084 9.63642 4.7272C9.63642 5.96357 10.6182 6.98175 11.891 6.98175Z" fill="white"/>
<path d="M11.8908 2.47301C13.1272 2.47301 14.1454 3.49119 14.1454 4.72756C14.1454 5.96392 13.1272 6.9821 11.8908 6.9821C10.6545 6.9821 9.63628 5.96392 9.63628 4.72756C9.63628 3.49119 10.6181 2.47301 11.8908 2.47301ZM18.7272 8.36392C19.3454 8.36392 19.8545 8.87301 19.8545 9.49119C19.8545 10.1094 19.3454 10.6185 18.7272 10.6185L14.7999 10.9094C14.6908 10.9094 14.5817 10.9821 14.5817 11.0912C14.4363 11.673 14.3636 12.0366 14.3636 12.6548C14.3636 12.9094 14.3999 13.1639 14.4726 13.3821L16.3636 20.073C16.509 20.6912 16.1817 21.3094 15.5636 21.4548C15.4545 21.4912 15.3817 21.4912 15.2726 21.4912C14.7636 21.4912 14.3272 21.1639 14.1817 20.6548L12.0726 15.3821H11.709L9.59992 20.6548C9.45447 21.1639 9.0181 21.4912 8.50901 21.4912C8.39992 21.4912 8.32719 21.4912 8.2181 21.4548C7.59992 21.3094 7.27265 20.6548 7.4181 20.073L9.30901 13.3821C9.38174 13.1276 9.4181 12.873 9.4181 12.6548C9.4181 12.073 9.34538 11.673 9.19992 11.0912C9.16356 10.9821 9.09083 10.9094 8.98174 10.9094L5.30901 10.6185C4.69083 10.6185 4.18174 10.1094 4.18174 9.49119C4.18174 8.87301 4.69083 8.36392 5.30901 8.36392H18.7272ZM11.8908 2.10938C10.4363 2.10938 9.27265 3.27301 9.27265 4.72756C9.27265 6.1821 10.4363 7.34574 11.8908 7.34574C13.3454 7.34574 14.509 6.1821 14.509 4.72756C14.509 3.27301 13.309 2.10938 11.8908 2.10938ZM18.7272 8.00028H5.27265C4.43628 8.00028 3.78174 8.65483 3.78174 9.49119C3.78174 10.3276 4.43628 10.9821 5.27265 10.9821L8.87265 11.273C9.0181 11.7821 9.05447 12.1457 9.05447 12.6548C9.05447 12.873 9.0181 13.0912 8.98174 13.3094L7.09083 20.0003C6.87265 20.8003 7.34538 21.6366 8.14538 21.8548C8.29083 21.8912 8.39992 21.8912 8.54538 21.8912C9.19992 21.8912 9.8181 21.4548 9.99992 20.8003L11.9272 15.9276L13.8545 20.8003C14.0363 21.4548 14.6181 21.8912 15.309 21.8912C15.4545 21.8912 15.5636 21.8912 15.709 21.8548C16.509 21.6366 16.9817 20.8003 16.7636 20.0003L14.8726 13.3094C14.7999 13.0912 14.7999 12.873 14.7999 12.6548C14.7999 12.1457 14.8726 11.7821 14.9817 11.273L18.8363 10.9821C19.6363 10.9821 20.3272 10.2912 20.3272 9.49119C20.2181 8.69119 19.5636 8.00028 18.7272 8.00028Z" fill="white"/>
</svg>
