<svg width="24" height="24" viewBox="0 0 24 24" fill="none" xmlns="http://www.w3.org/2000/svg">
<path d="M18.849 8.49781H5.152C4.516 8.49781 4 9.01181 4 9.64781C4 10.2838 4.516 10.7988 5.152 10.7988L8.903 11.0918C9.015 11.0998 9.11 11.1778 9.138 11.2848C9.287 11.8658 9.363 12.2518 9.363 12.8538C9.363 13.1078 9.328 13.3618 9.261 13.6058L7.33 20.3828C7.165 20.9968 7.531 21.6268 8.144 21.7928C8.76 21.9578 9.391 21.5938 9.555 20.9798L11.689 15.6338H12.065L14.199 20.9798C14.363 21.5938 14.995 21.9578 15.61 21.7928C16.223 21.6268 16.588 20.9968 16.423 20.3828L14.493 13.6058C14.425 13.3618 14.391 13.1078 14.391 12.8538C14.39 12.2518 14.466 11.8658 14.617 11.2848C14.643 11.1778 14.739 11.0998 14.85 11.0918L18.849 10.7988C19.485 10.7988 20 10.2838 20 9.64781C20 9.01181 19.485 8.49781 18.849 8.49781ZM13.8559 4.80001C13.8559 3.71401 12.9689 2.83301 11.8769 2.83301C10.7849 2.83301 9.8989 3.71401 9.8989 4.80001C9.8989 5.88601 10.7849 6.76801 11.8769 6.76801C12.9689 6.76801 13.8559 5.88601 13.8559 4.80001Z" stroke="white" stroke-width="1.5" stroke-linecap="round" stroke-linejoin="round"/>
</svg>
