<svg width="24" height="24" viewBox="0 0 24 24" fill="none" xmlns="http://www.w3.org/2000/svg">
<path fill-rule="evenodd" clip-rule="evenodd" d="M13.9403 4.2714C14.0802 3.8824 14.5103 3.6814 14.9002 3.8204C18.3172 5.0524 20.6122 8.3394 20.6122 12.0004C20.6122 14.7954 19.2752 17.3834 17.0952 19.0004H18.9212C19.3353 19.0004 19.6712 19.3365 19.6712 19.7504C19.6712 20.1644 19.3353 20.5004 18.9212 20.5004H15.4102C14.7303 20.5004 14.1763 19.9465 14.1763 19.2665V15.9745C14.1763 15.5604 14.5112 15.2245 14.9263 15.2245C15.3403 15.2245 15.6763 15.5604 15.6763 15.9745V18.1464C17.7862 16.8565 19.1122 14.5315 19.1122 12.0004C19.1122 8.9705 17.2153 6.2495 14.3923 5.2314C14.0013 5.0924 13.8003 4.6615 13.9403 4.2714ZM8.5898 3.5C9.2708 3.5 9.8247 4.054 9.8247 4.7349V8.0249C9.8247 8.439 9.4897 8.7749 9.0747 8.7749C8.6608 8.7749 8.3247 8.439 8.3247 8.0249V5.8519C6.2127 7.142 4.8878 9.467 4.8878 12C4.8878 15.031 6.7847 17.75 9.6088 18.7679C9.9987 18.9079 10.1997 19.337 10.0597 19.7269C9.9497 20.0329 9.6617 20.2229 9.3538 20.2229C9.2697 20.2229 9.1838 20.2089 9.0997 20.1789C5.6828 18.948 3.3877 15.661 3.3877 12C3.3877 9.205 4.7248 6.6159 6.9037 5H5.0798C4.6658 5 4.3298 4.6639 4.3298 4.25C4.3298 3.836 4.6658 3.5 5.0798 3.5H8.5898Z" fill="white"/>
</svg>
