<svg width="24" height="24" viewBox="0 0 24 24" fill="none" xmlns="http://www.w3.org/2000/svg">
<g clip-path="url(#clip0_1074_11958)">
<path d="M15.3001 4.09004L14.7071 4.37504C14.0971 4.66704 13.7181 5.26804 13.7181 5.94304C13.7181 6.62004 14.0961 7.22104 14.7071 7.51404L16.0001 8.13404L16.6911 10.205C16.9281 10.917 17.5911 11.396 18.3421 11.396C18.7711 11.396 19.1671 11.235 19.4761 10.97V17.09C19.4761 18.465 18.3511 19.59 16.9761 19.59H6.47607C5.10107 19.59 3.97607 18.465 3.97607 17.09V6.59004C3.97607 5.21504 5.10107 4.09004 6.47607 4.09004H15.3001ZM9.42207 7.73704C9.11907 7.73704 8.81307 7.97104 8.81307 8.41804V15.055C8.81307 15.502 9.11907 15.737 9.42207 15.737C9.55907 15.737 9.69507 15.693 9.82807 15.607L14.8931 12.33C15.1141 12.187 15.2401 11.971 15.2401 11.737C15.2401 11.502 15.1141 11.285 14.8931 11.143L9.82807 7.86604C9.69507 7.78004 9.55907 7.73704 9.42207 7.73704ZM21.8107 7.03864C21.8577 6.89564 22.0607 6.89564 22.1087 7.03864L22.6897 8.78364L23.9117 9.36864C24.0297 9.42564 24.0297 9.59464 23.9117 9.65164L22.6907 10.2366L22.1087 11.9826C22.0607 12.1256 21.8577 12.1256 21.8107 11.9826L21.2277 10.2366L20.0097 9.65164C19.8907 9.59464 19.8907 9.42564 20.0097 9.36864L21.2287 8.78464L21.8107 7.03864ZM18.1151 2.15914C18.1871 1.93914 18.4981 1.93914 18.5711 2.15914L19.4611 4.83014L21.3321 5.72714C21.5141 5.81414 21.5141 6.07414 21.3321 6.16114L19.4621 7.05714L18.5711 9.73114C18.4981 9.95014 18.1871 9.95014 18.1151 9.73114L17.2221 7.05614L15.3551 6.16114C15.1721 6.07414 15.1721 5.81414 15.3551 5.72714L17.2231 4.83114L18.1151 2.15914Z" fill="white"/>
</g>
<defs>
<clipPath id="clip0_1074_11958">
<rect width="24" height="24" fill="white"/>
</clipPath>
</defs>
</svg>
