<svg width="24" height="24" viewBox="0 0 24 24" fill="none" xmlns="http://www.w3.org/2000/svg">
<path d="M13.0434 8.28023C15.6424 8.28023 17.7494 10.3872 17.7494 12.9862V19.7803H8.02143C4.93943 19.7803 2.44043 17.2822 2.44043 14.2002V13.8612C2.44043 11.3433 4.10843 9.21533 6.40043 8.52033C6.91343 8.36523 7.45743 8.28023 8.02143 8.28023H13.0434ZM15.81 4.21973C18.986 4.21973 21.56 6.79373 21.56 9.96983V15.7197H19.249V12.9867C19.249 9.56473 16.465 6.78083 13.043 6.78083H8.02103C7.70803 6.78083 7.40203 6.80273 7.10103 6.84183C8.08703 5.26773 9.83603 4.21973 11.831 4.21973H15.81Z" fill="white"/>
</svg>
