<svg width="24" height="24" viewBox="0 0 24 24" fill="none" xmlns="http://www.w3.org/2000/svg">
<path d="M8.6329 7.34513C8.9559 7.34513 9.2449 7.40513 9.4919 7.52513C9.7459 7.64713 9.9439 7.82413 10.0809 8.05013C10.2179 8.27513 10.2869 8.53413 10.2869 8.81813C10.2869 9.25413 10.1339 9.60413 9.8319 9.85913C9.5359 10.1081 9.1279 10.2341 8.6189 10.2341H8.0289V11.6551H6.9209V7.34513H8.6329ZM11.9603 7.34473C12.3373 7.34473 12.6803 7.43073 12.9803 7.60273C13.2813 7.77473 13.5203 8.02273 13.6893 8.33873C13.8563 8.65273 13.9403 9.01273 13.9403 9.40873V9.59473C13.9403 9.99073 13.8573 10.3487 13.6933 10.6587C13.5273 10.9727 13.2903 11.2197 12.9873 11.3927C12.6873 11.5647 12.3443 11.6537 11.9693 11.6557H10.5803V7.34473H11.9603ZM17.1709 7.34503V8.29503H15.3759V9.06003H16.9719V10.007H15.3759V11.655H14.2679V7.34503H17.1709ZM11.9603 8.29473H11.6883V10.7107H11.9513C12.2353 10.7107 12.4443 10.6227 12.5893 10.4437C12.7393 10.2577 12.8183 9.97973 12.8213 9.61773V9.40573C12.8213 9.02973 12.7463 8.74573 12.5973 8.56073C12.4533 8.38173 12.2453 8.29473 11.9603 8.29473ZM8.6499 8.29513H8.0289V9.28413H8.6329C8.8159 9.28413 8.9549 9.24413 9.0429 9.16413C9.1289 9.08713 9.1699 8.97613 9.1699 8.82413C9.1699 8.66213 9.1259 8.53713 9.0339 8.44013C8.9439 8.34613 8.8179 8.29813 8.6499 8.29513Z" fill="white"/>
<path d="M11.25 20.25H7.75C6.37 20.25 5.25 19.131 5.25 17.75V6.25C5.25 4.869 6.37 3.75 7.75 3.75H16.25C17.631 3.75 18.75 4.869 18.75 6.25V12.75M16.25 15.25V20.25M13.75 17.75H18.75" stroke="white" stroke-width="1.5" stroke-linecap="round" stroke-linejoin="round"/>
</svg>
