<svg width="24" height="24" viewBox="0 0 24 24" fill="none" xmlns="http://www.w3.org/2000/svg">
<path fill-rule="evenodd" clip-rule="evenodd" d="M7.24951 21H10.2495C10.6645 21 10.9995 20.664 10.9995 20.25C10.9995 19.835 10.6645 19.5 10.2495 19.5H7.24951C6.28451 19.5 5.49951 18.715 5.49951 17.75V6.25C5.49951 5.285 6.28451 4.5 7.24951 4.5H16.7495C17.7145 4.5 18.4995 5.285 18.4995 6.25V10C18.4995 10.414 18.8355 10.75 19.2495 10.75C19.6645 10.75 19.9995 10.414 19.9995 10V6.25C19.9995 4.458 18.5415 3 16.7495 3H7.24951C5.45751 3 3.99951 4.458 3.99951 6.25V17.75C3.99951 19.542 5.45751 21 7.24951 21Z" fill="white"/>
<path fill-rule="evenodd" clip-rule="evenodd" d="M18.2838 17.3255H16.9088V18.7005C16.9088 19.0455 16.6288 19.3255 16.2838 19.3255C15.9378 19.3255 15.6588 19.0455 15.6588 18.7005V17.3255H14.2838C13.9378 17.3255 13.6588 17.0455 13.6588 16.7005C13.6588 16.3545 13.9378 16.0755 14.2838 16.0755H15.6588V14.7005C15.6588 14.3545 15.9378 14.0755 16.2838 14.0755C16.6288 14.0755 16.9088 14.3545 16.9088 14.7005V16.0755H18.2838C18.6288 16.0755 18.9088 16.3545 18.9088 16.7005C18.9088 17.0455 18.6288 17.3255 18.2838 17.3255ZM16.2838 12.3535C13.8878 12.3535 11.9368 14.3035 11.9368 16.7005C11.9368 19.0965 13.8878 21.0475 16.2838 21.0475C18.6808 21.0475 20.6308 19.0965 20.6308 16.7005C20.6308 14.3035 18.6808 12.3535 16.2838 12.3535Z" fill="white"/>
<path fill-rule="evenodd" clip-rule="evenodd" d="M8.99751 8.96158C8.90851 9.04158 8.77051 9.08158 8.58651 9.08158H7.98251V8.09258H8.60351C8.77151 8.09558 8.89751 8.14358 8.98751 8.23758C9.07951 8.33458 9.12451 8.45958 9.12451 8.62158C9.12451 8.77458 9.08251 8.88558 8.99751 8.96158ZM9.44651 7.32158C9.19851 7.20258 8.90951 7.14258 8.58651 7.14258H6.87451V11.4526H7.98251V10.0316H8.57251C9.08251 10.0316 9.49051 9.90558 9.78551 9.65658C10.0875 9.40158 10.2405 9.05258 10.2405 8.61558C10.2405 8.33058 10.1715 8.07258 10.0345 7.84758C9.89751 7.62158 9.69951 7.44458 9.44651 7.32158ZM12.7759 9.41568C12.7719 9.77668 12.6939 10.0547 12.5439 10.2407C12.3979 10.4207 12.1889 10.5087 11.9059 10.5087H11.6419V8.09268H11.9149C12.1999 8.09268 12.4079 8.17968 12.5509 8.35768C12.6999 8.54368 12.7759 8.82768 12.7759 9.20368V9.41568ZM12.9339 7.39968C12.6339 7.22868 12.2919 7.14268 11.9149 7.14268H10.5349V11.4527H10.6729H11.9229C12.2979 11.4507 12.6409 11.3627 12.9419 11.1907C13.2439 11.0177 13.4819 10.7697 13.6479 10.4567C13.8109 10.1457 13.8949 9.78768 13.8949 9.39168V9.20568C13.8949 8.81068 13.8099 8.44968 13.6429 8.13668C13.4739 7.81968 13.2359 7.57268 12.9339 7.39968Z" fill="white"/>
<path fill-rule="evenodd" clip-rule="evenodd" d="M17.1249 8.0916V7.1416H14.2219V11.4516H15.3299V9.8036H16.9259V8.8566H15.3299V8.0916H17.1249Z" fill="white"/>
</svg>
