<svg width="24" height="24" viewBox="0 0 24 24" fill="none" xmlns="http://www.w3.org/2000/svg">
<path d="M10.3006 3.42642C11.2911 2.60007 12.7079 2.59906 13.6859 3.41379L19.3375 8.34743C20.2869 9.13792 20.8385 10.318 20.8385 11.5695V17.7738C20.8385 19.66 19.3038 21.1948 17.4174 21.1948H6.58276C4.69636 21.1948 3.16162 19.66 3.16162 17.7738V11.5695C3.16162 10.318 3.71324 9.13792 4.6764 8.33581L10.3006 3.42642ZM12.0047 4.38112C11.7647 4.38112 11.5227 4.46221 11.3258 4.62642L5.70057 9.53695C5.08579 10.0506 4.74057 10.7863 4.74057 11.5695V17.7738C4.74057 18.7896 5.56693 19.6158 6.58276 19.6158H17.4174C18.4332 19.6158 19.2596 18.7896 19.2596 17.7738V11.5695C19.2596 10.7875 18.9143 10.0506 18.3132 9.54845L12.6606 4.61581C12.4732 4.46007 12.2406 4.38112 12.0047 4.38112ZM12.0002 8.56179C12.436 8.56179 12.7897 8.91548 12.7897 9.35127V12.2459H15.6843C16.1202 12.2459 16.4738 12.5996 16.4738 13.0354C16.4738 13.4723 16.1202 13.8249 15.6843 13.8249H12.7897V16.7196C12.7897 17.1564 12.436 17.5091 12.0002 17.5091C11.5644 17.5091 11.2107 17.1564 11.2107 16.7196V13.8249H8.31594C7.88015 13.8249 7.52646 13.4723 7.52646 13.0354C7.52646 12.5996 7.88015 12.2459 8.31594 12.2459H11.2107V9.35127C11.2107 8.91548 11.5644 8.56179 12.0002 8.56179Z" fill="white"/>
</svg>
