<svg width="24" height="24" viewBox="0 0 24 24" fill="none" xmlns="http://www.w3.org/2000/svg">
<path d="M20.3952 11.0693C20.3952 11.8973 19.7242 12.5693 18.8952 12.5693C18.0672 12.5693 17.3952 11.8973 17.3952 11.0693C17.3952 10.2413 18.0672 9.5693 18.8952 9.5693C19.7242 9.5693 20.3952 10.2413 20.3952 11.0693ZM20.3962 4.7002C20.3962 5.5282 19.7242 6.2002 18.8962 6.2002C18.0672 6.2002 17.3962 5.5282 17.3962 4.7002C17.3962 3.8712 18.0672 3.2002 18.8962 3.2002C19.7242 3.2002 20.3962 3.8712 20.3962 4.7002ZM15.1306 7.8554C15.1306 8.6834 14.4586 9.3554 13.6306 9.3554C12.8026 9.3554 12.1306 8.6834 12.1306 7.8554C12.1306 7.0264 12.8026 6.3554 13.6306 6.3554C14.4586 6.3554 15.1306 7.0264 15.1306 7.8554Z" fill="white"/>
<path d="M18.8954 4.69975L13.2624 7.88475L18.8954 11.0688M15.6113 14.8619L15.0893 15.3829C14.6213 15.8519 14.2473 15.9499 13.8823 15.9439C13.5853 15.9389 13.1913 15.7289 13.1033 15.6709C10.1813 13.9989 8.80629 11.5649 8.53829 11.0449C8.51929 11.0109 8.37229 10.7139 8.35629 10.4169C8.33729 10.0529 8.44729 9.67785 8.91629 9.20985L9.43729 8.68785C9.90129 8.22285 10.0083 7.84685 9.99329 7.48685C9.97529 7.12385 9.83129 6.73685 9.31729 6.22185L8.02129 4.92685C7.50729 4.41285 7.12129 4.26785 6.75729 4.25185C6.39529 4.23385 6.02129 4.34185 5.55529 4.80585L5.55229 4.80985L5.55029 4.81085C4.07329 6.29085 3.74029 7.69985 3.80829 9.15985C3.85129 10.0679 4.09229 11.0159 4.76729 12.0999C4.76729 12.0999 7.15629 16.0079 11.7723 19.2479C11.8273 19.2859 11.8823 19.3229 11.9353 19.3589C12.0173 19.4159 12.1873 19.5279 12.1903 19.5259C13.2783 20.2049 14.2283 20.4479 15.1403 20.4919C16.6003 20.5599 18.0083 20.2259 19.4893 18.7499L19.4903 18.7479L19.4943 18.7439C19.9583 18.2789 20.0663 17.9049 20.0483 17.5429C20.0313 17.1789 19.8863 16.7919 19.3723 16.2789L18.0773 14.9829C17.5643 14.4689 17.1753 14.3239 16.8123 14.3069C16.4523 14.2909 16.0773 14.3989 15.6113 14.8619Z" stroke="white" stroke-width="1.5" stroke-linecap="round" stroke-linejoin="round"/>
</svg>
