<svg width="24" height="24" viewBox="0 0 24 24" fill="none" xmlns="http://www.w3.org/2000/svg">
<path fill-rule="evenodd" clip-rule="evenodd" d="M6.20859 3.69263C6.60359 3.70993 7.02359 3.86733 7.58039 4.42513L8.98689 5.83063C9.54469 6.38953 9.70209 6.80953 9.72059 7.20343C9.73789 7.59413 9.62069 8.00223 9.11819 8.50693L8.55169 9.07343C8.04379 9.58133 7.92329 9.98943 7.94399 10.3833C7.96129 10.7056 8.12189 11.028 8.14149 11.0638C8.43339 11.6292 9.92569 14.2708 13.0958 16.0854C13.1924 16.1483 13.6189 16.3762 13.9423 16.3817C14.3373 16.3871 14.7432 16.2818 15.2512 15.7728L15.8188 15.2074C16.3234 14.7049 16.7304 14.5866 17.1222 14.6051C17.5161 14.6224 17.9372 14.7809 18.4951 15.3387L19.8994 16.7452C20.4583 17.302 20.6157 17.722 20.6342 18.117C20.6526 18.5088 20.5354 18.9158 20.0318 19.4194L20.0275 19.4237C18.4202 21.0288 16.8921 21.3913 15.3076 21.3164C14.3178 21.2698 13.2868 21.006 12.1049 20.2691C12.1028 20.2713 11.9183 20.1498 11.8282 20.0879C11.7707 20.0488 11.711 20.0076 11.6513 19.9663C6.64159 16.4511 4.04999 12.2098 4.04999 12.2098C3.31739 11.0334 3.05579 10.0056 3.00919 9.01913C2.93429 7.43353 3.29569 5.90443 4.89969 4.29923L4.90189 4.29813C5.40979 3.79023 5.81569 3.67303 6.20859 3.69263ZM19.3721 2.67383C20.2707 2.67383 21 3.40203 21 4.30173C21 5.20033 20.2707 5.92863 19.3721 5.92863C19.04 5.92863 18.7307 5.82873 18.4724 5.65723L15.2263 7.57713C15.2339 7.64333 15.2404 7.71173 15.2404 7.78003C15.2404 7.84953 15.2339 7.91683 15.2263 7.98303L18.4735 9.90293C18.7307 9.73143 19.04 9.63153 19.3721 9.63153C20.2707 9.63153 21 10.3608 21 11.2595C21 12.1592 20.2707 12.8874 19.3721 12.8874C18.4724 12.8874 17.7442 12.1592 17.7442 11.2595C17.7442 11.19 17.7496 11.1227 17.7583 11.0554L14.5111 9.13673C14.2539 9.30923 13.9457 9.40913 13.6125 9.40913C12.7139 9.40913 11.9846 8.67873 11.9846 7.78003C11.9846 6.88143 12.7139 6.15213 13.6125 6.15213C13.9457 6.15213 14.2539 6.25203 14.5111 6.42343L17.7583 4.50473C17.7496 4.43853 17.7442 4.37123 17.7442 4.30173C17.7442 3.40203 18.4724 2.67383 19.3721 2.67383Z" fill="white"/>
</svg>
