<svg width="24" height="24" viewBox="0 0 24 24" fill="none" xmlns="http://www.w3.org/2000/svg">
<path d="M14.6774 4.20156C14.8521 4.3154 14.9299 4.48668 15.0008 4.67824C15.012 4.7078 15.012 4.7078 15.0234 4.73796C15.0394 4.77996 15.0552 4.82199 15.071 4.86405C15.1121 4.97392 15.1539 5.08356 15.1956 5.19324C15.2079 5.22562 15.2079 5.22562 15.2204 5.25866C15.2857 5.43057 15.3536 5.60128 15.4234 5.7714C15.4937 5.94325 15.5612 6.11548 15.6249 6.28998C15.7206 6.5515 15.8232 6.81039 15.9243 7.06982C15.9689 7.18407 16.0133 7.29838 16.0575 7.41272C16.1764 7.71949 16.296 8.02593 16.4174 8.33166C16.5049 8.552 16.59 8.77296 16.6713 8.99573C16.6815 9.02338 16.6916 9.05103 16.7021 9.07953C16.7077 9.10142 16.7134 9.12332 16.7191 9.14587C16.7703 9.24235 16.8454 9.27132 16.9402 9.3145C16.9791 9.33315 17.0179 9.35182 17.0568 9.3705C17.0772 9.38016 17.0976 9.38982 17.1187 9.39977C17.2244 9.45032 17.3286 9.50384 17.4331 9.55705C17.4754 9.57847 17.5177 9.59987 17.56 9.62127C17.7536 9.71917 17.9472 9.81707 18.1407 9.91498C18.1319 9.95055 18.1231 9.98613 18.1141 10.0228C18.1492 10.0228 18.1844 10.0228 18.2206 10.0228C18.2206 10.0406 18.2206 10.0584 18.2206 10.0767C18.2646 10.0856 18.3086 10.0945 18.3538 10.1036C18.3538 10.1214 18.3538 10.1392 18.3538 10.1575C18.3714 10.1575 18.389 10.1575 18.4071 10.1575C18.4071 10.1753 18.4071 10.1931 18.4071 10.2114C18.4224 10.2016 18.4377 10.1918 18.4534 10.1816C18.5137 10.1575 18.5137 10.1575 18.5698 10.173C18.5881 10.1829 18.6064 10.1928 18.6252 10.203C18.6438 10.2126 18.6623 10.2221 18.6813 10.232C18.7268 10.2653 18.7268 10.2653 18.7534 10.3462C18.7762 10.3401 18.799 10.3341 18.8225 10.3279C18.9358 10.3171 18.9872 10.344 19.0878 10.3965C19.1123 10.409 19.1123 10.409 19.1372 10.4218C19.1899 10.449 19.2422 10.4767 19.2946 10.5045C19.3306 10.5233 19.3667 10.5421 19.4027 10.5608C19.4738 10.5978 19.5446 10.635 19.6154 10.6725C19.6978 10.7159 19.7807 10.7581 19.8639 10.7997C19.9045 10.8203 19.945 10.841 19.9856 10.8616C20.0036 10.8705 20.0217 10.8793 20.0402 10.8884C20.1207 10.9305 20.161 10.9575 20.2033 11.0399C20.2084 11.06 20.2134 11.0801 20.2187 11.1008C20.2478 11.103 20.2769 11.1052 20.3069 11.1075C20.4052 11.1277 20.4052 11.1277 20.4568 11.18C20.4851 11.2355 20.4851 11.2355 20.4851 11.2894C20.5115 11.2983 20.5378 11.3072 20.565 11.3164C20.565 11.3697 20.565 11.4231 20.565 11.4781C20.5826 11.4781 20.6002 11.4781 20.6183 11.4781C20.6843 11.5782 20.6832 11.6586 20.6716 11.7745C20.6449 11.8554 20.6449 11.8554 20.6183 11.9093C20.5919 11.9093 20.5655 11.9093 20.5384 11.9093C20.5296 11.9538 20.5208 11.9982 20.5117 12.044C20.4673 12.044 20.4229 12.044 20.3785 12.044C20.4049 12.0796 20.4313 12.1152 20.4584 12.1518C20.2176 12.2811 19.9768 12.4102 19.7325 12.5325C19.5958 12.601 19.4606 12.6716 19.3262 12.7447C19.1947 12.8163 19.0625 12.8858 18.9288 12.953C18.9105 12.9622 18.8922 12.9714 18.8734 12.9809C18.8156 13.01 18.7579 13.0391 18.7002 13.0681C18.0737 13.3821 18.0737 13.3821 17.453 13.7076C16.9379 13.9849 16.9379 13.9849 16.8081 14.0302C16.7281 14.0835 16.7132 14.149 16.6795 14.2386C16.6728 14.2562 16.6661 14.2738 16.6591 14.2919C16.637 14.3499 16.6155 14.408 16.5939 14.4662C16.5785 14.5067 16.5631 14.5473 16.5477 14.5878C16.5163 14.6704 16.485 14.7531 16.4539 14.8358C16.3904 15.0045 16.3248 15.1724 16.2592 15.3404C16.2353 15.4019 16.2114 15.4635 16.1875 15.525C16.1758 15.5553 16.164 15.5856 16.1519 15.6167C16.1153 15.7112 16.0786 15.8057 16.042 15.9002C15.9128 16.2335 15.7831 16.5666 15.6504 16.8986C15.5915 17.0467 15.5348 17.1955 15.4797 17.3451C15.397 17.5695 15.3106 17.7924 15.2236 18.0152C15.209 18.0526 15.1944 18.0901 15.1798 18.1276C15.151 18.2013 15.1221 18.2751 15.0932 18.3488C15.064 18.423 15.0354 18.4974 15.007 18.5719C14.993 18.6082 14.9791 18.6446 14.9651 18.6809C14.9467 18.7292 14.9467 18.7292 14.9279 18.7785C14.8513 18.9507 14.7424 19.0396 14.5759 19.1184C14.3959 19.1825 14.2323 19.1645 14.058 19.0898C13.8361 18.9591 13.7506 18.7146 13.6618 18.4834C13.6493 18.4518 13.6369 18.4201 13.624 18.3875C13.5908 18.3027 13.5579 18.2178 13.5252 18.1327C13.5055 18.0814 13.4857 18.0301 13.4658 17.9788C13.3852 17.7699 13.3054 17.5607 13.2258 17.3513C12.8013 16.2341 12.8013 16.2341 12.3588 15.124C12.3017 14.9836 12.2471 14.8426 12.1949 14.7003C12.1885 14.6833 12.1822 14.6662 12.1757 14.6486C12.1432 14.5611 12.112 14.4734 12.0822 14.3849C12.015 14.1722 12.015 14.1722 11.8702 14.0131C11.8296 13.9935 11.7884 13.9752 11.747 13.9575C11.6989 13.9331 11.6508 13.9088 11.6029 13.8841C11.5476 13.8558 11.4921 13.8281 11.4365 13.8004C11.3213 13.7426 11.2077 13.682 11.0943 13.6206C10.9153 13.5241 10.7349 13.4309 10.5532 13.3398C10.4492 13.2876 10.3454 13.2351 10.2416 13.1826C10.0961 13.109 9.95061 13.0355 9.80502 12.9622C9.13281 12.6237 9.13281 12.6237 8.8203 12.4549C8.7305 12.4065 8.64051 12.359 8.54895 12.314C8.52341 12.3014 8.52341 12.3014 8.49735 12.2885C8.4527 12.2667 8.4079 12.2452 8.36309 12.2237C8.17228 12.1157 8.06215 11.9845 7.99065 11.7745C7.95678 11.5964 7.99783 11.4605 8.0765 11.3008C8.20614 11.1221 8.38527 11.0267 8.57882 10.9319C8.60456 10.919 8.63029 10.9061 8.65681 10.8929C8.73878 10.8519 8.82092 10.8112 8.90309 10.7706C9.01039 10.7173 9.11763 10.6638 9.22485 10.6102C9.25109 10.5971 9.27733 10.5841 9.30437 10.5706C9.51578 10.4649 9.72472 10.355 9.93284 10.2428C10.1095 10.1478 10.289 10.0587 10.4682 9.96888C10.7551 9.82505 11.0413 9.68041 11.3235 9.52722C11.4244 9.47268 11.5254 9.4207 11.6299 9.37356C11.6494 9.36454 11.6688 9.35553 11.6889 9.34625C11.7251 9.32967 11.7615 9.3137 11.7983 9.29853C11.9267 9.23895 11.9662 9.17036 12.0143 9.04348C12.0228 9.0198 12.0313 8.99612 12.04 8.97173C12.0617 8.91778 12.0835 8.86388 12.1054 8.81002C12.1303 8.74717 12.1551 8.68428 12.1799 8.62137C12.1866 8.60437 12.1933 8.58736 12.2002 8.56984C12.373 8.13197 12.5418 7.69248 12.7109 7.25314C12.8328 6.93635 12.9559 6.61999 13.079 6.30366C13.0925 6.26905 13.1059 6.23444 13.1194 6.19982C13.1263 6.18204 13.1333 6.16425 13.1404 6.14593C13.1547 6.10921 13.169 6.07249 13.1833 6.03577C13.2196 5.94252 13.2559 5.84929 13.2923 5.75609C13.3607 5.58082 13.4289 5.40547 13.496 5.22968C13.527 5.14845 13.5582 5.06728 13.5894 4.98612C13.6041 4.94758 13.6188 4.90902 13.6334 4.87042C13.8516 4.29366 13.8516 4.29366 14.0873 4.17724C14.2955 4.08916 14.4739 4.11119 14.6774 4.20156Z" fill="#2977E8"/>
<path d="M7.8616 8.23586C8.05627 8.33811 8.1318 8.53882 8.19877 8.74044C8.22252 8.82937 8.23041 8.90619 8.23041 8.99868C8.2472 9.03508 8.26511 9.07097 8.28369 9.10648C8.29248 9.13371 8.30127 9.16095 8.31033 9.18901C8.33449 9.27191 8.33449 9.27191 8.39025 9.34903C8.39465 9.37682 8.39905 9.40461 8.40357 9.43325C8.40797 9.45882 8.41237 9.48438 8.41689 9.51073C8.43448 9.51962 8.45206 9.52852 8.47018 9.53768C8.47347 9.56269 8.47677 9.5877 8.48017 9.61348C8.48903 9.70153 8.48903 9.70153 8.5501 9.75328C8.61844 9.82242 8.61778 9.87393 8.63002 9.96888C8.61502 9.97645 8.60003 9.98402 8.58458 9.99182C8.00058 10.2886 7.44477 10.5998 7.21807 11.2625C7.113 11.6457 7.16754 12.0171 7.35356 12.368C7.56742 12.7048 7.86086 12.9119 8.21261 13.0871C8.25049 13.1061 8.28836 13.1251 8.32623 13.1441C8.34561 13.1538 8.36499 13.1635 8.38495 13.1735C8.47954 13.2209 8.57392 13.2688 8.66831 13.3166C8.70626 13.3358 8.74421 13.355 8.78216 13.3742C8.85834 13.4127 8.93451 13.4512 9.01069 13.4898C9.0295 13.4993 9.04832 13.5088 9.0677 13.5186C9.10549 13.5377 9.14327 13.5568 9.18104 13.5759C9.27448 13.6232 9.36795 13.6704 9.46146 13.7176C9.67206 13.8237 9.8818 13.9313 10.0903 14.0417C10.1275 14.0614 10.1275 14.0614 10.1655 14.0814C10.2399 14.1207 10.3141 14.1603 10.3883 14.2C10.415 14.2142 10.4418 14.2284 10.4693 14.2431C10.4954 14.2572 10.5215 14.2712 10.5485 14.2857C10.5838 14.3047 10.5838 14.3047 10.6199 14.324C10.6769 14.359 10.7158 14.3941 10.7613 14.4426C10.7799 14.452 10.7986 14.4615 10.8179 14.4712C10.8678 14.4965 10.8678 14.4965 10.8945 14.5504C10.9159 14.5543 10.9373 14.5582 10.9594 14.5622C11.0277 14.5773 11.0277 14.5773 11.081 14.6582C11.081 14.6849 11.081 14.7116 11.081 14.739C11.0652 14.7472 11.0494 14.7554 11.0332 14.7638C11.0121 14.7751 10.9911 14.7864 10.9694 14.798C10.9487 14.8089 10.928 14.8199 10.9066 14.8312C10.8375 14.8727 10.8375 14.8727 10.7778 14.9396C10.5986 15.1166 10.3438 15.2198 10.0953 15.2242C10.0953 15.2419 10.0953 15.2597 10.0953 15.2781C10.0793 15.2814 10.0634 15.2847 10.047 15.2882C9.9817 15.3038 9.9817 15.3038 9.90877 15.3589C9.83717 15.3623 9.83717 15.3623 9.77557 15.3589C9.75798 15.3945 9.7404 15.4301 9.72228 15.4667C9.66954 15.4578 9.61679 15.4489 9.56244 15.4398C9.57123 15.4753 9.58002 15.5109 9.58908 15.5476C9.52754 15.5564 9.466 15.5653 9.4026 15.5745C9.4026 15.5923 9.4026 15.6101 9.4026 15.6284C9.36743 15.6373 9.33227 15.6462 9.29603 15.6554C9.29603 15.6731 9.29603 15.6909 9.29603 15.7093C9.31362 15.7093 9.3312 15.7093 9.34932 15.7093C9.33333 15.8709 9.27751 16.0244 9.16283 16.1405C9.15839 16.2236 9.15839 16.2236 9.16283 16.3022C9.14525 16.3022 9.12767 16.3022 9.10955 16.3022C9.10543 16.343 9.10543 16.343 9.10122 16.3847C9.0817 16.4978 9.05347 16.5773 9.00299 16.6795C8.9854 16.6884 8.96782 16.6972 8.94971 16.7064C8.95081 16.7403 8.9519 16.7742 8.95304 16.8092C8.95607 16.9029 8.95128 16.9196 8.89643 17.0029C8.87005 17.0029 8.84368 17.0029 8.8165 17.0029C8.822 17.0179 8.82749 17.0329 8.83315 17.0483C8.84618 17.1296 8.8266 17.173 8.78986 17.2454C8.77228 17.2543 8.7547 17.2632 8.73658 17.2724C8.71817 17.3419 8.71817 17.3419 8.70661 17.4223C8.69991 17.4632 8.69991 17.4632 8.69308 17.5049C8.68985 17.526 8.68663 17.5471 8.6833 17.5688C8.65693 17.5777 8.63055 17.5866 8.60338 17.5958C8.61217 17.6224 8.62096 17.6491 8.63002 17.6766C8.60504 17.749 8.60504 17.749 8.57674 17.8114C8.55916 17.8114 8.54157 17.8114 8.52346 17.8114C8.52346 17.8647 8.52346 17.9181 8.52346 17.9731C8.50587 17.9731 8.48829 17.9731 8.47018 17.9731C8.46605 18.0131 8.46605 18.0131 8.46185 18.0539C8.44598 18.1693 8.40661 18.2695 8.36361 18.3773C8.34603 18.3773 8.32845 18.3773 8.31033 18.3773C8.31033 18.404 8.31033 18.4307 8.31033 18.4582C8.30351 18.4993 8.29566 18.5403 8.28702 18.5811C8.28053 18.6129 8.28053 18.6129 8.27391 18.6452C8.25705 18.7007 8.25705 18.7007 8.20377 18.7546C8.19498 18.7813 8.18619 18.808 8.17713 18.8355C8.15049 18.9163 8.15049 18.9163 8.09721 18.9702C8.09831 18.9952 8.0994 19.0202 8.10054 19.046C8.09636 19.1538 8.05882 19.1869 7.99064 19.2667C7.99064 19.2933 7.99064 19.32 7.99064 19.3475C7.8355 19.4424 7.71324 19.4329 7.53703 19.3993C7.41651 19.3615 7.38504 19.3245 7.32463 19.2128C7.28633 19.1134 7.28633 19.1134 7.27135 19.0241C7.28893 18.9974 7.30651 18.9708 7.32463 18.9433C7.28946 18.9433 7.2543 18.9433 7.21807 18.9433C7.1975 18.8854 7.17697 18.8276 7.15646 18.7698C7.15033 18.7525 7.14421 18.7353 7.13789 18.7176C7.10449 18.6232 7.07279 18.5286 7.04324 18.4329C7.01919 18.358 6.99051 18.2946 6.95 18.2274C6.89153 18.1225 6.87162 18.036 6.8451 17.9192C6.83026 17.89 6.83026 17.89 6.81513 17.8602C6.78496 17.797 6.78801 17.7459 6.79182 17.6766C6.77423 17.6766 6.75665 17.6766 6.73854 17.6766C6.67657 17.5787 6.68092 17.4941 6.68526 17.3802C6.66767 17.3802 6.65009 17.3802 6.63197 17.3802C6.5985 17.3018 6.57869 17.2509 6.57869 17.1646C6.55489 17.1641 6.55489 17.1641 6.53061 17.1636C6.47213 17.1376 6.47213 17.1376 6.4303 17.0535C6.41608 17.0149 6.40231 16.9761 6.38888 16.9372C6.3728 16.8931 6.3567 16.849 6.34059 16.8049C6.3319 16.7807 6.32322 16.7565 6.31426 16.7316C6.26081 16.5839 6.2048 16.4372 6.14911 16.2904C6.13826 16.2614 6.1274 16.2324 6.11622 16.2025C6.08459 16.1186 6.05208 16.0352 6.01924 15.9518C6.00363 15.9105 6.00363 15.9105 5.9877 15.8683C5.93935 15.7488 5.90775 15.6722 5.80507 15.5925C5.77355 15.5793 5.74202 15.5662 5.70954 15.5526C5.67147 15.5356 5.63346 15.5184 5.59549 15.5011C5.5742 15.4917 5.5529 15.4823 5.53097 15.4726C5.38795 15.4066 5.24941 15.3315 5.11013 15.2578C5.0638 15.2335 5.0638 15.2335 5.01653 15.2087C4.7949 15.0922 4.57542 14.972 4.35657 14.8503C4.11296 14.7152 3.86489 14.5902 3.61472 14.4681C3.14246 14.2361 3.14246 14.2361 3.03549 14.0569C2.9907 13.8898 2.97658 13.755 3.0638 13.6004C3.16735 13.4353 3.35594 13.345 3.52533 13.2629C3.56309 13.2442 3.60084 13.2255 3.63859 13.2067C3.65782 13.1972 3.67706 13.1877 3.69688 13.1779C3.79016 13.1314 3.88263 13.0833 3.97509 13.0351C3.9935 13.0255 4.0119 13.0159 4.03086 13.0061C4.08815 12.9763 4.14542 12.9464 4.20268 12.9165C4.24344 12.8953 4.28419 12.8741 4.32495 12.8529C4.57571 12.7222 4.82636 12.5913 5.07683 12.4601C5.10586 12.4449 5.13488 12.4297 5.16479 12.414C5.29342 12.3465 5.42181 12.2786 5.5496 12.2094C5.57099 12.1979 5.59238 12.1863 5.61441 12.1744C5.65312 12.1534 5.69178 12.1323 5.73037 12.111C5.8536 12.044 5.8536 12.044 5.91268 12.044C5.91727 12.0297 5.92187 12.0153 5.92661 12.0005C5.97802 11.842 6.0346 11.686 6.09365 11.5302C6.10767 11.493 6.10767 11.493 6.12197 11.4551C6.15151 11.3768 6.18111 11.2986 6.21072 11.2204C6.2309 11.167 6.25107 11.1135 6.27123 11.0601C6.32039 10.9299 6.3696 10.7997 6.41885 10.6696C6.44522 10.6696 6.4716 10.6696 6.49877 10.6696C6.53581 10.5805 6.53581 10.5805 6.56308 10.4881C6.58486 10.4029 6.6144 10.3212 6.64363 10.2384C6.65513 10.2056 6.66664 10.1728 6.67849 10.139C6.70425 10.0702 6.73148 10.0069 6.76518 9.94193C6.78328 9.89715 6.80113 9.85227 6.81846 9.80718C6.80088 9.80718 6.78329 9.80718 6.76518 9.80718C6.82774 9.61177 6.89805 9.42013 6.97138 9.22863C7.02027 9.1006 7.06769 8.97239 7.11203 8.84266C7.12088 8.81743 7.12973 8.7922 7.13885 8.7662C7.15564 8.71826 7.17193 8.67014 7.18765 8.62182C7.24827 8.45146 7.33595 8.346 7.48447 8.24407C7.61146 8.20125 7.73286 8.19386 7.8616 8.23586Z" fill="#30A5F3"/>
<path d="M18.9932 17.0029C19.0889 17.1035 19.1368 17.2152 19.1843 17.3441C19.1918 17.364 19.1994 17.3839 19.2072 17.4044C19.2232 17.4468 19.2392 17.4893 19.2551 17.5317C19.2797 17.5978 19.3047 17.6638 19.3299 17.7297C19.4007 17.9158 19.4707 18.1021 19.5399 18.2889C19.558 18.3369 19.5761 18.3849 19.5943 18.4329C19.6019 18.4541 19.6095 18.4754 19.6173 18.4973C19.6637 18.6191 19.7013 18.6741 19.8191 18.7277C19.8495 18.7433 19.8799 18.759 19.9113 18.7751C19.946 18.7925 19.9808 18.8098 20.0155 18.827C20.1821 18.9104 20.3468 18.9968 20.5104 19.086C20.6077 19.1391 20.7057 19.1902 20.8048 19.2397C20.8048 19.2842 20.8048 19.3287 20.8048 19.3745C20.8311 19.3834 20.8575 19.3923 20.8847 19.4014C20.8847 19.4637 20.8847 19.5259 20.8847 19.5901C20.8583 19.599 20.8319 19.6079 20.8048 19.617C20.796 19.6437 20.7872 19.6704 20.7781 19.6979C20.7143 19.7947 20.6455 19.8247 20.545 19.873C20.5267 19.8823 20.5083 19.8915 20.4894 19.901C20.3755 19.9579 20.2607 20.0116 20.1447 20.0639C20.0922 20.0884 20.0397 20.113 19.9872 20.1375C19.9621 20.1483 19.9369 20.1591 19.911 20.1702C19.7425 20.2503 19.6746 20.3279 19.6083 20.5035C19.594 20.5449 19.594 20.5449 19.5793 20.5872C19.5556 20.6472 19.5318 20.7071 19.5078 20.767C19.4833 20.8306 19.4588 20.8942 19.4344 20.9578C19.4215 20.9913 19.4086 21.0248 19.3957 21.0583C19.3705 21.1235 19.3454 21.1887 19.3202 21.254C19.2566 21.4184 19.1916 21.5823 19.1264 21.7461C19.1176 21.7704 19.1087 21.7947 19.0996 21.8198C19.0629 21.9045 19.0167 21.9399 18.9399 21.9886C18.8733 22.0038 18.8733 22.0038 18.8067 21.9886C18.6474 21.8688 18.6008 21.6896 18.5337 21.5069C18.521 21.4732 18.5083 21.4395 18.4955 21.4058C18.4696 21.3371 18.4439 21.2684 18.4182 21.1997C18.3829 21.1056 18.3467 21.0119 18.31 20.9183C18.2991 20.8905 18.2882 20.8627 18.277 20.834C18.2566 20.7821 18.2362 20.7301 18.2158 20.6781C18.2066 20.6546 18.1975 20.6311 18.1881 20.6069C18.1795 20.5851 18.171 20.5632 18.1622 20.5407C18.1424 20.4843 18.1296 20.4298 18.1175 20.3713C18.1076 20.3447 18.0977 20.3182 18.0874 20.2908C18.0166 20.2562 18.0166 20.2562 17.9276 20.2369C17.8488 20.1997 17.7727 20.1573 17.6961 20.1156C17.6513 20.0915 17.6065 20.0673 17.5617 20.0432C17.5387 20.0307 17.5157 20.0183 17.492 20.0055C17.3761 19.9429 17.2597 19.881 17.1434 19.8191C17.1221 19.8078 17.1008 19.7965 17.0789 19.7848C17.059 19.7742 17.0391 19.7635 17.0186 19.7526C17.0012 19.7433 16.9837 19.734 16.9658 19.7245C16.9301 19.7057 16.894 19.6878 16.8577 19.6704C16.7919 19.6349 16.7771 19.6081 16.7554 19.5362C16.7591 19.447 16.7697 19.3924 16.8203 19.3189C16.9247 19.2391 17.0737 19.1319 17.2083 19.1319C17.2083 19.1497 17.2083 19.1675 17.2083 19.1858C17.2838 19.1485 17.3579 19.1113 17.4295 19.0669C17.5087 19.0197 17.5894 18.9805 17.6728 18.9416C17.7019 18.9279 17.731 18.9143 17.761 18.9002C17.8477 18.8624 17.8477 18.8624 17.9352 18.8356C18.0154 18.8137 18.0154 18.8137 18.0608 18.7277C18.0344 18.7143 18.0344 18.7143 18.0075 18.7007C18.0194 18.6904 18.0313 18.6801 18.0436 18.6694C18.0979 18.608 18.1199 18.5504 18.149 18.4734C18.1605 18.4435 18.172 18.4135 18.1838 18.3827C18.1959 18.3503 18.2081 18.318 18.2206 18.2847C18.2335 18.2511 18.2463 18.2176 18.2592 18.184C18.3136 18.0421 18.3675 17.8999 18.4211 17.7576C18.4474 17.6876 18.4739 17.6176 18.5005 17.5477C18.5255 17.482 18.5503 17.4162 18.5748 17.3502C18.5919 17.3054 18.5919 17.3054 18.6093 17.2597C18.6192 17.2335 18.629 17.2072 18.6392 17.1802C18.7215 17.0136 18.8151 16.9524 18.9932 17.0029Z" fill="#2B78E7"/>
<path d="M8.20377 2.04555C8.29096 2.03728 8.36079 2.04241 8.44353 2.0725C8.47758 2.12087 8.47758 2.12087 8.50462 2.18788C8.51565 2.21471 8.52667 2.24154 8.53803 2.26918C8.55081 2.3021 8.56358 2.33503 8.57674 2.36895C8.59312 2.41044 8.60951 2.45192 8.6259 2.4934C8.68249 2.63744 8.73786 2.78194 8.79319 2.92648C8.81244 2.97654 8.83169 3.0266 8.85095 3.07665C8.88631 3.16865 8.92166 3.26065 8.9569 3.3527C8.96475 3.37295 8.97261 3.39321 8.9807 3.41407C8.99556 3.45397 9.00946 3.49424 9.02238 3.53483C9.05021 3.62032 9.07031 3.67908 9.1402 3.73692C9.16223 3.74649 9.18426 3.75607 9.20695 3.76593C9.23177 3.77724 9.25658 3.78854 9.28215 3.80019C9.32199 3.81711 9.32199 3.81711 9.36264 3.83436C9.41814 3.8595 9.47361 3.88474 9.52904 3.91005C9.55692 3.92259 9.5848 3.93513 9.61352 3.94804C9.73706 4.00508 9.85713 4.0681 9.97703 4.1325C9.99743 4.1433 10.0178 4.1541 10.0388 4.16522C10.3448 4.32919 10.3448 4.32919 10.3883 4.41716C10.3983 4.49295 10.3983 4.49295 10.3883 4.57886C10.2943 4.6923 10.1892 4.75485 10.0586 4.81636C10.0205 4.83494 9.98242 4.85357 9.94436 4.87226C9.92512 4.88165 9.90588 4.89104 9.88606 4.90072C9.79699 4.94507 9.7097 4.99262 9.62238 5.04038C9.13287 5.30651 9.13287 5.30651 9.05627 5.30651C9.05373 5.3284 9.05119 5.35028 9.04857 5.37283C9.02545 5.48926 8.98466 5.59131 8.93972 5.70066C8.9205 5.74823 8.90132 5.79581 8.88217 5.84341C8.87172 5.86931 8.86128 5.8952 8.85052 5.92189C8.81304 6.01591 8.77641 6.11025 8.74002 6.20471C8.73028 6.22996 8.73028 6.22996 8.72034 6.25572C8.68811 6.33932 8.65596 6.42294 8.62389 6.50659C8.61201 6.53739 8.60012 6.56818 8.58787 6.59991C8.57737 6.62724 8.56687 6.65458 8.55605 6.68274C8.44469 6.95291 8.44469 6.95291 8.33697 7.00437C8.2454 7.00942 8.2454 7.00942 8.15049 6.97742C8.01362 6.79242 7.94179 6.57884 7.86244 6.3643C7.84144 6.30825 7.82037 6.25223 7.79929 6.19622C7.7853 6.15904 7.77134 6.12184 7.75741 6.08464C7.68928 5.90311 7.61752 5.7231 7.54402 5.54372C7.48447 5.39604 7.48447 5.39604 7.48447 5.30651C7.46407 5.30074 7.44368 5.29498 7.42266 5.28904C7.28678 5.23855 7.16251 5.1698 7.03491 5.10102C6.80967 4.98005 6.80967 4.98005 6.58161 4.86468C6.56234 4.85523 6.54307 4.84579 6.52321 4.83605C6.48819 4.81904 6.45307 4.80224 6.41782 4.78571C6.30897 4.73263 6.23103 4.67176 6.15244 4.57886C6.13579 4.49801 6.13579 4.49801 6.15244 4.41716C6.25144 4.28029 6.40022 4.21154 6.55205 4.14766C6.56963 4.14766 6.58722 4.14766 6.60533 4.14766C6.61852 4.17434 6.61852 4.17434 6.63197 4.20156C6.73124 4.17141 6.73124 4.17141 6.79182 4.09376C6.83596 4.07515 6.88041 4.05729 6.92502 4.03986C6.96962 4.01325 7.01401 3.98628 7.05822 3.959C7.11129 3.93162 7.16456 3.90464 7.21807 3.87815C7.23675 3.86871 7.25543 3.85926 7.27468 3.84952C7.32463 3.82425 7.32463 3.82425 7.38124 3.80404C7.45507 3.75425 7.4583 3.69353 7.48447 3.60865C7.52809 3.48942 7.57338 3.37088 7.61922 3.25251C7.6338 3.21464 7.64821 3.17672 7.66246 3.13873C7.68315 3.08364 7.70436 3.02879 7.7257 2.97396C7.73819 2.94126 7.75069 2.90855 7.76356 2.87486C7.80416 2.80015 7.80416 2.80015 7.86235 2.77581C7.87831 2.77495 7.89427 2.77409 7.91072 2.7732C7.91072 2.71984 7.91072 2.66648 7.91072 2.6115C7.9371 2.59816 7.9371 2.59816 7.964 2.58455C8.03466 2.4388 8.08342 2.28316 8.12385 2.1264C8.14143 2.1264 8.15901 2.1264 8.17713 2.1264C8.18592 2.09972 8.19471 2.07304 8.20377 2.04555Z" fill="#27B8AD"/>
<path d="M10.2817 15.2242C10.1885 15.2759 10.0953 15.3275 10.002 15.3791C9.97584 15.3936 9.94967 15.4082 9.92271 15.4231C9.50277 15.6554 9.50277 15.6554 9.42924 15.6554C9.4247 15.6717 9.42017 15.688 9.4155 15.7048C9.36755 15.8726 9.30946 16.0334 9.24275 16.1944C9.21256 16.1027 9.21963 16.0846 9.25108 15.9973C9.25856 15.976 9.26605 15.9548 9.27376 15.9329C9.28111 15.9124 9.28846 15.892 9.29603 15.871C9.30647 15.8393 9.31691 15.8076 9.32767 15.7749C9.33838 15.7424 9.33838 15.7424 9.34932 15.7093C9.3312 15.7093 9.31362 15.7093 9.29603 15.7093C9.29603 15.6554 9.29603 15.6554 9.35265 15.5981C9.44049 15.5401 9.48639 15.5379 9.58908 15.5476C9.58002 15.5109 9.57123 15.4753 9.56244 15.4398C9.58881 15.4309 9.61519 15.422 9.64236 15.4128C9.64236 15.4306 9.64236 15.4484 9.64236 15.4667C9.72553 15.4314 9.72553 15.4314 9.77557 15.3589C9.80579 15.3506 9.83601 15.3422 9.86714 15.3336C9.96823 15.3143 9.96823 15.3143 10.0153 15.2242C10.0153 15.2419 10.0153 15.2597 10.0153 15.2781C10.0417 15.2781 10.0681 15.2781 10.0953 15.2781C10.0953 15.2597 10.0953 15.2419 10.0953 15.2242C10.1787 15.196 10.2015 15.199 10.2817 15.2242Z" fill="#46CDDE"/>
<path d="M8.52346 17.8114C8.54157 17.8114 8.55916 17.8114 8.57674 17.8114C8.59465 17.9769 8.53057 18.1028 8.46685 18.251C8.38876 18.4374 8.31455 18.6235 8.25039 18.8153C8.09792 19.2663 8.09792 19.2663 7.99064 19.3206C7.98185 19.285 7.97306 19.2494 7.964 19.2128C7.98159 19.2128 7.99917 19.2128 8.01729 19.2128C8.07962 19.1348 8.07962 19.1348 8.0689 19.0359C8.06945 19.0053 8.07 18.9748 8.07057 18.9433C8.09694 18.9255 8.12331 18.9077 8.15049 18.8894C8.1701 18.7932 8.1701 18.7932 8.17713 18.7007C8.2035 18.7007 8.22988 18.7007 8.25705 18.7007C8.26155 18.662 8.26597 18.6232 8.27037 18.5845C8.27284 18.5629 8.27532 18.5413 8.27786 18.5191C8.28497 18.455 8.28497 18.455 8.28369 18.3773C8.29248 18.3595 8.30127 18.3417 8.31033 18.3234C8.31912 18.3323 8.32791 18.3412 8.33697 18.3504C8.42344 18.1683 8.42344 18.1683 8.47018 17.9731C8.48829 17.9731 8.50587 17.9731 8.52346 17.9731C8.51851 17.9564 8.51357 17.9397 8.50847 17.9225C8.49682 17.8653 8.49682 17.8653 8.52346 17.8114Z" fill="#3EEABC"/>
<path d="M20.192 10.993C20.4006 11.0748 20.5601 11.1664 20.6716 11.3703C20.7265 11.5444 20.7302 11.7569 20.6516 11.9228C20.6054 12.0015 20.5594 12.0709 20.4851 12.1249C20.4251 12.1182 20.4251 12.1182 20.3785 12.0979C20.3785 12.0802 20.3785 12.0624 20.3785 12.044C20.4181 12.0307 20.4181 12.0307 20.4584 12.0171C20.4672 12.026 20.476 12.0349 20.4851 12.044C20.5027 11.9996 20.5203 11.9551 20.5384 11.9093C20.5655 11.9093 20.5919 11.9093 20.6183 11.9093C20.6537 11.7661 20.6648 11.6193 20.6183 11.4781C20.6002 11.4781 20.5826 11.4781 20.565 11.4781C20.5628 11.4536 20.5606 11.4292 20.5583 11.404C20.5357 11.3045 20.5062 11.2745 20.4318 11.2086C20.423 11.1908 20.4142 11.173 20.4052 11.1547C20.3435 11.135 20.2813 11.1169 20.2187 11.1008C20.2099 11.0652 20.2011 11.0296 20.192 10.993Z" fill="#4C70C2"/>
<path d="M7.13815 18.8355C7.15573 18.871 7.17331 18.9066 7.19143 18.9433C7.23538 18.9433 7.27934 18.9433 7.32463 18.9433C7.31913 18.9616 7.31364 18.98 7.30798 18.9989C7.29485 19.1029 7.31163 19.1701 7.35127 19.2667C7.41598 19.3041 7.41598 19.3041 7.48447 19.3206C7.50206 19.3384 7.51964 19.3561 7.53775 19.3745C7.59975 19.389 7.59975 19.389 7.66929 19.3947C7.69261 19.3973 7.71593 19.4 7.73995 19.4027C7.81126 19.4071 7.81126 19.4071 7.88408 19.3475C7.91046 19.3564 7.93683 19.3653 7.964 19.3745C7.85613 19.4529 7.75053 19.4902 7.61768 19.4823C7.46032 19.438 7.36544 19.3763 7.27135 19.2397C7.2318 19.1587 7.2318 19.1587 7.19809 19.0746C7.18669 19.0468 7.17528 19.0189 7.16354 18.9902C7.13815 18.9163 7.13815 18.9163 7.13815 18.8355Z" fill="#41ECC0"/>
<path d="M18.0608 18.7277C18.0441 18.7782 18.0441 18.7782 18.0075 18.8355C17.9546 18.8545 17.9012 18.8723 17.8477 18.8894C17.6855 18.9588 17.526 19.0313 17.3781 19.1285C17.2882 19.1858 17.2882 19.1858 17.2083 19.1858C17.2083 19.1591 17.2083 19.1325 17.2083 19.105C17.2354 19.0913 17.2624 19.0776 17.2903 19.0635C17.3079 19.0546 17.3255 19.0457 17.3437 19.0365C17.3824 19.0169 17.4211 18.9974 17.4598 18.9778C17.5503 18.9322 17.6407 18.8864 17.7303 18.839C17.7719 18.8173 17.7719 18.8173 17.8144 18.795C17.839 18.782 17.8635 18.7689 17.8889 18.7555C17.9542 18.7277 17.9542 18.7277 18.0608 18.7277Z" fill="#4676CB"/>
<path d="M7.43119 3.71645C7.43119 3.73424 7.43119 3.75203 7.43119 3.77035C7.33012 3.86784 7.2745 3.90578 7.13815 3.93205C7.10203 3.95353 7.06656 3.97611 7.03158 3.99943C6.9518 4.05247 6.88875 4.08456 6.79182 4.09376C6.78303 4.12044 6.77423 4.14712 6.76518 4.17461C6.69691 4.20661 6.69691 4.20661 6.63197 4.22851C6.62318 4.19293 6.61439 4.15736 6.60533 4.12071C6.63209 4.10733 6.65884 4.09396 6.6864 4.08018C6.89738 3.97427 7.10604 3.86591 7.31193 3.75014C7.37791 3.71645 7.37791 3.71645 7.43119 3.71645Z" fill="#41A9BC"/>
<path d="M8.39025 2.0186C8.39905 2.03638 8.40784 2.05417 8.41689 2.0725C8.34656 2.0725 8.27623 2.0725 8.20377 2.0725C8.19498 2.09028 8.18619 2.10807 8.17713 2.1264C8.15901 2.1264 8.14143 2.1264 8.12385 2.1264C8.1255 2.16475 8.1255 2.16475 8.12718 2.20388C8.12385 2.2881 8.12385 2.2881 8.07057 2.342C8.05581 2.38134 8.04264 2.42131 8.03061 2.46159C8.00618 2.5431 7.98506 2.59303 7.93736 2.6654C7.9205 2.72234 7.9205 2.72234 7.91072 2.7732C7.88435 2.7732 7.85797 2.7732 7.8308 2.7732C7.87362 2.60157 7.93392 2.4389 8.0023 2.27631C8.00998 2.2575 8.01765 2.23868 8.02556 2.2193C8.11045 2.02196 8.179 1.96618 8.39025 2.0186Z" fill="#4DABC2"/>
<path d="M6.8451 17.8922C6.87683 17.95 6.89785 17.9967 6.90837 18.0623C6.92715 18.1441 6.96443 18.2043 7.00723 18.2755C7.04135 18.3426 7.04776 18.411 7.05822 18.4851C7.07581 18.494 7.09339 18.5029 7.1115 18.5121C7.12649 18.564 7.12649 18.564 7.13814 18.6283C7.15069 18.6968 7.16217 18.7497 7.19476 18.8114C7.21807 18.8624 7.21807 18.8624 7.19143 18.9433C7.18264 18.9077 7.17384 18.8721 7.16479 18.8355C7.1472 18.8355 7.12962 18.8355 7.1115 18.8355C7.10452 18.8166 7.09754 18.7977 7.09034 18.7782C7.05856 18.6923 7.02676 18.6064 6.99495 18.5205C6.98396 18.4908 6.97297 18.461 6.96165 18.4304C6.951 18.4017 6.94036 18.3729 6.92939 18.3433C6.91962 18.3169 6.90986 18.2905 6.8998 18.2633C6.88126 18.214 6.86194 18.165 6.84181 18.1163C6.81554 18.0461 6.81233 17.9936 6.81846 17.9192C6.82725 17.9103 6.83604 17.9014 6.8451 17.8922Z" fill="#3ED6CC"/>
<path d="M10.708 14.3887C10.8838 14.4368 11.0842 14.5267 11.2142 14.6582C11.2142 14.6849 11.2142 14.7116 11.2142 14.739C11.1576 14.7706 11.101 14.802 11.0443 14.8334C11.0283 14.8424 11.0122 14.8514 10.9956 14.8606C10.8739 14.9277 10.8739 14.9277 10.8145 14.9277C10.8539 14.8084 10.9185 14.7953 11.0277 14.739C11.0453 14.739 11.0628 14.739 11.081 14.739C11.0634 14.6857 11.0458 14.6323 11.0277 14.5773C10.9837 14.5773 10.9398 14.5773 10.8945 14.5773C10.8857 14.5507 10.8769 14.524 10.8678 14.4965C10.8179 14.4749 10.8179 14.4749 10.7596 14.4645C10.7401 14.4602 10.7205 14.4559 10.7004 14.4515C10.6853 14.4486 10.6702 14.4456 10.6547 14.4426C10.6723 14.4248 10.6899 14.407 10.708 14.3887Z" fill="#4CCEDD"/>
<path d="M8.92307 16.922C8.94971 16.9759 8.94971 16.9759 8.92094 17.0661C8.90635 17.1047 8.89154 17.1432 8.87655 17.1816C8.86496 17.212 8.86496 17.212 8.85314 17.243C8.82835 17.3079 8.80328 17.3727 8.77821 17.4374C8.76138 17.4813 8.74458 17.5252 8.72779 17.5691C8.68653 17.6769 8.64502 17.7846 8.60338 17.8922C8.59459 17.8922 8.5858 17.8922 8.57674 17.8922C8.57438 17.7895 8.57536 17.695 8.60338 17.5958C8.62096 17.5869 8.63854 17.578 8.65666 17.5688C8.67507 17.4993 8.67507 17.4993 8.68663 17.4189C8.69333 17.378 8.69333 17.378 8.70016 17.3363C8.70339 17.3152 8.70662 17.2941 8.70994 17.2724C8.73632 17.2635 8.76269 17.2546 8.78986 17.2454C8.79865 17.1654 8.80745 17.0853 8.8165 17.0029C8.84368 17.0029 8.87005 17.0029 8.89643 17.0029C8.90522 16.9762 8.91401 16.9495 8.92307 16.922Z" fill="#47DBD0"/>
<path d="M6.49877 17.1646C6.52515 17.1646 6.55152 17.1646 6.57869 17.1646C6.59628 17.2357 6.61386 17.3069 6.63197 17.3802C6.65009 17.3802 6.66767 17.3802 6.68526 17.3802C6.6891 17.4091 6.69295 17.438 6.69691 17.4677C6.70757 17.5396 6.71925 17.6069 6.73854 17.6766C6.75665 17.6766 6.77423 17.6766 6.79182 17.6766C6.81244 17.7861 6.82108 17.8886 6.81846 18C6.743 17.9237 6.72188 17.8307 6.68859 17.7305C6.63546 17.5738 6.58015 17.4193 6.51646 17.2666C6.49877 17.2185 6.49877 17.2185 6.49877 17.1646Z" fill="#48CAE0"/>
<path d="M9.21611 16.0327C9.30077 16.2896 9.07779 16.6578 8.97635 16.8951C8.92307 16.8142 8.92307 16.8142 8.93306 16.7418C8.93855 16.7212 8.94405 16.7006 8.94971 16.6795C8.96729 16.6795 8.98487 16.6795 9.00299 16.6795C9.00573 16.6572 9.00848 16.635 9.01131 16.6121C9.03273 16.5018 9.06862 16.4066 9.10955 16.3022C9.12767 16.3022 9.14525 16.3022 9.16283 16.3022C9.15377 16.2655 9.15377 16.2655 9.14452 16.228C9.13619 16.1405 9.13619 16.1405 9.17449 16.0764C9.19509 16.0548 9.19509 16.0548 9.21611 16.0327Z" fill="#3FCDD5"/>
<path d="M18.1141 9.94193C18.2273 9.96731 18.3245 10.0185 18.4271 10.0716C18.4452 10.0809 18.4632 10.0901 18.4818 10.0997C18.5183 10.1184 18.5547 10.1371 18.5911 10.1558C18.6805 10.2017 18.7703 10.247 18.86 10.2923C18.8248 10.319 18.7897 10.3456 18.7534 10.3731C18.7447 10.3376 18.7359 10.302 18.7268 10.2653C18.707 10.262 18.6872 10.2587 18.6669 10.2552C18.5936 10.2384 18.5936 10.2384 18.537 10.2081C18.483 10.1755 18.483 10.1755 18.4071 10.2114C18.4071 10.1931 18.4071 10.1753 18.4071 10.1575C18.389 10.1575 18.3714 10.1575 18.3538 10.1575C18.345 10.1397 18.3363 10.122 18.3272 10.1036C18.2733 10.0861 18.2733 10.0861 18.2206 10.0767C18.2206 10.0584 18.2206 10.0406 18.2206 10.0228C18.1844 10.0228 18.1492 10.0228 18.1141 10.0228C18.1141 9.9961 18.1141 9.96942 18.1141 9.94193Z" fill="#4875CB"/>
<path d="M6.79182 9.78023C6.8094 9.79802 6.82698 9.8158 6.8451 9.83413C6.79182 9.94193 6.79182 9.94193 6.76757 9.98793C6.72946 10.069 6.70015 10.1521 6.67027 10.2367C6.6587 10.2692 6.64712 10.3017 6.6352 10.3351C6.61053 10.411 6.59182 10.4832 6.57869 10.5618C6.56111 10.5618 6.54353 10.5618 6.52541 10.5618C6.51662 10.5974 6.50783 10.6329 6.49877 10.6696C6.48119 10.6696 6.46361 10.6696 6.44549 10.6696C6.49798 10.4813 6.56098 10.3 6.63364 10.1188C6.643 10.095 6.65236 10.0712 6.662 10.0466C6.70015 9.95068 6.73486 9.86666 6.79182 9.78023Z" fill="#4F90F5"/>
<path d="M20.8048 19.2667C20.9021 19.3003 20.9321 19.3117 20.9913 19.4014C21.0029 19.4789 21.0029 19.4789 20.9913 19.5631C20.914 19.6614 20.8431 19.7142 20.7249 19.7518C20.7073 19.7251 20.6897 19.6984 20.6716 19.6709C20.7067 19.6709 20.7419 19.6709 20.7781 19.6709C20.8286 19.6446 20.8286 19.6446 20.8581 19.5901C20.8647 19.4924 20.8647 19.4924 20.8581 19.4014C20.8405 19.3925 20.8229 19.3836 20.8048 19.3745C20.8048 19.3389 20.8048 19.3033 20.8048 19.2667Z" fill="#4092F0"/>
<path d="M8.20377 8.89088C8.22135 8.89088 8.23894 8.89088 8.25705 8.89088C8.29896 8.99679 8.34069 9.10278 8.38225 9.20884C8.39642 9.2449 8.41063 9.28095 8.42489 9.31698C8.44539 9.36877 8.46571 9.42063 8.48599 9.47251C8.49827 9.5037 8.51055 9.53489 8.5232 9.56703C8.5501 9.64548 8.5501 9.64548 8.5501 9.72633C8.52372 9.71744 8.49735 9.70854 8.47018 9.69938C8.47018 9.64602 8.47018 9.59266 8.47018 9.53768C8.4438 9.52878 8.41743 9.51989 8.39025 9.51073C8.37267 9.46283 8.37267 9.46283 8.36195 9.40461C8.34489 9.31262 8.34489 9.31262 8.28369 9.24123C8.27985 9.22066 8.276 9.20009 8.27204 9.1789C8.26066 9.10339 8.26066 9.10339 8.21376 9.03573C8.20167 9.01461 8.18958 8.99349 8.17713 8.97173C8.18592 8.94505 8.19471 8.91836 8.20377 8.89088Z" fill="#5796F4"/>
</svg>
