<svg width="24" height="24" viewBox="0 0 24 24" fill="none" xmlns="http://www.w3.org/2000/svg">
<path d="M4.92191 18.2818L5.72222 19.0821L5.44362 19.3591C5.16982 19.6337 4.53482 19.9059 4.31282 19.6847C4.09412 19.4628 4.36472 18.8351 4.63922 18.558L4.92191 18.2818ZM15.6609 5.92932L16.6864 6.95322L17.0403 7.30882L18.065 8.33182L10.7248 15.6712C10.2801 16.1167 8.02022 18.1125 6.40342 18.4859L5.50842 17.5909C5.88422 15.9725 7.87762 13.7142 8.32232 13.2687L15.6609 5.92932ZM16.9464 4.48832C17.2582 4.17812 17.7305 4.14812 18.0034 4.42032L19.5789 5.99902C19.8543 6.27032 19.8235 6.74342 19.5125 7.05442C19.2014 7.36462 18.7292 7.39462 18.4562 7.12082L16.8783 5.54382C16.6054 5.27162 16.6353 4.79862 16.9464 4.48832Z" fill="white"/>
</svg>
