<svg width="24" height="24" viewBox="0 0 24 24" fill="none" xmlns="http://www.w3.org/2000/svg">
<path fill-rule="evenodd" clip-rule="evenodd" d="M10.661 17.014L10.394 13.575L4.43604 16.11C4.18904 16.214 3.91504 16.033 3.91504 15.764V14.516C3.91504 14.273 4.03204 14.045 4.23004 13.905L10.149 9.694L9.92704 7.127L9.90704 6.843V6.323C9.90704 5.169 10.962 3.75 11.999 3.75C13.037 3.75 14.092 5.169 14.092 6.323V6.836C14.092 6.856 14.092 6.872 14.089 6.892L14.077 7.09L13.851 9.694L19.768 13.908C19.967 14.048 20.084 14.276 20.084 14.518V15.766C20.084 16.035 19.809 16.217 19.562 16.112L13.607 13.575L13.341 17.016C13.326 17.2 13.38 17.382 13.492 17.529L15.096 19.633C15.334 19.945 14.992 20.367 14.638 20.2L12.319 19.107C12.117 19.011 11.882 19.011 11.68 19.107L9.36104 20.2C9.00704 20.367 8.66504 19.945 8.90304 19.632L10.51 17.527C10.621 17.38 10.675 17.198 10.661 17.014Z" stroke="white" stroke-width="1.5" stroke-linecap="round" stroke-linejoin="round"/>
</svg>
