<svg width="24" height="24" viewBox="0 0 24 24" fill="none" xmlns="http://www.w3.org/2000/svg">
<path fill-rule="evenodd" clip-rule="evenodd" d="M12.0004 4.53742C16.2323 4.53742 19.6754 7.98142 19.6754 12.2134C19.6754 14.5114 18.6583 16.5754 17.0534 17.9834L18.2113 19.3814C18.4753 19.7014 18.4303 20.1734 18.1113 20.4384C17.9713 20.5534 17.8013 20.6104 17.6334 20.6104C17.4174 20.6104 17.2034 20.5174 17.0553 20.3384L15.8314 18.8594C14.7034 19.5124 13.3954 19.8884 12.0004 19.8884C10.6054 19.8884 9.2963 19.5124 8.1684 18.8594L6.9443 20.3384C6.7964 20.5174 6.5823 20.6104 6.3664 20.6104C6.1983 20.6104 6.0283 20.5534 5.8883 20.4384C5.5693 20.1734 5.5244 19.7014 5.7894 19.3814L6.9464 17.9834C5.3414 16.5754 4.3244 14.5114 4.3244 12.2134C4.3244 7.98142 7.7674 4.53742 12.0004 4.53742ZM11.7224 7.29842C11.3074 7.29842 10.9724 7.63442 10.9724 8.04842V11.4854C10.9724 12.1514 11.5144 12.6934 12.1804 12.6934H14.7533C15.1684 12.6934 15.5033 12.3574 15.5033 11.9434C15.5033 11.5294 15.1684 11.1934 14.7533 11.1934H12.4724V8.04842C12.4724 7.63442 12.1363 7.29842 11.7224 7.29842ZM5.5875 3.60842C5.8804 3.31542 6.3565 3.31542 6.6484 3.60842C6.9415 3.90042 6.9415 4.37642 6.6484 4.66942L3.8774 7.44042C3.7304 7.58742 3.5385 7.66042 3.3464 7.66042C3.1544 7.66042 2.9625 7.58742 2.8165 7.44042C2.5234 7.14742 2.5234 6.67242 2.8165 6.37942L5.5875 3.60842ZM17.3515 3.60892C17.6436 3.31592 18.1196 3.31592 18.4125 3.60892L21.1835 6.37992C21.4765 6.67292 21.4765 7.14792 21.1835 7.44092C21.0375 7.58692 20.8456 7.65992 20.6535 7.65992C20.4615 7.65992 20.2696 7.58692 20.1225 7.44092L17.3515 4.66892C17.0585 4.37592 17.0585 3.90092 17.3515 3.60892Z" fill="white"/>
</svg>
