<svg width="24" height="24" viewBox="0 0 24 24" fill="none" xmlns="http://www.w3.org/2000/svg">
<path d="M13.9344 19.102C13.3588 19.2524 12.7547 19.333 12.1314 19.333C8.208 19.333 5.0272 16.1522 5.0272 12.2289C5.0272 8.30551 8.208 5.12471 12.1314 5.12471C16.0547 5.12471 19.2355 8.30551 19.2355 12.2289C19.2355 12.5983 19.2071 12.9622 19.153 13.316M6.5092 19.7914L7.8429 18.1808M14.9098 12.2289H12.5897C12.3367 12.2289 12.1314 12.0235 12.1314 11.7705V8.65851M3.75 6.74851L6.2901 4.20841M17.7095 4.20801L20.2495 6.74811M16.1753 15.7173L19.0537 18.5957M19.0536 15.7173L16.1752 18.5957M21.625 17.156C21.625 14.9413 19.8293 13.1455 17.6146 13.1455C15.399 13.1455 13.6042 14.9413 13.6042 17.156C13.6042 19.3706 15.399 21.1664 17.6146 21.1664C19.8293 21.1664 21.625 19.3706 21.625 17.156Z" stroke="white" stroke-width="1.35" stroke-linecap="round" stroke-linejoin="round"/>
</svg>
