<svg width="24" height="24" viewBox="0 0 24 24" fill="none" xmlns="http://www.w3.org/2000/svg">
<path d="M10.5454 12.0004C10.5454 11.6147 10.6987 11.2447 10.9714 10.9719C11.2442 10.6991 11.6142 10.5459 12 10.5459C12.3857 10.5459 12.7557 10.6991 13.0285 10.9719C13.3013 11.2447 13.4545 11.6147 13.4545 12.0004C13.4545 12.3862 13.3013 12.7562 13.0285 13.029C12.7557 13.3017 12.3857 13.455 12 13.455C11.6142 13.455 11.2442 13.3017 10.9714 13.029C10.6987 12.7562 10.5454 12.3862 10.5454 12.0004Z" fill="#DCDDDD"/>
<path d="M10.7273 12.0003C10.7273 11.6627 10.8614 11.339 11.1001 11.1003C11.3388 10.8616 11.6625 10.7275 12 10.7275C12.3376 10.7275 12.6613 10.8616 12.9 11.1003C13.1387 11.339 13.2727 11.6627 13.2727 12.0003C13.2727 12.3378 13.1387 12.6615 12.9 12.9002C12.6613 13.1389 12.3376 13.273 12 13.273C11.6625 13.273 11.3388 13.1389 11.1001 12.9002C10.8614 12.6615 10.7273 12.3378 10.7273 12.0003Z" fill="white"/>
<path d="M10.5454 5.78169C10.5454 5.39592 10.6987 5.02596 10.9714 4.75318C11.2442 4.4804 11.6142 4.32715 12 4.32715C12.3857 4.32715 12.7557 4.4804 13.0285 4.75318C13.3013 5.02596 13.4545 5.39592 13.4545 5.78169C13.4545 6.16746 13.3013 6.53743 13.0285 6.81021C12.7557 7.08299 12.3857 7.23624 12 7.23624C11.6142 7.23624 11.2442 7.08299 10.9714 6.81021C10.6987 6.53743 10.5454 6.16746 10.5454 5.78169Z" fill="#DCDDDD"/>
<path d="M10.7273 5.78152C10.7273 5.44397 10.8614 5.12024 11.1001 4.88156C11.3388 4.64288 11.6625 4.50879 12 4.50879C12.3376 4.50879 12.6613 4.64288 12.9 4.88156C13.1387 5.12024 13.2727 5.44397 13.2727 5.78152C13.2727 6.11906 13.1387 6.44279 12.9 6.68147C12.6613 6.92015 12.3376 7.05424 12 7.05424C11.6625 7.05424 11.3388 6.92015 11.1001 6.68147C10.8614 6.44279 10.7273 6.11906 10.7273 5.78152Z" fill="white"/>
<path d="M10.5454 18.2182C10.5454 17.8324 10.6987 17.4625 10.9714 17.1897C11.2442 16.9169 11.6142 16.7637 12 16.7637C12.3857 16.7637 12.7557 16.9169 13.0285 17.1897C13.3013 17.4625 13.4545 17.8324 13.4545 18.2182C13.4545 18.604 13.3013 18.974 13.0285 19.2467C12.7557 19.5195 12.3857 19.6728 12 19.6728C11.6142 19.6728 11.2442 19.5195 10.9714 19.2467C10.6987 18.974 10.5454 18.604 10.5454 18.2182Z" fill="#DCDDDD"/>
<path d="M10.7273 18.218C10.7273 17.8805 10.8614 17.5568 11.1001 17.3181C11.3388 17.0794 11.6625 16.9453 12 16.9453C12.3376 16.9453 12.6613 17.0794 12.9 17.3181C13.1387 17.5568 13.2727 17.8805 13.2727 18.218C13.2727 18.5556 13.1387 18.8793 12.9 19.118C12.6613 19.3567 12.3376 19.4908 12 19.4908C11.6625 19.4908 11.3388 19.3567 11.1001 19.118C10.8614 18.8793 10.7273 18.5556 10.7273 18.218Z" fill="white"/>
<path d="M17.0544 12.0004C17.0544 11.6147 17.2077 11.2447 17.4805 10.9719C17.7532 10.6991 18.1232 10.5459 18.509 10.5459C18.8948 10.5459 19.2647 10.6991 19.5375 10.9719C19.8103 11.2447 19.9635 11.6147 19.9635 12.0004C19.9635 12.3862 19.8103 12.7562 19.5375 13.029C19.2647 13.3017 18.8948 13.455 18.509 13.455C18.1232 13.455 17.7532 13.3017 17.4805 13.029C17.2077 12.7562 17.0544 12.3862 17.0544 12.0004Z" fill="#DCDDDD"/>
<path d="M17.2363 12.0003C17.2363 11.6627 17.3704 11.339 17.6091 11.1003C17.8478 10.8616 18.1715 10.7275 18.5091 10.7275C18.8466 10.7275 19.1703 10.8616 19.409 11.1003C19.6477 11.339 19.7818 11.6627 19.7818 12.0003C19.7818 12.3378 19.6477 12.6615 19.409 12.9002C19.1703 13.1389 18.8466 13.273 18.5091 13.273C18.1715 13.273 17.8478 13.1389 17.6091 12.9002C17.3704 12.6615 17.2363 12.3378 17.2363 12.0003Z" fill="white"/>
<path d="M17.0544 5.78169C17.0544 5.39592 17.2077 5.02596 17.4805 4.75318C17.7532 4.4804 18.1232 4.32715 18.509 4.32715C18.8948 4.32715 19.2647 4.4804 19.5375 4.75318C19.8103 5.02596 19.9635 5.39592 19.9635 5.78169C19.9635 6.16746 19.8103 6.53743 19.5375 6.81021C19.2647 7.08299 18.8948 7.23624 18.509 7.23624C18.1232 7.23624 17.7532 7.08299 17.4805 6.81021C17.2077 6.53743 17.0544 6.16746 17.0544 5.78169Z" fill="#DCDDDD"/>
<path d="M17.2363 5.78152C17.2363 5.44397 17.3704 5.12024 17.6091 4.88156C17.8478 4.64288 18.1715 4.50879 18.5091 4.50879C18.8466 4.50879 19.1703 4.64288 19.409 4.88156C19.6477 5.12024 19.7818 5.44397 19.7818 5.78152C19.7818 6.11906 19.6477 6.44279 19.409 6.68147C19.1703 6.92015 18.8466 7.05424 18.5091 7.05424C18.1715 7.05424 17.8478 6.92015 17.6091 6.68147C17.3704 6.44279 17.2363 6.11906 17.2363 5.78152Z" fill="white"/>
<path d="M17.0544 18.2182C17.0544 17.8324 17.2077 17.4625 17.4805 17.1897C17.7532 16.9169 18.1232 16.7637 18.509 16.7637C18.8948 16.7637 19.2647 16.9169 19.5375 17.1897C19.8103 17.4625 19.9635 17.8324 19.9635 18.2182C19.9635 18.604 19.8103 18.974 19.5375 19.2467C19.2647 19.5195 18.8948 19.6728 18.509 19.6728C18.1232 19.6728 17.7532 19.5195 17.4805 19.2467C17.2077 18.974 17.0544 18.604 17.0544 18.2182Z" fill="#DCDDDD"/>
<path d="M17.2363 18.218C17.2363 17.8805 17.3704 17.5568 17.6091 17.3181C17.8478 17.0794 18.1715 16.9453 18.5091 16.9453C18.8466 16.9453 19.1703 17.0794 19.409 17.3181C19.6477 17.5568 19.7818 17.8805 19.7818 18.218C19.7818 18.5556 19.6477 18.8793 19.409 19.118C19.1703 19.3567 18.8466 19.4908 18.5091 19.4908C18.1715 19.4908 17.8478 19.3567 17.6091 19.118C17.3704 18.8793 17.2363 18.5556 17.2363 18.218Z" fill="white"/>
<path d="M4.03638 12.0004C4.03638 11.6147 4.18962 11.2447 4.4624 10.9719C4.73518 10.6991 5.10515 10.5459 5.49092 10.5459C5.87669 10.5459 6.24666 10.6991 6.51944 10.9719C6.79222 11.2447 6.94547 11.6147 6.94547 12.0004C6.94547 12.3862 6.79222 12.7562 6.51944 13.029C6.24666 13.3017 5.87669 13.455 5.49092 13.455C5.10515 13.455 4.73518 13.3017 4.4624 13.029C4.18962 12.7562 4.03638 12.3862 4.03638 12.0004Z" fill="#DCDDDD"/>
<path d="M4.21826 12.0003C4.21826 11.6627 4.35235 11.339 4.59103 11.1003C4.82972 10.8616 5.15344 10.7275 5.49099 10.7275C5.82854 10.7275 6.15226 10.8616 6.39094 11.1003C6.62963 11.339 6.76372 11.6627 6.76372 12.0003C6.76372 12.1674 6.7308 12.3329 6.66684 12.4873C6.60287 12.6417 6.50913 12.782 6.39094 12.9002C6.27276 13.0184 6.13245 13.1122 5.97804 13.1761C5.82363 13.2401 5.65813 13.273 5.49099 13.273C5.32385 13.273 5.15835 13.2401 5.00394 13.1761C4.84952 13.1122 4.70922 13.0184 4.59103 12.9002C4.47285 12.782 4.3791 12.6417 4.31514 12.4873C4.25118 12.3329 4.21826 12.1674 4.21826 12.0003Z" fill="white"/>
<path d="M4.03638 5.78169C4.03638 5.39592 4.18962 5.02596 4.4624 4.75318C4.73518 4.4804 5.10515 4.32715 5.49092 4.32715C5.87669 4.32715 6.24666 4.4804 6.51944 4.75318C6.79222 5.02596 6.94547 5.39592 6.94547 5.78169C6.94547 6.16746 6.79222 6.53743 6.51944 6.81021C6.24666 7.08299 5.87669 7.23624 5.49092 7.23624C5.10515 7.23624 4.73518 7.08299 4.4624 6.81021C4.18962 6.53743 4.03638 6.16746 4.03638 5.78169Z" fill="#DCDDDD"/>
<path d="M4.21826 5.78152C4.21826 5.44397 4.35235 5.12024 4.59103 4.88156C4.82972 4.64288 5.15344 4.50879 5.49099 4.50879C5.82854 4.50879 6.15226 4.64288 6.39094 4.88156C6.62963 5.12024 6.76372 5.44397 6.76372 5.78152C6.76372 5.94865 6.7308 6.11415 6.66684 6.26857C6.60287 6.42298 6.50913 6.56329 6.39094 6.68147C6.27276 6.79965 6.13245 6.8934 5.97804 6.95736C5.82363 7.02132 5.65813 7.05424 5.49099 7.05424C5.32385 7.05424 5.15835 7.02132 5.00394 6.95736C4.84952 6.8934 4.70922 6.79965 4.59103 6.68147C4.47285 6.56329 4.3791 6.42298 4.31514 6.26857C4.25118 6.11415 4.21826 5.94865 4.21826 5.78152Z" fill="white"/>
<path d="M4.03638 18.2182C4.03638 17.8324 4.18962 17.4625 4.4624 17.1897C4.73518 16.9169 5.10515 16.7637 5.49092 16.7637C5.87669 16.7637 6.24666 16.9169 6.51944 17.1897C6.79222 17.4625 6.94547 17.8324 6.94547 18.2182C6.94547 18.604 6.79222 18.974 6.51944 19.2467C6.24666 19.5195 5.87669 19.6728 5.49092 19.6728C5.10515 19.6728 4.73518 19.5195 4.4624 19.2467C4.18962 18.974 4.03638 18.604 4.03638 18.2182Z" fill="#DCDDDD"/>
<path d="M4.21826 18.218C4.21826 17.8805 4.35235 17.5568 4.59103 17.3181C4.82972 17.0794 5.15344 16.9453 5.49099 16.9453C5.82854 16.9453 6.15226 17.0794 6.39094 17.3181C6.62963 17.5568 6.76372 17.8805 6.76372 18.218C6.76372 18.3852 6.7308 18.5507 6.66684 18.7051C6.60287 18.8595 6.50913 18.9998 6.39094 19.118C6.27276 19.2362 6.13245 19.3299 5.97804 19.3939C5.82363 19.4578 5.65813 19.4908 5.49099 19.4908C5.32385 19.4908 5.15835 19.4578 5.00394 19.3939C4.84952 19.3299 4.70922 19.2362 4.59103 19.118C4.47285 18.9998 4.3791 18.8595 4.31514 18.7051C4.25118 18.5507 4.21826 18.3852 4.21826 18.218Z" fill="white"/>
</svg>
