<svg width="24" height="24" viewBox="0 0 24 24" fill="none" xmlns="http://www.w3.org/2000/svg">
<path fill-rule="evenodd" clip-rule="evenodd" d="M1.60781 7.95693C2.13141 7.95693 2.55571 8.38103 2.55571 8.90483V16.2233C2.55571 17.3432 3.46711 18.2545 4.58701 18.2545H14.9496C15.4731 18.2545 15.8975 18.6789 15.8975 19.2024C15.8975 19.726 15.4731 20.1504 14.9496 20.1504H4.58701C2.42171 20.1504 0.659912 18.3886 0.659912 16.2233V8.90483C0.659912 8.38103 1.08461 7.95693 1.60781 7.95693ZM15.9373 3.84863C17.4269 3.84863 18.6457 5.06743 18.6457 6.55703V7.59023L22.3555 5.43523C22.4809 5.36043 22.6093 5.32253 22.7371 5.32253C23.0367 5.32253 23.3403 5.55353 23.3403 5.99503V14.585C23.3403 15.0192 23.0464 15.2464 22.7558 15.2464C22.6204 15.2464 22.4847 15.2022 22.3531 15.1145L18.6457 12.9719V14.0122C18.6457 15.5018 17.4269 16.7205 15.9373 16.7205H6.50531C5.31361 16.7205 4.33861 15.7455 4.33861 14.5539V6.31943C4.33861 4.96073 5.45071 3.84863 6.80941 3.84863H15.9373Z" fill="white"/>
</svg>
