<svg width="24" height="24" viewBox="0 0 24 24" fill="none" xmlns="http://www.w3.org/2000/svg">
<path fill-rule="evenodd" clip-rule="evenodd" d="M12.1 18.864C12.092 18.864 12.084 18.864 12.076 18.863C11.689 18.854 11.346 18.63 11.183 18.279L11.146 18.198L9.369 9.281L8.524 12.688C8.383 13.255 7.876 13.652 7.291 13.652H3.75C3.336 13.652 3 13.316 3 12.902C3 12.487 3.336 12.152 3.75 12.152H7.111L8.499 6.606C8.657 6.243 9.017 6.005 9.412 6C9.819 6.001 10.173 6.225 10.34 6.585L10.378 6.667L12.182 15.721L14.095 8.887C14.218 8.45 14.614 8.15 15.068 8.15H15.096C15.561 8.164 15.954 8.49 16.054 8.943L16.777 12.114H20.5C20.914 12.114 21.25 12.45 21.25 12.864C21.25 13.278 20.914 13.614 20.5 13.614H16.593C15.997 13.614 15.488 13.208 15.356 12.626L15.019 11.151L13.03 18.25L12.995 18.32C12.819 18.657 12.478 18.864 12.1 18.864Z" fill="white"/>
</svg>
