<svg width="24" height="24" viewBox="0 0 24 24" fill="none" xmlns="http://www.w3.org/2000/svg">
<g clip-path="url(#clip0_1074_12041)">
<path d="M6 18.0004C6 18.6004 6.4 19.0004 7 19.0004H8V22.5004C8 23.3004 8.7 24.0004 9.5 24.0004C10.3 24.0004 11 23.3004 11 22.5004V19.0004H13V22.5004C13 23.3004 13.7 24.0004 14.5 24.0004C15.3 24.0004 16 23.3004 16 22.5004V19.0004H17C17.6 19.0004 18 18.6004 18 18.0004V8.00039H6V18.0004ZM3.5 8.00039C2.7 8.00039 2 8.70039 2 9.50039V16.5004C2 17.3004 2.7 18.0004 3.5 18.0004C4.3 18.0004 5 17.3004 5 16.5004V9.50039C5 8.70039 4.3 8.00039 3.5 8.00039ZM20.5 8.00039C19.7 8.00039 19 8.70039 19 9.50039V16.5004C19 17.3004 19.7 18.0004 20.5 18.0004C21.3 18.0004 22 17.3004 22 16.5004V9.50039C22 8.70039 21.3 8.00039 20.5 8.00039ZM15.5 2.20039L16.8 0.900391C17 0.700391 17 0.400391 16.8 0.200391C16.6 0.000390619 16.3 0.000390619 16.1 0.200391L14.6 1.70039C13.9 1.20039 13 1.00039 12 1.00039C11 1.00039 10.1 1.20039 9.3 1.60039L7.9 0.100391C7.7 0.000390626 7.3 0.000390626 7.1 0.100391C7 0.300391 7 0.700391 7.1 0.900391L8.4 2.20039C7 3.30039 6 5.00039 6 7.00039H18C18 5.00039 17 3.20039 15.5 2.20039ZM10 5.00039H9V4.00039H10V5.00039ZM15 5.00039H14V4.00039H15V5.00039Z" fill="white"/>
</g>
<defs>
<clipPath id="clip0_1074_12041">
<rect width="24" height="24" fill="white"/>
</clipPath>
</defs>
</svg>
