<svg width="24" height="24" viewBox="0 0 24 24" fill="none" xmlns="http://www.w3.org/2000/svg">
<path d="M19.6554 15.8468L13.1252 4.76027C12.8972 4.36502 12.4749 4.12277 12.0182 4.12502C11.5607 4.12427 11.1377 4.36652 10.9052 4.76027L4.29994 15.9083C4.06669 16.287 4.06669 16.7655 4.29994 17.1443C4.53394 17.5365 4.95619 17.7773 5.41294 17.7795H7.38694L6.66319 19.0913L7.46944 19.8975L12.0182 18.0735L16.5609 19.9178L17.3672 19.1115L16.6427 17.8073H18.5559C19.0307 17.8365 19.4807 17.592 19.7147 17.178C19.9487 16.7633 19.9254 16.2518 19.6554 15.8603V15.8468ZM16.3967 19.098L12.0182 17.322L7.63294 19.098L7.50994 18.975L12.0182 10.8945L16.5197 18.975L16.3967 19.098ZM18.5559 17.1105H16.3149L14.9492 14.808L12.0182 9.49427L9.12244 14.658L7.71544 17.1038H5.44744C5.23069 17.0985 5.03194 16.9823 4.92169 16.7963C4.81444 16.6298 4.81444 16.416 4.92169 16.2495L11.4857 5.09477C11.6027 4.92077 11.7984 4.81577 12.0084 4.81577C12.2184 4.81577 12.4142 4.92077 12.5312 5.09477L19.0682 16.188C19.1349 16.287 19.1709 16.4033 19.1702 16.5225C19.1589 16.8525 18.8852 17.1113 18.5559 17.1038V17.1105Z" fill="white" stroke="white" stroke-width="0.5" stroke-linecap="round" stroke-linejoin="round"/>
</svg>
