<svg width="24" height="24" viewBox="0 0 24 24" fill="none" xmlns="http://www.w3.org/2000/svg">
<path fill-rule="evenodd" clip-rule="evenodd" d="M15.6095 12C15.0565 12 14.6095 11.551 14.6095 10.999C14.6095 10.447 15.0565 9.99997 15.6095 9.99997C16.1625 9.99997 16.6095 10.447 16.6095 10.999C16.6095 11.551 16.1625 12 15.6095 12ZM16.1485 15.337C15.4315 16.437 13.8425 17.12 12.0005 17.12C10.1585 17.12 8.56847 16.437 7.85047 15.337C7.66247 15.048 7.74447 14.66 8.03347 14.472C8.32247 14.283 8.71047 14.364 8.89847 14.654C9.37247 15.382 10.6195 15.87 12.0005 15.87C13.3805 15.87 14.6275 15.382 15.1005 14.654C15.2895 14.365 15.6765 14.284 15.9655 14.472C16.2555 14.66 16.3375 15.047 16.1485 15.337ZM7.38947 10.999C7.38947 10.72 7.49547 10.469 7.66347 10.271C7.73747 10.186 7.82147 10.11 7.91847 10.05C8.09047 9.93997 8.29547 9.87497 8.51447 9.87497C9.13647 9.87497 9.63947 10.378 9.63947 10.999C9.63947 11.62 9.13647 12.125 8.51447 12.125C7.89347 12.125 7.38947 11.62 7.38947 10.999ZM11.9995 11.976C12.6975 11.976 13.2635 11.978 13.2635 12.461C13.2635 12.944 12.6975 13.726 11.9995 13.726C11.3015 13.726 10.7355 12.944 10.7355 12.461C10.7355 11.978 11.3015 11.976 11.9995 11.976ZM18.4225 4.26797C17.5485 4.26797 16.7555 4.60397 16.1565 5.14997C14.9325 4.37497 13.5135 3.91797 12.0005 3.91797C10.4855 3.91797 9.06647 4.37497 7.84347 5.14997C7.24547 4.60397 6.45047 4.26797 5.57647 4.26797C3.71647 4.26797 2.20947 5.77397 2.20947 7.63397C2.20947 8.90197 2.91247 10.007 3.94947 10.58C3.77747 11.266 3.68547 11.977 3.68547 12.696C3.68547 17.288 7.40747 20.082 12.0005 20.082C16.5915 20.082 20.3135 17.288 20.3135 12.696C20.3135 11.977 20.2225 11.266 20.0495 10.58C21.0875 10.007 21.7905 8.90197 21.7905 7.63397C21.7905 5.77397 20.2825 4.26797 18.4225 4.26797Z" fill="white"/>
</svg>
