<svg width="24" height="24" viewBox="0 0 24 24" fill="none" xmlns="http://www.w3.org/2000/svg">
<path fill-rule="evenodd" clip-rule="evenodd" d="M4.6313 7.75977L2 16.2241H3.9888L4.4289 14.5376H6.511L6.9502 16.2241H8.9584L6.3128 7.75977H4.6313ZM17.8115 7.75977V11.0521L18.1265 10.518L19.6836 7.75977H21.9815L19.5585 11.5006L22 16.2249H19.7785L18.3289 13.1443L17.8115 13.796V16.2249H15.9336V7.75977H17.8115ZM12.5001 7.75977C13.34 7.75977 14.0203 8.02597 14.5234 8.55257C15.024 9.07757 15.2768 9.76707 15.2768 10.6003C15.2768 11.4359 15.0257 12.1062 14.5276 12.5941C14.0312 13.0813 13.3383 13.3282 12.4682 13.3282H11.4763V16.2241H9.5967V7.75977H12.5001ZM5.4653 10.5482L6.0868 12.9259H4.848L5.4653 10.5482ZM12.5153 9.37147H11.4772V11.7156H12.5001C12.7849 11.7156 12.9965 11.6258 13.146 11.4452C13.2989 11.2587 13.3795 10.979 13.3795 10.6112C13.3795 10.2274 13.2955 9.91907 13.1359 9.69487C12.9797 9.48067 12.7773 9.37487 12.5153 9.37147Z" fill="white"/>
</svg>
