<svg width="24" height="24" viewBox="0 0 24 24" fill="none" xmlns="http://www.w3.org/2000/svg">
<path d="M18.4422 14.5576C18.9402 15.0566 19.2502 15.7436 19.2502 16.4996C19.2502 18.0126 18.0122 19.2496 16.5002 19.2496C14.9872 19.2496 13.7502 18.0126 13.7502 16.4996C13.7502 15.7446 14.0592 15.0576 14.5572 14.5586M16.5002 13.0009V14.7049M10.25 16.5C10.25 18.019 9.019 19.25 7.5 19.25C5.981 19.25 4.75 18.019 4.75 16.5C4.75 14.981 5.981 13.75 7.5 13.75C9.019 13.75 10.25 14.981 10.25 16.5ZM19.25 7.5C19.25 9.019 18.019 10.25 16.5 10.25C14.981 10.25 13.75 9.019 13.75 7.5C13.75 5.981 14.981 4.75 16.5 4.75C18.019 4.75 19.25 5.981 19.25 7.5ZM10.25 7.5C10.25 9.019 9.019 10.25 7.5 10.25C5.981 10.25 4.75 9.019 4.75 7.5C4.75 5.981 5.981 4.75 7.5 4.75C9.019 4.75 10.25 5.981 10.25 7.5Z" stroke="white" stroke-width="1.5" stroke-linecap="round" stroke-linejoin="round"/>
</svg>
