<svg width="24" height="24" viewBox="0 0 24 24" fill="none" xmlns="http://www.w3.org/2000/svg">
<path fill-rule="evenodd" clip-rule="evenodd" d="M7.5 13.75C9.0125 13.75 10.25 14.9875 10.25 16.5C10.25 17.9565 9.1025 19.158 7.6669 19.245L7.5 19.25C5.9875 19.25 4.75 18.0125 4.75 16.5C4.75 14.9875 5.9875 13.75 7.5 13.75ZM16.5 13.75C18.0125 13.75 19.25 14.9875 19.25 16.5C19.25 17.9565 18.1025 19.158 16.6669 19.245L16.5 19.25C14.9875 19.25 13.75 18.0125 13.75 16.5C13.75 14.9875 14.9875 13.75 16.5 13.75ZM7.5 4.75C9.0125 4.75 10.25 5.9875 10.25 7.5C10.25 8.9565 9.1025 10.158 7.6669 10.245L7.5 10.25C5.9875 10.25 4.75 9.0125 4.75 7.5C4.75 5.9875 5.9875 4.75 7.5 4.75ZM16.5 4.75C18.0125 4.75 19.25 5.9875 19.25 7.5C19.25 8.9565 18.1025 10.158 16.6669 10.245L16.5 10.25C14.9875 10.25 13.75 9.0125 13.75 7.5C13.75 5.9875 14.9875 4.75 16.5 4.75Z" stroke="white" stroke-width="1.5" stroke-linecap="round" stroke-linejoin="round"/>
</svg>
