<svg width="24" height="24" viewBox="0 0 24 24" fill="none" xmlns="http://www.w3.org/2000/svg">
<path fill-rule="evenodd" clip-rule="evenodd" d="M20.25 5C20.664 5 21 5.336 21 5.75V18.25C21 18.664 20.664 19 20.25 19C19.836 19 19.5 18.664 19.5 18.25V5.75C19.5 5.37 19.7823 5.05667 20.1483 5.007L20.25 5ZM11.263 6.323C11.5497 6.02433 12.0243 6.01367 12.3237 6.30033L17.0597 10.839C17.374 11.1407 17.5547 11.564 17.5547 12C17.5547 12.436 17.375 12.8593 17.0597 13.161L12.3237 17.6993C12.0247 17.9863 11.55 17.9767 11.263 17.678C10.9767 17.3793 10.987 16.9047 11.286 16.6173L15.33 12.7403H3.75C3.33533 12.7403 3 12.4053 3 11.991C3 11.5773 3.33533 11.241 3.75 11.241H15.3107L11.286 7.38333C10.987 7.09667 10.9767 6.622 11.263 6.323Z" fill="white"/>
</svg>
