<svg width="24" height="24" viewBox="0 0 24 24" fill="none" xmlns="http://www.w3.org/2000/svg">
<path fill-rule="evenodd" clip-rule="evenodd" d="M3.75 5C4.164 5 4.5 5.336 4.5 5.75V18.25C4.5 18.63 4.21767 18.9433 3.85167 18.993L3.75 19C3.336 19 3 18.664 3 18.25V5.75C3 5.336 3.336 5 3.75 5ZM11.6763 6.3C11.975 6.01367 12.45 6.02333 12.7363 6.32267C13.0233 6.62133 13.0137 7.096 12.714 7.38333L8.67 11.259H20.25C20.664 11.259 21 11.5947 21 12.009C21 12.423 20.664 12.7597 20.25 12.7597H8.68867L12.7137 16.617C13.0133 16.903 13.0233 17.3777 12.736 17.6777C12.45 17.9763 11.975 17.9863 11.676 17.699L6.94033 13.161C6.626 12.8593 6.44533 12.436 6.44533 12C6.44467 11.5637 6.62567 11.1407 6.94033 10.8393L11.6763 6.3Z" fill="white"/>
</svg>
