<svg width="24" height="24" viewBox="0 0 24 24" fill="none" xmlns="http://www.w3.org/2000/svg">
<mask id="mask0_1074_12105" style="mask-type:luminance" maskUnits="userSpaceOnUse" x="4" y="3" width="16" height="18">
<path d="M13.4013 18.1755C13.7373 17.9325 14.2063 18.0075 14.4493 18.3425C14.6923 18.6785 14.6173 19.1475 14.2823 19.3905C13.5653 19.9085 12.6533 20.2085 11.6673 20.2095C10.6803 20.2095 9.76928 19.9085 9.05128 19.3905C8.71528 19.1485 8.64028 18.6785 8.88328 18.3435C9.12628 18.0075 9.59528 17.9325 9.93028 18.1755C10.3793 18.5005 10.9873 18.7095 11.6673 18.7095C12.3463 18.7095 12.9543 18.5005 13.4013 18.1755ZM11.6667 3.12793C14.8287 3.12593 17.4147 5.60093 17.5547 8.75793L17.5607 8.82393L17.5627 8.87893V11.3619L17.5697 11.3899L19.0027 14.4009C19.1057 14.6169 19.1557 14.8479 19.1557 15.0729C19.1547 15.4889 18.9897 15.8739 18.7137 16.1599C18.4397 16.4469 18.0337 16.6359 17.5917 16.6349H5.74168C5.29968 16.6359 4.89468 16.4469 4.61968 16.1599C4.34368 15.8739 4.17968 15.4889 4.17868 15.0729C4.17868 14.8479 4.22868 14.6159 4.33168 14.3999L4.33068 14.4009L5.76368 11.3889L5.76568 11.3859L5.77068 11.3619V8.87893L5.77368 8.81193L5.77968 8.74593C5.92368 5.59593 8.50768 3.12593 11.6667 3.12793ZM11.6667 4.62793C9.29468 4.62993 7.37268 6.47393 7.27568 8.84293L7.27368 8.87893L7.27068 8.91193V11.3619C7.27068 11.5919 7.21968 11.8239 7.11668 12.0369L7.11868 12.0339L5.68668 15.0459L5.68568 15.0469L5.67868 15.0729L5.69768 15.1169L5.74168 15.1349H17.5917L17.6357 15.1169L17.6557 15.0729L17.6487 15.0459L16.2147 12.0339C16.1147 11.8249 16.0627 11.5959 16.0627 11.3619V8.90593L16.0597 8.86693L16.0587 8.84293C15.9597 6.47393 14.0377 4.62993 11.6667 4.62793Z" fill="white"/>
</mask>
<g mask="url(#mask0_1074_12105)">
<path fill-rule="evenodd" clip-rule="evenodd" d="M-2.33333 -2.33398H23.3333V23.3327H-7L-2.33333 -2.33398Z" fill="white"/>
</g>
<path fill-rule="evenodd" clip-rule="evenodd" d="M3.49966 4.56102L18.7727 19.834C19.0657 20.127 19.5407 20.127 19.8337 19.834C20.1267 19.541 20.1267 19.067 19.8337 18.774L4.56066 3.50002C4.26766 3.20702 3.79266 3.20702 3.49966 3.50002C3.20666 3.79302 3.20666 4.26802 3.49966 4.56102Z" fill="white"/>
</svg>
