<svg width="24" height="24" viewBox="0 0 24 24" fill="none" xmlns="http://www.w3.org/2000/svg">
<path fill-rule="evenodd" clip-rule="evenodd" d="M11.6002 2.16295C11.8392 1.98995 12.1612 1.98995 12.4002 2.16295L14.6152 3.77195C14.8272 3.92595 14.9322 4.18795 14.8852 4.44595L14.6522 5.71095L14.6532 7.69295C15.4622 7.94895 16.0492 8.70595 16.0492 9.59995V17.581C16.0492 18.685 15.1532 19.581 14.0492 19.581L12.7572 19.58L12.7582 22.046C12.7582 22.385 12.4192 22.661 12.0002 22.661C11.5812 22.661 11.2422 22.385 11.2422 22.046L11.2412 19.58L9.95117 19.581C8.84717 19.581 7.95117 18.685 7.95117 17.581V9.59995C7.95117 8.70595 8.53817 7.94895 9.34717 7.69295L9.34817 5.71095L9.11517 4.44595C9.06817 4.18795 9.17317 3.92595 9.38517 3.77195L11.6002 2.16295ZM13.2912 6.32995H10.7092V7.59895H13.2902L13.2912 6.32995ZM12.0002 3.55495L10.5322 4.62195L10.5962 4.96795H13.4042L13.4682 4.62195L12.0002 3.55495Z" fill="white"/>
</svg>
