<svg width="24" height="24" viewBox="0 0 24 24" fill="none" xmlns="http://www.w3.org/2000/svg">
<mask id="mask0_1074_12085" style="mask-type:luminance" maskUnits="userSpaceOnUse" x="2" y="2" width="19" height="19">
<path d="M17.8955 11.0243C17.1235 11.7963 16.1175 12.1793 15.1045 12.1803C14.6215 12.1803 14.1385 12.0923 13.6825 11.9183C13.4065 11.8113 13.0925 11.8783 12.8835 12.0873L6.32347 18.6483C6.07547 18.8973 5.73547 19.0303 5.40947 19.0293C5.11847 19.0283 4.85447 18.9313 4.64347 18.7323C4.39947 18.5003 4.28247 18.2003 4.28147 17.8913C4.28247 17.5923 4.39247 17.3003 4.62147 17.0713L11.2445 10.4483C11.4545 10.2383 11.5205 9.92528 11.4145 9.64828C11.2385 9.19328 11.1515 8.71128 11.1515 8.22828C11.1515 7.21528 11.5355 6.21027 12.3075 5.43628C13.0815 4.66427 14.0865 4.28127 15.1005 4.28027C15.3475 4.28027 15.5945 4.30928 15.8385 4.35528L13.7165 6.47727C13.4135 6.78027 13.2575 7.18527 13.2585 7.58227C13.2575 7.97927 13.4135 8.38427 13.7165 8.68727L14.6455 9.61627L14.6445 9.61528C14.9475 9.92028 15.3525 10.0753 15.7495 10.0743C16.1475 10.0753 16.5515 9.92027 16.8545 9.61627L18.9765 7.49428C19.0225 7.73828 19.0525 7.98428 19.0525 8.23228C19.0515 9.24528 18.6685 10.2513 17.8955 11.0243ZM20.5515 8.23228C20.5515 7.63227 20.4545 7.03227 20.2555 6.45727C20.0855 5.96327 19.6245 5.66627 19.1555 5.66927C18.8705 5.66727 18.5645 5.78227 18.3425 6.00527L18.3415 6.00628L15.7935 8.55527L15.7495 8.57428L15.7075 8.55628L15.7065 8.55527L14.7775 7.62727L14.7585 7.58227L14.7775 7.53827L17.3245 4.99127L17.3265 4.99027C17.5485 4.76827 17.6655 4.46227 17.6635 4.17627C17.6665 3.70827 17.3685 3.24627 16.8775 3.07627H16.8745C16.3005 2.87827 15.7005 2.78027 15.1005 2.78027C13.7085 2.77927 12.3095 3.31228 11.2475 4.37628C10.1845 5.43828 9.65047 6.83628 9.65147 8.22828C9.65147 8.72328 9.74147 9.21428 9.87447 9.69528L3.56047 16.0103C3.04247 16.5283 2.78047 17.2123 2.78147 17.8913C2.78047 18.5903 3.05947 19.2983 3.61047 19.8203C4.11647 20.3003 4.77147 20.5313 5.40947 20.5293C6.12847 20.5293 6.84447 20.2473 7.38347 19.7093L13.6365 13.4563C14.1185 13.5903 14.6085 13.6803 15.1045 13.6803C16.4965 13.6813 17.8945 13.1473 18.9565 12.0853C20.0185 11.0223 20.5525 9.62427 20.5515 8.23228Z" fill="white"/>
</mask>
<g mask="url(#mask0_1074_12085)">
<path d="M-2.33333 -2.33398H23.3333V23.3327H-7L-2.33333 -2.33398Z" fill="white"/>
</g>
<path fill-rule="evenodd" clip-rule="evenodd" d="M3.11997 4.07177L19.37 20.3218C19.663 20.6148 20.138 20.6148 20.431 20.3218C20.724 20.0288 20.724 19.5538 20.431 19.2608L4.18097 3.01077C3.88797 2.71777 3.41297 2.71777 3.11997 3.01077C2.82697 3.30377 2.82697 3.77877 3.11997 4.07177Z" fill="white"/>
</svg>
