<svg width="24" height="24" viewBox="0 0 24 24" fill="none" xmlns="http://www.w3.org/2000/svg">
<path d="M16.509 11.83C16.509 12.245 16.173 12.58 15.759 12.58C15.345 12.58 15.009 12.245 15.009 11.83V11.047C15.009 10.269 14.439 8.571 12.75 8.55V14.216C12.75 14.23 12.752 14.245 12.752 14.26C12.752 14.274 12.75 14.289 12.75 14.304V14.369C12.75 14.392 12.745 14.413 12.743 14.435C12.652 15.646 11.629 16.604 10.382 16.604C9.075 16.604 8.011 15.553 8.011 14.26C8.011 12.967 9.075 11.915 10.382 11.915C10.688 11.915 10.981 11.975 11.25 12.08V8.086C11.25 7.515 11.715 7.049 12.286 7.049H12.717C15.304 7.049 16.509 9.434 16.509 11.047V11.83ZM16.625 3.375H7.375C6 3.375 4.875 4.5 4.875 5.875V18.125C4.875 19.5 6 20.625 7.375 20.625H16.625C18 20.625 19.125 19.5 19.125 18.125V5.875C19.125 4.5 18 3.375 16.625 3.375Z" fill="white"/>
</svg>
