<svg width="24" height="24" viewBox="0 0 24 24" fill="none" xmlns="http://www.w3.org/2000/svg">
<path d="M14.5466 5.80988C13.7206 5.09988 12.6356 4.62988 11.2796 4.62988H10.5296C10.2536 4.62988 10.0296 4.85388 10.0296 5.12988V16.0899M15.2253 10.2279C15.3383 10.3199 16.6153 11.4029 16.6163 13.3619C16.6163 15.3219 15.3383 16.4049 15.2253 16.4969M17.366 7.36068C17.642 7.59268 20.063 9.69768 20.063 13.3617C20.063 17.0257 17.642 19.1317 17.366 19.3627M10.03 15.8998C10.03 17.5558 8.666 18.8998 6.985 18.8998C5.302 18.8998 3.94 17.5558 3.94 15.8998C3.94 14.2418 5.302 12.8998 6.985 12.8998C8.666 12.8998 10.03 14.2418 10.03 15.8998Z" stroke="white" stroke-width="1.5" stroke-linecap="round" stroke-linejoin="round"/>
</svg>
