<svg width="24" height="24" viewBox="0 0 24 24" fill="none" xmlns="http://www.w3.org/2000/svg">
<path fill-rule="evenodd" clip-rule="evenodd" d="M12.625 6.46205C16.8836 6.46205 20.3361 9.91455 20.3361 14.1731C20.3361 18.432 16.8836 21.8842 12.625 21.8842C8.3661 21.8842 4.9136 18.432 4.9136 14.1731C4.9136 9.91455 8.3661 6.46205 12.625 6.46205ZM12.625 10.8066C10.7691 10.8066 9.25861 12.3168 9.25861 14.1731C9.25861 16.0291 10.7691 17.5393 12.625 17.5393C14.481 17.5393 15.9912 16.0291 15.9912 14.1731C15.9912 12.3168 14.481 10.8066 12.625 10.8066ZM20.2574 1.07715C21.8576 1.07715 23.1553 2.37455 23.1553 3.97505C23.1553 5.57585 21.8576 6.87335 20.2574 6.87335C18.6569 6.87335 17.3591 5.57585 17.3591 3.97505C17.3591 2.37455 18.6569 1.07715 20.2574 1.07715Z" fill="white"/>
</svg>
