<svg width="24" height="24" viewBox="0 0 24 24" fill="none" xmlns="http://www.w3.org/2000/svg">
<path fill-rule="evenodd" clip-rule="evenodd" d="M13.0155 4.11523H12.2655C11.5765 4.11523 11.0155 4.67723 11.0155 5.36523V13.1552C10.3775 12.6742 9.58351 12.3852 8.72151 12.3852C6.62851 12.3852 4.92651 14.0672 4.92651 16.1352C4.92651 18.2022 6.62851 19.8852 8.72151 19.8852C10.6945 19.8852 12.3185 18.3882 12.4975 16.4842C12.5085 16.4332 12.5155 16.3802 12.5155 16.3252V16.1352V5.61523H13.0155C16.1245 5.61523 17.5735 8.54823 17.5735 10.5302V11.8972C17.5735 12.3112 17.9095 12.6472 18.3235 12.6472C18.7375 12.6472 19.0735 12.3112 19.0735 11.8972V10.5302C19.0735 7.94323 17.1485 4.11523 13.0155 4.11523Z" fill="white"/>
</svg>
