<svg width="24" height="24" viewBox="0 0 24 24" fill="none" xmlns="http://www.w3.org/2000/svg">
<path d="M20.4998 19.4996C20.4998 20.3286 19.8278 20.9996 18.9998 20.9996C18.1718 20.9996 17.4998 20.3286 17.4998 19.4996C17.4998 18.6706 18.1718 17.9996 18.9998 17.9996C19.8278 17.9996 20.4998 18.6706 20.4998 19.4996ZM20.4998 13.585C20.4998 14.413 19.8278 15.085 18.9998 15.085C18.1718 15.085 17.4998 14.413 17.4998 13.585C17.4998 12.756 18.1718 12.085 18.9998 12.085C19.8278 12.085 20.4998 12.756 20.4998 13.585ZM15.6039 16.5426C15.6039 17.3716 14.9319 18.0426 14.1039 18.0426C13.2759 18.0426 12.6039 17.3716 12.6039 16.5426C12.6039 15.7136 13.2759 15.0426 14.1039 15.0426C14.9319 15.0426 15.6039 15.7136 15.6039 16.5426Z" fill="white"/>
<path d="M16.6464 9.665C16.6464 7.352 14.9594 4 11.3394 4H10.5894C10.3134 4 10.0894 4.224 10.0894 4.5V15.459M15.3806 15.7568L17.7226 14.3718M17.7232 18.7139L15.3802 17.3289M10.089 15.2695C10.089 16.9265 8.725 18.2695 7.045 18.2695C5.362 18.2695 4 16.9265 4 15.2695C4 13.6115 5.362 12.2695 7.045 12.2695C8.725 12.2695 10.089 13.6115 10.089 15.2695Z" stroke="white" stroke-width="1.5" stroke-linecap="round" stroke-linejoin="round"/>
</svg>
