<svg width="24" height="24" viewBox="0 0 24 24" fill="none" xmlns="http://www.w3.org/2000/svg">
<path fill-rule="evenodd" clip-rule="evenodd" d="M17.2099 6.454C17.514 6.1262 18.0261 6.1079 18.3528 6.4109C20.383 8.2944 21.5 10.8023 21.5 13.4729C21.5 16.1447 20.383 18.6525 18.3528 20.535C18.1975 20.6795 18.0002 20.7506 17.8029 20.7506C17.5862 20.7506 17.3695 20.6633 17.2099 20.4919C16.907 20.1641 16.9264 19.6531 17.2531 19.349C18.949 17.777 19.8827 15.6897 19.8827 13.4729C19.8827 11.2573 18.949 9.1699 17.2531 7.5969C16.9264 7.2928 16.907 6.7818 17.2099 6.454ZM11.2225 3.25C12.7556 3.25 14.1573 3.7589 15.2753 4.7206C15.6139 5.0117 15.6516 5.5228 15.3616 5.8613C15.0694 6.1999 14.5605 6.2376 14.2209 5.9465C13.3885 5.2306 12.3794 4.8672 11.2225 4.8672H10.6834V16.4134C10.6834 16.4738 10.6758 16.531 10.6629 16.587C10.471 18.6388 8.7189 20.2518 6.5917 20.2518C4.3351 20.2518 2.5 18.4383 2.5 16.2097C2.5 13.98 4.3351 12.1654 6.5917 12.1654C7.5211 12.1654 8.3772 12.4781 9.0661 12.9967V4.5977C9.0661 3.8548 9.671 3.25 10.4138 3.25H11.2225ZM14.9129 9.5475C15.2191 9.224 15.7323 9.2089 16.0568 9.5162C17.1695 10.5707 17.783 11.9756 17.783 13.4731C17.783 14.9697 17.1695 16.3756 16.0568 17.4301C15.8994 17.5778 15.6999 17.6511 15.5005 17.6511C15.2859 17.6511 15.0714 17.5659 14.9129 17.3988C14.6067 17.0743 14.6207 16.5621 14.9441 16.2548C15.7323 15.5087 16.1657 14.5211 16.1657 13.4731C16.1657 12.4241 15.7323 11.4365 14.9441 10.6914C14.6207 10.3831 14.6067 9.872 14.9129 9.5475Z" fill="white"/>
</svg>
