<svg width="24" height="24" viewBox="0 0 24 24" fill="none" xmlns="http://www.w3.org/2000/svg">
<path fill-rule="evenodd" clip-rule="evenodd" d="M13.9404 4.2718C14.0804 3.8828 14.5104 3.6808 14.9004 3.8208C18.3175 5.0528 20.6125 8.3398 20.6125 12.0008C20.6125 14.7948 19.2744 17.3838 17.0955 19.0008H18.4215C18.8355 19.0008 19.1715 19.3358 19.1715 19.7508C19.1715 20.1648 18.8355 20.5008 18.4215 20.5008H15.4105C14.7295 20.5008 14.1755 19.9468 14.1755 19.2658V16.4748C14.1755 16.0608 14.5114 15.7248 14.9255 15.7248C15.3405 15.7248 15.6755 16.0608 15.6755 16.4748V18.1468C17.7874 16.8568 19.1125 14.5318 19.1125 12.0008C19.1125 8.9698 17.2154 6.2498 14.3914 5.2318C14.0024 5.0918 13.8005 4.6628 13.9404 4.2718ZM8.5907 3.5C9.2707 3.5 9.8247 4.054 9.8247 4.735V7.525C9.8247 7.939 9.4888 8.275 9.0747 8.275C8.6608 8.275 8.3247 7.939 8.3247 7.525V5.853C6.2137 7.143 4.8877 9.468 4.8877 12.001C4.8877 15.031 6.7847 17.75 9.6077 18.768C9.9978 18.908 10.1997 19.338 10.0598 19.728C9.9497 20.033 9.6617 20.223 9.3538 20.223C9.2698 20.223 9.1838 20.209 9.0998 20.179C5.6827 18.948 3.3877 15.661 3.3877 12.001C3.3877 9.205 4.7257 6.616 6.9047 5H5.5797C5.1647 5 4.8297 4.665 4.8297 4.25C4.8297 3.836 5.1647 3.5 5.5797 3.5H8.5907ZM12.8318 8.0809L15.1708 14.9079H13.5719L13.1249 13.4899H10.9999L10.5538 14.9079H8.9538L11.3028 8.0809H12.8318ZM12.0649 10.1199L11.4049 12.2049H12.7208L12.0649 10.1199Z" fill="white"/>
</svg>
