<svg width="24" height="24" viewBox="0 0 24 24" fill="none" xmlns="http://www.w3.org/2000/svg">
<path fill-rule="evenodd" clip-rule="evenodd" d="M4.48277 10.212C4.62777 9.76798 5.04177 9.48398 5.48477 9.48398C5.59277 9.48398 5.70277 9.50098 5.80977 9.53598C6.36277 9.71498 6.66577 10.311 6.48677 10.863C6.30677 11.416 5.71077 11.719 5.15877 11.54C4.60677 11.36 4.30277 10.765 4.48277 10.212ZM11.9998 10.88C12.9788 10.88 13.7748 11.676 13.7748 12.655C13.7748 13.633 12.9788 14.43 11.9998 14.43C11.0218 14.43 10.2248 13.633 10.2248 12.655C10.2248 11.676 11.0218 10.88 11.9998 10.88ZM10.9468 5.80398C10.9468 5.22298 11.4188 4.75098 11.9998 4.75098C12.5808 4.75098 13.0538 5.22298 13.0538 5.80398C13.0538 6.38498 12.5808 6.85798 11.9998 6.85798C11.4188 6.85798 10.9468 6.38498 10.9468 5.80398ZM16.0248 17.144C16.3518 17.144 16.6728 17.295 16.8788 17.578C17.2198 18.048 17.1158 18.708 16.6458 19.049C16.1748 19.391 15.5158 19.286 15.1738 18.816C14.8328 18.346 14.9378 17.687 15.4068 17.345C15.4078 17.345 15.4078 17.345 15.4078 17.344C15.5938 17.209 15.8108 17.144 16.0248 17.144ZM8.82577 18.816C8.48377 19.286 7.82377 19.391 7.35377 19.049C6.88377 18.708 6.77977 18.048 7.12077 17.578C7.28677 17.35 7.53077 17.201 7.80877 17.157C7.86377 17.148 7.92077 17.144 7.97577 17.144C8.19577 17.144 8.41077 17.212 8.59277 17.345C9.06277 17.686 9.16677 18.346 8.82577 18.816ZM18.1898 9.53598C18.2968 9.50098 18.4068 9.48398 18.5138 9.48398C18.9588 9.48398 19.3728 9.76798 19.5178 10.212C19.6968 10.765 19.3928 11.36 18.8408 11.54C18.5738 11.627 18.2878 11.605 18.0368 11.477C17.7858 11.349 17.5998 11.131 17.5128 10.863C17.3338 10.311 17.6378 9.71498 18.1898 9.53598ZM4.69577 12.966C4.95677 13.051 5.22177 13.091 5.48277 13.091C6.31077 13.091 7.09477 12.684 7.57277 12.005L8.73877 12.384C8.73177 12.473 8.72477 12.564 8.72477 12.655C8.72477 13.47 9.02677 14.215 9.52177 14.789L8.80177 15.781C8.41177 15.647 7.99277 15.609 7.57477 15.675C6.89977 15.781 6.30877 16.144 5.90777 16.696C5.07977 17.835 5.33377 19.435 6.47177 20.263C6.92377 20.591 7.44877 20.75 7.96977 20.75C8.75977 20.75 9.53977 20.385 10.0388 19.698C10.7128 18.77 10.6698 17.536 10.0148 16.663L10.7328 15.674C11.1228 15.838 11.5508 15.93 11.9998 15.93C12.4488 15.93 12.8768 15.838 13.2668 15.674L13.9848 16.664C13.3298 17.537 13.2868 18.77 13.9608 19.698C14.4598 20.385 15.2398 20.75 16.0298 20.75C16.5498 20.75 17.0748 20.591 17.5268 20.263C18.6668 19.436 18.9198 17.836 18.0928 16.696C17.4188 15.768 16.2318 15.428 15.1988 15.782L14.4778 14.79C14.9728 14.216 15.2748 13.471 15.2748 12.655C15.2748 12.564 15.2688 12.474 15.2608 12.384L16.4248 12.006C16.6618 12.343 16.9778 12.62 17.3558 12.813C17.7198 12.999 18.1148 13.092 18.5118 13.092C18.7778 13.092 19.0448 13.051 19.3038 12.966C20.6428 12.531 21.3788 11.088 20.9438 9.74898C20.5088 8.40998 19.0658 7.67398 17.7258 8.10898C16.6348 8.46398 15.9448 9.48798 15.9618 10.579L14.7958 10.959C14.3458 10.22 13.6148 9.67398 12.7498 9.46998V8.24498C13.7928 7.92398 14.5538 6.95098 14.5538 5.80398C14.5538 4.39698 13.4078 3.25098 11.9998 3.25098C10.5918 3.25098 9.44677 4.39698 9.44677 5.80398C9.44677 6.95098 10.2068 7.92398 11.2498 8.24498V9.46998C10.3858 9.67398 9.65377 10.22 9.20477 10.958L8.03777 10.579C8.05477 9.48698 7.36477 8.46398 6.27377 8.10898C4.93377 7.67398 3.49177 8.40998 3.05577 9.74898C2.62077 11.087 3.35677 12.531 4.69577 12.966Z" fill="white"/>
</svg>
