<svg width="24" height="24" viewBox="0 0 24 24" fill="none" xmlns="http://www.w3.org/2000/svg">
<path d="M9.22202 15.8285C9.56402 15.4865 9.56402 14.9325 9.22202 14.5915C8.88102 14.2495 8.32602 14.2495 7.98502 14.5915C7.64302 14.9325 7.64302 15.4865 7.98502 15.8285C8.32602 16.1705 8.88102 16.1705 9.22202 15.8285Z" fill="white"/>
<path d="M12.169 15.2716C12.169 13.2676 10.544 11.6436 8.54102 11.6436" stroke="white" stroke-width="1.2" stroke-linecap="round" stroke-linejoin="round"/>
<path d="M15.51 15.2717C15.51 11.4227 12.39 8.30273 8.54102 8.30273" stroke="white" stroke-width="1.2" stroke-linecap="round" stroke-linejoin="round"/>
<path fill-rule="evenodd" clip-rule="evenodd" d="M7 3.75H17C17.5304 3.75 18.0391 3.96071 18.4142 4.33579C18.7893 4.71086 19 5.21957 19 5.75V18.25C19 18.7804 18.7893 19.2891 18.4142 19.6642C18.0391 20.0393 17.5304 20.25 17 20.25H7C6.46957 20.25 5.96086 20.0393 5.58579 19.6642C5.21071 19.2891 5 18.7804 5 18.25V5.75C5 5.21957 5.21071 4.71086 5.58579 4.33579C5.96086 3.96071 6.46957 3.75 7 3.75Z" stroke="white" stroke-width="1.5" stroke-linecap="round" stroke-linejoin="round"/>
</svg>
