<svg width="24" height="24" viewBox="0 0 24 24" fill="none" xmlns="http://www.w3.org/2000/svg">
<path fill-rule="evenodd" clip-rule="evenodd" d="M15.5642 4.15253C15.8592 3.86153 15.8632 3.38653 15.5722 3.09153C15.2812 2.79753 14.8062 2.79453 14.5112 3.08553L6.73316 10.7555C6.39716 11.0865 6.21216 11.5295 6.21216 12.0015C6.21216 12.4725 6.39716 12.9165 6.73316 13.2475L14.5112 20.9165C14.6572 21.0595 14.8472 21.1315 15.0382 21.1315C15.2312 21.1315 15.4252 21.0565 15.5722 20.9085C15.8632 20.6135 15.8592 20.1385 15.5642 19.8475L7.78716 12.1785C7.72116 12.1155 7.71216 12.0405 7.71216 12.0015C7.71216 11.9625 7.72116 11.8865 7.78716 11.8235L15.5642 4.15253Z" fill="white"/>
</svg>
