<svg width="24" height="24" viewBox="0 0 24 24" fill="none" xmlns="http://www.w3.org/2000/svg">
<path d="M9.00851 12.4258C9.34331 12.7306 9.39611 13.2286 9.15251 13.5922L9.06971 13.6978C8.73611 14.0662 8.16611 14.0938 7.79891 13.759L4.40531 10.6798C3.73091 10.0666 3.73091 9.02256 4.40651 8.41296L7.79891 5.33376C8.16611 4.99896 8.73611 5.02656 9.06971 5.39496C9.40331 5.76336 9.37571 6.33216 9.00851 6.66576L6.82571 8.64576H14.3737C16.8733 8.64576 18.9001 10.6726 18.9001 13.1734C18.9001 15.673 16.8733 17.6998 14.3737 17.6998H6.60131C6.10451 17.6998 5.70131 17.2966 5.70131 16.7998C5.70131 16.303 6.10451 15.8998 6.60131 15.8998H14.3737C15.8797 15.8998 17.1001 14.6794 17.1001 13.1734C17.1001 11.6674 15.8797 10.4458 14.3737 10.4458H6.82571L9.00851 12.4258Z" fill="white"/>
</svg>
