<svg width="24" height="24" viewBox="0 0 24 24" fill="none" xmlns="http://www.w3.org/2000/svg">
<path d="M7.76708 17.626C8.32408 17.626 8.77708 18.079 8.77708 18.636C8.77708 19.192 8.32408 19.646 7.76708 19.646C7.21008 19.646 6.75708 19.192 6.75708 18.636C6.75708 18.079 7.21008 17.626 7.76708 17.626ZM14.5952 17.6357C15.1462 17.6357 15.5952 18.0837 15.5952 18.6357C15.5952 19.1877 15.1462 19.6357 14.5952 19.6357C14.0432 19.6357 13.5952 19.1877 13.5952 18.6357C13.5952 18.0837 14.0432 17.6357 14.5952 17.6357Z" fill="white"/>
<path d="M11.4194 7.81307C11.7074 6.28107 13.0524 5.12207 14.6684 5.12207C16.4944 5.12207 17.9754 6.60207 17.9754 8.42807C17.9754 8.42807 18.0064 10.1131 16.1624 11.3841C14.8004 12.3241 14.5544 13.3561 14.5724 14.1761V15.2921" stroke="white" stroke-width="1.5" stroke-linecap="round" stroke-linejoin="round"/>
<path d="M7.76709 15.2912V5.40918" stroke="white" stroke-width="1.5" stroke-linecap="round" stroke-linejoin="round"/>
</svg>
