<svg width="24" height="24" viewBox="0 0 24 24" fill="none" xmlns="http://www.w3.org/2000/svg">
<path d="M11.9 20.9998C6.90005 20.9998 2.80005 16.8998 2.80005 11.8998C2.80005 6.8998 6.90005 2.7998 11.9 2.7998C16.9 2.7998 21 6.8998 21 11.8998C21 16.8998 16.9 20.9998 11.9 20.9998ZM12.6 12.5998V19.4998C16.2 19.0998 19.1 16.2998 19.4 12.6998H12.6V12.5998ZM4.30005 12.5998C4.60005 16.1998 7.50005 19.0998 11.1 19.4998V12.5998H4.30005ZM12.6 11.0998H19.5C19.1 7.4998 16.2 4.5998 12.6 4.2998V11.0998ZM4.30005 11.0998H11.1V4.2998C7.50005 4.5998 4.60005 7.4998 4.30005 11.0998Z" fill="white"/>
<path d="M17.6999 18.2C17.3999 18.2 17.1999 18.1 16.9999 17.8C16.6999 17.3 16.2999 16.6 15.8999 16L15.7999 15.9C14.7999 14.4 14.3999 13.4 14.3999 11.8C14.3999 10.2 14.7999 9.2 15.7999 7.7L15.8999 7.6C16.2999 7 16.6999 6.4 16.8999 5.9C17.0999 5.5 17.5999 5.4 17.8999 5.6C18.2999 5.8 18.3999 6.3 18.1999 6.6C17.8999 7.1 17.4999 7.8 17.0999 8.4L16.9999 8.5C16.0999 9.9 15.7999 10.6 15.7999 11.8C15.7999 13 16.0999 13.7 16.9999 15.1L17.0999 15.2C17.4999 15.9 17.9999 16.6 18.2999 17.1C18.4999 17.5 18.3999 17.9 17.9999 18.1C17.9999 18.2 17.8999 18.2 17.6999 18.2Z" fill="white"/>
<path d="M5.99995 18.2004C5.89995 18.2004 5.79995 18.2004 5.59995 18.1004C5.19995 17.9004 5.09995 17.4004 5.29995 17.1004C5.59995 16.6004 5.99995 15.9004 6.49995 15.2004L6.59995 15.1004C7.49995 13.7004 7.79995 13.0004 7.79995 11.8004C7.79995 10.6004 7.49995 9.90043 6.59995 8.50043H6.49995C6.09995 7.80043 5.59995 7.10043 5.29995 6.50043C5.09995 6.10043 5.29995 5.70043 5.59995 5.50043C5.99995 5.30043 6.39995 5.50043 6.59995 5.80043C6.89995 6.30043 7.29995 7.00043 7.69995 7.70043L7.79995 7.80043C8.79995 9.30043 9.19995 10.3004 9.19995 11.9004C9.19995 13.5004 8.79995 14.5004 7.79995 16.0004L7.69995 16.1004C7.29995 16.7004 6.89995 17.4004 6.59995 17.9004C6.49995 18.1004 6.29995 18.2004 5.99995 18.2004Z" fill="white"/>
</svg>
