<svg width="24" height="24" viewBox="0 0 24 24" fill="none" xmlns="http://www.w3.org/2000/svg">
<path d="M13.4194 4.5C9.28035 4.5 5.92502 7.85537 5.92502 11.9944C5.92502 14.0893 6.78456 15.9835 8.17019 17.3434C9.30144 16.7497 11.6956 14.3379 12.2403 13.1777C12.3332 13.0044 12.5441 12.9267 12.7223 13.0098C12.9005 13.0929 12.9784 13.3052 12.8865 13.479C12.176 15.0066 9.28991 17.7549 7.62732 18.36C5.96472 18.9652 5.07871 18.9521 3.44763 18.2885C3.42773 18.2804 3.40907 18.2707 3.39174 18.2595C3.2766 18.2833 3.17423 18.3575 3.12135 18.4709C3.03389 18.6585 3.11472 18.8824 3.30643 18.9603C5.02336 19.6588 6.00534 19.6739 7.75544 19.0369C8.3048 18.8369 8.82416 18.5752 9.30505 18.2595C10.4861 19.0366 11.9 19.4888 13.4194 19.4888C17.5585 19.4888 20.9139 16.1335 20.9139 11.9944V7.09023C20.9139 5.39163 19.9838 4.50001 18.3012 4.50001L13.4194 4.5Z" fill="white"/>
</svg>
