<svg width="24" height="24" viewBox="0 0 24 24" fill="none" xmlns="http://www.w3.org/2000/svg">
<path d="M18.2722 14.4775C18.0652 14.4775 17.8972 14.6455 17.8972 14.8525V18.4615C17.8972 18.6685 18.0652 18.8365 18.2722 18.8365C18.4792 18.8365 18.6472 18.6685 18.6472 18.4615V14.8525C18.6472 14.6455 18.4792 14.4775 18.2722 14.4775ZM16.9509 15.3359C16.7439 15.3359 16.5759 15.5039 16.5759 15.7109V17.6039C16.5759 17.8109 16.7439 17.9789 16.9509 17.9789C17.1589 17.9789 17.3259 17.8109 17.3259 17.6039V15.7109C17.3259 15.5039 17.1589 15.3359 16.9509 15.3359ZM19.5935 15.3359C19.3865 15.3359 19.2185 15.5039 19.2185 15.7109V17.6039C19.2185 17.8109 19.3865 17.9789 19.5935 17.9789C19.8005 17.9789 19.9685 17.8109 19.9685 17.6039V15.7109C19.9685 15.5039 19.8005 15.3359 19.5935 15.3359ZM15.6311 15.9306C15.4241 15.9306 15.2561 16.0986 15.2561 16.3056V17.0086C15.2561 17.2156 15.4241 17.3836 15.6311 17.3836C15.8381 17.3836 16.0061 17.2156 16.0061 17.0086V16.3056C16.0061 16.0986 15.8381 15.9306 15.6311 15.9306ZM20.9143 15.9306C20.7063 15.9306 20.5393 16.0986 20.5393 16.3056V17.0086C20.5393 17.2156 20.7063 17.3836 20.9143 17.3836C21.1213 17.3836 21.2893 17.2156 21.2893 17.0086V16.3056C21.2893 16.0986 21.1213 15.9306 20.9143 15.9306Z" fill="white"/>
<path d="M15.9537 12.1261C15.9547 10.4541 15.6037 8.14712 13.8017 6.83812C12.7027 6.04012 10.7297 5.37012 9.14968 6.27512C7.61868 7.15212 7.30468 9.02212 7.27768 9.19812C7.14068 10.0871 7.34668 10.9231 7.40668 11.1201C7.50668 11.4491 7.66368 11.7871 7.66368 11.7871C7.85768 12.1841 8.08268 12.7881 8.04868 13.5141C7.98868 14.7981 7.18268 15.0661 6.96568 16.3611C6.78668 17.4381 7.10568 18.7601 7.94468 19.5721C9.12668 20.7171 11.0537 20.6021 12.2647 20.1201C13.1227 19.7791 13.7737 19.1931 14.2677 18.5091M7.12848 10.2551C6.04148 9.44912 5.37548 8.10812 5.51948 6.62112C5.70448 4.70212 7.28348 3.15812 9.20548 3.01212C11.4295 2.84212 13.3075 4.48112 13.5245 6.61012M14.0455 12.7961C14.0455 12.6571 14.1575 12.5461 14.2955 12.5461H18.3635C20.6565 12.5961 22.5005 14.4691 22.5005 16.7731C22.5005 19.1001 20.6195 20.9871 18.2955 21.0001H18.2495C18.2455 20.9981 18.2425 20.9981 18.2395 20.9981C15.9445 20.9831 14.1025 19.1091 14.0465 16.8251L14.0455 12.7961Z" stroke="white" stroke-width="1.5" stroke-linecap="round" stroke-linejoin="round"/>
</svg>
