<svg width="24" height="24" viewBox="0 0 24 24" fill="none" xmlns="http://www.w3.org/2000/svg">
<g clip-path="url(#clip0_1074_12191)">
<path d="M14.9039 10.4771C14.6649 9.20413 14.1079 7.89213 12.9089 7.02213C11.8089 6.22213 9.83388 5.55213 8.25288 6.45713C6.71988 7.33513 6.40588 9.20713 6.37888 9.38313C6.24188 10.2731 6.44788 11.1101 6.50788 11.3081C6.60788 11.6371 6.76588 11.9751 6.76588 11.9751C6.95988 12.3721 7.18488 12.9771 7.15088 13.7031C7.09088 14.9881 6.28288 15.2571 6.06688 16.5531C5.88688 17.6301 6.20788 18.9541 7.04688 19.7671C8.22988 20.9131 10.1589 20.7971 11.3699 20.3161M12.3839 16.4702H15.5089L16.4669 12.7352L17.8659 19.6932L19.5019 13.9092L20.0869 16.4502H23.4029M22.8068 12.4253L14.4068 20.8243M6.22958 10.4409C5.14158 9.63393 4.47558 8.29293 4.61958 6.80393C4.80458 4.88293 6.38458 3.33793 8.30958 3.19193C10.5346 3.02093 12.4146 4.66193 12.6306 6.79393" stroke="white" stroke-width="1.5" stroke-linecap="round" stroke-linejoin="round"/>
</g>
<defs>
<clipPath id="clip0_1074_12191">
<rect width="24" height="24" fill="white"/>
</clipPath>
</defs>
</svg>
