<svg width="24" height="24" viewBox="0 0 24 24" fill="none" xmlns="http://www.w3.org/2000/svg">
<path d="M20.7501 3.25C21.8541 3.25 22.7501 4.146 22.7501 5.25C22.7501 6.354 21.8541 7.25 20.7501 7.25C19.6461 7.25 18.7501 6.354 18.7501 5.25C18.7501 4.146 19.6461 3.25 20.7501 3.25Z" fill="white"/>
<path d="M6.87848 10.5383C5.79148 9.73233 5.12548 8.39233 5.26948 6.90433C5.45448 4.98533 7.03348 3.44233 8.95548 3.29533C11.1795 3.12533 13.0575 4.76433 13.2745 6.89433M8.89948 6.55883C7.36848 7.43583 7.05448 9.30582 7.02748 9.48182C6.89048 10.3708 7.09648 11.2058 7.15648 11.4048C7.25648 11.7338 7.41448 12.0708 7.41448 12.0708C7.60748 12.4668 7.83348 13.0728 7.79848 13.7968C7.73848 15.0808 6.93248 15.3508 6.71548 16.6448C6.53648 17.7208 6.85648 19.0438 7.69448 19.8558C8.87748 21.0008 10.8035 20.8848 12.0145 20.4048C14.9495 19.2378 15.4535 15.2098 15.5795 14.2028C15.7065 13.1928 16.2225 9.06183 13.5515 7.12183C12.4525 6.32383 10.4795 5.65383 8.89948 6.55883Z" stroke="white" stroke-width="1.5" stroke-linecap="round" stroke-linejoin="round"/>
</svg>
