<svg width="24" height="24" viewBox="0 0 24 24" fill="none" xmlns="http://www.w3.org/2000/svg">
<path fill-rule="evenodd" clip-rule="evenodd" d="M17.152 16.2347H16.554V15.6367C16.554 15.4297 16.387 15.2617 16.179 15.2617C15.972 15.2617 15.804 15.4297 15.804 15.6367V16.2347H15.207C15 16.2347 14.832 16.4027 14.832 16.6097C14.832 16.8167 15 16.9847 15.207 16.9847H15.804V17.5827C15.804 17.7897 15.972 17.9577 16.179 17.9577C16.387 17.9577 16.554 17.7897 16.554 17.5827V16.9847H17.152C17.359 16.9847 17.527 16.8167 17.527 16.6097C17.527 16.4027 17.359 16.2347 17.152 16.2347ZM20.6778 17.388C20.6778 17.688 20.4348 17.93 20.1358 17.93C19.8358 17.93 19.5928 17.688 19.5928 17.388C19.5928 17.088 19.8358 16.846 20.1358 16.846C20.4348 16.846 20.6778 17.088 20.6778 17.388ZM19.4557 16.0628C19.4557 16.3628 19.2127 16.6048 18.9137 16.6048C18.6137 16.6048 18.3707 16.3628 18.3707 16.0628C18.3707 15.7628 18.6137 15.5198 18.9137 15.5198C19.2127 15.5198 19.4557 15.7628 19.4557 16.0628Z" fill="white"/>
<path d="M16.4016 13.737C16.5516 12.275 16.6926 8.82103 14.3176 7.09603C13.2156 6.29603 11.2396 5.62603 9.65656 6.53203C8.12256 7.41103 7.80756 9.28403 7.78056 9.46103C7.64456 10.35 7.84956 11.188 7.91056 11.386C8.01056 11.716 8.16856 12.054 8.16856 12.054C8.36256 12.451 8.58856 13.057 8.55356 13.784C8.49256 15.07 7.68556 15.34 7.46856 16.636C7.28856 17.715 7.60956 19.04 8.44956 19.853C9.63356 21.001 11.5646 20.884 12.7766 20.403C13.0556 20.292 13.3126 20.156 13.5486 19.999M7.63146 10.5192C6.54246 9.71123 5.87546 8.36823 6.01946 6.87823C6.20546 4.95623 7.78646 3.41023 9.71346 3.26223C11.9405 3.09123 13.8225 4.73423 14.0395 6.86823M22.0002 16.8932C22.0002 15.2952 20.7052 13.9992 19.1072 13.9992H16.5292C14.9322 13.9992 13.6362 15.2952 13.6362 16.8932V19.6232C13.6362 20.3202 14.2232 20.7492 14.7672 20.7492C15.0492 20.7492 15.3202 20.6412 15.5302 20.4432L16.7742 19.2762C16.8202 19.2322 16.8812 19.2082 16.9452 19.2082H18.6912C18.7542 19.2082 18.8152 19.2322 18.8622 19.2762L20.1052 20.4432C20.3192 20.6442 20.5832 20.7492 20.8692 20.7492C21.4132 20.7492 22.0002 20.3202 22.0002 19.6232V16.8932Z" stroke="white" stroke-width="1.5" stroke-linecap="round" stroke-linejoin="round"/>
</svg>
