<svg width="24" height="24" viewBox="0 0 24 24" fill="none" xmlns="http://www.w3.org/2000/svg">
<path d="M22.5001 18.7532H20.2271C20.0881 18.7532 19.9771 18.6412 19.9771 18.5032V17.1532C19.9771 17.0162 20.0881 16.9032 20.2271 16.9032H22.5001C22.6381 16.9032 22.7501 17.0162 22.7501 17.1532V18.5032C22.7501 18.6412 22.6381 18.7532 22.5001 18.7532ZM15.524 19.6751H13.25C13.112 19.6751 13 19.5631 13 19.4251V18.0751C13 17.9381 13.112 17.8251 13.25 17.8251H15.524C15.662 17.8251 15.774 17.9381 15.774 18.0751V19.4251C15.774 19.5631 15.662 19.6751 15.524 19.6751ZM19.0118 15.9232H16.7388C16.5998 15.9232 16.4888 15.8112 16.4888 15.6732V14.3232C16.4888 14.1862 16.5998 14.0732 16.7388 14.0732H19.0118C19.1498 14.0732 19.2618 14.1862 19.2618 14.3232V15.6732C19.2618 15.8112 19.1498 15.9232 19.0118 15.9232Z" fill="white"/>
<path d="M15.7433 10.968C15.5723 9.50898 15.0393 7.89598 13.6393 6.87798C12.5283 6.07198 10.5343 5.39498 8.93826 6.30998C7.39026 7.19598 7.07326 9.08498 7.04626 9.26298C6.90826 10.16 7.11626 11.005 7.17726 11.205C7.27826 11.537 7.43726 11.879 7.43726 11.879C7.63326 12.28 7.86026 12.891 7.82626 13.623C7.76426 14.92 6.95026 15.193 6.73126 16.5C6.55026 17.587 6.87326 18.924 7.72026 19.744C8.35526 20.36 9.20326 20.614 10.0413 20.646M6.89556 10.3303C5.79756 9.51628 5.12456 8.16128 5.26956 6.65928C5.45756 4.72028 7.05156 3.16028 8.99456 3.01228C11.2416 2.84028 13.1396 4.49628 13.3576 6.64828M21.3634 13.0295V20.9995M17.8751 20.9992V13.0292M14.3873 20.9992V13.0292" stroke="white" stroke-width="1.5" stroke-linecap="round" stroke-linejoin="round"/>
</svg>
