<svg width="24" height="24" viewBox="0 0 24 24" fill="none" xmlns="http://www.w3.org/2000/svg">
<path d="M8.38566 10.5191C7.29366 9.7111 6.62466 8.3681 6.76966 6.8781C6.95566 4.9561 8.54066 3.4101 10.4717 3.2621C12.7047 3.0921 14.5917 4.7341 14.8087 6.8681M10.4155 6.5318C8.87746 7.4108 8.56146 9.2848 8.53546 9.4608C8.39746 10.3498 8.60446 11.1878 8.66546 11.3858C8.76546 11.7168 8.92346 12.0538 8.92346 12.0538C9.11846 12.4518 9.34446 13.0568 9.31046 13.7838C9.24846 15.0698 8.43946 15.3398 8.22246 16.6358C8.04146 17.7148 8.36346 19.0398 9.20546 19.8528C10.3935 21.0008 12.3285 20.8848 13.5435 20.4028C16.4925 19.2338 16.9985 15.1988 17.1245 14.1888C17.2515 13.1778 17.7705 9.0398 15.0885 7.0958C13.9845 6.2968 12.0025 5.6258 10.4155 6.5318Z" stroke="white" stroke-width="1.5" stroke-linecap="round" stroke-linejoin="round"/>
</svg>
