<svg width="24" height="24" viewBox="0 0 24 24" fill="none" xmlns="http://www.w3.org/2000/svg">
<path d="M20.619 18.244C20.619 17.902 20.342 17.625 20 17.625C19.659 17.625 19.382 17.902 19.382 18.244C19.382 18.444 19.478 18.62 19.625 18.733V19.587C19.625 19.794 19.793 19.962 20 19.962C20.207 19.962 20.375 19.794 20.375 19.587V18.733C20.522 18.62 20.619 18.444 20.619 18.244Z" fill="white"/>
<path d="M6.88146 10.2692C5.79246 9.46123 5.12546 8.11823 5.26946 6.62823C5.45546 4.70623 7.03646 3.16023 8.96346 3.01223C11.1905 2.84123 13.0725 4.48423 13.2895 6.61823M21.5661 16.4626V14.5896C21.5661 13.7256 20.8651 13.0246 20.0001 13.0246C19.1351 13.0246 18.4341 13.7256 18.4341 14.5896V16.4626M8.90636 6.28193C7.37236 7.16093 7.05736 9.03393 7.03136 9.20993C6.89436 10.0999 7.09936 10.9379 7.16036 11.1359C7.26036 11.4659 7.41836 11.8039 7.41836 11.8039C7.61236 12.2009 7.83836 12.8069 7.80336 13.5339C7.74236 14.8199 6.93536 15.0899 6.71836 16.3859C6.53836 17.4649 6.85936 18.7899 7.69936 19.6029C8.88436 20.7509 10.8144 20.6349 12.0274 20.1529C14.9684 18.9839 15.4724 14.9489 15.5994 13.9389C15.7254 12.9279 16.2434 8.78993 13.5674 6.84593C12.4664 6.04593 10.4894 5.37493 8.90636 6.28193ZM22.0002 20.9997H18.0002C17.5852 20.9997 17.2502 20.6637 17.2502 20.2497V17.2127C17.2502 16.7987 17.5852 16.4627 18.0002 16.4627H22.0002C22.4142 16.4627 22.7502 16.7987 22.7502 17.2127V20.2497C22.7502 20.6637 22.4142 20.9997 22.0002 20.9997Z" stroke="white" stroke-width="1.5" stroke-linecap="round" stroke-linejoin="round"/>
</svg>
