<svg width="24" height="24" viewBox="0 0 24 24" fill="none" xmlns="http://www.w3.org/2000/svg">
<path d="M20.0519 12.8246C20.1409 12.5226 20.1889 12.2036 20.1889 11.8726C20.1889 10.0186 18.6869 8.5166 16.8329 8.5166C14.9799 8.5166 13.4779 10.0186 13.4779 11.8726C13.4779 12.4706 13.6339 13.0306 13.9069 13.5166M21.7315 14.6664C21.2855 14.6434 20.8945 15.0024 20.8815 15.4604C20.9695 14.9384 20.5765 14.4744 20.1135 14.4554C19.6825 14.4374 19.2745 14.8074 19.2605 15.2964C19.3475 14.7804 18.9585 14.3194 18.4955 14.3004C18.0615 14.2814 17.6525 14.6534 17.6425 15.1414V12.1844C17.6485 11.7354 17.2815 11.3624 16.8335 11.3624C16.3855 11.3624 16.0175 11.7354 16.0235 12.1844C16.0235 13.6804 16.0235 15.1764 16.0235 16.6724V17.1244L15.6695 16.7174C15.6165 16.6564 15.4275 16.4574 15.1155 16.4124C15.0245 16.3994 14.7405 16.3574 14.5065 16.5484C14.2545 16.7544 14.2535 17.0754 14.2535 17.1594C14.2525 17.4754 14.4235 17.6904 14.4765 17.7514L15.7755 19.2534C15.8685 19.3644 17.5865 21.3564 19.7605 20.9434C20.8215 20.7424 21.4905 20.0634 21.5695 19.9814C22.4975 19.0154 22.5035 17.8014 22.4995 17.5314V15.5074C22.5125 15.0624 22.1645 14.6874 21.7315 14.6664Z" stroke="white" stroke-width="1.25" stroke-linecap="round" stroke-linejoin="round"/>
<path d="M15.2174 8.51701C14.8944 7.88301 14.4414 7.30101 13.8094 6.84201C12.7084 6.04301 10.7344 5.37301 9.15238 6.27901C7.61938 7.15701 7.30538 9.02901 7.27838 9.20401C7.14238 10.094 7.34738 10.931 7.40738 11.128C7.50838 11.458 7.66538 11.796 7.66538 11.796C7.86038 12.193 8.08538 12.798 8.05038 13.524C7.99038 14.809 7.18338 15.079 6.96738 16.373C6.78738 17.452 7.10738 18.775 7.94638 19.587C9.13038 20.734 11.0584 20.619 12.2704 20.137C13.2674 19.74 13.9854 19.013 14.5024 18.187M7.12948 10.2621C6.04148 9.45511 5.37548 8.11411 5.51948 6.62511C5.70448 4.70411 7.28448 3.15911 9.20848 3.01211C11.4345 2.84211 13.3145 4.48311 13.5305 6.61511" stroke="white" stroke-width="1.5" stroke-linecap="round" stroke-linejoin="round"/>
</svg>
