<svg width="24" height="24" viewBox="0 0 24 24" fill="none" xmlns="http://www.w3.org/2000/svg">
<path fill-rule="evenodd" clip-rule="evenodd" d="M20.2498 16.8879H4.49976V9.38789C4.49976 8.97289 4.16376 8.63789 3.74976 8.63789C3.33576 8.63789 2.99976 8.97289 2.99976 9.38789V19.8879C2.99976 20.3019 3.33576 20.6379 3.74976 20.6379C4.16376 20.6379 4.49976 20.3019 4.49976 19.8879V18.3879H19.4998V19.8879C19.4998 20.3019 19.8358 20.6379 20.2498 20.6379C20.6638 20.6379 20.9998 20.3019 20.9998 19.8879V17.6379C20.9998 17.2229 20.6638 16.8879 20.2498 16.8879ZM18.2498 12.3879H7.99976C6.61876 12.3879 5.49976 13.5069 5.49976 14.8879V15.8879H20.7498V14.8879C20.7498 13.5069 19.6308 12.3879 18.2498 12.3879ZM17.5145 3.35079C17.5075 3.34779 17.5035 3.35079 17.5055 3.35679L17.5085 3.36279C17.6385 3.72179 17.7085 4.10979 17.7085 4.51479C17.7085 6.37179 16.2145 7.87579 14.3705 7.87579C13.9235 7.87579 13.4965 7.78779 13.1075 7.62579L13.1025 7.62479C13.0975 7.62179 13.0955 7.62579 13.0985 7.63379L13.1005 7.63979C13.5765 8.91079 14.7955 9.81479 16.2245 9.81479C18.0685 9.81479 19.5625 8.30879 19.5625 6.45279C19.5625 5.05879 18.7205 3.86279 17.5205 3.35379L17.5145 3.35079Z" fill="white"/>
</svg>
