<svg width="24" height="24" viewBox="0 0 24 24" fill="none" xmlns="http://www.w3.org/2000/svg">
<path fill-rule="evenodd" clip-rule="evenodd" d="M16.9107 15.9336L18.4857 16.6506C18.9457 16.9166 19.1037 17.5096 18.8397 17.9696C18.5747 18.4306 17.9807 18.5896 17.5197 18.3256L16.1107 17.3226C15.6507 17.0566 15.4427 16.5456 15.6737 16.1466C15.8897 15.7696 16.4497 15.6676 16.9107 15.9336ZM20.0345 11.0099C20.5655 11.0099 21.0004 11.4449 21.0014 11.9749C21.0014 12.5069 20.5674 12.9419 20.0364 12.9429L18.0034 12.7809C17.4724 12.7809 17.0354 12.4409 17.0354 11.9789C17.0344 11.5439 17.4704 11.1779 18.0014 11.1769L20.0345 11.0099ZM18.8212 6.01725C19.0882 6.47725 18.9292 7.07025 18.4702 7.33625L16.8962 8.05625C16.4372 8.32225 15.8902 8.24725 15.6592 7.84625C15.4422 7.47125 15.6342 6.93625 16.0942 6.67025L17.5022 5.66525C17.9622 5.39725 18.5562 5.55725 18.8212 6.01725Z" fill="white"/>
<path fill-rule="evenodd" clip-rule="evenodd" d="M12.021 4.8693L7.136 8.9973L4.5 9.00031C3.671 9.00131 2.999 9.6743 3 10.5033L3.003 13.5103C3.004 14.3383 3.676 15.0103 4.505 15.0093L7.138 15.0073L12.035 19.1313C12.36 19.4053 12.858 19.1743 12.857 18.7483L12.844 5.2503C12.844 4.8253 12.346 4.5943 12.021 4.8693Z" stroke="white" stroke-width="1.5" stroke-linecap="round" stroke-linejoin="round"/>
</svg>
