<svg width="24" height="24" viewBox="0 0 24 24" fill="none" xmlns="http://www.w3.org/2000/svg">
<path d="M18.0147 3.50118C18.0077 3.49818 18.0047 3.50118 18.0067 3.50718L18.0087 3.51318C18.1387 3.87218 18.2097 4.25918 18.2097 4.66418C18.2097 6.52118 16.7157 8.02618 14.8717 8.02618C14.4237 8.02618 13.9977 7.93718 13.6077 7.77618L13.6037 7.77418C13.5987 7.77218 13.5967 7.77618 13.5987 7.78418L13.6017 7.79018C14.0777 9.06118 15.2967 9.96418 16.7247 9.96418C18.5687 9.96418 20.0637 8.45918 20.0637 6.60318C20.0637 5.20918 19.2207 4.01318 18.0207 3.50318L18.0147 3.50118Z" fill="white"/>
<path d="M4 9.57715V16.4211M20.5 18.5771H4M20.501 19.9995V16.4995C20.501 15.6715 19.829 14.9995 19.001 14.9995H5.5C4.672 14.9995 4 15.6715 4 16.4995V19.9995" stroke="white" stroke-width="1.5" stroke-linecap="round" stroke-linejoin="round"/>
</svg>
