<svg width="24" height="24" viewBox="0 0 24 24" fill="none" xmlns="http://www.w3.org/2000/svg">
<path d="M8.24407 5.08219C8.24407 4.82529 8.03457 4.61719 7.77857 4.61719C7.52147 4.61719 7.31177 4.82529 7.31177 5.08219C7.31177 5.33929 7.52147 5.54799 7.77857 5.54799C8.03457 5.54799 8.24407 5.33929 8.24407 5.08219Z" fill="white"/>
<path d="M11.1519 5.0818C11.1519 4.7609 10.8927 4.5 10.5709 4.5C10.2488 4.5 9.98816 4.7609 9.98816 5.0818C9.98816 5.4036 10.2488 5.6635 10.5709 5.6635C10.8927 5.6635 11.1519 5.4036 11.1519 5.0818Z" fill="white"/>
<path d="M13.946 5.0818C13.946 4.7609 13.6849 4.5 13.3631 4.5C13.0415 4.5 12.7823 4.7609 12.7823 5.0818C12.7823 5.4036 13.0415 5.6635 13.3631 5.6635C13.6849 5.6635 13.946 5.4036 13.946 5.0818Z" fill="white"/>
<path d="M16.6199 5.08219C16.6199 4.82529 16.4125 4.61719 16.1544 4.61719C15.8994 4.61719 15.6904 4.82529 15.6904 5.08219C15.6904 5.33929 15.8994 5.54799 16.1544 5.54799C16.4125 5.54799 16.6199 5.33929 16.6199 5.08219Z" fill="white"/>
<path d="M5.45228 7.64078C5.45228 7.38388 5.24308 7.17578 4.98658 7.17578C4.72918 7.17578 4.51978 7.38388 4.51978 7.64078C4.51978 7.89888 4.72918 8.10668 4.98658 8.10668C5.24308 8.10668 5.45228 7.89888 5.45228 7.64078Z" fill="white"/>
<path d="M8.35956 7.64127C8.35956 7.31997 8.09866 7.05957 7.77896 7.05957C7.45756 7.05957 7.19666 7.31997 7.19666 7.64127C7.19666 7.96267 7.45756 8.22307 7.77896 8.22307C8.09866 8.22307 8.35956 7.96267 8.35956 7.64127Z" fill="white"/>
<path d="M16.7376 7.64127C16.7376 7.31997 16.4767 7.05957 16.1551 7.05957C15.8356 7.05957 15.5748 7.31997 15.5748 7.64127C15.5748 7.96267 15.8356 8.22307 16.1551 8.22307C16.4767 8.22307 16.7376 7.96267 16.7376 7.64127Z" fill="white"/>
<path d="M19.4144 7.64078C19.4144 7.38388 19.2049 7.17578 18.9466 7.17578C18.6914 7.17578 18.4819 7.38388 18.4819 7.64078C18.4819 7.89888 18.6914 8.10668 18.9466 8.10668C19.2049 8.10668 19.4144 7.89888 19.4144 7.64078Z" fill="white"/>
<path d="M19.5301 10.4343C19.5301 10.1125 19.269 9.85254 18.9469 9.85254C18.6274 9.85254 18.3663 10.1125 18.3663 10.4343C18.3663 10.7557 18.6274 11.0161 18.9469 11.0161C19.269 11.0161 19.5301 10.7557 19.5301 10.4343Z" fill="white"/>
<path d="M8.47633 10.4344C8.47633 10.0481 8.16283 9.73633 7.77913 9.73633C7.39333 9.73633 7.07983 10.0481 7.07983 10.4344C7.07983 10.82 7.39333 11.1325 7.77913 11.1325C8.16283 11.1325 8.47633 10.82 8.47633 10.4344Z" fill="white"/>
<path d="M16.8543 10.4344C16.8543 10.0481 16.5411 9.73633 16.1548 9.73633C15.7713 9.73633 15.4579 10.0481 15.4579 10.4344C15.4579 10.82 15.7713 11.1325 16.1548 11.1325C16.5411 11.1325 16.8543 10.82 16.8543 10.4344Z" fill="white"/>
<path d="M5.56752 13.2268C5.56752 12.9063 5.30662 12.6455 4.98662 12.6455C4.66552 12.6455 4.40442 12.9063 4.40442 13.2268C4.40442 13.5481 4.66552 13.809 4.98662 13.809C5.30662 13.809 5.56752 13.5481 5.56752 13.2268Z" fill="white"/>
<path d="M5.56787 10.4343C5.56787 10.1125 5.30677 9.85254 4.98687 9.85254C4.66527 9.85254 4.40417 10.1125 4.40417 10.4343C4.40417 10.7557 4.66527 11.0161 4.98687 11.0161C5.30677 11.0161 5.56787 10.7557 5.56787 10.4343Z" fill="white"/>
<path d="M8.47578 13.2255C8.47578 12.8411 8.16258 12.5283 7.77888 12.5283C7.39348 12.5283 7.08008 12.8411 7.08008 13.2255C7.08008 13.6118 7.39348 13.9246 7.77888 13.9246C8.16258 13.9246 8.47578 13.6118 8.47578 13.2255Z" fill="white"/>
<path d="M8.35951 16.0178C8.35951 15.6974 8.09861 15.4365 7.77861 15.4365C7.45751 15.4365 7.19641 15.6974 7.19641 16.0178C7.19641 16.3396 7.45751 16.6 7.77861 16.6C8.09861 16.6 8.35951 16.3396 8.35951 16.0178Z" fill="white"/>
<path d="M16.8542 13.2255C16.8542 12.8411 16.5407 12.5283 16.1549 12.5283C15.7716 12.5283 15.4584 12.8411 15.4584 13.2255C15.4584 13.6118 15.7716 13.9246 16.1549 13.9246C16.5407 13.9246 16.8542 13.6118 16.8542 13.2255Z" fill="white"/>
<path d="M16.7378 16.0178C16.7378 15.6974 16.4767 15.4365 16.1551 15.4365C15.8356 15.4365 15.5748 15.6974 15.5748 16.0178C15.5748 16.3396 15.8356 16.6 16.1551 16.6C16.4767 16.6 16.7378 16.3396 16.7378 16.0178Z" fill="white"/>
<path d="M19.5298 13.2268C19.5298 12.9063 19.2687 12.6455 18.9469 12.6455C18.6276 12.6455 18.3668 12.9063 18.3668 13.2268C18.3668 13.5481 18.6276 13.809 18.9469 13.809C19.2687 13.809 19.5298 13.5481 19.5298 13.2268Z" fill="white"/>
<path fill-rule="evenodd" clip-rule="evenodd" d="M5.45289 16.0181C5.45289 15.7617 5.24299 15.5527 4.98659 15.5527C4.72919 15.5527 4.51929 15.7617 4.51929 16.0181C4.51929 16.2762 4.72919 16.4835 4.98659 16.4835C5.24299 16.4835 5.45289 16.2762 5.45289 16.0181Z" fill="white"/>
<path fill-rule="evenodd" clip-rule="evenodd" d="M19.4148 16.0181C19.4148 15.7617 19.2049 15.5527 18.9466 15.5527C18.6914 15.5527 18.4812 15.7617 18.4812 16.0181C18.4812 16.2762 18.6914 16.4835 18.9466 16.4835C19.2049 16.4835 19.4148 16.2762 19.4148 16.0181Z" fill="white"/>
<path d="M8.2433 18.5778C8.2433 18.3214 8.0346 18.1133 7.7786 18.1133C7.5217 18.1133 7.3125 18.3214 7.3125 18.5778C7.3125 18.8349 7.5217 19.0441 7.7786 19.0441C8.0346 19.0441 8.2433 18.8349 8.2433 18.5778Z" fill="white"/>
<path fill-rule="evenodd" clip-rule="evenodd" d="M11.1519 18.5779C11.1519 18.2579 10.8927 17.9971 10.5709 17.9971C10.2488 17.9971 9.98816 18.2579 9.98816 18.5779C9.98816 18.8997 10.2488 19.1606 10.5709 19.1606C10.8927 19.1606 11.1519 18.8997 11.1519 18.5779Z" fill="white"/>
<path d="M13.946 18.5779C13.946 18.2579 13.6849 17.9971 13.3631 17.9971C13.0415 17.9971 12.7823 18.2579 12.7823 18.5779C12.7823 18.8997 13.0415 19.1606 13.3631 19.1606C13.6849 19.1606 13.946 18.8997 13.946 18.5779Z" fill="white"/>
<path fill-rule="evenodd" clip-rule="evenodd" d="M16.6196 18.5778C16.6196 18.3214 16.4123 18.1133 16.1549 18.1133C15.8996 18.1133 15.6907 18.3214 15.6907 18.5778C15.6907 18.8349 15.8996 19.0441 16.1549 19.0441C16.4123 19.0441 16.6196 18.8349 16.6196 18.5778Z" fill="white"/>
<path d="M13.5287 9.7604C13.5287 10.6229 12.828 11.3228 11.9664 11.3228C11.1057 11.3228 10.4056 10.6229 10.4056 9.7604C10.4056 8.898 11.1057 8.2002 11.9664 8.2002C12.828 8.2002 13.5287 8.898 13.5287 9.7604Z" fill="white"/>
<path d="M14.258 15.0223C14.386 15.0223 14.4907 14.9176 14.4907 14.7896V14.3018C14.4907 13.173 13.3598 12.123 11.9668 12.123C10.5748 12.123 9.4436 13.173 9.4436 14.3018V14.7896C9.4436 14.9176 9.5481 15.0223 9.6763 15.0223H14.258Z" fill="white"/>
</svg>
