<svg width="24" height="24" viewBox="0 0 24 24" fill="none" xmlns="http://www.w3.org/2000/svg">
<path d="M17.4531 19.1422C16.409 19.1422 15.4264 18.8352 14.5667 18.2518C12.6321 16.9314 11.5881 14.5977 11.7109 12.0183C11.7109 11.8034 11.9259 11.6191 12.1408 11.6191C12.3558 11.6191 12.54 11.8341 12.54 12.049C12.4172 14.352 13.3383 16.4094 15.0272 17.5762C15.7642 18.0675 16.624 18.3439 17.5145 18.3132C17.7294 18.3132 17.9444 18.4974 17.9444 18.7124C17.9444 18.9273 17.7601 19.1422 17.5452 19.1422C17.5145 19.1422 17.4837 19.1422 17.4531 19.1422Z" fill="white"/>
<path d="M8.51739 20.4005C8.42529 20.4005 8.30247 20.3698 8.24103 20.2776C7.78047 19.8477 7.41195 19.3257 7.10493 18.773C5.93805 16.5008 5.47743 13.8906 5.81523 11.2499C5.81523 11.1578 5.84595 11.0657 5.84595 10.9736C5.87661 10.7586 6.09159 10.605 6.33723 10.6358C6.55221 10.6665 6.70569 10.8814 6.67503 11.127C6.67503 11.2192 6.64431 11.2806 6.64431 11.3727C6.33723 13.86 6.76713 16.2858 7.87257 18.4046C8.11821 18.8958 8.45601 19.3257 8.85519 19.6942C9.00873 19.8477 9.03945 20.1241 8.85519 20.2776C8.73237 20.3698 8.64021 20.4005 8.51739 20.4005Z" fill="white"/>
<path d="M17.9444 13.8608C17.9137 13.8608 17.883 13.8608 17.8523 13.8608C17.6373 13.7994 17.4838 13.5845 17.5452 13.3695C18.1594 10.8515 16.9004 8.2108 14.5667 7.07464C12.233 5.93848 9.37726 6.61402 7.78054 8.64064C7.627 8.8249 7.38136 8.85562 7.1971 8.70208C7.01284 8.54854 6.98212 8.3029 7.13566 8.11864C8.97808 5.78494 12.2637 5.0173 14.9352 6.30694C17.6067 7.59664 19.0499 10.6673 18.3436 13.5537C18.2822 13.738 18.1287 13.8608 17.9444 13.8608Z" fill="white"/>
<path d="M13.9218 21.1996C13.8911 21.1996 13.8297 21.1996 13.799 21.1689C13.0006 20.8926 12.2636 20.4627 11.6495 19.8792C9.50004 17.8219 8.42532 14.8126 8.76312 11.6191C8.88594 10.698 9.31584 9.89955 10.0528 9.34683C10.7897 8.79411 11.6495 8.54847 12.5707 8.64057C14.4438 8.85555 15.7642 10.5751 15.5186 12.4175C15.3036 14.1064 16.1327 15.3961 17.6066 15.6417C18.2207 15.7645 18.8656 15.5803 19.4183 15.1811C20.0939 14.6898 20.5237 13.9221 20.6466 13.0317C21.1686 8.39493 17.8216 4.15743 13.2155 3.60471C8.57886 3.05199 4.31064 6.33759 3.69648 10.9743C3.48156 12.3561 3.51228 13.7379 3.69648 15.089C3.75792 15.3961 3.8193 15.7031 3.94212 16.0102L3.97284 16.0716C4.065 16.2865 3.94212 16.5322 3.7272 16.5936C3.51228 16.6857 3.26658 16.5629 3.2052 16.348L3.17448 16.3173C3.02094 15.9488 2.92884 15.5803 2.8674 15.2118C2.65248 13.7993 2.65248 12.3254 2.83668 10.9129C3.51228 5.81559 8.17968 2.19219 13.277 2.83701C18.3436 3.45117 21.9977 8.11857 21.445 13.1852C21.3221 14.2906 20.7387 15.2732 19.9096 15.8874C19.1726 16.4401 18.3128 16.655 17.4531 16.5015C15.58 16.1944 14.4438 14.5056 14.6895 12.3561C14.8737 10.9436 13.8604 9.65391 12.4479 9.50037C11.7724 9.40827 11.0968 9.59253 10.5441 10.0224C9.99138 10.4523 9.65358 11.0664 9.56148 11.742C9.2544 14.6591 10.2063 17.4227 12.2023 19.2958C12.7243 19.7871 13.3384 20.1556 14.0446 20.4012C14.2596 20.4627 14.3824 20.7083 14.2903 20.9233C14.2289 21.0768 14.0753 21.1996 13.9218 21.1996Z" fill="white"/>
</svg>
