<svg width="24" height="24" viewBox="0 0 24 24" fill="none" xmlns="http://www.w3.org/2000/svg">
<path fill-rule="evenodd" clip-rule="evenodd" d="M9.30005 10.3496C9.30005 10.7638 8.96423 11.0996 8.55005 11.0996C8.13578 11.0996 7.80005 10.7638 7.80005 10.3496C7.80005 9.93543 8.13578 9.59961 8.55005 9.59961C8.96423 9.59961 9.30005 9.93543 9.30005 10.3496Z" fill="white"/>
<path fill-rule="evenodd" clip-rule="evenodd" d="M16.5 10.3496C16.5 10.7638 16.1642 11.0996 15.75 11.0996C15.3357 11.0996 15 10.7638 15 10.3496C15 9.93543 15.3357 9.59961 15.75 9.59961C16.1642 9.59961 16.5 9.93543 16.5 10.3496Z" fill="white"/>
<path fill-rule="evenodd" clip-rule="evenodd" d="M12.2551 13.1998C12.0479 13.1998 11.88 13.0178 11.88 12.7931V9.7066C11.88 9.48193 12.0479 9.2998 12.2551 9.2998C12.4622 9.2998 12.63 9.48193 12.63 9.7066V12.7931C12.63 13.0178 12.4622 13.1998 12.2551 13.1998Z" fill="white"/>
<path fill-rule="evenodd" clip-rule="evenodd" d="M9.73528 15.386C10.3705 16.0392 11.2347 16.4145 12.1499 16.4145C13.0652 16.4145 13.9294 16.0392 14.5647 15.386H9.73528ZM12.1499 17.1002C10.7864 17.1002 9.51775 16.4028 8.75647 15.2342C8.68801 15.1291 8.6812 14.9936 8.73901 14.8818C8.79691 14.77 8.90965 14.7002 9.03259 14.7002H15.2674C15.3903 14.7002 15.5031 14.77 15.5609 14.8818C15.6187 14.9936 15.6119 15.1291 15.5435 15.2342C14.7822 16.4028 13.5136 17.1002 12.1499 17.1002Z" fill="white"/>
<path fill-rule="evenodd" clip-rule="evenodd" d="M12.1347 2.64612C7.05093 2.64612 2.91505 6.78192 2.91505 11.8657C2.91505 16.9494 7.05093 21.0853 12.1347 21.0853C17.2184 21.0853 21.3542 16.9494 21.3542 11.8657C21.3542 6.78192 17.2184 2.64612 12.1347 2.64612ZM12.1347 21.9004C6.60147 21.9004 2.09998 17.3988 2.09998 11.8657C2.09998 6.33246 6.60147 1.83105 12.1347 1.83105C17.6678 1.83105 22.1693 6.33246 22.1693 11.8657C22.1693 17.3988 17.6678 21.9004 12.1347 21.9004Z" fill="white"/>
</svg>
