<svg width="24" height="24" viewBox="0 0 24 24" fill="none" xmlns="http://www.w3.org/2000/svg">
<path fill-rule="evenodd" clip-rule="evenodd" d="M9.3 16.8C10.2 17.3 10.9 17.8 12.1 17.8H12.5C13.3 17.7 14 17.3 14.7 16.9C15.6 16.4 16.6 15.8 18 15.8C18.7 15.8 19.3 15.9 20 16.2V15.5C20 14.4 19.1 13.5 18 13.5H6C4.9 13.5 4 14.4 4 15.5V16.1C4.7 15.8 5.4 15.8 6 15.8C7.4 15.7 8.4 16.3 9.3 16.8Z" fill="white"/>
<path fill-rule="evenodd" clip-rule="evenodd" d="M15.4 18.2002C14.6 18.7002 13.7 19.2002 12.5 19.3002H12C10.4 19.3002 9.4 18.7002 8.5 18.1002C7.7 17.6002 7 17.2002 6 17.2002C5.4 17.2002 4.7 17.3002 4 17.7002V21.4002H20V17.8002C19.2 17.4002 18.5 17.3002 18 17.3002C16.9 17.3002 16.2 17.7002 15.4 18.2002Z" fill="white"/>
<path d="M12 10V14.9" stroke="white" stroke-width="2.5" stroke-linecap="round" stroke-linejoin="round"/>
<path d="M12 2C14.1 4 14 5.3 14 5.3C14 6.3 13.2 7.3 12 7.3C10.8 7.3 10 6.3 10 5.3C10 5.3 9.90002 4 12 2Z" fill="white"/>
</svg>
