<svg width="24" height="24" viewBox="0 0 24 24" fill="none" xmlns="http://www.w3.org/2000/svg">
<path fill-rule="evenodd" clip-rule="evenodd" d="M20 11.966C20 16.347 16.365 19.997 11.918 20C11.359 19.992 8.584 19.897 6.322 17.65C4.058 15.401 4.01 12.632 4 12.069V4.375C4 4.168 4.168 4 4.375 4H10.539C10.746 4 10.914 4.168 10.914 4.375V14.055C10.914 15.905 12.518 17.382 14.411 17.173C15.847 17.015 17.012 15.85 17.173 14.411C17.381 12.518 15.905 10.917 14.052 10.917H13.323C13.116 10.917 12.948 10.749 12.948 10.542V4.439C12.948 4.202 13.164 4.026 13.397 4.07C17.153 4.774 20 8.09 20 11.966Z" stroke="white" stroke-width="1.5" stroke-linecap="round" stroke-linejoin="round"/>
</svg>
