<svg width="24" height="24" viewBox="0 0 24 24" fill="none" xmlns="http://www.w3.org/2000/svg">
<path d="M10.743 20.5H7C5.619 20.5 4.5 19.381 4.5 18V6C4.5 4.619 5.619 3.5 7 3.5H14C15.381 3.5 16.5 4.619 16.5 6V9.183M13.6451 13.9756L19.2741 18.2286C19.5411 18.4046 19.5771 18.6266 19.3501 18.8326L17.4241 20.2466C17.0941 20.4886 16.6281 20.2526 16.6281 19.8426V12.6886C16.6281 12.2796 17.0941 12.0436 17.4241 12.2866L19.2731 13.6426C19.5041 13.8036 19.4971 14.1106 19.3271 14.2626L13.6451 18.5556M8.8678 17.2647H10.7428" stroke="white" stroke-width="1.5" stroke-linecap="round" stroke-linejoin="round"/>
</svg>
