<svg width="24" height="24" viewBox="0 0 24 24" fill="none" xmlns="http://www.w3.org/2000/svg">
<path fill-rule="evenodd" clip-rule="evenodd" d="M12.6142 19.2239C12.5982 19.2349 12.5512 19.2709 12.4792 19.2349C12.4092 19.1989 12.4092 19.1389 12.4092 19.1199V13.4369L16.3402 16.4079C16.3522 16.4169 16.3662 16.4269 16.3812 16.4359C16.3862 16.4399 16.3922 16.4439 16.3972 16.4479L12.6142 19.2239ZM12.4092 4.88095C12.4092 4.86095 12.4092 4.80095 12.4792 4.76595C12.5022 4.75395 12.5222 4.74995 12.5402 4.74995C12.5782 4.74995 12.6032 4.76895 12.6142 4.77695L16.3582 7.52395C16.3682 7.53095 16.3872 7.54395 16.3922 7.55295L12.4092 10.5629V4.88095ZM17.9752 16.3419C17.9512 16.0319 17.8012 15.5819 17.2252 15.1969L12.9952 11.9999L17.3462 8.71195C17.3642 8.69995 17.3812 8.68595 17.3962 8.67095C17.7272 8.37295 17.9092 7.92195 17.8812 7.46595C17.8522 6.99695 17.6122 6.57195 17.2332 6.30495L13.5022 3.56795C13.0042 3.20295 12.3522 3.14895 11.8022 3.42795C11.2512 3.70595 10.9092 4.26295 10.9092 4.88095V10.4239L6.3232 6.95795C5.9922 6.70895 5.5222 6.77495 5.2722 7.10495C5.0222 7.43595 5.0882 7.90595 5.4192 8.15595L10.5072 11.9999L5.4192 15.8449C5.0882 16.0949 5.0222 16.5649 5.2722 16.8959C5.5222 17.2259 5.9922 17.2909 6.3232 17.0409L10.9092 13.5769V19.1199C10.9092 19.7369 11.2512 20.2929 11.8022 20.5729C12.0362 20.6919 12.2882 20.7499 12.5392 20.7499C12.8792 20.7499 13.2162 20.6429 13.5022 20.4329L17.3832 17.5859C17.4032 17.5709 17.4242 17.5539 17.4422 17.5369C17.9262 17.0979 17.9992 16.6449 17.9752 16.3419Z" fill="white"/>
</svg>
