<svg width="24" height="24" viewBox="0 0 24 24" fill="none" xmlns="http://www.w3.org/2000/svg">
<path d="M7.05929 6.5944L8.82109 8.3587L9.88209 9.4187L14.5447 14.081L13.3593 13.186V18.869C13.3593 18.888 13.3593 18.948 13.4293 18.984C13.4833 19.011 13.5233 18.9975 13.5466 18.9844L13.5643 18.973L16.9497 16.487L18.0237 17.561L14.4523 20.182C14.214 20.357 13.9403 20.4604 13.6589 20.4901L13.4893 20.499C13.2383 20.499 12.9863 20.441 12.7523 20.322C12.2473 20.0653 11.9178 19.5767 11.8664 19.0218L11.8593 18.869V13.326L7.27329 16.79C6.94229 17.04 6.47229 16.975 6.22229 16.645C5.99509 16.3441 6.02889 15.9283 6.28569 15.6673L6.36929 15.594L11.4573 11.749L6.36929 7.905C6.03829 7.655 5.97229 7.185 6.22229 6.854C6.42199 6.5904 6.76189 6.4953 7.05929 6.5944ZM14.3248 3.2322L14.4523 3.317L18.1833 6.054C18.5623 6.321 18.8023 6.746 18.8313 7.215C18.8593 7.671 18.6773 8.122 18.3463 8.42L18.3225 8.4416L18.2963 8.461L14.1607 11.585L11.8587 9.282L11.8593 4.63C11.8593 4.0635 12.1467 3.5482 12.619 3.2522L12.7523 3.177C13.2565 2.9212 13.8464 2.9453 14.3248 3.2322ZM13.4903 4.499C13.4723 4.499 13.4523 4.503 13.4293 4.515C13.3768 4.5412 13.3637 4.5815 13.3604 4.6085L13.3593 4.63V10.312L17.3423 7.302L17.3272 7.2867L17.3083 7.273L13.5643 4.526C13.5533 4.518 13.5283 4.499 13.4903 4.499ZM4.73179 4.2601C4.43769 4.0111 3.99779 4.0231 3.71969 4.3001C3.42669 4.5931 3.42669 5.0681 3.71969 5.3611L7.79969 9.4411L8.86079 10.5011L19.1307 20.7721C19.2778 20.9181 19.4697 20.9911 19.6618 20.9911C19.8538 20.9911 20.0448 20.9181 20.1917 20.7721C20.4697 20.4941 20.4807 20.0551 20.2318 19.7601L4.73179 4.2601Z" fill="white"/>
<path d="M4.73179 4.25976C4.43769 4.01076 3.99779 4.02276 3.71969 4.29976C3.42669 4.59276 3.42669 5.06776 3.71969 5.36076L7.79969 9.44076L8.86079 10.5008L19.1307 20.7718C19.2778 20.9178 19.4697 20.9908 19.6618 20.9908C19.8538 20.9908 20.0448 20.9178 20.1917 20.7718C20.4697 20.4938 20.4807 20.0548 20.2318 19.7598L4.73179 4.25976Z" fill="white"/>
</svg>
