<svg width="24" height="24" viewBox="0 0 24 24" fill="none" xmlns="http://www.w3.org/2000/svg">
<path d="M16.598 16.4727L13.841 18.5557" stroke="white" stroke-width="1.5" stroke-linecap="round" stroke-linejoin="round"/>
<path d="M10.939 20.5H7.19601C5.81501 20.5 4.69601 19.381 4.69601 18V6C4.69601 4.619 5.81501 3.5 7.19601 3.5H14.196C15.577 3.5 16.696 4.619 16.696 6V9.183M9.06301 17.265H10.938" stroke="white" stroke-width="1.5" stroke-linecap="round" stroke-linejoin="round"/>
<path d="M13.841 13.9756L21.54 19.7656" stroke="white" stroke-width="1.5" stroke-linecap="round" stroke-linejoin="round"/>
<path d="M16.074 19.8428C16.074 20.3168 16.337 20.7438 16.76 20.9578C16.94 21.0488 17.133 21.0938 17.325 21.0938C17.586 21.0938 17.845 21.0117 18.064 20.8507L19.99 19.4368C20.323 19.1918 20.395 18.7218 20.15 18.3878C19.907 18.0548 19.436 17.9798 19.101 18.2278L17.574 19.3498V16.6758L17.942 16.3978L16.074 15.0938V19.8428Z" fill="white"/>
<path d="M17.574 13.1829L18.657 13.9769L18.137 14.3699L19.383 15.3069L20.022 14.8239C20.276 14.5979 20.416 14.2569 20.395 13.9109C20.374 13.5569 20.193 13.2349 19.913 13.0399L18.065 11.6849C17.681 11.4039 17.18 11.3619 16.76 11.5759C16.336 11.7899 16.073 12.2169 16.073 12.6909V12.8199L17.573 13.9479L17.574 13.1829Z" fill="white"/>
</svg>
