<svg width="24" height="24" viewBox="0 0 24 24" fill="none" xmlns="http://www.w3.org/2000/svg">
<path d="M15.881 9.29385L14.259 10.9799C14.211 11.0289 14.173 11.1469 14.183 11.2149L14.518 13.5949C14.535 13.7169 14.496 13.7919 14.459 13.8349C14.413 13.8879 14.347 13.9159 14.275 13.9159C14.225 13.9159 14.171 13.9019 14.118 13.8729L12.09 12.7779C12.037 12.7489 11.913 12.7479 11.86 12.7759L9.817 13.8449C9.689 13.9109 9.555 13.8929 9.478 13.8019C9.426 13.7419 9.406 13.6559 9.421 13.5609L9.788 11.1859C9.798 11.1159 9.762 10.9989 9.715 10.9479L8.116 9.24185C8.035 9.15485 8.006 9.05085 8.039 8.95485C8.071 8.85985 8.156 8.79485 8.274 8.77485L10.525 8.39785C10.591 8.38785 10.687 8.31685 10.717 8.25585L11.777 6.12785C11.831 6.01985 11.918 5.95785 12.019 5.95785C12.119 5.95785 12.208 6.02085 12.261 6.13085L13.292 8.27285C13.321 8.33485 13.416 8.40585 13.483 8.41885L15.729 8.82485C15.846 8.84585 15.931 8.91285 15.962 9.00885C15.993 9.10385 15.963 9.20785 15.881 9.29385ZM16.332 3.17285H7.667C6.263 3.17285 5.125 4.25885 5.125 5.59885V19.8249C5.125 20.6199 6.006 21.0969 6.672 20.6619L11.726 17.5249C11.892 17.4159 12.107 17.4159 12.273 17.5249L17.328 20.6619C17.993 21.0969 18.875 20.6199 18.875 19.8249V5.59885C18.875 4.25885 17.736 3.17285 16.332 3.17285Z" fill="white"/>
</svg>
