<svg width="24" height="24" viewBox="0 0 24 24" fill="none" xmlns="http://www.w3.org/2000/svg">
<path fill-rule="evenodd" clip-rule="evenodd" d="M14.5794 12.0001C14.5794 11.1721 15.2504 10.5001 16.0794 10.5001H18.3944C19.5084 10.5001 20.2344 9.32709 19.7384 8.33009C18.3094 5.45809 15.2574 3.53609 11.7814 3.76909C7.57738 4.05109 4.22039 7.55309 4.10339 11.7651C3.97339 16.4291 7.71538 20.2501 12.3504 20.2501C15.5854 20.2501 18.3844 18.3871 19.7354 15.6761C20.2334 14.6761 19.5114 13.5001 18.3944 13.5001H16.0794C15.2504 13.5001 14.5794 12.8281 14.5794 12.0001Z" stroke="white" stroke-width="1.5" stroke-linecap="round" stroke-linejoin="round"/>
<path d="M12.3965 16.125C13.0185 16.125 13.5215 16.629 13.5215 17.25C13.5215 17.871 13.0185 18.375 12.3965 18.375C11.7755 18.375 11.2715 17.871 11.2715 17.25C11.2715 16.629 11.7755 16.125 12.3965 16.125ZM8.64648 14.75C9.19848 14.75 9.64648 15.197 9.64648 15.75C9.64648 16.302 9.19848 16.75 8.64648 16.75C8.09448 16.75 7.64648 16.302 7.64648 15.75C7.64648 15.197 8.09448 14.75 8.64648 14.75ZM6.89648 10.875C7.51848 10.875 8.02148 11.379 8.02148 12C8.02148 12.621 7.51848 13.125 6.89648 13.125C6.27548 13.125 5.77148 12.621 5.77148 12C5.77148 11.379 6.27548 10.875 6.89648 10.875ZM8.64648 7.125C9.26848 7.125 9.77148 7.629 9.77148 8.25C9.77148 8.871 9.26848 9.375 8.64648 9.375C8.02548 9.375 7.52148 8.871 7.52148 8.25C7.52148 7.629 8.02548 7.125 8.64648 7.125ZM12.3965 5.625C13.0185 5.625 13.5215 6.129 13.5215 6.75C13.5215 7.371 13.0185 7.875 12.3965 7.875C11.7755 7.875 11.2715 7.371 11.2715 6.75C11.2715 6.129 11.7755 5.625 12.3965 5.625Z" fill="white"/>
</svg>
