<svg width="24" height="24" viewBox="0 0 24 24" fill="none" xmlns="http://www.w3.org/2000/svg">
<path d="M20.9995 4C22.1035 4 22.9995 4.896 22.9995 6C22.9995 7.104 22.1035 8 20.9995 8C19.8955 8 18.9995 7.104 18.9995 6C18.9995 4.896 19.8955 4 20.9995 4Z" fill="white"/>
<path d="M5.0041 11.6816C4.9861 11.2506 5.0151 10.5456 5.3441 9.7796C5.8341 8.6356 6.6941 8.0396 7.2391 7.6746C9.0471 6.4596 10.9931 6.5146 12.0471 6.5446C13.0221 6.5726 13.7111 6.7546 13.9781 6.8326C14.5561 6.9996 15.0231 7.2126 15.3581 7.3916M11.9221 9.3974H11.9011C9.6691 9.3974 8.5371 10.3084 8.5371 12.1064C8.5371 14.2924 10.3851 16.1634 11.9011 16.1634H11.9221C13.4331 16.1634 15.2811 14.2924 15.2811 12.1064C15.2811 10.3084 14.1531 9.3974 11.9221 9.3974ZM11.1218 4C11.2088 4 11.2868 4.011 11.3598 4.032C12.2578 4.294 12.7828 5.123 12.9428 5.386C14.0878 7.264 16.1388 7.09 17.3768 9.523C18.0598 10.866 18.1468 12.118 18.1588 12.651C18.2088 15.041 17.0578 17.513 15.0248 18.905C14.4968 19.268 13.4168 20.008 11.9258 20.0001C10.1208 19.991 8.8298 18.893 7.9948 18.178C6.7718 17.13 6.1458 15.998 5.9028 15.511C5.7168 15.141 4.9168 13.485 5.0118 11.203C5.1188 8.625 6.0628 6.617 7.8168 5.229C8.8288 4.431 10.2748 4 11.1218 4Z" stroke="white" stroke-width="1.5" stroke-linecap="round" stroke-linejoin="round"/>
</svg>
