<svg width="24" height="24" viewBox="0 0 24 24" fill="none" xmlns="http://www.w3.org/2000/svg">
<path d="M20.5525 12.8246C20.6415 12.5226 20.6895 12.2026 20.6895 11.8726C20.6895 10.0186 19.1865 8.5166 17.3335 8.5166C15.4805 8.5166 13.9785 10.0186 13.9785 11.8726C13.9785 12.4696 14.1345 13.0306 14.4075 13.5166M22.2322 14.6654C21.7852 14.6434 21.3942 15.0024 21.3812 15.4604C21.4702 14.9374 21.0772 14.4744 20.6132 14.4544C20.1832 14.4364 19.7742 14.8074 19.7612 15.2964C19.8482 14.7794 19.4592 14.3194 18.9952 14.3004C18.5612 14.2814 18.1532 14.6524 18.1432 15.1414V12.1834C18.1492 11.7344 17.7822 11.3624 17.3342 11.3624C16.8852 11.3624 16.5182 11.7344 16.5242 12.1834L16.5232 16.6714V17.1234L16.1702 16.7164C16.1172 16.6554 15.9282 16.4574 15.6162 16.4124C15.5252 16.3984 15.2402 16.3574 15.0072 16.5484C14.7552 16.7544 14.7542 17.0744 14.7542 17.1584C14.7532 17.4744 14.9242 17.6894 14.9762 17.7514L16.2762 19.2534C16.3692 19.3644 18.0872 21.3564 20.2612 20.9434C21.3222 20.7424 21.9902 20.0634 22.0692 19.9804C22.9972 19.0144 23.0042 17.8014 22.9992 17.5304V15.5064C23.0132 15.0624 22.6652 14.6874 22.2322 14.6654Z" stroke="white" stroke-width="1.25" stroke-linecap="round" stroke-linejoin="round"/>
<path d="M14.7551 9.3932C14.2181 8.7312 13.2731 8.3972 11.9221 8.3972H11.9001C9.66911 8.3972 8.53711 9.3092 8.53711 11.1062C8.53711 13.2912 10.3851 15.1632 11.9001 15.1632H11.9221C12.7471 15.1632 13.6721 14.6052 14.3421 13.7432M5.0041 10.6813C4.9861 10.2503 5.01511 9.5453 5.34311 8.7793C5.84211 7.6143 6.72911 7.0113 7.23911 6.6743C8.93711 5.5523 10.7121 5.5433 11.8031 5.5443C12.9081 5.5453 13.6621 5.7413 13.9771 5.8313C14.5621 6.0013 15.0291 6.2163 15.3581 6.3913M14.9035 17.988C14.3375 18.37 13.3115 19.004 11.9255 19C10.1255 18.996 8.86151 17.92 7.99451 17.177C6.77151 16.13 6.14551 14.998 5.90251 14.51C5.71651 14.14 4.91651 12.485 5.01151 10.203C5.11851 7.625 6.06351 5.617 7.81751 4.228C8.82851 3.43 10.2745 3 11.1215 3C11.2085 3 11.2865 3.01 11.3605 3.032C12.2575 3.294 12.7825 4.123 12.9425 4.385C14.0875 6.263 16.1385 6.09 17.3775 8.523" stroke="white" stroke-width="1.5" stroke-linecap="round" stroke-linejoin="round"/>
</svg>
