<svg width="24" height="24" viewBox="0 0 24 24" fill="none" xmlns="http://www.w3.org/2000/svg">
<path d="M23.2501 18.2523H20.9771C20.8381 18.2523 20.7271 18.1413 20.7271 18.0023V16.6533C20.7271 16.5153 20.8381 16.4033 20.9771 16.4033H23.2501C23.3881 16.4033 23.5001 16.5153 23.5001 16.6533V18.0023C23.5001 18.1413 23.3881 18.2523 23.2501 18.2523ZM16.274 19.1742H14C13.862 19.1742 13.75 19.0622 13.75 18.9242V17.5742C13.75 17.4372 13.862 17.3242 14 17.3242H16.274C16.412 17.3242 16.524 17.4372 16.524 17.5742V18.9242C16.524 19.0622 16.412 19.1742 16.274 19.1742ZM19.7618 15.4223H17.4888C17.3498 15.4223 17.2388 15.3103 17.2388 15.1723V13.8223C17.2388 13.6853 17.3498 13.5723 17.4888 13.5723H19.7618C19.8998 13.5723 20.0118 13.6853 20.0118 13.8223V15.1723C20.0118 15.3103 19.8998 15.4223 19.7618 15.4223Z" fill="white"/>
<path d="M14.3063 9.9585C13.7803 9.2525 12.8163 8.8965 11.4223 8.8965H11.4003C9.16925 8.8965 8.03725 9.8085 8.03725 11.6045C8.03725 13.7905 9.88625 15.6615 11.4003 15.6615H11.4223M4.50405 11.1811C4.48605 10.7491 4.51605 10.0451 4.84405 9.2791C5.33405 8.1341 6.19505 7.5391 6.73905 7.1731C8.54705 5.9591 10.4931 6.0141 11.5481 6.0441C12.5231 6.0721 13.2111 6.2541 13.4781 6.3311C14.0571 6.4991 14.5231 6.7121 14.8591 6.8901M11.0309 19.48C9.43085 19.329 8.26785 18.338 7.49485 17.676C6.27185 16.629 5.64585 15.497 5.40285 15.01C5.21785 14.639 4.41685 12.984 4.51185 10.703C4.61885 8.125 5.56385 6.116 7.31785 4.728C8.32785 3.929 9.77485 3.5 10.6219 3.5C10.7089 3.5 10.7869 3.509 10.8609 3.531C11.7579 3.793 12.2829 4.622 12.4429 4.884C13.5879 6.763 15.6389 6.588 16.8779 9.023C16.9529 9.17 17.0209 9.317 17.0819 9.461M22.1134 12.5288V20.4998M18.6252 20.4995V12.5285M15.1369 20.4995V12.5285" stroke="white" stroke-width="1.5" stroke-linecap="round" stroke-linejoin="round"/>
</svg>
