<svg width="24" height="24" viewBox="0 0 24 24" fill="none" xmlns="http://www.w3.org/2000/svg">
<path d="M17.152 15.7337H16.554V15.1367C16.554 14.9287 16.387 14.7617 16.179 14.7617C15.972 14.7617 15.804 14.9287 15.804 15.1367V15.7337H15.207C15 15.7337 14.832 15.9017 14.832 16.1087C14.832 16.3167 15 16.4837 15.207 16.4837H15.804V17.0817C15.804 17.2887 15.972 17.4567 16.179 17.4567C16.387 17.4567 16.554 17.2887 16.554 17.0817V16.4837H17.152C17.359 16.4837 17.527 16.3167 17.527 16.1087C17.527 15.9017 17.359 15.7337 17.152 15.7337ZM20.6778 16.888C20.6778 17.187 20.4348 17.43 20.1358 17.43C19.8358 17.43 19.5928 17.187 19.5928 16.888C19.5928 16.588 19.8358 16.345 20.1358 16.345C20.4348 16.345 20.6778 16.588 20.6778 16.888ZM19.4557 15.5618C19.4557 15.8618 19.2127 16.1048 18.9137 16.1048C18.6137 16.1048 18.3707 15.8618 18.3707 15.5618C18.3707 15.2628 18.6137 15.0198 18.9137 15.0198C19.2127 15.0198 19.4557 15.2628 19.4557 15.5618Z" fill="white"/>
<path d="M16.0183 13.2839C16.1853 12.8369 16.2813 12.3539 16.2813 11.8559C16.2813 10.0579 15.1533 9.1459 12.9223 9.1459H12.9003C10.6683 9.1459 9.5373 10.0579 9.5373 11.8559C9.5373 14.0419 11.3853 15.9119 12.9003 15.9119H12.9223C13.0893 15.9119 13.2613 15.8889 13.4343 15.8459M6.0041 11.4313C5.9861 10.9993 6.0151 10.2953 6.3441 9.5293C6.8341 8.3853 7.6941 7.7893 8.2391 7.4243C10.0471 6.2093 11.9931 6.2643 13.0471 6.2943C14.0221 6.3223 14.7111 6.5043 14.9781 6.5813C15.5561 6.7493 16.0231 6.9623 16.3581 7.1403M13.6369 19.696C13.4119 19.731 13.1749 19.751 12.9259 19.75C11.1209 19.741 9.8299 18.642 8.9949 17.926C7.7719 16.88 7.1459 15.747 6.9029 15.26C6.7169 14.89 5.9169 13.235 6.0119 10.953C6.1189 8.375 7.0629 6.366 8.8169 4.978C9.8279 4.18 11.2749 3.75 12.1219 3.75C12.2089 3.75 12.2869 3.759 12.3599 3.781C13.2579 4.044 13.7829 4.872 13.9429 5.135C15.0879 7.013 17.1389 6.839 18.3769 9.273C19.0599 10.616 19.1469 11.868 19.1579 12.401C19.1649 12.7 19.1519 13 19.1219 13.299M22.0002 16.3923C22.0002 14.7943 20.7052 13.4993 19.1072 13.4993H16.5292C14.9322 13.4993 13.6372 14.7943 13.6372 16.3923V19.1233C13.6372 19.8193 14.2232 20.2493 14.7672 20.2493C15.0492 20.2493 15.3202 20.1403 15.5302 19.9433L16.7742 18.7753C16.8202 18.7323 16.8812 18.7073 16.9452 18.7073H18.6912C18.7542 18.7073 18.8152 18.7323 18.8622 18.7753L20.1052 19.9433C20.1852 20.0153 20.4622 20.2473 20.8692 20.2493C21.3212 20.2513 21.7252 19.9683 21.8982 19.5973C21.9622 19.4573 22.0002 19.2993 22.0002 19.1233V16.3923Z" stroke="white" stroke-width="1.5" stroke-linecap="round" stroke-linejoin="round"/>
</svg>
