<svg width="24" height="24" viewBox="0 0 24 24" fill="none" xmlns="http://www.w3.org/2000/svg">
<g clip-path="url(#clip0_1074_12314)">
<path d="M14.5031 11.6439C14.3191 10.1529 13.2021 9.3969 11.1711 9.3969H11.1501C8.9181 9.3969 7.78711 10.3089 7.78711 12.1059C7.78711 14.0769 9.29011 15.7909 10.6951 16.1099M4.2541 11.682C4.2361 11.25 4.26511 10.545 4.59311 9.78C5.08311 8.635 5.94411 8.04 6.48911 7.675C8.29711 6.46 10.2431 6.515 11.2971 6.545C12.2711 6.573 12.9581 6.755 13.2251 6.832C13.8041 6.999 14.2711 7.213 14.6081 7.391M12.2624 19.846C11.9274 19.931 11.5574 19.992 11.1754 19.999C9.41541 20.036 8.11941 18.926 7.24441 18.177C6.02141 17.129 5.39541 15.997 5.15241 15.51C4.96741 15.14 4.16641 13.485 4.26141 11.202C4.36841 8.625 5.31341 6.617 7.06741 5.229C8.07741 4.431 9.52441 4 10.3714 4C10.4584 4 10.5364 4.011 10.6094 4.033C11.5074 4.294 12.0324 5.122 12.1924 5.386C13.3374 7.264 15.3884 7.089 16.6264 9.524C16.7414 9.747 16.8384 9.976 16.9224 10.201M23.7502 16.8568H21.3992C21.2832 16.8568 21.1822 16.7768 21.1562 16.6638L20.6692 14.5498C20.6402 14.4238 20.4622 14.4188 20.4272 14.5438L18.9102 19.9098C18.8742 20.0358 18.6932 20.0288 18.6672 19.8998L17.3442 13.3258C17.3182 13.1948 17.1342 13.1898 17.1012 13.3188L16.2372 16.6908C16.2082 16.8018 16.1082 16.8788 15.9952 16.8788H13.8472" stroke="white" stroke-width="1.5" stroke-linecap="round" stroke-linejoin="round"/>
</g>
<defs>
<clipPath id="clip0_1074_12314">
<rect width="24" height="24" fill="white"/>
</clipPath>
</defs>
</svg>
