<svg width="24" height="24" viewBox="0 0 24 24" fill="none" xmlns="http://www.w3.org/2000/svg">
<path fill-rule="evenodd" clip-rule="evenodd" d="M13.0658 4.17753C12.0698 4.03953 10.7758 4.22553 9.90876 4.66853C9.07676 5.09453 7.83476 6.32753 7.56176 8.33253C7.17776 7.65653 7.02476 6.88153 7.13576 6.10353C7.38976 4.32153 8.94776 3.03053 10.7278 3.03053C10.8958 3.03053 11.0658 3.04153 11.2368 3.06553C12.1088 3.18653 12.8868 3.60453 13.4598 4.24953C13.3298 4.22053 13.1988 4.19653 13.0658 4.17753ZM15.7408 5.37453C15.5788 4.72453 15.2868 4.10653 14.8698 3.55353C14.0398 2.45153 12.8238 1.73953 11.4478 1.54953C8.63176 1.16053 6.01676 3.10553 5.62076 5.88753C5.42976 7.22553 5.77476 8.55953 6.59076 9.64353C6.91476 10.0725 7.29676 10.4405 7.72376 10.7425C7.77876 10.9355 7.84176 11.1195 7.91876 11.2835C7.98776 11.4315 8.04476 11.5845 8.11976 11.7305C8.34576 12.1675 8.63776 12.9785 8.52876 13.7425C8.43476 14.3995 8.22376 14.9495 7.95476 15.3305C7.55076 15.9025 7.27676 16.5765 7.17176 17.3115C6.83476 19.6765 8.00276 22.0065 10.7288 22.4605C15.2628 22.9275 17.5848 19.1445 18.2828 14.2495C18.8478 10.2855 17.7528 7.05253 15.7408 5.37453Z" fill="white"/>
</svg>
