<svg width="24" height="24" viewBox="0 0 24 24" fill="none" xmlns="http://www.w3.org/2000/svg">
<path d="M17.2718 18.0875C17.0648 18.0875 16.8968 17.9195 16.8968 17.7125V14.1045C16.8968 13.8975 17.0648 13.7295 17.2718 13.7295C17.4798 13.7295 17.6468 13.8975 17.6468 14.1045V17.7125C17.6468 17.9195 17.4798 18.0875 17.2718 18.0875ZM15.951 17.2301C15.744 17.2301 15.576 17.0621 15.576 16.8551V14.9611C15.576 14.7541 15.744 14.5861 15.951 14.5861C16.158 14.5861 16.326 14.7541 16.326 14.9611V16.8551C16.326 17.0621 16.158 17.2301 15.951 17.2301ZM19.9139 16.6344C19.7069 16.6344 19.5389 16.4664 19.5389 16.2594V15.5564C19.5389 15.3494 19.7069 15.1814 19.9139 15.1814C20.1219 15.1814 20.2889 15.3494 20.2889 15.5564V16.2594C20.2889 16.4664 20.1219 16.6344 19.9139 16.6344ZM18.5935 17.2301C18.3865 17.2301 18.2185 17.0621 18.2185 16.8551V14.9611C18.2185 14.7541 18.3865 14.5861 18.5935 14.5861C18.8005 14.5861 18.9685 14.7541 18.9685 14.9611V16.8551C18.9685 17.0621 18.8005 17.2301 18.5935 17.2301ZM14.6311 16.6344C14.4231 16.6344 14.2561 16.4664 14.2561 16.2594V15.5564C14.2561 15.3494 14.4231 15.1814 14.6311 15.1814C14.8381 15.1814 15.0061 15.3494 15.0061 15.5564V16.2594C15.0061 16.4664 14.8381 16.6344 14.6311 16.6344Z" fill="white"/>
<path d="M13.0446 17.3306C12.4336 17.5246 11.7826 17.6286 11.1056 17.6136C10.7886 17.6076 7.9346 17.5016 6.3146 15.1866C5.1596 13.5366 5.3156 11.7416 5.3836 10.9556C5.6266 8.14464 7.5166 4.43764 10.8766 3.83364C13.2706 3.40364 15.2136 4.76464 15.4086 4.90364C16.9076 5.98664 17.4516 7.44964 17.6496 8.05464C18.0106 9.15264 18.1066 10.3396 17.9426 11.4736M10.342 17.563C9.51 18.292 8.42 18.735 7.227 18.735C4.616 18.735 2.5 16.619 2.5 14.007C2.5 11.959 3.802 10.215 5.624 9.55904M10.9216 14.4458L12.8436 13.9558M13.0446 12.0464C13.0446 11.9074 13.1566 11.7964 13.2946 11.7964H17.3636C19.6566 11.8464 21.4996 13.7194 21.4996 16.0234C21.4996 18.3504 19.6196 20.2374 17.2956 20.2504H17.2486C17.2456 20.2494 17.2426 20.2494 17.2396 20.2494C14.9446 20.2334 13.1016 18.3594 13.0456 16.0754L13.0446 12.0464Z" stroke="white" stroke-width="1.5" stroke-linecap="round" stroke-linejoin="round"/>
</svg>
