<svg width="24" height="24" viewBox="0 0 24 24" fill="none" xmlns="http://www.w3.org/2000/svg">
<path d="M19.5518 11.8246C19.6408 11.5226 19.6888 11.2036 19.6888 10.8726C19.6888 9.1896 18.4498 7.7966 16.8348 7.5536C16.6718 7.5296 16.5038 7.5166 16.3328 7.5166C14.4798 7.5166 12.9778 9.0186 12.9778 10.8726C12.9778 11.4706 13.1338 12.0306 13.4068 12.5166M21.2315 13.6664C20.7855 13.6434 20.3945 14.0024 20.3815 14.4604C20.4695 13.9384 20.0765 13.4744 19.6135 13.4554C19.1825 13.4374 18.7745 13.8074 18.7605 14.2964C18.8475 13.7804 18.4585 13.3194 17.9955 13.3004C17.5615 13.2814 17.1525 13.6534 17.1425 14.1414V11.1844C17.1485 10.7354 16.7815 10.3624 16.3335 10.3624C15.8855 10.3624 15.5175 10.7354 15.5235 11.1844C15.5235 12.6804 15.5235 14.1764 15.5235 15.6724V16.1244L15.1695 15.7174C15.1165 15.6564 14.9275 15.4574 14.6155 15.4124C14.5245 15.3994 14.2405 15.3574 14.0065 15.5484C13.7545 15.7544 13.7535 16.0754 13.7535 16.1594C13.7525 16.4754 13.9235 16.6904 13.9765 16.7514L15.2755 18.2534C15.3685 18.3644 17.0865 20.3564 19.2605 19.9434C20.3215 19.7424 20.9905 19.0634 21.0695 18.9814C21.9975 18.0154 22.0035 16.8014 21.9995 16.5314V14.5074C22.0125 14.0624 21.6645 13.6874 21.2315 13.6664Z" stroke="white" stroke-width="1.25" stroke-linecap="round" stroke-linejoin="round"/>
<path d="M13.7541 17.0527C12.8191 17.5767 11.7521 17.8877 10.6051 17.8647C10.2881 17.8577 7.4341 17.7507 5.8141 15.4367C4.6601 13.7867 4.8151 11.9907 4.8831 11.2047C5.1271 8.39569 7.0161 4.68769 10.3771 4.08369C12.7711 3.65369 14.7141 5.01369 14.9081 5.15369C15.9051 5.87269 16.4791 6.76069 16.8101 7.45169M9.842 17.8125C9.01 18.5415 7.92 18.9845 6.727 18.9845C4.116 18.9845 2 16.8685 2 14.2575C2 12.2085 3.302 10.4645 5.125 9.80849M10.4215 14.6953L12.3435 14.2053" stroke="white" stroke-width="1.5" stroke-linecap="round" stroke-linejoin="round"/>
</svg>
