<svg width="24" height="24" viewBox="0 0 24 24" fill="none" xmlns="http://www.w3.org/2000/svg">
<path d="M10.1744 3.1609C11.6664 2.23776 13.2512 1.91547 14.6176 2.36461C15.7208 2.72804 16.7272 3.6769 17.3648 4.86147C18.0608 6.15233 18.2944 7.6309 17.932 8.9329C17.5952 10.1458 16.7432 11.2532 15.596 12.0812L15.5968 20.0278C15.5968 20.512 15.3352 20.9535 14.9256 21.1592L13.4624 21.8509C13.2128 21.976 12.9168 21.9332 12.708 21.7395L11.9752 21.0632C11.7184 20.8258 11.5704 20.4795 11.5704 20.116V13.6318C11.248 13.5932 10.9288 13.4989 10.5976 13.3472C10.412 13.5718 10.1952 13.7698 9.948 13.9352C9.0184 14.5583 7.7064 14.686 6.7008 14.1889C6.0208 13.852 5.572 13.1638 5.1264 12.4009C4.7336 11.7272 4.3488 10.8152 4.3168 10.1003C4.2584 8.8069 4.948 7.7569 5.9528 7.08404C6.3888 6.79261 6.8712 6.63576 7.3648 6.60318C7.7696 5.34918 8.852 3.97861 10.1744 3.1609ZM10.8744 4.45947C9.6888 5.19318 8.7464 6.50718 8.6064 7.42347C8.4952 8.15033 8.6728 9.01947 9.1656 9.93318C9.6528 10.8375 10.4112 11.6046 11.0696 11.9303C11.236 12.0126 11.4008 12.0709 11.5696 12.1035L11.5704 8.64661L12.9704 7.16118V20.0012L13.2784 20.2849L14.196 19.8683L14.1968 12.934L14.196 11.236C14.2768 11.1872 14.3592 11.1375 14.444 11.0843C15.5304 10.4123 16.3232 9.4669 16.5904 8.50433C16.8344 7.62661 16.6664 6.56547 16.1528 5.61147C15.6808 4.73547 14.9448 4.04204 14.2072 3.79861C13.2536 3.48576 12.0552 3.72918 10.8744 4.45947ZM6.6944 8.35604C6.0208 8.80776 5.6864 9.39233 5.7152 10.0275C5.7304 10.3686 5.9736 11.0226 6.3136 11.6055C6.764 12.3778 7.0248 12.6966 7.288 12.8269C7.8416 13.1003 8.6544 13.0326 9.2064 12.6632C9.2696 12.6212 9.3288 12.574 9.3848 12.5235C8.8384 12.0255 8.3328 11.3878 7.9528 10.6832C7.492 9.8269 7.2328 8.9629 7.1832 8.14347C7.0112 8.18376 6.8464 8.2549 6.6944 8.35604ZM14.7408 5.31147C14.9592 5.1649 15.2472 5.23604 15.384 5.47004C15.5208 5.70404 15.4544 6.01261 15.236 6.15918L14.2768 6.80118C14.0584 6.94776 13.7704 6.87661 13.6336 6.64261C13.4968 6.40861 13.5632 6.10004 13.7816 5.95347L14.7408 5.31147Z" fill="white"/>
</svg>
