<svg width="24" height="24" viewBox="0 0 24 24" fill="none" xmlns="http://www.w3.org/2000/svg">
<path d="M13.8256 3.1609C12.3336 2.23776 10.7488 1.91547 9.3824 2.36461C8.2792 2.72804 7.2728 3.6769 6.6352 4.86147C5.9392 6.15233 5.7056 7.6309 6.068 8.9329C6.4048 10.1458 7.2568 11.2532 8.404 12.0812L8.4032 20.0278C8.4032 20.512 8.6648 20.9535 9.0744 21.1592L10.5376 21.8509C10.7872 21.976 11.0832 21.9332 11.292 21.7395L12.0248 21.0632C12.2816 20.8258 12.4296 20.4795 12.4296 20.116V13.6318C12.752 13.5932 13.0712 13.4989 13.4024 13.3472C13.588 13.5718 13.8048 13.7698 14.052 13.9352C14.9816 14.5583 16.2936 14.686 17.2992 14.1889C17.9792 13.852 18.428 13.1638 18.8736 12.4009C19.2664 11.7272 19.6512 10.8152 19.6832 10.1003C19.7416 8.8069 19.052 7.7569 18.0472 7.08404C17.6112 6.79261 17.1288 6.63576 16.6352 6.60318C16.2304 5.34918 15.148 3.97861 13.8256 3.1609ZM13.1256 4.45947C14.3112 5.19318 15.2536 6.50718 15.3936 7.42347C15.5048 8.15033 15.3272 9.01947 14.8344 9.93318C14.3472 10.8375 13.5888 11.6046 12.9304 11.9303C12.764 12.0126 12.5992 12.0709 12.4304 12.1035L12.4296 8.64661L11.0296 7.16118V20.0012L10.7216 20.2849L9.804 19.8683L9.8032 12.934L9.804 11.236C9.7232 11.1872 9.6408 11.1375 9.556 11.0843C8.4696 10.4123 7.6768 9.4669 7.4096 8.50433C7.1656 7.62661 7.3336 6.56547 7.8472 5.61147C8.3192 4.73547 9.0552 4.04204 9.7928 3.79861C10.7464 3.48576 11.9448 3.72918 13.1256 4.45947ZM17.3056 8.35604C17.9792 8.80776 18.3136 9.39233 18.2848 10.0275C18.2696 10.3686 18.0264 11.0226 17.6864 11.6055C17.236 12.3778 16.9752 12.6966 16.712 12.8269C16.1584 13.1003 15.3456 13.0326 14.7936 12.6632C14.7304 12.6212 14.6712 12.574 14.6152 12.5235C15.1616 12.0255 15.6672 11.3878 16.0472 10.6832C16.508 9.8269 16.7672 8.9629 16.8168 8.14347C16.9888 8.18376 17.1536 8.2549 17.3056 8.35604ZM9.2592 5.31147C9.0408 5.1649 8.7528 5.23604 8.616 5.47004C8.4792 5.70404 8.5456 6.01261 8.764 6.15918L9.7232 6.80118C9.9416 6.94776 10.2296 6.87661 10.3664 6.64261C10.5032 6.40861 10.4368 6.10004 10.2184 5.95347L9.2592 5.31147Z" fill="white"/>
</svg>
