<svg width="24" height="24" viewBox="0 0 24 24" fill="none" xmlns="http://www.w3.org/2000/svg">
<path d="M4.5048 11.6416C4.4838 11.1576 4.5178 10.3646 4.8918 9.5016C5.4498 8.2146 6.4318 7.5456 7.0528 7.1336C9.1138 5.7676 11.3308 5.8296 12.5328 5.8636C13.6448 5.8936 14.4288 6.0996 14.7338 6.1866C15.3928 6.3746 15.9238 6.6156 16.3068 6.8156M12.3901 9.0722H12.3661C9.8221 9.0722 8.5321 10.0972 8.5321 12.1192C8.5321 14.5782 10.6391 16.6822 12.3661 16.6822H12.3901C14.1131 16.6822 16.2191 14.5782 16.2191 12.1192C16.2191 10.0972 14.9331 9.0722 12.3901 9.0722ZM11.478 3C11.577 3 11.666 3.012 11.749 3.036C12.772 3.33 13.371 4.263 13.554 4.559C14.859 6.672 17.197 6.476 18.608 9.214C19.387 10.725 19.486 12.134 19.499 12.733C19.556 15.421 18.244 18.201 15.927 19.769C15.325 20.176 14.094 21.009 12.395 21.0001C10.337 20.99 8.866 19.755 7.914 18.949C6.52 17.771 5.807 16.497 5.529 15.949C5.317 15.533 4.406 13.671 4.514 11.104C4.636 8.203 5.712 5.944 7.711 4.382C8.864 3.484 10.513 3 11.478 3Z" stroke="white" stroke-width="1.5" stroke-linecap="round" stroke-linejoin="round"/>
</svg>
