<svg width="24" height="24" viewBox="0 0 24 24" fill="none" xmlns="http://www.w3.org/2000/svg">
<path fill-rule="evenodd" clip-rule="evenodd" d="M4.65876 7.84306C5.1334 7.43745 5.68912 7.19302 6.28505 7.07646C6.68058 6.99987 7.03853 6.98721 7.32925 7.01052L7.38199 7.01519C8.2805 7.1091 8.94433 7.48007 9.51917 8.00224C10.2898 8.70023 10.8126 9.67529 10.9563 10.6857C11.187 12.3094 10.4955 14.0684 9.10452 14.9276L8.96872 15.0075C8.89423 15.0488 8.81315 15.0901 8.72481 15.13C8.47892 15.7428 8.03988 16.2603 7.45977 16.598C6.03916 17.4272 4.22104 16.9323 3.39966 15.4944C2.8057 14.4554 2.88547 13.1779 3.56116 12.2315C3.16234 10.6184 3.48338 8.84542 4.65876 7.84306ZM4.10502 15.0828C4.70161 16.1277 6.02202 16.4867 7.05304 15.886C7.25278 15.7694 7.42879 15.6236 7.57843 15.4557C6.93833 15.541 6.29955 15.4651 5.69109 15.1773C4.79588 14.7537 4.33377 14.1417 3.90791 13.2225L3.93296 13.2758C3.73322 13.8599 3.78266 14.5193 4.10502 15.0828ZM6.43996 7.88435C5.97258 7.9756 5.54409 8.16408 5.18416 8.47112C4.25268 9.26635 4.00811 10.7842 4.38321 12.1529C4.39771 12.1842 4.40694 12.2175 4.41221 12.2508C4.47418 12.4639 4.55263 12.6724 4.64558 12.8735C4.99694 13.6328 5.35819 14.111 6.03652 14.432C6.56258 14.6811 7.12687 14.7198 7.70105 14.6006C8.07087 14.524 8.36818 14.4021 8.56858 14.2908L8.6879 14.2209C9.77494 13.5496 10.3373 12.1189 10.15 10.8022C10.0334 9.98499 9.60487 9.18443 8.97531 8.61431C8.5165 8.19738 7.99572 7.90633 7.3042 7.8344L7.26596 7.8304C7.04315 7.81309 6.75639 7.82308 6.43996 7.88435ZM8.88632 12.1436C9.04321 12.3061 9.04058 12.5665 8.87973 12.7257L8.11042 13.4843C7.94957 13.6435 7.69182 13.6401 7.53427 13.4776C7.37737 13.3151 7.38067 13.0547 7.54152 12.8962L8.31016 12.1369C8.47167 11.9784 8.72943 11.9811 8.88632 12.1436Z" fill="white"/>
<path fill-rule="evenodd" clip-rule="evenodd" d="M19.3412 7.84306C18.8666 7.43745 18.3109 7.19302 17.7143 7.07646C17.3194 6.99987 16.9615 6.98721 16.6708 7.01052L16.618 7.01519C15.7195 7.1091 15.0557 7.48007 14.4802 8.00224C13.7102 8.70023 13.1874 9.67529 13.0437 10.6857C12.813 12.3094 13.5045 14.0684 14.8948 14.9276L15.0313 15.0075C15.1058 15.0488 15.1869 15.0901 15.2752 15.13C15.5211 15.7428 15.9601 16.2603 16.5396 16.598C17.9608 17.4272 19.7783 16.9323 20.6003 15.4944C21.1943 14.4554 21.1145 13.1779 20.4388 12.2315C20.8377 10.6184 20.516 8.84542 19.3412 7.84306ZM19.895 15.0828C19.2977 16.1277 17.978 16.4867 16.947 15.886C16.7472 15.7694 16.5706 15.6236 16.4216 15.4557C17.0617 15.541 17.7004 15.4651 18.3089 15.1773C19.2041 14.7537 19.6662 14.1417 20.0914 13.2225L20.067 13.2758C20.2668 13.8599 20.2167 14.5193 19.895 15.0828ZM17.56 7.88435C18.0274 7.9756 18.4559 8.16408 18.8158 8.47112C19.7473 9.26635 19.9912 10.7842 19.6168 12.1529C19.6023 12.1842 19.5931 12.2175 19.5871 12.2508C19.5258 12.4639 19.4474 12.6724 19.3538 12.8735C19.0024 13.6328 18.6418 14.111 17.9635 14.432C17.4374 14.6811 16.8731 14.7198 16.299 14.6006C15.9291 14.524 15.6318 14.4021 15.4314 14.2908L15.3121 14.2209C14.2251 13.5496 13.6627 12.1189 13.85 10.8022C13.966 9.98499 14.3951 9.18443 15.0247 8.61431C15.4835 8.19738 16.0043 7.90633 16.6958 7.8344L16.734 7.8304C16.9569 7.81309 17.2436 7.82308 17.56 7.88435ZM15.1137 12.1436C14.9568 12.3061 14.9594 12.5665 15.1203 12.7257L15.8896 13.4843C16.0504 13.6435 16.3082 13.6401 16.4651 13.4776C16.6226 13.3151 16.6193 13.0547 16.4585 12.8962L15.6892 12.1369C15.5283 11.9784 15.2706 11.9811 15.1137 12.1436Z" fill="white"/>
</svg>
