<svg width="24" height="24" viewBox="0 0 24 24" fill="none" xmlns="http://www.w3.org/2000/svg">
<path d="M18.5113 14.6732H16.2383C16.0993 14.6732 15.9883 14.5612 15.9883 14.4232V13.0732C15.9883 12.9362 16.0993 12.8232 16.2383 12.8232H18.5113C18.6493 12.8232 18.7613 12.9362 18.7613 13.0732V14.4232C18.7613 14.5612 18.6493 14.6732 18.5113 14.6732ZM21.9996 17.5033H19.7256C19.5876 17.5033 19.4756 17.3923 19.4756 17.2533V15.9043C19.4756 15.7663 19.5876 15.6543 19.7256 15.6543H21.9996C22.1376 15.6543 22.2496 15.7663 22.2496 15.9043V17.2533C22.2496 17.3923 22.1376 17.5033 21.9996 17.5033ZM15.023 18.4252H12.75C12.611 18.4252 12.5 18.3132 12.5 18.1752V16.8252C12.5 16.6882 12.611 16.5752 12.75 16.5752H15.023C15.161 16.5752 15.273 16.6882 15.273 16.8252V18.1752C15.273 18.3132 15.161 18.4252 15.023 18.4252Z" fill="white"/>
<path d="M10.278 18.1114C9.721 18.0884 7.093 17.8714 5.564 15.6864C4.41 14.0374 4.565 12.2414 4.633 11.4554C4.877 8.64543 6.766 4.93743 10.127 4.33443C12.521 3.90343 14.453 5.25543 14.658 5.40343C16.414 6.67343 16.904 8.47443 17.021 8.96543M9.592 18.0626C8.76 18.7916 7.67 19.2346 6.477 19.2346C3.866 19.2346 1.75 17.1186 1.75 14.5076C1.75 12.4586 3.052 10.7146 4.875 10.0586M10.1716 14.9454L10.9006 14.7594M20.863 11.7794V19.7504M17.3747 19.7501V11.7791M13.8864 19.7501V11.7791" stroke="white" stroke-width="1.5" stroke-linecap="round" stroke-linejoin="round"/>
</svg>
