<svg width="24" height="24" viewBox="0 0 24 24" fill="none" xmlns="http://www.w3.org/2000/svg">
<path fill-rule="evenodd" clip-rule="evenodd" d="M14.3263 15.8222L12.4043 16.3122C12.3423 16.3282 12.2793 16.3352 12.2173 16.3352C11.8803 16.3352 11.5733 16.1082 11.4863 15.7672C11.3833 15.3632 11.6273 14.9512 12.0313 14.8482L13.9533 14.3592C14.3573 14.2552 14.7683 14.5012 14.8713 14.9042C14.9743 15.3082 14.7303 15.7192 14.3263 15.8222ZM7.02732 18.8412C6.03432 18.4422 5.25532 17.6802 4.83532 16.6962C4.41432 15.7122 4.40232 14.6232 4.80132 13.6302C5.04232 13.0292 5.43032 12.5202 5.90632 12.1082C5.53432 15.2142 6.84432 17.7552 9.58732 18.9802C8.75032 19.2142 7.85832 19.1742 7.02732 18.8412ZM19.6803 8.8502C19.0083 6.8092 17.5993 5.2672 15.7113 4.5092C13.7723 3.7302 11.8633 3.8472 10.1873 4.8452C8.68032 5.7432 7.45032 7.2962 6.63132 9.3362C6.53532 9.5742 6.45232 9.8102 6.37432 10.0452C6.36732 10.0482 6.35932 10.0462 6.35232 10.0492C4.99732 10.6282 3.94832 11.7002 3.40032 13.0672C2.85132 14.4352 2.86732 15.9342 3.44632 17.2892C4.02532 18.6442 5.09732 19.6932 6.46432 20.2412C7.12932 20.5092 7.82232 20.6422 8.51432 20.6422C9.50532 20.6422 10.4953 20.3692 11.3983 19.8272C11.4303 19.8052 11.5583 19.7122 11.7123 19.5562C11.9193 19.5752 12.1253 19.5852 12.3313 19.5852C15.4993 19.5852 18.4003 17.3132 19.5243 14.5122C20.2283 12.7582 20.2853 10.6942 19.6803 8.8502Z" fill="white"/>
</svg>
