<svg width="24" height="24" viewBox="0 0 24 24" fill="none" xmlns="http://www.w3.org/2000/svg">
<path d="M19.9998 3.5C21.1038 3.5 21.9998 4.396 21.9998 5.5C21.9998 6.604 21.1038 7.5 19.9998 7.5C18.8958 7.5 17.9998 6.604 17.9998 5.5C17.9998 4.396 18.8958 3.5 19.9998 3.5Z" fill="white"/>
<path d="M9.842 19.328C9.01 20.057 7.92 20.5 6.727 20.5C4.116 20.5 2 18.383 2 15.772C2 13.724 3.302 11.98 5.124 11.324M10.4216 16.2098L12.3436 15.7198M5.8142 16.951C4.6602 15.302 4.8152 13.507 4.8832 12.721C5.1272 9.91003 7.0162 6.20203 10.3762 5.59803C12.7712 5.16903 14.7142 6.52803 14.9082 6.66903C16.4082 7.75203 16.9512 9.21503 17.1492 9.81903C17.6892 11.461 17.6382 13.299 17.0112 14.861C16.0682 17.208 13.6082 19.441 10.6052 19.379C10.2882 19.372 7.4342 19.266 5.8142 16.951Z" stroke="white" stroke-width="1.5" stroke-linecap="round" stroke-linejoin="round"/>
</svg>
