<svg width="24" height="24" viewBox="0 0 24 24" fill="none" xmlns="http://www.w3.org/2000/svg">
<path d="M19.3686 16.5262C19.3686 16.1842 19.0916 15.9082 18.7496 15.9082C18.4086 15.9082 18.1316 16.1842 18.1316 16.5262C18.1316 16.7262 18.2276 16.9022 18.3746 17.0152V17.8692C18.3746 18.0762 18.5426 18.2442 18.7496 18.2442C18.9566 18.2442 19.1246 18.0762 19.1246 17.8692V17.0152C19.2716 16.9022 19.3686 16.7262 19.3686 16.5262Z" fill="white"/>
<path d="M15.7138 17.2919C14.6778 17.9799 13.4498 18.4059 12.1138 18.3779C11.7968 18.3709 8.9408 18.2659 7.3178 15.9479C6.1628 14.2969 6.3178 12.4999 6.3868 11.7129C6.6298 8.89894 8.5218 5.18794 11.8858 4.58394C14.2818 4.15294 16.2278 5.51494 16.4218 5.65494C17.9228 6.73894 18.4668 8.20294 18.6658 8.80894C18.9118 9.55994 19.0348 10.3519 19.0368 11.1389M20.3158 14.745V12.873C20.3158 12.008 19.6148 11.307 18.7498 11.307C17.8848 11.307 17.1838 12.008 17.1838 12.873V14.745M11.35 18.327C10.517 19.056 9.426 19.5 8.232 19.5C5.618 19.5 3.5 17.381 3.5 14.767C3.5 12.718 4.804 10.972 6.628 10.314M11.9306 15.206L13.8546 14.716M20.7499 19.2831H16.7499C16.3349 19.2831 15.9999 18.9471 15.9999 18.5331V15.4951C15.9999 15.0811 16.3349 14.7451 16.7499 14.7451H20.7499C21.1639 14.7451 21.4999 15.0811 21.4999 15.4951V18.5331C21.4999 18.9471 21.1639 19.2831 20.7499 19.2831Z" stroke="white" stroke-width="1.5" stroke-linecap="round" stroke-linejoin="round"/>
</svg>
