<svg width="24" height="24" viewBox="0 0 24 24" fill="none" xmlns="http://www.w3.org/2000/svg">
<path d="M9.6282 17.6114C9.0712 17.5894 6.4432 17.3714 4.9142 15.1864C3.7602 13.5374 3.9152 11.7424 3.9832 10.9554C4.2272 8.14538 6.1162 4.43738 9.4772 3.83438C11.8712 3.40338 13.8032 4.75638 14.0082 4.90438C15.7642 6.17338 16.2542 7.97438 16.3712 8.46538M11.8772 15.8956H15.0022L15.9602 12.1606L17.3592 19.1186L18.9952 13.3346L19.5802 15.8746H22.8962M22.3 11.8506L13.9 20.2496M8.9421 17.5625C8.1101 18.2915 7.0201 18.7345 5.8271 18.7345C3.2161 18.7345 1.1001 16.6185 1.1001 14.0075C1.1001 11.9585 2.4021 10.2155 4.2251 9.55948M9.5217 14.4454L10.2507 14.2594" stroke="white" stroke-width="1.5" stroke-linecap="round" stroke-linejoin="round"/>
</svg>
