<svg width="24" height="24" viewBox="0 0 24 24" fill="none" xmlns="http://www.w3.org/2000/svg">
<path fill-rule="evenodd" clip-rule="evenodd" d="M16.476 6.6556C17.5155 6.04813 18.6199 5.83637 19.5727 6.13226C20.3409 6.3704 21.0422 6.99498 21.4869 7.77428C21.9717 8.62345 22.1345 9.59668 21.8822 10.4537C21.6468 11.2508 21.0541 11.9795 20.2549 12.5242L20.2542 17.7533C20.2542 18.0727 20.0724 18.3629 19.787 18.4983L18.7672 18.9532C18.5931 19.0359 18.3873 19.0074 18.2414 18.8798L17.7312 18.4349C17.5514 18.2787 17.4485 18.0513 17.4485 17.8117V13.5452C17.2237 13.5195 17.001 13.4575 16.7706 13.3577C16.6409 13.506 16.4901 13.6365 16.3188 13.7448C15.6704 14.1548 14.7563 14.2389 14.0558 13.9117C13.5815 13.6907 13.2686 13.2372 12.9585 12.7353C12.685 12.2918 12.4165 11.6922 12.394 11.2216C12.3531 10.3703 12.8344 9.67938 13.5343 9.23733C13.838 9.04482 14.1749 8.94215 14.5188 8.92005C14.8007 8.09512 15.5541 7.1939 16.476 6.6556ZM16.9637 7.51047C16.1377 7.99245 15.4808 8.85731 15.3836 9.4605C15.3061 9.93891 15.4301 10.51 15.7733 11.1118C16.1123 11.7064 16.6409 12.2119 17.0997 12.4258C17.216 12.48 17.3309 12.5185 17.4485 12.5399V10.2655L18.4246 9.28724V17.7362L18.6389 17.923L19.2781 17.6485V12.8593V11.9688C19.3345 11.9367 19.3923 11.9039 19.4515 11.869C20.2084 11.4269 20.7602 10.8052 20.947 10.1713C21.1169 9.59382 21.0006 8.89581 20.6418 8.26766C20.3134 7.69157 19.8004 7.23526 19.2859 7.07555C18.622 6.86949 17.7868 7.0292 16.9637 7.51047ZM14.0509 10.0744C13.5815 10.371 13.3482 10.7553 13.3687 11.1738C13.3792 11.3984 13.5484 11.8283 13.7859 12.2119C14.0995 12.7203 14.2813 12.9299 14.4646 13.0155C14.8501 13.1958 15.4167 13.1509 15.8015 12.9078C15.8459 12.88 15.8875 12.8493 15.927 12.8158C15.545 12.4886 15.1926 12.0686 14.9283 11.6052C14.6062 11.0419 14.4265 10.4737 14.392 9.93392C14.2722 9.9603 14.1566 10.0074 14.0509 10.0744ZM19.658 8.07088C19.8102 7.97391 20.0139 8.02596 20.1126 8.18638C20.2112 8.34609 20.1682 8.55429 20.016 8.65125L19.3479 9.07477C19.1957 9.17102 18.9927 9.11969 18.894 8.95926C18.7947 8.79884 18.8383 8.59065 18.9906 8.49439L19.658 8.07088ZM7.52403 6.6556C6.4845 6.04813 5.38013 5.83637 4.42729 6.13226C3.65909 6.3704 2.95785 6.99498 2.51314 7.77428C2.02826 8.62345 1.86546 9.59668 2.11777 10.4537C2.35316 11.2508 2.94587 11.9795 3.74508 12.5242L3.74578 17.7533C3.74578 18.0727 3.92761 18.3629 4.21304 18.4983L5.23284 18.9532C5.40691 19.0359 5.61271 19.0074 5.75859 18.8798L6.26884 18.4349C6.44856 18.2787 6.55145 18.0513 6.55145 17.8117V13.5452C6.77627 13.5195 6.99898 13.4575 7.22944 13.3577C7.35912 13.506 7.50994 13.6365 7.68119 13.7448C8.32958 14.1548 9.24366 14.2389 9.9442 13.9117C10.4185 13.6907 10.7314 13.2372 11.0415 12.7353C11.315 12.2918 11.5835 11.6922 11.606 11.2216C11.6469 10.3703 11.1656 9.67938 10.4657 9.23733C10.162 9.04482 9.82509 8.94215 9.48117 8.92005C9.19926 8.09512 8.44586 7.1939 7.52403 6.6556ZM7.03633 7.51047C7.86232 7.99245 8.51916 8.85731 8.61642 9.4605C8.69394 9.93891 8.5699 10.51 8.22668 11.1118C7.88769 11.7064 7.35912 12.2119 6.90031 12.4258C6.78403 12.48 6.66915 12.5185 6.55145 12.5399V10.2655L5.57535 9.28724V17.7362L5.3611 17.923L4.72188 17.6485V12.8593V11.9688C4.6655 11.9367 4.60771 11.9039 4.54851 11.869C3.79159 11.4269 3.23976 10.8052 3.05299 10.1713C2.88315 9.59382 2.99943 8.89581 3.35816 8.26766C3.68658 7.69157 4.19965 7.23526 4.71413 7.07555C5.37802 6.86949 6.21317 7.0292 7.03633 7.51047ZM9.94913 10.0744C10.4185 10.371 10.6518 10.7553 10.6313 11.1738C10.6208 11.3984 10.4516 11.8283 10.2141 12.2119C9.9005 12.7203 9.71867 12.9299 9.53543 13.0155C9.14993 13.1958 8.58329 13.1509 8.19849 12.9078C8.15409 12.88 8.11251 12.8493 8.07304 12.8158C8.45503 12.4886 8.80741 12.0686 9.0717 11.6052C9.39378 11.0419 9.57349 10.4737 9.60802 9.93392C9.72783 9.9603 9.84342 10.0074 9.94913 10.0744ZM4.34201 8.07088C4.18978 7.97391 3.9861 8.02596 3.88744 8.18638C3.78877 8.34609 3.83176 8.55429 3.98399 8.65125L4.65211 9.07477C4.80434 9.17102 5.00731 9.11969 5.10598 8.95926C5.20535 8.79884 5.16165 8.59065 5.00943 8.49439L4.34201 8.07088Z" fill="white"/>
</svg>
