<svg width="24" height="24" viewBox="0 0 24 24" fill="none" xmlns="http://www.w3.org/2000/svg">
<path fill-rule="evenodd" clip-rule="evenodd" d="M16.186 3.39453C19.397 3.39453 22 5.99753 22 9.20853V15.2555C22 18.2095 19.605 20.6045 16.651 20.6045H7.349C4.395 20.6045 2 18.2095 2 15.2555V9.20853C2 5.99753 4.603 3.39453 7.814 3.39453H16.186ZM3.567 13.9175V15.1905C3.567 17.3305 5.302 19.0645 7.442 19.0645H16.558C18.698 19.0645 20.433 17.3305 20.433 15.1905L20.434 13.9315C19.516 14.6495 18.377 15.0485 17.193 15.0485H6.824C5.633 15.0485 4.487 14.6445 3.567 13.9175ZM12 16.2425C12.385 16.2425 12.698 16.5555 12.698 16.9405C12.698 17.3255 12.385 17.6385 12 17.6385C11.615 17.6385 11.302 17.3255 11.302 16.9405C11.302 16.5555 11.615 16.2425 12 16.2425ZM17.805 5.10453C17.167 6.26553 16.209 6.96253 15.154 6.96253H8.799C7.793 6.96253 6.876 6.32953 6.24 5.26453C4.671 5.91353 3.567 7.46053 3.567 9.26453V12.2215L3.806 12.4885C4.574 13.3485 5.671 13.8395 6.824 13.8395H17.193C18.343 13.8395 19.438 13.3505 20.205 12.4955L20.432 12.2415L20.433 9.26453C20.433 7.44553 19.311 5.88853 17.722 5.24753L17.805 5.10453ZM16.102 4.93453H7.898C7.759 4.93453 7.622 4.94053 7.487 4.95353C7.881 5.47953 8.347 5.75353 8.799 5.75353H15.154C15.606 5.75353 16.073 5.47853 16.469 4.95253C16.348 4.93953 16.226 4.93453 16.102 4.93453Z" fill="white"/>
</svg>
