<svg width="24" height="24" viewBox="0 0 24 24" fill="none" xmlns="http://www.w3.org/2000/svg">
<path fill-rule="evenodd" clip-rule="evenodd" d="M11.4329 2.125C12.6289 2.125 13.2229 3.006 13.6809 3.835C14.2349 4.836 15.9409 5.937 16.5509 6.278L16.5439 6.287C18.7399 7.56 20.1189 9.924 20.1189 12.804C20.1189 12.973 20.1129 13.141 20.1039 13.326C20.0529 14.129 19.8999 14.935 19.6329 15.731C18.9979 17.657 17.7629 19.403 16.2509 20.524C16.0609 20.662 15.8689 20.791 15.6709 20.917C14.6229 21.553 13.5299 21.875 12.4259 21.875C10.7169 21.875 8.98387 21.063 7.57287 19.625C5.76087 18.214 3.72487 15.128 3.89087 11.016C4.02287 7.834 5.18887 5.355 7.35387 3.641C8.60187 2.656 10.3879 2.125 11.4329 2.125ZM12.4239 7.909H12.3919C9.05787 7.909 7.36787 9.271 7.36787 11.956C7.36787 15.221 10.1289 18.016 12.3919 18.016H12.4239C14.6819 18.016 17.4419 15.221 17.4419 11.956C17.4419 9.271 15.7569 7.909 12.4239 7.909ZM12.4215 9.6146C14.7155 9.6146 15.7385 10.3836 15.7385 12.1126C15.7385 14.3356 13.8825 16.3096 12.4215 16.3096H12.3935C10.9305 16.3096 9.07047 14.3356 9.07047 12.1126C9.07047 10.3836 10.0985 9.6146 12.3935 9.6146H12.4215ZM11.4329 3.417C10.7219 3.417 9.23787 3.804 8.15587 4.658C6.57787 5.905 5.64187 7.581 5.31187 9.753C6.41287 7.034 9.00887 5.266 12.2759 5.266H12.5769C12.7739 5.266 12.9669 5.275 13.1569 5.286C12.9179 5.021 12.7069 4.746 12.5489 4.464C12.0609 3.581 11.7879 3.417 11.4329 3.417Z" fill="white"/>
</svg>
