<svg width="24" height="24" viewBox="0 0 24 24" fill="none" xmlns="http://www.w3.org/2000/svg">
<path d="M13.8232 3.1609C12.3312 2.23776 10.7456 1.91547 9.37923 2.36461C8.27683 2.72804 7.27043 3.6769 6.63203 4.86147C5.93683 6.15233 5.70243 7.6309 6.06483 8.9329C6.40163 10.1449 7.25363 11.2523 8.40003 12.0803V20.0278C8.40003 20.512 8.66163 20.9535 9.07123 21.1592L10.5344 21.8509C10.7848 21.976 11.08 21.9332 11.2888 21.7395L12.0216 21.0632C12.2792 20.8258 12.4264 20.4795 12.4264 20.116V13.6318C12.7488 13.5932 13.0688 13.4989 13.3992 13.3472C13.5856 13.5718 13.8024 13.7698 14.0488 13.9352C14.9792 14.5583 16.2904 14.686 17.296 14.1889C17.976 13.852 18.4248 13.1638 18.8704 12.4009C19.2632 11.7272 19.648 10.8152 19.68 10.1003C19.7384 8.8069 19.0488 7.7569 18.044 7.08404C17.608 6.79261 17.1256 6.63576 16.632 6.60318C16.2272 5.34918 15.1448 3.97861 13.8232 3.1609ZM11.0264 7.49976L11.8664 8.45376V19.5966L11.0264 20.4135V7.49976ZM17.3024 8.35604C17.976 8.80776 18.3104 9.39233 18.2816 10.0275C18.2664 10.3686 18.0232 11.0226 17.6832 11.6055C17.2328 12.3778 16.972 12.6966 16.7096 12.8269C16.1552 13.1003 15.3424 13.0326 14.7904 12.6632C14.7272 12.6212 14.668 12.574 14.612 12.5235C15.1584 12.0255 15.664 11.3878 16.044 10.6832C16.5056 9.8269 16.764 8.9629 16.8136 8.14347C16.9856 8.18376 17.1504 8.2549 17.3024 8.35604ZM8.88323 5.4889L9.84243 6.1309C10.0608 6.27747 10.1272 6.58604 9.99043 6.82004C9.85363 7.05404 9.56563 7.12518 9.34723 6.97861L8.38803 6.33661C8.16963 6.19004 8.10323 5.88233 8.24003 5.64747C8.37683 5.41347 8.66483 5.34233 8.88323 5.4889Z" fill="white"/>
</svg>
