<svg width="24" height="24" viewBox="0 0 24 24" fill="none" xmlns="http://www.w3.org/2000/svg">
<path d="M12.082 18.3259C11.251 19.0559 10.163 19.4999 8.971 19.4999C6.364 19.4999 4.25 17.3809 4.25 14.7669C4.25 12.7179 5.551 10.9719 7.371 10.3139M12.6611 15.2058L14.5801 14.7158M8.0596 15.948C6.9076 14.297 7.0616 12.5 7.1296 11.713C7.3726 8.89899 9.2606 5.18699 12.6166 4.58399C15.0066 4.15299 16.9476 5.51399 17.1426 5.65499C18.6396 6.73899 19.1826 8.20299 19.3796 8.80699C19.9176 10.452 19.8676 12.292 19.2416 13.855C18.3006 16.205 15.8436 18.44 12.8446 18.378C12.5276 18.371 9.6776 18.265 8.0596 15.948Z" stroke="white" stroke-width="1.5" stroke-linecap="round" stroke-linejoin="round"/>
</svg>
