<svg width="24" height="24" viewBox="0 0 24 24" fill="none" xmlns="http://www.w3.org/2000/svg">
<path fill-rule="evenodd" clip-rule="evenodd" d="M20.069 13.157C19.624 15.193 18.042 16.706 16.158 16.706H7.842C5.987 16.706 4.425 15.24 3.953 13.252C4.545 13.649 5.451 14.017 6.882 14.188C7.086 14.861 7.344 15.3 7.693 15.524C7.972 15.705 8.341 15.782 8.577 15.793C9.813 15.841 10.302 15.865 11.544 15.865C12.787 15.865 14.043 15.841 15.283 15.793C15.514 15.782 15.884 15.705 16.164 15.524C16.492 15.313 16.881 14.913 17.021 14.188C18.553 14.007 19.479 13.591 20.069 13.157ZM15.956 14.285C15.879 14.459 15.77 14.597 15.621 14.694C15.522 14.758 15.329 14.8 15.239 14.804C12.795 14.899 11.055 14.899 8.621 14.804C8.526 14.8 8.334 14.758 8.236 14.695C8.197 14.669 8.092 14.575 7.967 14.288C9.388 14.38 10.123 14.399 10.853 14.401H11.01C11.274 14.401 11.457 14.4 11.533 14.399L11.561 14.398C11.596 14.399 11.727 14.4 11.933 14.401H12.163C12.966 14.4 14.45 14.383 15.956 14.285ZM16.158 7.295C18.252 7.295 19.979 9.162 20.178 11.543C20.134 11.665 20.07 11.795 19.965 11.915C19.508 12.441 18.705 13.069 16.521 13.252C14.966 13.38 13.316 13.407 12.367 13.411H11.888C11.729 13.411 11.624 13.409 11.584 13.409H11.544C11.509 13.409 11.418 13.411 11.276 13.411H10.968C10.249 13.408 8.931 13.38 7.325 13.248C5.175 13.064 4.378 12.439 3.924 11.916C3.878 11.863 3.849 11.8 3.815 11.74C3.931 9.267 5.691 7.295 7.842 7.295H16.158ZM7.842 6C4.896 6 2.5 8.692 2.5 12C2.5 15.309 4.896 18 7.842 18H16.158C19.104 18 21.5 15.309 21.5 12C21.5 8.692 19.104 6 16.158 6H7.842Z" fill="white"/>
</svg>
