<svg width="24" height="24" viewBox="0 0 24 24" fill="none" xmlns="http://www.w3.org/2000/svg">
<path fill-rule="evenodd" clip-rule="evenodd" d="M8.03306 4.203C9.14206 3.786 10.3181 3.63 11.5171 3.846C14.3051 4.347 16.4341 6.849 17.2681 9.764C19.2081 10.637 20.5001 12.58 20.5001 14.767C20.5001 17.795 18.0511 20.25 15.0291 20.25C13.7961 20.25 12.6241 19.838 11.6731 19.097C11.4951 19.114 11.3281 19.124 11.1721 19.128C8.06706 19.192 5.21606 17.016 4.06206 14.134C3.37006 12.406 3.31506 10.385 3.90806 8.574C4.34906 7.22 5.07006 6.023 6.41806 5.048C6.79806 4.773 7.33806 4.464 8.03306 4.203ZM17.6261 11.755L17.6411 11.952C17.7541 13.646 17.5401 14.966 16.5551 16.377C15.8471 17.392 14.8971 18.1 13.7991 18.554C14.1901 18.683 14.6041 18.75 15.0291 18.75C17.2211 18.75 19.0001 16.967 19.0001 14.767C19.0001 13.581 18.4771 12.493 17.6261 11.755ZM11.2511 5.322C10.3421 5.158 9.43406 5.279 8.56106 5.607C8.00506 5.816 7.57706 6.061 7.29706 6.263C6.25206 7.02 5.68606 7.959 5.33306 9.04C4.84906 10.519 4.89506 12.178 5.45506 13.576C6.39006 15.912 8.70406 17.679 11.1401 17.628C11.5791 17.618 12.1641 17.537 12.8241 17.317C13.8481 16.977 14.7131 16.396 15.3251 15.519C16.1151 14.387 16.2551 13.3 16.1231 11.778C16.0881 11.376 16.0241 10.976 15.9311 10.583C15.9071 10.526 15.8921 10.466 15.8841 10.404C15.2371 7.894 13.4631 5.72 11.2511 5.322Z" fill="white"/>
</svg>
