<svg width="24" height="24" viewBox="0 0 24 24" fill="none" xmlns="http://www.w3.org/2000/svg">
<path fill-rule="evenodd" clip-rule="evenodd" d="M15.967 4.203C16.662 4.464 17.202 4.773 17.582 5.048C18.93 6.023 19.651 7.22 20.092 8.574C20.685 10.385 20.63 12.406 19.938 14.134C18.784 17.016 15.933 19.192 12.828 19.128C12.672 19.124 12.505 19.114 12.328 19.096C11.376 19.838 10.205 20.25 8.971 20.25C5.949 20.25 3.5 17.795 3.5 14.767C3.5 12.58 4.792 10.637 6.732 9.764C7.566 6.849 9.695 4.347 12.483 3.846C13.682 3.63 14.858 3.786 15.967 4.203ZM6.373 11.755L6.251 11.866C5.473 12.6 5 13.639 5 14.767C5 16.967 6.779 18.75 8.971 18.75C9.396 18.75 9.81 18.683 10.202 18.555C9.103 18.1 8.153 17.392 7.445 16.377C6.423 14.912 6.23 13.545 6.373 11.755ZM12.749 5.322C10.537 5.72 8.763 7.894 8.113 10.403C8.108 10.466 8.093 10.526 8.071 10.584C7.976 10.976 7.912 11.376 7.877 11.778C7.745 13.3 7.885 14.387 8.675 15.519C9.287 16.396 10.152 16.977 11.176 17.317C11.836 17.537 12.421 17.618 12.86 17.628C15.296 17.679 17.61 15.912 18.545 13.576C19.105 12.178 19.151 10.519 18.667 9.04C18.314 7.959 17.748 7.02 16.703 6.263C16.423 6.061 15.995 5.816 15.439 5.607C14.566 5.279 13.658 5.158 12.749 5.322Z" fill="white"/>
</svg>
