<svg width="24" height="24" viewBox="0 0 24 24" fill="none" xmlns="http://www.w3.org/2000/svg">
<path d="M10.1769 3.1609C11.6689 2.23776 13.2545 1.91547 14.6209 2.36461C15.7233 2.72804 16.7297 3.6769 17.3681 4.86147C18.0633 6.15233 18.2977 7.6309 17.9353 8.9329C17.5985 10.1449 16.7465 11.2523 15.6001 12.0803V20.0278C15.6001 20.512 15.3385 20.9535 14.9289 21.1592L13.4657 21.8509C13.2153 21.976 12.9201 21.9332 12.7113 21.7395L11.9785 21.0632C11.7209 20.8258 11.5737 20.4795 11.5737 20.116V13.6318C11.2513 13.5932 10.9313 13.4989 10.6009 13.3472C10.4145 13.5718 10.1977 13.7698 9.9513 13.9352C9.0209 14.5583 7.7097 14.686 6.7041 14.1889C6.0241 13.852 5.5753 13.1638 5.1297 12.4009C4.7369 11.7272 4.3521 10.8152 4.3201 10.1003C4.2617 8.8069 4.9513 7.7569 5.9561 7.08404C6.3921 6.79261 6.8745 6.63576 7.3681 6.60318C7.7729 5.34918 8.8553 3.97861 10.1769 3.1609ZM12.9737 7.49976L12.1337 8.45376V19.5966L12.9737 20.4135V7.49976ZM6.6977 8.35604C6.0241 8.80776 5.6897 9.39233 5.7185 10.0275C5.7337 10.3686 5.9769 11.0226 6.3169 11.6055C6.7673 12.3778 7.0281 12.6966 7.2905 12.8269C7.8449 13.1003 8.6577 13.0326 9.2097 12.6632C9.2729 12.6212 9.3321 12.574 9.3881 12.5235C8.8417 12.0255 8.3361 11.3878 7.9561 10.6832C7.4945 9.8269 7.2361 8.9629 7.1865 8.14347C7.0145 8.18376 6.8497 8.2549 6.6977 8.35604ZM15.1169 5.4889L14.1577 6.1309C13.9393 6.27747 13.8729 6.58604 14.0097 6.82004C14.1465 7.05404 14.4345 7.12518 14.6529 6.97861L15.6121 6.33661C15.8305 6.19004 15.8969 5.88233 15.7601 5.64747C15.6233 5.41347 15.3353 5.34233 15.1169 5.4889Z" fill="white"/>
</svg>
