<svg width="24" height="24" viewBox="0 0 24 24" fill="none" xmlns="http://www.w3.org/2000/svg">
<path d="M16.6515 15.4847H16.0535V14.8877C16.0535 14.6807 15.8865 14.5127 15.6785 14.5127C15.4715 14.5127 15.3035 14.6807 15.3035 14.8877V15.4847H14.7065C14.4995 15.4847 14.3315 15.6527 14.3315 15.8597C14.3315 16.0667 14.4995 16.2347 14.7065 16.2347H15.3035V16.8327C15.3035 17.0397 15.4715 17.2077 15.6785 17.2077C15.8865 17.2077 16.0535 17.0397 16.0535 16.8327V16.2347H16.6515C16.8585 16.2347 17.0265 16.0667 17.0265 15.8597C17.0265 15.6527 16.8585 15.4847 16.6515 15.4847ZM20.1773 16.638C20.1773 16.938 19.9343 17.181 19.6353 17.181C19.3353 17.181 19.0923 16.938 19.0923 16.638C19.0923 16.339 19.3353 16.096 19.6353 16.096C19.9343 16.096 20.1773 16.339 20.1773 16.638ZM18.9552 15.3128C18.9552 15.6128 18.7122 15.8558 18.4132 15.8558C18.1132 15.8558 17.8702 15.6128 17.8702 15.3128C17.8702 15.0128 18.1132 14.7708 18.4132 14.7708C18.7122 14.7708 18.9552 15.0128 18.9552 15.3128Z" fill="white"/>
<path d="M12.8708 17.6327C12.3098 17.7927 11.7188 17.8767 11.1048 17.8637C10.7878 17.8577 7.9338 17.7507 6.3138 15.4367C5.1598 13.7867 5.3148 11.9907 5.3838 11.2047C5.6268 8.39569 7.5168 4.68769 10.8768 4.08369C13.2708 3.65369 15.2138 5.01369 15.4088 5.15369C16.9078 6.23669 17.4518 7.69869 17.6498 8.30369C18.1208 9.73969 18.1418 11.3267 17.7188 12.7477M10.342 17.8124C9.51 18.5414 8.42 18.9844 7.227 18.9844C4.616 18.9844 2.5 16.8684 2.5 14.2574C2.5 12.2084 3.802 10.4644 5.624 9.80839M10.9216 14.6952L12.8436 14.2052M21.4997 16.1425C21.4997 14.5445 20.2047 13.2495 18.6067 13.2495H16.0287C14.4317 13.2495 13.1357 14.5445 13.1357 16.1425V18.8735C13.1357 19.5695 13.7227 19.9995 14.2667 19.9995C14.5487 19.9995 14.8197 19.8905 15.0297 19.6935L16.2737 18.5255C16.3197 18.4825 16.3807 18.4575 16.4447 18.4575H18.1907C18.2537 18.4575 18.3147 18.4825 18.3617 18.5255L19.6047 19.6935C19.8187 19.8945 20.0827 19.9995 20.3687 19.9995C20.9127 19.9995 21.4997 19.5695 21.4997 18.8735V16.1425Z" stroke="white" stroke-width="1.5" stroke-linecap="round" stroke-linejoin="round"/>
</svg>
