<svg width="24" height="24" viewBox="0 0 24 24" fill="none" xmlns="http://www.w3.org/2000/svg">
<path d="M6.87482 9.47762H11.8748M9.37482 6.97762V11.9776M12.3943 14.5459H17.3943M17.6345 20.0117H6.63452C5.25352 20.0117 4.13452 18.8927 4.13452 17.5117V6.51172C4.13452 5.13172 5.25352 4.01172 6.63452 4.01172H17.6345C19.0155 4.01172 20.1345 5.13172 20.1345 6.51172V17.5117C20.1345 18.8927 19.0155 20.0117 17.6345 20.0117Z" stroke="white" stroke-width="1.5" stroke-linecap="round" stroke-linejoin="round"/>
<path d="M14.8945 16.0654C15.3735 16.0654 15.7625 16.4544 15.7625 16.9344C15.7625 17.4134 15.3735 17.8034 14.8945 17.8034C14.4135 17.8034 14.0255 17.4134 14.0255 16.9344C14.0255 16.4544 14.4135 16.0654 14.8945 16.0654ZM14.8945 11.2861C15.3735 11.2861 15.7625 11.6751 15.7625 12.1551C15.7625 12.6351 15.3735 13.0241 14.8945 13.0241C14.4135 13.0241 14.0255 12.6351 14.0255 12.1551C14.0255 11.6751 14.4135 11.2861 14.8945 11.2861Z" fill="white"/>
</svg>
