<svg width="24" height="24" viewBox="0 0 24 24" fill="none" xmlns="http://www.w3.org/2000/svg">
<path d="M19.5 8.50098V10.501C19.5 9.11898 18.38 8.00098 17 8.00098H7C5.62 8.00098 4.5 9.11898 4.5 10.501V8.50098C4.5 7.11898 5.62 6.00098 7 6.00098H17C18.38 6.00098 19.5 7.11898 19.5 8.50098Z" fill="white"/>
<path d="M4.5 17.5C4.5 18.881 5.619 20 7 20H17C18.381 20 19.5 18.881 19.5 17.5M4.5 17.5V8.5C4.5 7.119 5.619 6 7 6H17C18.381 6 19.5 7.119 19.5 8.5V17.5M4.5 17.5V10.5C4.5 9.119 5.619 8 7 8H17C18.381 8 19.5 9.119 19.5 10.5V17.5M8.5 4V5.5M15.5 4V5.5" stroke="white" stroke-width="1.5" stroke-linecap="round" stroke-linejoin="round"/>
<path d="M8.35015 14.626C8.87115 14.626 9.29515 15.05 9.29515 15.571C9.29515 16.092 8.87115 16.516 8.35015 16.516C7.82915 16.516 7.40515 16.092 7.40515 15.571C7.40515 15.05 7.82915 14.626 8.35015 14.626ZM11.4134 14.626C11.9344 14.626 12.3584 15.05 12.3584 15.571C12.3584 16.092 11.9344 16.516 11.4134 16.516C10.8924 16.516 10.4684 16.092 10.4684 15.571C10.4684 15.05 10.8924 14.626 11.4134 14.626ZM15.6495 11.4834C16.1705 11.4834 16.5945 11.9074 16.5945 12.4284C16.5945 12.9494 16.1705 13.3734 15.6495 13.3734C15.1285 13.3734 14.7045 12.9494 14.7045 12.4284C14.7045 11.9074 15.1285 11.4834 15.6495 11.4834ZM12.5858 11.4834C13.1078 11.4834 13.5308 11.9074 13.5308 12.4284C13.5308 12.9494 13.1078 13.3734 12.5858 13.3734C12.0648 13.3734 11.6408 12.9494 11.6408 12.4284C11.6408 11.9074 12.0648 11.4834 12.5858 11.4834Z" fill="white"/>
</svg>
