<svg width="24" height="24" viewBox="0 0 24 24" fill="none" xmlns="http://www.w3.org/2000/svg">
<path d="M6.16738 8.45611C6.23287 8.5298 6.29148 8.60933 6.34248 8.69366L7.4721 10.5632C7.61771 10.8042 7.61749 11.0967 7.47159 11.3145L6.66127 12.2995C6.50398 12.5344 6.51721 12.854 6.69431 13.1015C7.06455 13.6168 7.56694 14.2053 8.20148 14.8669C8.86442 15.5008 9.45366 16.0024 9.96965 16.372C10.2176 16.5488 10.5375 16.5621 10.7728 16.4051L11.7593 15.5959C11.9775 15.4502 12.2704 15.45 12.5117 15.5954L14.3246 16.6876C15.1137 17.163 15.368 18.1882 14.8926 18.9773L14.8276 19.0769L14.7557 19.1717C14.0231 20.0687 12.4806 20.2379 11.3113 19.6758C10.7781 19.4007 10.4235 19.2101 10.2473 19.104C9.09732 18.4109 7.7821 17.3593 6.7326 16.3037C5.68591 15.2613 4.64587 13.9618 3.9584 12.8243C3.85211 12.6483 3.66119 12.2942 3.38572 11.7618C2.84629 10.6429 2.93433 9.28357 3.77642 8.43083L3.89055 8.32254C4.55621 7.73072 5.57555 7.79051 6.16738 8.45611ZM14.4285 12.0666L14.2852 12.8687H9.5731L9.72359 12.0666H14.4285ZM20.9525 4L20.2989 7.42146L20.2863 7.48495H19.4778L19.4987 7.33897L19.9835 4.80122H18.1282L16.8557 12.0158H17.8155L17.6723 12.818H15.0856L15.227 12.0158H16.0436L17.3161 4.80122H15.4572L14.956 7.42146L14.9578 7.44327V7.48495L14.123 7.48584L14.278 6.68462L14.6342 4.8438L14.6415 4.79575L14.7865 4.04257L14.7955 4H20.9525ZM15.7481 9.39193L15.604 10.194H10.0725L10.2229 9.39193H15.7481ZM13.5221 6.6855L13.3653 7.48584L10.5801 7.48858L10.7305 6.68735L13.5221 6.6855ZM14.036 4.04257L13.8801 4.8438H11.0777L11.2281 4.04257H14.036Z" fill="white"/>
</svg>
