<svg width="24" height="24" viewBox="0 0 24 24" fill="none" xmlns="http://www.w3.org/2000/svg">
<path d="M11.8689 7.38917L13.1939 8.71417L14.4689 7.43917M18.7449 4.93617C18.1529 4.47717 17.4119 4.20117 16.6049 4.20117C14.6719 4.20117 13.1049 5.76817 13.1049 7.70117C13.1049 7.97917 13.1399 8.24917 13.2019 8.50917M21.3419 8.01217L20.0169 6.68717L18.7419 7.96217M14.4649 10.4662C15.0569 10.9242 15.7979 11.2012 16.6049 11.2012C18.5379 11.2012 20.1049 9.63317 20.1049 7.70117C20.1049 7.42217 20.0699 7.15217 20.0079 6.89317" stroke="white" stroke-width="1.25" stroke-linecap="round" stroke-linejoin="round"/>
<path fill-rule="evenodd" clip-rule="evenodd" d="M14.811 14.4877L14.289 15.0087C13.821 15.4767 13.446 15.5747 13.082 15.5687C12.784 15.5637 12.391 15.3547 12.303 15.2957C9.38096 13.6237 8.00596 11.1907 7.73696 10.6697C7.71896 10.6367 7.57096 10.3397 7.55596 10.0417C7.53696 9.67867 7.64696 9.30367 8.11596 8.83567L8.63696 8.31367C9.10096 7.84767 9.20896 7.47267 9.19296 7.11267C9.17596 6.74867 9.02996 6.36167 8.51696 5.84767L7.22096 4.55267C6.70796 4.03867 6.31996 3.89367 5.95696 3.87667C5.59496 3.85967 5.22096 3.96767 4.75496 4.43167L4.75196 4.43467L4.74996 4.43567C3.27296 5.91567 2.93896 7.32467 3.00796 8.78567C3.05096 9.69367 3.29296 10.6407 3.96696 11.7257C3.96696 11.7257 6.35596 15.6337 10.972 18.8727C11.026 18.9107 11.081 18.9477 11.135 18.9847C11.217 19.0407 11.387 19.1537 11.39 19.1517C12.478 19.8307 13.428 20.0727 14.34 20.1167C15.8 20.1857 17.209 19.8517 18.688 18.3747L18.69 18.3727L18.693 18.3687C19.158 17.9047 19.266 17.5297 19.248 17.1677C19.231 16.8047 19.086 16.4167 18.571 15.9047L17.277 14.6087C16.764 14.0937 16.376 13.9487 16.012 13.9317C15.651 13.9157 15.276 14.0237 14.811 14.4877Z" stroke="white" stroke-width="1.5" stroke-linecap="round" stroke-linejoin="round"/>
</svg>
