<svg width="24" height="24" viewBox="0 0 24 24" fill="none" xmlns="http://www.w3.org/2000/svg">
<path d="M7.27425 5.00651C7.36396 5.1074 7.44425 5.21635 7.5141 5.33193L9.0616 7.89302C9.26109 8.2231 9.26078 8.62373 9.06087 8.92224L7.95084 10.2716C7.73532 10.5935 7.75353 11.0312 7.99606 11.3702C8.50327 12.0762 9.19156 12.8824 10.0608 13.7888C10.969 14.6571 11.7761 15.3442 12.4831 15.8506C12.8227 16.0928 13.261 16.1111 13.5834 15.8959L14.9348 14.7875C15.2336 14.5879 15.6349 14.5876 15.9654 14.7867L18.4489 16.2829C19.53 16.9343 19.8784 18.3386 19.2271 19.4196L19.1382 19.5562L19.0395 19.6859C18.036 20.9148 15.9228 21.1465 14.321 20.3765C13.5906 19.9997 13.1048 19.7386 12.8635 19.5931C11.288 18.6439 9.48624 17.2031 8.04862 15.7571C6.61463 14.329 5.18984 12.5489 4.24806 10.9904C4.10247 10.7495 3.8409 10.2644 3.46355 9.5351C2.72456 8.00219 2.8451 6.14003 3.9988 4.97175L4.15514 4.82348C5.06702 4.01268 6.46346 4.09463 7.27425 5.00651ZM19.4479 3.17871C20.3047 3.17871 21 3.873 21 4.73077C21 5.5875 20.3047 6.28282 19.4479 6.28282C19.0975 6.28282 18.7743 6.16673 18.5146 5.97096L15.5165 7.66498C15.5396 7.77145 15.5517 7.88206 15.5517 7.99546C15.5517 8.12697 15.5353 8.25476 15.5045 8.37675L18.5151 10.08C18.7746 9.88462 19.0973 9.76884 19.4469 9.76884C20.3047 9.76884 20.999 10.4642 20.999 11.3209C20.999 12.1776 20.3047 12.8729 19.4469 12.8729C18.5902 12.8729 17.8949 12.1776 17.8949 11.3209C17.8949 11.2673 17.8976 11.2142 17.9029 11.1621L14.7265 9.36696C14.5096 9.48223 14.2622 9.54751 13.9996 9.54751C13.1429 9.54751 12.4476 8.85219 12.4476 7.99546C12.4476 7.13769 13.1429 6.44341 13.9996 6.44341C14.2847 6.44341 14.5518 6.52028 14.7814 6.65438L17.904 4.88959C17.8987 4.83744 17.8959 4.78436 17.8959 4.73077C17.8959 3.873 18.5902 3.17871 19.4479 3.17871Z" fill="white"/>
</svg>
