<svg width="24" height="24" viewBox="0 0 24 24" fill="none" xmlns="http://www.w3.org/2000/svg">
<path fill-rule="evenodd" clip-rule="evenodd" d="M19.5125 4.23485L12.8415 4.18755C11.879 4.18055 11.0863 4.96285 11.0793 5.92625L11.0495 10.1612C11.0434 11.107 11.8108 11.8867 12.7567 11.8937L13.7104 11.9033C13.8312 11.9042 13.9283 12.003 13.9274 12.1238L13.9117 13.893C13.909 14.208 14.098 14.2929 14.3308 14.0803L16.8149 11.975C16.8552 11.9409 16.9059 11.9225 16.9575 11.9225L19.4583 11.9409C20.4208 11.947 21.2135 11.1648 21.2205 10.2023L21.2503 5.99705C21.2573 5.03455 20.475 4.24185 19.5125 4.23485ZM11.6314 17.0514L11.2831 17.3979C10.9708 17.7111 10.7205 17.7767 10.4781 17.7724C10.2787 17.7689 10.017 17.6297 9.9575 17.5904C8.008 16.4747 7.091 14.8507 6.9117 14.5034C6.8994 14.4815 6.8005 14.2829 6.79 14.0842C6.7778 13.8427 6.8513 13.5916 7.1637 13.2792L7.5119 12.9319C7.8208 12.6212 7.8934 12.3701 7.882 12.1304C7.8707 11.888 7.7744 11.629 7.4314 11.286L6.5669 10.4224C6.2239 10.0785 5.9658 9.98225 5.7234 9.97095C5.4819 9.95955 5.2325 10.0321 4.9219 10.341L4.9193 10.3436C3.9332 11.3315 3.71 12.2712 3.7555 13.246C3.7844 13.8524 3.9454 14.4841 4.396 15.2086C4.396 15.2086 5.9894 17.8161 9.0694 19.9774C9.1062 20.0027 9.1429 20.0272 9.1779 20.0517C9.233 20.0894 9.3485 20.1637 9.3485 20.1637C10.0748 20.6161 10.7083 20.778 11.3173 20.8069C12.2912 20.8532 13.2309 20.6301 14.2188 19.6449L14.2197 19.6431L14.2223 19.6414C14.532 19.3307 14.6038 19.0805 14.5924 18.8399C14.5802 18.5975 14.4839 18.3385 14.14 17.9964L13.2764 17.1319C12.9343 16.788 12.6753 16.6917 12.4329 16.6804C12.1923 16.669 11.942 16.7416 11.6314 17.0514Z" fill="white"/>
</svg>
