<svg width="24" height="24" viewBox="0 0 24 24" fill="none" xmlns="http://www.w3.org/2000/svg">
<path d="M5.61619 4.38262C5.98019 4.39862 6.36719 4.54362 6.88019 5.05762L8.17619 6.35262C8.69019 6.86762 8.83519 7.25462 8.85219 7.61762C8.86819 7.97762 8.76019 8.35362 8.29719 8.81862L7.77519 9.34062C7.30719 9.80862 7.19619 10.1846 7.21519 10.5476C7.23119 10.8446 7.37919 11.1416 7.39719 11.1756C7.66619 11.6956 9.04119 14.1296 11.9622 15.8016C12.0512 15.8596 12.4442 16.0696 12.7422 16.0746C13.1062 16.0806 13.4802 15.9826 13.9482 15.5136L14.4712 14.9926C14.9362 14.5296 15.3112 14.4206 15.6722 14.4376C16.0352 14.4546 16.4232 14.5996 16.9372 15.1136L18.2312 16.4096C18.7462 16.9226 18.8912 17.3096 18.9082 17.6736C18.9252 18.0346 18.8172 18.4096 18.3532 18.8736L18.3492 18.8776C16.8682 20.3566 15.4602 20.6906 14.0002 20.6216C13.0882 20.5786 12.1382 20.3356 11.0492 19.6566C11.0482 19.6576 11.0052 19.6301 10.9521 19.5953L10.8418 19.5219L10.7942 19.4896C10.7412 19.4536 10.6862 19.4156 10.6312 19.3776C6.01519 16.1386 3.62719 12.2306 3.62719 12.2306C2.95219 11.1466 2.71119 10.1996 2.66819 9.29062C2.59919 7.83062 2.93219 6.42062 4.41019 4.94162L4.41219 4.94062C4.88019 4.47262 5.25419 4.36462 5.61619 4.38262ZM20.394 6.13222C20.64 6.12722 20.891 6.22622 21.069 6.40322C21.246 6.58122 21.345 6.82722 21.34 7.07822L21.289 9.60222C21.282 9.94322 21.004 10.2142 20.664 10.2142H20.652C20.306 10.2072 20.032 9.92122 20.039 9.57622L20.066 8.29122L16.161 12.1952C16.039 12.3182 15.879 12.3792 15.719 12.3792C15.559 12.3792 15.399 12.3182 15.277 12.1952C15.033 11.9512 15.033 11.5562 15.277 11.3122L19.182 7.40722L17.896 7.43322C17.553 7.43822 17.265 7.16622 17.258 6.82122C17.252 6.47622 17.526 6.19122 17.871 6.18322L20.394 6.13222ZM16.2219 3.55312C16.4669 3.30912 16.8619 3.30912 17.1059 3.55312C17.3499 3.79712 17.3499 4.19312 17.1059 4.43712L13.2009 8.34212L14.4869 8.31512H14.4999C14.8399 8.31512 15.1179 8.58712 15.1249 8.92812C15.1319 9.27312 14.8579 9.55812 14.5129 9.56512L11.9889 9.61712H11.9709C11.7259 9.61712 11.4879 9.51812 11.3139 9.34512C11.1369 9.16712 11.0379 8.92112 11.0429 8.67012L11.0949 6.14712C11.1019 5.80212 11.3959 5.52912 11.7319 5.53512C12.0769 5.54212 12.3509 5.82712 12.3439 6.17212L12.3179 7.45812L16.2219 3.55312Z" fill="white"/>
</svg>
