<svg width="24" height="24" viewBox="0 0 24 24" fill="none" xmlns="http://www.w3.org/2000/svg">
<path fill-rule="evenodd" clip-rule="evenodd" d="M15.8884 11.3744C18.3694 11.3744 20.3884 13.3934 20.3884 15.8744C20.3884 18.3554 18.3694 20.3744 15.8884 20.3744C13.4074 20.3744 11.3884 18.3554 11.3884 15.8744C11.3884 13.3934 13.4074 11.3744 15.8884 11.3744ZM14.6018 3.63322C16.0178 3.56622 17.3838 3.88922 18.8178 5.32122V5.32222C19.2718 5.77722 19.3768 6.14022 19.3598 6.49022C19.3438 6.84222 19.2028 7.21822 18.7048 7.71622L17.4498 8.97122C16.9508 9.46922 16.5758 9.61022 16.2238 9.62722C15.8748 9.64222 15.5108 9.53822 15.0598 9.08922L14.5538 8.58322C14.0998 8.12922 13.7358 8.02222 13.3838 8.04022C13.0958 8.05522 12.8078 8.19922 12.7758 8.21622C12.2708 8.47722 9.91279 9.80922 8.29179 12.6412C8.23479 12.7272 8.03179 13.1082 8.02679 13.3972C8.02179 13.7492 8.11679 14.1122 8.56979 14.5662L9.07579 15.0722C9.52479 15.5232 9.62979 15.8862 9.61379 16.2372C9.59779 16.5892 9.45679 16.9652 8.95879 17.4622L7.70179 18.7162C7.20579 19.2162 6.82979 19.3562 6.47779 19.3732C6.12679 19.3902 5.76379 19.2852 5.31379 18.8352L5.30979 18.8312C3.87679 17.3962 3.55279 16.0302 3.61979 14.6152C3.66179 13.7322 3.89679 12.8112 4.55479 11.7562C4.55379 11.7542 4.66179 11.5892 4.71679 11.5092C4.75179 11.4572 4.78879 11.4042 4.82479 11.3512C7.83299 7.06362 11.4382 4.75892 11.7334 4.57432L11.7528 4.56222C12.8028 3.90822 13.7218 3.67422 14.6018 3.63322ZM13.1914 14.0624C12.8424 14.5804 12.6384 15.2044 12.6384 15.8744C12.6384 17.6664 14.0964 19.1244 15.8884 19.1244C16.5594 19.1244 17.1824 18.9204 17.7004 18.5714L13.1914 14.0624ZM15.8884 12.6244C15.2174 12.6244 14.5934 12.8294 14.0754 13.1784L18.5844 17.6874C18.9344 17.1694 19.1384 16.5454 19.1384 15.8744C19.1384 14.0824 17.6804 12.6244 15.8884 12.6244Z" fill="white"/>
</svg>
