<svg width="24" height="24" viewBox="0 0 24 24" fill="none" xmlns="http://www.w3.org/2000/svg">
<path d="M18 5.09082C19.6568 5.09082 21 6.43399 21 8.09082V16.8184C20.9999 18.4751 19.6568 19.8184 18 19.8184H6C4.34321 19.8184 3.00011 18.4751 3 16.8184V8.09082C3.00003 6.43399 4.34317 5.09082 6 5.09082H18ZM12 7.54492C9.28891 7.54493 7.09102 9.74306 7.09082 12.4541C7.09082 15.1653 9.28879 17.3633 12 17.3633C14.7112 17.3633 16.9092 15.1653 16.9092 12.4541C16.909 9.74306 14.7111 7.54492 12 7.54492ZM5.4541 6.72754C5.00257 6.72776 4.63695 7.09339 4.63672 7.54492C4.63672 7.99665 5.00242 8.36306 5.4541 8.36328C5.90597 8.36328 6.27246 7.99679 6.27246 7.54492C6.27222 7.09325 5.90583 6.72754 5.4541 6.72754Z" fill="white"/>
<path d="M11.9999 7.5459C14.7111 7.5459 16.909 9.74386 16.909 12.4551C16.9089 15.1662 14.711 17.3643 11.9999 17.3643C9.28885 17.3641 7.0908 15.1661 7.09068 12.4551C7.09068 9.74396 9.28877 7.54605 11.9999 7.5459ZM11.9999 9.18262C10.1924 9.18267 8.7274 10.6476 8.7274 12.4551C8.72749 14.2624 10.1925 15.7275 11.9999 15.7275C13.8073 15.7275 15.2722 14.2625 15.2723 12.4551C15.2723 10.6476 13.8073 9.18262 11.9999 9.18262Z" fill="white" fill-opacity="0.25"/>
<path d="M11.9998 9.18164C13.8073 9.18164 15.2723 10.6476 15.2723 12.4551C15.2721 14.2624 13.8072 15.7275 11.9998 15.7275C10.1925 15.7275 8.72749 14.2624 8.72733 12.4551C8.72733 10.6476 10.1924 9.18172 11.9998 9.18164ZM11.9998 10.8184C11.0962 10.8185 10.3641 11.5514 10.3641 12.4551C10.3643 13.3585 11.0963 14.0907 11.9998 14.0908C12.9034 14.0908 13.6363 13.3586 13.6365 12.4551C13.6365 11.5513 12.9035 10.8184 11.9998 10.8184Z" fill="white" fill-opacity="0.5"/>
</svg>
