<svg width="24" height="24" viewBox="0 0 24 24" fill="none" xmlns="http://www.w3.org/2000/svg">
<path d="M17.5958 9.42188C16.9738 9.42188 16.4708 8.91787 16.4708 8.29688C16.4708 7.67588 16.9738 7.17188 17.5958 7.17188C18.2168 7.17188 18.7208 7.67588 18.7208 8.29688C18.7208 8.91787 18.2168 9.42188 17.5958 9.42188Z" fill="white"/>
<path fill-rule="evenodd" clip-rule="evenodd" d="M18.4957 5.25C19.8767 5.25 20.9957 6.369 20.9957 7.75V16.666C20.9957 18.047 19.8767 19.166 18.4957 19.166H6.24969C4.86969 19.166 3.74969 18.047 3.74969 16.666V7.75C3.74969 6.369 4.86969 5.25 6.24969 5.25H18.4957ZM12.2476 9.208C10.5916 9.208 9.24759 10.551 9.24759 12.208C9.24759 13.865 10.5916 15.208 12.2476 15.208C13.9046 15.208 15.2476 13.865 15.2476 12.208C15.2476 10.551 13.9046 9.208 12.2476 9.208Z" stroke="white" stroke-width="1.5" stroke-linecap="round" stroke-linejoin="round"/>
</svg>
