<svg width="24" height="24" viewBox="0 0 24 24" fill="none" xmlns="http://www.w3.org/2000/svg">
<path d="M19 13V16.655C19 18.226 17.854 19.5 16.441 19.5H6.559C5.146 19.5 4 18.226 4 16.655V9.345C4 7.773 5.146 6.5 6.559 6.5H12" stroke="white" stroke-width="1.5" stroke-linecap="round" stroke-linejoin="round"/>
<path fill-rule="evenodd" clip-rule="evenodd" d="M11.5 10.5C10.12 10.5 9 11.62 9 13C9 14.38 10.12 15.5 11.5 15.5C12.88 15.5 14 14.38 14 13C14 11.62 12.88 10.5 11.5 10.5Z" stroke="white" stroke-width="1.5" stroke-linecap="round" stroke-linejoin="round"/>
<path d="M15.5 10.5C14.948 10.5 14.5 10.052 14.5 9.5C14.5 8.947 14.948 8.5 15.5 8.5C16.052 8.5 16.5 8.947 16.5 9.5C16.5 10.052 16.052 10.5 15.5 10.5Z" fill="white"/>
<path d="M19 9.75C19 7.817 17.433 6.25 15.5 6.25" stroke="white" stroke-width="1.5" stroke-linecap="round" stroke-linejoin="round"/>
<path d="M21.962 9.712C21.962 6.143 19.069 3.25 15.5 3.25" stroke="white" stroke-width="1.5" stroke-linecap="round" stroke-linejoin="round"/>
</svg>
