<svg width="24" height="24" viewBox="0 0 24 24" fill="none" xmlns="http://www.w3.org/2000/svg">
<path d="M15.8105 6.42969C16.7044 6.42969 17.5622 6.78503 18.1943 7.41699C18.8263 8.04908 19.1815 8.90696 19.1816 9.80078V17.1113C19.1814 18.0051 18.8263 18.8631 18.1943 19.4951C17.5622 20.1269 16.7043 20.4824 15.8105 20.4824H4.37109C3.47728 20.4823 2.6194 20.1271 1.9873 19.4951C1.35531 18.8631 1.00024 18.0051 1 17.1113V9.80078C1.00011 8.90696 1.35534 8.04908 1.9873 7.41699C2.61942 6.78488 3.47716 6.4298 4.37109 6.42969H15.8105ZM3.05273 12.7695V17.1113C3.05297 17.4609 3.1913 17.7968 3.43848 18.0439C3.68574 18.2911 4.0215 18.4296 4.37109 18.4297H15.8105C16.1603 18.4297 16.4968 18.2912 16.7441 18.0439C16.9913 17.7968 17.1296 17.4608 17.1299 17.1113V12.7695H3.05273ZM17.6367 3C20.4695 3 22.7673 5.29815 22.7676 8.13086V13.1709H20.7148V8.13086C20.7146 6.43144 19.3362 5.05371 17.6367 5.05371H8.59863V3H17.6367ZM4.37109 8.48242C4.02139 8.48253 3.68577 8.62087 3.43848 8.86816C3.19134 9.11543 3.05284 9.45119 3.05273 9.80078V10.0273H17.1299V9.80078C17.1298 9.45123 16.9912 9.11542 16.7441 8.86816C16.4968 8.62078 16.1604 8.48242 15.8105 8.48242H4.37109Z" fill="white"/>
</svg>
