<svg width="24" height="24" viewBox="0 0 24 24" fill="none" xmlns="http://www.w3.org/2000/svg">
<path d="M15.2861 12.6197C14.7788 12.6197 14.3681 12.209 14.3681 11.702C14.3681 11.1945 14.7788 10.7832 15.2861 10.7832C15.7923 10.7832 16.2046 11.1945 16.2046 11.702C16.2046 12.209 15.7923 12.6197 15.2861 12.6197ZM13.7858 15.0942C13.3078 15.0942 12.5148 14.7532 11.9998 14.253C11.4848 14.7532 10.6918 15.0942 10.2138 15.0942C9.93762 15.0942 9.71382 14.8705 9.71382 14.5942C9.71382 14.3182 9.93762 14.0942 10.2138 14.0942C10.6438 14.0942 11.4776 13.5145 11.4998 13.2667V13.2152C11.2363 13.0015 11.0083 12.6835 11.0083 12.452C11.0083 12.072 11.6218 12.069 11.9998 12.069C12.3801 12.069 12.9911 12.072 12.9911 12.452C12.9911 12.6835 12.7636 13.002 12.4998 13.2157V13.2677C12.5211 13.5137 13.3556 14.0942 13.7858 14.0942C14.0621 14.0942 14.2858 14.3182 14.2858 14.5942C14.2858 14.8705 14.0621 15.0942 13.7858 15.0942ZM8.71332 12.6197C8.20712 12.6197 7.79582 12.209 7.79582 11.702C7.79582 11.1945 8.20712 10.7832 8.71332 10.7832C9.22062 10.7832 9.63132 11.1945 9.63132 11.702C9.63132 12.209 9.22062 12.6197 8.71332 12.6197ZM18.1436 4.81547C17.9971 4.21917 17.3396 3.89817 16.7856 4.16317C16.0358 4.52217 15.1411 5.24667 13.5608 6.70967L13.5508 6.70517C12.5501 6.46367 11.4498 6.46367 10.4493 6.70517L10.4393 6.70967C8.87412 5.26097 7.98612 4.53647 7.23612 4.17397C6.67412 3.90247 6.00512 4.20967 5.85612 4.81567C5.67532 5.55097 3.76482 10.4485 4.15232 13.842C4.50412 16.9125 7.60462 19.9045 11.9736 19.9292L11.9733 19.9302C11.9823 19.9302 11.9911 19.9297 12.0001 19.9297C12.0096 19.9297 12.0183 19.9302 12.0273 19.9302L12.0271 19.9292C16.3956 19.9045 19.4966 16.9125 19.8476 13.842C20.2356 10.4485 18.3243 5.55017 18.1436 4.81547Z" fill="white"/>
</svg>
