<svg width="24" height="24" viewBox="0 0 24 24" fill="none" xmlns="http://www.w3.org/2000/svg">
<path d="M5 15C5 14.4477 5.44772 14 6 14C6.55228 14 7 14.4477 7 15V18C7 18.5523 6.55228 19 6 19C5.44772 19 5 18.5523 5 18V15Z" fill="white" fill-opacity="0.8"/>
<path d="M9 12C9 11.4477 9.44772 11 10 11C10.5523 11 11 11.4477 11 12V18C11 18.5523 10.5523 19 10 19C9.44772 19 9 18.5523 9 18V12Z" fill="white" fill-opacity="0.8"/>
<path d="M13 9C13 8.44772 13.4477 8 14 8C14.5523 8 15 8.44772 15 9V18C15 18.5523 14.5523 19 14 19C13.4477 19 13 18.5523 13 18V9Z" fill="white" fill-opacity="0.8"/>
<path d="M17 6C17 5.44772 17.4477 5 18 5C18.5523 5 19 5.44772 19 6V18C19 18.5523 18.5523 19 18 19C17.4477 19 17 18.5523 17 18V6Z" fill="white" fill-opacity="0.8"/>
</svg>
