<svg width="24" height="24" viewBox="0 0 24 24" fill="none" xmlns="http://www.w3.org/2000/svg">
<path d="M4.43018 17.3429L8.26368 13.7278C8.72428 13.2969 9.43458 13.2747 9.92178 13.6581L10.0226 13.7465L11.56 15.2516L13.0724 13.8047C13.3445 13.5443 13.7616 13.5292 14.0503 13.7535L14.1328 13.8279C14.3932 14.1 14.4083 14.5171 14.184 14.8058L14.1096 14.8884L12.4325 16.4933C11.9739 16.9288 11.2602 16.9546 10.7731 16.5701L10.6724 16.4815L9.12998 14.9716L4.93098 18.9324C5.21808 19.2259 5.60658 19.4199 6.03738 19.4553L6.18018 19.4611H17.1802C18.0929 19.4611 18.8508 18.7488 18.9244 17.8539L18.9302 17.7111V12.7931C18.9302 12.3789 19.266 12.0431 19.6802 12.0431C20.0599 12.0431 20.3737 12.3253 20.4234 12.6913L20.4302 12.7931V17.7111C20.4302 19.4386 19.0684 20.86 17.3641 20.9559L17.1802 20.9611H6.18018C4.45268 20.9611 3.03128 19.5993 2.93538 17.895L2.93018 17.7111V6.71109C2.93018 4.98359 4.29198 3.56219 5.99628 3.46629L6.18018 3.46109H11.3912C11.8054 3.46109 12.1412 3.79689 12.1412 4.21109C12.1412 4.59079 11.859 4.90459 11.493 4.95429L11.3912 4.96109H6.18018C5.26748 4.96109 4.50958 5.67339 4.43598 6.56829L4.43018 6.71109V17.3429ZM17.3451 3.17199C18.0791 2.43629 19.2689 2.43629 20.0021 3.17119L21.1999 4.36799C21.932 5.10169 21.932 6.28969 21.1993 7.02399L17.1903 11.033C16.9573 11.2661 16.6945 11.4595 16.4084 11.6025L16.3586 11.6321L16.3395 11.6411L16.241 11.6667L13.189 12.287C12.511 12.4234 11.9478 11.8619 12.0806 11.1805L12.5279 8.96769L12.7209 8.05549L12.7321 8.02329L12.8843 7.74939C13.009 7.54649 13.1599 7.35719 13.3331 7.18289L17.3451 3.17199ZM14.1293 8.63369L13.716 10.6506L15.7475 10.2396C15.759 10.2394 15.767 10.2407 15.7603 10.2471L15.873 10.1828C15.962 10.1245 16.0481 10.054 16.1297 9.97239L20.1381 5.96399C20.286 5.81569 20.286 5.57569 20.1389 5.42829L18.9411 4.23139C18.7931 4.08309 18.5549 4.08309 18.4063 4.23209L14.3953 8.24209C14.2737 8.36439 14.1763 8.49639 14.1114 8.62479L14.123 8.60459C14.127 8.60109 14.1291 8.60239 14.1301 8.60599L14.1293 8.63369ZM8.72178 7.11539C10.101 7.11539 11.2218 8.23619 11.2218 9.61539C11.2218 10.9946 10.101 12.1154 8.72178 12.1154C7.34258 12.1154 6.22178 10.9946 6.22178 9.61539C6.22178 8.23619 7.34258 7.11539 8.72178 7.11539ZM8.72178 8.61539C8.17098 8.61539 7.72178 9.06459 7.72178 9.61539C7.72178 10.1662 8.17098 10.6154 8.72178 10.6154C9.27258 10.6154 9.72178 10.1662 9.72178 9.61539C9.72178 9.06459 9.27258 8.61539 8.72178 8.61539Z" fill="white"/>
</svg>
