<svg width="24" height="24" viewBox="0 0 24 24" fill="none" xmlns="http://www.w3.org/2000/svg">
<path d="M6.8281 10.6873C7.171 10.3444 7.7268 10.3456 8.0697 10.6885L11.1062 13.7355L15.9319 8.8958C16.2748 8.5518 16.8294 8.5506 17.1734 8.8935C17.5163 9.2363 17.5175 9.791 17.1758 10.1338L12.0962 15.2286C11.8329 15.4931 11.4818 15.6394 11.1074 15.6394H11.1062C10.7318 15.6394 10.3807 15.4931 10.1163 15.2286L6.8258 11.9288C6.4841 11.5848 6.4853 11.029 6.8281 10.6873ZM21.8002 12.0002C21.8002 6.5965 17.4051 2.2002 12.0002 2.2002C6.5965 2.2002 2.2002 6.5965 2.2002 12.0002C2.2002 17.4039 6.5965 21.8002 12.0002 21.8002C17.4051 21.8002 21.8002 17.4039 21.8002 12.0002Z" fill="white"/>
</svg>
