<svg width="24" height="24" viewBox="0 0 24 24" fill="none" xmlns="http://www.w3.org/2000/svg">
<path fill-rule="evenodd" clip-rule="evenodd" d="M15.451 11.4022V14.3922C14.734 14.6492 14.2221 15.3322 14.2221 16.1372C14.2221 17.1612 15.0521 17.9922 16.076 17.9922C16.881 17.9922 17.5631 17.4782 17.8201 16.7622H20.8101C20.5041 19.1052 18.5041 20.9162 16.076 20.9162C13.4361 20.9162 11.2971 18.7762 11.2971 16.1372C11.2971 13.7092 13.107 11.7092 15.451 11.4022ZM10.6443 12.9916C10.1063 13.9166 9.79643 14.9906 9.79643 16.1366C9.79643 17.4076 10.1764 18.5906 10.8294 19.5806H4.69033C3.86533 19.5806 3.19043 18.9056 3.19043 18.0806L3.94043 12.9916H10.6443ZM16.701 11.4022C18.84 11.6832 20.5301 13.3732 20.8101 15.5122H17.8201C17.6341 14.9912 17.222 14.5792 16.701 14.3922V11.4022ZM11.3581 3.08398C12.183 3.08398 12.8581 3.75798 12.8581 4.58398V7.65198H15.94C17.315 7.65198 18.44 8.77698 18.44 10.152V10.321C17.7101 10.023 16.912 9.85698 16.076 9.85698C14.4531 9.85698 12.9721 10.477 11.855 11.491H3.94013V10.152C3.94013 8.77698 5.06503 7.65198 6.44003 7.65198H9.52203V4.58398C9.52203 3.75798 10.197 3.08398 11.022 3.08398H11.3581Z" fill="white"/>
</svg>
