<svg width="24" height="24" viewBox="0 0 24 24" fill="none" xmlns="http://www.w3.org/2000/svg">
<path d="M13.9896 19.795H6.64058C5.71358 19.795 5.00858 18.962 5.16058 18.048L5.71058 14.754C5.80158 14.21 5.84758 13.658 5.84758 13.106V11.441C5.84658 10.336 6.74258 9.43996 7.84758 9.43996H10.8486V5.70996C10.8486 4.88196 11.5196 4.20996 12.3486 4.20996H12.3906C13.2186 4.20996 13.8906 4.88196 13.8906 5.70996V9.43996H16.8426C17.9396 9.43996 18.8316 10.324 18.8416 11.421L18.8476 11.982M5.85368 12.4356H15.3287M17.6563 12.2906V14.5556M19.6772 16.649H21.9422M22.4688 16.649C22.4688 19.307 20.3138 21.461 17.6568 21.461C14.9988 21.461 12.8438 19.307 12.8438 16.649C12.8438 13.991 14.9988 11.837 17.6568 11.837C20.3138 11.837 22.4688 13.991 22.4688 16.649ZM17.6563 18.4888C16.6413 18.4888 15.8163 17.6638 15.8163 16.6488C15.8163 15.6348 16.6413 14.8088 17.6563 14.8088C18.6713 14.8088 19.4963 15.6348 19.4963 16.6488C19.4963 17.6638 18.6713 18.4888 17.6563 18.4888Z" stroke="white" stroke-width="1.5" stroke-linecap="round" stroke-linejoin="round"/>
</svg>
