<svg width="24" height="24" viewBox="0 0 24 24" fill="none" xmlns="http://www.w3.org/2000/svg">
<path fill-rule="evenodd" clip-rule="evenodd" d="M19.625 13.6596V18.7485C19.625 19.5735 18.95 20.2485 18.125 20.2485H14.582L15.047 18.8545L16.168 18.3175C16.278 18.2645 16.278 18.1095 16.168 18.0575L15.047 17.5196L14.513 15.9155C14.469 15.7846 14.282 15.7846 14.238 15.9155L13.704 17.5196L12.582 18.0575C12.473 18.1095 12.473 18.2645 12.582 18.3175L13.704 18.8555L14.168 20.2485H5.875C5.05 20.2485 4.375 19.5735 4.375 18.7485L5.125 13.6596H19.625ZM9.505 14.2385C9.47 14.1325 9.32 14.1325 9.284 14.2385L8.854 15.5316L7.948 15.9666C7.861 16.0085 7.861 16.1335 7.948 16.1755L8.854 16.6095L9.284 17.9035C9.32 18.0096 9.47 18.0096 9.505 17.9035L9.937 16.6095L10.841 16.1755C10.929 16.1335 10.929 16.0085 10.841 15.9666L9.937 15.5326L9.505 14.2385ZM12.5432 3.75195C13.3682 3.75195 14.0432 4.42705 14.0432 5.25195V8.31995H17.1252C18.5002 8.31995 19.6252 9.44495 19.6252 10.82V12.159H5.1252V10.82C5.1252 9.44495 6.2502 8.31995 7.6252 8.31995H10.7072V5.25195C10.7072 4.42705 11.3822 3.75195 12.2072 3.75195H12.5432Z" fill="white"/>
</svg>
