<svg width="24" height="24" viewBox="0 0 24 24" fill="none" xmlns="http://www.w3.org/2000/svg">
<path d="M5.85367 12.4352H18.8537M5.16107 18.048L5.71107 14.754C5.80207 14.209 5.84807 13.658 5.84707 13.106V11.44C5.84707 10.336 6.74207 9.43996 7.84707 9.43996H10.8481V5.70996C10.8481 4.88096 11.5201 4.20996 12.3481 4.20996H12.3901C13.2191 4.20996 13.8901 4.88096 13.8901 5.70996V9.43996H16.8471C17.9511 9.43996 18.8471 10.335 18.8471 11.44V18.295C18.8481 19.123 18.1761 19.795 17.3471 19.795H6.64007C5.71307 19.795 5.00807 18.962 5.16107 18.048Z" stroke="white" stroke-width="1.5" stroke-linecap="round" stroke-linejoin="round"/>
<path d="M14.3599 14.0365C14.4059 13.9025 14.5949 13.9025 14.6389 14.0365L15.1839 15.6694L16.3249 16.2174C16.4359 16.2704 16.4359 16.4284 16.3249 16.4804L15.1839 17.0284L14.6389 18.6614C14.5949 18.7954 14.4059 18.7954 14.3599 18.6614L13.8169 17.0284L12.6739 16.4804C12.5639 16.4284 12.5639 16.2704 12.6739 16.2174L13.8169 15.6685L14.3599 14.0365ZM9.38709 13.4857C9.42309 13.3797 9.57309 13.3797 9.60809 13.4857L10.0401 14.7797L10.9441 15.2137C11.0321 15.2557 11.0321 15.3808 10.9441 15.4228L10.0401 15.8568L9.60809 17.1507C9.57309 17.2567 9.42309 17.2567 9.38709 17.1507L8.95709 15.8568L8.05109 15.4228C7.96409 15.3808 7.96409 15.2557 8.05109 15.2137L8.95709 14.7788L9.38709 13.4857Z" fill="white"/>
</svg>
