<svg width="24" height="24" viewBox="0 0 24 24" fill="none" xmlns="http://www.w3.org/2000/svg">
<path d="M13.06 11.9997L19.031 6.03073C19.324 5.73773 19.324 5.26373 19.031 4.97073C18.738 4.67773 18.262 4.67773 17.97 4.97073L11.999 10.9387L6.03002 4.97073C5.73702 4.67773 5.26202 4.67773 4.96902 4.97073C4.67602 5.26373 4.67602 5.73773 4.96902 6.03073L10.939 11.9997L4.96902 17.9707C4.67602 18.2637 4.67602 18.7377 4.96902 19.0307C5.11602 19.1777 5.30702 19.2497 5.49902 19.2497C5.69202 19.2497 5.88302 19.1777 6.03002 19.0307L11.999 13.0617L17.97 19.0307C18.116 19.1777 18.308 19.2497 18.5 19.2497C18.692 19.2497 18.884 19.1777 19.031 19.0307C19.324 18.7377 19.324 18.2637 19.031 17.9707L13.06 11.9997Z" fill="white"/>
</svg>
