<svg width="24" height="24" viewBox="0 0 24 24" fill="none" xmlns="http://www.w3.org/2000/svg">
<path d="M19.8683 17.1424C19.7687 18.664 18.4955 19.876 16.9499 19.876H7.04989C5.43949 19.876 4.12549 18.5608 4.12549 16.9504V7.05038C4.12549 5.43998 5.43949 4.12598 7.04989 4.12598H16.9499C18.5603 4.12598 19.8755 5.43998 19.8755 7.05038V16.9504L19.8683 17.1424ZM18.5255 7.05038C18.5255 6.18518 17.8151 5.47598 16.9499 5.47598H7.04989C6.18469 5.47598 5.47549 6.18518 5.47549 7.05038V16.9504C5.47549 17.8156 6.18469 18.526 7.04989 18.526H16.9499C17.8151 18.526 18.5255 17.8156 18.5255 16.9504V7.05038Z" fill="white"/>
<path d="M16.9118 6.87873C17.1458 7.11393 17.1854 7.45353 16.9994 7.63953L13.955 10.6827L16.2026 10.6359C16.4642 10.6299 16.6742 10.8147 16.709 11.0619L16.7126 11.1579C16.7006 11.4531 16.451 11.6967 16.1558 11.7039L12.5678 11.7795C12.2774 11.7855 12.0506 11.5587 12.0578 11.2683L12.1334 7.68033C12.1394 7.38633 12.3842 7.13673 12.6782 7.12353C12.9734 7.11033 13.2074 7.33953 13.2014 7.63353L13.1558 9.78513L16.151 6.79113C16.337 6.60513 16.6778 6.64473 16.9118 6.87873Z" fill="white"/>
<path d="M6.82427 17.0015C6.59027 16.7675 6.55067 16.4267 6.73547 16.2407L9.77987 13.1987L7.53347 13.2455C7.27067 13.2503 7.06187 13.0667 7.02707 12.8183L7.02227 12.7223C7.03547 12.4271 7.28507 12.1835 7.58027 12.1775L11.1683 12.1007C11.4575 12.0947 11.6843 12.3215 11.6783 12.6119L11.6027 16.1999C11.5967 16.4951 11.3519 16.7435 11.0567 16.7567C10.7627 16.7699 10.5287 16.5407 10.5347 16.2467L10.5803 14.0951L7.58507 17.0903C7.39907 17.2751 7.05827 17.2355 6.82427 17.0015Z" fill="white"/>
</svg>
