<svg width="24" height="24" viewBox="0 0 24 24" fill="none" xmlns="http://www.w3.org/2000/svg">
<path d="M10.4604 9.03587L4.70337 14.7929C4.69537 14.8009 4.68837 14.8089 4.68037 14.8169C4.53337 14.9829 4.41837 15.0979 4.31637 15.1989C3.86437 15.6529 3.69437 15.8639 2.99237 17.4799C2.86937 17.7629 2.93137 18.0929 3.14937 18.3109L3.68937 18.8509C3.90637 19.0689 4.23737 19.1299 4.52037 19.0079C6.13537 18.3059 6.34737 18.1359 6.80037 17.6829C6.90237 17.5819 7.01737 17.4669 7.18337 17.3189C7.19137 17.3119 7.19937 17.3049 7.20737 17.2969L12.9634 11.5399M8.96767 7.76487L14.2317 13.0359M13.3642 11.9993C13.3642 11.9993 13.3062 10.2553 14.9992 9.58927C14.9992 9.58927 16.9312 9.22927 18.0762 8.14127C18.1052 8.11227 18.1342 8.08427 18.1622 8.05627C19.2552 6.91827 19.4752 5.16527 18.1862 3.87527L18.1242 3.81327C16.8342 2.52427 15.0812 2.74427 13.9442 3.83727C13.9152 3.86527 13.8872 3.89527 13.8582 3.92427C12.7712 5.06827 12.4102 7.00027 12.4102 7.00027C11.7442 8.69327 10.0012 8.63627 10.0012 8.63627" stroke="white" stroke-width="1.65" stroke-linecap="round" stroke-linejoin="round"/>
</svg>
