<svg width="24" height="24" viewBox="0 0 24 24" fill="none" xmlns="http://www.w3.org/2000/svg">
<path fill-rule="evenodd" clip-rule="evenodd" d="M7.66968 4.44434V19.6329C8.91848 20.3818 10.3749 20.817 12.0393 20.817V3.26074C10.3749 3.26074 8.91848 3.69664 7.66968 4.44434Z" fill="white"/>
<path fill-rule="evenodd" clip-rule="evenodd" d="M16.4087 4.44434V19.6329C18.9052 18.1141 20.7782 15.2865 20.7782 12.0387C20.7782 8.79224 18.9052 5.96384 16.4087 4.44434Z" fill="white"/>
<path fill-rule="evenodd" clip-rule="evenodd" d="M7.66965 4.44434V19.6329C5.17315 18.1141 3.30005 15.2865 3.30005 12.0387C3.30005 8.79224 5.17315 5.96384 7.66965 4.44434Z" fill="white"/>
<path fill-rule="evenodd" clip-rule="evenodd" d="M12.0393 3.26074V20.8169C13.496 20.8169 14.9516 20.3818 16.4086 19.6328V4.44424C14.9516 3.69664 13.496 3.26074 12.0393 3.26074Z" fill="white"/>
</svg>
