<svg width="24" height="24" viewBox="0 0 24 24" fill="none" xmlns="http://www.w3.org/2000/svg">
<path fill-rule="evenodd" clip-rule="evenodd" d="M16.364 7.60834L18.326 5.64634C16.706 4.02634 14.465 3.02734 11.999 3.02734V5.80834C13.7 5.80834 15.248 6.49234 16.364 7.60834Z" fill="white"/>
<path fill-rule="evenodd" clip-rule="evenodd" d="M18.164 11.9735H20.945C20.945 9.50748 19.946 7.26648 18.326 5.64648L16.364 7.60848C17.48 8.73348 18.164 10.2725 18.164 11.9735Z" fill="white"/>
<path fill-rule="evenodd" clip-rule="evenodd" d="M11.9991 5.80834V3.02734C9.53312 3.02734 7.29212 4.03534 5.67212 5.64634L7.63412 7.60834C8.75012 6.49234 10.2981 5.80834 11.9991 5.80834Z" fill="white"/>
<path fill-rule="evenodd" clip-rule="evenodd" d="M7.63398 7.60848L5.67198 5.64648C4.05198 7.26648 3.05298 9.50748 3.05298 11.9735H5.83398C5.83398 10.2725 6.51798 8.73348 7.63398 7.60848Z" fill="white"/>
<path fill-rule="evenodd" clip-rule="evenodd" d="M11.999 18.1379V20.9189C14.465 20.9189 16.697 19.9109 18.326 18.2999L16.364 16.3379C15.248 17.4539 13.7 18.1379 11.999 18.1379Z" fill="white"/>
<path fill-rule="evenodd" clip-rule="evenodd" d="M18.164 11.9727C18.164 13.6737 17.471 15.2217 16.355 16.3377L18.317 18.2997C19.937 16.6797 20.936 14.4477 20.936 11.9727H18.164Z" fill="white"/>
<path fill-rule="evenodd" clip-rule="evenodd" d="M7.63412 16.3379L5.67212 18.2999C7.29212 19.9199 9.52412 20.9189 11.9991 20.9189V18.1379C10.2981 18.1379 8.75012 17.4539 7.63412 16.3379Z" fill="white"/>
<path fill-rule="evenodd" clip-rule="evenodd" d="M5.83398 11.9727H3.05298C3.05298 14.4387 4.05198 16.6797 5.67198 18.2997L7.63398 16.3377C6.51798 15.2217 5.83398 13.6737 5.83398 11.9727Z" fill="white"/>
</svg>
