<svg width="24" height="24" viewBox="0 0 24 24" fill="none" xmlns="http://www.w3.org/2000/svg">
<path fill-rule="evenodd" clip-rule="evenodd" d="M11.9805 6.5C11.1505 6.5 10.4755 7.175 10.4755 8.004C10.4755 8.833 11.1505 9.509 11.9805 9.509C12.8105 9.509 13.4855 8.833 13.4855 8.004C13.4855 7.175 12.8105 6.5 11.9805 6.5ZM11.9805 11.009C10.3235 11.009 8.97549 9.661 8.97549 8.004C8.97549 6.348 10.3235 5 11.9805 5C13.6375 5 14.9855 6.348 14.9855 8.004C14.9855 9.661 13.6375 11.009 11.9805 11.009ZM6.29949 9.088C5.89149 9.088 5.55949 9.42 5.55949 9.828C5.55949 10.235 5.89149 10.566 6.29949 10.566C6.70749 10.566 7.03849 10.235 7.03849 9.828C7.03849 9.42 6.70749 9.088 6.29949 9.088ZM6.29949 12.066C5.06449 12.066 4.05949 11.062 4.05949 9.828C4.05949 8.593 5.06449 7.588 6.29949 7.588C7.53449 7.588 8.53849 8.593 8.53849 9.828C8.53849 11.062 7.53449 12.066 6.29949 12.066ZM17.6615 9.088C17.2535 9.088 16.9215 9.42 16.9215 9.828C16.9215 10.235 17.2535 10.566 17.6615 10.566C18.0685 10.566 18.4005 10.235 18.4005 9.828C18.4005 9.42 18.0685 9.088 17.6615 9.088ZM17.6615 12.066C16.4265 12.066 15.4215 11.062 15.4215 9.828C15.4215 8.593 16.4265 7.588 17.6615 7.588C18.8955 7.588 19.9005 8.593 19.9005 9.828C19.9005 11.062 18.8955 12.066 17.6615 12.066ZM11.9805 13.283C10.1125 13.283 8.47349 14.651 8.47349 16.211V17.018L15.4535 17.051L15.4865 16.211C15.4865 14.651 13.8475 13.283 11.9805 13.283ZM16.9865 17.051H20.0055L19.9595 16.125C19.9595 15.235 18.9765 14.241 17.6615 14.241C17.2795 14.241 16.9095 14.324 16.5745 14.482C16.8385 15.017 16.9865 15.602 16.9865 16.211V17.018V17.051ZM6.29949 14.241C4.98349 14.241 4.00049 15.235 4.00049 16.125V17.097L6.97449 17.059C6.97349 17.045 6.97349 17.031 6.97349 17.018V16.211C6.97349 15.602 7.12149 15.017 7.38649 14.482C7.05149 14.323 6.68149 14.241 6.29949 14.241ZM20.0055 18.551H16.3365C16.2065 18.551 16.0845 18.518 15.9765 18.459C15.8135 18.519 15.6365 18.551 15.4535 18.551H8.50749C8.32449 18.551 8.14749 18.519 7.98349 18.459C7.87649 18.518 7.75349 18.551 7.62349 18.551H3.95449C3.15249 18.551 2.50049 17.898 2.50049 17.097V16.125C2.50049 14.291 4.24049 12.741 6.29949 12.741C7.00449 12.741 7.68449 12.919 8.28549 13.259C9.20949 12.358 10.5355 11.783 11.9805 11.783C13.4255 11.783 14.7515 12.358 15.6755 13.259C16.2775 12.919 16.9575 12.741 17.6615 12.741C19.7205 12.741 21.4595 14.291 21.4595 16.125V17.097C21.4595 17.898 20.8075 18.551 20.0055 18.551Z" fill="white"/>
</svg>
