<svg width="24" height="24" viewBox="0 0 24 24" fill="none" xmlns="http://www.w3.org/2000/svg">
<path d="M15.7339 17.1868H18.8788C19.2122 17.1868 19.4822 16.9168 19.4822 16.5833V15.7502C19.4822 14.5793 18.3122 13.4925 16.8688 13.4925C16.2722 13.4925 15.7228 13.6776 15.2831 13.9785M8.26538 17.1868H5.12052C4.78709 17.1868 4.51709 16.9168 4.51709 16.5833V15.7502C4.51709 14.5793 5.68709 13.4925 7.13052 13.4925C7.72709 13.4925 8.27652 13.6776 8.71623 13.9785M15.6481 15.8241C15.6481 14.1886 14.0144 12.6715 12.0001 12.6715C9.98498 12.6715 8.35126 14.1886 8.35126 15.8241V16.5149C8.35126 16.8861 8.65212 17.1869 9.02326 17.1869H14.9761C15.3473 17.1869 15.6481 16.8861 15.6481 16.5149V15.8241ZM13.9326 8.78942C13.9326 9.85742 13.0669 10.7223 11.9998 10.7223C10.9326 10.7223 10.0669 9.85742 10.0669 8.78942C10.0669 7.72142 10.9326 6.85742 11.9998 6.85742C13.0669 6.85742 13.9326 7.72142 13.9326 8.78942ZM18.1459 10.3527C18.1459 11.0573 17.5742 11.629 16.8688 11.629C16.1642 11.629 15.5925 11.0573 15.5925 10.3527C15.5925 9.64725 16.1642 9.07554 16.8688 9.07554C17.5742 9.07554 18.1459 9.64725 18.1459 10.3527ZM5.85338 10.3527C5.85338 11.0573 6.42509 11.629 7.13052 11.629C7.83509 11.629 8.4068 11.0573 8.4068 10.3527C8.4068 9.64725 7.83509 9.07554 7.13052 9.07554C6.42509 9.07554 5.85338 9.64725 5.85338 10.3527Z" stroke="white" stroke-width="1.5" stroke-linecap="round" stroke-linejoin="round"/>
</svg>
