<svg width="24" height="24" viewBox="0 0 24 24" fill="none" xmlns="http://www.w3.org/2000/svg">
<path d="M12 12.0604C13.7494 12.0604 15.168 13.3787 15.168 14.7981V16.1455C15.168 16.4755 14.9005 16.743 14.5705 16.743H9.42939C9.09939 16.743 8.83196 16.4755 8.83196 16.1455V14.7981C8.83196 13.3787 10.2505 12.0604 12 12.0604ZM8.28853 12.9887C7.95339 13.5304 7.76139 14.1484 7.76139 14.7972V16.1455C7.76139 16.3564 7.80082 16.5561 7.87282 16.7421L6.51767 16.743C6.23996 16.743 6.01367 16.5158 6.01367 16.2381V15.135C6.01367 14.0764 7.01396 13.0915 8.28853 12.9887ZM15.7105 12.9887C16.986 13.0915 17.9862 14.0764 17.9862 15.135V16.2381C17.9862 16.5158 17.76 16.743 17.4814 16.743H16.1297C16.1982 16.5561 16.2385 16.3564 16.2385 16.1455V14.7972C16.2385 14.1484 16.0465 13.5304 15.7105 12.9887ZM8.37253 9.61581C9.06853 9.61581 9.63424 10.1807 9.63424 10.8775C9.63424 11.5752 9.06853 12.1401 8.37253 12.1401C7.67567 12.1401 7.10996 11.5752 7.10996 10.8775C7.10996 10.1807 7.67567 9.61581 8.37253 9.61581ZM15.6265 9.61581C16.3242 9.61581 16.89 10.1807 16.89 10.8775C16.89 11.5752 16.3242 12.1401 15.6265 12.1401C14.9305 12.1401 14.3657 11.5752 14.3657 10.8775C14.3657 10.1807 14.9305 9.61581 15.6265 9.61581ZM11.9991 7.25781C13.0517 7.25781 13.9037 8.10981 13.9037 9.16153C13.9037 10.2132 13.0517 11.0652 11.9991 11.0652C10.9482 11.0652 10.0962 10.2132 10.0962 9.16153C10.0962 8.10981 10.9482 7.25781 11.9991 7.25781Z" fill="white"/>
</svg>
