<svg width="24" height="24" viewBox="0 0 24 24" fill="none" xmlns="http://www.w3.org/2000/svg">
<path fill-rule="evenodd" clip-rule="evenodd" d="M7.4021 9.5C7.8161 9.5 8.1521 9.836 8.1521 10.25C8.1521 10.664 7.8161 11 7.4021 11C6.9881 11 6.6521 10.664 6.6521 10.25C6.6521 9.836 6.9881 9.5 7.4021 9.5ZM7.4021 6.5C7.8161 6.5 8.1521 6.836 8.1521 7.25C8.1521 7.664 7.8161 8 7.4021 8C6.9881 8 6.6521 7.664 6.6521 7.25C6.6521 6.836 6.9881 6.5 7.4021 6.5ZM6.6521 13.489C6.6521 13.075 6.9881 12.739 7.4021 12.739C7.8161 12.739 8.1521 13.075 8.1521 13.489V15.163C8.1521 15.577 7.8161 15.913 7.4021 15.913C6.9881 15.913 6.6521 15.577 6.6521 15.163V13.489Z" fill="white"/>
<path d="M3.6001 7.5V17.25C3.6001 18.625 4.7251 19.75 6.1001 19.75H18.6001C19.9751 19.75 21.1001 18.625 21.1001 17.25V9.91C21.1001 8.535 19.9751 7.41 18.6001 7.41H13.4021C13.0431 7.41 12.9231 7.343 12.6781 7.078L10.9541 5.48C10.7091 5.216 10.2141 5 9.8541 5H6.1001C4.7251 5 3.6001 6.125 3.6001 7.5Z" stroke="white" stroke-width="1.5" stroke-linecap="round" stroke-linejoin="round"/>
</svg>
