<svg width="24" height="24" viewBox="0 0 24 24" fill="none" xmlns="http://www.w3.org/2000/svg">
<path d="M13.4679 14.1462C13.3269 14.2861 12.7909 14.6911 12.5929 14.7311L8.81692 15.4721C8.61792 15.5112 8.48692 15.3801 8.52592 15.1812L9.26692 11.4072C9.30592 11.2081 9.71192 10.6722 9.85192 10.5322" stroke="white" stroke-width="1.5" stroke-linecap="round" stroke-linejoin="round"/>
<path fill-rule="evenodd" clip-rule="evenodd" d="M13.7481 13.8694C13.4561 14.1614 12.9791 14.1614 12.6871 13.8694L10.1311 11.3123C9.83911 11.0203 9.83911 10.5433 10.1311 10.2513L16.2051 4.17825C16.7751 3.60725 17.7011 3.60725 18.2711 4.17825L19.8221 5.72835C20.3931 6.29935 20.3931 7.22425 19.8221 7.79525L13.7481 13.8694Z" stroke="white" stroke-width="1.5" stroke-linecap="round" stroke-linejoin="round"/>
<path d="M19.75 12.2499V17.7499C19.75 19.1249 18.625 20.2499 17.25 20.2499H6.25C4.875 20.2499 3.75 19.1249 3.75 17.7499V6.75C3.75 5.375 4.875 4.25 6.25 4.25H11.75" stroke="white" stroke-width="1.5" stroke-linecap="round" stroke-linejoin="round"/>
</svg>
