<svg width="24" height="24" viewBox="0 0 24 24" fill="none" xmlns="http://www.w3.org/2000/svg">
<path fill-rule="evenodd" clip-rule="evenodd" d="M8.71976 12.822L10.6788 14.781L15.9928 9.466L14.0338 7.506L8.71976 12.822ZM7.97176 14.195L7.65176 15.844L9.29776 15.522L7.97176 14.195ZM6.94876 17.492C6.69776 17.492 6.45676 17.397 6.28076 17.222C6.05776 17.001 5.96276 16.676 6.02576 16.351L6.64476 13.199C6.73676 12.726 7.33076 12.09 7.33676 12.084C7.35376 12.067 7.36976 12.051 7.38776 12.037C7.40776 12.012 7.42976 11.99 7.45176 11.968L12.9748 6.446C13.5608 5.862 14.5108 5.862 15.0948 6.446L17.0538 8.405C17.3368 8.687 17.4938 9.064 17.4938 9.466C17.4938 9.867 17.3368 10.244 17.0528 10.527L11.5328 16.049C11.5078 16.073 11.4828 16.096 11.4568 16.118C11.4448 16.133 11.4308 16.147 11.4168 16.161C11.4108 16.167 10.7748 16.76 10.3048 16.853L7.14876 17.472C7.08176 17.485 7.01476 17.492 6.94876 17.492ZM6.24976 4.5C5.28476 4.5 4.49976 5.285 4.49976 6.25V17.25C4.49976 18.215 5.28476 19 6.24976 19H17.2498C18.2148 19 18.9998 18.215 18.9998 17.25V6.25C18.9998 5.285 18.2148 4.5 17.2498 4.5H6.24976ZM17.2498 20.5H6.24976C4.45776 20.5 2.99976 19.042 2.99976 17.25V6.25C2.99976 4.458 4.45776 3 6.24976 3H17.2498C19.0418 3 20.4998 4.458 20.4998 6.25V17.25C20.4998 19.042 19.0418 20.5 17.2498 20.5Z" fill="white"/>
</svg>
