<svg width="24" height="24" viewBox="0 0 24 24" fill="none" xmlns="http://www.w3.org/2000/svg">
<path fill-rule="evenodd" clip-rule="evenodd" d="M17.536 7C17.369 7 17.202 7.053 17.04 7.158L12.41 10.587V8.066C12.41 7.52 12.036 7.233 11.665 7.233C11.498 7.233 11.331 7.286 11.17 7.392L6.5 11.141V7.768C6.5 7.353 6.164 7.018 5.75 7.018C5.336 7.018 5 7.353 5 7.768V16.018C5 16.432 5.336 16.768 5.75 16.768C6.164 16.768 6.5 16.432 6.5 16.018V12.643L11.17 16.394C11.332 16.498 11.498 16.551 11.665 16.551C12.036 16.551 12.41 16.265 12.41 15.717V13.196L17.04 16.627C17.202 16.731 17.369 16.784 17.536 16.784C17.907 16.784 18.28 16.498 18.28 15.95V7.833C18.28 7.286 17.907 7 17.536 7Z" fill="white"/>
</svg>
