<svg width="24" height="24" viewBox="0 0 24 24" fill="none" xmlns="http://www.w3.org/2000/svg">
<path d="M12.469 16.1741L13.597 17.3011L14.682 16.2161M20.529 16.7041L19.402 15.5771L18.317 16.6621" stroke="white" stroke-width="1.25" stroke-linecap="round" stroke-linejoin="round"/>
<path d="M18.32 14.087C17.816 13.696 17.186 13.462 16.499 13.462C14.854 13.462 13.521 14.795 13.521 16.439C13.521 16.677 13.551 16.906 13.604 17.126M14.678 18.792C15.182 19.182 15.812 19.417 16.499 19.417C18.144 19.417 19.477 18.084 19.477 16.439C19.477 16.202 19.447 15.973 19.394 15.752M7.5 10.25C5.988 10.25 4.75 9.012 4.75 7.5C4.75 5.987 5.988 4.75 7.5 4.75C9.012 4.75 10.25 5.987 10.25 7.5C10.25 9.012 9.012 10.25 7.5 10.25ZM16.5 10.25C14.988 10.25 13.75 9.012 13.75 7.5C13.75 5.987 14.988 4.75 16.5 4.75C18.012 4.75 19.25 5.987 19.25 7.5C19.25 9.012 18.012 10.25 16.5 10.25ZM7.5 19.25C5.988 19.25 4.75 18.012 4.75 16.5C4.75 14.987 5.988 13.75 7.5 13.75C9.012 13.75 10.25 14.987 10.25 16.5C10.25 18.012 9.012 19.25 7.5 19.25Z" stroke="white" stroke-width="1.5" stroke-linecap="round" stroke-linejoin="round"/>
</svg>
