<svg width="24" height="24" viewBox="0 0 24 24" fill="none" xmlns="http://www.w3.org/2000/svg">
<path d="M9.901 20H6C4.625 20 3.5 18.875 3.5 17.5V5.5C3.5 4.125 4.625 3 6 3H14.193C15.568 3 16.693 4.125 16.693 5.5V10.585M7.4479 6.9375H8.2089M11.7511 6.9375H12.5121M17.0738 21V16.518C17.0738 15.965 16.6258 15.518 16.0738 15.518H14.1568C13.6038 15.518 13.1568 15.965 13.1568 16.518V21H11.4808C10.5148 21 9.7308 20.217 9.7308 19.25V14.911C9.7308 14.338 9.9768 13.793 10.4058 13.413L14.2868 9.98C14.7598 9.562 15.4698 9.562 15.9438 9.98L19.8248 13.413C20.2538 13.793 20.4998 14.338 20.4998 14.911V19.25C20.4998 20.217 19.7158 21 18.7498 21H17.0738Z" stroke="white" stroke-width="1.5" stroke-linecap="round" stroke-linejoin="round"/>
</svg>
