<svg width="24" height="24" viewBox="0 0 24 24" fill="none" xmlns="http://www.w3.org/2000/svg">
<path fill-rule="evenodd" clip-rule="evenodd" d="M17.89 7.1244C17.476 7.1244 17.14 7.4604 17.14 7.8744V11.2484L12.469 7.4984C12.309 7.3934 12.142 7.3404 11.974 7.3404C11.604 7.3404 11.231 7.6274 11.231 8.1744V10.6934L6.60001 7.2664C6.43801 7.1614 6.27201 7.1084 6.10401 7.1084C5.73401 7.1084 5.35901 7.3944 5.35901 7.9404V16.0594C5.35901 16.6044 5.73401 16.8924 6.10401 16.8924C6.27201 16.8924 6.43801 16.8384 6.60001 16.7334L11.231 13.3044V15.8254C11.231 16.3724 11.604 16.6594 11.974 16.6594C12.142 16.6594 12.307 16.6054 12.469 16.5014L17.14 12.7504V16.1254C17.14 16.5384 17.476 16.8754 17.89 16.8754C18.305 16.8754 18.64 16.5384 18.64 16.1254V7.8744C18.64 7.4604 18.305 7.1244 17.89 7.1244Z" fill="white"/>
</svg>
