<svg width="24" height="24" viewBox="0 0 24 24" fill="none" xmlns="http://www.w3.org/2000/svg">
<path fill-rule="evenodd" clip-rule="evenodd" d="M14.6531 6.82276C15.4781 6.82276 16.1531 7.49776 16.1531 8.32276V18.0728C16.1531 19.4478 15.0281 20.5728 13.6531 20.5728H6.90308C5.52808 20.5728 4.40308 19.4478 4.40308 18.0728V9.32276C4.40308 7.94776 5.52808 6.82276 6.90308 6.82276H14.6531ZM15.9719 3.42676C17.9709 3.42676 19.5969 5.05276 19.5969 7.05176V16.1168C19.5969 16.6008 19.2049 16.9918 18.7219 16.9918C18.2389 16.9918 17.8469 16.6008 17.8469 16.1168V7.05176C17.8469 6.01776 17.0059 5.17676 15.9719 5.17676H8.96688C8.48288 5.17676 8.09188 4.78476 8.09188 4.30176C8.09188 3.81876 8.48288 3.42676 8.96688 3.42676H15.9719Z" fill="white"/>
</svg>
