<svg width="24" height="24" viewBox="0 0 24 24" fill="none" xmlns="http://www.w3.org/2000/svg">
<path d="M8.2785 16.6618C8.8307 16.6618 9.2785 17.1096 9.2785 17.6618C9.2785 18.2141 8.8307 18.6618 8.2785 18.6618C7.7262 18.6618 7.2785 18.2141 7.2785 17.6618C7.2785 17.1096 7.7262 16.6618 8.2785 16.6618ZM8.2785 12.8879C8.8307 12.8879 9.2785 13.3356 9.2785 13.8879C9.2785 14.4402 8.8307 14.8879 8.2785 14.8879C7.7262 14.8879 7.2785 14.4402 7.2785 13.8879C7.2785 13.3356 7.7262 12.8879 8.2785 12.8879ZM8.2785 9.11404C8.8307 9.11404 9.2785 9.56154 9.2785 10.114C9.2785 10.6662 8.8307 11.114 8.2785 11.114C7.7262 11.114 7.2785 10.6662 7.2785 10.114C7.2785 9.56154 7.7262 9.11404 8.2785 9.11404ZM8.2785 5.33984C8.8307 5.33984 9.2785 5.78764 9.2785 6.33984C9.2785 6.89234 8.8307 7.33984 8.2785 7.33984C7.7262 7.33984 7.2785 6.89234 7.2785 6.33984C7.2785 5.78764 7.7262 5.33984 8.2785 5.33984Z" fill="white"/>
<path fill-rule="evenodd" clip-rule="evenodd" d="M20.62 8.68378C18.7838 8.68378 17.3173 10.1688 17.3173 12.0011C17.3173 13.8328 18.7838 15.318 20.62 15.318V15.8761C20.62 17.2566 19.5005 18.376 18.12 18.376H5.87C4.4895 18.376 3.37 17.2566 3.37 15.8761V8.12608C3.37 6.74498 4.4895 5.62598 5.87 5.62598H18.12C19.5005 5.62598 20.62 6.74498 20.62 8.12608V8.68378Z" stroke="white" stroke-width="1.5" stroke-linecap="round" stroke-linejoin="round"/>
</svg>
