<svg width="24" height="24" viewBox="0 0 24 24" fill="none" xmlns="http://www.w3.org/2000/svg">
<path fill-rule="evenodd" clip-rule="evenodd" d="M8.3209 17.1252C8.4613 17.1252 8.6019 17.1657 8.7248 17.2476C8.9929 17.4265 9.11119 17.7608 9.01519 18.0689L8.6354 19.2883C8.5658 19.5116 8.5874 19.7485 8.696 19.9555C8.8046 20.1625 8.9874 20.3148 9.2106 20.3843C9.4342 20.4539 9.671 20.4323 9.8778 20.3237C10.0848 20.2151 10.2371 20.0323 10.3066 19.8091L10.8759 17.9824C11.0303 17.4879 11.4819 17.1555 12 17.1555C12.5178 17.1555 12.9697 17.4879 13.1239 17.9824L13.6931 19.8091C13.7626 20.0323 13.9149 20.2151 14.1222 20.3237C14.3292 20.4326 14.566 20.4537 14.7893 20.3843C15.0126 20.3148 15.1951 20.1625 15.304 19.9555C15.4126 19.7485 15.4342 19.5116 15.3646 19.2886L14.9845 18.0689C14.8887 17.7608 15.0068 17.4265 15.2751 17.2476C15.5435 17.0689 15.8974 17.0874 16.1449 17.2942L17.5585 18.4743C17.7709 18.6517 18.0759 18.6617 18.2989 18.4983C18.4492 18.3885 18.5389 18.2185 18.5449 18.0321C18.551 17.8459 18.4725 17.6704 18.3294 17.5511L18.2931 17.5203C17.575 16.9213 17.1624 16.0394 17.1624 15.1024V8.6173C17.1624 5.8241 14.8916 3.5087 12.1001 3.4556C10.7459 3.4355 9.4446 3.9543 8.4482 4.932C7.4247 5.9366 6.8376 7.3281 6.8376 8.7499V15.1024C6.8376 16.0394 6.42489 16.9213 5.70539 17.5218L5.6715 17.5499C5.5275 17.6704 5.44869 17.8459 5.45499 18.0321C5.46079 18.2185 5.55049 18.3885 5.70079 18.4983C5.92459 18.6617 6.22859 18.6517 6.44119 18.4743L7.8548 17.2942C7.9891 17.1819 8.1546 17.1252 8.3209 17.1252ZM9.4739 21.8796C9.2409 21.8796 9.00679 21.8445 8.77789 21.7732C8.18369 21.588 7.6972 21.1824 7.4077 20.6314C7.2625 20.3543 7.17549 20.0571 7.14879 19.7543C6.44359 20.1982 5.5306 20.1754 4.8424 19.6726C4.3282 19.2966 4.0216 18.716 4.0012 18.0791C3.9806 17.4423 4.2492 16.8428 4.7382 16.4345L4.77209 16.4062C5.16089 16.0816 5.38299 15.6069 5.38299 15.1024V8.7499C5.38299 6.94 6.12889 5.1703 7.42929 3.8939C8.70709 2.6401 10.3801 1.9625 12.1275 2.0016C15.7059 2.0694 18.6169 5.0372 18.6169 8.6173V15.1024C18.6169 15.6069 18.839 16.0816 19.2262 16.4047L19.263 16.4357C19.7505 16.8428 20.0194 17.4423 19.9988 18.0791C19.9784 18.716 19.6715 19.2966 19.1573 19.6726C18.4683 20.1759 17.5559 20.1979 16.8511 19.7543C16.8242 20.0571 16.7374 20.3543 16.592 20.6314C16.3028 21.1824 15.8162 21.588 15.222 21.7732C13.9946 22.155 12.6865 21.4682 12.3045 20.2418L12 19.2646L11.6955 20.2418C11.5103 20.8362 11.1047 21.3225 10.5537 21.612C10.2148 21.7897 9.8458 21.8796 9.4739 21.8796Z" fill="white"/>
<path fill-rule="evenodd" clip-rule="evenodd" d="M11.9999 6.25723C10.7301 6.25723 9.6969 7.29053 9.6969 8.56033C9.6969 9.83013 10.7301 10.8633 11.9999 10.8633C13.2697 10.8633 14.303 9.83013 14.303 8.56033C14.303 7.29053 13.2697 6.25723 11.9999 6.25723ZM11.9999 12.3178C9.9279 12.3178 8.2424 10.6323 8.2424 8.56033C8.2424 6.48833 9.9279 4.80273 11.9999 4.80273C14.0719 4.80273 15.7575 6.48833 15.7575 8.56033C15.7575 10.6323 14.0719 12.3178 11.9999 12.3178Z" fill="white"/>
<path fill-rule="evenodd" clip-rule="evenodd" d="M12.5103 8.55976C12.5103 7.89016 11.9678 7.34766 11.2982 7.34766C10.6286 7.34766 10.0861 7.89016 10.0861 8.55976C10.0861 9.22926 10.6286 9.77186 11.2982 9.77186C11.9678 9.77186 12.5103 9.22926 12.5103 8.55976Z" fill="white"/>
</svg>
