<svg width="24" height="24" viewBox="0 0 24 24" fill="none" xmlns="http://www.w3.org/2000/svg">
<path fill-rule="evenodd" clip-rule="evenodd" d="M12 11.6399C10.2743 11.6399 8.87501 10.2406 8.87501 8.51477C8.87501 6.78907 10.2743 5.38987 12 5.38987C13.7257 5.38987 15.125 6.78907 15.125 8.51477C15.125 10.2406 13.7257 11.6399 12 11.6399ZM19.0077 17.2111L18.9718 17.1808C18.4025 16.7058 18.0737 16.0029 18.0737 15.2616V8.57377C18.0737 5.25857 15.4178 2.56357 12.1175 2.50107C8.71301 2.43657 5.92621 5.30537 5.92621 8.71057V15.2616C5.92621 16.0029 5.59751 16.7058 5.02821 17.1808L4.99221 17.2111C4.30801 17.7818 4.34251 18.8434 5.06151 19.3691C5.56951 19.7403 6.26531 19.7181 6.74831 19.3146L8.20601 18.0976L7.81401 19.3551C7.54251 20.2268 8.02871 21.1533 8.90051 21.4248C9.77171 21.6966 10.6982 21.2101 10.97 20.3386L11.557 18.4549C11.6925 18.0201 12.3075 18.0201 12.443 18.4549L13.03 20.3386C13.3018 21.2101 14.2282 21.6966 15.0995 21.4248C15.9712 21.1533 16.4575 20.2268 16.186 19.3551L15.794 18.0976L17.2518 19.3146C17.7347 19.7181 18.4305 19.7403 18.9385 19.3691C19.6575 18.8434 19.692 17.7818 19.0077 17.2111Z" fill="white"/>
<path fill-rule="evenodd" clip-rule="evenodd" d="M11.2764 7.26465C10.5859 7.26465 10.0264 7.82415 10.0264 8.51455C10.0264 9.20505 10.5859 9.76455 11.2764 9.76455C11.9669 9.76455 12.5264 9.20505 12.5264 8.51455C12.5264 7.82415 11.9669 7.26465 11.2764 7.26465Z" fill="white"/>
</svg>
