<svg width="24" height="24" viewBox="0 0 24 24" fill="none" xmlns="http://www.w3.org/2000/svg">
<path d="M6.9585 18.8916H4.0005V15.9336C4.0005 15.5193 3.6647 15.1836 3.2505 15.1836C2.8363 15.1836 2.5005 15.5193 2.5005 15.9336V18.8916C2.5005 19.7208 3.1713 20.3916 4.0005 20.3916H6.9585C7.3727 20.3916 7.7085 20.0558 7.7085 19.6416C7.7085 19.2273 7.3727 18.8916 6.9585 18.8916Z" fill="white"/>
<path d="M17.0219 5.1416H19.9799V8.0996C19.9799 8.5138 20.3157 8.8496 20.7299 8.8496C21.1441 8.8496 21.4799 8.5138 21.4799 8.0996V5.1416C21.4799 4.3133 20.8081 3.6416 19.9799 3.6416H17.0219C16.6077 3.6416 16.2719 3.9773 16.2719 4.3916C16.2719 4.8058 16.6077 5.1416 17.0219 5.1416Z" fill="white"/>
<path d="M16.0063 6.5166H7.9733C6.4544 6.5166 5.2233 7.7481 5.2233 9.2666V14.7666C5.2233 16.2851 6.4544 17.5166 7.9733 17.5166H16.0063C17.5252 17.5166 18.7563 16.2851 18.7563 14.7666V9.2666C18.7563 7.7481 17.5252 6.5166 16.0063 6.5166ZM16.0063 8.0166C16.6967 8.0166 17.2563 8.5764 17.2563 9.2666V14.7666C17.2563 15.4568 16.6967 16.0166 16.0063 16.0166H7.9733C7.2829 16.0166 6.7233 15.4568 6.7233 14.7666V9.2666C6.7233 8.5764 7.2829 8.0166 7.9733 8.0166H16.0063Z" fill="white"/>
<path d="M4.2846 19.6911L6.8906 17.0851C7.1835 16.7922 7.1835 16.3173 6.8906 16.0244C6.5977 15.7315 6.1229 15.7315 5.83 16.0244L3.224 18.6304C2.9311 18.9233 2.9311 19.3982 3.224 19.6911C3.5169 19.984 3.9917 19.984 4.2846 19.6911Z" fill="white"/>
<path d="M19.6949 4.34063L16.7979 7.23663C16.5049 7.52953 16.5048 8.00443 16.7977 8.29733C17.0905 8.59023 17.5654 8.59033 17.8583 8.29753L20.7553 5.40153C21.0483 5.10863 21.0484 4.63383 20.7555 4.34083C20.4627 4.04793 19.9878 4.04783 19.6949 4.34063Z" fill="white"/>
</svg>
