<svg width="24" height="24" viewBox="0 0 24 24" fill="none" xmlns="http://www.w3.org/2000/svg">
<path fill-rule="evenodd" clip-rule="evenodd" d="M11.9892 5.5C11.5872 5.5 11.2592 5.836 11.2592 6.25C11.2592 6.612 11.5102 6.921 11.8552 6.986C11.9012 6.995 11.9462 7.008 11.9902 7.024C12.0332 7.008 12.0782 6.995 12.1242 6.986C12.4702 6.921 12.7212 6.611 12.7212 6.25C12.7212 5.836 12.3932 5.5 11.9892 5.5ZM3.4322 8.778C3.0282 8.778 2.7002 9.115 2.7002 9.528C2.7002 10.045 3.2502 10.432 3.7322 10.209C3.7782 10.188 3.8252 10.172 3.8722 10.161C3.8972 10.12 3.9262 10.08 3.9612 10.043C4.0912 9.903 4.1622 9.72 4.1622 9.528C4.1622 9.115 3.8352 8.778 3.4322 8.778ZM20.1092 10.161C20.1572 10.172 20.2042 10.189 20.2492 10.21C20.7202 10.431 21.2782 10.047 21.2782 9.528C21.2782 9.115 20.9502 8.778 20.5482 8.778C20.1452 8.778 19.8182 9.115 19.8182 9.528C19.8182 9.72 19.8892 9.902 20.0192 10.042C20.0532 10.08 20.0842 10.119 20.1092 10.161ZM4.9542 11.682L6.5632 17.64C6.7112 18.183 7.2082 18.563 7.7712 18.563H16.2082C16.7712 18.563 17.2682 18.183 17.4162 17.639L19.0252 11.684L17.2022 13.028C17.1732 13.049 17.1412 13.069 17.1102 13.086C16.0862 13.632 14.8272 13.317 14.1822 12.353L11.9892 8.633L9.8212 12.317C9.1512 13.317 7.8902 13.631 6.8702 13.086C6.8382 13.069 6.80619 13.049 6.77719 13.028L4.9542 11.682ZM16.2082 20.063H7.7712C6.5322 20.063 5.4402 19.228 5.1162 18.032L3.4262 11.778C2.1982 11.774 1.2002 10.766 1.2002 9.528C1.2002 8.288 2.2012 7.278 3.4322 7.278C4.6622 7.278 5.6622 8.288 5.6622 9.528C5.6622 9.778 5.6212 10.022 5.5432 10.253L7.6162 11.783C7.9522 11.934 8.3452 11.827 8.5512 11.518L10.6112 8.019C10.0882 7.604 9.7592 6.96 9.7592 6.25C9.7592 5.009 10.7602 4 11.9892 4C13.2202 4 14.2212 5.009 14.2212 6.25C14.2212 6.96 13.8912 7.604 13.3672 8.02L15.4522 11.555C15.6372 11.83 16.0322 11.936 16.3632 11.783L18.4372 10.253C18.3592 10.022 18.3182 9.778 18.3182 9.528C18.3182 8.288 19.3182 7.278 20.5482 7.278C21.7772 7.278 22.7782 8.288 22.7782 9.528C22.7782 10.767 21.7812 11.775 20.5532 11.778L18.8632 18.031C18.5392 19.228 17.4472 20.063 16.2082 20.063Z" fill="white"/>
</svg>
