<svg width="24" height="24" viewBox="0 0 24 24" fill="none" xmlns="http://www.w3.org/2000/svg">
<path d="M3.44094 10.9967C3.66194 10.9967 3.87094 10.9457 4.05894 10.8577C4.02994 10.9457 4.02294 11.0448 4.05094 11.1468L5.84894 17.8038C6.08594 18.6758 6.87694 19.2808 7.78094 19.2808H16.2179C17.1219 19.2808 17.9129 18.6758 18.1489 17.8038L19.9479 11.1468C19.9749 11.0448 19.9689 10.9457 19.9389 10.8577C20.1279 10.9457 20.3369 10.9967 20.5579 10.9967C21.3749 10.9967 22.0389 10.3247 22.0389 9.49675C22.0389 8.66775 21.3749 7.99675 20.5579 7.99675C19.7399 7.99675 19.0779 8.66775 19.0779 9.49675C19.0779 9.89275 19.2299 10.2528 19.4779 10.5198C19.3959 10.5178 19.3109 10.5318 19.2289 10.5758L16.7659 12.3927C16.0869 12.7547 15.2439 12.5447 14.8139 11.9047L12.4149 7.82875C12.3759 7.76975 12.3259 7.72675 12.2709 7.69175C12.9599 7.56175 13.4809 6.95275 13.4809 6.21875C13.4809 5.39075 12.8169 4.71875 11.9999 4.71875C11.1809 4.71875 10.5179 5.39075 10.5179 6.21875C10.5179 6.95275 11.0399 7.56175 11.7269 7.69175C11.6729 7.72675 11.6229 7.76975 11.5839 7.82875L9.18394 11.9047C8.75394 12.5447 7.91094 12.7547 7.23194 12.3927L4.76894 10.5758C4.68694 10.5318 4.60194 10.5178 4.52094 10.5198C4.76894 10.2528 4.92194 9.89275 4.92194 9.49675C4.92194 8.66775 4.25794 7.99675 3.44094 7.99675C2.62294 7.99675 1.96094 8.66775 1.96094 9.49675C1.96094 10.3247 2.62294 10.9967 3.44094 10.9967Z" fill="white"/>
</svg>
