<svg width="24" height="24" viewBox="0 0 24 24" fill="none" xmlns="http://www.w3.org/2000/svg">
<path d="M12.0002 2.34766C12.4142 2.34766 12.7502 2.68366 12.7502 3.09766V4.28766C16.4252 4.64266 19.3582 7.57466 19.7132 11.2507H20.9032C21.3172 11.2507 21.6532 11.5867 21.6532 12.0007C21.6532 12.4147 21.3172 12.7507 20.9032 12.7507H19.7132C19.3582 16.4267 16.4252 19.3587 12.7502 19.7137V20.9027C12.7502 21.3177 12.4142 21.6527 12.0002 21.6527C11.5852 21.6527 11.2502 21.3177 11.2502 20.9027V19.7137C7.57517 19.3587 4.64217 16.4267 4.28717 12.7507H3.09717C2.68317 12.7507 2.34717 12.4147 2.34717 12.0007C2.34717 11.5867 2.68317 11.2507 3.09717 11.2507H4.28717C4.64217 7.57466 7.57517 4.64266 11.2502 4.28766V3.09766C11.2502 2.68366 11.5852 2.34766 12.0002 2.34766ZM12.0582 5.75166C12.0392 5.75366 12.0202 5.75766 12.0002 5.75766C11.9802 5.75766 11.9612 5.75366 11.9422 5.75166C8.54217 5.78266 5.78417 8.54166 5.75117 11.9407C5.75317 11.9617 5.75717 11.9797 5.75717 12.0007C5.75717 12.0207 5.75317 12.0397 5.75117 12.0597C5.78417 15.4587 8.54117 18.2167 11.9402 18.2487L12.0002 18.2427C12.0212 18.2427 12.0392 18.2477 12.0602 18.2487C15.4582 18.2167 18.2162 15.4587 18.2482 12.0597C18.2472 12.0397 18.2432 12.0207 18.2432 12.0007C18.2432 11.9797 18.2472 11.9617 18.2482 11.9407C18.2162 8.54166 15.4572 5.78266 12.0582 5.75166ZM12.0006 8.25066C14.0706 8.25066 15.7506 9.92966 15.7506 12.0007C15.7506 14.0707 14.0706 15.7507 12.0006 15.7507C9.92957 15.7507 8.25057 14.0707 8.25057 12.0007C8.25057 9.92966 9.92957 8.25066 12.0006 8.25066Z" fill="white"/>
</svg>
