<svg width="24" height="24" viewBox="0 0 24 24" fill="none" xmlns="http://www.w3.org/2000/svg">
<path fill-rule="evenodd" clip-rule="evenodd" d="M17.3645 18.6681C15.7795 18.6681 14.4895 17.3781 14.4895 15.7931C14.4895 14.7371 15.0625 13.8151 15.9135 13.3151L16.7095 15.6001C16.8165 15.9091 17.1065 16.1031 17.4175 16.1031C17.4995 16.1031 17.5825 16.0891 17.6645 16.0611C18.0545 15.9251 18.2615 15.4971 18.1255 15.1051L17.3635 12.9181C18.9485 12.9181 20.2395 14.2071 20.2395 15.7931C20.2395 17.3781 18.9495 18.6681 17.3645 18.6681ZM9.5105 15.7931C9.5105 17.3781 8.2195 18.6681 6.6355 18.6681C5.0495 18.6681 3.7605 17.3781 3.7605 15.7931C3.7605 14.2071 5.0495 12.9181 6.6355 12.9181C6.6455 12.9181 6.6565 12.9191 6.6675 12.9191L5.7715 15.0641C5.6115 15.4451 5.7925 15.8851 6.1755 16.0451C6.2685 16.0841 6.3675 16.1031 6.4635 16.1031C6.7575 16.1031 7.0355 15.9301 7.1555 15.6421L8.1195 13.3351C8.9505 13.8401 9.5105 14.7511 9.5105 15.7931ZM17.3645 11.4181C17.1905 11.4181 17.0205 11.4311 16.8515 11.4501L14.5375 4.80805C14.3195 4.22405 13.7545 3.83105 13.1315 3.83105H10.8965C10.4825 3.83105 10.1465 4.16705 10.1465 4.58105C10.1465 4.99505 10.4825 5.33105 10.8965 5.33105L13.1265 5.31605L14.4855 9.21705H9.2695L8.5255 7.94405C8.2575 7.48605 7.7605 7.20105 7.2305 7.20105H5.2255C4.8105 7.20105 4.4755 7.53705 4.4755 7.95105C4.4755 8.36605 4.8105 8.70105 5.2255 8.70105H7.2305L7.9295 9.89705L7.2725 11.4701C7.0635 11.4391 6.8515 11.4181 6.6355 11.4181C4.2215 11.4181 2.2605 13.3801 2.2605 15.7931C2.2605 18.2051 4.2215 20.1681 6.6355 20.1681C9.0475 20.1681 11.0105 18.2051 11.0105 15.7931C11.0105 14.1281 10.0745 12.6781 8.7025 11.9391L9.2135 10.7171H15.0085L15.4145 11.8821C13.9785 12.6011 12.9895 14.0821 12.9895 15.7931C12.9895 18.2051 14.9525 20.1681 17.3645 20.1681C19.7765 20.1681 21.7395 18.2051 21.7395 15.7931C21.7395 13.3801 19.7765 11.4181 17.3645 11.4181Z" fill="white"/>
</svg>
