<svg width="24" height="24" viewBox="0 0 24 24" fill="none" xmlns="http://www.w3.org/2000/svg">
<path d="M9.06753 3C10.0235 3 10.9532 3.18362 11.8155 3.54244C11.8734 3.56559 11.9313 3.59032 11.9918 3.61768L12.0012 3.62294L12.0333 3.60768L12.1649 3.55033C13.0467 3.1852 13.979 3 14.9318 3H14.9933C15.9609 3.01052 16.8964 3.20572 17.7708 3.58032C18.6431 3.9544 19.4297 4.49579 20.0937 5.17661C20.6408 5.72641 21.0938 6.36093 21.4416 7.0633C21.7915 7.77253 22.0225 8.53174 22.1272 9.3162C22.3281 10.8073 22.053 12.3551 21.3443 13.701L21.3011 13.7804C20.745 14.8085 20.1889 15.5561 18.9809 16.852C18.3637 17.5144 17.6845 18.1694 17.0137 18.7487C16.3823 19.2932 15.7568 19.7741 15.1912 20.1156C14.7103 20.4076 14.1905 20.6317 13.6517 20.7796C13.1287 20.9242 12.56 21 12.0012 21C11.4451 21 10.8764 20.9248 10.3513 20.7801C9.81569 20.6328 9.30429 20.4134 8.82025 20.1224L8.79762 20.1082C8.24729 19.7778 7.62856 19.3011 6.99036 18.7503C6.32217 18.1726 5.64241 17.5186 5.02368 16.8567C3.81621 15.5651 3.26114 14.8195 2.70712 13.7957L2.69344 13.7704C1.95844 12.422 1.66749 10.8415 1.87373 9.31462C1.97948 8.52911 2.2094 7.77253 2.55822 7.06541C2.90495 6.36356 3.36636 5.7201 3.91617 5.16766C4.57489 4.49 5.35461 3.95545 6.22904 3.58138C7.10927 3.20361 8.04315 3.00789 9.01597 3H9.06753ZM9.02333 4.66784C8.27833 4.67415 7.56279 4.82357 6.88566 5.114C6.21273 5.40232 5.61663 5.81112 5.10523 6.33725C4.67538 6.76867 4.32024 7.26481 4.05402 7.80357C3.78516 8.34812 3.60786 8.93054 3.52631 9.53717C3.36794 10.7131 3.5926 11.9353 4.15977 12.976L4.1745 13.0039C4.65539 13.892 5.12627 14.5244 6.2422 15.7176C6.82042 16.3364 7.45757 16.9498 8.08051 17.4881C8.65241 17.9816 9.2059 18.4083 9.65995 18.6808L9.68363 18.695C10.034 18.906 10.405 19.0654 10.7932 19.1722C11.1736 19.2764 11.5935 19.3327 12.0012 19.3327C12.4111 19.3327 12.8299 19.2764 13.2087 19.1717C13.6002 19.0644 13.9769 18.9018 14.3273 18.6892C14.7971 18.4051 15.358 17.9742 15.9241 17.4865C16.5481 16.9467 17.1842 16.3337 17.7608 15.715C18.8778 14.517 19.3502 13.8814 19.8348 12.986L19.8732 12.9149C20.4162 11.8842 20.6287 10.6857 20.4741 9.5377C20.3936 8.93212 20.2157 8.34812 19.9464 7.80252C19.6791 7.26165 19.3308 6.77498 18.9057 6.34725C18.3879 5.81638 17.784 5.40074 17.1137 5.11347C16.4423 4.82568 15.7241 4.67573 14.9844 4.66784H14.9318C14.1978 4.66784 13.4823 4.80989 12.8067 5.08979C12.6889 5.13925 12.5542 5.20449 12.3958 5.2892C12.1501 5.42073 11.855 5.42073 11.6093 5.2892C11.4309 5.19397 11.3067 5.13557 11.1821 5.08506C10.517 4.80884 9.80464 4.66784 9.06753 4.66784H9.02333Z" fill="white"/>
<path d="M9.11609 5.13073C9.79375 5.13073 10.4561 5.26173 11.0665 5.51533C11.2732 5.59898 11.5526 5.74735 11.9141 5.96359L11.9988 6.01463L12.0761 5.96885C12.3928 5.77945 12.647 5.64108 12.8458 5.55111L12.9179 5.51954C13.5414 5.26173 14.2017 5.13073 14.8783 5.13073H14.9272C15.6101 5.13809 16.272 5.27647 16.8913 5.54216C17.5095 5.80681 18.0708 6.19509 18.5459 6.68229C18.9363 7.07477 19.2594 7.52567 19.5067 8.02497C19.755 8.529 19.9191 9.06881 19.9939 9.62651C20.137 10.6893 19.9434 11.7873 19.4414 12.7402L19.4025 12.8122C18.9374 13.6714 18.4765 14.2854 17.4142 15.4245C16.8555 16.0237 16.242 16.6162 15.6349 17.1402C15.0908 17.609 14.5679 18.013 14.1112 18.2893C13.7945 18.4818 13.4509 18.6297 13.0963 18.727C12.7496 18.8233 12.3718 18.8733 11.9988 18.8733C11.6263 18.8733 11.249 18.8233 10.9002 18.7275C10.5487 18.6307 10.2136 18.4876 9.89897 18.2982L9.87109 18.2814C9.46544 18.0378 8.93668 17.6358 8.36478 17.1418C7.75972 16.6199 7.14468 16.0274 6.58331 15.4271C5.53263 14.3028 5.05648 13.6688 4.6019 12.8296L4.58454 12.7975C4.06156 11.8378 3.85532 10.714 4.00158 9.62651C4.07735 9.06671 4.24045 8.52847 4.48878 8.02602C4.73554 7.52725 5.06752 7.06635 5.46107 6.67071C5.93038 6.18773 6.4844 5.80733 7.10311 5.54269C7.72763 5.27489 8.38635 5.13651 9.07295 5.13073H9.11609ZM9.07979 6.79855C8.62153 6.80224 8.18168 6.89484 7.76025 7.0753C7.34355 7.25418 6.97263 7.5083 6.65013 7.84029C6.37549 8.11651 6.14925 8.43009 5.98405 8.76471C5.81674 9.10354 5.70572 9.46762 5.65469 9.84906C5.55525 10.5856 5.69625 11.3517 6.04876 11.9988L6.06717 12.0325C6.44915 12.7386 6.84162 13.261 7.80181 14.288C8.32269 14.8452 8.89512 15.3966 9.45439 15.8796C9.96053 16.3168 10.4198 16.6651 10.7324 16.8535L10.7603 16.8703C10.9423 16.9797 11.137 17.0629 11.3422 17.1192C11.5452 17.1749 11.7741 17.2054 11.9988 17.2054C12.2229 17.2054 12.4507 17.1749 12.6533 17.1192C12.8611 17.0618 13.061 16.976 13.2467 16.8629C13.6071 16.6451 14.0675 16.2894 14.5452 15.8775C15.1056 15.3934 15.6764 14.8431 16.1941 14.287C17.1664 13.2447 17.5442 12.7412 17.9346 12.0204L17.9688 11.9567C18.3055 11.317 18.4376 10.5688 18.3408 9.84854C18.2897 9.4692 18.1787 9.10354 18.0114 8.76418C17.8446 8.42746 17.6273 8.12335 17.3579 7.8524C17.0286 7.51515 16.6492 7.25261 16.2347 7.07477C15.818 6.89641 15.3734 6.80329 14.9183 6.79855H14.8783C14.4205 6.79855 13.977 6.88642 13.5603 7.05899C13.3741 7.13738 12.9889 7.35678 12.4449 7.70087C12.1724 7.87344 11.8246 7.87291 11.5526 7.70034C11.0039 7.35257 10.6177 7.13317 10.4341 7.05846C10.02 6.88642 9.57488 6.79855 9.11609 6.79855H9.07979Z" fill="white"/>
<path d="M9.22958 7.23524C9.6347 7.23524 10.0277 7.31311 10.395 7.46569C10.6359 7.56302 11.3294 7.98814 11.9944 8.42798L12.0033 8.43377L12.0123 8.42798C12.6352 8.01707 13.2818 7.61879 13.5638 7.48621L13.6123 7.46464C13.98 7.31258 14.3725 7.23524 14.775 7.23524H14.8018C15.2091 7.23945 15.6037 7.32153 15.9709 7.47884C16.3408 7.63721 16.6754 7.87081 16.9653 8.16807C17.2015 8.40536 17.3962 8.67632 17.543 8.97253C17.6908 9.27295 17.7887 9.596 17.8334 9.93062C17.9192 10.5672 17.8045 11.2265 17.5067 11.7921L17.4809 11.8399L17.4656 11.8689C17.101 12.5418 16.7496 13.0022 15.8399 13.9781C15.3453 14.5085 14.805 15.0294 14.2747 15.4871C13.8111 15.8875 13.3765 16.2195 13.0624 16.4083C12.9051 16.5041 12.7352 16.5772 12.56 16.6251C12.3858 16.6735 12.1928 16.6982 12.0039 16.6982C11.8145 16.6982 11.6203 16.6735 11.4446 16.6256C11.2731 16.5783 11.1079 16.5078 10.9511 16.4136L10.929 16.4005C10.6307 16.2205 10.194 15.8859 9.73572 15.4902C9.20485 15.032 8.66293 14.5095 8.16627 13.9787C7.27605 13.0264 6.89724 12.5287 6.53684 11.8626L6.52 11.8315C6.20695 11.257 6.08436 10.5846 6.17223 9.93062C6.21747 9.59547 6.31481 9.27348 6.46265 8.97411C6.6105 8.67474 6.81043 8.39905 7.05455 8.15387C7.33656 7.86397 7.66697 7.63616 8.03421 7.47937C8.40197 7.32153 8.79342 7.2384 9.19485 7.23524H9.22958ZM14.7845 8.90308H14.7934H14.775C14.5903 8.90308 14.4146 8.9378 14.2536 9.0041C14.1463 9.04934 13.4855 9.45394 12.9304 9.82013L12.4616 10.1295C12.1828 10.3131 11.8213 10.3131 11.5425 10.129L11.0742 9.81907C10.527 9.4571 9.85988 9.04829 9.76202 9.00883C9.59208 8.9378 9.41583 8.90308 9.22958 8.90308H9.20169C9.02965 8.90466 8.85655 8.94096 8.69082 9.01199C8.52667 9.08249 8.37882 9.18456 8.24308 9.32346C8.11786 9.44973 8.02421 9.57863 7.95844 9.71227C7.8911 9.84801 7.84638 9.99638 7.82481 10.1537C7.78429 10.4567 7.84164 10.7714 7.98528 11.0355L8.00369 11.0686C8.2878 11.5942 8.58401 11.9831 9.38479 12.8396C9.84094 13.3278 10.3402 13.8087 10.8259 14.2275C11.2189 14.5669 11.5882 14.8505 11.7939 14.9741L11.815 14.9873C11.835 14.9994 11.8608 15.0099 11.8871 15.0173C11.9139 15.0246 11.9602 15.0304 12.0039 15.0304C12.046 15.0304 12.0896 15.0251 12.117 15.0173C12.1454 15.0099 12.1712 14.9983 12.198 14.982C12.42 14.8484 12.7868 14.5685 13.185 14.2249C13.6691 13.8066 14.1663 13.3273 14.6198 12.8412C15.4411 11.9599 15.711 11.6063 15.9919 11.0876L16.0062 11.0602L16.0346 11.0087C16.1666 10.7577 16.2203 10.4483 16.1808 10.1526C16.1598 9.99638 16.1145 9.84749 16.0477 9.71174C15.9814 9.57811 15.8925 9.45447 15.7773 9.33819C15.6315 9.1893 15.4779 9.08196 15.3143 9.01199C15.1507 8.94201 14.9734 8.90518 14.7845 8.90308Z" fill="white"/>
</svg>
