<svg width="24" height="24" viewBox="0 0 24 24" fill="none" xmlns="http://www.w3.org/2000/svg">
<path d="M14.6102 12.6573L9.3882 7.4343M8.014 16.5C8.152 16.5 8.264 16.612 8.264 16.75V19.985C8.264 20.521 8.586 20.661 8.979 20.298L13.255 16.621C13.346 16.543 13.461 16.5 13.581 16.5H17.75C19.406 16.5 20.75 15.157 20.75 13.5V6.5C20.75 4.843 19.406 3.5 17.75 3.5H6.25C4.593 3.5 3.25 4.843 3.25 6.5V13.5C3.25 15.157 4.593 16.5 6.25 16.5H8.014ZM15.7496 10.0449C15.7496 12.1159 14.0706 13.7949 11.9996 13.7949C9.9286 13.7949 8.2496 12.1159 8.2496 10.0449C8.2496 7.9749 9.9286 6.2949 11.9996 6.2949C14.0706 6.2949 15.7496 7.9749 15.7496 10.0449Z" stroke="white" stroke-width="1.5" stroke-linecap="round" stroke-linejoin="round"/>
</svg>
