<svg width="24" height="24" viewBox="0 0 24 24" fill="none" xmlns="http://www.w3.org/2000/svg">
<path d="M13.2588 16.5742C13.3448 16.4092 13.5888 16.4092 13.6748 16.5742L14.3916 18.332L15.8057 19.0244C15.9766 19.1084 15.9766 19.3428 15.8057 19.4258L14.3916 20.1182L13.6748 21.876C13.5888 22.041 13.3448 22.041 13.2588 21.876L12.542 20.1182L11.1279 19.4258C10.9569 19.3428 10.957 19.1084 11.1279 19.0244L12.542 18.332L13.2588 16.5742Z" fill="white"/>
<path d="M18.1729 12.1758C18.2969 11.9411 18.6445 11.9411 18.7686 12.1758L19.7939 14.6885L21.8164 15.6768C22.0604 15.7958 22.0604 16.132 21.8164 16.251L19.7939 17.2393L18.7686 19.751C18.6445 19.9869 18.2968 19.9869 18.1729 19.751L17.1475 17.2393L15.125 16.251C14.881 16.132 14.881 15.7958 15.125 15.6768L17.1475 14.6885L18.1729 12.1758Z" fill="white"/>
<path fill-rule="evenodd" clip-rule="evenodd" d="M16 1.94922C18.568 1.94922 20.6504 4.0326 20.6504 6.60059C20.6502 8.92943 18.9372 10.8589 16.7021 11.1973L16.6055 10.5547L16.5078 9.91211C18.1165 9.66851 19.3494 8.27727 19.3496 6.60059C19.3496 4.75057 17.85 3.25098 16 3.25098C14.15 3.25098 12.6504 4.75057 12.6504 6.60059V7.19238C13.9114 8.21208 14.7206 9.69511 14.7207 11.3887C14.7207 14.5816 11.8459 17.0282 8.48633 17.0283C8.21592 17.0283 7.95137 17.0105 7.69336 16.9805C6.77419 17.6747 5.89309 18.0312 5.30664 18.207L5.30762 18.208C4.85939 18.3438 4.45012 18.1387 4.23828 17.8389C4.02979 17.5436 3.97704 17.1143 4.20801 16.7451L4.29297 16.6016C4.43236 16.3523 4.54621 16.0689 4.58594 15.7861C3.1816 14.7669 2.25 13.1907 2.25 11.3887C2.2502 8.19574 5.12578 5.75 8.48633 5.75C9.51016 5.75005 10.4884 5.97852 11.3545 6.38477C11.467 3.91671 13.5042 1.94922 16 1.94922ZM8.48633 7.25C5.78713 7.25 3.7502 9.1819 3.75 11.3887C3.75 12.6666 4.41881 13.8361 5.51562 14.6094L5.74121 14.7588L6.05664 14.9561L6.09082 15.3262C6.12201 15.6644 6.08727 15.9877 6.01758 16.2852C6.33065 16.113 6.66789 15.8954 7.00684 15.6162L7.26953 15.4004L7.60449 15.4551C7.89318 15.5022 8.18725 15.5283 8.48633 15.5283C11.1844 15.5282 13.2207 13.5956 13.2207 11.3887C13.2205 9.18191 11.1843 7.25016 8.48633 7.25Z" fill="white"/>
<path d="M17.9482 7.86523C17.5326 8.52133 16.7996 8.96061 15.9619 8.96094C15.1231 8.96094 14.3896 8.52163 13.9736 7.86523L14.9873 7.22266C15.1934 7.54791 15.553 7.76074 15.9619 7.76074C16.3694 7.76042 16.7285 7.54795 16.9346 7.22266L17.9482 7.86523Z" fill="white"/>
<path d="M14.5469 4.95996C14.8609 4.95996 15.1152 5.21334 15.1152 5.52734C15.115 5.84017 14.8607 6.09375 14.5469 6.09375C14.234 6.09371 13.9817 5.84014 13.9814 5.52734C13.9814 5.21337 14.2339 4.96001 14.5469 4.95996Z" fill="white"/>
<path d="M17.3799 4.95996C17.6929 4.95996 17.9482 5.21334 17.9482 5.52734C17.948 5.84017 17.6928 6.09375 17.3799 6.09375C17.067 6.09371 16.8147 5.84014 16.8145 5.52734C16.8145 5.21337 17.0669 4.96001 17.3799 4.95996Z" fill="white"/>
</svg>
