<svg width="24" height="24" viewBox="0 0 24 24" fill="none" xmlns="http://www.w3.org/2000/svg">
<path fill-rule="evenodd" clip-rule="evenodd" d="M19.7254 3.75C20.6957 3.75 21.4749 4.54886 21.4749 5.526V18.3463C21.4749 19.3226 20.6957 20.1214 19.7254 20.1214H16.0003C15.0291 20.1214 14.25 19.3226 14.25 18.3463V18.2974C16.1494 18.2246 17.6546 16.6457 17.6546 14.724V8.676C17.6546 6.77143 16.176 5.20286 14.2997 5.10514C14.4849 4.33029 15.1731 3.75 16.0003 3.75H19.7254Z" fill="white"/>
<path d="M14.1129 6.59961C15.2443 6.59961 16.1546 7.53304 16.1546 8.67561V14.7236C16.1546 15.8662 15.2443 16.7996 14.1129 16.7996L10.4983 16.7988L10.4991 16.827V18.4565L12.1637 18.4573C12.5777 18.4573 12.9137 18.7925 12.9137 19.2073C12.9137 19.6213 12.5777 19.9573 12.1637 19.9573H7.33629C6.92229 19.9573 6.58629 19.6213 6.58629 19.2073C6.58629 18.7925 6.92229 18.4573 7.33629 18.4573L8.99914 18.4565L9 16.8553L9.00257 16.7988L5.04086 16.7996C3.91029 16.7996 3 15.8662 3 14.7236V8.67561C3 7.53304 3.91029 6.59961 5.04086 6.59961H14.1129Z" fill="white"/>
</svg>
