<svg width="24" height="24" viewBox="0 0 24 24" fill="none" xmlns="http://www.w3.org/2000/svg">
<path fill-rule="evenodd" clip-rule="evenodd" d="M4.7502 6.41016H15.1645C16.2685 6.41016 17.1642 7.30587 17.1642 8.40987V14.7022C17.1642 15.807 16.2685 16.7019 15.1645 16.7019H4.7502C3.64535 16.7019 2.75049 15.807 2.75049 14.7022V8.40987C2.75049 7.30587 3.64535 6.41016 4.7502 6.41016Z" stroke="white" stroke-width="1.75" stroke-linecap="round" stroke-linejoin="round"/>
<path d="M15.1079 6.31343C15.1079 5.45029 15.8073 4.75 16.6713 4.75H19.2505C20.3553 4.75 21.2502 5.64571 21.2502 6.75057V17.5C21.2502 18.6049 20.3553 19.5006 19.2505 19.5006H17.1076C16.0028 19.5006 15.1079 18.6049 15.1079 17.5V16.7054" stroke="white" stroke-width="1.75" stroke-linecap="round" stroke-linejoin="round"/>
<path d="M6.86719 19.5381H13.0472" stroke="white" stroke-width="1.75" stroke-linecap="round" stroke-linejoin="round"/>
<path d="M9.95752 17.1641V19.5375" stroke="white" stroke-width="1.75" stroke-linecap="round" stroke-linejoin="round"/>
</svg>
