<svg width="24" height="24" viewBox="0 0 24 24" fill="none" xmlns="http://www.w3.org/2000/svg">
<path fill-rule="evenodd" clip-rule="evenodd" d="M13.566 18.265H10.432C10.018 18.265 9.682 17.929 9.682 17.515C9.682 17.101 10.018 16.765 10.432 16.765H13.566C13.981 16.765 14.316 17.101 14.316 17.515C14.316 17.929 13.981 18.265 13.566 18.265ZM15.625 3.125H8.375C6.994 3.125 5.875 4.244 5.875 5.625V18.375C5.875 19.756 6.994 20.875 8.375 20.875H15.625C17.005 20.875 18.125 19.756 18.125 18.375V5.625C18.125 4.244 17.005 3.125 15.625 3.125Z" fill="white"/>
</svg>
