<svg width="24" height="24" viewBox="0 0 24 24" fill="none" xmlns="http://www.w3.org/2000/svg">
<path d="M10.045 10.775L11.9937 15.9596L12.0422 16.0653C12.3332 16.5972 13.1269 16.6097 13.4196 16.0437L15.1464 12.705L20.3233 12.7063C20.3053 12.7389 20.2871 12.7712 20.2684 12.8033C20.2684 12.8033 19.9641 13.2619 19.8557 13.413C19.0397 14.5552 15.5829 17.7494 13.5403 19.5992C12.6638 20.3933 11.3341 20.3964 10.4503 19.6117C8.23795 17.6487 5.14016 14.7737 4.17627 13.4572L8.34643 13.4575L8.46076 13.449C8.72296 13.4104 8.95098 13.2401 9.06072 12.993L10.045 10.775ZM16.0498 4.80273C18.7844 4.80273 21 7.15487 21 10.0552C21 10.4277 20.9634 10.7912 20.8938 11.1417L14.6711 11.1418L14.563 11.1493C14.3141 11.184 14.0944 11.3372 13.977 11.5643L12.838 13.7628L10.8372 8.43858C10.5911 7.78391 9.67486 7.75723 9.39108 8.39648L7.83776 11.8942L3.31348 11.8963C3.1112 11.3235 3 10.7032 3 10.0552C3 7.15487 5.21665 4.80273 7.94917 4.80273C9.61244 4.80273 11.1131 5.67293 12.0115 7.00584C12.9088 5.67293 14.3886 4.80273 16.0498 4.80273Z" fill="white"/>
</svg>
