<svg width="24" height="24" viewBox="0 0 24 24" fill="none" xmlns="http://www.w3.org/2000/svg">
<path fill-rule="evenodd" clip-rule="evenodd" d="M8.75317 13.749C9.57817 13.749 10.2532 14.424 10.2532 15.249V17.749C10.2532 18.574 9.57817 19.249 8.75317 19.249H6.25317C5.42817 19.249 4.75317 18.574 4.75317 17.749V15.249C4.75317 14.424 5.42817 13.749 6.25317 13.749H8.75317ZM16.5032 13.749C18.0162 13.749 19.2532 14.987 19.2532 16.499C19.2532 17.955 18.1061 19.1569 16.6701 19.244L16.5032 19.249C14.9902 19.249 13.7532 18.011 13.7532 16.499C13.7532 14.987 14.9902 13.749 16.5032 13.749ZM17.7532 4.74902C18.5782 4.74902 19.2532 5.42402 19.2532 6.24902V8.74902C19.2532 9.57402 18.5782 10.249 17.7532 10.249H15.2532C14.4282 10.249 13.7532 9.57402 13.7532 8.74902V6.24902C13.7532 5.42402 14.4282 4.74902 15.2532 4.74902H17.7532Z" stroke="white" stroke-width="1.5" stroke-linecap="round" stroke-linejoin="round"/>
<path d="M7.45445 3.91992C9.39145 3.91992 10.9685 5.49692 10.9685 7.43392V10.0159C10.9685 10.6519 10.4495 11.1699 9.81345 11.1699H9.71845C9.08145 11.1699 8.56345 10.6519 8.56345 10.0159V8.40292C8.56345 7.76892 9.07545 7.25392 9.70945 7.24892C9.61445 6.08692 8.64045 5.16992 7.45445 5.16992C6.26745 5.16992 5.29445 6.08692 5.19845 7.24892C5.83145 7.25392 6.34545 7.76892 6.34545 8.40292V10.0159C6.34545 10.6519 5.82545 11.1699 5.18945 11.1699H5.09445C4.45745 11.1699 3.93945 10.6519 3.93945 10.0159V7.43392C3.93945 5.49692 5.51645 3.91992 7.45445 3.91992Z" fill="white"/>
</svg>
