<svg width="24" height="24" viewBox="0 0 24 24" fill="none" xmlns="http://www.w3.org/2000/svg">
<path d="M17.9645 6.60039H15.0002C14.0061 6.60039 13.2002 7.40625 13.2002 8.40039V15.6004H5.7302C4.88522 15.6004 4.2002 14.9154 4.2002 14.0704V6.93039C4.2002 6.08541 4.88522 5.40039 5.7302 5.40039H16.4702C17.2019 5.40039 17.8137 5.91399 17.9645 6.60039ZM15.0002 7.20039H18.6002C19.263 7.20039 19.8002 7.73763 19.8002 8.40039V16.8004C19.8002 17.4632 19.263 18.0004 18.6002 18.0004H15.0002C14.3374 18.0004 13.8002 17.4632 13.8002 16.8004V8.40039C13.8002 7.73763 14.3374 7.20039 15.0002 7.20039Z" fill="white"/>
<path d="M16.2001 16.2C15.8687 16.2 15.6001 15.9314 15.6001 15.6C15.6001 15.2686 15.8687 15 16.2001 15H17.4001C17.7315 15 18.0001 15.2686 18.0001 15.6C18.0001 15.9314 17.7315 16.2 17.4001 16.2H16.2001Z" fill="white"/>
</svg>
