<svg width="24" height="24" viewBox="0 0 24 24" fill="none" xmlns="http://www.w3.org/2000/svg">
<path d="M11.9389 9.6212C12.4199 9.6212 12.8649 9.6962 13.2749 9.8472C13.6849 9.9982 14.0379 10.2102 14.3349 10.4822C14.6289 10.7542 14.8609 11.0752 15.0269 11.4432C15.1929 11.8132 15.2759 12.2152 15.2759 12.6522V13.1652H9.99891C10.1029 13.6102 10.3279 13.9672 10.6759 14.2392C11.0229 14.5122 11.4629 14.6472 11.9949 14.6472C12.4159 14.6472 12.7819 14.5472 13.0929 14.3462C13.4029 14.1462 13.6359 13.8782 13.7909 13.5412L15.0209 14.2292C14.7409 14.7372 14.3469 15.1472 13.8399 15.4582C13.3349 15.7702 12.7199 15.9252 11.9949 15.9252C11.4839 15.9252 11.0189 15.8442 10.5969 15.6822C10.1769 15.5202 9.81691 15.2972 9.51691 15.0152C9.21791 14.7322 8.98391 14.3982 8.81891 14.0152C8.65291 13.6322 8.56891 13.2232 8.56891 12.7882C8.56891 12.3472 8.65591 11.9342 8.82991 11.5462C9.00291 11.1602 9.24191 10.8252 9.54391 10.5432C9.84691 10.2602 10.2039 10.0352 10.6149 9.8692C11.0239 9.7042 11.4659 9.6212 11.9389 9.6212ZM3.83591 8.0752C4.51491 8.0752 5.12091 8.1752 5.65291 8.3762C6.18591 8.5762 6.63491 8.8512 6.99991 9.2022C7.36591 9.5532 7.64291 9.9672 7.83091 10.4432C8.02091 10.9192 8.11491 11.4362 8.11491 11.9952C8.11491 12.5532 8.01091 13.0722 7.80391 13.5522C7.59791 14.0322 7.30691 14.4452 6.93391 14.7932C6.55991 15.1402 6.11491 15.4132 5.59791 15.6142C5.08091 15.8142 4.51491 15.9142 3.90191 15.9142H1.62891V8.0752H3.83591ZM17.3729 8.0752L19.0009 10.6842L20.6309 8.0752H22.3269L19.8889 11.9512L22.3709 15.9142H20.6859L19.0009 13.2192L17.3279 15.9142H15.6319L18.1039 11.9512L15.6859 8.0752H17.3729ZM3.65791 9.4282H3.13691V14.5612H3.72491C4.16791 14.5612 4.56691 14.4972 4.92191 14.3682C5.27691 14.2392 5.57791 14.0592 5.82491 13.8262C6.07191 13.5932 6.26591 13.3212 6.40191 13.0092C6.53891 12.6982 6.60691 12.3602 6.60691 11.9952C6.60691 11.6162 6.54791 11.2702 6.42991 10.9582C6.31091 10.6472 6.12991 10.3762 5.88691 10.1482C5.64191 9.9192 5.33591 9.7412 4.96691 9.6152C4.59691 9.4902 4.16091 9.4282 3.65791 9.4282ZM11.9389 10.8992C11.4889 10.8992 11.0989 10.9962 10.7699 11.1882C10.4409 11.3822 10.2099 11.6362 10.0769 11.9512H13.7579C13.6459 11.6062 13.4319 11.3452 13.1149 11.1662C12.7959 10.9882 12.4049 10.8992 11.9389 10.8992Z" fill="white"/>
</svg>
