<svg width="24" height="24" viewBox="0 0 24 24" fill="none" xmlns="http://www.w3.org/2000/svg">
<path fill-rule="evenodd" clip-rule="evenodd" d="M11.465 17.6271C12.227 17.6271 12.845 18.2411 12.845 19.0021C12.845 19.7601 12.227 20.3771 11.465 20.3771C10.702 20.3771 10.084 19.7601 10.084 19.0021C10.084 18.2411 10.702 17.6271 11.465 17.6271ZM11.465 13.0221C12.228 13.0221 12.846 13.6361 12.846 14.3971C12.846 15.1551 12.228 15.7721 11.465 15.7721C10.702 15.7721 10.084 15.1551 10.084 14.3971C10.084 13.6361 10.702 13.0221 11.465 13.0221ZM6.84196 13.0221C7.60396 13.0221 8.22196 13.6361 8.22196 14.3971C8.22196 15.1551 7.60396 15.7721 6.84196 15.7721C6.07896 15.7721 5.45996 15.1551 5.45996 14.3971C5.45996 13.6361 6.07896 13.0221 6.84196 13.0221ZM11.465 8.22512C12.227 8.22512 12.845 8.83912 12.845 9.60012C12.845 10.3571 12.227 10.9751 11.465 10.9751C10.701 10.9751 10.084 10.3571 10.084 9.60012C10.084 8.83912 10.701 8.22512 11.465 8.22512ZM6.84096 8.22512C7.60396 8.22512 8.22196 8.83912 8.22196 9.60012C8.22196 10.3571 7.60396 10.9751 6.84096 10.9751C6.07896 10.9751 5.46096 10.3571 5.46096 9.60012C5.46096 8.83912 6.07896 8.22512 6.84096 8.22512ZM16.089 8.22512C16.851 8.22512 17.47 8.83912 17.47 9.60012C17.47 10.3571 16.851 10.9751 16.089 10.9751C15.327 10.9751 14.709 10.3571 14.709 9.60012C14.709 8.83912 15.327 8.22512 16.089 8.22512ZM11.465 3.62012C12.227 3.62012 12.845 4.23512 12.845 4.99512C12.845 5.75212 12.227 6.37012 11.465 6.37012C10.701 6.37012 10.083 5.75212 10.083 4.99512C10.083 4.23512 10.701 3.62012 11.465 3.62012ZM6.84196 3.62012C7.60396 3.62012 8.22196 4.23512 8.22196 4.99512C8.22196 5.75212 7.60396 6.37012 6.84196 6.37012C6.07896 6.37012 5.45996 5.75212 5.45996 4.99512C5.45996 4.23512 6.07896 3.62012 6.84196 3.62012ZM16.089 3.62012C16.852 3.62012 17.47 4.23512 17.47 4.99512C17.47 5.75212 16.852 6.37012 16.089 6.37012C15.327 6.37012 14.71 5.75212 14.71 4.99512C14.71 4.23512 15.327 3.62012 16.089 3.62012Z" fill="white"/>
<path fill-rule="evenodd" clip-rule="evenodd" d="M19.9521 11.7994C20.2941 11.4924 20.5741 11.6164 20.5741 12.0764V19.1844C20.5741 19.6444 20.2941 19.7694 19.9521 19.4624L17.1491 17.3084V17.3014H15.8411C15.2891 17.3014 14.8411 16.8544 14.8411 16.3014V14.9564C14.8411 14.4044 15.2891 13.9564 15.8411 13.9564H17.1491V13.9534L19.9521 11.7994Z" stroke="white" stroke-width="1.5" stroke-linecap="round" stroke-linejoin="round"/>
</svg>
