<svg width="24" height="24" viewBox="0 0 24 24" fill="none" xmlns="http://www.w3.org/2000/svg">
<path d="M13.8277 8.55957C15.0607 8.55957 16.0597 9.63457 16.0597 10.9606C16.0597 11.4226 15.9387 11.8516 15.7287 12.2176C15.7287 12.2176 15.5927 12.4266 15.5437 12.4966C15.0137 13.2486 13.5037 14.6016 12.6357 15.3506C12.2697 15.6656 11.7317 15.6656 11.3667 15.3506C10.4987 14.6016 8.98865 13.2486 8.45865 12.4966C8.40865 12.4266 8.27165 12.2176 8.27165 12.2176C8.06265 11.8516 7.94165 11.4226 7.94165 10.9606C7.94165 9.63457 8.94065 8.55957 10.1737 8.55957C10.9297 8.55957 11.5977 8.96257 12.0017 9.58057C12.4047 8.96257 13.0717 8.55957 13.8277 8.55957Z" fill="white"/>
<path d="M19.058 15.7128C17.71 18.2648 15.055 19.9998 12 19.9998C7.582 19.9998 4 16.3688 4 11.8908C4 8.0628 6.617 4.8548 10.134 4.0028M13.8578 4C17.3798 4.849 20.0008 8.06 20.0008 11.891C20.0008 11.99 19.9988 12.089 19.9958 12.188" stroke="white" stroke-width="1.5" stroke-linecap="round" stroke-linejoin="round"/>
</svg>
