<svg width="24" height="24" viewBox="0 0 24 24" fill="none" xmlns="http://www.w3.org/2000/svg">
<path d="M18.2378 6.24183C17.0905 5.71543 15.8602 5.32753 14.5739 5.10543C14.5505 5.10113 14.5271 5.11183 14.515 5.13333C14.3568 5.41473 14.1815 5.78183 14.0588 6.07043C12.6753 5.86323 11.2989 5.86323 9.94369 6.07043C9.82099 5.77543 9.63939 5.41473 9.48039 5.13333C9.46839 5.11263 9.44499 5.10183 9.42149 5.10543C8.13589 5.32683 6.90569 5.71473 5.75769 6.24183C5.74779 6.24613 5.73919 6.25323 5.73359 6.26253C3.39999 9.74883 2.76079 13.1494 3.07439 16.5078C3.07579 16.5242 3.08499 16.5399 3.09779 16.5499C4.63739 17.6806 6.12879 18.367 7.59249 18.8219C7.61589 18.8291 7.64069 18.8205 7.65559 18.8012C8.00179 18.3284 8.31049 17.8299 8.57509 17.3056C8.59069 17.2749 8.57579 17.2385 8.54389 17.2263C8.05429 17.0406 7.58819 16.8142 7.13979 16.5571C7.10429 16.5364 7.10149 16.4856 7.13409 16.4613C7.22849 16.3906 7.32289 16.3171 7.41299 16.2428C7.42929 16.2292 7.45199 16.2263 7.47109 16.2349C10.417 17.5799 13.6062 17.5799 16.5172 16.2349C16.5364 16.2256 16.5591 16.2285 16.5761 16.2421C16.6662 16.3163 16.7606 16.3906 16.8557 16.4613C16.8883 16.4856 16.8862 16.5364 16.8507 16.5571C16.4023 16.8192 15.9361 17.0406 15.4459 17.2256C15.414 17.2377 15.3998 17.2749 15.4154 17.3056C15.6857 17.8291 15.9943 18.3277 16.3342 18.8005C16.3484 18.8205 16.3739 18.8291 16.3973 18.8219C17.8681 18.367 19.3595 17.6806 20.8991 16.5499C20.9126 16.5399 20.9211 16.5249 20.9225 16.5085C21.2978 12.6258 20.2939 9.25313 18.2612 6.26323C18.2562 6.25323 18.2477 6.24613 18.2378 6.24183ZM9.01499 14.4629C8.12809 14.4629 7.39729 13.6486 7.39729 12.6487C7.39729 11.6487 8.11399 10.8345 9.01499 10.8345C9.92319 10.8345 10.6469 11.6558 10.6327 12.6487C10.6327 13.6486 9.91609 14.4629 9.01499 14.4629ZM14.9961 14.4629C14.1092 14.4629 13.3784 13.6486 13.3784 12.6487C13.3784 11.6487 14.095 10.8345 14.9961 10.8345C15.9042 10.8345 16.6279 11.6558 16.6137 12.6487C16.6137 13.6486 15.9042 14.4629 14.9961 14.4629Z" fill="white"/>
</svg>
