<svg width="24" height="24" viewBox="0 0 24 24" fill="none" xmlns="http://www.w3.org/2000/svg">
<path fill-rule="evenodd" clip-rule="evenodd" d="M3.54494 16.35C4.64694 17.126 5.81494 17.728 7.08594 18.17C7.15794 18.061 7.22894 17.95 7.29594 17.837C7.03394 17.713 6.77394 17.577 6.51594 17.429L6.16394 17.227L6.08994 16.372L6.43594 16.082C6.52094 16.019 6.60594 15.953 6.68694 15.886L7.03294 15.601L7.50594 15.762C10.2649 17.022 13.2549 17.023 15.9519 15.776L16.3739 15.581L16.7949 15.878C16.8839 15.953 16.9679 16.018 17.0519 16.08L17.3779 16.323L17.3529 17.181L16.9749 17.429C16.7229 17.577 16.4649 17.712 16.1989 17.837C16.2659 17.949 16.3359 18.06 16.4079 18.17C17.6719 17.732 18.8399 17.132 19.9529 16.349C20.2139 12.986 19.4099 9.945 17.4989 7.066C16.5969 6.666 15.6549 6.364 14.6919 6.162C14.6209 6.308 14.5539 6.455 14.4989 6.586L14.2719 7.12L13.6979 7.035C12.3919 6.839 11.0839 6.838 9.80694 7.034L9.22794 7.122L9.00194 6.581C8.94694 6.45 8.87894 6.305 8.80794 6.161C7.84494 6.362 6.90194 6.665 5.99794 7.066C4.09594 9.988 3.29694 13.022 3.54494 16.35ZM15.8559 19.919L15.4769 19.463C15.1069 18.947 14.7789 18.413 14.5009 17.874C12.6899 18.327 10.8159 18.326 8.99194 17.871C8.71494 18.418 8.38494 18.954 8.01094 19.466L7.69994 19.89L7.13194 19.764C5.40394 19.227 3.86094 18.447 2.40394 17.376L2.12994 17.175L2.07694 16.796C1.71494 12.917 2.62594 9.407 4.85994 6.068L4.99294 5.869L5.24094 5.763C6.42194 5.219 7.71694 4.818 9.04394 4.588L9.55194 4.5L9.87494 4.971C9.96294 5.128 10.0559 5.302 10.1429 5.477C11.2039 5.357 12.2799 5.358 13.3569 5.477C13.4409 5.306 13.5279 5.136 13.6109 4.988L13.8799 4.508L14.4769 4.593C15.7729 4.816 17.0619 5.215 18.2839 5.775L18.5309 5.873L18.6819 6.15C20.8539 9.332 21.7919 12.946 21.4189 16.803L21.3859 17.143L21.0849 17.382C19.6319 18.45 18.0869 19.229 16.3689 19.761L15.8559 19.919Z" fill="white"/>
<path fill-rule="evenodd" clip-rule="evenodd" d="M2.14795 19.6847H15.3829V6.05566H2.14795V19.6847Z" fill="white"/>
<path fill-rule="evenodd" clip-rule="evenodd" d="M8.12805 19.6847H21.3631V6.05566H8.12805V19.6847Z" fill="white"/>
</svg>
