<svg width="24" height="24" viewBox="0 0 24 24" fill="none" xmlns="http://www.w3.org/2000/svg">
<path d="M11.5524 11.5261C12.1086 11.5285 12.8935 11.5646 12.8935 12.084C12.8935 12.483 12.4285 13.0549 11.9605 13.3459V14.0239L12.9345 14.6059C13.1625 14.7419 13.4535 14.7029 13.6405 14.5139C13.8405 14.3109 14.1665 14.3089 14.3695 14.5089C14.5715 14.7089 14.5745 15.035 14.3745 15.238C14.0615 15.554 13.6475 15.717 13.2295 15.717C12.9475 15.717 12.6625 15.6429 12.4065 15.4899L11.4445 14.9159L10.4845 15.4899C10.2275 15.6429 9.94352 15.717 9.66152 15.717C9.24352 15.717 8.82952 15.554 8.51652 15.238C8.31652 15.035 8.31852 14.7089 8.52152 14.5089C8.72352 14.3089 9.05152 14.3109 9.25052 14.5139C9.43752 14.7039 9.72952 14.7419 9.95752 14.6059L10.9305 14.0239V13.3459C10.4635 13.0549 9.99752 12.483 9.99752 12.084C9.99752 11.53 10.8915 11.5259 11.4445 11.5259L11.5524 11.5261ZM7.69552 9.78125C8.22752 9.78125 8.66052 10.2132 8.66052 10.7472C8.66052 11.2812 8.22752 11.7122 7.69552 11.7122C7.16152 11.7122 6.72852 11.2812 6.72852 10.7472C6.72852 10.2132 7.16152 9.78125 7.69552 9.78125ZM15.1965 9.78125C15.7285 9.78125 16.1625 10.2132 16.1625 10.7472C16.1625 11.2812 15.7285 11.7122 15.1965 11.7122C14.6635 11.7122 14.2295 11.2812 14.2295 10.7472C14.2295 10.2132 14.6635 9.78125 15.1965 9.78125Z" fill="white"/>
<path d="M18.2142 13.7973C18.2142 14.6173 18.8782 15.2823 19.6982 15.2823C20.5192 15.2823 21.1842 14.6173 21.1842 13.7973C21.1842 13.7973 21.3182 11.0843 20.6832 9.3943C20.3192 8.4293 19.4872 6.8203 17.3822 5.8363M4.67712 13.7973C4.67712 14.6173 4.01212 15.2823 3.19312 15.2823C2.37212 15.2823 1.70712 14.6173 1.70712 13.7973C1.70712 13.7973 1.57312 11.0843 2.20812 9.3943C2.57212 8.4293 3.40412 6.8203 5.50912 5.8363M11.4457 3C7.71671 3 4.69572 5.769 4.69572 9.182V11.09V11.98V13.818C4.69572 17.233 7.71671 20 11.4457 20C15.1737 20 18.1957 17.233 18.1957 13.818V11.98V11.09V9.182C18.1957 5.769 15.1737 3 11.4457 3Z" stroke="white" stroke-width="1.5"/>
</svg>
