<svg width="24" height="24" viewBox="0 0 24 24" fill="none" xmlns="http://www.w3.org/2000/svg">
<path d="M6.29249 11.227V15.418C6.29249 17.872 8.27549 20.75 10.7205 20.75H13.3775C15.8245 20.75 17.8055 17.872 17.8055 15.418V11.227M17.6895 17.069C19.2925 15.407 21.3485 12.54 21.3485 11.491C21.3485 9.282 17.8055 3.75 12.0495 3.75C6.29249 3.75 2.75049 9.282 2.75049 11.491C2.75049 12.54 4.77449 15.374 6.37749 17.037M12.0493 16.1674V15.2734" stroke="white" stroke-width="1.5" stroke-linecap="round" stroke-linejoin="round"/>
<path d="M13.4893 14.2299C13.4893 14.7809 12.6013 15.6729 12.0493 15.6729C11.4993 15.6729 10.6103 14.7809 10.6103 14.2299C10.6103 13.7124 11.3916 13.6757 11.9425 13.6731L12.0493 13.6729C12.6013 13.6729 13.4893 13.6779 13.4893 14.2299ZM9.49367 10.6416C10.0217 10.6416 10.4477 11.0786 10.4477 11.6206C10.4477 12.1606 10.0217 12.5996 9.49367 12.5996C8.96767 12.5996 8.53967 12.1606 8.53967 11.6206C8.53967 11.0786 8.96767 10.6416 9.49367 10.6416ZM14.605 10.6416C15.145 10.6416 15.582 11.0786 15.582 11.6206C15.582 12.1606 15.145 12.5996 14.605 12.5996C14.068 12.5996 13.63 12.1606 13.63 11.6206C13.63 11.0786 14.068 10.6416 14.605 10.6416Z" fill="white"/>
<path d="M9.71002 16.0635C9.71002 16.7085 10.234 17.2325 10.88 17.2325C11.526 17.2325 12.049 16.7085 12.049 16.0635C12.049 16.7085 12.573 17.2325 13.22 17.2325C13.865 17.2325 14.388 16.7085 14.388 16.0635" stroke="white" stroke-width="1.5" stroke-linecap="round" stroke-linejoin="round"/>
</svg>
