<svg width="24" height="24" viewBox="0 0 24 24" fill="none" xmlns="http://www.w3.org/2000/svg">
<path fill-rule="evenodd" clip-rule="evenodd" d="M18.663 16.4605H16.818C15.508 16.4605 13.151 15.5735 13.081 11.9995C13.08 12.0535 13.078 12.1065 13.078 12.1615V11.8365C13.078 11.8925 13.08 11.9455 13.081 11.9995C13.151 8.4255 15.508 7.5385 16.818 7.5385H18.663V16.4605ZM10.924 12.1615C10.924 12.1065 10.921 12.0535 10.92 11.9995C10.85 15.5735 8.493 16.4605 7.183 16.4605H5.338V7.5385H7.183C8.493 7.5385 10.85 8.4255 10.92 11.9995C10.921 11.9455 10.924 11.8925 10.924 11.8365V12.1615ZM19.147 4.8125H4.854C4.041 4.8125 3.375 5.4815 3.375 6.2985V17.6995C3.375 18.5175 4.041 19.1875 4.854 19.1875H19.147C19.96 19.1875 20.625 18.5175 20.625 17.6995V6.2985C20.625 5.4815 19.96 4.8125 19.147 4.8125Z" fill="white"/>
</svg>
