<svg width="24" height="24" viewBox="0 0 24 24" fill="none" xmlns="http://www.w3.org/2000/svg">
<path fill-rule="evenodd" clip-rule="evenodd" d="M12 2.22266C17.4001 2.22266 21.7778 6.60035 21.7778 12.0004C21.7778 17.4005 17.4001 21.7782 12 21.7782C6.59992 21.7782 2.22223 17.4005 2.22223 12.0004C2.22223 6.60035 6.59992 2.22266 12 2.22266ZM15.4689 15.6093H8.52445L8.43396 15.6154C8.10863 15.6595 7.85778 15.9385 7.85778 16.276C7.85778 16.6135 8.10863 16.8924 8.43396 16.9366L8.52445 16.9427H15.4689L15.5594 16.9366C15.8847 16.8924 16.1356 16.6135 16.1356 16.276C16.1356 15.9078 15.8371 15.6093 15.4689 15.6093ZM11.9967 6.45377C11.6285 6.45377 11.3301 6.75226 11.3301 7.12043L11.3294 12.9391L9.61254 11.1471L9.53921 11.081C9.28241 10.8818 8.91165 10.8954 8.66996 11.127C8.4041 11.3818 8.39512 11.8037 8.64987 12.0696L11.1143 14.6412L11.2082 14.7295C11.6948 15.1415 12.4279 15.1121 12.8791 14.6413L15.3437 12.0696L15.4066 11.9935C15.5947 11.7284 15.5653 11.3586 15.3236 11.127C15.0578 10.8723 14.6357 10.8812 14.381 11.1471L12.6628 12.9391L12.6634 7.12043L12.6573 7.02994C12.6131 6.70461 12.3341 6.45377 11.9967 6.45377Z" fill="white"/>
</svg>
