<svg width="24" height="24" viewBox="0 0 24 24" fill="none" xmlns="http://www.w3.org/2000/svg">
<path fill-rule="evenodd" clip-rule="evenodd" d="M5.7425 9.2893C5.7265 9.2893 5.7115 9.2923 5.6955 9.2923L6.6575 6.8473C6.9225 6.1733 7.5615 5.7373 8.2865 5.7373H15.7135C16.4375 5.7373 17.0765 6.1733 17.3425 6.8473L18.3035 9.2923C18.2875 9.2923 18.2725 9.2893 18.2575 9.2893H5.7425ZM17.5975 12.5473H20.7575V11.7893C20.7575 11.3133 20.6195 10.8693 20.3865 10.4893L18.7375 6.2983C18.2455 5.0473 17.0575 4.2373 15.7135 4.2373H8.2865C6.9405 4.2373 5.7545 5.0473 5.2625 6.2983L3.6135 10.4883C3.3805 10.8693 3.2425 11.3133 3.2425 11.7893V12.5473H6.4015C6.8155 12.5473 7.1515 12.8833 7.1515 13.2973C7.1515 13.7113 6.8155 14.0473 6.4015 14.0473H3.2425V14.8043C3.2425 15.5213 3.5505 16.1693 4.0385 16.6263V18.5123C4.0385 19.2023 4.5975 19.7623 5.2885 19.7623H5.7885C6.4785 19.7623 7.0385 19.2023 7.0385 18.5123V17.3043H16.9615V18.5123C16.9615 19.2023 17.5205 19.7623 18.2115 19.7623H18.7115C19.4015 19.7623 19.9615 19.2023 19.9615 18.5123V16.6263C20.4485 16.1693 20.7575 15.5213 20.7575 14.8043V14.0473H17.5975C17.1825 14.0473 16.8475 13.7113 16.8475 13.2973C16.8475 12.8833 17.1825 12.5473 17.5975 12.5473Z" fill="white"/>
</svg>
