<svg width="24" height="24" viewBox="0 0 24 24" fill="none" xmlns="http://www.w3.org/2000/svg">
<path d="M4.956 9.869L5.675 4.892C5.727 4.523 6.044 4.25 6.417 4.25H17.583C17.955 4.25 18.271 4.523 18.325 4.892L19.044 9.869M7.2432 15.9999V18.2499C7.2432 19.0779 6.5722 19.7499 5.7432 19.7499C4.9152 19.7499 4.2432 19.0779 4.2432 18.2499V15.7499M19.7558 15.7499V18.2499C19.7558 19.0779 19.0838 19.7499 18.2558 19.7499C17.4278 19.7499 16.7558 19.0779 16.7558 18.2499V15.9999M3.7471 12.9979H5.9971M18.0439 12.9979H20.2939M18.5 15.9979H5.5C4.396 15.9979 3.5 15.1019 3.5 13.9979V11.9979C3.5 10.8939 4.396 9.9979 5.5 9.9979H18.5C19.604 9.9979 20.5 10.8939 20.5 11.9979V13.9979C20.5 15.1019 19.604 15.9979 18.5 15.9979Z" stroke="white" stroke-width="1.5" stroke-linecap="round" stroke-linejoin="round"/>
</svg>
