<svg width="24" height="24" viewBox="0 0 24 24" fill="none" xmlns="http://www.w3.org/2000/svg">
<path d="M15.069 3C16.9635 3 18.5 4.5361 18.5 6.431L18.5009 12.0206C18.3357 12.007 18.1687 12 18 12C17.6594 12 17.3253 12.0284 17.0002 12.0829L17 6.431C17 5.3646 16.1352 4.5 15.069 4.5H8.931C7.8642 4.5 7 5.3642 7 6.431V17.569C7 18.6358 7.8642 19.5 8.931 19.5L12.1892 19.5007C12.3263 20.033 12.5345 20.5367 12.8033 21.001L8.931 21C7.0358 21 5.5 19.4642 5.5 17.569V6.431C5.5 4.5358 7.0358 3 8.931 3H15.069Z" fill="white"/>
<path d="M12.4023 16.8281H10.4023" stroke="white" stroke-width="1.5" stroke-linecap="round" stroke-linejoin="round"/>
<path d="M11.4023 16.8281H10.4023" stroke="white" stroke-width="1.5" stroke-linecap="round" stroke-linejoin="round"/>
<path d="M17.3 15.4746C15.4776 15.4746 14 16.9521 14 18.7746C14 20.5969 15.4777 22.0746 17.3 22.0746C19.1223 22.0746 20.6 20.5969 20.6 18.7746C20.6 16.9521 19.1224 15.4746 17.3 15.4746ZM17.3 16.5167C18.5469 16.5167 19.5579 17.5277 19.5579 18.7746C19.5579 20.0214 18.5468 21.0325 17.3 21.0325C16.0532 21.0325 15.0421 20.0214 15.0421 18.7746C15.0421 17.5277 16.0531 16.5167 17.3 16.5167Z" fill="white"/>
<path fill-rule="evenodd" clip-rule="evenodd" d="M23.075 15.9904C23.075 14.3414 21.6968 13 20.0026 13C18.8367 13 17.8206 13.6355 17.3 14.5694C17.4905 14.5367 17.6854 14.5166 17.885 14.5166C18.1449 14.5166 18.3968 14.548 18.6401 14.6023C18.9947 14.2722 19.4742 14.068 20.0026 14.068C21.0919 14.068 21.9777 14.9305 21.9777 15.9904C21.9777 16.5915 21.6925 17.1285 21.2476 17.4812C21.2584 17.5881 21.2645 17.6964 21.2645 17.8062C21.2645 18.1432 21.2115 18.4687 21.1143 18.775C22.2601 18.3402 23.075 17.2574 23.075 15.9904Z" fill="white"/>
</svg>
