<svg width="24" height="24" viewBox="0 0 24 24" fill="none" xmlns="http://www.w3.org/2000/svg">
<path fill-rule="evenodd" clip-rule="evenodd" d="M15.6862 14.4877L15.1642 15.0087C14.6962 15.4767 14.3212 15.5747 13.9572 15.5687C13.6602 15.5637 13.2672 15.3547 13.1782 15.2957C10.2562 13.6237 8.8812 11.1907 8.6122 10.6697C8.5952 10.6367 8.4472 10.3397 8.4312 10.0417C8.4122 9.67867 8.5222 9.30367 8.9912 8.83567L9.5132 8.31367C9.9762 7.84767 10.0842 7.47267 10.0682 7.11267C10.0512 6.74867 9.9062 6.36167 9.3922 5.84767L8.0962 4.55267C7.5832 4.03867 7.1952 3.89367 6.8322 3.87667C6.4702 3.85967 6.0962 3.96767 5.6302 4.43167L5.6272 4.43467L5.6252 4.43567C4.1482 5.91567 3.8142 7.32467 3.8832 8.78567C3.9272 9.69367 4.1682 10.6407 4.8432 11.7257C4.8432 11.7257 7.2312 15.6337 11.8472 18.8727C11.9012 18.9107 11.9562 18.9487 12.0102 18.9847C12.0922 19.0407 12.2632 19.1537 12.2652 19.1517C13.3532 19.8307 14.3032 20.0727 15.2152 20.1167C16.6752 20.1857 18.0842 19.8517 19.5632 18.3747L19.5652 18.3727L19.5682 18.3687C20.0332 17.9047 20.1412 17.5297 20.1232 17.1677C20.1062 16.8047 19.9612 16.4167 19.4462 15.9047L18.1522 14.6087C17.6392 14.0937 17.2512 13.9487 16.8872 13.9317C16.5262 13.9157 16.1512 14.0237 15.6862 14.4877Z" stroke="white" stroke-width="1.5" stroke-linecap="round" stroke-linejoin="round"/>
</svg>
