<svg width="24" height="24" viewBox="0 0 24 24" fill="none" xmlns="http://www.w3.org/2000/svg">
<path d="M19.4587 15.8926L18.1587 14.5926C17.6587 14.0926 17.2587 13.8926 16.8587 13.8926C16.4587 13.8926 16.1587 13.9926 15.6587 14.4926L15.1587 14.9926C14.6587 15.4926 14.3587 15.5926 13.9587 15.5926C13.6587 15.5926 13.2587 15.3926 13.1587 15.2926C10.2587 13.5926 8.85873 11.1926 8.55873 10.6926C8.55873 10.6926 8.35873 10.3926 8.35873 10.0926C8.35873 9.69258 8.45873 9.39258 8.95873 8.89258L9.45873 8.39258C9.95873 7.89258 10.0587 7.59258 10.0587 7.19258C10.0587 6.79258 9.85873 6.39258 9.35873 5.89258L8.05873 4.59258C7.55873 4.09258 7.15873 3.89258 6.75873 3.89258C6.35873 3.89258 6.05873 3.99258 5.55873 4.49258C4.05873 5.99258 3.75873 7.39258 3.85873 8.79258C3.85873 9.69258 4.15873 10.6926 4.85873 11.6926C4.85873 11.6926 7.25873 15.5926 11.8587 18.7926C11.9587 18.7926 11.9587 18.8926 12.0587 18.8926C12.1587 18.9926 12.3587 19.0926 12.3587 19.0926C13.4587 19.7926 14.3587 19.9926 15.2587 20.0926C16.7587 20.1926 18.1587 19.7926 19.5587 18.3926C20.0587 17.8926 20.1587 17.5926 20.1587 17.1926C20.0587 16.7926 19.9587 16.3926 19.4587 15.8926Z" fill="white"/>
</svg>
