<svg width="24" height="24" viewBox="0 0 24 24" fill="none" xmlns="http://www.w3.org/2000/svg">
<path fill-rule="evenodd" clip-rule="evenodd" d="M8.20274 20.375H16.4217C17.8927 20.375 19.0907 19.178 19.0907 17.706V6.294C19.0907 4.822 17.8927 3.625 16.4217 3.625H8.20274C6.73074 3.625 5.53374 4.822 5.53374 6.294V8.186C5.53374 8.6 5.86974 8.936 6.28374 8.936C6.69774 8.936 7.03374 8.6 7.03374 8.186V6.294C7.03374 5.649 7.55774 5.125 8.20274 5.125H16.4217C17.0657 5.125 17.5907 5.649 17.5907 6.294V17.706C17.5907 18.351 17.0657 18.875 16.4217 18.875H8.20274C7.55774 18.875 7.03374 18.351 7.03374 17.706V12.906L7.83274 13.744C8.11974 14.043 8.59374 14.054 8.89374 13.769C9.19274 13.482 9.20374 13.008 8.91774 12.708L6.98574 10.684C6.79774 10.487 6.53474 10.374 6.26274 10.374C5.99074 10.374 5.72674 10.487 5.53874 10.684L3.60674 12.708C3.32074 13.008 3.33174 13.482 3.63074 13.769C3.77674 13.907 3.96274 13.976 4.14874 13.976C4.34674 13.976 4.54374 13.898 4.69174 13.744L5.53374 12.861V17.706C5.53374 19.178 6.73074 20.375 8.20274 20.375Z" fill="white"/>
</svg>
