<svg width="24" height="24" viewBox="0 0 24 24" fill="none" xmlns="http://www.w3.org/2000/svg">
<path d="M11.0216 18.4763C10.8296 18.6683 10.0966 19.2234 9.82458 19.2774L4.65658 20.2903C4.38458 20.3443 4.20658 20.1653 4.25958 19.8933L5.27358 14.7283C5.32758 14.4563 5.88158 13.7223 6.07358 13.5303M11.2101 18.2928C10.9181 18.5848 10.4411 18.5848 10.1491 18.2928L6.26008 14.4037C5.96908 14.1117 5.96908 13.6347 6.26008 13.3427L14.7671 4.83575C15.5481 4.05475 16.8141 4.05475 17.5961 4.83575L19.7171 6.95775C20.4981 7.73775 20.4981 9.00375 19.7171 9.78575L11.2101 18.2928Z" stroke="white" stroke-width="1.5" stroke-linecap="round" stroke-linejoin="round"/>
</svg>
