<svg width="24" height="24" viewBox="0 0 24 24" fill="none" xmlns="http://www.w3.org/2000/svg">
<path d="M19.9904 17.4551V8.74607M5.92595 11.3125V16.0525C5.92595 16.6505 6.28095 17.1915 6.82895 17.4295L10.9479 19.2155C11.3289 19.3805 11.762 19.3805 12.143 19.2155L16.2619 17.4295C16.8099 17.1915 17.1649 16.6505 17.1649 16.0525V11.3125M19.2208 9.86427L12.6618 12.5913C11.9278 12.8963 11.1018 12.8973 10.3668 12.5933L3.87385 9.91727C2.84385 9.49227 2.84185 8.03427 3.86985 7.60727L10.4288 4.88027C11.1628 4.57527 11.9898 4.57327 12.7248 4.87727L19.2169 7.55327C20.2469 7.97827 20.2488 9.43627 19.2208 9.86427Z" stroke="white" stroke-width="1.3" stroke-linecap="round" stroke-linejoin="round"/>
</svg>
