<svg width="24" height="24" viewBox="0 0 24 24" fill="none" xmlns="http://www.w3.org/2000/svg">
<path d="M18.3071 8.64469L12.4111 12.9757C12.2791 13.0737 12.1221 13.1217 11.9671 13.1217C11.8091 13.1217 11.6521 13.0727 11.5191 12.9737L5.69007 8.64269C5.35807 8.39569 5.28907 7.92569 5.53607 7.59269C5.78307 7.26069 6.25307 7.19169 6.58507 7.43869L11.9691 11.4387L17.4191 7.43569C17.7521 7.19069 18.2221 7.26169 18.4681 7.59669C18.7131 7.92969 18.6411 8.39969 18.3071 8.64469Z" fill="white"/>
<path d="M5.75 4.59961C4.375 4.59961 3.25 5.72461 3.25 7.09961V16.8496C3.25 18.2246 4.375 19.3496 5.75 19.3496H18.25C19.625 19.3496 20.75 18.2246 20.75 16.8496V7.09961C20.75 5.72461 19.625 4.59961 18.25 4.59961H5.75Z" stroke="white" stroke-width="1.5" stroke-linecap="round" stroke-linejoin="round"/>
</svg>
