<svg width="24" height="24" viewBox="0 0 24 24" fill="none" xmlns="http://www.w3.org/2000/svg">
<path d="M18.307 8.67L12.411 13.001C12.279 13.099 12.122 13.147 11.967 13.147C11.809 13.147 11.652 13.098 11.519 12.999L5.69 8.668C5.358 8.421 5.289 7.951 5.536 7.618C5.783 7.286 6.253 7.217 6.585 7.464L11.969 11.464L17.419 7.461C17.752 7.216 18.222 7.287 18.468 7.622C18.713 7.955 18.641 8.425 18.307 8.67ZM18.25 4.625H5.75C4.375 4.625 3.25 5.75 3.25 7.125V16.875C3.25 18.25 4.375 19.375 5.75 19.375H18.25C19.625 19.375 20.75 18.25 20.75 16.875V7.125C20.75 5.75 19.625 4.625 18.25 4.625Z" fill="white"/>
</svg>
