<svg width="24" height="24" viewBox="0 0 24 24" fill="none" xmlns="http://www.w3.org/2000/svg">
<path d="M17.2193 13.2622C17.5053 12.9621 17.9803 12.9521 18.2803 13.2381L20.2383 15.1072L20.9273 15.7652C21.1393 15.9672 21.2613 16.2531 21.2613 16.5462C21.2613 16.8412 21.1393 17.1262 20.9263 17.3291L18.2803 19.8552C18.1343 19.9942 17.9473 20.0632 17.7613 20.0632C17.5643 20.0632 17.3663 19.9851 17.2193 19.8312C16.9333 19.5311 16.9443 19.0562 17.2443 18.7701L17.3323 18.6861L18.7883 17.2962H13.2873C12.8733 17.2962 12.5373 16.9611 12.5373 16.5462C12.5373 16.1322 12.8733 15.7961 13.2873 15.7961H18.7883L17.2433 14.3231C16.9443 14.0371 16.9333 13.5622 17.2193 13.2622ZM17.7385 3.93652C19.1135 3.93652 20.2385 5.06142 20.2385 6.43642V13.0335L19.3155 12.1524C18.8945 11.7514 18.3435 11.5305 17.7625 11.5305C17.1505 11.5305 16.5575 11.7844 16.1345 12.2265C15.7195 12.6605 15.4985 13.2315 15.5125 13.8325C15.5165 13.9914 15.5365 14.1465 15.5715 14.2975H13.2875C12.0465 14.2975 11.0375 15.3065 11.0375 16.5474V18.6864H5.23853C3.86353 18.6864 2.73853 17.5614 2.73853 16.1864V6.43642C2.73853 5.06142 3.86353 3.93652 5.23853 3.93652H17.7385ZM17.9555 6.93352C17.7105 6.59942 17.2405 6.52842 16.9065 6.77352L11.4575 10.7765L6.07253 6.77552C5.74053 6.52842 5.27053 6.59752 5.02353 6.93052C4.77653 7.26252 4.84553 7.73242 5.17853 7.97952L11.0075 12.3104C11.1395 12.4094 11.2975 12.4584 11.4545 12.4584C11.6105 12.4584 11.7665 12.4094 11.8985 12.3135L17.7945 7.98242C18.1285 7.73642 18.2005 7.26752 17.9555 6.93352Z" fill="white"/>
</svg>
