<svg width="24" height="24" viewBox="0 0 24 24" fill="none" xmlns="http://www.w3.org/2000/svg">
<path d="M18.29 9.9625L12.394 14.0435C12.265 14.1325 12.116 14.1775 11.967 14.1775C11.816 14.1775 11.665 14.1325 11.537 14.0415L5.707 9.9605C5.369 9.7235 5.286 9.2555 5.523 8.9155C5.761 8.5765 6.229 8.4935 6.568 8.7325L11.969 12.5135L17.436 8.7295C17.777 8.4935 18.244 8.5785 18.48 8.9195C18.715 9.2605 18.63 9.7275 18.29 9.9625ZM20.75 8.9545C20.75 8.0055 20.213 7.1385 19.363 6.7155L13.13 3.6175C12.408 3.2525 11.593 3.2525 10.871 3.6175L4.638 6.7155C3.788 7.1385 3.25 8.0055 3.25 8.9545V18.1555C3.25 19.5305 4.375 20.6555 5.75 20.6555H18.25C19.625 20.6555 20.75 19.5305 20.75 18.1555V8.9545Z" fill="white"/>
</svg>
