<svg width="24" height="24" viewBox="0 0 24 24" fill="none" xmlns="http://www.w3.org/2000/svg">
<path fill-rule="evenodd" clip-rule="evenodd" d="M11.2813 12.1423V8.59649C11.2813 8.19969 11.6032 7.87769 12 7.87769C12.3968 7.87769 12.7188 8.19969 12.7188 8.59649V12.1423C12.7188 12.5391 12.3968 12.8611 12 12.8611C11.6032 12.8611 11.2813 12.5391 11.2813 12.1423ZM11.999 14.2861C12.529 14.2861 12.9583 14.7154 12.9583 15.2444C12.9583 15.7744 12.529 16.2028 11.999 16.2028C11.47 16.2028 11.0417 15.7744 11.0417 15.2444C11.0417 14.7154 11.47 14.2861 11.999 14.2861ZM19.3657 17.5703H18.1765L16.9153 7.00179C16.7821 5.89299 15.7682 4.99219 14.6527 4.99219H9.34833C8.23283 4.99219 7.21793 5.89299 7.08573 7.00179L5.82353 17.5703H4.63433C4.23753 17.5703 3.91553 17.8923 3.91553 18.2891C3.91553 18.6858 4.23753 19.0078 4.63433 19.0078H19.3657C19.7625 19.0078 20.0845 18.6858 20.0845 18.2891C20.0845 17.8923 19.7625 17.5703 19.3657 17.5703Z" fill="white"/>
</svg>
