<svg width="24" height="24" viewBox="0 0 24 24" fill="none" xmlns="http://www.w3.org/2000/svg">
<path d="M9.13586 9.13867C9.70386 9.13867 10.1649 9.59767 10.1649 10.1677C10.1649 10.7347 9.70386 11.1957 9.13586 11.1957C8.56886 11.1957 8.10986 10.7347 8.10986 10.1677C8.10986 9.59767 8.56886 9.13867 9.13586 9.13867ZM15.067 9.13867C15.635 9.13867 16.096 9.59767 16.096 10.1677C16.096 10.7347 15.635 11.1957 15.067 11.1957C14.5 11.1957 14.041 10.7347 14.041 10.1677C14.041 9.59767 14.5 9.13867 15.067 9.13867Z" fill="white"/>
<path fill-rule="evenodd" clip-rule="evenodd" d="M20.5 12.125C20.5 7.499 16.75 3.75 12.125 3.75C7.5 3.75 3.75 7.499 3.75 12.125C3.75 16.75 7.5 20.5 12.125 20.5C16.75 20.5 20.5 16.75 20.5 12.125Z" stroke="white" stroke-width="1.5" stroke-linecap="round" stroke-linejoin="round"/>
<path d="M8.48169 13.6318C9.07869 15.1368 10.5087 16.1098 12.1257 16.1098C13.7417 16.1098 15.1717 15.1368 15.7687 13.6318" stroke="white" stroke-width="1.5" stroke-linecap="round" stroke-linejoin="round"/>
</svg>
