<svg width="24" height="24" viewBox="0 0 24 24" fill="none" xmlns="http://www.w3.org/2000/svg">
<path d="M11.9994 3C16.9614 3 21 7.0364 21 11.9994C21 16.9614 16.9614 20.9989 11.9994 20.9989C7.0375 20.9989 3 16.9614 3 11.9994C3 7.0364 7.0375 3 11.9994 3ZM11.9994 4.4459C7.8355 4.4459 4.447 7.8344 4.447 11.9994C4.447 16.1645 7.8355 19.5518 11.9994 19.5518C16.1645 19.5518 19.5518 16.1634 19.5518 11.9994C19.5518 7.8344 16.1645 4.4459 11.9994 4.4459ZM14.2264 15.7985V16.7873H9.4V15.7985H14.2264ZM10.4595 9.0261V9.9957H8.5745V14.9712H7.5157V9.9957H5.6375V9.0261H10.4595ZM18.3646 9.0261V9.9957H16.4796V14.9712H15.4197V9.9957H13.5415V9.0261H18.3646Z" fill="white"/>
</svg>
