<svg width="24" height="24" viewBox="0 0 24 24" fill="none" xmlns="http://www.w3.org/2000/svg">
<path d="M11.9994 3C16.9625 3 21 7.0364 21 11.9994C21 16.9614 16.9625 20.9989 11.9994 20.9989C7.0375 20.9989 3 16.9614 3 11.9994C3 7.0364 7.0375 3 11.9994 3ZM11.9994 4.4459C7.8355 4.4459 4.447 7.8344 4.447 11.9994C4.447 16.1645 7.8355 19.5518 11.9994 19.5518C16.1645 19.5518 19.5518 16.1645 19.5518 11.9994C19.5518 7.8344 16.1645 4.4459 11.9994 4.4459ZM13.2435 15.0807V16.0988H8.1969V15.0807H13.2435ZM16.8984 13.4954V14.4458C16.8984 14.7641 16.8442 15.0271 16.7347 15.2291C16.623 15.4379 16.4435 15.6016 16.2031 15.7133L16.0801 15.7731L15.738 15.2122L15.8916 15.1388C15.9999 15.088 16.0778 15.0158 16.1275 14.9187C16.167 14.8419 16.1952 14.7347 16.2087 14.5993H15.8475V13.4954H16.8984ZM18.3634 13.4954V14.4458C18.3634 14.7629 18.3092 15.0248 18.1997 15.2291C18.088 15.4379 17.9085 15.6005 17.6681 15.7133L17.545 15.7731L17.2042 15.2122L17.3565 15.1388C17.466 15.088 17.5428 15.0146 17.5936 14.9187C17.632 14.8419 17.6613 14.7336 17.6737 14.5993H17.3125V13.4954H18.3634ZM16.8995 10.1582V11.2621H15.8487V10.1582H16.8995ZM18.3635 10.1582V11.2621H17.3126V10.1582H18.3635ZM14.9784 9.3941V10.4122H11.7807V9.3941H14.9784ZM9.206 9.3941V10.4122H6.0072V9.3941H9.206Z" fill="white"/>
</svg>
