<svg width="24" height="24" viewBox="0 0 24 24" fill="none" xmlns="http://www.w3.org/2000/svg">
<path d="M11.9994 3C16.9625 3 21 7.0364 21 12.0006C21 16.9625 16.9625 20.9989 11.9994 20.9989C7.0375 20.9989 3 16.9625 3 12.0006C3 7.0375 7.0375 3 11.9994 3ZM11.9994 4.4493C7.8366 4.4493 4.4493 7.8355 4.4493 11.9994C4.4493 16.1622 7.8366 19.5496 11.9994 19.5496C16.1622 19.5496 19.5496 16.1622 19.5496 11.9994C19.5496 7.8355 16.1622 4.4493 11.9994 4.4493ZM14.626 15.5758V16.5657H9.6415V15.5758H14.626ZM8.4148 8.647L9.9431 12.0953H8.8922L8.0299 10.0094L7.1912 12.0953H6.1257L7.645 8.647H8.4148ZM16.6467 8.647L18.1739 12.0953H17.1253L16.2618 10.0094L15.422 12.0953H14.3576L15.8769 8.647H16.6467Z" fill="white"/>
</svg>
