<svg width="24" height="24" viewBox="0 0 24 24" fill="none" xmlns="http://www.w3.org/2000/svg">
<path d="M8.08 12.809C8.466 12.657 8.901 12.845 9.054 13.23C9.537 14.448 10.693 15.234 12 15.234C13.308 15.234 14.464 14.448 14.946 13.23C15.099 12.846 15.534 12.657 15.919 12.809C16.305 12.962 16.493 13.397 16.341 13.783C15.63 15.576 13.927 16.734 12 16.734C10.074 16.734 8.371 15.576 7.659 13.783C7.507 13.398 7.695 12.962 8.08 12.809ZM9.011 9.014C9.579 9.014 10.04 9.473 10.04 10.042C10.04 10.609 9.579 11.07 9.011 11.07C8.443 11.07 7.985 10.609 7.985 10.042C7.985 9.473 8.443 9.014 9.011 9.014ZM14.942 9.014C15.511 9.014 15.972 9.473 15.972 10.042C15.972 10.609 15.511 11.07 14.942 11.07C14.375 11.07 13.916 10.609 13.916 10.042C13.916 9.473 14.375 9.014 14.942 9.014ZM12 20.375C16.625 20.375 20.375 16.625 20.375 12C20.375 7.374 16.625 3.625 12 3.625C7.374 3.625 3.625 7.374 3.625 12C3.625 16.625 7.374 20.375 12 20.375Z" fill="white"/>
</svg>
