<svg width="24" height="24" viewBox="0 0 24 24" fill="none" xmlns="http://www.w3.org/2000/svg">
<path d="M11.9994 3C16.9614 3 21 7.0375 21 12.0006C21 16.9625 16.9614 20.9989 11.9994 20.9989C7.0375 20.9989 3 16.9625 3 12.0006C3 7.0375 7.0375 3 11.9994 3ZM11.9994 4.4459C7.8355 4.4459 4.447 7.8344 4.447 11.9994C4.447 16.1645 7.8355 19.5518 11.9994 19.5518C16.1645 19.5518 19.5518 16.1645 19.5518 11.9994C19.5518 7.8344 16.1645 4.4459 11.9994 4.4459ZM13.4713 11.6554V17.9899H8.2712V11.6554H13.4713ZM12.5785 12.5369H9.1663V17.1072H12.5785V12.5369ZM18.3612 13.1151V14.0666C18.3612 14.3838 18.3104 14.6457 18.2066 14.8466C18.1005 15.0554 17.9312 15.2191 17.7032 15.3331L17.5734 15.3974L17.2506 14.8296L17.395 14.7585C17.4955 14.71 17.5666 14.6377 17.6151 14.5418C17.6535 14.4651 17.6795 14.3567 17.693 14.219H17.3521V13.1151H18.3612ZM18.361 9.7783V10.8822H17.3519V9.7783H18.361ZM7.6697 7.1453C8.3786 7.1453 8.9553 7.7198 8.9553 8.4253C8.9553 9.1319 8.3786 9.7064 7.6697 9.7064C6.9597 9.7064 6.3829 9.1319 6.3829 8.4253C6.3829 7.7198 6.9597 7.1453 7.6697 7.1453ZM14.8234 7.1464C15.5289 7.1464 16.1034 7.7198 16.1034 8.4264C16.1034 9.1319 15.5289 9.7064 14.8234 9.7064C14.1157 9.7064 13.5423 9.1319 13.5423 8.4264C13.5423 7.7198 14.1157 7.1464 14.8234 7.1464ZM7.6697 8.0009C7.4338 8.0009 7.2419 8.1916 7.2419 8.4253C7.2419 8.6601 7.4338 8.8508 7.6697 8.8508C7.9056 8.8508 8.0975 8.6601 8.0964 8.4253C8.0964 8.1916 7.9045 8.0009 7.6697 8.0009ZM14.8234 8.0009C14.5886 8.0009 14.3979 8.1916 14.3979 8.4253C14.3979 8.6601 14.5886 8.8508 14.8234 8.8508C15.0571 8.8508 15.2467 8.6601 15.2467 8.4253C15.2467 8.1916 15.0571 8.0009 14.8234 8.0009Z" fill="white"/>
</svg>
