<svg width="24" height="24" viewBox="0 0 24 24" fill="none" xmlns="http://www.w3.org/2000/svg">
<path d="M11.9994 3C16.9614 3 21 7.0375 21 12.0006C21 16.9614 16.9614 20.9989 11.9994 20.9989C7.0375 20.9989 3 16.9614 3 12.0006C3 7.0375 7.0375 3 11.9994 3ZM11.9994 4.4459C7.8355 4.4459 4.447 7.8344 4.447 11.9994C4.447 16.1645 7.8355 19.5518 11.9994 19.5518C16.1645 19.5518 19.5518 16.1634 19.5518 11.9994C19.5518 7.8344 16.1645 4.4459 11.9994 4.4459ZM12.9746 10.9883V16.0575H13.4915V18.3816H12.5084V17.0406H9.0161V18.3816H8.0318V16.0575H8.5465C8.963 15.3644 9.173 13.993 9.173 11.9793V10.9883H12.9746ZM10.2103 11.9703V12.1125C10.2103 12.6024 10.1663 13.283 10.0793 14.133C10.0015 14.8858 9.8558 15.5315 9.6436 16.0563H11.909V11.9714L10.2103 11.9703ZM17.139 7.008L17.1345 7.1649C17.1289 7.3625 17.1097 7.6006 17.0781 7.876C17.2892 7.7824 17.5205 7.6943 17.7689 7.6119L17.9145 7.5634L18.1888 8.4111L18.0432 8.4573C17.8072 8.5341 17.5747 8.595 17.3445 8.6368C17.4754 8.7756 17.6312 8.954 17.8118 9.1763L17.9156 9.3028L17.1898 9.8175L17.1007 9.6967C16.9821 9.533 16.8444 9.3253 16.6932 9.0736C16.5487 9.3355 16.4178 9.5421 16.2981 9.699L16.209 9.8163L15.4956 9.3028L15.5972 9.1775C15.7857 8.945 15.9403 8.7621 16.0633 8.6255C15.8241 8.5759 15.5915 8.5205 15.3669 8.4607L15.2111 8.419L15.4888 7.5611L15.6356 7.613C15.911 7.7101 16.1356 7.797 16.3128 7.876C16.2823 7.5431 16.2643 7.3083 16.2609 7.1627L16.2597 7.008H17.139ZM13.8666 7.2831L14.7865 8.4006L13.2131 9.6941L12.2943 8.5778L13.8666 7.2831ZM7.1885 7.2837L8.762 8.5761L7.8443 9.6935L6.2697 8.4L7.1885 7.2837Z" fill="white"/>
</svg>
