<svg width="24" height="24" viewBox="0 0 24 24" fill="none" xmlns="http://www.w3.org/2000/svg">
<path d="M16.508 9.41454L11.47 14.4525C11.274 14.6475 10.958 14.6475 10.763 14.4525L7.49495 11.1855M20.2212 9.50294C20.0152 7.94794 19.4652 6.53894 18.4942 5.50594C17.4632 4.53594 16.0522 3.98494 14.4972 3.77894C13.0112 3.58294 12.0002 3.62994 12.0002 3.62994C12.0002 3.62994 10.9882 3.58294 9.50315 3.77894C7.94815 3.98494 6.53815 4.53594 5.50615 5.50594C4.53515 6.53894 3.98515 7.94794 3.77915 9.50294C3.58215 10.9889 3.63015 11.9999 3.63015 11.9999C3.63015 11.9999 3.58215 13.0119 3.77915 14.4979C3.98515 16.0519 4.53515 17.4619 5.50615 18.4949C6.53815 19.4649 7.94815 20.0159 9.50315 20.2219C10.9882 20.4179 12.0002 20.3709 12.0002 20.3709C12.0002 20.3709 13.0112 20.4179 14.4972 20.2219C16.0522 20.0159 17.4622 19.4649 18.4932 18.4949C19.4642 17.4619 20.0152 16.0519 20.2212 14.4979C20.4182 13.0119 20.3692 11.9999 20.3692 11.9999C20.3692 11.9999 20.4182 10.9889 20.2212 9.50294Z" stroke="white" stroke-width="1.5" stroke-linecap="round" stroke-linejoin="round"/>
</svg>
