<svg width="24" height="24" viewBox="0 0 24 24" fill="none" xmlns="http://www.w3.org/2000/svg">
<path fill-rule="evenodd" clip-rule="evenodd" d="M17.0314 9.93694L12.0114 14.9719C11.7734 15.2109 11.4544 15.3429 11.1164 15.3429C10.7784 15.3429 10.4604 15.2109 10.2214 14.9719L6.9694 11.7089C6.6774 11.4159 6.6774 10.9419 6.9704 10.6489C7.2644 10.3569 7.7394 10.3569 8.0314 10.6509L11.1164 13.7459L15.9694 8.87794C16.2614 8.58394 16.7364 8.58294 17.0304 8.87594C17.3234 9.16794 17.3234 9.64394 17.0314 9.93694ZM20.2214 9.50294C20.0154 7.94794 19.4654 6.53894 18.4944 5.50594C17.4634 4.53594 16.0524 3.98494 14.4974 3.77894C13.0114 3.58294 12.0004 3.62994 12.0004 3.62994C12.0004 3.62994 10.9884 3.58294 9.5034 3.77894C7.9484 3.98494 6.5384 4.53594 5.5064 5.50594C4.5354 6.53894 3.9854 7.94794 3.7794 9.50294C3.5824 10.9889 3.6304 11.9999 3.6304 11.9999C3.6304 11.9999 3.5824 13.0119 3.7794 14.4979C3.9854 16.0519 4.5354 17.4619 5.5064 18.4949C6.5384 19.4649 7.9484 20.0159 9.5034 20.2219C10.9884 20.4179 12.0004 20.3709 12.0004 20.3709C12.0004 20.3709 13.0114 20.4179 14.4974 20.2219C16.0524 20.0159 17.4624 19.4649 18.4934 18.4949C19.4644 17.4619 20.0154 16.0519 20.2214 14.4979C20.4184 13.0119 20.3694 11.9999 20.3694 11.9999C20.3694 11.9999 20.4184 10.9889 20.2214 9.50294Z" fill="white"/>
</svg>
