<svg width="24" height="24" viewBox="0 0 24 24" fill="none" xmlns="http://www.w3.org/2000/svg">
<path d="M7.454 13.1029C5.99716 12.3805 5.10833 11.1482 4.17005 10.9136C3.83885 10.8308 3.4366 10.8751 3.23177 11.1482C3.02696 11.4213 3.03602 11.885 3.23178 12.1646C3.7791 12.9465 5.05284 13.9737 6.51573 14.9794C7.60869 15.7308 9.38938 16.6167 9.79421 16.8152C9.84619 16.8407 9.87923 16.8921 9.88142 16.95L10.0286 20.8495C10.0317 20.9335 10.1008 21 10.1848 21H15.0438C15.128 21 15.1971 20.9333 15.2001 20.8492L15.348 16.7099C15.3499 16.655 15.3803 16.6052 15.4283 16.5785C15.7723 16.3868 17.1873 15.591 18.0877 14.9794C19.6144 13.9425 21.2153 13.1029 21.7626 12.0082C21.9402 11.6532 22 11.31 21.7626 10.9918C21.5013 10.6413 20.972 10.7013 20.5898 10.9136C19.8861 11.3047 18.6642 12.5526 17.2277 13.2593C15.519 14.0998 13.088 14.5834 12.6189 14.5834C12.187 14.5867 9.30657 14.0215 7.454 13.1029Z" fill="white"/>
<path d="M14.882 11.4609C14.882 12.7132 13.8668 13.7284 12.6145 13.7284C11.3622 13.7284 10.347 12.7132 10.347 11.4609C10.347 10.2086 11.3622 9.19342 12.6145 9.19342C13.8668 9.19342 14.882 10.2086 14.882 11.4609Z" fill="white"/>
<path d="M11.7544 2.86008C11.7544 2.38507 12.1395 2 12.6145 2C13.0895 2 13.4746 2.38507 13.4746 2.86008V4.26749C13.4746 4.7425 13.0895 5.12757 12.6145 5.12757C12.1395 5.12757 11.7544 4.7425 11.7544 4.26749V2.86008Z" fill="white"/>
<path d="M16.4853 3.70282C16.8212 3.36694 17.3658 3.36694 17.7017 3.70282C18.0376 4.0387 18.0376 4.58328 17.7017 4.91916L16.7065 5.91435C16.3706 6.25023 15.826 6.25023 15.4901 5.91435C15.1543 5.57847 15.1543 5.03389 15.4901 4.69801L16.4853 3.70282Z" fill="white"/>
<path d="M8.5972 3.70282C8.26132 3.36694 7.71674 3.36694 7.38086 3.70282C7.04497 4.0387 7.04497 4.58328 7.38086 4.91916L8.37605 5.91435C8.71193 6.25023 9.2565 6.25023 9.59239 5.91435C9.92827 5.57847 9.92827 5.03389 9.59239 4.69801L8.5972 3.70282Z" fill="white"/>
<path d="M19.0892 7.3374C19.548 7.21446 20.0196 7.48675 20.1426 7.94557C20.2655 8.4044 19.9932 8.87601 19.5344 8.99895L18.1749 9.36322C17.7161 9.48616 17.2445 9.21387 17.1216 8.75505C16.9986 8.29622 17.2709 7.82461 17.7297 7.70167L19.0892 7.3374Z" fill="white"/>
<path d="M5.99334 7.3374C5.53452 7.21446 5.0629 7.48675 4.93996 7.94557C4.81702 8.4044 5.08931 8.87601 5.54813 8.99895L6.90758 9.36322C7.36641 9.48616 7.83802 9.21387 7.96097 8.75505C8.08391 8.29622 7.81162 7.82461 7.35279 7.70167L5.99334 7.3374Z" fill="white"/>
</svg>
