<svg width="24" height="24" viewBox="0 0 24 24" fill="none" xmlns="http://www.w3.org/2000/svg">
<path d="M14.8761 9.24239C15.1441 8.97439 15.5821 8.97339 15.8491 9.24239C16.1181 9.50939 16.1191 9.94839 15.8501 10.2154L13.5151 13.0224C13.5191 13.0684 13.5281 13.1134 13.5281 13.1594C13.5291 14.0004 12.8481 14.6824 12.0071 14.6834C11.1671 14.6844 10.4841 14.0034 10.4831 13.1624C10.4821 12.3214 11.1641 11.6394 12.0041 11.6384H12.0081L14.8761 9.24239Z" fill="white"/>
<path d="M5.99522 19.2466C4.33522 17.5906 3.35622 15.2516 3.51722 12.6866C3.78122 8.47962 7.18022 5.05662 11.3892 4.76162C16.3552 4.41462 20.4952 8.33562 20.5002 13.2256C20.5022 15.5716 19.5522 17.6966 18.0162 19.2346" stroke="white" stroke-width="1.5" stroke-linecap="round" stroke-linejoin="round"/>
</svg>
