<svg width="24" height="24" viewBox="0 0 24 24" fill="none" xmlns="http://www.w3.org/2000/svg">
<path fill-rule="evenodd" clip-rule="evenodd" d="M7.96852 18.5353C8.59252 18.5353 9.09752 19.0392 9.09752 19.6603C9.09752 20.2822 8.59252 20.7853 7.96852 20.7853C7.34552 20.7853 6.84052 20.2822 6.84052 19.6603C6.84052 19.0392 7.34552 18.5353 7.96852 18.5353ZM12.0003 18.5353C12.6233 18.5353 13.1283 19.0392 13.1283 19.6603C13.1283 20.2822 12.6233 20.7853 12.0003 20.7853C11.3763 20.7853 10.8723 20.2822 10.8723 19.6603C10.8723 19.0392 11.3763 18.5353 12.0003 18.5353ZM16.0315 18.5353C16.6545 18.5353 17.1595 19.0392 17.1595 19.6603C17.1595 20.2822 16.6545 20.7853 16.0315 20.7853C15.4075 20.7853 14.9035 20.2822 14.9035 19.6603C14.9035 19.0392 15.4075 18.5353 16.0315 18.5353ZM7.96852 14.7047C8.59252 14.7047 9.09752 15.2086 9.09752 15.8297C9.09752 16.4516 8.59252 16.9546 7.96852 16.9546C7.34552 16.9546 6.84052 16.4516 6.84052 15.8297C6.84052 15.2086 7.34552 14.7047 7.96852 14.7047ZM12.0003 14.7047C12.6233 14.7047 13.1283 15.2086 13.1283 15.8297C13.1283 16.4516 12.6233 16.9546 12.0003 16.9546C11.3763 16.9546 10.8723 16.4516 10.8723 15.8297C10.8723 15.2086 11.3763 14.7047 12.0003 14.7047ZM16.0315 14.7047C16.6545 14.7047 17.1595 15.2086 17.1595 15.8297C17.1595 16.4516 16.6545 16.9546 16.0315 16.9546C15.4075 16.9546 14.9035 16.4516 14.9035 15.8297C14.9035 15.2086 15.4075 14.7047 16.0315 14.7047ZM12.0003 10.8746C12.6233 10.8746 13.1283 11.3786 13.1283 11.9996C13.1283 12.6216 12.6233 13.1246 12.0003 13.1246C11.3763 13.1246 10.8723 12.6216 10.8723 11.9996C10.8723 11.3786 11.3763 10.8746 12.0003 10.8746ZM16.0315 10.8746C16.6545 10.8746 17.1595 11.3786 17.1595 11.9996C17.1595 12.6216 16.6545 13.1246 16.0315 13.1246C15.4075 13.1246 14.9035 12.6216 14.9035 11.9996C14.9035 11.3786 15.4075 10.8746 16.0315 10.8746ZM12.0003 7.04397C12.6233 7.04397 13.1283 7.54807 13.1283 8.16897C13.1283 8.79007 12.6233 9.29397 12.0003 9.29397C11.3763 9.29397 10.8723 8.79007 10.8723 8.16897C10.8723 7.54807 11.3763 7.04397 12.0003 7.04397ZM12.0003 3.21387C12.6233 3.21387 13.1283 3.71787 13.1283 4.33887C13.1283 4.96087 12.6233 5.46387 12.0003 5.46387C11.3763 5.46387 10.8723 4.96087 10.8723 4.33887C10.8723 3.71787 11.3763 3.21387 12.0003 3.21387Z" fill="white"/>
</svg>
