<svg width="24" height="24" viewBox="0 0 24 24" fill="none" xmlns="http://www.w3.org/2000/svg">
<path d="M5.4924 11.6302L5.5 11.75V19.192C5.5 20.192 4 20.192 4 19.192V11.75C4 10.7917 5.3776 10.7517 5.4924 11.6302ZM9.0574 5.6302L9.065 5.75V19.192C9.065 20.192 7.565 20.192 7.565 19.192V5.75C7.565 4.7917 8.9426 4.7517 9.0574 5.6302ZM12.6223 9.3802L12.6299 9.5V19.192C12.6299 20.192 11.1299 20.192 11.1299 19.192V9.5C11.1299 8.5417 12.5075 8.5017 12.6223 9.3802ZM16.1873 15.3802L16.1949 15.5V19.192C16.1949 20.192 14.6949 20.192 14.6949 19.192V15.5C14.6949 14.5417 16.0725 14.5017 16.1873 15.3802ZM19.7522 12.8802L19.7598 13V19.192C19.7598 20.192 18.2598 20.192 18.2598 19.192V13C18.2598 12.0417 19.6374 12.0017 19.7522 12.8802Z" fill="white"/>
</svg>
