<svg width="24" height="24" viewBox="0 0 24 24" fill="none" xmlns="http://www.w3.org/2000/svg">
<path fill-rule="evenodd" clip-rule="evenodd" d="M5 10.9558H11.25V7.45581H6.75C5.785 7.45581 5 8.24081 5 9.20581V10.9558ZM12.75 10.9558H19V9.20581C19 8.24081 18.215 7.45581 17.25 7.45581H12.75V10.9558ZM5.625 12.4558V17.2058C5.625 18.1708 6.41 18.9558 7.375 18.9558H11.25V12.4558H5.625ZM12.75 18.9558H16.625C17.59 18.9558 18.375 18.1708 18.375 17.2058V12.4558H12.75V18.9558ZM12 20.4568C11.987 20.4568 11.974 20.4568 11.961 20.4558H7.375C5.583 20.4558 4.125 18.9978 4.125 17.2058V12.2878C3.751 12.0718 3.5 11.6678 3.5 11.2058V9.20581C3.5 7.41381 4.958 5.95581 6.75 5.95581H10.144L8.533 4.87281C8.189 4.64281 8.098 4.17681 8.329 3.83281C8.56 3.48781 9.027 3.39581 9.37 3.62881L12 5.39581L14.63 3.62881C14.974 3.39581 15.44 3.48781 15.671 3.83281C15.902 4.17681 15.811 4.64281 15.467 4.87281L13.856 5.95581H17.25C19.042 5.95581 20.5 7.41381 20.5 9.20581V11.2058C20.5 11.6678 20.249 12.0718 19.875 12.2878V17.2058C19.875 18.9978 18.417 20.4558 16.625 20.4558H12.039C12.026 20.4568 12.013 20.4568 12 20.4568Z" fill="white"/>
</svg>
