<svg width="24" height="24" viewBox="0 0 24 24" fill="none" xmlns="http://www.w3.org/2000/svg">
<path d="M18.75 12.7906C19.025 12.7906 19.25 13.0146 19.25 13.2906V17.7906C19.25 19.1656 18.125 20.2906 16.75 20.2906H12.75V12.7906H18.75ZM11.25 12.7906V20.2906H7.25C5.875 20.2906 4.75 19.1656 4.75 17.7906V13.2906C4.75 13.0146 4.974 12.7906 5.25 12.7906H11.25ZM14.561 3.85855C14.961 3.58955 15.505 3.69555 15.774 4.09755C16.044 4.49855 15.938 5.04155 15.536 5.31155L12.964 7.04055H17.25C18.625 7.04055 19.75 8.16555 19.75 9.54055V10.7906C19.75 11.0666 19.525 11.2906 19.25 11.2906H12.75V7.01255H11.25V11.2906H4.75C4.474 11.2906 4.25 11.0666 4.25 10.7906V9.54055C4.25 8.16555 5.375 7.04055 6.75 7.04055H11.035L8.463 5.31155C8.062 5.04255 7.955 4.49855 8.225 4.09755C8.494 3.69555 9.037 3.58955 9.438 3.85855L12 5.58055L14.561 3.85855Z" fill="white"/>
</svg>
