<svg width="24" height="24" viewBox="0 0 24 24" fill="none" xmlns="http://www.w3.org/2000/svg">
<path fill-rule="evenodd" clip-rule="evenodd" d="M11.2541 9.6768L21.3371 16.3618C21.6871 16.5508 21.9251 16.8978 21.9721 17.2908C22.0531 17.9598 21.5751 18.5698 20.9071 18.6498C20.6361 18.6838 20.3691 18.6268 20.1351 18.4848L14.0791 14.4868L13.1051 16.1038L15.7751 16.8188C16.2231 16.9668 16.5491 17.3648 16.6061 17.8328C16.6861 18.5008 16.2071 19.1098 15.5391 19.1908C15.3531 19.2138 15.1671 19.1928 14.9801 19.1278L11.0991 18.0618C10.5921 17.9118 10.2131 17.5508 10.0591 17.0698C9.90513 16.5898 10.0011 16.0738 10.3291 15.6498L12.0071 13.0828L10.5891 12.1228L8.25713 13.7248C7.79313 14.0528 7.51113 14.2468 7.07013 14.3078L7.04313 14.3108C6.61013 14.3628 6.16313 14.2378 5.81213 13.9628L4.01613 12.4558C3.67813 12.1528 3.47813 11.9168 3.41013 11.3778C3.32413 10.6978 3.79213 10.2388 4.37113 10.2418C5.01913 10.2458 5.01813 10.3438 5.43213 10.5378L6.76713 11.6858L8.93913 10.1038C9.45413 9.7138 9.82013 9.4748 10.1841 9.4568C10.5611 9.4388 10.9401 9.4908 11.2541 9.6768ZM15.4541 6.9838C15.8261 7.2278 16.0181 7.6758 15.9571 8.1508L15.4241 10.6738L11.6511 8.3778L14.1611 6.9968C14.5651 6.7468 15.0871 6.7418 15.4541 6.9838ZM8.18013 4.7998C9.28613 4.7998 10.1861 5.7008 10.1861 6.8078C10.1861 7.9118 9.28613 8.8108 8.18013 8.8108C7.07513 8.8108 6.17413 7.9118 6.17413 6.8078C6.17413 5.7008 7.07513 4.7998 8.18013 4.7998Z" fill="white"/>
</svg>
