<svg width="24" height="24" viewBox="0 0 24 24" fill="none" xmlns="http://www.w3.org/2000/svg">
<path d="M19.8684 17.1424C19.7688 18.664 18.4956 19.876 16.95 19.876H7.05001C5.43961 19.876 4.12561 18.5608 4.12561 16.9504V7.05038C4.12561 5.43998 5.43961 4.12598 7.05001 4.12598H16.95C18.5604 4.12598 19.8756 5.43998 19.8756 7.05038V16.9504L19.8684 17.1424ZM18.5256 7.05038C18.5256 6.18518 17.8152 5.47598 16.95 5.47598H7.05001C6.18481 5.47598 5.47561 6.18518 5.47561 7.05038V16.9504C5.47561 17.8156 6.18481 18.526 7.05001 18.526H16.95C17.8152 18.526 18.5256 17.8156 18.5256 16.9504V7.05038Z" fill="white"/>
<path fill-rule="evenodd" clip-rule="evenodd" d="M16.1316 6.57324H13.0908C12.7188 6.57324 12.4164 6.87564 12.4164 7.24884C12.4164 7.62084 12.7188 7.92324 13.0908 7.92324H14.9424L7.92239 15.1496V13.1504C7.92239 12.7784 7.61999 12.476 7.24679 12.476C6.87359 12.476 6.57239 12.7784 6.57239 13.1504V16.1288C6.57239 16.844 7.15319 17.426 7.86839 17.426H10.908C11.2812 17.426 11.5836 17.1236 11.5836 16.7504C11.5836 16.3784 11.2812 16.076 10.908 16.076H8.90519L16.0776 8.69364V10.8488C16.0776 11.2208 16.38 11.5232 16.7532 11.5232C17.1252 11.5232 17.4276 11.2208 17.4276 10.8488V7.87044C17.4276 7.15524 16.8456 6.57324 16.1316 6.57324Z" fill="white"/>
</svg>
