<svg width="24" height="24" viewBox="0 0 24 24" fill="none" xmlns="http://www.w3.org/2000/svg">
<path fill-rule="evenodd" clip-rule="evenodd" d="M12 2.75C17.108 2.75 21.25 6.891 21.25 12C21.25 17.108 17.108 21.25 12 21.25C6.892 21.25 2.75 17.108 2.75 12C2.75 6.891 6.891 2.75 12 2.75ZM12 4.25C7.72 4.25 4.25 7.72 4.25 12C4.25 16.28 7.72 19.75 12 19.75C16.279 19.75 19.75 16.279 19.75 12C19.75 7.72 16.28 4.25 12 4.25ZM15.32 7.074C16.32 6.707 17.294 7.678 16.926 8.679L15.223 13.297C14.896 14.191 14.191 14.895 13.297 15.224L8.678 16.926C7.677 17.293 6.707 16.321 7.074 15.321L8.775 10.702C9.104 9.809 9.809 9.105 10.702 8.776L15.32 7.074ZM10.176 11.237L8.668 15.331L12.761 13.822L10.176 11.237ZM15.331 8.668L11.237 10.177L13.821 12.761L15.331 8.668Z" fill="white"/>
</svg>
