<svg width="24" height="24" viewBox="0 0 24 24" fill="none" xmlns="http://www.w3.org/2000/svg">
<path d="M6.0202 5.61173C9.4513 2.39713 14.8387 2.46413 18.1873 5.81273C21.6044 9.23103 21.6048 14.7698 18.1872 18.1873C14.7703 21.6042 9.2304 21.6042 5.8136 18.1874C2.3958 14.7707 2.3955 9.22973 5.8125 5.81273L6.0202 5.61173ZM17.6289 7.42993L7.4315 17.6298C10.2788 19.9464 14.4745 19.7787 17.1265 17.1267C19.7795 14.4737 19.9468 10.2781 17.6289 7.42993ZM16.5692 6.37023C13.7219 4.05353 9.5261 4.22123 6.8731 6.87343L6.6886 7.06473C4.2148 9.72353 4.1085 13.7885 6.3701 16.5683L16.5692 6.37023ZM16.9851 13.8582C17.3993 13.8582 17.7351 14.194 17.7351 14.6082C17.7351 14.9879 17.4529 15.3017 17.0868 15.3513L16.9851 15.3582H12.4481C12.0339 15.3582 11.6981 15.0224 11.6981 14.6082C11.6981 14.2285 11.9802 13.9147 12.3463 13.865L12.4481 13.8582H16.9851ZM9.176 6.34943C9.5557 6.34943 9.8695 6.63153 9.9191 6.99763L9.926 7.09943L9.9252 8.61773L11.4445 8.61803C11.8587 8.61803 12.1945 8.95383 12.1945 9.36803C12.1945 9.74773 11.9123 10.0615 11.5462 10.1111L11.4445 10.118L9.9252 10.1177L9.926 11.6364C9.926 12.0506 9.5902 12.3864 9.176 12.3864C8.7963 12.3864 8.4825 12.1042 8.4328 11.7382L8.426 11.6364L8.4252 10.1177L6.9075 10.118C6.4933 10.118 6.1575 9.78223 6.1575 9.36803C6.1575 8.98833 6.4396 8.67453 6.8057 8.62483L6.9075 8.61803L8.4252 8.61773L8.426 7.09943C8.426 6.68523 8.7618 6.34943 9.176 6.34943Z" fill="white"/>
</svg>
