<svg width="24" height="24" viewBox="0 0 24 24" fill="none" xmlns="http://www.w3.org/2000/svg">
<path d="M12.0001 19.2161C12.4401 19.2161 12.7977 19.5737 12.7977 20.0137V21.2022C12.7977 21.6422 12.4401 21.9999 12.0001 21.9999C11.5601 21.9999 11.2024 21.6422 11.2024 21.2022V20.0137C11.2024 19.5737 11.5601 19.2161 12.0001 19.2161ZM17.1019 17.1017C17.4142 16.791 17.9188 16.791 18.2304 17.1025L19.0711 17.9425C19.3819 18.2541 19.3819 18.7602 19.0711 19.071C18.7596 19.3817 18.2542 19.3825 17.9427 19.071L17.1019 18.2302C16.7911 17.9194 16.7911 17.4141 17.1019 17.1017ZM5.76954 17.1021C6.08034 16.7913 6.58644 16.7913 6.89724 17.1021C7.20874 17.4136 7.20874 17.919 6.89724 18.2305L6.05724 19.0713C5.74574 19.3828 5.24034 19.3821 4.92874 19.0713C4.61724 18.7597 4.61724 18.2544 4.92874 17.9428L5.76954 17.1021ZM11.0021 13.4827H13.2812L13.7227 14.8666H15.0381L13.6251 10.7935C14.0966 9.6397 14.1335 8.3497 13.7274 7.1735C14.4358 7.4181 15.1058 7.8051 15.672 8.3712C17.6674 10.3658 17.6674 13.6027 15.672 15.5981C13.6766 17.5927 10.4404 17.5927 8.44434 15.5981C7.87894 15.0327 7.49204 14.362 7.24744 13.6527C8.00204 13.9135 8.80354 13.9843 9.58744 13.8843L9.24584 14.8666H10.5604L11.0004 13.4912L11.0021 13.4827ZM3.98644 11.2022C4.42644 11.2022 4.78414 11.5599 4.78414 11.9999C4.78414 12.4399 4.42644 12.7976 3.98644 12.7976H2.79794C2.35714 12.7976 2.00024 12.4399 2.00024 11.9999C2.00024 11.5599 2.35714 11.2022 2.79794 11.2022H3.98644ZM21.2024 11.2022C21.6424 11.2022 22.0001 11.5599 22.0001 11.9999C22.0001 12.4399 21.6424 12.7976 21.2024 12.7976H20.0139C19.5731 12.7976 19.2162 12.4399 19.2162 11.9999C19.2162 11.5599 19.5731 11.2022 20.0139 11.2022H21.2024ZM12.1568 9.9549L12.8399 12.0964L12.9599 12.4749H11.323L12.1307 9.9549H12.1568ZM4.92874 4.9289C5.24034 4.6174 5.74574 4.6174 6.05724 4.9289L6.89724 5.7697C7.20874 6.0804 7.20874 6.5858 6.89724 6.8974C6.58644 7.2089 6.08034 7.2089 5.76954 6.8974L4.92874 6.0574C4.61724 5.7451 4.61724 5.2404 4.92874 4.9289ZM17.9427 4.9288C18.2542 4.6173 18.7596 4.6173 19.0711 4.9288C19.3819 5.2404 19.3819 5.7457 19.0711 6.0565L18.2304 6.8973C17.9188 7.2088 17.4142 7.2088 17.1019 6.8973C16.7911 6.5857 16.7911 6.0811 17.1019 5.7688L17.9427 4.9288ZM12.0001 2C12.4401 2 12.7977 2.3569 12.7977 2.7977V3.9861C12.7977 4.4269 12.4401 4.7838 12.0001 4.7838C11.5601 4.7838 11.2024 4.4269 11.2024 3.9861V2.7977C11.2024 2.3569 11.5601 2 12.0001 2Z" fill="white"/>
<path d="M11.4797 8.45308H12.8128L13.6251 10.7939C14.0966 9.64008 14.1336 8.35008 13.7274 7.17388C11.9366 6.55548 9.87431 6.94238 8.44511 8.37158C7.01591 9.80078 6.62891 11.8624 7.24741 13.6531C8.00201 13.9139 8.80361 13.9847 9.58741 13.8855L11.4797 8.45308Z" fill="white"/>
</svg>
