<svg width="24" height="24" viewBox="0 0 24 24" fill="none" xmlns="http://www.w3.org/2000/svg">
<path fill-rule="evenodd" clip-rule="evenodd" d="M20.746 7.074L15.525 5.25C15.452 7.134 13.901 8.643 12 8.643C10.1 8.643 8.54902 7.134 8.47502 5.251L3.25402 7.074C3.02402 7.154 2.89202 7.41 2.96002 7.643L4.06302 11.456C4.13202 11.689 4.38602 11.88 4.62902 11.88H6.70102V16.542C6.70102 17.762 7.68902 18.75 8.90902 18.75H15.092C16.31 18.75 17.3 17.762 17.3 16.542V11.88H19.372C19.615 11.88 19.869 11.689 19.936 11.456L21.04 7.643C21.108 7.41 20.975 7.154 20.746 7.074Z" fill="white"/>
</svg>
