<svg width="24" height="24" viewBox="0 0 24 24" fill="none" xmlns="http://www.w3.org/2000/svg">
<path fill-rule="evenodd" clip-rule="evenodd" d="M20.7458 7.074L15.5248 5.25C15.4518 7.134 13.9008 8.643 11.9998 8.643C10.0998 8.643 8.54877 7.134 8.47477 5.251L3.25377 7.074C3.02377 7.154 2.89177 7.41 2.95977 7.643L4.06277 11.456C4.13177 11.689 4.38577 11.88 4.62877 11.88H6.70077V16.542C6.70077 17.762 7.68877 18.75 8.90877 18.75H15.0918C16.3098 18.75 17.2998 17.762 17.2998 16.542V11.88H19.3718C19.6148 11.88 19.8688 11.689 19.9358 11.456L21.0398 7.643C21.1078 7.41 20.9748 7.154 20.7458 7.074Z" stroke="white" stroke-width="1.5" stroke-linecap="round" stroke-linejoin="round"/>
</svg>
