<svg width="24" height="24" viewBox="0 0 24 24" fill="none" xmlns="http://www.w3.org/2000/svg">
<path d="M18.5067 5.33332C18.5067 7.17427 17.0143 8.66665 15.1733 8.66665H11.7534V2H15.1733C17.0143 2 18.5067 3.49238 18.5067 5.33332Z" stroke="white" stroke-width="1.5"/>
<path d="M5 5.33332C5 7.17427 6.49238 8.66665 8.33333 8.66665H11.7532V2H8.33333C6.49238 2 5 3.49238 5 5.33332Z" stroke="white" stroke-width="1.5"/>
<path d="M5 12.0003C5 13.8413 6.49238 15.3336 8.33333 15.3336H11.7532V8.66699H8.33333C6.49238 8.66699 5 10.1594 5 12.0003Z" stroke="white" stroke-width="1.5"/>
<path d="M5 18.6663C5 20.5073 6.51389 21.9997 8.35484 21.9997C10.2197 21.9997 11.7532 20.4879 11.7532 18.623V15.333H8.33333C6.49238 15.333 5 16.8254 5 18.6663Z" stroke="white" stroke-width="1.5"/>
<path d="M11.7534 12.0003C11.7534 13.8413 13.2458 15.3336 15.0867 15.3336H15.1733C17.0143 15.3336 18.5067 13.8413 18.5067 12.0003C18.5067 10.1594 17.0143 8.66699 15.1733 8.66699H15.0867C13.2458 8.66699 11.7534 10.1594 11.7534 12.0003Z" stroke="white" stroke-width="1.5"/>
</svg>
