<svg width="24" height="24" viewBox="0 0 24 24" fill="none" xmlns="http://www.w3.org/2000/svg">
<path d="M12.0689 3.34375C15.1751 3.34375 17.6929 5.86165 17.6929 8.96775C17.6929 9.23185 17.6746 9.49295 17.6387 9.74985C19.8125 10.5507 21.3122 12.6381 21.3122 15.0257C21.3122 18.1309 18.7944 20.6487 15.6892 20.6487C15.0912 20.6487 14.5038 20.5545 13.9429 20.3721C13.9074 20.3605 13.8736 20.3461 13.8417 20.3291C13.2069 20.1124 12.6037 19.7784 12.0658 19.3287C11.0891 20.1523 9.82681 20.6482 8.44871 20.6482C5.34271 20.6482 2.82471 18.1305 2.82471 15.0251C2.82471 12.6038 4.35471 10.5401 6.50061 9.74765C6.46401 9.49115 6.44591 9.23075 6.44591 8.96775C6.44591 5.86175 8.96351 3.34375 12.0689 3.34375ZM8.44871 10.6511C6.03291 10.6511 4.07471 12.6093 4.07471 15.0251C4.07471 17.4401 6.03301 19.3982 8.44871 19.3982C10.8635 19.3982 12.8217 17.44 12.8217 15.0251C12.8217 12.6094 10.8637 10.6511 8.44871 10.6511ZM17.3248 10.9678C17.1633 11.396 16.9488 11.8017 16.6871 12.1774C16.6645 12.2087 16.6423 12.2399 16.6199 12.2709L16.5504 12.3653C16.5115 12.4163 16.4719 12.4669 16.4314 12.5168C16.4216 12.5286 16.412 12.5402 16.4024 12.5519C16.352 12.6134 16.3 12.6738 16.2469 12.7329C15.6369 13.4116 14.8725 13.9288 14.0169 14.2444C14.0534 14.4993 14.0717 14.7601 14.0717 15.0251C14.0717 16.3001 13.6472 17.4761 12.9319 18.4194L12.8498 18.3548C14.4624 19.7174 16.8434 19.7329 18.4793 18.3602C20.0219 17.0658 20.4724 14.8964 19.6085 13.1095C19.593 13.0775 19.5805 13.0448 19.5709 13.0117C19.0956 12.095 18.3033 11.3618 17.3248 10.9678ZM12.0689 4.59375C9.65391 4.59375 7.69591 6.55205 7.69591 8.96775C7.69591 9.12955 7.70471 9.28975 7.72211 9.44845C7.96101 9.41695 8.20301 9.40115 8.44871 9.40115C10.8494 9.40115 12.8988 10.906 13.7053 13.0241C14.3825 12.7523 14.9809 12.315 15.4469 11.7463C15.5971 11.563 15.7335 11.366 15.8544 11.1565C15.9984 10.9073 16.1153 10.6507 16.2046 10.3895L16.2123 10.3723C16.3633 9.92675 16.4429 9.45365 16.4429 8.96775C16.4429 6.55195 14.4847 4.59375 12.0689 4.59375Z" fill="white"/>
</svg>
