<svg width="24" height="24" viewBox="0 0 24 24" fill="none" xmlns="http://www.w3.org/2000/svg">
<path fill-rule="evenodd" clip-rule="evenodd" d="M11.9995 3C16.0606 3 19.3619 6.3013 19.3619 10.3592C19.3619 12.2656 18.378 13.968 17.7165 14.8969L15.5808 12.7612C16.0511 12.0785 16.3269 11.2553 16.3269 10.3656C16.3269 8.0291 14.4247 6.128 12.0861 6.128C9.74966 6.128 7.84746 8.028 7.84746 10.3656C7.84746 12.7041 9.74856 14.6063 12.0861 14.6063C12.9759 14.6063 13.7991 14.3305 14.4818 13.8602L16.7274 16.1069L11.9995 21.621L6.85936 15.6271C6.77596 15.5362 4.63806 13.1702 4.63806 10.3592C4.63806 6.3013 7.94046 3 11.9995 3ZM12.0871 7.6813C13.5676 7.6813 14.7733 8.886 14.7733 10.3665C14.7733 11.847 13.5676 13.0528 12.0871 13.0528C10.6066 13.0528 9.40186 11.847 9.40186 10.3665C9.40186 8.886 10.6066 7.6813 12.0871 7.6813Z" fill="white"/>
</svg>
