<svg width="24" height="24" viewBox="0 0 24 24" fill="none" xmlns="http://www.w3.org/2000/svg">
<path d="M13.4719 8.06096C11.8003 7.46996 9.91213 7.99976 8.79433 9.42296M16.1485 12.9954C16.2613 12.5286 16.2907 12.0588 16.2457 11.6016M12.0817 12.0126C11.9869 13.812 12.7465 15.3084 13.9477 16.1364C14.5153 16.5186 15.1861 16.7184 15.8695 16.7076M7.95613 11.3304C7.94653 11.388 7.93873 11.445 7.93093 11.5032C7.70353 13.3644 8.04493 15.1188 8.81353 16.6044C9.00493 16.9704 9.25393 17.3034 9.55213 17.589M14.1571 6.14756C13.7383 5.99996 13.2973 5.89556 12.8395 5.83916C9.42373 5.42036 6.30193 7.83656 5.84953 11.2518C5.72833 12.2268 5.73853 13.2138 5.87953 14.187C5.91733 14.4336 5.98213 14.6748 6.07273 14.9076L6.08713 14.9448M13.3249 18.1488C12.8065 17.9736 12.3319 17.688 11.9341 17.3112C10.5487 15.9828 9.77233 13.9902 10.0039 11.7588C10.1443 10.611 11.1883 9.79496 12.3343 9.93596C13.4809 10.0764 14.2963 11.1216 14.1553 12.2694C13.9975 13.5582 14.6527 14.649 15.8503 14.8464C17.0419 15.057 18.1519 14.0658 18.3097 12.7776C18.3565 12.3618 18.3619 11.9502 18.3283 11.5482" stroke="#D24B4C" stroke-width="0.72" stroke-linecap="round" stroke-linejoin="round"/>
<path fill-rule="evenodd" clip-rule="evenodd" d="M19.0514 8.24721C19.0514 9.25581 18.2384 10.0736 17.237 10.0736C16.2344 10.0736 15.4214 9.25581 15.4214 8.24721C15.4214 7.23861 17.237 4.44141 17.237 4.44141C17.237 4.44141 19.0514 7.23861 19.0514 8.24721Z" stroke="#A8A8A8" stroke-width="0.72" stroke-linecap="round" stroke-linejoin="round"/>
</svg>
