<svg width="24" height="24" viewBox="0 0 24 24" fill="none" xmlns="http://www.w3.org/2000/svg">
<path d="M16.3145 13.1614C16.7771 11.2474 15.8447 9.26918 14.0747 8.40938C12.3053 7.54958 10.1765 8.04098 8.96034 9.58898M12.2477 12.1786C12.1529 13.978 12.9125 15.4744 14.1137 16.3024C14.6813 16.6846 15.3521 16.8844 16.0355 16.8736M8.12214 11.4964C8.11254 11.554 8.10534 11.611 8.09694 11.6692C7.86954 13.5304 8.21094 15.2848 8.97954 16.7704C9.17094 17.1364 9.41994 17.4694 9.71814 17.755M13.4909 18.3148C12.9719 18.1396 12.4979 17.854 12.1001 17.4772C10.7147 16.1488 9.93834 14.1562 10.1699 11.9248C10.3103 10.777 11.3543 9.96098 12.5003 10.102C13.6469 10.2424 14.4623 11.2876 14.3213 12.4354C14.1635 13.7242 14.8187 14.815 16.0163 15.0124C17.2079 15.223 18.3179 14.2318 18.4757 12.9436C18.8609 9.51998 16.4207 6.42518 13.0055 6.00518C9.58974 5.58638 6.46794 8.00258 6.01554 11.4172C5.89434 12.3928 5.90454 13.3798 6.04554 14.353C6.08334 14.5996 6.14814 14.8408 6.23874 15.0736L6.25314 15.1108" stroke="#D24B4C" stroke-width="0.72" stroke-linecap="round" stroke-linejoin="round"/>
<path d="M20.133 7.7432C19.7178 5.9912 18.3414 4.6148 16.5894 4.2002" stroke="#A8A8A8" stroke-width="0.72" stroke-linecap="round" stroke-linejoin="round"/>
<path d="M7.7432 4.2002C5.9906 4.6148 4.6148 5.9912 4.2002 7.7432" stroke="#A8A8A8" stroke-width="0.72" stroke-linecap="round" stroke-linejoin="round"/>
<path d="M16.5894 20.1328C18.3414 19.7182 19.7178 18.3424 20.133 16.5898" stroke="#A8A8A8" stroke-width="0.72" stroke-linecap="round" stroke-linejoin="round"/>
<path d="M4.2002 16.5898C4.6148 18.3424 5.9906 19.7182 7.7432 20.1328" stroke="#A8A8A8" stroke-width="0.72" stroke-linecap="round" stroke-linejoin="round"/>
</svg>
