<svg width="24" height="24" viewBox="0 0 24 24" fill="none" xmlns="http://www.w3.org/2000/svg">
<path d="M12.4644 7.94025C10.9002 7.56165 9.22143 8.11545 8.19423 9.42345M15.5484 12.9959C15.6594 12.5369 15.6894 12.0743 15.648 11.6243M11.4816 12.0131C11.3868 13.8119 12.1464 15.3083 13.3476 16.1363C13.9152 16.5197 14.586 16.7189 15.2694 16.7075M7.35603 11.3309C7.34643 11.3885 7.33863 11.4461 7.33083 11.5043C7.10343 13.3649 7.44483 15.1193 8.21343 16.6049C8.40483 16.9709 8.65383 17.3039 8.95203 17.5901M12.6684 5.90745C12.5274 5.88045 12.384 5.85765 12.2394 5.84025C8.82363 5.42085 5.70183 7.83765 5.24943 11.2529C5.12823 12.2279 5.13843 13.2149 5.27943 14.1869C5.31723 14.4335 5.38203 14.6759 5.47263 14.9075L5.48703 14.9453M12.7248 18.1493C12.2064 17.9741 11.7318 17.6879 11.334 17.3117C9.94863 15.9827 9.17223 13.9913 9.40383 11.7593C9.54423 10.6115 10.5882 9.79545 11.7342 9.93585C12.8808 10.0775 13.6962 11.1221 13.5552 12.2699C13.3974 13.5581 14.0526 14.6495 15.2502 14.8469C16.4418 15.0569 17.5518 14.0663 17.7096 12.7781C17.7534 12.3881 17.7612 12.0035 17.7342 11.6255" stroke="#D24B4C" stroke-width="0.72" stroke-linecap="round" stroke-linejoin="round"/>
<path d="M16.7398 10.0802C15.1198 10.0802 13.7998 8.7602 13.7998 7.1402C13.7998 5.5202 15.1198 4.2002 16.7398 4.2002C18.3598 4.2002 19.6798 5.5202 19.6798 7.1402C19.6798 8.7602 18.3598 10.0802 16.7398 10.0802ZM16.7398 4.9202C15.4798 4.9202 14.5198 5.9402 14.5198 7.1402C14.5198 8.3402 15.5398 9.3602 16.7398 9.3602C17.9398 9.3602 18.9598 8.3402 18.9598 7.1402C18.9598 5.9402 17.9398 4.9202 16.7398 4.9202Z" fill="#A8A8A8"/>
<path d="M17.9399 7.49953H16.7399C16.5599 7.49953 16.3799 7.31953 16.3799 7.13953V5.87953C16.3799 5.69953 16.5599 5.51953 16.7399 5.51953C16.9199 5.51953 17.0999 5.69953 17.0999 5.87953V6.77953H17.9399C18.1199 6.77953 18.2999 6.95953 18.2999 7.13953C18.2999 7.31953 18.1199 7.49953 17.9399 7.49953Z" fill="#A8A8A8"/>
</svg>
