<svg width="24" height="24" viewBox="0 0 24 24" fill="none" xmlns="http://www.w3.org/2000/svg">
<path d="M9.25024 6.25029V3.49971C9.25024 3.22371 9.47396 3 9.74996 3H14.25C14.526 3 14.7497 3.22371 14.7497 3.49971V6.25029" stroke="white" stroke-width="1.75" stroke-linecap="round" stroke-linejoin="round"/>
<path d="M9.25024 17.75V20.5006C9.25024 20.7766 9.47396 21.0003 9.74996 21.0003H14.25C14.526 21.0003 14.7497 20.7766 14.7497 20.5006V17.75" stroke="white" stroke-width="1.75" stroke-linecap="round" stroke-linejoin="round"/>
<path fill-rule="evenodd" clip-rule="evenodd" d="M10.2497 6.2168H13.7503C14.2806 6.2168 14.7893 6.42748 15.1643 6.8025C15.5393 7.17752 15.75 7.68615 15.75 8.21651V15.8425C15.75 16.3729 15.5393 16.8815 15.1643 17.2565C14.7893 17.6315 14.2806 17.8422 13.7503 17.8422H10.2497C9.71936 17.8422 9.21072 17.6315 8.8357 17.2565C8.46068 16.8815 8.25 16.3729 8.25 15.8425V8.21651C8.25 7.68615 8.46068 7.17752 8.8357 6.8025C9.21072 6.42748 9.71936 6.2168 10.2497 6.2168Z" stroke="white" stroke-width="1.75" stroke-linecap="round" stroke-linejoin="round"/>
</svg>
