<svg width="24" height="24" viewBox="0 0 24 24" fill="none" xmlns="http://www.w3.org/2000/svg">
<path fill-rule="evenodd" clip-rule="evenodd" d="M9.25024 5.74943V2.99971C9.25024 2.72371 9.47396 2.5 9.74996 2.5H14.25C14.526 2.5 14.7497 2.72371 14.7497 2.99971V5.74943" fill="white"/>
<path fill-rule="evenodd" clip-rule="evenodd" d="M9.25024 18.25V20.9997C9.25024 21.2757 9.47396 21.4994 9.74996 21.4994H14.25C14.526 21.4994 14.7497 21.2757 14.7497 20.9997V18.25" fill="white"/>
<path fill-rule="evenodd" clip-rule="evenodd" d="M10.2497 6.2168H13.7503C14.2806 6.2168 14.7893 6.42748 15.1643 6.8025C15.5393 7.17752 15.75 7.68615 15.75 8.21651V15.8425C15.75 16.3729 15.5393 16.8815 15.1643 17.2565C14.7893 17.6315 14.2806 17.8422 13.7503 17.8422H10.2497C9.71936 17.8422 9.21072 17.6315 8.8357 17.2565C8.46068 16.8815 8.25 16.3729 8.25 15.8425V8.21651C8.25 7.68615 8.46068 7.17752 8.8357 6.8025C9.21072 6.42748 9.71936 6.2168 10.2497 6.2168Z" stroke="white" stroke-width="1.75" stroke-linecap="round" stroke-linejoin="round"/>
</svg>
