<svg width="24" height="24" viewBox="0 0 24 24" fill="none" xmlns="http://www.w3.org/2000/svg">
<path d="M18.0931 4H5.84814C4.05284 4 2.59814 5.4548 2.59814 7.25V16.916C2.59814 18.7119 4.05254 20.166 5.84814 20.166H18.0931C19.8886 20.166 21.3431 18.7119 21.3431 16.916V7.25C21.3431 5.4548 19.8883 4 18.0931 4ZM5.84814 5.5H18.0931C19.0598 5.5 19.8431 6.2832 19.8431 7.25V16.916C19.8431 17.8834 19.0602 18.666 18.0931 18.666H5.84814C4.88094 18.666 4.09814 17.8834 4.09814 16.916V7.25C4.09814 6.2832 4.88134 5.5 5.84814 5.5Z" fill="white"/>
<path d="M16.6964 6.85449C17.2966 6.85449 17.7895 7.30889 17.8525 7.89259L17.8594 8.01949V10.6045C17.8594 11.0187 17.5236 11.3545 17.1094 11.3545C16.7297 11.3545 16.4159 11.0723 16.3662 10.7063L16.3594 10.6045L16.3591 8.35419L14.0674 8.35449C13.6877 8.35449 13.3739 8.07229 13.3242 7.70629L13.3174 7.60449C13.3174 7.22479 13.5995 6.91099 13.9656 6.86129L14.0674 6.85449H16.6964Z" fill="white"/>
<path d="M6.83154 12.8115C7.21124 12.8115 7.52494 13.0937 7.57464 13.4597L7.58154 13.5615L7.58104 15.8107L9.87354 15.8115C10.2532 15.8115 10.5669 16.0937 10.6166 16.4597L10.6235 16.5615C10.6235 16.9412 10.3413 17.255 9.97524 17.3047L9.87354 17.3115H7.24454C6.64514 17.3115 6.15144 16.857 6.08834 16.2734L6.08154 16.1465V13.5615C6.08154 13.1473 6.41724 12.8115 6.83154 12.8115Z" fill="white"/>
<path d="M16.2159 7.64572C16.5362 7.38302 17.0087 7.42972 17.2714 7.75002C17.5102 8.04122 17.4933 8.45822 17.2476 8.72902L17.167 8.80552L7.75198 16.5265C7.43178 16.7892 6.95918 16.7425 6.69648 16.4222C6.45768 16.131 6.47457 15.714 6.72027 15.4432L6.80087 15.3667L16.2159 7.64572Z" fill="white"/>
</svg>
