<svg width="24" height="24" viewBox="0 0 24 24" fill="none" xmlns="http://www.w3.org/2000/svg">
<path d="M12.8085 12.4159C12.8085 12.8366 12.4468 13.1778 12.0002 13.1778C11.5535 13.1778 11.1918 12.8366 11.1918 12.4159V11.6532C11.1918 11.2307 11.5535 10.8905 12.0002 10.8905C12.4468 10.8905 12.8085 11.2307 12.8085 11.6532V12.4159ZM6.74796 5.47095C6.41323 5.47095 6.1419 5.72727 6.1419 6.04255V7.10359C6.1419 7.41529 6.2426 7.71984 6.43187 7.97617L8.56613 10.8654L8.56604 20.4745C8.56604 21.3168 9.28958 22 10.1819 22H13.8182C14.7105 22 15.4341 21.3168 15.4341 20.4745L15.4342 10.8654L17.5684 7.97528C17.7568 7.71984 17.8584 7.41529 17.8584 7.10359V6.04255C17.8584 5.72727 17.5871 5.47095 17.2524 5.47095H6.74796ZM12.0002 4.09821C11.5535 4.09821 11.1918 3.75614 11.1918 3.33547V2.76298C11.1918 2.34231 11.5535 2.00025 12.0002 2.00025C12.4468 2.00025 12.8085 2.34231 12.8085 2.76298V3.33547C12.8085 3.75614 12.4468 4.09821 12.0002 4.09821ZM7.16008 4.09821C6.9018 4.09821 6.64726 3.98121 6.49155 3.76418L6.07943 3.19257C5.82861 2.84336 5.92372 2.36911 6.29388 2.13243C6.66311 1.89486 7.16567 1.98596 7.41555 2.33338L7.82767 2.90677C8.07942 3.25509 7.98432 3.72934 7.61415 3.96602C7.47523 4.05534 7.31672 4.09821 7.16008 4.09821ZM16.8402 4.09821C16.6836 4.09821 16.5251 4.05534 16.3862 3.96602C16.0169 3.72934 15.9209 3.25509 16.1726 2.90677L16.5848 2.33338C16.8356 1.98596 17.3381 1.89575 17.7074 2.13243C18.0757 2.36911 18.1717 2.84336 17.9209 3.19257L17.5088 3.76418C17.3521 3.98121 17.0976 4.09821 16.8402 4.09821Z" fill="white"/>
</svg>
