<svg width="24" height="24" viewBox="0 0 24 24" fill="none" xmlns="http://www.w3.org/2000/svg">
<path fill-rule="evenodd" clip-rule="evenodd" d="M19.375 16.5C19.375 17.465 18.59 18.25 17.625 18.25H6.375C5.41 18.25 4.625 17.465 4.625 16.5V12.75H19.375V16.5ZM4.625 7.5C4.625 6.535 5.41 5.75 6.375 5.75H17.625C18.59 5.75 19.375 6.535 19.375 7.5V11.25H4.625V7.5ZM17.625 4.25H6.375C4.583 4.25 3.125 5.708 3.125 7.5V12V16.5C3.125 18.292 4.583 19.75 6.375 19.75H17.625C19.417 19.75 20.875 18.292 20.875 16.5V12V7.5C20.875 5.708 19.417 4.25 17.625 4.25Z" fill="white"/>
</svg>
