<svg width="24" height="24" viewBox="0 0 24 24" fill="none" xmlns="http://www.w3.org/2000/svg">
<path fill-rule="evenodd" clip-rule="evenodd" d="M16.4803 3.83984C17.5852 3.83984 18.4809 4.73556 18.4809 5.83956V12.539L16.4478 18.8244C16.1812 19.6498 15.4123 20.2087 14.5449 20.2087H7.54891C6.44405 20.2087 5.54919 19.3138 5.54919 18.209C5.54919 17.9998 5.58177 17.7924 5.64605 17.5936L7.28062 12.539V5.83956C7.28062 4.73556 8.17634 3.83984 9.28034 3.83984H16.4803ZM12.8803 5.53956C12.3275 5.53956 11.8801 5.98784 11.8801 6.53984C11.8801 7.09184 12.3275 7.54013 12.8803 7.54013C13.4323 7.54013 13.8798 7.09184 13.8798 6.53984C13.8798 5.98784 13.4323 5.53956 12.8803 5.53956Z" fill="white"/>
</svg>
