<svg width="24" height="24" viewBox="0 0 24 24" fill="none" xmlns="http://www.w3.org/2000/svg">
<path fill-rule="evenodd" clip-rule="evenodd" d="M9.28034 3.83984H16.4803C17.5852 3.83984 18.4809 4.73556 18.4809 5.83956V12.539L16.4478 18.8244C16.1812 19.6498 15.4123 20.2087 14.5449 20.2087H7.54891C6.44405 20.2087 5.54919 19.3138 5.54919 18.209C5.54919 17.9998 5.58177 17.7924 5.64605 17.5936L7.28062 12.539V5.83956C7.28062 4.73556 8.17634 3.83984 9.28034 3.83984Z" stroke="white" stroke-width="1.75" stroke-linecap="round" stroke-linejoin="round"/>
<path fill-rule="evenodd" clip-rule="evenodd" d="M12 6.44004C12 6.20134 12.0948 5.97243 12.2636 5.80364C12.4324 5.63486 12.6613 5.54004 12.9 5.54004C13.1387 5.54004 13.3676 5.63486 13.5364 5.80364C13.7052 5.97243 13.8 6.20134 13.8 6.44004C13.8 6.67873 13.7052 6.90765 13.5364 7.07643C13.3676 7.24522 13.1387 7.34004 12.9 7.34004C12.6613 7.34004 12.4324 7.24522 12.2636 7.07643C12.0948 6.90765 12 6.67873 12 6.44004Z" fill="white"/>
</svg>
