<svg width="24" height="24" viewBox="0 0 24 24" fill="none" xmlns="http://www.w3.org/2000/svg">
<path d="M12.0228 2.5C12.4025 2.5 12.7163 2.7822 12.766 3.1482L12.7728 3.25V20.75C12.7728 21.1642 12.437 21.5 12.0228 21.5C11.6431 21.5 11.3293 21.2178 11.2796 20.8518L11.2728 20.75V3.25C11.2728 2.8358 11.6086 2.5 12.0228 2.5ZM17.4789 6.5081L17.5645 6.579L22.0858 10.9182C22.6628 11.4745 22.6967 12.3777 22.1866 12.9741L22.0846 13.0822L17.5646 17.4212C17.2658 17.708 16.791 17.6983 16.5041 17.3995C16.2434 17.1278 16.2277 16.7108 16.4515 16.4217L16.5258 16.339L21.0459 11.9992L16.5259 7.6612C16.227 7.3744 16.2173 6.8996 16.5041 6.6008C16.7648 6.3291 17.1809 6.2963 17.4789 6.5081ZM7.54084 6.6005C7.80164 6.8721 7.81734 7.2891 7.59364 7.5783L7.51924 7.6609L3.00024 12.0008L7.51924 16.3388C7.81804 16.6257 7.82774 17.1005 7.54094 17.3993C7.28014 17.6709 6.86404 17.7036 6.56604 17.4918L6.48044 17.421L1.96114 13.0827C1.38214 12.5262 1.34804 11.6218 1.85914 11.0259L1.96144 10.9179L6.48044 6.5789C6.77914 6.292 7.25394 6.3017 7.54084 6.6005Z" fill="white"/>
</svg>
