<svg width="24" height="24" viewBox="0 0 24 24" fill="none" xmlns="http://www.w3.org/2000/svg">
<path fill-rule="evenodd" clip-rule="evenodd" d="M15.0405 12.0283C15.2256 12.1803 15.3775 12.4993 15.3775 12.7393V15.7473C15.3775 16.2973 14.9275 16.7473 14.3775 16.7473H13.2516V14.2643C13.2516 13.8513 12.9145 13.5143 12.5016 13.5143H11.3886C10.9765 13.5143 10.6386 13.8513 10.6386 14.2643V16.7473H9.62253C9.07256 16.7473 8.62256 16.2973 8.62256 15.7473V12.7393C8.62256 12.4993 8.77353 12.1803 8.95856 12.0283L11.6625 9.72828C11.8485 9.57625 12.1515 9.57625 12.3375 9.72828L15.0405 12.0283Z" fill="white"/>
<path fill-rule="evenodd" clip-rule="evenodd" d="M18.25 7.16103H13.588C13.196 7.16103 12.646 6.937 12.365 6.66302L10.918 5.24905C10.638 4.975 10.087 4.75 9.69505 4.75H5.75005C4.369 4.75 3.25 5.87005 3.25 7.25005V16.75C3.25 18.1311 4.369 19.2501 5.75005 19.2501H18.25C19.631 19.2501 20.75 18.1311 20.75 16.75V9.661C20.75 8.28002 19.631 7.16103 18.25 7.16103Z" stroke="white" stroke-width="1.125" stroke-linecap="round" stroke-linejoin="round"/>
</svg>
