<svg width="24" height="24" viewBox="0 0 24 24" fill="none" xmlns="http://www.w3.org/2000/svg">
<path d="M10.9332 10.2232L13.4687 12.9133C13.4945 12.9409 13.4999 12.973 13.4999 12.9949C13.4999 13.0173 13.4945 13.0481 13.4687 13.0757L10.9326 15.7774C10.7561 15.9655 10.7561 16.2698 10.9314 16.4585C11.1066 16.6472 11.3917 16.6478 11.5681 16.4597L14.1036 13.7587C14.2951 13.5546 14.4001 13.2844 14.4001 12.9949C14.3995 12.7061 14.2945 12.4339 14.1018 12.2304L11.5675 9.54029C11.3911 9.35279 11.1054 9.35409 10.9308 9.54219C10.7555 9.73089 10.7567 10.0358 10.9332 10.2232Z" fill="white" stroke="white" stroke-width="0.7" stroke-linecap="round" stroke-linejoin="round"/>
<path fill-rule="evenodd" clip-rule="evenodd" d="M18.25 7.161H13.625C13.213 7.161 12.634 6.925 12.339 6.637L10.945 5.274C10.65 4.986 10.071 4.75 9.658 4.75H5.75C4.37 4.75 3.25 5.869 3.25 7.25V16.75C3.25 18.131 4.37 19.25 5.75 19.25H18.25C19.631 19.25 20.75 18.131 20.75 16.75V9.661C20.75 8.28 19.631 7.161 18.25 7.161Z" stroke="white" stroke-width="1.7" stroke-linecap="round" stroke-linejoin="round"/>
</svg>
