<svg width="24" height="24" viewBox="0 0 24 24" fill="none" xmlns="http://www.w3.org/2000/svg">
<path d="M10.7314 13.0875C10.7056 13.0599 10.7002 13.0278 10.7002 13.0059C10.7002 12.9835 10.7056 12.9527 10.7314 12.9251L13.2675 10.2234C13.444 10.0353 13.444 9.73099 13.2687 9.54229C13.0935 9.35359 12.8084 9.35299 12.632 9.54109L10.0965 12.2421C9.90505 12.4462 9.80005 12.7164 9.80005 13.0059C9.80065 13.2954 9.90565 13.5669 10.0983 13.7704L12.6326 16.4605C12.809 16.648 13.0947 16.6467 13.2693 16.4586C13.4446 16.2699 13.4434 15.965 13.2669 15.7776L10.7314 13.0875Z" fill="white" stroke="white" stroke-width="0.7" stroke-linecap="round" stroke-linejoin="round"/>
<path fill-rule="evenodd" clip-rule="evenodd" d="M18.25 7.161H13.625C13.213 7.161 12.634 6.925 12.339 6.637L10.945 5.274C10.65 4.986 10.071 4.75 9.658 4.75H5.75C4.37 4.75 3.25 5.869 3.25 7.25V16.75C3.25 18.131 4.37 19.25 5.75 19.25H18.25C19.631 19.25 20.75 18.131 20.75 16.75V9.661C20.75 8.28 19.631 7.161 18.25 7.161Z" stroke="white" stroke-width="1.5" stroke-linecap="round" stroke-linejoin="round"/>
</svg>
