<svg width="24" height="24" viewBox="0 0 24 24" fill="none" xmlns="http://www.w3.org/2000/svg">
<path d="M20.0971 8.99351C20.5801 8.99351 20.9721 9.38541 20.9721 9.86851V16.1834C20.9721 18.1825 19.346 19.8084 17.3471 19.8084H7.84108C7.35808 19.8084 6.96608 19.4174 6.96608 18.9334C6.96608 18.4505 7.35808 18.0584 7.84108 18.0584H17.3471C18.3811 18.0584 19.2221 17.2184 19.2221 16.1834V9.86851C19.2221 9.38541 19.6141 8.99351 20.0971 8.99351ZM8.20918 4.19141C8.50808 4.19141 8.91808 4.37041 9.12108 4.58931L10.5501 5.91331C10.7531 6.13241 10.8512 6.18831 11.1502 6.18831H15.4561C16.5952 6.18831 17.5281 7.12131 17.5281 8.26041V14.9134C17.5281 15.7373 16.8532 16.4134 16.0281 16.4134H5.09918C3.96018 16.4134 3.02808 15.4803 3.02808 14.3413V6.26341C3.02808 5.12331 3.96018 4.19141 5.09918 4.19141H8.20918ZM13.0462 9.79041C12.7461 9.50541 12.2712 9.51631 11.9852 9.81441L10.2782 11.6033L8.57018 9.81441C8.28408 9.51531 7.81018 9.50541 7.51008 9.79041C7.21018 10.0764 7.19908 10.5513 7.48518 10.8513L9.54108 13.0043C9.73208 13.2043 10.0011 13.3194 10.2782 13.3194C10.5551 13.3194 10.8241 13.2043 11.0151 13.0043L13.0711 10.8513C13.3561 10.5513 13.3451 10.0764 13.0462 9.79041Z" fill="white"/>
</svg>
