<svg width="24" height="24" viewBox="0 0 24 24" fill="none" xmlns="http://www.w3.org/2000/svg">
<path d="M20.0972 8.99281C20.5802 8.99281 20.9722 9.38581 20.9722 9.86781V16.1828C20.9722 18.1818 19.3462 19.8078 17.3472 19.8078H7.84223C7.35823 19.8078 6.96723 19.4168 6.96723 18.9328C6.96723 18.4508 7.35823 18.0578 7.84223 18.0578H17.3472C18.3812 18.0578 19.2222 17.2178 19.2222 16.1828V9.86781C19.2222 9.38581 19.6142 8.99281 20.0972 8.99281ZM8.20983 4.19141C8.50783 4.19141 8.91883 4.37041 9.12083 4.58941L10.5498 5.91341C10.7528 6.13241 10.8518 6.18941 11.1498 6.18941H15.4568C16.5958 6.18941 17.5278 7.12041 17.5278 8.26041V14.9124C17.5278 15.7384 16.8528 16.4124 16.0278 16.4124H5.09983C3.96083 16.4124 3.02783 15.4814 3.02783 14.3414V6.26341C3.02783 5.12341 3.96083 4.19141 5.09983 4.19141H8.20983ZM10.2788 9.08241C10.0018 9.08241 9.73283 9.19741 9.54083 9.39841L7.48583 11.5514C7.19983 11.8514 7.21083 12.3254 7.50983 12.6124C7.65583 12.7504 7.84183 12.8194 8.02783 12.8194C8.22583 12.8194 8.42283 12.7414 8.57083 12.5874L10.2778 10.7984L11.9858 12.5874C12.2718 12.8864 12.7458 12.8984 13.0458 12.6124C13.3458 12.3254 13.3568 11.8514 13.0708 11.5514L11.0158 9.39841C10.8238 9.19741 10.5558 9.08241 10.2788 9.08241Z" fill="white"/>
</svg>
