<svg width="24" height="24" viewBox="0 0 24 24" fill="none" xmlns="http://www.w3.org/2000/svg">
<path fill-rule="evenodd" clip-rule="evenodd" d="M18.25 7.161H13.625C13.213 7.161 12.634 6.925 12.339 6.637L10.945 5.274C10.65 4.986 10.071 4.75 9.658 4.75H5.75C4.37 4.75 3.25 5.869 3.25 7.25V16.75C3.25 18.131 4.37 19.25 5.75 19.25H18.25C19.631 19.25 20.75 18.131 20.75 16.75V9.661C20.75 8.28 19.631 7.161 18.25 7.161Z" stroke="white" stroke-width="1.7" stroke-linecap="round" stroke-linejoin="round"/>
<path d="M15.0858 11.1479L12.0967 13.9651C12.0661 13.9938 12.0304 13.9998 12.0062 13.9998C11.9812 13.9998 11.947 13.9938 11.9163 13.9651L8.91441 11.1472C8.70541 10.9512 8.36741 10.9512 8.15771 11.1459C7.94801 11.3406 7.94731 11.6573 8.15631 11.8533L11.1574 14.6706C11.3842 14.8833 11.6845 15 12.0062 15C12.3271 14.9993 12.6295 14.8826 12.8556 14.6686L15.8446 11.8527C16.0529 11.6566 16.0514 11.3392 15.8425 11.1452C15.6328 10.9505 15.294 10.9518 15.0858 11.1479Z" fill="white" stroke="white" stroke-width="0.666667" stroke-linecap="round" stroke-linejoin="round"/>
</svg>
