<svg width="24" height="24" viewBox="0 0 24 24" fill="none" xmlns="http://www.w3.org/2000/svg">
<path fill-rule="evenodd" clip-rule="evenodd" d="M17.215 4.05469H6.785C5.111 4.05469 3.75 5.41569 3.75 7.08969C3.75 7.50369 4.086 7.83969 4.5 7.83969C4.914 7.83969 5.25 7.50369 5.25 7.08969C5.25 6.24269 5.939 5.55469 6.785 5.55469H11.25V18.4457H9.31C8.895 18.4457 8.56 18.7807 8.56 19.1957C8.56 19.6097 8.895 19.9457 9.31 19.9457H14.691C15.105 19.9457 15.441 19.6097 15.441 19.1957C15.441 18.7807 15.105 18.4457 14.691 18.4457H12.75V5.55469H17.215C18.062 5.55469 18.75 6.24269 18.75 7.08969C18.75 7.50369 19.086 7.83969 19.5 7.83969C19.914 7.83969 20.25 7.50369 20.25 7.08969C20.25 5.41569 18.889 4.05469 17.215 4.05469Z" fill="white"/>
</svg>
