<svg width="24" height="24" viewBox="0 0 24 24" fill="none" xmlns="http://www.w3.org/2000/svg">
<path fill-rule="evenodd" clip-rule="evenodd" d="M14.33 3.875C14.993 3.875 15.629 4.138 16.098 4.607L19.393 7.902C19.861 8.371 20.125 9.007 20.125 9.67V14.33C20.125 14.993 19.861 15.629 19.393 16.098L16.098 19.393C15.629 19.862 14.993 20.125 14.33 20.125H9.67C9.007 20.125 8.371 19.862 7.902 19.393L4.607 16.098C4.139 15.629 3.875 14.993 3.875 14.33V9.67C3.875 9.007 4.139 8.371 4.607 7.902L7.902 4.607C8.371 4.138 9.007 3.875 9.67 3.875H14.33ZM12 7C9.243 7 7 9.243 7 12C7 14.757 9.243 17 12 17C14.757 17 17 14.757 17 12C17 9.243 14.757 7 12 7ZM9.056 10.116L13.884 14.945C13.34 15.294 12.694 15.5 12 15.5C10.07 15.5 8.5 13.93 8.5 12C8.5 11.306 8.706 10.661 9.056 10.116ZM12 8.5C13.93 8.5 15.5 10.07 15.5 12C15.5 12.694 15.295 13.34 14.944 13.885L10.115 9.055C10.66 8.706 11.306 8.5 12 8.5Z" fill="white"/>
</svg>
