<svg width="24" height="24" viewBox="0 0 24 24" fill="none" xmlns="http://www.w3.org/2000/svg">
<path d="M14.4536 8.06305H9.54761V7.94105C9.54761 6.58705 10.6466 5.48805 11.9996 5.48805C13.3526 5.48805 14.4536 6.58705 14.4536 7.94105V8.06305ZM12.1686 3.59005C9.69161 3.49705 7.64661 5.48505 7.64661 7.94105V8.06305H5.12061C4.52661 8.06305 4.06261 8.57805 4.12561 9.16705L4.97461 17.199C5.16661 19.026 6.70761 20.4141 8.54461 20.4141H15.4556C17.2926 20.4141 18.8336 19.026 19.0266 17.199L19.8746 9.16705C19.9366 8.57805 19.4746 8.06305 18.8806 8.06305H16.3526V8.04805C16.3526 5.69105 14.5236 3.68005 12.1686 3.59005Z" fill="white"/>
</svg>
