<svg width="24" height="24" viewBox="0 0 24 24" fill="none" xmlns="http://www.w3.org/2000/svg">
<path d="M15.5 9.8C15.1 9.8 14.7 9.5 14.7 9V7.4C14.7 6 13.6 5 12.3 5C11 5 9.9 6.1 9.9 7.4V9C9.9 9.4 9.6 9.8 9.1 9.8C8.6 9.8 8.5 9.5 8.5 9.1V7.4C8.5 5.3 10.2 3.5 12.3 3.5C14.4 3.5 16.2 5.3 16.2 7.4V9C16.2 9.5 15.9 9.8 15.5 9.8Z" fill="white"/>
<path d="M15.5 20.5998H9.1C7.2 20.5998 5.6 19.1998 5.4 17.2998L4.5 9.6998C4.5 9.2998 4.6 8.9998 4.8 8.6998C5 8.3998 5.4 8.2998 5.7 8.2998H18.8C19.2 8.2998 19.5 8.4998 19.7 8.6998C19.9 8.9998 20 9.2998 20 9.6998L19.1 17.2998C19 19.0998 17.4 20.5998 15.5 20.5998ZM6 9.7998L6.8 17.0998C6.9 18.1998 7.9 19.0998 9 19.0998H15.5C16.6 19.0998 17.6 18.1998 17.7 17.0998L18.5 9.7998H6Z" fill="white"/>
</svg>
