<svg width="24" height="24" viewBox="0 0 24 24" fill="none" xmlns="http://www.w3.org/2000/svg">
<path fill-rule="evenodd" clip-rule="evenodd" d="M16.7165 14.575C15.8025 16.242 14.0305 17.375 11.9995 17.375C9.96851 17.375 8.1975 16.242 7.2835 14.575C6.8635 13.81 6.6245 12.932 6.6245 12C6.6245 11.067 6.8635 10.189 7.2835 9.425C8.1975 7.758 9.96851 6.625 11.9995 6.625C14.0305 6.625 15.8025 7.758 16.7165 9.425C17.1365 10.189 17.3745 11.067 17.3745 12C17.3745 12.932 17.1365 13.81 16.7165 14.575ZM17.2995 7.196C17.0945 6.97 16.9795 6.675 16.9795 6.369V4.598C16.9795 3.509 16.0955 2.625 15.0055 2.625H8.9945C7.9045 2.625 7.0215 3.509 7.0215 4.598V6.369C7.0215 6.675 6.9055 6.97 6.7005 7.196C5.5485 8.466 4.8455 10.15 4.8455 12C4.8455 13.849 5.5485 15.534 6.7005 16.804C6.9055 17.031 7.0215 17.325 7.0215 17.631V19.401C7.0215 20.491 7.9045 21.375 8.9945 21.375H15.0055C16.0955 21.375 16.9795 20.491 16.9795 19.401V17.631C16.9795 17.325 17.0945 17.031 17.2995 16.804C18.4515 15.534 19.1545 13.849 19.1545 12C19.1545 10.15 18.4515 8.466 17.2995 7.196Z" fill="white"/>
</svg>
