<svg width="24" height="24" viewBox="0 0 24 24" fill="none" xmlns="http://www.w3.org/2000/svg">
<path d="M12.1209 13.8424C11.6328 13.8424 11.1646 13.6485 10.8195 13.3033C10.4743 12.9581 10.2804 12.49 10.2804 12.0019C10.2804 11.5137 10.4743 11.0456 10.8195 10.7004C11.1646 10.3553 11.6328 10.1614 12.1209 10.1614C12.609 10.1614 13.0772 10.3553 13.4223 10.7004C13.7675 11.0456 13.9614 11.5137 13.9614 12.0019C13.9614 12.49 13.7675 12.9581 13.4223 13.3033C13.0772 13.6485 12.609 13.8424 12.1209 13.8424ZM17.3199 17.7054C17.8185 17.8005 18.3344 17.7386 18.7964 17.5282C19.2584 17.3178 19.6437 16.9692 19.8993 16.5306C20.1548 16.0919 20.2679 15.5848 20.2231 15.0792C20.1782 14.5735 19.9776 14.0942 19.6489 13.7074C19.2941 13.2881 18.8088 13.0001 18.2709 12.8894L14.8419 12.0024L18.2729 11.1204C18.6552 11.043 19.0136 10.8757 19.3183 10.6323C19.6231 10.3889 19.8656 10.0764 20.0256 9.72073C20.1856 9.36503 20.2586 8.97632 20.2385 8.58679C20.2185 8.19727 20.1059 7.81812 19.9102 7.48074C19.7145 7.14336 19.4412 6.85744 19.113 6.64666C18.7848 6.43588 18.4112 6.3063 18.0229 6.26863C17.6347 6.23097 17.2431 6.28631 16.8805 6.43008C16.5179 6.57384 16.1948 6.8019 15.9379 7.09537L13.5009 9.60337L14.4479 6.23737C14.572 5.86814 14.6065 5.47467 14.5485 5.08948C14.4905 4.70428 14.3417 4.33842 14.1143 4.02211C13.887 3.70581 13.5876 3.44815 13.241 3.27042C12.8944 3.09269 12.5104 3 12.1209 3C11.7314 3 11.3474 3.09269 11.0008 3.27042C10.6542 3.44815 10.3548 3.70581 10.1274 4.02211C9.90008 4.33842 9.75125 4.70428 9.69325 5.08948C9.63525 5.47467 9.66975 5.86814 9.79389 6.23737L10.7379 9.59337L8.31289 7.08837C7.88034 6.62371 7.28468 6.34459 6.65082 6.30955C6.01696 6.2745 5.39416 6.48626 4.91303 6.90039C4.43189 7.31453 4.1298 7.89888 4.07012 8.5309C4.01043 9.16291 4.19779 9.79348 4.59289 10.2904C4.96189 10.7264 5.45189 11.0024 5.97089 11.1084L9.39889 11.9964L5.96889 12.8784C5.58659 12.9557 5.22822 13.123 4.92343 13.3664C4.61865 13.6098 4.37621 13.9223 4.2162 14.278C4.05618 14.6337 3.98319 15.0224 4.00325 15.4119C4.02332 15.8015 4.13588 16.1806 4.3316 16.518C4.52732 16.8554 4.80059 17.1413 5.12877 17.3521C5.45696 17.5628 5.83062 17.6924 6.21884 17.7301C6.60706 17.7678 6.99867 17.7124 7.36125 17.5687C7.72384 17.4249 8.04696 17.1968 8.30389 16.9034L10.7409 14.3944L9.79389 17.7614C9.66975 18.1306 9.63525 18.5241 9.69325 18.9093C9.75125 19.2944 9.90008 19.6603 10.1274 19.9766C10.3548 20.2929 10.6542 20.5506 11.0008 20.7283C11.3474 20.906 11.7314 20.9987 12.1209 20.9987C12.5104 20.9987 12.8944 20.906 13.241 20.7283C13.5876 20.5506 13.887 20.2929 14.1143 19.9766C14.3417 19.6603 14.4905 19.2944 14.5485 18.9093C14.6065 18.5241 14.572 18.1306 14.4479 17.7614L13.5039 14.4054L15.9289 16.9104C16.2769 17.3094 16.7589 17.5994 17.3199 17.7054Z" fill="white"/>
</svg>
