<svg width="24" height="24" viewBox="0 0 24 24" fill="none" xmlns="http://www.w3.org/2000/svg">
<path d="M16.806 13.18C16.172 13.18 15.66 12.664 15.66 12.028C15.66 11.391 16.172 10.875 16.806 10.875C17.439 10.875 17.952 11.391 17.952 12.028C17.952 12.664 17.439 13.18 16.806 13.18ZM14.271 10.431C13.639 10.431 13.125 9.915 13.125 9.278C13.125 8.642 13.639 8.126 14.271 8.126C14.905 8.126 15.417 8.642 15.417 9.278C15.417 9.915 14.905 10.431 14.271 10.431ZM10.601 11.146H9.351V12.396C9.351 12.81 9.015 13.146 8.601 13.146C8.186 13.146 7.851 12.81 7.851 12.396V11.146H6.601C6.186 11.146 5.851 10.81 5.851 10.396C5.851 9.982 6.186 9.646 6.601 9.646H7.851V8.396C7.851 7.982 8.186 7.646 8.601 7.646C9.015 7.646 9.351 7.982 9.351 8.396V9.646H10.601C11.015 9.646 11.351 9.982 11.351 10.396C11.351 10.81 11.015 11.146 10.601 11.146ZM20.673 11.208C20.673 7.785 17.889 5 14.466 5H9.534C6.111 5 3.327 7.785 3.327 11.208V16.664C3.327 18.107 4.544 19 5.672 19C6.256 19 6.819 18.774 7.255 18.364L9.984 15.802H14.015L16.744 18.364C17.187 18.781 17.735 19 18.327 19C19.456 19 20.673 18.107 20.673 16.664V11.208Z" fill="white"/>
</svg>
