<svg width="24" height="24" viewBox="0 0 24 24" fill="none" xmlns="http://www.w3.org/2000/svg">
<path d="M10.7072 6.73224C10.7072 6.25331 10.3332 5.86328 9.87376 5.86328C9.41458 5.86328 9.04092 6.25331 9.04092 6.73224V7.65143H10.7072V6.73224Z" fill="white"/>
<path d="M10.0674 17.935L10.1024 17.8396C10.2723 17.37 10.3414 16.9802 10.7975 16.7511L10.5875 16.374L8.29474 12.7184C8.17677 12.5073 8.09746 12.2818 8.05344 12.0507H7.64789C7.10377 12.0507 6.65842 11.6056 6.65842 11.0612V8.6409C6.65842 8.09678 7.10377 7.65144 7.64789 7.65144H7.80424V6.73225C7.80424 5.57119 8.73274 4.62632 9.87404 4.62632C11.0156 4.62632 11.9441 5.57119 11.9441 6.73225V7.65144H12.1005C12.6446 7.65144 13.0899 8.09678 13.0899 8.6409V11.0612C13.0899 11.2873 13.1704 11.4196 13.042 11.5864L13.5833 12.4503L13.5889 12.4475C13.9312 12.2564 14.1638 12.2477 14.5547 12.2765C14.7113 12.0798 14.9063 11.9101 15.1372 11.7809L15.2269 11.7306C15.609 11.5173 16.0332 11.445 16.4436 11.4944C16.5776 11.3276 16.7413 11.1899 16.9236 11.0798V4.63648C16.9236 3.31061 15.7976 2.23535 14.4085 2.23535H5.34017C3.95052 2.23535 2.82446 3.31061 2.82446 4.63648V16.4076C2.82446 17.7332 3.95052 18.8082 5.34017 18.8082H9.96689C9.93472 18.5138 9.96604 18.2149 10.0674 17.935Z" fill="white"/>
<path d="M10.4261 11.6895L10.3411 11.7369C9.91919 11.9728 9.78514 12.544 10.0439 13.0069L12.2063 16.4525L13.0888 18.0341L13.3414 18.4856L12.7609 18.2756C12.2625 18.0953 11.7234 18.3115 11.5628 18.7551L11.5304 18.8443C11.3701 19.288 11.6461 19.7991 12.1445 19.9791L14.2849 20.7547C14.2849 20.7547 16.638 21.8009 18.668 20.5997C18.6691 20.5986 18.6697 20.5975 18.6714 20.5969C18.6731 20.5958 18.6754 20.5952 18.6773 20.5941L18.8218 20.5131C20.5643 19.5391 21.116 17.1798 20.0489 15.2706L18.9161 13.2448C18.6576 12.7822 18.1008 12.5971 17.6786 12.833L17.5936 12.8804C17.172 13.1164 17.1042 13.8064 17.3628 14.269L17.2888 14.136L17.1785 13.9399C16.9199 13.4768 16.3631 13.2916 15.9409 13.5276L15.856 13.575C15.4343 13.8109 15.3003 14.3824 15.5588 14.845L15.4716 14.6895C15.2131 14.2269 14.6563 14.0418 14.2341 14.2777L14.1491 14.3251C13.7269 14.5611 13.5934 15.1326 13.8519 15.5951L11.6625 12.1012C11.4051 11.6387 10.848 11.4535 10.4261 11.6895Z" fill="white"/>
</svg>
