<svg width="24" height="24" viewBox="0 0 24 24" fill="none" xmlns="http://www.w3.org/2000/svg">
<path d="M17.1598 2.45898H6.81365C5.22841 2.45898 3.94347 3.68551 3.94347 5.19821V18.6288C3.94347 20.1412 5.22841 21.3677 6.81365 21.3677H17.1601C18.7453 21.3677 20.0303 20.1412 20.0303 18.6288V5.19821C20.03 3.68551 18.7451 2.45898 17.1598 2.45898ZM8.31788 9.76736C8.31788 9.14647 8.82587 8.63848 9.44676 8.63848H9.62512V7.58946C9.62512 6.26472 10.6846 5.18692 11.9865 5.18692C13.2889 5.18692 14.3484 6.26444 14.3484 7.58946V8.63848H14.527C15.1476 8.63848 15.6559 9.14647 15.6559 9.76736V12.5292C15.6559 13.1498 15.1476 13.658 14.527 13.658H9.44704C8.82616 13.658 8.31816 13.1498 8.31816 12.5292V9.76736H8.31788ZM17.7723 19.0318H6.20123V15.6816H17.7723V19.0318Z" fill="white"/>
<path d="M12.937 7.59007C12.937 7.04341 12.5103 6.59863 11.9862 6.59863C11.4624 6.59863 11.0359 7.04341 11.0359 7.59007V8.63908H12.937V7.59007Z" fill="white"/>
<path d="M7.3047 17.3569C7.3047 17.1698 7.37904 16.9903 7.51135 16.858C7.64367 16.7257 7.82313 16.6514 8.01025 16.6514C8.19738 16.6514 8.37684 16.7257 8.50915 16.858C8.64147 16.9903 8.7158 17.1698 8.7158 17.3569C8.7158 17.544 8.64147 17.7235 8.50915 17.8558C8.37684 17.9881 8.19738 18.0625 8.01025 18.0625C7.82313 18.0625 7.64367 17.9881 7.51135 17.8558C7.37904 17.7235 7.3047 17.544 7.3047 17.3569Z" fill="white"/>
</svg>
