<svg width="24" height="24" viewBox="0 0 24 24" fill="none" xmlns="http://www.w3.org/2000/svg">
<path d="M16.9175 11.0068C17.5385 11.0068 18.0425 11.5108 18.0425 12.1318C18.0425 12.7538 17.5385 13.2568 16.9175 13.2568C16.2955 13.2568 15.7925 12.7538 15.7925 12.1318C15.7925 11.5108 16.2955 11.0068 16.9175 11.0068ZM14.3823 8.25781C15.0033 8.25781 15.5073 8.76181 15.5073 9.38281C15.5073 10.0048 15.0033 10.5078 14.3823 10.5078C13.7603 10.5078 13.2573 10.0048 13.2573 9.38281C13.2573 8.76181 13.7603 8.25781 14.3823 8.25781Z" fill="white"/>
<path d="M8.7122 8.5002V12.5342M10.7293 10.5173H6.6943M11.096 15.802C10.333 15.802 9.599 16.093 9.043 16.615L7.179 18.364C6.737 18.781 6.189 19 5.596 19C4.468 19 3.25 18.107 3.25 16.664V11C3.25 7.686 5.937 5 9.25 5H14.753C18.067 5 20.753 7.686 20.753 11V16.664C20.753 18.107 19.536 19 18.408 19H18.407C17.815 19 17.267 18.781 16.824 18.364L14.96 16.615C14.404 16.093 13.67 15.802 12.907 15.802H11.096Z" stroke="white" stroke-width="1.5" stroke-linecap="round" stroke-linejoin="round"/>
</svg>
