<svg width="24" height="24" viewBox="0 0 24 24" fill="none" xmlns="http://www.w3.org/2000/svg">
<path d="M7.04099 12.599C9.34499 12.599 11.219 14.475 11.22 16.779C11.22 19.084 9.34599 20.96 7.04099 20.96C4.73499 20.96 2.85999 19.084 2.85999 16.779C2.85999 14.475 4.73499 12.599 7.04099 12.599ZM7.04099 14.876C5.98999 14.876 5.13599 15.729 5.13599 16.779C5.13599 17.83 5.98999 18.684 7.04099 18.684C8.08699 18.684 8.94499 17.83 8.94399 16.779C8.94399 15.73 8.08799 14.876 7.04099 14.876ZM7.04099 3.04004C9.34499 3.04004 11.219 4.91504 11.22 7.22204C11.22 9.52704 9.34599 11.402 7.04099 11.402C4.73499 11.402 2.85999 9.52704 2.85999 7.22204C2.85999 4.91504 4.73499 3.04004 7.04099 3.04004ZM7.04099 5.31704C5.98999 5.31704 5.13599 6.17004 5.13599 7.22204C5.13599 8.27104 5.98999 9.12504 7.04099 9.12504C8.08699 9.12504 8.94499 8.27004 8.94399 7.22204C8.94399 6.17104 8.08799 5.31704 7.04099 5.31704ZM16.958 12.599C14.653 12.599 12.777 14.475 12.777 16.779C12.777 19.084 14.653 20.96 16.958 20.96C19.265 20.96 21.14 19.084 21.14 16.779C21.139 14.475 19.264 12.599 16.958 12.599ZM16.958 14.876C18.008 14.876 18.861 15.73 18.861 16.779C18.862 17.83 18.007 18.684 16.958 18.684C15.909 18.684 15.056 17.83 15.056 16.779C15.056 15.729 15.91 14.876 16.958 14.876ZM19.211 3.37604C19.517 3.37604 19.799 3.49404 20.017 3.71004C20.232 3.92504 20.349 4.21004 20.349 4.51504C20.349 4.82004 20.232 5.10504 20.017 5.32004L18.118 7.21904L20.017 9.11704C20.232 9.33204 20.349 9.61804 20.349 9.92304C20.349 10.228 20.232 10.513 20.017 10.728C19.801 10.943 19.517 11.061 19.211 11.061C18.906 11.061 18.619 10.943 18.405 10.728L16.507 8.82904L14.61 10.728C14.394 10.943 14.109 11.061 13.803 11.061C13.498 11.061 13.214 10.943 12.998 10.728C12.783 10.513 12.665 10.228 12.665 9.92304C12.665 9.62004 12.784 9.33404 12.998 9.11704L14.896 7.21904L12.998 5.32004C12.783 5.10504 12.665 4.82004 12.665 4.51504C12.665 4.21004 12.783 3.92504 12.998 3.70904C13.211 3.49504 13.498 3.37604 13.803 3.37604C14.109 3.37604 14.394 3.49404 14.61 3.71004L16.507 5.60904L18.405 3.71004C18.619 3.49404 18.906 3.37604 19.211 3.37604Z" fill="white"/>
</svg>
