<svg width="24" height="24" viewBox="0 0 24 24" fill="none" xmlns="http://www.w3.org/2000/svg">
<path d="M7.54024 8.796H8.82324V7.513C8.82324 7.098 9.15924 6.763 9.57324 6.763C9.98824 6.763 10.3232 7.098 10.3232 7.513V8.796H11.6072C12.0212 8.796 12.3572 9.132 12.3572 9.546C12.3572 9.961 12.0212 10.296 11.6072 10.296H10.3232V11.58C10.3232 11.994 9.98824 12.33 9.57324 12.33C9.15924 12.33 8.82324 11.994 8.82324 11.58V10.296H7.54024C7.12524 10.296 6.79024 9.961 6.79024 9.546C6.79024 9.132 7.12524 8.796 7.54024 8.796ZM13.3332 14.195C13.3332 14.789 12.8492 15.272 12.2542 15.272C11.6622 15.272 11.1802 14.789 11.1802 14.195C11.1802 13.601 11.6622 13.118 12.2542 13.118C12.8492 13.118 13.3332 13.601 13.3332 14.195ZM14.2692 11.055C14.8602 11.055 15.3432 11.537 15.3432 12.129C15.3432 12.725 14.8602 13.208 14.2692 13.208C13.6712 13.208 13.1882 12.725 13.1882 12.129C13.1882 11.537 13.6712 11.055 14.2692 11.055ZM16.2772 13.118C16.8702 13.118 17.3522 13.601 17.3522 14.195C17.3522 14.789 16.8702 15.272 16.2772 15.272C15.6832 15.272 15.1972 14.789 15.1972 14.195C15.1972 13.601 15.6832 13.118 16.2772 13.118ZM14.2692 17.335C13.6712 17.335 13.1882 16.851 13.1882 16.258C13.1882 15.663 13.6712 15.182 14.2692 15.182C14.8602 15.182 15.3432 15.663 15.3432 16.258C15.3432 16.851 14.8602 17.335 14.2692 17.335ZM11.9992 20.375C14.2382 20.375 16.3422 19.504 17.9252 17.923C21.1912 14.656 21.1912 9.344 17.9252 6.078C16.3422 4.496 14.2382 3.625 12.0002 3.625C9.76224 3.625 7.65824 4.496 6.07424 6.078C2.80924 9.344 2.80924 14.657 6.07424 17.923C7.65824 19.504 9.76224 20.375 11.9992 20.375Z" fill="white"/>
</svg>
