<svg width="24" height="24" viewBox="0 0 24 24" fill="none" xmlns="http://www.w3.org/2000/svg">
<path d="M8.43444 8.75C9.08544 8.75 9.61244 8.915 10.0014 9.242C10.3481 9.5336 10.5754 9.9413 10.6772 10.4574L10.7094 10.656L10.7304 10.826H9.48244L9.46944 10.717C9.37044 10.102 9.04944 9.824 8.45344 9.824C8.07444 9.824 7.78444 9.96 7.59144 10.228C7.41124 10.4774 7.30594 10.8393 7.27784 11.3051L7.27044 11.511V11.936C7.27044 12.499 7.38744 12.938 7.61944 13.241C7.84044 13.532 8.15444 13.679 8.55244 13.679C8.90814 13.679 9.18084 13.618 9.36734 13.4967L9.45344 13.431V12.559H8.31044V11.527H10.7154V13.851L10.6914 13.883C10.4664 14.178 10.1634 14.394 9.78244 14.538C9.41144 14.679 8.98644 14.75 8.51744 14.75C8.02944 14.75 7.58944 14.636 7.20844 14.413C6.82544 14.188 6.52744 13.862 6.32044 13.445C6.14644 13.0919 6.04294 12.6858 6.01194 12.2357L6.00244 12.007V11.571C6.00244 10.699 6.21744 10.005 6.63944 9.509C7.06844 9.005 7.67344 8.75 8.43444 8.75ZM17.4983 8.8252V9.9042H14.9393V11.2522H17.1713V12.3222H14.9393V14.6742H13.6743V8.8252H17.4983ZM12.7899 8.8257V14.6737H11.5279V8.8257H12.7899Z" fill="white"/>
<path d="M17.2505 20.5H6.25049C4.45559 20.5 3.00049 19.0445 3.00049 17.25V6.25C3.00049 4.4548 4.45529 3 6.25049 3H17.2505C19.0457 3 20.5005 4.4548 20.5005 6.25V17.25C20.5005 19.0445 19.0454 20.5 17.2505 20.5ZM17.2505 19C18.2169 19 19.0005 18.2162 19.0005 17.25V6.25C19.0005 5.2832 18.2173 4.5 17.2505 4.5H6.25049C5.28369 4.5 4.50049 5.2832 4.50049 6.25V17.25C4.50049 18.2162 5.28409 19 6.25049 19H17.2505Z" fill="white"/>
</svg>
