<svg width="24" height="24" viewBox="0 0 24 24" fill="none" xmlns="http://www.w3.org/2000/svg">
<path d="M14.634 9.37189C14.925 9.13289 15.4021 9.13289 15.6931 9.37189L16.032 9.65889L19.939 12.9849C20.231 13.2219 20.4681 13.7249 20.4681 14.1019V18.6849C20.4681 19.6269 19.699 20.3959 18.758 20.3959H17.13V16.3439C17.13 15.7799 16.668 15.3179 16.1041 15.3179H14.0521C13.488 15.3179 13.0261 15.7799 13.0261 16.3439V20.3959H11.5691C11.442 20.3959 11.3201 20.3809 11.2011 20.3539C10.4361 20.1849 9.85903 19.4999 9.85903 18.6849V14.1019C9.85903 13.7249 10.0961 13.2219 10.3881 12.9849L14.634 9.37189ZM13.4891 3.60449C14.8932 3.60449 16.0321 4.69049 16.0321 6.03049V7.85649C15.7592 7.75049 15.4651 7.69249 15.1642 7.69249C14.6181 7.69249 14.0921 7.87649 13.6841 8.21049C13.6771 8.21749 9.42423 11.8355 9.42423 11.8355C8.79513 12.3565 8.35823 13.2865 8.35823 14.1025V18.6855C8.35823 19.2975 8.53413 19.8675 8.83113 20.3545H6.07413C4.66923 20.3545 3.53223 19.2685 3.53223 17.9285V6.03049C3.53223 4.69049 4.66923 3.60449 6.07413 3.60449H13.4891ZM11.8102 6.41749H11.0052C10.5911 6.41749 10.2552 6.75349 10.2552 7.16749C10.2552 7.58149 10.5911 7.91749 11.0052 7.91749H11.8102C12.2251 7.91749 12.5602 7.58149 12.5602 7.16749C12.5602 6.75349 12.2251 6.41749 11.8102 6.41749ZM8.06023 6.41749H7.25523C6.84123 6.41749 6.50523 6.75349 6.50523 7.16749C6.50523 7.58149 6.84123 7.91749 7.25523 7.91749H8.06023C8.47513 7.91749 8.81023 7.58149 8.81023 7.16749C8.81023 6.75349 8.47513 6.41749 8.06023 6.41749Z" fill="white"/>
</svg>
