<svg width="24" height="24" viewBox="0 0 24 24" fill="none" xmlns="http://www.w3.org/2000/svg">
<path fill-rule="evenodd" clip-rule="evenodd" d="M18.4284 2.21289C18.9014 2.21289 19.2854 2.59589 19.2854 3.06989V5.20389C20.6824 5.57189 21.7134 6.84689 21.7134 8.36689C21.7134 9.66689 20.9534 10.7949 19.8254 11.3339L19.6294 15.2819C19.6294 16.2379 18.8684 16.9989 17.9124 16.9989L15.0934 17.2439V19.5979C15.0934 20.2889 14.5324 20.8479 13.8434 20.8479H4.10645C3.41645 20.8479 2.85645 20.2889 2.85645 19.5979V19.1069C2.85645 16.3609 5.60244 13.8109 8.98644 13.8109H16.7114L16.8834 11.2609C15.8524 10.6959 15.1414 9.61789 15.1414 8.36689C15.1414 6.84689 16.1714 5.57189 17.5694 5.20389V3.06989C17.5694 2.59589 17.9544 2.21289 18.4284 2.21289ZM9.47804 4.83619C11.513 4.83619 13.155 6.47919 13.155 8.51419C13.155 10.5492 11.513 12.1922 9.47804 12.1922C7.44304 12.1922 5.79905 10.5492 5.79905 8.51419C5.79905 6.47919 7.44304 4.83619 9.47804 4.83619ZM18.4514 6.79789C17.5944 6.79789 16.8834 7.50889 16.8834 8.36689C16.8834 8.73489 17.0054 9.05389 17.2014 9.32289C17.4464 8.90689 17.8634 8.61189 18.4274 8.61189C19.0154 8.61189 19.4324 8.90689 19.6784 9.34789C19.8744 9.07789 19.9964 8.73489 20.0204 8.36689C20.0204 7.50889 19.3094 6.79789 18.4514 6.79789Z" fill="white"/>
</svg>
