<svg width="24" height="24" viewBox="0 0 24 24" fill="none" xmlns="http://www.w3.org/2000/svg">
<path d="M4.42178 17.4941L5.20928 18.8543C5.37288 19.1407 5.60808 19.3657 5.88428 19.5293L8.69678 14.6611H3.07178C3.07178 14.9782 3.15358 15.2952 3.31718 15.5816L4.42178 17.4941Z" fill="#0066DA"/>
<path d="M12.0002 8.93353L9.18768 4.06543C8.91158 4.22903 8.67628 4.45403 8.51268 4.74043L3.31718 13.7404C3.15358 14.0267 3.07178 14.3438 3.07178 14.6608H8.69678L12.0002 8.93353Z" fill="#00AC47"/>
<path d="M12 8.93391L14.8125 4.06581C14.5363 3.90211 14.2193 3.82031 13.892 3.82031H10.108C9.7807 3.82031 9.4636 3.91231 9.1875 4.06581L12 8.93391Z" fill="#00832D"/>
<path d="M15.3036 14.6611H8.69678L5.88428 19.5293C6.16038 19.6929 6.47748 19.7747 6.80478 19.7747H17.1956C17.5229 19.7747 17.84 19.6827 18.1161 19.5293L15.3036 14.6611Z" fill="#2684FC"/>
<path d="M18.1158 19.5293C18.392 19.3657 18.6272 19.1407 18.7908 18.8543L19.1181 18.2918L20.6828 15.5816C20.8465 15.2952 20.9283 14.9782 20.9283 14.6611H15.3135L18.1158 19.5293Z" fill="#EA4335"/>
<path d="M18.0852 9.24043L15.4875 4.74043C15.3239 4.45403 15.0886 4.22903 14.8125 4.06543L12 8.93353L15.3034 14.6608H20.9182C20.9182 14.3438 20.8364 14.0267 20.6727 13.7404L18.0852 9.24043Z" fill="#FFBA00"/>
</svg>
