<svg width="24" height="24" viewBox="0 0 24 24" fill="none" xmlns="http://www.w3.org/2000/svg">
<path fill-rule="evenodd" clip-rule="evenodd" d="M17 13.7993C17 14.1928 16.5301 14.4058 16.2245 14.1508L14.5882 12.7853V13.8462C14.5882 14.4835 14.0616 15 13.4118 15H9.1765C8.5268 15 8 14.4835 8 13.8462V10.1538C8 9.5167 8.5268 9 9.1765 9H13.4118C14.0616 9 14.5882 9.5167 14.5882 10.1538V11.2147L16.2245 9.8492C16.5301 9.5942 17 9.8072 17 10.2007V13.7993ZM19.2 3H12C6.942 3 3 7.194 3 12.252C3 16.95 7.041 21 11.748 21C16.851 21 21 17.058 21 12V4.8C21 3.81 20.19 3 19.2 3Z" fill="white"/>
</svg>
