<svg width="24" height="24" viewBox="0 0 24 24" fill="none" xmlns="http://www.w3.org/2000/svg">
<path fill-rule="evenodd" clip-rule="evenodd" d="M15.8793 12.9712C18.8449 12.9712 21.25 15.2046 21.25 17.6119V19.2174C21.25 19.8171 20.7644 20.3037 20.1637 20.3037H17.2622C16.6636 20.3037 16.1759 19.8171 16.1759 19.2174V17.4152C16.1759 15.8195 15.5339 14.3312 14.4725 13.1482C14.9212 13.0374 15.3926 12.9712 15.8793 12.9712ZM8.5129 12.4354C11.6957 12.4354 14.2757 14.8318 14.2757 17.415V19.2172C14.2757 19.8168 13.789 20.3035 13.1894 20.3035H3.8363C3.2367 20.3035 2.75 19.8168 2.75 19.2172V17.415C2.75 14.8318 5.33 12.4354 8.5129 12.4354ZM16.1742 6.12027C17.6744 6.12027 18.8911 7.33587 18.8911 8.83707C18.8911 10.3373 17.6744 11.5518 16.1742 11.5518C14.6751 11.5518 13.4596 10.3373 13.4596 8.83707C13.4596 7.33587 14.6751 6.12027 16.1742 6.12027ZM8.5129 3.69727C10.4258 3.69727 11.976 5.24737 11.976 7.16037C11.976 9.07337 10.4258 10.6236 8.5129 10.6236C6.5999 10.6236 5.0497 9.07337 5.0497 7.16037C5.0497 5.24737 6.5999 3.69727 8.5129 3.69727Z" fill="white"/>
</svg>
