<svg width="24" height="24" viewBox="0 0 24 24" fill="none" xmlns="http://www.w3.org/2000/svg">
<path d="M5.79 10.2C6.10645 10.2 6.4158 10.1062 6.67891 9.93035C6.94203 9.75454 7.14711 9.50466 7.26821 9.21229C7.38931 8.91993 7.421 8.59823 7.35926 8.28786C7.29752 7.97749 7.14514 7.69239 6.92137 7.46863C6.69761 7.24487 6.41252 7.09248 6.10215 7.03074C5.79178 6.96901 5.47007 7.00069 5.17771 7.12179C4.88535 7.24289 4.63546 7.44797 4.45965 7.71109C4.28384 7.97421 4.19 8.28355 4.19 8.6C4.19 9.02435 4.35857 9.43131 4.65863 9.73137C4.80721 9.87995 4.98359 9.9978 5.17771 10.0782C5.37183 10.1586 5.57989 10.2 5.79 10.2Z" fill="white"/>
<path d="M12.26 9.62005C12.8047 9.62401 13.3384 9.4661 13.7932 9.16634C14.2481 8.86658 14.6037 8.43849 14.8149 7.93636C15.0261 7.43422 15.0834 6.88067 14.9796 6.34591C14.8757 5.81115 14.6154 5.31928 14.2316 4.93268C13.8478 4.54609 13.3579 4.28218 12.8239 4.17444C12.2899 4.0667 11.7359 4.11998 11.2323 4.32752C10.7286 4.53506 10.2979 4.88751 9.99487 5.34017C9.6918 5.79283 9.53 6.3253 9.52999 6.87005C9.52867 7.22987 9.59824 7.58643 9.73473 7.91936C9.87121 8.2523 10.0719 8.55509 10.3254 8.81045C10.5789 9.06581 10.8803 9.26874 11.2122 9.40765C11.5441 9.54656 11.9002 9.61873 12.26 9.62005Z" fill="white"/>
<path d="M6.99999 11.85C6.67341 11.7637 6.33771 11.7167 5.99999 11.71C5.04794 11.7114 4.12502 12.0385 3.38462 12.637C2.64421 13.2355 2.13091 14.0693 1.92999 15C2.52344 15.7362 3.30406 16.2992 4.18999 16.63C4.18999 16.57 4.18999 16.51 4.18999 16.45C4.58664 14.6458 5.57588 13.0264 6.99999 11.85Z" fill="white"/>
<path d="M12.26 11.6396C10.7694 11.6429 9.32432 12.1538 8.16282 13.0881C7.00133 14.0224 6.19266 15.3244 5.87 16.7796C6.63301 17.7435 7.60417 18.5222 8.71076 19.0575C9.81735 19.5929 11.0307 19.871 12.26 19.871C13.4893 19.871 14.7026 19.5929 15.8092 19.0575C16.9158 18.5222 17.887 17.7435 18.65 16.7796C18.3273 15.3244 17.5187 14.0224 16.3572 13.0881C15.1957 12.1538 13.7506 11.6429 12.26 11.6396Z" fill="white"/>
<path d="M21.07 10.9996C20.7048 10.9988 20.3509 11.1262 20.07 11.3596L18.12 10.3596L20.12 9.1996C20.3868 9.35264 20.6933 9.4223 21 9.3996C21.296 9.40923 21.5882 9.33102 21.8398 9.17482C22.0915 9.01863 22.2912 8.79145 22.4139 8.52191C22.5367 8.25237 22.5768 7.95253 22.5294 7.66019C22.482 7.36786 22.3491 7.0961 22.1474 6.87917C21.9458 6.66225 21.6845 6.50987 21.3964 6.44123C21.1083 6.37259 20.8063 6.39078 20.5286 6.49349C20.2508 6.5962 20.0096 6.77884 19.8355 7.01839C19.6613 7.25794 19.562 7.54368 19.55 7.8396C19.55 7.8396 19.55 7.8996 19.55 7.9296L17.55 9.0696C17.3136 8.87217 17.0179 8.75953 16.71 8.7496C16.4682 8.73362 16.2261 8.77646 16.0045 8.87446C15.7828 8.97246 15.5883 9.1227 15.4374 9.31233C15.2865 9.50195 15.1838 9.72531 15.138 9.96329C15.0923 10.2013 15.1049 10.4468 15.1748 10.6788C15.2447 10.9109 15.3697 11.1225 15.5392 11.2957C15.7088 11.4689 15.9177 11.5984 16.1482 11.6731C16.3787 11.7479 16.6239 11.7657 16.8628 11.7251C17.1017 11.6844 17.3272 11.5864 17.52 11.4396L19.52 12.5196C19.5241 12.8132 19.6142 13.0992 19.7793 13.342C19.9444 13.5849 20.1772 13.7739 20.4487 13.8858C20.7202 13.9976 21.0186 14.0272 21.3068 13.9711C21.595 13.9149 21.8604 13.7753 22.0701 13.5697C22.2798 13.3641 22.4245 13.1015 22.4863 12.8144C22.5481 12.5274 22.5242 12.2285 22.4177 11.9548C22.3113 11.6811 22.1268 11.4448 21.8872 11.275C21.6476 11.1052 21.3635 11.0094 21.07 10.9996Z" fill="white"/>
</svg>
