<svg width="24" height="24" viewBox="0 0 24 24" fill="none" xmlns="http://www.w3.org/2000/svg">
<path d="M13.223 19.3637H4.36902C4.1038 19.3637 3.84945 19.2584 3.66191 19.0708C3.47438 18.8833 3.36902 18.629 3.36902 18.3637V17.3367C3.36902 14.9047 5.79802 12.6467 8.79502 12.6467C11.793 12.6467 14.223 14.9047 14.223 17.3367V18.3637C14.223 18.629 14.1177 18.8833 13.9301 19.0708C13.7426 19.2584 13.4882 19.3637 13.223 19.3637ZM13.223 19.3637H19.631C19.8962 19.3637 20.1506 19.2584 20.3381 19.0708C20.5257 18.8833 20.631 18.629 20.631 18.3637V16.9797C20.631 15.0367 18.691 13.2347 16.297 13.2347C15.0972 13.2296 13.9424 13.6916 13.077 14.5227M11.67 7.50974C11.67 8.27233 11.3671 9.0037 10.828 9.54303C10.2889 10.0824 9.55761 10.3855 8.79502 10.3857C8.22644 10.3857 7.67063 10.2172 7.19786 9.90129C6.72509 9.58542 6.35659 9.13647 6.13896 8.61119C5.92133 8.08591 5.86434 7.50789 5.97519 6.95023C6.08604 6.39256 6.35976 5.88028 6.76173 5.47817C7.16371 5.07605 7.67589 4.80215 8.23352 4.69111C8.79115 4.58006 9.36919 4.63685 9.89454 4.8543C10.4199 5.07175 10.869 5.44009 11.185 5.91275C11.501 6.38541 11.6698 6.94117 11.67 7.50974ZM18.415 8.66374C18.4211 8.94582 18.3707 9.22627 18.267 9.48864C18.1632 9.75101 18.0081 9.99001 17.8107 10.1916C17.6133 10.3932 17.3777 10.5534 17.1176 10.6627C16.8575 10.7721 16.5782 10.8283 16.296 10.8283C16.0139 10.8282 15.7346 10.7718 15.4745 10.6623C15.2145 10.5529 14.9789 10.3926 14.7816 10.1909C14.5843 9.9892 14.4293 9.75013 14.3257 9.48771C14.222 9.22529 14.1718 8.94482 14.178 8.66274C14.1902 8.10885 14.4188 7.58176 14.8149 7.19438C15.2109 6.80699 15.743 6.59014 16.297 6.59027C16.851 6.5904 17.383 6.80751 17.7789 7.19508C18.1748 7.58264 18.4031 8.10985 18.415 8.66374Z" stroke="white" stroke-width="1.5" stroke-linecap="round" stroke-linejoin="round"/>
</svg>
