<svg width="24" height="24" viewBox="0 0 24 24" fill="none" xmlns="http://www.w3.org/2000/svg">
<path d="M11.1582 5.86523C11.4051 5.86523 11.6404 5.90373 11.8549 5.98003C12.0696 6.05563 12.2824 6.17723 12.4851 6.34193C12.6767 6.49873 12.8686 6.69763 13.0554 6.93343C13.2353 7.16223 13.4282 7.43953 13.6288 7.75753C13.7421 7.94183 13.8675 8.17773 14.0161 8.48233C14.1611 8.78273 14.3163 9.12003 14.475 9.48573C14.643 9.86933 14.8118 10.2694 14.9771 10.6745C15.1494 11.0957 15.3192 11.5224 15.4867 11.9554C15.6492 12.3769 15.8082 12.8044 15.9594 13.2261C16.1139 13.6586 16.2409 14.0376 16.3484 14.3854C16.4569 14.7373 16.5474 15.0543 16.6159 15.3275C16.69 15.6302 16.7242 15.8457 16.7242 16.0082C16.7242 16.1795 16.6895 16.3417 16.6212 16.4894C16.5587 16.6273 16.4768 16.7489 16.3773 16.8511C16.2751 16.9578 16.1566 17.0422 16.0252 17.1012C15.8876 17.1633 15.7484 17.1949 15.611 17.1949C15.2722 17.1949 15.017 16.9865 14.9123 16.623C14.8595 16.4563 14.7975 16.2506 14.7259 16.0145L14.5019 15.2755C14.423 15.0194 14.3416 14.7609 14.258 14.5007C14.1741 14.241 14.093 13.9966 14.0146 13.7666C13.9383 13.5415 13.8644 13.3401 13.7964 13.165C13.774 13.1088 13.7542 13.0608 13.7358 13.0186L9.3222 13.6324C9.284 13.8708 9.2473 14.1094 9.2119 14.3495C9.1624 14.68 9.1165 14.9849 9.0715 15.2637L8.9216 16.2234C8.8758 16.5143 8.8241 16.8091 8.7676 17.099C8.7161 17.3466 8.594 17.5458 8.4127 17.6774C8.2424 17.802 8.0468 17.8648 7.8335 17.8648C7.5711 17.8648 7.3317 17.7809 7.1227 17.6154C6.8917 17.433 6.7688 17.1683 6.7688 16.8498V16.7639C6.7688 16.7089 6.7771 16.6547 6.794 16.6019C6.8422 16.248 6.9118 15.8165 6.9992 15.3165C7.0878 14.8086 7.1921 14.2618 7.3076 13.6927C7.4221 13.1263 7.5414 12.5668 7.6635 12.0119C7.785 11.4639 7.9066 10.9573 8.0221 10.5075C8.1116 10.1837 8.2083 9.85273 8.3125 9.50883C8.4172 9.16253 8.5358 8.81893 8.6639 8.48643C8.7937 8.15163 8.9364 7.83113 9.0878 7.53373C9.2466 7.22253 9.4239 6.94473 9.6155 6.70913C9.8164 6.46173 10.0425 6.25983 10.2874 6.11013C10.5541 5.94713 10.8475 5.86523 11.1582 5.86523ZM11.3382 8.12373C11.2817 8.12373 11.1943 8.13553 11.079 8.23143C10.9582 8.33443 10.8399 8.47683 10.7302 8.65493C10.6104 8.85033 10.5001 9.07363 10.4037 9.31823C10.3017 9.57263 10.2075 9.84043 10.1224 10.1131C10.038 10.3834 9.9616 10.6534 9.8951 10.9164C9.8348 11.1522 9.782 11.3647 9.7373 11.5533L10.6777 11.4177C11.0951 11.3574 11.4518 11.3067 11.7464 11.266C12.0362 11.2253 12.2748 11.1909 12.4604 11.1607C12.642 11.1321 12.7902 11.109 12.907 11.0934C12.8759 11.0048 12.8505 10.9259 12.8294 10.8558C12.7111 10.5218 12.5825 10.1686 12.4499 9.81403C12.322 9.47223 12.1849 9.16223 12.043 8.89023C11.9104 8.63633 11.77 8.43013 11.6243 8.27763C11.4779 8.12373 11.3732 8.12373 11.3382 8.12373Z" fill="#3397FF"/>
</svg>
