<svg width="24" height="24" viewBox="0 0 24 24" fill="none" xmlns="http://www.w3.org/2000/svg">
<path d="M19.0807 5H11.4577C10.1227 5 9.03767 6.086 9.03767 7.42C9.03767 7.834 9.37367 8.17 9.78767 8.17C10.2017 8.17 10.5377 7.834 10.5377 7.42C10.5377 6.913 10.9497 6.5 11.4577 6.5H14.5187V16.687C14.3237 16.688 14.0627 16.686 13.9827 16.628C13.8807 16.554 13.7757 16.467 13.6677 16.378C13.0417 15.864 11.9957 15.005 10.5367 15.724C9.98367 15.997 9.61667 16.255 9.32267 16.462C8.92367 16.743 8.73867 16.872 8.31167 16.899C8.42667 16.365 9.03367 15.263 9.38067 14.632C10.1667 13.203 10.6427 12.34 10.1017 11.715C9.89667 11.478 9.50267 11.25 8.78667 11.517C5.73867 12.65 2.75367 17.049 2.62767 17.235C2.39667 17.579 2.48767 18.045 2.83167 18.276C3.17567 18.507 3.64167 18.416 3.87267 18.073C3.89667 18.036 6.05667 14.856 8.33467 13.417C8.24167 13.59 8.14767 13.76 8.06567 13.909C7.18667 15.507 6.42867 16.887 6.98267 17.804C7.12067 18.029 7.45667 18.404 8.18367 18.404C8.19867 18.404 8.21367 18.404 8.22867 18.403C9.19867 18.384 9.67867 18.046 10.1857 17.688C10.4507 17.502 10.7517 17.291 11.2007 17.069C11.7367 16.805 12.0587 16.998 12.7157 17.537C12.8497 17.647 12.9777 17.752 13.1037 17.844C13.5897 18.194 14.1587 18.188 14.5807 18.187H17.2357C17.6497 18.187 17.9857 17.851 17.9857 17.437C17.9857 17.021 17.6497 16.687 17.2357 16.687H16.0187V6.5H19.0807C19.5877 6.5 20.0007 6.913 20.0007 7.42C20.0007 7.834 20.3357 8.17 20.7507 8.17C21.1647 8.17 21.5007 7.834 21.5007 7.42C21.5007 6.086 20.4147 5 19.0807 5Z" fill="white"/>
</svg>
