<svg width="24" height="24" viewBox="0 0 24 24" fill="none" xmlns="http://www.w3.org/2000/svg">
<path d="M14.465 4C16.1415 4 17.5 5.3581 17.5 7.035C17.5 7.4492 17.1642 7.785 16.75 7.785C16.3358 7.785 16 7.4492 16 7.035C16 6.2337 15.3874 5.5768 14.6048 5.5063L14.465 5.5H4.035C3.2339 5.5 2.5768 6.1124 2.5063 6.8952L2.5 7.035C2.5 7.4492 2.1642 7.785 1.75 7.785C1.3358 7.785 1 7.4492 1 7.035C1 5.418 2.2632 4.0974 3.8566 4.0051L4.035 4H14.465Z" fill="white"/>
<path d="M9.24984 4.55273C9.62954 4.55273 9.94334 4.83493 9.99304 5.20093L9.99984 5.30273V19.1397C9.99984 19.5194 9.71764 19.8332 9.35164 19.8829L9.24984 19.8897H6.61084C6.19664 19.8897 5.86084 19.5539 5.86084 19.1397C5.86084 18.76 6.14304 18.4462 6.50904 18.3965L6.61084 18.3897L8.49894 18.3888L8.49984 5.30273C8.49984 4.92303 8.78204 4.60923 9.14804 4.55953L9.24984 4.55273Z" fill="white"/>
<path d="M12.6 14.8007C12.8929 14.5078 13.3677 14.5078 13.6606 14.8007C13.9269 15.0669 13.9511 15.4836 13.7332 15.7772L13.6606 15.8613C13.6084 15.9136 13.4261 16.1713 13.3873 16.2051L12.9201 18.5449L15.2655 18.0847C15.2247 18.0926 15.4704 17.9179 15.5717 17.8349L15.605 17.8057C15.8979 17.5128 16.3727 17.5128 16.6656 17.8057C16.9585 18.0986 16.9585 18.5734 16.6656 18.8663C16.4388 19.0931 15.9941 19.4123 15.6687 19.525L15.553 19.5569L12.4121 20.1743C11.7626 20.3002 11.2222 19.8 11.2765 19.1648L11.2924 19.0514L11.9087 15.9138C11.9737 15.5867 12.3458 15.0548 12.6 14.8007Z" fill="white"/>
<path d="M17.8805 9.52049L12.9215 14.4795C12.3364 15.0625 12.3364 16.0161 12.9215 16.6011L14.8665 18.5461C15.4514 19.131 16.4032 19.131 16.9881 18.5461L21.9462 13.5871C22.714 12.8192 22.714 11.5764 21.9461 10.8085L20.6581 9.52049C19.8912 8.75359 18.6474 8.75359 17.8805 9.52049ZM19.5975 10.5811L20.8855 11.8691C21.0676 12.0512 21.0676 12.3444 20.8855 12.5265L15.9271 17.4855L13.9812 15.541L18.9411 10.5811C19.1222 10.4 19.4164 10.4 19.5975 10.5811Z" fill="white"/>
</svg>
