<svg width="24" height="24" viewBox="0 0 24 24" fill="none" xmlns="http://www.w3.org/2000/svg">
<path d="M7.13632 5.65893C7.22313 5.75656 7.30084 5.862 7.36842 5.97385L8.86599 8.4523C9.05904 8.77171 9.05874 9.15942 8.86529 9.4483L7.79108 10.7541C7.5825 11.0656 7.60013 11.4892 7.83484 11.8173C8.32568 12.5005 8.99175 13.2806 9.83295 14.1578C10.7118 14.9981 11.4929 15.663 12.177 16.1531C12.5058 16.3875 12.9299 16.4051 13.2418 16.1969L14.5496 15.1242C14.8388 14.9311 15.2271 14.9308 15.547 15.1235L17.9504 16.5714C18.9966 17.2018 19.3337 18.5607 18.7035 19.6069L18.6174 19.7391L18.5219 19.8647C17.5508 21.0538 15.5058 21.2781 13.9557 20.5329C13.2488 20.1683 12.7787 19.9156 12.5452 19.7748C11.0205 18.8562 9.27693 17.4619 7.8857 16.0626C6.49798 14.6806 5.11918 12.9579 4.20778 11.4497C4.0669 11.2166 3.81376 10.7471 3.44859 10.0414C2.73345 8.55793 2.8501 6.75587 3.96657 5.62529L4.11786 5.4818C5.00032 4.69717 6.35169 4.77648 7.13632 5.65893ZM18.3397 4.03711C18.7245 4.03711 19.0913 4.1083 19.4184 4.24979C19.7464 4.39217 20.0294 4.59494 20.2637 4.85268C20.4971 5.11222 20.6783 5.41862 20.8089 5.77278C20.9369 6.12334 21.0009 6.51716 21 6.94883V7.19845C21 7.62471 20.9369 8.01582 20.8098 8.36458C20.6855 8.71875 20.5007 9.02875 20.2628 9.28469C20.0258 9.54333 19.7365 9.74519 19.4094 9.88578C19.0841 10.0219 18.7218 10.093 18.3289 10.093H16.4616V4.03711H18.3397ZM12.5505 4.03711V6.28646H14.1681V4.03711H15.7641V10.0921H14.1681V7.71393H12.5505V10.0921H10.959V4.03711H12.5505ZM18.337 5.46728H18.054V8.66918H18.3289C18.6785 8.66918 18.9345 8.55653 19.1102 8.32132C19.2995 8.0726 19.3932 7.6905 19.3932 7.19485V6.93531C19.3932 6.42884 19.2977 6.04945 19.1111 5.80523C18.939 5.57813 18.684 5.46728 18.337 5.46728Z" fill="white"/>
</svg>
