<svg width="24" height="24" viewBox="0 0 24 24" fill="none" xmlns="http://www.w3.org/2000/svg">
<path fill-rule="evenodd" clip-rule="evenodd" d="M19.7559 17.6885V10.9865C19.7559 10.4365 19.4079 9.70155 18.9819 9.35355L12.7749 4.07155C12.3489 3.72355 11.6519 3.72355 11.2269 4.07155L5.0189 9.35355C4.5929 9.70155 4.2439 10.4365 4.2439 10.9865V13.2725H10.7949L9.4059 11.9385C9.1079 11.6515 9.0979 11.1775 9.3839 10.8785C9.6709 10.5795 10.1469 10.5695 10.4439 10.8565L12.8749 13.1905C13.1009 13.4065 13.2309 13.7095 13.2309 14.0225C13.2309 14.3345 13.1009 14.6385 12.8749 14.8555L10.4439 17.1885C10.2989 17.3285 10.1119 17.3975 9.9249 17.3975C9.7289 17.3975 9.5309 17.3205 9.3839 17.1675C9.0979 16.8685 9.1079 16.3935 9.4059 16.1065L10.7949 14.7725H4.2439V17.6885C4.2439 19.0635 5.3689 20.1885 6.7439 20.1885H17.2559C18.6309 20.1885 19.7559 19.0635 19.7559 17.6885Z" fill="white"/>
</svg>
