<svg width="24" height="24" viewBox="0 0 24 24" fill="none" xmlns="http://www.w3.org/2000/svg">
<path fill-rule="evenodd" clip-rule="evenodd" d="M20.2139 18.399V16.675V14.198V11.714C20.2139 7.185 16.5289 3.5 11.9999 3.5C7.47089 3.5 3.78589 7.185 3.78589 11.714V14.198V16.675V18.399C3.78589 19.558 4.72789 20.5 5.88589 20.5H6.16889C7.32689 20.5 8.26889 19.558 8.26889 18.399V14.198C8.26889 13.04 7.32689 12.097 6.16889 12.097H5.88589C5.67689 12.097 5.47589 12.129 5.28589 12.186V11.714C5.28589 8.012 8.29689 5 11.9999 5C15.7019 5 18.7139 8.012 18.7139 11.714V12.186C18.5239 12.129 18.3219 12.097 18.1129 12.097H17.8309C16.6729 12.097 15.7309 13.04 15.7309 14.198V18.399C15.7309 19.558 16.6729 20.5 17.8309 20.5H18.1129C19.2719 20.5 20.2139 19.558 20.2139 18.399Z" fill="white"/>
</svg>
