<svg width="24" height="24" viewBox="0 0 24 24" fill="none" xmlns="http://www.w3.org/2000/svg">
<path fill-rule="evenodd" clip-rule="evenodd" d="M10.1254 10.3334L11.8054 14.8044C11.8114 14.8224 11.8194 14.8394 11.8274 14.8574C11.9884 15.2054 12.3274 15.4264 12.7124 15.4354H12.7344C13.1094 15.4354 13.4474 15.2314 13.6214 14.8974L15.0234 12.1994H19.9894C19.9714 12.2334 19.9534 12.2684 19.9334 12.3024C19.9334 12.3024 19.6424 12.7424 19.5384 12.8874C18.4084 14.4674 15.1964 17.3054 13.3504 18.8774C12.5724 19.5414 11.4284 19.5414 10.6494 18.8774C8.8164 17.3164 5.6394 14.5084 4.4884 12.9214H8.5004C8.7984 12.9214 9.0674 12.7464 9.1864 12.4724L10.1254 10.3334ZM15.8855 4.625C18.5105 4.625 20.6355 6.882 20.6355 9.665C20.6355 10.019 20.6005 10.365 20.5355 10.699H14.5685C14.2885 10.699 14.0315 10.855 13.9025 11.103L12.8075 13.209L11.0905 8.636C11.0835 8.618 11.0755 8.601 11.0675 8.584C10.9025 8.228 10.5395 7.991 10.1505 8.005C9.7585 8.009 9.4025 8.244 9.2455 8.603L8.0105 11.422H3.6625C3.4695 10.875 3.3645 10.283 3.3645 9.665C3.3645 6.882 5.4905 4.625 8.1135 4.625C9.7205 4.625 11.1395 5.473 12.0005 6.769C12.8595 5.473 14.2795 4.625 15.8855 4.625Z" fill="white"/>
</svg>
