<svg width="24" height="24" viewBox="0 0 24 24" fill="none" xmlns="http://www.w3.org/2000/svg">
<path d="M4.3926 12.0758H8.5186L10.2026 8.66079L12.7416 14.5878L14.5636 11.3348H19.9906M20.25 9.71439C20.25 10.6374 20.003 11.4994 19.577 12.2324C19.577 12.2324 19.3 12.6524 19.2 12.7924C18.43 13.8694 15.675 16.5304 13.52 18.5114C12.659 19.3014 11.337 19.3014 10.477 18.5104C8.323 16.5294 5.568 13.8694 4.798 12.7924C4.7 12.6524 4.42 12.2324 4.42 12.2324C3.995 11.4994 3.75 10.6374 3.75 9.71439C3.75 7.05439 5.78 4.90039 8.285 4.90039C9.808 4.90039 11.175 5.71739 12 6.93739C12.822 5.71739 14.19 4.90039 15.713 4.90039C18.218 4.90039 20.25 7.05439 20.25 9.71439Z" stroke="white" stroke-width="1.3" stroke-linecap="round" stroke-linejoin="round"/>
<path d="M4.3926 12.0758H8.5186L10.2026 8.66079L12.7416 14.5878L14.5636 11.3348H19.9906M20.25 9.71439C20.25 10.6374 20.003 11.4994 19.577 12.2324C19.577 12.2324 19.3 12.6524 19.2 12.7924C18.43 13.8694 15.675 16.5304 13.52 18.5114C12.659 19.3014 11.337 19.3014 10.477 18.5104C8.323 16.5294 5.568 13.8694 4.798 12.7924C4.7 12.6524 4.42 12.2324 4.42 12.2324C3.995 11.4994 3.75 10.6374 3.75 9.71439C3.75 7.05439 5.78 4.90039 8.285 4.90039C9.808 4.90039 11.175 5.71739 12 6.93739C12.822 5.71739 14.19 4.90039 15.713 4.90039C18.218 4.90039 20.25 7.05439 20.25 9.71439Z" stroke="white" stroke-width="1.3" stroke-linecap="round" stroke-linejoin="round"/>
</svg>
