<svg width="24" height="24" viewBox="0 0 24 24" fill="none" xmlns="http://www.w3.org/2000/svg">
<path d="M3.40909 6.85084C4.82899 3.77944 8.30009 2.47554 11.123 3.69844L11.3283 3.79224C14.7773 5.44874 16.1103 10.1652 13.9983 14.0056C13.39 15.1129 12.6464 15.905 11.4326 16.8994L10.5511 17.6135L10.2051 17.9049C9.94229 18.1322 9.73729 18.3269 9.54529 18.5323L9.35499 18.7326C7.34049 20.8226 5.81119 21.4053 3.96179 20.0743C3.36509 19.6449 2.79699 18.8525 2.76389 17.9416L2.75289 16.8233L2.75049 14.2581L2.75589 12.9348L2.76969 11.4884L2.79189 10.31L2.81579 9.58704L2.83759 9.18634L2.85249 9.00604L2.86039 8.93464C2.93709 8.30754 3.07609 7.73674 3.25779 7.21584L3.40909 6.85084ZM10.5268 5.07484C8.44789 4.17424 5.84749 5.15114 4.78369 7.45054L4.66149 7.74334C4.52639 8.13264 4.41239 8.60104 4.34919 9.11814C4.34689 9.13644 4.34469 9.15694 4.34249 9.17974L4.32369 9.44414L4.30189 9.97064L4.27269 11.3127L4.25359 13.3805L4.25189 16.62L4.26389 17.9216L4.27779 18.0278C4.33459 18.2993 4.54519 18.604 4.75069 18.7865L4.83799 18.8568C5.84879 19.5843 6.67139 19.3189 8.10739 17.8643L8.58819 17.3629C8.77469 17.1724 8.97229 16.9883 9.20649 16.7852L9.58849 16.4631L10.0922 16.0547L10.7424 15.5224C11.6639 14.7428 12.2274 14.1138 12.6837 13.2831C14.425 10.117 13.2882 6.27504 10.5268 5.07484ZM17.6146 15.0818L17.7116 15.1301L17.8027 15.1936L19.1247 16.2666C19.4464 16.5277 19.4955 17 19.2344 17.3216C18.9971 17.614 18.5852 17.6811 18.2706 17.4948L18.1795 17.4313L16.8575 16.3583C16.5358 16.0973 16.4867 15.6249 16.7478 15.3033C16.9613 15.0402 17.3164 14.9595 17.6146 15.0818ZM8.92549 6.22284C10.7828 6.22284 12.2885 7.72764 12.2885 9.58484C12.2885 9.99904 11.9527 10.3348 11.5385 10.3348C11.1243 10.3348 10.7885 9.99904 10.7885 9.58484C10.7885 8.55634 9.95459 7.72284 8.92549 7.72284C8.24469 7.72284 7.64929 8.08764 7.32429 8.63234C8.99729 9.07944 10.2205 10.6051 10.2205 12.4065C10.2205 14.5647 8.47069 16.3145 6.31249 16.3145C5.89829 16.3145 5.56249 15.9787 5.56249 15.5645C5.56249 15.1502 5.89829 14.8145 6.31249 14.8145C7.64229 14.8145 8.72049 13.7362 8.72049 12.4065C8.72049 11.3429 8.02759 10.4348 7.06339 10.1187L7.06249 11.6768C7.06249 12.091 6.72669 12.4268 6.31249 12.4268C5.93279 12.4268 5.61899 12.1446 5.56929 11.7785L5.56249 11.6768V9.58484C5.56249 7.72764 7.06819 6.22284 8.92549 6.22284ZM20.2505 10.7496C20.6647 10.7496 21.0005 11.0853 21.0005 11.4996C21.0005 11.8793 20.7183 12.193 20.3523 12.2427L20.2505 12.2496H18.4825C18.0683 12.2496 17.7325 11.9138 17.7325 11.4996C17.7325 11.1199 18.0147 10.8061 18.3807 10.7564L18.4825 10.7496H20.2505ZM19.2347 5.67834C19.472 5.97074 19.453 6.38764 19.206 6.65714L19.125 6.73334L17.803 7.80634C17.4814 8.06734 17.0091 8.01824 16.7481 7.69664C16.5108 7.40424 16.5298 6.98734 16.7768 6.71784L16.8578 6.64164L18.1798 5.56864C18.5014 5.30764 18.9737 5.35674 19.2347 5.67834Z" fill="white"/>
</svg>
