<svg width="24" height="24" viewBox="0 0 24 24" fill="none" xmlns="http://www.w3.org/2000/svg">
<path fill-rule="evenodd" clip-rule="evenodd" d="M10.6505 18.8781C11.4275 19.5401 12.5725 19.5401 13.3505 18.8781C15.1965 17.3051 18.4085 14.467 19.5385 12.887C19.6415 12.7411 19.9345 12.302 19.9345 12.302C20.3795 11.535 20.6355 10.632 20.6355 9.6641C20.6355 6.881 18.5095 4.625 15.8855 4.625C14.2795 4.625 12.8595 5.472 12.0005 6.769C11.1405 5.472 9.7205 4.625 8.1135 4.625C5.4905 4.625 3.3645 6.881 3.3645 9.6641C3.3645 10.632 3.6225 11.535 4.0665 12.302C4.0665 12.302 4.3585 12.7411 4.4625 12.887C5.5915 14.467 8.8035 17.3051 10.6505 18.8781Z" fill="white"/>
</svg>
