<svg width="24" height="24" viewBox="0 0 24 24" fill="none" xmlns="http://www.w3.org/2000/svg">
<path fill-rule="evenodd" clip-rule="evenodd" d="M3.28217 7.17429C4.59817 4.32829 7.71317 3.40629 10.0052 4.40029C13.0532 5.72429 14.5342 9.97529 12.5172 13.6413C11.3652 15.7373 9.48317 16.6163 8.18117 18.0083C6.68917 19.6023 5.30517 20.6853 3.59117 19.4523C3.37717 19.2983 2.73517 18.6893 2.70717 17.9313C2.70717 17.9123 2.70817 17.8993 2.70817 17.8873C2.70177 17.7148 2.69567 16.9894 2.69337 16.0198L2.69287 14.5753C2.69657 12.3196 2.72187 9.64849 2.79717 9.03129C2.87917 8.36129 3.03417 7.82529 3.14517 7.50529V7.47229C3.16417 7.42829 3.18617 7.38829 3.20417 7.34429C3.22937 7.27949 3.24917 7.23199 3.26097 7.20439L3.27317 7.17629L3.28217 7.17429ZM17.3288 5.48939C17.6118 5.18539 18.0858 5.16839 18.3898 5.44939C20.2718 7.19639 21.3078 9.52239 21.3078 11.9994C21.3078 14.4774 20.2718 16.8034 18.3898 18.5494C18.2448 18.6834 18.0618 18.7494 17.8798 18.7494C17.6778 18.7494 17.4778 18.6684 17.3288 18.5094C17.0478 18.2054 17.0658 17.7314 17.3688 17.4494C18.9418 15.9904 19.8078 14.0554 19.8078 11.9994C19.8078 9.94439 18.9418 8.00839 17.3688 6.54939C17.0658 6.26739 17.0478 5.79339 17.3288 5.48939ZM15.1979 8.35879C15.4839 8.05779 15.9579 8.04479 16.2589 8.32979C17.2909 9.30779 17.8609 10.6108 17.8609 11.9988C17.8609 13.3878 17.2919 14.6908 16.2589 15.6688C16.1139 15.8068 15.9289 15.8738 15.7429 15.8738C15.5449 15.8738 15.3469 15.7958 15.1989 15.6398C14.9139 15.3398 14.9269 14.8648 15.2279 14.5798C15.9579 13.8878 16.3609 12.9718 16.3609 11.9988C16.3609 11.0268 15.9579 10.1108 15.2279 9.41879C14.9269 9.13379 14.9139 8.65979 15.1979 8.35879ZM8.14217 6.25729C7.24717 6.24729 6.39517 6.59029 5.75317 7.21929C5.11117 7.84929 4.75317 8.69029 4.74417 9.58929L4.72317 11.6623C4.71917 12.0763 5.05117 12.4153 5.46517 12.4203C5.88417 12.4203 6.21917 12.0893 6.22317 11.6773L6.23417 10.5323C6.66517 10.5773 7.06317 10.7683 7.37017 11.0813C7.72017 11.4373 7.90817 11.9073 7.90317 12.4063C7.89817 12.9043 7.70017 13.3713 7.34417 13.7193C6.98817 14.0683 6.52817 14.2523 6.01917 14.2523L5.44717 14.2473C5.02817 14.2473 4.69317 14.5773 4.68917 14.9893C4.68517 15.4033 5.01717 15.7423 5.43217 15.7473L6.00417 15.7523H6.03917C6.92517 15.7523 7.76017 15.4123 8.39317 14.7903C9.03617 14.1613 9.39417 13.3203 9.40317 12.4213C9.41217 11.5223 9.07117 10.6733 8.44117 10.0313C7.87517 9.45329 7.13617 9.10729 6.33817 9.03729C6.43017 8.75829 6.58717 8.50229 6.80417 8.29029C7.15917 7.94229 7.62617 7.75929 8.12817 7.75729C9.15617 7.76829 9.98417 8.61329 9.97417 9.64229C9.97117 10.0563 10.3032 10.3953 10.7172 10.3993C11.1222 10.4023 11.4712 10.0713 11.4742 9.65729C11.4932 7.80129 9.99817 6.27629 8.14217 6.25729Z" fill="white"/>
</svg>
