<svg width="24" height="24" viewBox="0 0 24 24" fill="none" xmlns="http://www.w3.org/2000/svg">
<path d="M3.51659 6.62935C4.99799 3.71735 8.36889 2.50535 11.123 3.69845L11.3283 3.79225C14.7773 5.44875 16.1103 10.1653 13.9983 14.0057C13.3896 15.1137 12.6456 15.906 11.4303 16.9012L10.3694 17.7644C10.0239 18.0551 9.77479 18.286 9.54439 18.5322L9.35429 18.7325C7.34109 20.8224 5.81129 21.4055 3.96179 20.0744C3.36509 19.645 2.79699 18.8526 2.76389 17.9417L2.75289 16.8234L2.75049 14.2582L2.75589 12.9349L2.76969 11.4885L2.79189 10.3101L2.81579 9.58705L2.83759 9.18635L2.85249 9.00605L2.86039 8.93465C2.93709 8.30755 3.07609 7.73675 3.24429 7.25185L3.21349 7.34315L3.23039 7.26335L3.26439 7.16725L3.41279 6.82675L3.43759 6.78195L3.45389 6.75865L3.51659 6.62935ZM10.5268 5.07485C8.44789 4.17425 5.84749 5.15115 4.77069 7.48035L4.73789 7.53865L4.67889 7.68065L4.66149 7.74335C4.55349 8.05485 4.45879 8.41685 4.39299 8.81395L4.34919 9.11815C4.34689 9.13645 4.34469 9.15695 4.34249 9.17975L4.32369 9.44415L4.30189 9.97065L4.27269 11.3128L4.25359 13.3806L4.25189 16.6201L4.26389 17.9217L4.27779 18.0279C4.33459 18.2994 4.54519 18.6041 4.75069 18.7866L4.83799 18.8569C5.80999 19.5564 6.60809 19.3379 7.94389 18.0268L8.27509 17.6911L8.58749 17.3628C8.77409 17.1724 8.97169 16.9883 9.20599 16.7852L9.58819 16.4631L10.7407 15.5239C11.6633 14.7436 12.2271 14.1144 12.6837 13.2832C14.425 10.1171 13.2882 6.27505 10.5268 5.07485ZM19.3195 5.43575C19.8073 5.85005 20.369 6.46335 20.905 7.32095C21.7496 8.67225 22.25 10.2376 22.25 12.0007C22.2495 13.7631 21.7491 15.3279 20.905 16.6786C20.3689 17.5364 19.8034 18.1537 19.3185 18.564C19.0023 18.8316 18.529 18.7921 18.2615 18.4759C17.9939 18.1597 18.0333 17.6865 18.3495 17.4189C18.7244 17.1017 19.1878 16.5959 19.633 15.8836C20.3355 14.7595 20.7496 13.4646 20.75 12.0005C20.75 10.5359 20.3359 9.24055 19.633 8.11595C19.1878 7.40355 18.7272 6.90065 18.3485 6.57905C18.0328 6.31095 17.9942 5.83765 18.2623 5.52195C18.5305 5.20615 19.0038 5.16765 19.3195 5.43575ZM8.92549 6.22285C10.7828 6.22285 12.2885 7.72765 12.2885 9.58485C12.2885 9.99905 11.9527 10.3349 11.5385 10.3349C11.1243 10.3349 10.7885 9.99905 10.7885 9.58485C10.7885 8.55635 9.95459 7.72285 8.92549 7.72285C8.24469 7.72285 7.64929 8.08765 7.32429 8.63235C8.99729 9.07945 10.2205 10.6052 10.2205 12.4066C10.2205 14.5648 8.47069 16.3146 6.31249 16.3146C5.89829 16.3146 5.56249 15.9788 5.56249 15.5646C5.56249 15.1503 5.89829 14.8146 6.31249 14.8146C7.64229 14.8146 8.72049 13.7363 8.72049 12.4066C8.72049 11.343 8.02759 10.4349 7.06339 10.1188L7.06249 11.6769C7.06249 12.0911 6.72669 12.4269 6.31249 12.4269C5.93279 12.4269 5.61899 12.1447 5.56929 11.7786L5.56249 11.6769V9.58485C5.56249 7.72765 7.06819 6.22285 8.92549 6.22285ZM17.1639 8.29535C17.4275 8.51585 17.7432 8.86125 18.0403 9.34165C18.5103 10.1016 18.7897 10.9916 18.7897 11.9998C18.7897 13.008 18.5103 13.8979 18.0403 14.6578C17.7432 15.1382 17.4275 15.4836 17.1639 15.7041C16.8461 15.9698 16.3731 15.9277 16.1074 15.6099C15.8417 15.2922 15.8838 14.8192 16.2015 14.5535C16.7567 14.0891 17.2897 13.2274 17.2897 11.9998C17.2897 10.7721 16.7567 9.91035 16.2015 9.44605C15.8838 9.18025 15.8417 8.70725 16.1074 8.38955C16.3731 8.07185 16.8461 8.02965 17.1639 8.29535Z" fill="white"/>
</svg>
