<svg width="24" height="24" viewBox="0 0 24 24" fill="none" xmlns="http://www.w3.org/2000/svg">
<path d="M6.42479 6.84519C7.87419 3.77739 11.4055 2.47879 14.2757 3.69609L14.4852 3.78989C18.0043 5.44459 19.3681 10.1675 17.2068 14.0119C16.5852 15.1185 15.8263 15.91 14.5886 16.9031L13.687 17.6184L13.3334 17.91C13.0647 18.1376 12.8551 18.3325 12.6586 18.5382L12.4647 18.738C10.4116 20.8224 8.86329 21.3998 6.98619 20.0781C6.37729 19.648 5.79809 18.8567 5.76489 17.9416L5.75669 17.3378L5.75049 14.2628L5.76179 12.2322L5.78669 10.5855L5.81319 9.69749L5.83959 9.18689L5.86269 8.93239C5.94149 8.30279 6.08449 7.72829 6.26999 7.21039L6.42479 6.84519ZM13.4937 4.99949C11.3934 4.23169 8.85019 5.22289 7.79319 7.45869L7.66939 7.74929C7.53249 8.13349 7.41569 8.60299 7.35119 9.11809L7.33789 9.25599L7.32549 9.44739L7.30329 9.97949L7.27329 11.3305L7.25359 13.3939L7.25189 16.6265L7.26489 17.9176L7.27899 18.0264C7.33659 18.295 7.55129 18.5989 7.76139 18.7818L7.85069 18.8523C8.97769 19.6459 9.87859 19.2729 11.5745 17.5016L11.7155 17.3573C11.9534 17.1193 12.209 16.8914 12.5331 16.6239L12.9583 16.2806L13.4353 15.9037L13.9157 15.5165C14.8566 14.7369 15.4327 14.1073 15.8991 13.277C17.6765 10.1156 16.5169 6.27969 13.6893 5.07669L13.4937 4.99949ZM12.0424 6.22279C13.9272 6.22279 15.4614 7.72399 15.4614 9.58479C15.4614 9.99899 15.1256 10.3348 14.7114 10.3348C14.2972 10.3348 13.9614 9.99899 13.9614 9.58479C13.9614 8.55979 13.106 7.72279 12.0424 7.72279C11.3404 7.72279 10.7291 8.08739 10.3945 8.63009C12.0992 9.07409 13.3494 10.5995 13.3494 12.4065C13.3494 14.5681 11.5653 16.3145 9.37339 16.3145C8.95919 16.3145 8.62339 15.9787 8.62339 15.5645C8.62339 15.1502 8.95919 14.8145 9.37339 14.8145C10.7439 14.8145 11.8494 13.7324 11.8494 12.4065C11.8494 11.3371 11.1281 10.4213 10.1232 10.1115L10.1234 11.6768C10.1234 12.091 9.78759 12.4268 9.37339 12.4268C8.99369 12.4268 8.67989 12.1446 8.63019 11.7785L8.62339 11.6768V9.58479C8.62339 7.72399 10.1576 6.22279 12.0424 6.22279Z" fill="white"/>
</svg>
