<svg width="24" height="24" viewBox="0 0 24 24" fill="none" xmlns="http://www.w3.org/2000/svg">
<path fill-rule="evenodd" clip-rule="evenodd" d="M17.076 21C16.483 21 15.979 20.567 15.877 19.97L15.051 14.862C15.026 14.712 14.899 14.7 14.86 14.7C14.822 14.7 14.695 14.712 14.669 14.862L13.844 19.97C13.742 20.567 13.238 21 12.645 21C12.597 21 12.547 20.997 12.498 20.99C12.178 20.951 11.893 20.782 11.692 20.513C11.485 20.233 11.396 19.874 11.449 19.525L12.794 11.029L11.725 14.217C11.557 14.604 11.18 14.854 10.766 14.854C10.673 14.854 10.578 14.842 10.486 14.815C10.192 14.734 9.95702 14.537 9.82602 14.257C9.69002 13.967 9.68602 13.627 9.81502 13.324L11.209 9.377C11.294 9.15 11.516 8.698 12.003 8.371C12.424 8.091 12.844 8.029 13.124 8.029H16.596C16.876 8.029 17.297 8.091 17.718 8.371C18.205 8.698 18.427 9.15 18.517 9.389L19.906 13.324C20.035 13.627 20.031 13.967 19.895 14.257C19.764 14.537 19.529 14.734 19.235 14.815C19.143 14.842 19.049 14.854 18.954 14.854C18.54 14.854 18.164 14.604 17.995 14.217L16.927 11.029L18.272 19.525C18.325 19.874 18.236 20.233 18.028 20.513C17.828 20.782 17.543 20.951 17.223 20.99C17.174 20.997 17.124 21 17.076 21ZM16.799 4.985C16.799 6.081 15.932 6.971 14.864 6.971C13.795 6.971 12.928 6.081 12.928 4.985C12.928 3.888 13.795 3 14.864 3C15.932 3 16.799 3.888 16.799 4.985Z" fill="white"/>
<path d="M4 3.79395H7.613M5.806 3.79395V20.2059M4 20.2059H7.613" stroke="white" stroke-width="1.5" stroke-linecap="round" stroke-linejoin="round"/>
</svg>
