<svg width="24" height="24" viewBox="0 0 24 24" fill="none" xmlns="http://www.w3.org/2000/svg">
<path d="M9.29998 8.79961C9.59998 7.49961 10.7 6.49961 12.1 6.49961C13.7 6.49961 14.9 7.79961 14.9 9.29961C14.9 9.79961 14.6 10.9996 13.4 11.7996C12.8 12.1996 12.7 12.5996 12.7 12.8996C12.7 13.2996 12.4 13.6996 12 13.6996C11.6 13.6996 11.3 13.3996 11.3 12.9996C11.3 11.9996 11.7 11.1996 12.6 10.5996C13.4 9.99961 13.4 9.39961 13.4 9.29961C13.4 8.59961 12.8 7.99961 12.1 7.99961C11.5 7.99961 10.9 8.49961 10.8 9.09961C10.7 9.49961 10.3 9.79961 9.89998 9.69961C9.49998 9.59961 9.19998 9.19961 9.29998 8.79961ZM12 16.7996C11.4 16.7996 11 16.3996 11 15.7996C11 15.1996 11.4 14.7996 12 14.7996C12.6 14.7996 13 15.1996 13 15.7996C13 16.3996 12.6 16.7996 12 16.7996ZM12 20.3996C16.6 20.3996 20.4 16.6996 20.4 11.9996C20.4 7.39961 16.7 3.59961 12 3.59961C7.39998 3.59961 3.59998 7.29961 3.59998 11.9996C3.59998 16.5996 7.39998 20.3996 12 20.3996Z" fill="white"/>
</svg>
