<svg width="24" height="24" viewBox="0 0 24 24" fill="none" xmlns="http://www.w3.org/2000/svg">
<path d="M11.8105 15.1191C11.2585 15.1191 10.8105 15.5671 10.8105 16.1191C10.8105 16.6711 11.2585 17.1191 11.8105 17.1191C12.3615 17.1191 12.8105 16.6711 12.8105 16.1191C12.8105 15.5671 12.3615 15.1191 11.8105 15.1191Z" fill="white"/>
<path d="M9.79395 9.24711C9.97695 8.27311 10.8309 7.53711 11.8569 7.53711C13.0169 7.53711 13.9569 8.47711 13.9569 9.63711C13.9569 9.63711 13.9769 10.7071 12.8059 11.5151C11.9399 12.1111 11.7839 12.7671 11.7969 13.2871" stroke="white" stroke-width="1.5" stroke-linecap="round" stroke-linejoin="round"/>
<path fill-rule="evenodd" clip-rule="evenodd" d="M20.25 12.1758C20.25 16.8008 16.5 20.5498 11.875 20.5498C7.25 20.5498 3.5 16.8008 3.5 12.1758C3.5 7.5508 7.25 3.7998 11.875 3.7998C16.5 3.7998 20.25 7.5508 20.25 12.1758Z" stroke="white" stroke-width="1.5" stroke-linecap="round" stroke-linejoin="round"/>
</svg>
