<svg width="24" height="24" viewBox="0 0 24 24" fill="none" xmlns="http://www.w3.org/2000/svg">
<path d="M12.1252 3C7.08574 3 3.00024 7.0851 3.00024 12.125C3.00024 17.1642 7.08604 21.25 12.1252 21.25C17.1644 21.25 21.2502 17.1642 21.2502 12.125C21.2502 7.0851 17.1647 3 12.1252 3ZM12.1252 4.5C16.3363 4.5 19.7502 7.9136 19.7502 12.125C19.7502 16.3358 16.336 19.75 12.1252 19.75C7.91444 19.75 4.50024 16.3358 4.50024 12.125C4.50024 7.9136 7.91414 4.5 12.1252 4.5Z" fill="white"/>
<path d="M12.4936 16.25C12.9078 16.25 13.2436 16.5858 13.2436 17C13.2436 17.3797 12.9614 17.6935 12.5954 17.7432L12.4936 17.75H5.96558C5.55138 17.75 5.21558 17.4142 5.21558 17C5.21558 16.6203 5.49778 16.3065 5.86378 16.2568L5.96558 16.25H12.4936ZM12.4936 13C12.9078 13 13.2436 13.3358 13.2436 13.75C13.2436 14.1297 12.9614 14.4435 12.5954 14.4932L12.4936 14.5H4.21558C3.80138 14.5 3.46558 14.1642 3.46558 13.75C3.46558 13.3703 3.74778 13.0565 4.11378 13.0068L4.21558 13H12.4936ZM12.4936 9.75C12.9078 9.75 13.2436 10.0858 13.2436 10.5C13.2436 10.8797 12.9614 11.1935 12.5954 11.2432L12.4936 11.25H4.21558C3.80138 11.25 3.46558 10.9142 3.46558 10.5C3.46558 10.1203 3.74778 9.8065 4.11378 9.7568L4.21558 9.75H12.4936ZM12.4936 6.5C12.9078 6.5 13.2436 6.8358 13.2436 7.25C13.2436 7.6297 12.9614 7.9435 12.5954 7.9932L12.4936 8H5.96558C5.55138 8 5.21558 7.6642 5.21558 7.25C5.21558 6.8703 5.49778 6.5565 5.86378 6.5068L5.96558 6.5H12.4936Z" fill="white"/>
<path d="M12.1252 3.75C16.7502 3.75 20.5002 7.499 20.5002 12.125C20.5002 16.75 16.7502 20.5 12.1252 20.5V3.75Z" fill="white"/>
</svg>
