<svg width="24" height="24" viewBox="0 0 24 24" fill="none" xmlns="http://www.w3.org/2000/svg">
<path fill-rule="evenodd" clip-rule="evenodd" d="M13.2672 4.65575L18.8742 9.33175C19.6142 9.94875 20.0422 10.8637 20.0422 11.8267V17.4707C20.0422 18.8517 18.9232 19.9707 17.5422 19.9707L15.0182 19.97L15.0187 13.89C15.0187 13.1107 14.4234 12.4696 13.6631 12.3969L13.5187 12.39H10.7727C9.94474 12.39 9.27274 13.062 9.27274 13.89V19.77L14.9892 19.97L6.75024 19.9707C5.36924 19.9707 4.25024 18.8517 4.25024 17.4707V11.8267C4.25024 10.8637 4.67824 9.94875 5.41824 9.33175L11.0252 4.65575C11.6742 4.11475 12.6172 4.11475 13.2672 4.65575Z" stroke="white" stroke-width="1.5" stroke-linecap="round" stroke-linejoin="round"/>
</svg>
