<?xml version="1.0" encoding="UTF-8"?>
<svg xmlns="http://www.w3.org/2000/svg" width="28.0" height="28.0" viewBox="0 0 28.0 28.0">
  <path d="M14,14m-14,0a14,14 0,1 1,28 0a14,14 0,1 1,-28 0" fill="#7700e6" fill-opacity="1.000" />
  <path d="M10.475,9.312V18.688C10.475,19.205 10.89,19.625 11.402,19.625C11.582,19.625 11.757,19.572 11.908,19.474L19.052,14.786C19.482,14.504 19.604,13.923 19.325,13.49C19.254,13.38 19.161,13.286 19.052,13.215L11.908,8.526C11.478,8.244 10.904,8.368 10.625,8.801C10.527,8.953 10.475,9.131 10.475,9.312Z" fill="#fcfcff" fill-opacity="1.000" fill-rule="evenodd" />
</svg>