<?xml version="1.0" encoding="UTF-8"?>
<svg xmlns="http://www.w3.org/2000/svg" width="24.0" height="24.0" viewBox="0 0 24.0 24.0">
  <path d="M5.5,5.5m-4,0a4,4 0,1 1,8 0a4,4 0,1 1,-8 0" fill="@color/ksh_key_item_color" />
  <path d="M5.5,16.5m-4,0a4,4 0,1 1,8 0a4,4 0,1 1,-8 0" fill="@color/ksh_key_item_color" />
  <path d="M16.5,5.5m-4,0a4,4 0,1 1,8 0a4,4 0,1 1,-8 0" fill="@color/ksh_key_item_color" />
  <path d="M18.5,16.5C18.5,15.4 17.6,14.5 16.5,14.5C15.4,14.5 14.5,15.4 14.5,16.5C14.5,17.6 15.4,18.5 16.5,18.5C17.6,18.5 18.5,17.6 18.5,16.5ZM12.5,16.5C12.5,14.29 14.29,12.5 16.5,12.5C18.71,12.5 20.5,14.29 20.5,16.5C20.5,17.241 20.299,17.934 19.948,18.529L23,21.59L21.59,23L18.529,19.948C17.934,20.299 17.241,20.5 16.5,20.5C14.29,20.5 12.5,18.71 12.5,16.5Z" fill="@color/ksh_key_item_color" fill-rule="evenodd" />
</svg>