<?xml version="1.0" encoding="UTF-8"?>
<svg xmlns="http://www.w3.org/2000/svg" width="36.0" height="36.0" viewBox="0 0 36.0 36.0">
  <path d="M25.5,29.25L10.5,29.25C8.438,29.25 6.75,27.563 6.75,25.5L6.75,10.5C6.75,8.438 8.438,6.75 10.5,6.75L25.5,6.75C27.563,6.75 29.25,8.438 29.25,10.5L29.25,25.5C29.25,27.563 27.563,29.25 25.5,29.25Z" fill="#000000" fill-opacity="0.000" stroke="#000000" stroke-opacity="1.000" stroke-width="2.25" stroke-linecap="round" stroke-linejoin="round" fill-rule="evenodd" />
  <path d="M16.125,18.11L11.625,18.11C10.797,18.11 10.125,17.438 10.125,16.61L10.125,13.61C10.125,12.782 10.797,12.11 11.625,12.11L16.125,12.11C16.955,12.11 17.625,12.782 17.625,13.61L17.625,16.61C17.625,17.438 16.955,18.11 16.125,18.11" fill="#000000" fill-opacity="1.000" stroke="#000000" stroke-opacity="0.000" stroke-width="1.0" fill-rule="nonzero" />
</svg>