<?xml version="1.0" encoding="UTF-8"?>
<svg xmlns="http://www.w3.org/2000/svg" width="36.0" height="36.0" viewBox="0 0 36.0 36.0">
  <path d="M25.5,29.25L10.5,29.25C8.438,29.25 6.75,27.563 6.75,25.5L6.75,10.5C6.75,8.438 8.438,6.75 10.5,6.75L25.5,6.75C27.563,6.75 29.25,8.438 29.25,10.5L29.25,25.5C29.25,27.563 27.563,29.25 25.5,29.25Z" fill="#000000" fill-opacity="0.000" stroke="#000000" stroke-opacity="1.000" stroke-width="2.25" stroke-linecap="round" stroke-linejoin="round" fill-rule="evenodd" />
  <path d="M19.875,21.11L11.625,21.11C10.797,21.11 10.125,20.438 10.125,19.61L10.125,13.609C10.125,12.781 10.797,12.109 11.625,12.109L19.875,12.109C20.703,12.109 21.375,12.781 21.375,13.609L21.375,19.61C21.375,20.438 20.703,21.11 19.875,21.11" fill="#000000" fill-opacity="1.000" stroke="#000000" stroke-opacity="0.000" stroke-width="1.0" fill-rule="nonzero" />
</svg>