<svg width="24" height="24" viewBox="0 0 24 24" fill="none" xmlns="http://www.w3.org/2000/svg">
<path d="M14.9747 6.92434C16.1483 6.92434 17.0723 7.84768 17.0723 9.02201V18.251C17.0723 19.4257 16.1487 20.3477 14.9747 20.3477H5.74565C4.57165 20.3477 3.64832 19.4257 3.64832 18.251V9.02201C3.64832 7.84768 4.57165 6.92434 5.74565 6.92434H14.9747ZM13.9677 12.965C13.7997 12.7983 13.3807 12.5463 12.9606 12.965L10.0236 15.819C9.85632 15.987 9.60432 15.987 9.43665 15.819L8.34598 14.8117C8.09398 14.5603 7.75865 14.4763 7.33898 14.8117L4.90565 16.9093V18.2517C4.90565 18.671 5.32532 19.091 5.74498 19.091H14.9743C15.3943 19.091 15.8133 18.671 15.8133 18.2517V14.8107L13.9677 12.965ZM18.254 3.65234C19.377 3.65234 20.2707 4.49668 20.3453 5.59801L20.3517 5.75001V14.9787C20.3517 15.9063 19.7753 16.6783 18.9533 16.961C19.03 16.7393 19.0723 16.5 19.0723 16.251V7.02201C19.0723 5.84768 18.1487 4.92434 16.9747 4.92434H7.74565C7.49898 4.92434 7.26365 4.96534 7.04532 5.04101C7.31332 4.27601 8.00565 3.72468 8.85398 3.65901L9.02532 3.65234H18.254ZM7.67532 9.94534C7.00432 9.94534 6.41732 10.5327 6.41732 11.2037C6.41732 11.8747 7.00465 12.462 7.67532 12.462C8.34698 12.462 8.93398 11.8747 8.93398 11.2037C8.93398 10.5327 8.43098 9.94534 7.67532 9.94534Z" fill="white"/>
</svg>
