<svg width="24" height="24" viewBox="0 0 24 24" fill="none" xmlns="http://www.w3.org/2000/svg">
<path d="M7.91382 10.6341C8.55144 10.6343 9.06658 11.1496 9.06686 11.7861C9.06686 12.4228 8.55161 12.9401 7.91382 12.9402C7.2759 12.9402 6.75968 12.4229 6.75968 11.7861C6.75996 11.1495 7.27607 10.6341 7.91382 10.6341Z" fill="white"/>
<path fill-rule="evenodd" clip-rule="evenodd" d="M14.7512 6.99466C16.4517 6.99466 17.8289 8.37351 17.8289 10.0724V18.7459C17.8287 20.4459 16.4513 21.8236 14.7512 21.8236H6.07769C4.37897 21.8236 3.0002 20.4462 3 18.7459V10.0724C3 8.37323 4.37857 6.99466 6.07769 6.99466H14.7512ZM11.0615 17.0365L11.0593 17.0376C10.5478 17.536 9.74262 17.5693 9.19364 17.1305L9.08763 17.0365L8.13787 16.1086L4.78257 19.2716C4.99066 19.7833 5.4916 20.1448 6.07769 20.1448H14.7512C15.5242 20.1448 16.1499 19.5188 16.1501 18.7459V17.0748L16.1097 17.1152L13.5992 14.5479L11.0615 17.0365ZM6.07769 8.67341C5.30571 8.67341 4.67874 9.30038 4.67874 10.0724V17.0627L7.16625 14.7184L7.16735 14.7173L7.27445 14.6266C7.82618 14.2027 8.62668 14.2369 9.13572 14.7359L10.0735 15.6529L12.6244 13.1533C13.1421 12.6463 13.9554 12.6241 14.4987 13.0768L14.6037 13.173L16.1501 14.7556V10.0724C16.1501 9.3001 15.524 8.67341 14.7512 8.67341H6.07769Z" fill="white"/>
<path d="M16.454 3C19.3895 3.00029 21.77 5.3804 21.77 8.31602V15.5971H20.0913V8.31602C20.0913 6.30754 18.4624 4.67904 16.454 4.67874H9.10621V3H16.454Z" fill="white"/>
</svg>
