<svg width="24" height="24" viewBox="0 0 24 24" fill="none" xmlns="http://www.w3.org/2000/svg">
<path d="M13.368 20H6.5C5.12 20 4 18.881 4 17.5V6.5C4 5.12 5.12 4 6.5 4H17.5C18.881 4 20 5.12 20 6.5V9.585M4.1079 17.916L8.4619 13.811C8.8529 13.442 9.4639 13.448 9.8479 13.823L10.8139 14.769M21.5004 19.5327L19.2134 17.2457M8.7425 10.5844C9.7075 10.5844 10.4925 9.7994 10.4925 8.8344C10.4925 7.8694 9.7075 7.0844 8.7425 7.0844C7.7775 7.0844 6.9925 7.8694 6.9925 8.8344C6.9925 9.7994 7.7775 10.5844 8.7425 10.5844ZM20.1474 14.9921C20.1474 16.7531 18.7204 18.1801 16.9594 18.1801C15.1994 18.1801 13.7724 16.7531 13.7724 14.9921C13.7724 13.2321 15.1994 11.8041 16.9594 11.8041C18.7204 11.8041 20.1474 13.2321 20.1474 14.9921Z" stroke="white" stroke-width="1.5" stroke-linecap="round" stroke-linejoin="round"/>
</svg>
