<svg width="24" height="24" viewBox="0 0 24 24" fill="none" xmlns="http://www.w3.org/2000/svg">
<path d="M4.17753 17.9941L8.53153 13.8881C8.92253 13.5201 9.53353 13.5261 9.91753 13.9011L11.2875 15.2421C11.4845 15.4341 11.8055 15.4341 12.0015 15.2421L15.3655 11.9451C15.7605 11.5581 16.3945 11.5651 16.7815 11.9601L19.9625 15.2151M17.5701 20.0781H6.57013C5.18913 20.0781 4.07013 18.9591 4.07013 17.5781V6.57812C4.07013 5.19712 5.18913 4.07812 6.57013 4.07812H17.5701C18.9511 4.07812 20.0701 5.19712 20.0701 6.57812V17.5781C20.0701 18.9591 18.9511 20.0781 17.5701 20.0781ZM8.81233 10.6626C9.77733 10.6626 10.5623 9.87763 10.5623 8.91263C10.5623 7.94763 9.77733 7.16262 8.81233 7.16262C7.84733 7.16262 7.06233 7.94763 7.06233 8.91263C7.06233 9.87763 7.84733 10.6626 8.81233 10.6626Z" stroke="white" stroke-width="1.5" stroke-linecap="round" stroke-linejoin="round"/>
</svg>
