<svg width="24" height="24" viewBox="0 0 24 24" fill="none" xmlns="http://www.w3.org/2000/svg">
<path d="M20.0926 19.1882C20.5937 19.1882 20.9997 19.5924 21 20.0926C21 20.5929 20.5938 21 20.0926 21C19.5924 20.9997 19.1882 20.5927 19.1882 20.0926C19.1884 19.5926 19.5926 19.1884 20.0926 19.1882Z" fill="white"/>
<path d="M18.0197 3C19.5931 3 20.8695 4.27641 20.8695 5.84977V9.81942H19.3156V5.84977C19.3156 5.13459 18.7349 4.55387 18.0197 4.55387H5.84977C5.13459 4.55387 4.55387 5.13459 4.55387 5.84977V16.2382L7.86798 13.1153L8.15023 12.8968C8.84548 12.4621 9.76971 12.5454 10.3778 13.1396L11.6222 14.3566L14.9363 11.1123L16.0228 12.2231L12.5326 15.6434C12.0934 16.0738 11.4223 16.1283 10.9241 15.8073L10.7208 15.6464L9.29135 14.2504C9.21725 14.1781 9.10962 14.1582 9.01821 14.1927L8.93323 14.2473L4.59636 18.3323C4.73676 18.8962 5.24273 19.3156 5.84977 19.3156H16.2079V20.8695H5.84977C4.27641 20.8695 3 19.5931 3 18.0197V5.84977C3 4.27641 4.27641 3 5.84977 3H18.0197Z" fill="white"/>
<path d="M20.8695 17.1487H19.3156V13.5311H20.8695V17.1487Z" fill="white"/>
<path fill-rule="evenodd" clip-rule="evenodd" d="M8.69044 6.19575C10.1182 6.19657 11.2817 7.35675 11.2822 8.78452C11.2814 10.2121 10.118 11.3755 8.69044 11.3763C7.26266 11.3758 6.10249 10.2122 6.10167 8.78452C6.10222 7.35658 7.26249 6.1963 8.69044 6.19575ZM8.69044 7.74962C8.12067 7.75017 7.65609 8.21475 7.65554 8.78452C7.65636 9.35406 8.12084 9.82191 8.69044 9.82246C9.25981 9.82163 9.72755 9.3539 9.72838 8.78452C9.72783 8.21492 9.25998 7.75045 8.69044 7.74962Z" fill="white"/>
</svg>
