<svg width="24" height="24" viewBox="0 0 24 24" fill="none" xmlns="http://www.w3.org/2000/svg">
<path d="M13.3551 4.59439C13.7285 4.59439 14.0301 4.89679 14.0301 5.26939C14.0301 5.64199 13.7285 5.94439 13.3551 5.94439H7.16582C6.29722 5.94439 5.59072 6.65179 5.59072 7.51939V16.9379C5.59072 17.8064 6.29722 18.5129 7.16582 18.5129H17.0343C17.9028 18.5129 18.6092 17.8064 18.6092 16.9379V11.6603C18.6092 11.2877 18.9116 10.9853 19.2843 10.9853C19.6568 10.9853 19.9593 11.2877 19.9593 11.6603V16.9379C19.9593 18.5507 18.647 19.8629 17.0343 19.8629H7.16582C5.55292 19.8629 4.24072 18.5507 4.24072 16.9379V7.51939C4.24072 5.90659 5.55292 4.59439 7.16582 4.59439H13.3551ZM18.1045 4.33789C18.4771 4.33789 18.7795 4.64029 18.7795 5.01289C18.7795 5.03089 18.7795 6.05869 18.7786 6.07669C18.7489 10.1618 15.4171 13.4954 11.3518 13.4954H9.52392L11.1205 15.092C11.3842 15.3557 11.3842 15.7832 11.1205 16.0469C10.9891 16.1783 10.8172 16.2449 10.6435 16.2449C10.4716 16.2449 10.2979 16.1783 10.1665 16.0469L7.74192 13.6223C7.30092 13.1822 7.30092 12.4649 7.74102 12.0239L10.1602 9.59389C10.4239 9.33019 10.8505 9.32929 11.1151 9.59209C11.3797 9.85579 11.3806 10.2833 11.1169 10.547L9.52482 12.1454H11.3518C14.6782 12.1454 17.4043 9.41299 17.4286 6.05419C17.4287 6.04939 17.4288 6.03829 17.4288 6.02199L17.4295 5.01289C17.4295 4.64029 17.7319 4.33789 18.1045 4.33789Z" fill="white"/>
</svg>
