<svg width="24" height="24" viewBox="0 0 24 24" fill="none" xmlns="http://www.w3.org/2000/svg">
<path fill-rule="evenodd" clip-rule="evenodd" d="M19 12.75V6.75C19 5.7832 18.2168 5 17.25 5H6.75C5.7832 5 5 5.7832 5 6.75V12.75H9C9.4142 12.75 9.75 13.0858 9.75 13.5C9.75 14.7426 10.7574 15.75 12 15.75C13.1909 15.75 14.1656 14.8248 14.2448 13.654L14.25 13.5C14.25 13.1203 14.5322 12.8065 14.8982 12.7568L15 12.75H19ZM19 14.25H15.673L15.6689 14.2794C15.3235 15.9135 13.9138 17.1551 12.1992 17.2448L12 17.25C10.1962 17.25 8.6898 15.9764 8.3311 14.2794L8.326 14.25H5V17.25C5 18.2168 5.7832 19 6.75 19H17.25C18.2168 19 19 18.2168 19 17.25V14.25ZM17.25 3.5C19.0452 3.5 20.5 4.9548 20.5 6.75V17.25C20.5 19.0452 19.0452 20.5 17.25 20.5H6.75C4.9548 20.5 3.5 19.0452 3.5 17.25V6.75C3.5 4.9548 4.9548 3.5 6.75 3.5H17.25Z" fill="white"/>
</svg>
