<svg width="24" height="24" viewBox="0 0 24 24" fill="none" xmlns="http://www.w3.org/2000/svg">
<path d="M13.473 16.826C13.473 17.289 13.054 17.654 12.574 17.562C12.218 17.493 11.973 17.161 11.973 16.798V12.237H11.056C10.693 12.237 10.36 11.992 10.292 11.635C10.2 11.156 10.565 10.737 11.028 10.737H12.973C13.249 10.737 13.473 10.96 13.473 11.237V16.826ZM12.375 7.118C12.928 7.118 13.375 7.566 13.375 8.118C13.375 8.67 12.928 9.118 12.375 9.118C11.823 9.118 11.375 8.67 11.375 8.118C11.375 7.566 11.823 7.118 12.375 7.118ZM12.375 4C7.757 4 4 7.757 4 12.375C4 16.993 7.757 20.75 12.375 20.75C16.994 20.75 20.75 16.993 20.75 12.375C20.75 7.757 16.994 4 12.375 4Z" fill="white"/>
</svg>
