<svg width="24" height="24" viewBox="0 0 24 24" fill="none" xmlns="http://www.w3.org/2000/svg">
<path d="M17.176 12.8233C19.304 12.8233 21.029 14.5488 21.029 16.6763C21.029 17.4689 20.7898 18.2055 20.3797 18.8179L22.3547 20.7933C22.6476 21.0862 22.6477 21.5611 22.3549 21.854C22.0887 22.1203 21.672 22.1446 21.3784 21.9268L21.2942 21.8542L19.3186 19.8793C18.706 20.2898 17.969 20.5293 17.176 20.5293C15.0493 20.5293 13.324 18.804 13.324 16.6763C13.324 14.5493 15.0496 12.8233 17.176 12.8233ZM3.76681 10.5749C4.02121 6.46639 7.35901 3.12819 11.4679 2.87269C16.0118 2.59059 19.8957 6.01739 20.2134 10.5081C20.2628 11.1903 19.756 11.7764 19.0908 11.843L18.9643 11.8493H9.96321C10.0992 15.0791 11.0877 17.6899 11.9201 17.8349L11.9923 17.8413C12.4066 17.8413 12.7423 18.1771 12.7423 18.5913C12.7423 18.971 12.4602 19.2848 12.0941 19.3344L11.9923 19.3413C7.24401 19.3413 3.47121 15.3417 3.76681 10.5749ZM17.176 14.3233C15.8781 14.3233 14.824 15.3776 14.824 16.6763C14.824 17.9756 15.8778 19.0293 17.176 19.0293C18.4758 19.0293 19.529 17.9761 19.529 16.6763C19.529 15.3771 18.4754 14.3233 17.176 14.3233ZM8.46071 11.8493L5.29241 11.8492L5.31621 12.0407C5.66411 14.5236 7.36441 16.5825 9.66091 17.4281C8.96831 16.0529 8.54001 14.0576 8.46071 11.8493ZM9.75411 4.74039L9.67831 4.76799C7.37521 5.61999 5.64161 7.70919 5.30911 10.204L5.29241 10.3492L8.46101 10.3483C8.54461 8.07599 9.00661 6.06699 9.75411 4.74039ZM11.9923 4.58029C11.1245 4.58029 10.1023 7.08029 9.96331 10.3481L14.0214 10.3486C13.8826 7.07989 12.8608 4.58029 11.9923 4.58029ZM14.2296 4.73799L14.2653 4.80209C14.9925 6.12879 15.4415 8.11079 15.5237 10.3486L18.6924 10.3492L18.6684 10.1512C18.3129 7.61429 16.5551 5.55639 14.2296 4.73799Z" fill="white"/>
</svg>
