<svg width="24" height="24" viewBox="0 0 24 24" fill="none" xmlns="http://www.w3.org/2000/svg">
<path d="M17.0695 2.16016H6.93065C5.05433 2.16016 3.53149 3.67655 3.53149 5.5482V18.4521C3.53149 20.3238 5.05433 21.8402 6.93065 21.8402H17.0695C18.9466 21.8402 20.4686 20.3241 20.4686 18.4521V5.5482C20.4686 3.6762 18.9466 2.16016 17.0695 2.16016ZM6.93065 3.32587H17.0695C18.3038 3.32587 19.3029 4.32105 19.3029 5.5482V18.4521C19.3029 19.6793 18.3038 20.6744 17.0695 20.6744H6.93065C5.69705 20.6744 4.69721 19.6789 4.69721 18.4521V5.5482C4.69721 4.32146 5.69705 3.32587 6.93065 3.32587Z" fill="white"/>
<path d="M13.028 10.9712C13.4057 10.9712 13.7142 11.2798 13.7142 11.6575C13.7142 12.0341 13.4057 12.3426 13.028 12.3426C12.6514 12.3426 12.3428 12.0341 12.3428 11.6575C12.3428 11.2798 12.6514 10.9712 13.028 10.9712ZM15.0862 10.9712C15.4628 10.9712 15.7714 11.2798 15.7714 11.6575C15.7714 12.0341 15.4628 12.3426 15.0862 12.3426C14.7097 12.3426 14.3999 12.0341 14.3999 11.6575C14.3999 11.2798 14.7097 10.9712 15.0862 10.9712ZM10.9719 10.9712C11.3485 10.9712 11.6571 11.2798 11.6571 11.6575C11.6571 12.0341 11.3485 12.3426 10.9719 12.3426C10.5942 12.3426 10.2857 12.0341 10.2857 11.6575C10.2857 11.2798 10.5942 10.9712 10.9719 10.9712ZM8.91423 10.9712C9.29048 10.9712 9.59994 11.2798 9.59994 11.6575C9.59994 12.0341 9.29048 12.3426 8.91423 12.3426C8.53798 12.3426 8.22852 12.0341 8.22852 11.6575C8.22852 11.2798 8.53798 10.9712 8.91423 10.9712ZM10.9719 8.91406C11.3485 8.91406 11.6571 9.22263 11.6571 9.59923C11.6571 9.97692 11.3485 10.2855 10.9719 10.2855C10.5942 10.2855 10.2857 9.97692 10.2857 9.59923C10.2857 9.22263 10.5942 8.91406 10.9719 8.91406ZM13.028 8.91406C13.4057 8.91406 13.7142 9.22263 13.7142 9.59923C13.7142 9.97692 13.4057 10.2855 13.028 10.2855C12.6514 10.2855 12.3428 9.97692 12.3428 9.59923C12.3428 9.22263 12.6514 8.91406 13.028 8.91406ZM15.0862 8.91406C15.4628 8.91406 15.7714 9.22263 15.7714 9.59923C15.7714 9.97692 15.4628 10.2855 15.0862 10.2855C14.7097 10.2855 14.3999 9.97692 14.3999 9.59923C14.3999 9.22263 14.7097 8.91406 15.0862 8.91406ZM8.91423 8.91406C9.29048 8.91406 9.59994 9.22263 9.59994 9.59923C9.59994 9.97692 9.29048 10.2855 8.91423 10.2855C8.53798 10.2855 8.22852 9.97692 8.22852 9.59923C8.22852 9.22263 8.53798 8.91406 8.91423 8.91406Z" fill="white"/>
<path d="M13.7143 13.8857C13.9984 13.8857 14.2286 14.116 14.2286 14.4C14.2286 14.6604 14.0351 14.8756 13.7841 14.9097L13.7143 14.9143H10.2858C10.0017 14.9143 9.77148 14.6841 9.77148 14.4C9.77148 14.1397 9.96499 13.9245 10.216 13.8904L10.2858 13.8857H13.7143Z" fill="white"/>
</svg>
