<svg width="24" height="24" viewBox="0 0 24 24" fill="none" xmlns="http://www.w3.org/2000/svg">
<path d="M16.3584 8.16804C16.7834 8.16804 17.1314 8.51603 17.1314 8.94105C17.1314 9.36607 16.7834 9.71407 16.3584 9.71407C15.9334 9.71407 15.5854 9.36607 15.5854 8.94105C15.5854 8.51603 15.9334 8.16804 16.3584 8.16804ZM13.5361 8.16804C13.9612 8.16804 14.3092 8.51603 14.3092 8.94105C14.3092 9.36607 13.9612 9.71407 13.5361 9.71407C13.1111 9.71407 12.7631 9.36607 12.7631 8.94105C12.7631 8.51603 13.1111 8.16804 13.5361 8.16804ZM10.7138 8.16804C11.1389 8.16804 11.4869 8.51603 11.4869 8.94105C11.4869 9.36607 11.1389 9.71407 10.7138 9.71407C10.2888 9.71407 9.94083 9.36607 9.94083 8.94105C9.94083 8.51603 10.2888 8.16804 10.7138 8.16804ZM7.89167 8.16793C8.31657 8.16793 8.66457 8.51593 8.66457 8.94193C8.66457 9.36596 8.31657 9.71396 7.89167 9.71396C7.46665 9.71396 7.11963 9.36596 7.11963 8.94193C7.11963 8.51593 7.46665 8.16793 7.89167 8.16793ZM7.89167 5.52051C8.31657 5.52051 8.66457 5.86851 8.66457 6.29353C8.66457 6.71756 8.31657 7.06654 7.89167 7.06654C7.46665 7.06654 7.11963 6.71756 7.11963 6.29353C7.11963 5.86851 7.46665 5.52051 7.89167 5.52051ZM16.3584 5.52062C16.7834 5.52062 17.1314 5.86862 17.1314 6.29265C17.1314 6.71767 16.7834 7.06665 16.3584 7.06665C15.9334 7.06665 15.5854 6.71767 15.5854 6.29265C15.5854 5.86862 15.9334 5.52062 16.3584 5.52062ZM13.5361 5.52062C13.9612 5.52062 14.3092 5.86862 14.3092 6.29265C14.3092 6.71767 13.9612 7.06665 13.5361 7.06665C13.1111 7.06665 12.7631 6.71767 12.7631 6.29265C12.7631 5.86862 13.1111 5.52062 13.5361 5.52062ZM10.7138 5.52062C11.1389 5.52062 11.4869 5.86862 11.4869 6.29265C11.4869 6.71767 11.1389 7.06665 10.7138 7.06665C10.2888 7.06665 9.94083 6.71767 9.94083 6.29265C9.94083 5.86862 10.2888 5.52062 10.7138 5.52062Z" fill="white"/>
<path d="M9.87505 11.8642H14.3751M13.7802 18.137C14.2023 18.137 14.4353 18.6281 14.1663 18.955L12.6003 20.8601C12.4002 21.1031 12.0283 21.1031 11.8272 20.8601L10.2612 18.955C9.99222 18.6281 10.2252 18.137 10.6472 18.137H13.7802ZM17.5001 2.75098C18.8811 2.75098 20 3.86992 20 5.25101V12.387C20 13.813 18.8441 14.968 17.418 14.968H6.83207C5.40604 14.968 4.25 13.813 4.25 12.387V5.25101C4.25 3.86992 5.36905 2.75098 6.75004 2.75098H17.5001Z" stroke="white" stroke-width="1.63636" stroke-linecap="round" stroke-linejoin="round"/>
</svg>
