<svg width="24" height="24" viewBox="0 0 24 24" fill="none" xmlns="http://www.w3.org/2000/svg">
<path d="M19.8479 7.43518L12.1789 15.2132C12.1159 15.2782 12.0399 15.2882 12.0009 15.2882C11.9619 15.2882 11.8869 15.2782 11.8239 15.2132L4.15292 7.43518C3.86192 7.14018 3.38692 7.13718 3.09192 7.42818C2.79692 7.71918 2.79392 8.19418 3.08492 8.48918L10.7549 16.2662C11.0859 16.6032 11.5299 16.7882 12.0009 16.7882C12.4739 16.7882 12.9159 16.6032 13.2469 16.2662L20.9159 8.48918C21.2069 8.19418 21.2029 7.71818 20.9089 7.42818C20.6139 7.13718 20.1389 7.14018 19.8479 7.43518Z" fill="white"/>
</svg>
