<svg width="24" height="24" viewBox="0 0 24 24" fill="none" xmlns="http://www.w3.org/2000/svg">
<path fill-rule="evenodd" clip-rule="evenodd" d="M8.76086 11.4375C9.10686 11.4375 9.39086 11.7205 9.39086 12.0675C9.39086 12.4135 9.10686 12.6975 8.76086 12.6975C8.41486 12.6975 8.13086 12.4135 8.13086 12.0675C8.13086 11.7205 8.41486 11.4375 8.76086 11.4375ZM15.2394 11.4378C15.5854 11.4378 15.8694 11.7208 15.8694 12.0678C15.8694 12.4138 15.5854 12.6978 15.2394 12.6978C14.8934 12.6978 14.6094 12.4138 14.6094 12.0678C14.6094 11.7208 14.8934 11.4378 15.2394 11.4378ZM13.0799 11.4378C13.4259 11.4378 13.7099 11.7208 13.7099 12.0678C13.7099 12.4138 13.4259 12.6978 13.0799 12.6978C12.7339 12.6978 12.4499 12.4138 12.4499 12.0678C12.4499 11.7208 12.7339 11.4378 13.0799 11.4378ZM10.9203 11.4378C11.2673 11.4378 11.5503 11.7208 11.5503 12.0678C11.5503 12.4138 11.2673 12.6978 10.9203 12.6978C10.5743 12.6978 10.2903 12.4138 10.2903 12.0678C10.2903 11.7208 10.5743 11.4378 10.9203 11.4378ZM8.76086 9.2793C9.10686 9.2793 9.39086 9.5623 9.39086 9.9093C9.39086 10.2553 9.10686 10.5393 8.76086 10.5393C8.41486 10.5393 8.13086 10.2553 8.13086 9.9093C8.13086 9.5623 8.41486 9.2793 8.76086 9.2793ZM15.2394 9.2796C15.5854 9.2796 15.8694 9.5626 15.8694 9.9096C15.8694 10.2556 15.5854 10.5396 15.2394 10.5396C14.8934 10.5396 14.6094 10.2556 14.6094 9.9096C14.6094 9.5626 14.8934 9.2796 15.2394 9.2796ZM13.0799 9.2796C13.4259 9.2796 13.7099 9.5626 13.7099 9.9096C13.7099 10.2556 13.4259 10.5396 13.0799 10.5396C12.7339 10.5396 12.4499 10.2556 12.4499 9.9096C12.4499 9.5626 12.7339 9.2796 13.0799 9.2796ZM10.9203 9.2796C11.2673 9.2796 11.5503 9.5626 11.5503 9.9096C11.5503 10.2556 11.2673 10.5396 10.9203 10.5396C10.5743 10.5396 10.2903 10.2556 10.2903 9.9096C10.2903 9.5626 10.5743 9.2796 10.9203 9.2796Z" fill="white"/>
<path d="M9.9305 14.4482H14.0695M1.5 16.625L2.697 15.428C2.887 15.238 2.887 14.93 2.697 14.739L1.844 13.885C1.654 13.695 1.654 13.386 1.844 13.196L2.697 12.344C2.887 12.153 2.887 11.845 2.697 11.655L1.844 10.802C1.654 10.612 1.654 10.304 1.844 10.114L2.697 9.261C2.887 9.07 2.887 8.762 2.697 8.572L1.5 7.375M22.5 16.625L21.303 15.428C21.113 15.238 21.113 14.93 21.303 14.739L22.156 13.885C22.346 13.695 22.346 13.386 22.156 13.196L21.303 12.344C21.113 12.153 21.113 11.845 21.303 11.655L22.156 10.802C22.346 10.612 22.346 10.304 22.156 10.114L21.303 9.261C21.113 9.07 21.113 8.762 21.303 8.572L22.5 7.375M16.25 17.25H7.75C6.645 17.25 5.75 16.354 5.75 15.25V8.75C5.75 7.645 6.645 6.75 7.75 6.75H16.25C17.354 6.75 18.25 7.645 18.25 8.75V15.25C18.25 16.354 17.354 17.25 16.25 17.25Z" stroke="white" stroke-width="1.5" stroke-linecap="round" stroke-linejoin="round"/>
</svg>
