<svg width="24" height="24" viewBox="0 0 24 24" fill="none" xmlns="http://www.w3.org/2000/svg">
<path fill-rule="evenodd" clip-rule="evenodd" d="M7.03278 6.55961V16.0042C7.0715 16.5476 6.95438 16.9769 6.6867 17.2697C6.40414 17.5798 5.95502 17.7353 5.34926 17.7353L5.26798 17.7343C4.88718 17.7516 4.4203 17.7596 3.88782 17.7596H3.7699L3.75102 17.6414C3.70942 17.3818 3.64782 17.0758 3.56254 16.7031L3.51998 16.5153L3.70942 16.5305C4.14158 16.5628 4.62542 16.5809 5.14494 16.5809C5.18366 16.582 5.21342 16.583 5.24222 16.583C5.4435 16.583 5.59214 16.5354 5.68238 16.4406C5.7755 16.3425 5.81918 16.185 5.8123 15.9708V6.55961H7.03278ZM3.08862 8.95961L4.31998 9.36713L4.27102 9.50505C3.52846 11.5508 2.67278 13.5281 1.72734 15.3817L1.6563 15.5196L1.52638 15.434C1.22254 15.2358 0.91678 15.0628 0.6179 14.9209L0.47998 14.8545L0.55598 14.7217C1.46846 13.1377 2.3051 11.2428 3.04366 9.09145L3.08862 8.95961ZM9.26686 8.95961L9.33006 9.07545C9.76542 9.87849 10.2459 10.7964 10.7606 11.8007C11.2693 12.8314 11.7206 13.7778 12.1027 14.6185L12.16 14.7446L10.9104 15.3596L10.8512 15.2265C10.4681 14.3665 10.052 13.4334 9.60158 12.4279C9.15214 11.4612 8.68878 10.5118 8.22638 9.61113L8.15998 9.47801L9.26686 8.95961ZM13.9125 6.39961L13.9993 6.49097C14.6521 7.17625 15.1449 7.85129 15.4653 8.49689L15.52 8.60457L14.551 9.27961L14.4817 9.11721C14.1853 8.43401 13.7152 7.78633 13.0849 7.19241L12.96 7.07465L13.9125 6.39961ZM22.2088 5.75961C22.6053 5.75961 22.9533 5.90425 23.2438 6.18953C23.5342 6.47497 23.68 6.80377 23.68 7.16841C23.68 7.56569 23.5342 7.91337 23.2448 8.20265C22.9553 8.49305 22.6064 8.63961 22.2088 8.63961C21.2867 8.63065 20.8 8.12249 20.8 7.16841C20.8 6.80681 20.9358 6.47881 21.2014 6.19449C21.4712 5.90617 21.8102 5.75961 22.2088 5.75961ZM15.3534 5.59961L15.4369 5.67913C16.0654 6.27833 16.5597 6.93257 16.9043 7.62409L16.96 7.73417L15.9942 8.31961L15.924 8.17913C15.5918 7.51513 15.1213 6.89033 14.5248 6.32265L14.4 6.20377L15.3534 5.59961ZM22.2088 6.71561C21.8925 6.71561 21.7566 6.85145 21.7566 7.16841C21.7566 7.52105 21.8925 7.67065 22.2088 7.67065C22.5261 7.67065 22.6617 7.52105 22.6617 7.16841C22.6617 7.06841 22.6173 6.96825 22.5249 6.86425C22.4387 6.76425 22.3357 6.71561 22.2088 6.71561Z" fill="white"/>
</svg>
