<svg width="24" height="24" viewBox="0 0 24 24" fill="none" xmlns="http://www.w3.org/2000/svg">
<path d="M13.9531 13.7269C14.3802 13.7269 14.7291 14.0758 14.7291 14.5018C14.7291 14.9278 14.3802 15.2778 13.9531 15.2778C13.5271 15.2778 13.1781 14.9278 13.1781 14.5018C13.1781 14.0758 13.5271 13.7269 13.9531 13.7269ZM16.1264 13.7266C16.5524 13.7266 16.9014 14.0756 16.9014 14.5026C16.9014 14.9276 16.5524 15.2776 16.1264 15.2776C15.7004 15.2776 15.3504 14.9276 15.3504 14.5026C15.3504 14.0756 15.7004 13.7266 16.1264 13.7266ZM10.0473 13.7269C10.4733 13.7269 10.8223 14.0758 10.8223 14.5018C10.8223 14.9278 10.4733 15.2778 10.0473 15.2778C9.62031 15.2778 9.27133 14.9278 9.27133 14.5018C9.27133 14.0758 9.62031 13.7269 10.0473 13.7269ZM7.87398 13.7269C8.30096 13.7269 8.64896 14.0758 8.64896 14.5018C8.64896 14.9278 8.30096 15.2778 7.87398 15.2778C7.44798 15.2778 7.099 14.9278 7.099 14.5018C7.099 14.0758 7.44798 13.7269 7.87398 13.7269ZM13.9531 11.3197C14.3802 11.3197 14.7291 11.6686 14.7291 12.0946C14.7291 12.5216 14.3802 12.8706 13.9531 12.8706C13.5271 12.8706 13.1781 12.5216 13.1781 12.0946C13.1781 11.6686 13.5271 11.3197 13.9531 11.3197ZM10.0473 11.3197C10.4733 11.3197 10.8223 11.6686 10.8223 12.0946C10.8223 12.5216 10.4733 12.8706 10.0473 12.8706C9.62031 12.8706 9.27133 12.5216 9.27133 12.0946C9.27133 11.6686 9.62031 11.3197 10.0473 11.3197ZM7.87398 11.3197C8.30096 11.3197 8.64896 11.6686 8.64896 12.0946C8.64896 12.5216 8.30096 12.8706 7.87398 12.8706C7.44798 12.8706 7.099 12.5216 7.099 12.0946C7.099 11.6686 7.44798 11.3197 7.87398 11.3197ZM16.1264 11.3193C16.5524 11.3193 16.9014 11.6683 16.9014 12.0953C16.9014 12.5213 16.5524 12.8703 16.1264 12.8703C15.7004 12.8703 15.3504 12.5213 15.3504 12.0953C15.3504 11.6683 15.7004 11.3193 16.1264 11.3193Z" fill="white"/>
<path d="M7.71047 16.9508H10.2104M13.79 16.9508H16.29M16.5 3.75H7.50004C6.12004 3.75 5 4.86905 5 6.25004V17.7501C5 19.1311 6.12004 20.25 7.50004 20.25H16.5C17.881 20.25 19.0001 19.1311 19.0001 17.7501V6.25004C19.0001 4.86905 17.881 3.75 16.5 3.75Z" stroke="white" stroke-width="1.63636" stroke-linecap="round" stroke-linejoin="round"/>
</svg>
