<svg width="24" height="24" viewBox="0 0 24 24" fill="none" xmlns="http://www.w3.org/2000/svg">
<path d="M16.8766 6.19497L6.54492 18.1819L7.50395 18.1666L17.8186 6.18164L16.8766 6.19497Z" fill="white"/>
<path d="M4.27646 5.51935C4.13731 5.66844 3.99815 5.81438 3.85876 5.95692C3.71937 6.09947 3.58046 6.24516 3.44106 6.3945V8.83547H2.427V1.59668H3.4413V5.08662C3.97173 4.49656 4.4944 3.91571 5.00979 3.34407C5.52518 2.77244 6.04809 2.18989 6.57827 1.59668H7.81609L4.95767 4.79838C5.46797 5.46795 5.97924 6.14068 6.49149 6.8168C7.00373 7.49292 7.51476 8.16565 8.02531 8.83523H6.80227L4.27646 5.51935Z" fill="white"/>
<path d="M11.2914 4.28129C11.2218 4.26796 11.1498 4.25899 11.0752 4.2539C11.0005 4.24881 10.922 4.24638 10.839 4.24638C10.2359 4.24638 9.82644 4.50335 9.61116 5.01705V8.83523H8.69141V3.45608H9.58619L9.60122 4.07741C9.9028 3.59693 10.3304 3.35645 10.8839 3.35645C11.0563 3.35645 11.192 3.37972 11.2916 3.42602L11.2914 4.28129Z" fill="white"/>
<path d="M17.0597 18.751H13.9528V21.2269H17.5668V22.0669H12.9382V14.8281H17.5171V15.6732H13.9528V17.9106H17.0597V18.751Z" fill="white"/>
<path d="M19.4804 16.6883L19.5102 17.3644C19.9211 16.8473 20.4581 16.5889 21.1214 16.5889C22.2579 16.5889 22.8319 17.2303 22.8419 18.5132V22.0677H21.9219V18.5079C21.9185 18.1169 21.831 17.8294 21.6584 17.6451C21.486 17.4614 21.2142 17.369 20.8433 17.369C20.5451 17.369 20.2828 17.4485 20.0579 17.6075C19.8324 17.7666 19.6569 17.9755 19.5308 18.234V22.0674H18.6108V16.6883H19.4804Z" fill="white"/>
</svg>
