<svg width="24" height="24" viewBox="0 0 24 24" fill="none" xmlns="http://www.w3.org/2000/svg">
<path d="M12.0638 17.5098V20.6413M12.0638 3.36035V6.49091M12.0638 10.5556V13.4461" stroke="white" stroke-width="1.44" stroke-linecap="round" stroke-linejoin="round"/>
<path fill-rule="evenodd" clip-rule="evenodd" d="M15.9675 8.83968C15.9675 8.0304 16.9083 7.58592 17.5332 8.09952L21.378 11.2608C21.8446 11.6438 21.8446 12.3571 21.378 12.7402L17.5332 15.9014C16.9083 16.415 15.9675 15.9706 15.9675 15.1613V8.83968ZM8.16026 8.83968V15.1613C8.16026 15.9706 7.21946 16.415 6.5945 15.9014L2.7497 12.7402C2.28314 12.3571 2.28314 11.6438 2.7497 11.2608L6.5945 8.09952C7.21946 7.58592 8.16026 8.0304 8.16026 8.83968Z" fill="white"/>
</svg>
