<svg width="24" height="24" viewBox="0 0 24 24" fill="none" xmlns="http://www.w3.org/2000/svg">
<path d="M11.8753 14.1595C12.3732 14.1595 12.7803 14.5222 12.7803 14.965C12.7803 15.4088 12.3732 15.7715 11.8753 15.7715C11.3785 15.7715 10.9714 15.4088 10.9714 14.965C10.9714 14.5222 11.3785 14.1595 11.8753 14.1595ZM14.6181 14.1593C15.1161 14.1593 15.5231 14.522 15.5231 14.9658C15.5231 15.4086 15.1161 15.7713 14.6181 15.7713C14.1213 15.7713 13.7143 15.4086 13.7143 14.9658C13.7143 14.522 14.1213 14.1593 14.6181 14.1593ZM17.361 14.1593C17.859 14.1593 18.266 14.522 18.266 14.9658C18.266 15.4086 17.859 15.7713 17.361 15.7713C16.8642 15.7713 16.4571 15.4086 16.4571 14.9658C16.4571 14.522 16.8642 14.1593 17.361 14.1593ZM11.8753 11.6576C12.3732 11.6576 12.7803 12.0213 12.7803 12.463C12.7803 12.9069 12.3732 13.2706 11.8753 13.2706C11.3785 13.2706 10.9714 12.9069 10.9714 12.463C10.9714 12.0213 11.3785 11.6576 11.8753 11.6576ZM14.6181 11.6572C15.1161 11.6572 15.5231 12.021 15.5231 12.4638C15.5231 12.9065 15.1161 13.2703 14.6181 13.2703C14.1213 13.2703 13.7143 12.9065 13.7143 12.4638C13.7143 12.021 14.1213 11.6572 14.6181 11.6572ZM17.361 11.6572C17.859 11.6572 18.266 12.021 18.266 12.4638C18.266 12.9065 17.859 13.2703 17.361 13.2703C16.8642 13.2703 16.4571 12.9065 16.4571 12.4638C16.4571 12.021 16.8642 11.6572 17.361 11.6572Z" fill="white"/>
<path d="M17.0695 2.16016H6.93065C5.05433 2.16016 3.53149 3.67655 3.53149 5.5482V18.4521C3.53149 20.3238 5.05433 21.8402 6.93065 21.8402H17.0695C18.9466 21.8402 20.4686 20.3241 20.4686 18.4521V5.5482C20.4686 3.6762 18.9466 2.16016 17.0695 2.16016ZM6.93065 3.32587H17.0695C18.3038 3.32587 19.3029 4.32105 19.3029 5.5482V18.4521C19.3029 19.6793 18.3038 20.6744 17.0695 20.6744H6.93065C5.69705 20.6744 4.69721 19.6789 4.69721 18.4521V5.5482C4.69721 4.32146 5.69705 3.32587 6.93065 3.32587Z" fill="white"/>
<path d="M14.253 16.9209C14.575 16.9209 14.8359 17.1818 14.8359 17.5038C14.8359 17.8009 14.6136 18.0461 14.3261 18.0821L14.253 18.0866H9.74692C9.42498 18.0866 9.16406 17.8256 9.16406 17.5038C9.16406 17.2066 9.38637 16.9614 9.67382 16.9254L9.74692 16.9209H14.253Z" fill="white"/>
</svg>
