<svg width="24" height="24" viewBox="0 0 24 24" fill="none" xmlns="http://www.w3.org/2000/svg">
<path d="M13.2114 13.7269C13.6385 13.7269 13.9875 14.0758 13.9875 14.5018C13.9875 14.9288 13.6385 15.2779 13.2114 15.2779C12.7854 15.2779 12.4364 14.9288 12.4364 14.5018C12.4364 14.0758 12.7854 13.7269 13.2114 13.7269ZM15.6342 13.7266C16.0613 13.7266 16.4103 14.0756 16.4103 14.5027C16.4103 14.9287 16.0613 15.2777 15.6342 15.2777C15.2082 15.2777 14.8592 14.9287 14.8592 14.5027C14.8592 14.0756 15.2082 13.7266 15.6342 13.7266ZM10.789 13.7269C11.215 13.7269 11.564 14.0758 11.564 14.5018C11.564 14.9288 11.215 15.2779 10.789 15.2779C10.362 15.2779 10.0131 14.9288 10.0131 14.5018C10.0131 14.0758 10.362 13.7269 10.789 13.7269ZM8.36579 13.7269C8.79277 13.7269 9.14175 14.0758 9.14175 14.5018C9.14175 14.9288 8.79277 15.2779 8.36579 15.2779C7.93979 15.2779 7.5907 14.9288 7.5907 14.5018C7.5907 14.0758 7.93979 13.7269 8.36579 13.7269ZM10.789 11.3197C11.215 11.3197 11.564 11.6696 11.564 12.0946C11.564 12.5216 11.215 12.8717 10.789 12.8717C10.362 12.8717 10.0131 12.5216 10.0131 12.0946C10.0131 11.6696 10.362 11.3197 10.789 11.3197ZM13.2114 11.3197C13.6385 11.3197 13.9875 11.6696 13.9875 12.0946C13.9875 12.5216 13.6385 12.8717 13.2114 12.8717C12.7854 12.8717 12.4364 12.5216 12.4364 12.0946C12.4364 11.6696 12.7854 11.3197 13.2114 11.3197ZM15.6342 11.3193C16.0613 11.3193 16.4103 11.6694 16.4103 12.0954C16.4103 12.5214 16.0613 12.8714 15.6342 12.8714C15.2082 12.8714 14.8592 12.5214 14.8592 12.0954C14.8592 11.6694 15.2082 11.3193 15.6342 11.3193ZM8.36579 11.3197C8.79277 11.3197 9.14175 11.6696 9.14175 12.0946C9.14175 12.5216 8.79277 12.8717 8.36579 12.8717C7.93979 12.8717 7.5907 12.5216 7.5907 12.0946C7.5907 11.6696 7.93979 11.3197 8.36579 11.3197Z" fill="white"/>
<path d="M10.0001 16.9052H14M16.5 3.75H7.50004C6.12004 3.75 5 4.86895 5 6.25004V17.75C5 19.1309 6.12004 20.25 7.50004 20.25H16.5C17.881 20.25 19.0001 19.1309 19.0001 17.75V6.25004C19.0001 4.86895 17.881 3.75 16.5 3.75Z" stroke="white" stroke-width="1.63636" stroke-linecap="round" stroke-linejoin="round"/>
</svg>
