<svg width="24" height="24" viewBox="0 0 24 24" fill="none" xmlns="http://www.w3.org/2000/svg">
<path d="M17.0695 2.16016H6.93065C5.05433 2.16016 3.53149 3.67655 3.53149 5.5482V18.4521C3.53149 20.3238 5.05433 21.8402 6.93065 21.8402H17.0695C18.9466 21.8402 20.4686 20.3241 20.4686 18.4521V5.5482C20.4686 3.6762 18.9466 2.16016 17.0695 2.16016ZM6.93065 3.32587H17.0695C18.3038 3.32587 19.3029 4.32105 19.3029 5.5482V18.4521C19.3029 19.6793 18.3038 20.6744 17.0695 20.6744H6.93065C5.69705 20.6744 4.69721 19.6789 4.69721 18.4521V5.5482C4.69721 4.32146 5.69705 3.32587 6.93065 3.32587Z" fill="white"/>
<path d="M14.253 16.9209C14.575 16.9209 14.8359 17.1818 14.8359 17.5038C14.8359 17.8009 14.6136 18.0461 14.3261 18.0821L14.253 18.0866H9.74692C9.42498 18.0866 9.16406 17.8256 9.16406 17.5038C9.16406 17.2066 9.38637 16.9614 9.67382 16.9254L9.74692 16.9209H14.253Z" fill="white"/>
<path d="M11.8752 14.1595C12.3731 14.1595 12.7802 14.5222 12.7802 14.965C12.7802 15.4088 12.3731 15.7715 11.8752 15.7715C11.3784 15.7715 10.9713 15.4088 10.9713 14.965C10.9713 14.5222 11.3784 14.1595 11.8752 14.1595ZM9.13346 14.1595C9.63026 14.1595 10.0373 14.5222 10.0373 14.965C10.0373 15.4088 9.63026 15.7715 9.13346 15.7715C8.63549 15.7715 8.22845 15.4088 8.22845 14.965C8.22845 14.5222 8.63549 14.1595 9.13346 14.1595ZM14.618 14.1593C15.116 14.1593 15.523 14.522 15.523 14.9658C15.523 15.4086 15.116 15.7713 14.618 15.7713C14.1212 15.7713 13.7142 15.4086 13.7142 14.9658C13.7142 14.522 14.1212 14.1593 14.618 14.1593ZM6.38944 14.1592C6.8874 14.1592 7.29444 14.5219 7.29444 14.9646C7.29444 15.4085 6.8874 15.7712 6.38944 15.7712C5.89264 15.7712 5.4856 15.4085 5.4856 14.9646C5.4856 14.5219 5.89264 14.1592 6.38944 14.1592ZM17.3609 14.1593C17.8588 14.1593 18.2659 14.522 18.2659 14.9658C18.2659 15.4086 17.8588 15.7713 17.3609 15.7713C16.8641 15.7713 16.457 15.4086 16.457 14.9658C16.457 14.522 16.8641 14.1593 17.3609 14.1593ZM9.13346 11.6576C9.63026 11.6576 10.0373 12.0213 10.0373 12.463C10.0373 12.9069 9.63026 13.2706 9.13346 13.2706C8.63549 13.2706 8.22845 12.9069 8.22845 12.463C8.22845 12.0213 8.63549 11.6576 9.13346 11.6576ZM11.8752 11.6576C12.3731 11.6576 12.7802 12.0213 12.7802 12.463C12.7802 12.9069 12.3731 13.2706 11.8752 13.2706C11.3784 13.2706 10.9713 12.9069 10.9713 12.463C10.9713 12.0213 11.3784 11.6576 11.8752 11.6576ZM14.618 11.6572C15.116 11.6572 15.523 12.021 15.523 12.4638C15.523 12.9065 15.116 13.2703 14.618 13.2703C14.1212 13.2703 13.7142 12.9065 13.7142 12.4638C13.7142 12.021 14.1212 11.6572 14.618 11.6572ZM6.38944 11.6572C6.8874 11.6572 7.29444 12.021 7.29444 12.4627C7.29444 12.9065 6.8874 13.2703 6.38944 13.2703C5.89264 13.2703 5.4856 12.9065 5.4856 12.4627C5.4856 12.021 5.89264 11.6572 6.38944 11.6572ZM17.3609 11.6572C17.8588 11.6572 18.2659 12.021 18.2659 12.4638C18.2659 12.9065 17.8588 13.2703 17.3609 13.2703C16.8641 13.2703 16.457 12.9065 16.457 12.4638C16.457 12.021 16.8641 11.6572 17.3609 11.6572Z" fill="white"/>
</svg>
