<svg width="24" height="24" viewBox="0 0 24 24" fill="none" xmlns="http://www.w3.org/2000/svg">
<path d="M7.87256 11.1768C8.35356 11.1768 8.74756 11.5708 8.74756 12.0518C8.74756 12.5328 8.35356 12.9268 7.87256 12.9268C7.39156 12.9268 6.99756 12.5328 6.99756 12.0518C6.99756 11.5708 7.39156 11.1768 7.87256 11.1768ZM16.8726 11.1768C17.3536 11.1768 17.7476 11.5708 17.7476 12.0518C17.7476 12.5328 17.3536 12.9268 16.8726 12.9268C16.3916 12.9268 15.9976 12.5328 15.9976 12.0518C15.9976 11.5708 16.3916 11.1768 16.8726 11.1768ZM13.8726 11.1768C14.3536 11.1768 14.7476 11.5708 14.7476 12.0518C14.7476 12.5328 14.3536 12.9268 13.8726 12.9268C13.3916 12.9268 12.9976 12.5328 12.9976 12.0518C12.9976 11.5708 13.3916 11.1768 13.8726 11.1768ZM10.8726 11.1768C11.3536 11.1768 11.7476 11.5708 11.7476 12.0518C11.7476 12.5328 11.3536 12.9268 10.8726 12.9268C10.3916 12.9268 9.99756 12.5328 9.99756 12.0518C9.99756 11.5708 10.3916 11.1768 10.8726 11.1768ZM7.87256 8.17871C8.35356 8.17871 8.74756 8.57271 8.74756 9.05371C8.74756 9.53471 8.35356 9.92871 7.87256 9.92871C7.39156 9.92871 6.99756 9.53471 6.99756 9.05371C6.99756 8.57271 7.39156 8.17871 7.87256 8.17871ZM16.8726 8.17871C17.3536 8.17871 17.7476 8.57271 17.7476 9.05371C17.7476 9.53471 17.3536 9.92871 16.8726 9.92871C16.3916 9.92871 15.9976 9.53471 15.9976 9.05371C15.9976 8.57271 16.3916 8.17871 16.8726 8.17871ZM13.8726 8.17871C14.3536 8.17871 14.7476 8.57271 14.7476 9.05371C14.7476 9.53471 14.3536 9.92871 13.8726 9.92871C13.3916 9.92871 12.9976 9.53471 12.9976 9.05371C12.9976 8.57271 13.3916 8.17871 13.8726 8.17871ZM10.8726 8.17871C11.3536 8.17871 11.7476 8.57271 11.7476 9.05371C11.7476 9.53471 11.3536 9.92871 10.8726 9.92871C10.3916 9.92871 9.99756 9.53471 9.99756 9.05371C9.99756 8.57271 10.3916 8.17871 10.8726 8.17871Z" fill="white"/>
<path d="M9.49791 15.3594H15.2479M18.4955 4.75H6.24951C4.86951 4.75 3.74951 5.869 3.74951 7.25V16.666C3.74951 18.047 4.86951 19.166 6.24951 19.166H18.4955C19.8765 19.166 20.9955 18.047 20.9955 16.666V7.25C20.9955 5.869 19.8765 4.75 18.4955 4.75Z" stroke="white" stroke-width="1.5" stroke-linecap="round" stroke-linejoin="round"/>
</svg>
