<svg width="24" height="24" viewBox="0 0 24 24" fill="none" xmlns="http://www.w3.org/2000/svg">
<path d="M6.77636 9.49713C7.1884 9.49713 7.5244 9.83411 7.5244 10.2461C7.5244 10.6571 7.1884 10.9942 6.77636 10.9942C6.36433 10.9942 6.02734 10.6571 6.02734 10.2461C6.02734 9.83411 6.36433 9.49713 6.77636 9.49713ZM14.4737 9.49702C14.8856 9.49702 15.2227 9.834 15.2227 10.246C15.2227 10.657 14.8856 10.9941 14.4737 10.9941C14.0627 10.9941 13.7257 10.657 13.7257 10.246C13.7257 9.834 14.0627 9.49702 14.4737 9.49702ZM11.9083 9.49702C12.3203 9.49702 12.6563 9.834 12.6563 10.246C12.6563 10.657 12.3203 10.9941 11.9083 10.9941C11.4963 10.9941 11.1593 10.657 11.1593 10.246C11.1593 9.834 11.4963 9.49702 11.9083 9.49702ZM9.3424 9.49702C9.75433 9.49702 10.0903 9.834 10.0903 10.246C10.0903 10.657 9.75433 10.9941 9.3424 10.9941C8.93036 10.9941 8.59338 10.657 8.59338 10.246C8.59338 9.834 8.93036 9.49702 9.3424 9.49702ZM6.77636 6.93273C7.1884 6.93273 7.5244 7.26971 7.5244 7.68174C7.5244 8.09269 7.1884 8.42978 6.77636 8.42978C6.36433 8.42978 6.02734 8.09269 6.02734 7.68174C6.02734 7.26971 6.36433 6.93273 6.77636 6.93273ZM14.4737 6.93262C14.8856 6.93262 15.2227 7.2696 15.2227 7.68164C15.2227 8.09258 14.8856 8.42967 14.4737 8.42967C14.0627 8.42967 13.7257 8.09258 13.7257 7.68164C13.7257 7.2696 14.0627 6.93262 14.4737 6.93262ZM11.9083 6.93262C12.3203 6.93262 12.6563 7.2696 12.6563 7.68164C12.6563 8.09258 12.3203 8.42967 11.9083 8.42967C11.4963 8.42967 11.1593 8.09258 11.1593 7.68164C11.1593 7.2696 11.4963 6.93262 11.9083 6.93262ZM9.3424 6.93262C9.75433 6.93262 10.0903 7.2696 10.0903 7.68164C10.0903 8.09258 9.75433 8.42967 9.3424 8.42967C8.93036 8.42967 8.59338 8.09258 8.59338 7.68164C8.59338 7.2696 8.93036 6.93262 9.3424 6.93262Z" fill="white"/>
<path d="M8.16596 13.0741H13.084M15.4999 4.25H5.74993C4.36895 4.25 3.25 5.36993 3.25 6.74993V13.58C3.25 14.961 4.36895 16.0799 5.74993 16.0799H16.5C17.3289 16.0799 18 15.4089 18 14.5799V6.74993C18 5.36993 16.8809 4.25 15.4999 4.25Z" stroke="white" stroke-width="1.63636" stroke-linecap="round" stroke-linejoin="round"/>
<path d="M8.88818 19.5798H18.2503C20.0452 19.5798 21.5002 18.1247 21.5002 16.3297V9.88867" stroke="white" stroke-width="1.63636" stroke-linecap="round" stroke-linejoin="round"/>
</svg>
