<svg width="24" height="24" viewBox="0 0 24 24" fill="none" xmlns="http://www.w3.org/2000/svg">
<path fill-rule="evenodd" clip-rule="evenodd" d="M21.7038 15.9297C21.99 15.9297 22.2084 16.0093 22.3571 16.1681C22.5065 16.326 22.5803 16.5266 22.5803 16.7692C22.5803 17.011 22.5065 17.21 22.3571 17.3662C22.2084 17.5215 21.99 17.6004 21.7038 17.6004C21.4166 17.6004 21.2009 17.5215 21.0574 17.3662C20.9137 17.21 20.8415 17.011 20.8415 16.7692C20.8415 16.5266 20.9137 16.326 21.0574 16.1681C21.2009 16.0093 21.4166 15.9297 21.7038 15.9297ZM15.0164 15.9212C15.3044 15.9212 15.5219 16.001 15.6695 16.1588C15.8182 16.3183 15.8929 16.5181 15.8929 16.7591C15.8929 17.0009 15.8182 17.1999 15.6695 17.3561C15.5219 17.5122 15.3044 17.5895 15.0164 17.5895C14.73 17.5895 14.5151 17.5122 14.3716 17.3561C14.2279 17.1999 14.1566 17.0009 14.1566 16.7591C14.1566 16.5181 14.2279 16.3183 14.3716 16.1588C14.5151 16.001 14.73 15.9212 15.0164 15.9212ZM8.30346 13.6009C9.62666 14.6513 10.5779 15.6545 11.1596 16.6108L10.3444 17.3286C9.61226 16.1558 8.6561 15.1289 7.47386 14.2482L8.30346 13.6009ZM3.36762 13.5447C3.88314 13.5447 4.32298 13.7268 4.68986 14.0929C5.05514 14.4582 5.23818 14.8972 5.23818 15.4086C5.23818 15.9198 5.05514 16.3582 4.68986 16.7241C4.32298 17.0902 3.88314 17.2724 3.36762 17.2724C2.81258 17.2724 2.35258 17.0902 1.98826 16.7241C1.62122 16.3582 1.43994 15.9198 1.43994 15.4086C1.43994 14.8972 1.62378 14.4582 1.99482 14.0929C2.36522 13.7268 2.82266 13.5447 3.36762 13.5447ZM3.36762 14.417C2.67242 14.417 2.3257 14.7444 2.3257 15.4018C2.3257 16.0961 2.67242 16.4479 3.36762 16.4562C3.61946 16.4562 3.84778 16.3556 4.04938 16.154C4.25082 15.9526 4.35162 15.7015 4.35162 15.4018C4.35162 14.7444 4.0233 14.417 3.36762 14.417ZM22.4439 6.55175L22.338 14.4487H20.9923L20.8948 6.55175H22.4439ZM15.2291 6.40039C15.7009 6.40039 16.1239 6.46679 16.4959 6.60103C16.8695 6.73447 17.1894 6.92599 17.4556 7.17783C17.7124 7.43479 17.9115 7.74039 18.0526 8.09543C18.1927 8.45063 18.2641 8.84599 18.2641 9.28519C18.2641 10.1658 17.8561 11.0365 17.0409 11.897L16.2247 12.6972C15.8731 13.0951 15.6967 13.6786 15.6967 14.4486H14.2174C14.2207 14.1311 14.2391 13.8516 14.2694 13.6065C14.2996 13.363 14.3475 13.1548 14.4129 12.9844C14.4785 12.8081 14.5758 12.6242 14.7076 12.4335C14.8387 12.2414 14.999 12.0382 15.1913 11.8215L16.1643 10.8098C16.3607 10.5831 16.5119 10.3439 16.6177 10.0929C16.7235 9.84103 16.7764 9.58663 16.7764 9.32967C16.7764 8.82167 16.6438 8.42455 16.3801 8.14087C16.1148 7.85703 15.7319 7.71431 15.2291 7.71431C14.7303 7.71431 14.3348 7.84279 14.0427 8.09975C13.7463 8.36087 13.5977 8.72599 13.5977 9.19367H12.11C12.115 8.76631 12.1907 8.38423 12.3367 8.04599C12.4828 7.70935 12.6995 7.41463 12.9857 7.16279C13.57 6.65479 14.3172 6.40039 15.2291 6.40039Z" fill="white"/>
</svg>
