<svg width="24" height="24" viewBox="0 0 24 24" fill="none" xmlns="http://www.w3.org/2000/svg">
<path fill-rule="evenodd" clip-rule="evenodd" d="M5.31619 11.4043C5.68319 11.4043 5.98419 11.7043 5.98419 12.0713C5.98419 12.4383 5.68319 12.7393 5.31619 12.7393C4.94919 12.7393 4.64819 12.4383 4.64819 12.0713C4.64819 11.7043 4.94919 11.4043 5.31619 11.4043ZM12.1835 11.4038C12.5505 11.4038 12.8515 11.7038 12.8515 12.0708C12.8515 12.4388 12.5505 12.7388 12.1835 12.7388C11.8165 12.7388 11.5155 12.4388 11.5155 12.0708C11.5155 11.7038 11.8165 11.4038 12.1835 11.4038ZM9.89449 11.4038C10.2615 11.4038 10.5625 11.7038 10.5625 12.0708C10.5625 12.4388 10.2615 12.7388 9.89449 12.7388C9.52749 12.7388 9.22649 12.4388 9.22649 12.0708C9.22649 11.7038 9.52749 11.4038 9.89449 11.4038ZM7.60529 11.4038C7.97229 11.4038 8.27329 11.7038 8.27329 12.0708C8.27329 12.4388 7.97229 12.7388 7.60529 12.7388C7.23829 12.7388 6.93729 12.4388 6.93729 12.0708C6.93729 11.7038 7.23829 11.4038 7.60529 11.4038ZM5.31619 9.11671C5.68319 9.11671 5.98419 9.41671 5.98419 9.78371C5.98419 10.1507 5.68319 10.4517 5.31619 10.4517C4.94919 10.4517 4.64819 10.1507 4.64819 9.78371C4.64819 9.41671 4.94919 9.11671 5.31619 9.11671ZM12.1835 9.11621C12.5505 9.11621 12.8515 9.41621 12.8515 9.78321C12.8515 10.1512 12.5505 10.4512 12.1835 10.4512C11.8165 10.4512 11.5155 10.1512 11.5155 9.78321C11.5155 9.41621 11.8165 9.11621 12.1835 9.11621ZM9.89449 9.11621C10.2615 9.11621 10.5625 9.41621 10.5625 9.78321C10.5625 10.1512 10.2615 10.4512 9.89449 10.4512C9.52749 10.4512 9.22649 10.1512 9.22649 9.78321C9.22649 9.41621 9.52749 9.11621 9.89449 9.11621ZM7.60529 9.11621C7.97229 9.11621 8.27329 9.41621 8.27329 9.78321C8.27329 10.1512 7.97229 10.4512 7.60529 10.4512C7.23829 10.4512 6.93729 10.1512 6.93729 9.78321C6.93729 9.41621 7.23829 9.11621 7.60529 9.11621Z" fill="white"/>
<path d="M6.5563 14.5952H10.9433M18.4156 14.2788C19.6746 13.0198 19.6746 10.9788 18.4156 9.7198M19.9367 16.377C22.3547 13.959 22.3547 10.039 19.9367 7.622V7.621M13.25 17.5H4.25C3.145 17.5 2.25 16.604 2.25 15.5V8.5C2.25 7.396 3.145 6.5 4.25 6.5H13.25C14.354 6.5 15.25 7.396 15.25 8.5V15.5C15.25 16.604 14.354 17.5 13.25 17.5Z" stroke="white" stroke-width="1.5" stroke-linecap="round" stroke-linejoin="round"/>
</svg>
