<svg width="24" height="24" viewBox="0 0 24 24" fill="none" xmlns="http://www.w3.org/2000/svg">
<path d="M15.5639 4.15253C15.8589 3.86153 15.8629 3.38653 15.5719 3.09153C15.2809 2.79753 14.8059 2.79453 14.5109 3.08553L6.73291 10.7555C6.39691 11.0865 6.21191 11.5295 6.21191 12.0015C6.21191 12.4725 6.39691 12.9165 6.73291 13.2475L14.5109 20.9165C14.6569 21.0595 14.8469 21.1315 15.0379 21.1315C15.2309 21.1315 15.4249 21.0565 15.5719 20.9085C15.8629 20.6135 15.8589 20.1385 15.5639 19.8475L7.78691 12.1785C7.72091 12.1155 7.71191 12.0405 7.71191 12.0015C7.71191 11.9625 7.72091 11.8865 7.78691 11.8235L15.5639 4.15253Z" fill="white"/>
</svg>
