<svg width="24" height="24" viewBox="0 0 24 24" fill="none" xmlns="http://www.w3.org/2000/svg">
<path d="M17.2667 10.7544L9.48967 3.08443C9.19467 2.79343 8.71967 2.79643 8.42867 3.09143C8.13767 3.38643 8.14067 3.86043 8.43567 4.15143L16.2137 11.8224C16.2787 11.8864 16.2877 11.9614 16.2877 12.0004C16.2877 12.0394 16.2787 12.1144 16.2137 12.1784L8.43567 19.8474C8.14067 20.1384 8.13767 20.6124 8.42867 20.9074C8.57567 21.0574 8.76867 21.1314 8.96267 21.1314C9.15267 21.1314 9.34267 21.0594 9.48967 20.9154L17.2667 13.2464C17.6037 12.9154 17.7877 12.4724 17.7877 12.0004C17.7877 11.5274 17.6037 11.0854 17.2667 10.7544Z" fill="white"/>
</svg>
