<svg width="24" height="24" viewBox="0 0 24 24" fill="none" xmlns="http://www.w3.org/2000/svg">
<path d="M14.5659 6.40039L10.2478 17.6004H9.09195L13.41 6.40039H14.5659ZM4.11099 15.5039C4.36347 15.5039 4.55403 15.5734 4.68491 15.7108C4.81499 15.8482 4.87979 16.025 4.87979 16.2377C4.87979 16.4388 4.81499 16.6084 4.68491 16.7466C4.55403 16.8847 4.36347 16.9527 4.11099 16.9527C3.85851 16.9527 3.67003 16.8847 3.54635 16.7466C3.42267 16.6084 3.36011 16.4388 3.36011 16.2377C3.36011 16.025 3.42267 15.8482 3.54635 15.7108C3.67003 15.5734 3.85851 15.5039 4.11099 15.5039ZM19.7633 15.3593C20.0215 15.3593 20.2193 15.4308 20.3524 15.5725C20.4862 15.7143 20.5537 15.8946 20.5537 16.1137C20.5537 16.3199 20.4862 16.4938 20.3524 16.6356C20.2193 16.7774 20.0215 16.8482 19.7633 16.8482C19.5044 16.8482 19.311 16.7774 19.1836 16.6356C19.0571 16.4938 18.9931 16.3199 18.9931 16.1137C18.9931 15.8946 19.0571 15.7143 19.1836 15.5725C19.311 15.4308 19.5044 15.3593 19.7633 15.3593ZM19.7703 9.74167C20.0286 9.74167 20.2257 9.81319 20.3587 9.95703C20.4924 10.1017 20.5601 10.2828 20.5601 10.5012C20.5601 10.7081 20.4924 10.8812 20.3587 11.0201C20.2257 11.1598 20.0286 11.2292 19.7703 11.2292C19.5115 11.2292 19.318 11.1598 19.1907 11.0201C19.0635 10.8812 19.0001 10.7081 19.0001 10.5012C19.0001 10.2828 19.0635 10.1017 19.1907 9.95703C19.318 9.81319 19.5115 9.74167 19.7703 9.74167Z" fill="white"/>
</svg>
