<svg width="24" height="24" viewBox="0 0 24 24" fill="none" xmlns="http://www.w3.org/2000/svg">
<path fill-rule="evenodd" clip-rule="evenodd" d="M1.67863 9.06646C1.80983 9.06646 1.92551 9.01654 2.02551 8.91654C2.12551 8.81654 2.17543 8.70086 2.17543 8.56966C2.17543 8.43206 2.12551 8.31334 2.02551 8.21334C1.92551 8.11334 1.80983 8.06326 1.67863 8.06326C1.54743 8.06326 1.43191 8.11334 1.33175 8.21334C1.23191 8.31334 1.18183 8.43206 1.18183 8.56966C1.18183 8.70086 1.23031 8.81654 1.32711 8.91654C1.42407 9.01654 1.54119 9.06646 1.67863 9.06646ZM7.34119 7.4727C7.10999 8.52278 6.63031 9.33206 5.90199 9.90086C5.17399 10.4697 4.26615 10.754 3.17863 10.754C2.29735 10.754 1.57399 10.5461 1.00839 10.1305C0.442792 9.71494 0.159912 9.20086 0.159912 8.58838C0.159912 8.16326 0.308392 7.80086 0.605192 7.50086C0.902152 7.20086 1.25991 7.05078 1.67863 7.05078C2.09111 7.05078 2.44743 7.20086 2.74743 7.50086C3.04743 7.80086 3.19735 8.15702 3.19735 8.56966C3.19735 9.02582 3.03495 9.39462 2.70983 9.6759C2.79751 9.71958 2.95367 9.7415 3.17863 9.7415C4.89751 9.7415 5.93815 8.98518 6.30055 7.4727H7.34119Z" fill="white"/>
<path fill-rule="evenodd" clip-rule="evenodd" d="M13.5433 9.2276C13.0244 8.4964 12.1871 8.1308 11.0306 8.1308C10.4994 8.1308 10.0668 8.23224 9.73221 8.43544C9.39781 8.63848 9.19653 8.90264 9.12757 9.2276H13.5433ZM15.2775 10.2495H7.89941V10.0526C7.89941 9.23384 8.14965 8.54008 8.64933 7.97128C9.14965 7.40264 9.94325 7.11816 11.0306 7.11816C11.962 7.11816 12.798 7.38696 13.5386 7.9244C14.2791 8.462 14.8589 9.23704 15.2775 10.2495Z" fill="white"/>
<path fill-rule="evenodd" clip-rule="evenodd" d="M22.0232 9.30725C21.5044 8.57605 20.6671 8.21045 19.5106 8.21045C18.9796 8.21045 18.5464 8.31189 18.2122 8.51509C17.8781 8.71813 17.6765 8.98229 17.6076 9.30725H22.0232ZM23.7575 10.3292H16.3794V10.1322C16.3794 9.31349 16.6295 8.61973 17.1295 8.05093C17.6296 7.48229 18.4232 7.19781 19.5106 7.19781C20.7357 7.19781 21.7796 7.64469 22.642 8.53845V6.71973H23.7575V10.3292Z" fill="white"/>
</svg>
