<svg width="24" height="24" viewBox="0 0 24 24" fill="none" xmlns="http://www.w3.org/2000/svg">
<path d="M8.01667 9.16902C8.44157 9.16902 8.78957 9.51702 8.78957 9.94204C8.78957 10.366 8.44157 10.714 8.01667 10.714C7.59165 10.714 7.24463 10.366 7.24463 9.94204C7.24463 9.51702 7.59165 9.16902 8.01667 9.16902ZM16.4834 9.16902C16.9084 9.16902 17.2564 9.51702 17.2564 9.94105C17.2564 10.366 16.9084 10.714 16.4834 10.714C16.0584 10.714 15.7104 10.366 15.7104 9.94105C15.7104 9.51702 16.0584 9.16902 16.4834 9.16902ZM13.6611 9.16902C14.0862 9.16902 14.4342 9.51702 14.4342 9.94105C14.4342 10.366 14.0862 10.714 13.6611 10.714C13.2361 10.714 12.8881 10.366 12.8881 9.94105C12.8881 9.51702 13.2361 9.16902 13.6611 9.16902ZM10.8388 9.16902C11.2639 9.16902 11.6119 9.51702 11.6119 9.94105C11.6119 10.366 11.2639 10.714 10.8388 10.714C10.4138 10.714 10.0658 10.366 10.0658 9.94105C10.0658 9.51702 10.4138 9.16902 10.8388 9.16902ZM8.01667 6.52051C8.44157 6.52051 8.78957 6.86851 8.78957 7.29353C8.78957 7.71745 8.44157 8.06654 8.01667 8.06654C7.59165 8.06654 7.24463 7.71745 7.24463 7.29353C7.24463 6.86851 7.59165 6.52051 8.01667 6.52051ZM16.4834 6.52062C16.9084 6.52062 17.2564 6.86862 17.2564 7.29265C17.2564 7.71756 16.9084 8.06665 16.4834 8.06665C16.0584 8.06665 15.7104 7.71756 15.7104 7.29265C15.7104 6.86862 16.0584 6.52062 16.4834 6.52062ZM13.6611 6.52062C14.0862 6.52062 14.4342 6.86862 14.4342 7.29265C14.4342 7.71756 14.0862 8.06665 13.6611 8.06665C13.2361 8.06665 12.8881 7.71756 12.8881 7.29265C12.8881 6.86862 13.2361 6.52062 13.6611 6.52062ZM10.8388 6.52062C11.2639 6.52062 11.6119 6.86862 11.6119 7.29265C11.6119 7.71756 11.2639 8.06665 10.8388 8.06665C10.4138 8.06665 10.0658 7.71756 10.0658 7.29265C10.0658 6.86862 10.4138 6.52062 10.8388 6.52062Z" fill="white"/>
<path d="M10 12.8632H14.5M3.25 20.0234H21.25M17.625 3.75H6.87498C5.494 3.75 4.37495 4.86895 4.37495 6.24993V13.386C4.37495 14.8119 5.53098 15.968 6.95702 15.968H17.543C18.969 15.968 20.1249 14.8119 20.1249 13.386V6.24993C20.1249 4.86895 19.006 3.75 17.625 3.75Z" stroke="white" stroke-width="1.63636" stroke-linecap="round" stroke-linejoin="round"/>
</svg>
