<svg width="24" height="24" viewBox="0 0 24 24" fill="none" xmlns="http://www.w3.org/2000/svg">
<path d="M6.60885 5.59961C7.16933 5.59961 7.69269 5.66377 8.18069 5.79369C8.66789 5.92361 9.11205 6.11385 9.51237 6.36457C9.88181 6.60617 10.2103 6.89833 10.5004 7.24185C10.7896 7.58553 11.033 7.97433 11.2309 8.40617C11.4287 8.83961 11.5799 9.31225 11.6818 9.82729C11.7845 10.3422 11.8359 10.8881 11.8359 11.4673V11.6922C11.8359 11.7655 11.8336 11.8402 11.8292 11.918C11.802 12.4639 11.7196 12.9548 11.5829 13.3897C11.4461 13.8246 11.2551 14.2014 11.0095 14.5201C10.5034 15.1618 9.84021 15.4828 9.02069 15.4828C8.19125 15.4828 7.64741 15.1257 7.38757 14.4105C7.14213 14.7753 6.86405 15.0441 6.55669 15.2199C6.24997 15.3951 5.92965 15.4828 5.59813 15.4828C4.95077 15.4828 4.45381 15.2146 4.10773 14.677C3.84341 14.2625 3.71205 13.7166 3.71205 13.0378C3.71205 12.9518 3.71349 12.8604 3.71797 12.7646C3.72261 12.6694 3.72933 12.5735 3.73909 12.4775C3.77541 12.1318 3.83653 11.7836 3.92341 11.4326C4.00965 11.0814 4.11909 10.765 4.25205 10.4826C4.39253 10.183 4.55189 9.91641 4.72949 9.68457C4.90773 9.45193 5.10261 9.25337 5.31717 9.09033C5.74997 8.75273 6.20997 8.58441 6.69717 8.58441C7.06581 8.58441 7.39669 8.63417 7.68821 8.73465C7.82949 8.77993 7.98581 8.85401 8.15573 8.95673C8.32725 9.05929 8.50773 9.18313 8.69957 9.32889L8.34389 13.0862C8.33557 13.1495 8.33109 13.2092 8.33109 13.2636V13.4274C8.33109 14.2014 8.60821 14.5887 9.16421 14.5887C9.65141 14.5887 10.0472 14.3449 10.3532 13.857C10.6719 13.3564 10.8404 12.7102 10.8592 11.918C10.8629 11.8266 10.866 11.7369 10.869 11.6508C10.8712 11.5647 10.8728 11.4786 10.8728 11.391C10.8728 10.6081 10.7799 9.91865 10.5956 9.32137C10.4112 8.72569 10.1386 8.22425 9.77909 7.81945C9.41877 7.41401 8.97237 7.10825 8.43669 6.90057C7.90117 6.69369 7.28261 6.58953 6.58085 6.58953C5.68341 6.58953 4.88885 6.81081 4.19685 7.25241C3.49973 7.69417 2.95061 8.33449 2.55029 9.17193C2.36373 9.57209 2.21029 10.0258 2.09173 10.531C1.97381 11.0369 1.90069 11.5503 1.87349 12.0751C1.86821 12.1521 1.86661 12.2351 1.86661 12.3242V12.5658C1.86661 13.327 1.96405 14.0103 2.16053 14.619C2.35605 15.2268 2.63717 15.7425 3.00037 16.1662C3.36533 16.5889 3.81093 16.9143 4.33669 17.1394C4.86245 17.3652 5.45605 17.4724 6.11637 17.4633C6.52197 17.4633 6.92309 17.4135 7.31957 17.3138C7.52885 17.2633 7.72149 17.2058 7.89669 17.1394C8.07189 17.0737 8.23285 16.9967 8.37861 16.9106L8.66565 17.7714C8.51525 17.8711 8.34229 17.9594 8.14597 18.0342C7.95029 18.1097 7.73653 18.1761 7.50309 18.2358C7.28037 18.2855 7.04773 18.3257 6.80293 18.3551C6.55973 18.3846 6.32181 18.3996 6.08917 18.3996C4.95077 18.3996 3.97557 18.1444 3.16517 17.6346C2.75493 17.3794 2.39845 17.0692 2.09557 16.7022C1.79253 16.3353 1.53877 15.9108 1.33333 15.4284C1.15125 15.001 1.01685 14.5465 0.930769 14.0655C0.843889 13.5852 0.800049 13.0695 0.800049 12.5191V12.3001C0.800049 12.2276 0.803089 12.1521 0.807569 12.0751C0.839249 11.474 0.925489 10.8858 1.06741 10.3127C1.20869 9.73897 1.39973 9.21033 1.64069 8.72793C1.89157 8.23625 2.18997 7.79305 2.53589 7.39897C2.88261 7.00553 3.26485 6.67865 3.68485 6.41881C4.54517 5.87289 5.51957 5.59961 6.60885 5.59961ZM15.5365 16.1428C15.8024 16.1428 16.0026 16.2161 16.1402 16.3617C16.276 16.5066 16.3448 16.6924 16.3448 16.9167C16.3448 17.1297 16.276 17.3078 16.1402 17.4535C16.0026 17.5993 15.8024 17.6718 15.5365 17.6718C15.2722 17.6718 15.0751 17.5993 14.9444 17.4535C14.8136 17.3078 14.7495 17.1297 14.7495 16.9167C14.7495 16.6924 14.8136 16.5066 14.9444 16.3617C15.0751 16.2161 15.2722 16.1428 15.5365 16.1428ZM22.542 12.9153V13.8818C22.542 14.3114 22.434 14.7449 22.2194 15.1836C22.1069 15.4026 21.9831 15.6012 21.8485 15.7793C21.7133 15.9583 21.5592 16.1161 21.3871 16.2527L20.6589 15.7498C20.8704 15.4622 21.0282 15.1767 21.1325 14.8929C21.2383 14.6097 21.2949 14.3206 21.3039 14.0238V12.9153H22.542ZM6.80677 9.54041C6.30053 9.54041 5.87989 9.80233 5.54229 10.3257C5.36997 10.5906 5.23173 10.9025 5.12981 11.2618C5.02709 11.6214 4.95221 12.0313 4.90773 12.4911C4.89861 12.5735 4.89109 12.6527 4.88661 12.7305C4.88197 12.8076 4.88053 12.8801 4.88053 12.9487C4.88053 13.4274 4.96821 13.7929 5.14261 14.045C5.31861 14.298 5.57237 14.4241 5.90485 14.4241C6.02789 14.4241 6.15333 14.3946 6.28101 14.3358C6.40789 14.2769 6.53029 14.1894 6.64581 14.0761C6.76293 13.9628 6.87237 13.8254 6.97813 13.666C7.08309 13.5068 7.17301 13.327 7.25077 13.1262C7.25077 13.1178 7.25157 13.1089 7.25461 13.099C7.25685 13.09 7.25765 13.0817 7.25765 13.0718L7.57189 9.71097C7.33925 9.59689 7.08469 9.54041 6.80677 9.54041ZM21.897 7.36137C22.1546 7.36137 22.3509 7.43305 22.4831 7.57657C22.616 7.72073 22.6832 7.90201 22.6832 8.12089C22.6832 8.32777 22.616 8.50073 22.4831 8.64041C22.3509 8.78009 22.1546 8.84953 21.897 8.84953C21.6386 8.84953 21.446 8.78009 21.3191 8.64041C21.193 8.50073 21.1295 8.32777 21.1295 8.12089C21.1295 7.90201 21.193 7.72073 21.3191 7.57657C21.446 7.43305 21.6386 7.36137 21.897 7.36137Z" fill="white"/>
</svg>
