<svg width="24" height="24" viewBox="0 0 24 24" fill="none" xmlns="http://www.w3.org/2000/svg">
<path d="M12.0009 8.71289C12.0399 8.71289 12.1149 8.72289 12.1789 8.78689L19.8479 16.5649C19.9939 16.7139 20.1889 16.7879 20.3819 16.7879C20.5719 16.7879 20.7629 16.7169 20.9079 16.5719C21.2029 16.2809 21.2069 15.8069 20.9159 15.5119L13.2469 7.73389C12.9159 7.39789 12.4739 7.21289 12.0009 7.21289C11.5289 7.21289 11.0869 7.39789 10.7549 7.73389L3.08492 15.5119C2.79392 15.8069 2.79692 16.2809 3.09192 16.5719C3.38692 16.8629 3.86192 16.8589 4.15192 16.5649L11.8229 8.78689C11.8869 8.72289 11.9619 8.71289 12.0009 8.71289Z" fill="white"/>
</svg>
