<svg width="24" height="24" viewBox="0 0 24 24" fill="none" xmlns="http://www.w3.org/2000/svg">
<path fill-rule="evenodd" clip-rule="evenodd" d="M3.58572 6.09082L1.12012 9.92506H2.61084L5.68588 6.09082H3.58572Z" fill="white"/>
<path fill-rule="evenodd" clip-rule="evenodd" d="M13.1115 6.09082L15.5771 9.92522H14.0865L11.0115 6.09082H13.1115Z" fill="white"/>
<path fill-rule="evenodd" clip-rule="evenodd" d="M22.1093 10.0953H20.8208L20.8112 8.5452C21.1017 8.52584 21.3377 8.49688 21.5184 8.45816C21.6992 8.41928 21.8414 8.36936 21.9446 8.30792C22.048 8.24664 22.119 8.17224 22.1577 8.0852C22.1965 7.998 22.2158 7.89944 22.2158 7.78968C22.2158 7.57016 22.0917 7.3844 21.8429 7.23256C21.5944 7.08088 21.1827 7.00504 20.6077 7.00504L20.6755 5.91992C21.6443 5.91992 22.3757 6.09272 22.8697 6.43832C23.3638 6.78376 23.6109 7.24712 23.6109 7.8284C23.6109 8.29336 23.4736 8.65192 23.1992 8.90376C22.9246 9.1556 22.5646 9.31384 22.119 9.37848L22.1093 10.0953Z" fill="white"/>
</svg>
