<svg width="24" height="24" viewBox="0 0 24 24" fill="none" xmlns="http://www.w3.org/2000/svg">
<path d="M14.6964 15.1406C14.4489 15.1406 14.2634 15.2092 14.1398 15.3457C14.0161 15.4825 13.9541 15.655 13.9541 15.8633C13.9541 16.0717 14.0161 16.243 14.1398 16.3777C14.2634 16.5122 14.4489 16.5796 14.6964 16.5796C14.9438 16.5796 15.1316 16.5122 15.2597 16.3777C15.3876 16.243 15.4516 16.0717 15.4516 15.8633C15.4516 15.655 15.3876 15.4822 15.2597 15.3457C15.1316 15.2092 14.9438 15.1406 14.6964 15.1406Z" fill="white"/>
<path d="M16.7993 7.60133C16.5691 7.38426 16.2933 7.2184 15.9726 7.1032C15.6513 6.98826 15.2869 6.93066 14.8789 6.93066C14.0931 6.93066 13.4486 7.14973 12.9451 7.58813C12.6975 7.8052 12.5114 8.05906 12.3854 8.34986C12.2597 8.64053 12.1946 8.97053 12.1899 9.33946H13.4726C13.4726 8.93573 13.6009 8.62106 13.8566 8.3952C14.1083 8.17386 14.449 8.06333 14.8789 8.06333C15.3129 8.06333 15.6441 8.18586 15.8715 8.43093C16.0997 8.67626 16.2134 9.01813 16.2134 9.45653C16.2134 9.67786 16.1678 9.89706 16.0767 10.114C15.9854 10.3309 15.8553 10.5373 15.6862 10.7325L14.8462 11.6052C14.6811 11.7917 14.5423 11.9675 14.4294 12.1325C14.3166 12.2976 14.2319 12.4557 14.1753 12.6079C14.119 12.7555 14.0777 12.9344 14.0517 13.1449C14.0257 13.3555 14.0107 13.5973 14.0062 13.8709H15.2822C15.2822 13.2069 15.4341 12.7035 15.7379 12.3605L16.441 11.6704C17.1441 10.9283 17.4959 10.1773 17.4959 9.41786C17.4959 9.04026 17.4351 8.6984 17.3137 8.3924C17.1919 8.08626 17.0203 7.82266 16.7993 7.60133Z" fill="white"/>
<path d="M19.8228 13.8727L19.9136 7.06934H18.5791L18.6638 13.8727H19.8228Z" fill="white"/>
<path d="M19.8386 15.3534C19.7104 15.2166 19.5232 15.1484 19.2758 15.1484C19.028 15.1484 18.8424 15.2167 18.7189 15.3534C18.5953 15.4902 18.5334 15.6624 18.5334 15.8707C18.5334 16.0791 18.5953 16.2508 18.7189 16.3852C18.8424 16.5198 19.028 16.5872 19.2758 16.5872C19.5232 16.5872 19.7104 16.5198 19.8386 16.3852C19.9669 16.2508 20.031 16.0791 20.031 15.8707C20.031 15.6624 19.9669 15.4902 19.8386 15.3534Z" fill="white"/>
<path d="M10.4691 14.5508C9.9534 14.5508 9.51954 14.7248 9.16794 15.0717C8.81607 15.4189 8.64087 15.8345 8.64087 16.3198C8.64087 16.8046 8.81394 17.221 9.1614 17.568C9.5082 17.9152 9.94394 18.0882 10.4691 18.0882C10.9585 18.0882 11.3769 17.9152 11.7242 17.568C12.071 17.2212 12.2449 16.8045 12.2449 16.3198C12.2449 15.8346 12.071 15.4192 11.7242 15.0717C11.377 14.7242 10.9585 14.5508 10.4691 14.5508ZM11.1167 17.027C10.9253 17.2184 10.7097 17.3141 10.4691 17.3141C9.8106 17.3048 9.4814 16.9709 9.4814 16.3122C9.4814 15.6893 9.8106 15.3781 10.4691 15.3781C11.0918 15.3781 11.4041 15.6893 11.4041 16.3122C11.4041 16.5978 11.3082 16.8354 11.1167 17.027Z" fill="white"/>
<path d="M5.1875 14.4961L4.3999 15.1104C5.52137 15.9466 6.4291 16.9216 7.1227 18.0332L7.89684 17.353C7.3451 16.4448 6.44204 15.4929 5.1875 14.4961Z" fill="white"/>
</svg>
