<svg width="24" height="24" viewBox="0 0 24 24" fill="none" xmlns="http://www.w3.org/2000/svg">
<path fill-rule="evenodd" clip-rule="evenodd" d="M15.529 12.5126C14.977 12.5126 14.529 12.0646 14.529 11.5126C14.529 10.9606 14.977 10.5126 15.529 10.5126C16.081 10.5126 16.529 10.9606 16.529 11.5126C16.529 12.0646 16.081 12.5126 15.529 12.5126ZM15.588 15.4476C14.72 16.5526 13.412 17.1856 12 17.1856C10.588 17.1856 9.28001 16.5526 8.41101 15.4476C8.19801 15.1756 8.24501 14.7836 8.51601 14.5696C8.78801 14.3566 9.18101 14.4036 9.39401 14.6746C10.024 15.4766 10.974 15.9356 12 15.9356C13.026 15.9356 13.976 15.4766 14.605 14.6746C14.819 14.4036 15.212 14.3566 15.483 14.5696C15.755 14.7826 15.801 15.1756 15.588 15.4476ZM7.47001 11.5126C7.47001 10.9606 7.91801 10.5126 8.47001 10.5126C9.02301 10.5126 9.47001 10.9606 9.47001 11.5126C9.47001 12.0646 9.02301 12.5126 8.47001 12.5126C7.91801 12.5126 7.47001 12.0646 7.47001 11.5126ZM21.568 11.8566C21.568 10.6846 20.649 9.73158 19.518 9.73158C19.496 9.73158 19.474 9.73458 19.452 9.73458C18.644 6.89758 16.257 4.72158 13.305 4.21858C13.582 4.57858 13.797 5.00658 13.889 5.51558C14.161 7.00858 13.559 7.74558 13.177 8.05358C12.817 8.34158 12.361 8.49158 11.9 8.49158C11.626 8.49158 11.351 8.43858 11.093 8.33058C10.208 7.95658 9.76901 7.12758 9.92101 6.11258C9.97101 5.77058 10.29 5.53558 10.631 5.58658C10.972 5.63758 11.208 5.95558 11.157 6.29658C11.058 6.95958 11.45 7.12458 11.579 7.17858C11.797 7.27058 12.145 7.27858 12.395 7.07758C12.681 6.84858 12.775 6.37258 12.659 5.73958C12.519 4.96458 11.841 4.45058 11.257 4.14258C8.04901 4.44958 5.40701 6.72058 4.54801 9.73458C4.52501 9.73458 4.50401 9.73158 4.48101 9.73158C3.35101 9.73158 2.43201 10.6846 2.43201 11.8566C2.43201 13.0156 3.33301 13.9606 4.44701 13.9796C5.23501 18.0066 8.32101 19.8566 12 19.8566C15.679 19.8566 18.764 18.0066 19.553 13.9796C20.667 13.9606 21.568 13.0156 21.568 11.8566Z" fill="white"/>
</svg>
