<svg width="24" height="24" viewBox="0 0 24 24" fill="none" xmlns="http://www.w3.org/2000/svg">
<path fill-rule="evenodd" clip-rule="evenodd" d="M13.4325 15.333H10.5672L11.0156 11.7341C10.4101 11.3903 10 10.7407 10 9.99708C10 8.89614 10.8966 7.99967 11.9999 7.99967C13.1023 7.99967 14 8.89614 14 9.99708C14 10.7407 13.5893 11.3903 12.9839 11.7338L13.4325 15.333ZM12.0006 1.33301C9.21914 2.69761 6.71708 3.57881 3.33334 3.86754V11.9206C3.33334 15.0144 4.68854 17.7211 7.35614 19.9668C9.20821 21.5224 11.2081 22.4045 12.0006 22.6663C12.7919 22.4045 14.7933 21.5224 16.6447 19.9668C19.3118 17.7211 20.6667 15.0144 20.6667 11.9206V3.86754C17.2826 3.57881 14.7817 2.69761 12.0006 1.33301Z" fill="white"/>
</svg>
