<svg width="24" height="24" viewBox="0 0 24 24" fill="none" xmlns="http://www.w3.org/2000/svg">
<path fill-rule="evenodd" clip-rule="evenodd" d="M16.0151 3.5L16.1168 3.5068C16.4828 3.5564 16.7651 3.8696 16.7651 4.25L16.7583 4.3517C16.7086 4.7177 16.3946 5 16.0151 5H15.2651V9.889L19.4511 17.23L19.5231 17.3958C19.76 18.0105 19.6968 18.6956 19.3411 19.263L19.2472 19.4011C18.8523 19.9356 18.233 20.25 17.5601 20.25H6.60505L6.43805 20.2435C5.77525 20.1918 5.18025 19.8335 4.82305 19.263L4.73355 19.1055C4.43185 18.5182 4.42255 17.8304 4.71405 17.23L4.73805 17.185L8.90005 9.889V5H8.14905L8.04735 4.9931C7.68125 4.9435 7.39805 4.6295 7.39805 4.25L7.40495 4.1481C7.45475 3.7815 7.76955 3.5 8.14905 3.5H16.0151ZM16.0813 14.344L16.0821 14.375H8.08205L8.08125 14.348L6.05305 17.9053C5.97105 18.0903 5.98705 18.2943 6.09605 18.4683C6.20705 18.6463 6.39305 18.7503 6.60405 18.7503H17.5611C17.7721 18.7503 17.9571 18.6473 18.0691 18.4683C18.1821 18.2883 18.1941 18.0753 18.1021 17.8843L16.0813 14.344ZM13.7661 5.0003H10.3991V10.2863L8.92125 12.875H15.2423L13.7661 10.2863V5.0003Z" fill="white"/>
</svg>
