<svg width="24" height="24" viewBox="0 0 24 24" fill="none" xmlns="http://www.w3.org/2000/svg">
<path fill-rule="evenodd" clip-rule="evenodd" d="M10.317 10.412V5.297H13.683V10.412L15.33 13.299H8.66998L10.317 10.412ZM4.63098 17.355C4.31298 18.011 4.35398 18.77 4.74098 19.389C5.12798 20.006 5.79398 20.375 6.52198 20.375H17.478C18.207 20.375 18.873 20.006 19.259 19.389C19.646 18.77 19.687 18.011 19.369 17.355L15.183 10.014V5.125H15.933C16.347 5.125 16.683 4.789 16.683 4.375C16.683 3.961 16.347 3.625 15.933 3.625H8.06598C7.65198 3.625 7.31598 3.961 7.31598 4.375C7.31598 4.789 7.65198 5.125 8.06598 5.125H8.81698V10.014L4.65498 17.311L4.63098 17.355Z" fill="white"/>
</svg>
