<svg width="24" height="24" viewBox="0 0 24 24" fill="none" xmlns="http://www.w3.org/2000/svg">
<path d="M21 19H3" stroke="white" stroke-width="1.75" stroke-linecap="round" stroke-linejoin="round"/>
<path fill-rule="evenodd" clip-rule="evenodd" d="M5.50029 4H18.4997C19.1627 4 19.7985 4.2633 20.2674 4.73201C20.7363 5.20072 20.9998 5.83646 21 6.49943V13.4997C21 13.8281 20.9353 14.1532 20.8097 14.4565C20.684 14.7599 20.4999 15.0355 20.2677 15.2677C20.0355 15.4999 19.7599 15.684 19.4565 15.8097C19.1532 15.9353 18.8281 16 18.4997 16H5.50029C5.17194 16 4.84682 15.9353 4.54347 15.8097C4.24012 15.684 3.96449 15.4999 3.73232 15.2677C3.50014 15.0355 3.31597 14.7599 3.19032 14.4565C3.06467 14.1532 3 13.8281 3 13.4997V6.49943C3.00023 5.83646 3.26375 5.20072 3.73262 4.73201C4.20149 4.2633 4.83732 4 5.50029 4Z" stroke="white" stroke-width="1.75" stroke-linecap="round" stroke-linejoin="round"/>
</svg>
