<svg width="24" height="24" viewBox="0 0 24 24" fill="none" xmlns="http://www.w3.org/2000/svg">
<path d="M18.9876 14.3271C21.0079 14.3271 22.6549 16.0207 22.6549 18.0874C22.6549 20.0874 21.1125 21.7381 19.182 21.8425L18.9876 21.8477H15.7179C15.534 21.8477 15.3805 21.7172 15.345 21.5438L15.3372 21.467V19.6292C15.3372 19.4453 15.4677 19.2918 15.6412 19.2563L15.7179 19.2485H18.9008C19.5127 19.2485 20.0194 18.7275 20.0194 18.0874C20.0194 17.49 19.578 16.9963 19.0216 16.9331L18.9008 16.9263H15.7179C15.534 16.9263 15.3805 16.7958 15.345 16.6223L15.3372 16.5456V14.7078C15.3372 14.5238 15.4677 14.3703 15.6412 14.3348L15.7179 14.3271H18.9876ZM18.0031 15.0878V16.1642L18.9008 16.1649C19.9381 16.1649 20.7808 17.0315 20.7808 18.0874C20.7808 19.093 20.0164 19.9269 19.0476 20.004L18.9008 20.0099L18.0031 20.0091V21.0855L18.9876 21.0864C20.4706 21.0864 21.708 19.921 21.8745 18.4304L21.8889 18.257L21.8936 18.0874C21.8936 16.4955 20.6746 15.1852 19.1574 15.0936L18.9876 15.0885L18.0031 15.0878ZM17.2417 20.0091H16.0977V21.0855H17.2417V20.0091ZM7.72128 17.7643C7.91428 17.4293 8.34228 17.3142 8.67728 17.5072C8.86108 17.6131 9.04948 17.7109 9.24198 17.8002L9.18458 17.7719L9.52758 17.8544C9.66278 17.886 9.79528 17.9163 9.92488 17.9451L10.3054 18.0274C10.6838 18.1068 10.9262 18.4778 10.8468 18.8562C10.7675 19.2346 10.3964 19.4769 10.018 19.3976C9.63008 19.3162 9.21768 19.222 8.78088 19.1151L8.65258 19.0701C8.42278 18.9635 8.19778 18.8468 7.97828 18.7203C7.64338 18.5273 7.52828 18.0993 7.72128 17.7643ZM4.74368 13.7232C5.09968 13.5726 5.51038 13.739 5.66108 14.095L5.81608 14.4364C6.02918 14.8756 6.28418 15.2881 6.57758 15.6702C6.81308 15.9769 6.75538 16.4163 6.44878 16.6518C6.14218 16.8872 5.70268 16.8295 5.46728 16.5229C5.02848 15.9516 4.66168 15.3236 4.37538 14.6491L4.34068 14.5508C4.25018 14.218 4.41728 13.8614 4.74368 13.7232ZM17.2417 15.0878H16.0977V16.1642H17.2417V15.0878ZM12.551 8.3574C12.8492 8.3574 13.0966 8.575 13.1431 8.8601L13.151 8.9574L13.1507 10.8566L15.051 10.8574C15.3824 10.8574 15.651 11.126 15.651 11.4574C15.651 11.7556 15.4334 12.003 15.1483 12.0495L15.051 12.0574L13.1507 12.0566L13.151 13.9574C13.151 14.2888 12.8824 14.5574 12.551 14.5574C12.2528 14.5574 12.0053 14.3398 11.9588 14.0547L11.951 13.9574L11.9507 12.0566L10.051 12.0574C9.71958 12.0574 9.45098 11.7888 9.45098 11.4574C9.45098 11.1592 9.66858 10.9117 9.95368 10.8652L10.051 10.8574L11.9507 10.8566L11.951 8.9574C11.951 8.626 12.2196 8.3574 12.551 8.3574ZM3.93378 9.291C4.02488 8.9153 4.40328 8.6846 4.77908 8.7757C5.15478 8.8667 5.38548 9.2452 5.29438 9.6209C5.15078 10.2133 5.08298 10.8217 5.09368 11.4314C5.10048 11.818 4.79258 12.1368 4.40608 12.1436C4.01958 12.1504 3.70068 11.8426 3.69388 11.456C3.68108 10.7266 3.76218 9.9991 3.93378 9.291ZM18.3661 6.302C18.686 6.0849 19.1213 6.1683 19.3384 6.4882C19.6502 6.9478 19.9181 7.4393 20.1383 7.9581C20.2042 8.1133 20.2653 8.2694 20.3215 8.4264C20.4519 8.7904 20.2625 9.1911 19.8985 9.3214C19.5346 9.4518 19.1339 9.2624 19.0035 8.8985C18.9564 8.7668 18.9051 8.6357 18.8496 8.5051C18.665 8.0701 18.4407 7.6587 18.1799 7.2743C17.9628 6.9543 18.0462 6.519 18.3661 6.302ZM6.80218 4.6999C7.10038 4.4538 7.54158 4.4959 7.78768 4.7941C8.03378 5.0922 7.99158 5.5334 7.69348 5.7795C7.22258 6.1682 6.80498 6.6152 6.44898 7.1093C6.22308 7.423 5.78558 7.4941 5.47188 7.2681C5.15818 7.0422 5.08708 6.6047 5.31308 6.291C5.73878 5.7 6.23858 5.1651 6.80218 4.6999ZM14.1342 3.6359C14.2592 3.2701 14.6571 3.0749 15.023 3.1999C15.7122 3.4356 16.3694 3.7579 16.9774 4.159C17.3001 4.3719 17.3892 4.8061 17.1763 5.1288C16.9634 5.4515 16.5292 5.5405 16.2065 5.3276C15.6976 4.9919 15.1473 4.722 14.5701 4.5247C14.2043 4.3996 14.0091 4.0017 14.1342 3.6359ZM11.7182 2.7553C12.104 2.7311 12.4365 3.0242 12.4607 3.41C12.485 3.7958 12.1919 4.1283 11.8061 4.1526C11.2012 4.1906 10.6014 4.3061 10.0181 4.4987C9.65098 4.62 9.25518 4.4207 9.13388 4.0536C9.01258 3.6865 9.21188 3.2906 9.57898 3.1694C10.2763 2.9391 10.9942 2.8009 11.7182 2.7553Z" fill="white"/>
</svg>
