<svg width="24" height="24" viewBox="0 0 24 24" fill="none" xmlns="http://www.w3.org/2000/svg">
<path d="M13.3182 2.18164C15.9437 2.18164 18.4109 3.20204 20.2635 5.05354C20.5788 5.36894 20.5788 5.88024 20.2635 6.19564C19.9481 6.51104 19.4378 6.51104 19.1224 6.19564C17.5745 4.64774 15.5131 3.79624 13.3182 3.79624C11.1234 3.79624 9.062 4.64774 7.5141 6.19564C5.9672 7.74354 5.1147 9.80394 5.1147 11.9998C5.1147 14.1947 5.9672 16.2561 7.5141 17.804C9.062 19.3508 11.1234 20.2034 13.3182 20.2034C15.5131 20.2034 17.5745 19.3508 19.1224 17.804C19.4378 17.4886 19.9481 17.4886 20.2635 17.804C20.5788 18.1183 20.5788 18.6296 20.2635 18.945C18.4109 20.7976 15.9448 21.818 13.3182 21.818C10.6928 21.818 8.2256 20.7976 6.373 18.945C4.5194 17.0925 3.5 14.6263 3.5 11.9998C3.5 9.37334 4.5205 6.90614 6.373 5.05354C8.2256 3.20204 10.6928 2.18164 13.3182 2.18164ZM13.9269 8.06124C14.2358 7.73934 14.7471 7.72864 15.069 8.03754L18.1713 11.0107C18.4393 11.2679 18.5932 11.6285 18.5932 11.9999C18.5932 12.3713 18.4393 12.7308 18.1713 12.9881L15.069 15.9612C14.9118 16.1119 14.7116 16.1862 14.5103 16.1862C14.2982 16.1862 14.0851 16.1033 13.9269 15.9375C13.619 15.6157 13.6298 15.1054 13.9505 14.7965L16.0335 12.8008H8.9053C8.4596 12.8008 8.0979 12.4391 8.0979 11.9934C8.0979 11.5478 8.4596 11.1861 8.9053 11.1861H16.0205L13.9505 9.20334C13.6298 8.89444 13.619 8.38314 13.9269 8.06124Z" fill="white"/>
</svg>
