<svg width="24" height="24" viewBox="0 0 24 24" fill="none" xmlns="http://www.w3.org/2000/svg">
<path d="M7.63981 4.47376C5.31531 6.79826 5.25072 10.5374 7.44612 12.9404L7.81361 13.3246C8.14461 13.6864 8.37701 14.0393 8.52861 14.3729L8.55821 14.4433L8.55811 17.1029C8.55811 17.9422 9.23842 18.6224 10.0775 18.6224H13.8175L13.9638 18.6155C14.7343 18.5419 15.3369 17.8928 15.3369 17.1031L15.3364 14.5555L15.3066 14.6381C15.4405 14.2385 15.6963 13.7983 16.1123 13.3404L16.3006 13.1431C18.6249 10.8187 18.6895 7.08816 16.4943 4.67716L16.3006 4.47376C13.9097 2.08296 10.0306 2.08296 7.63981 4.47376ZM15.2893 5.12456L15.4733 5.29946C17.3482 7.18166 17.4068 10.187 15.6498 12.1318L15.4741 12.3166C14.8162 12.9745 14.4083 13.6404 14.1984 14.2666L14.1681 14.4523V17.1031C14.1681 17.2967 14.0111 17.4537 13.8175 17.4537H10.0775C9.88392 17.4537 9.72691 17.2967 9.72691 17.1031L9.72782 14.3291L9.68922 14.1198C9.49212 13.6055 9.16501 13.0721 8.68251 12.543L8.46621 12.3166C6.53181 10.3822 6.53181 7.23466 8.46621 5.30026C10.3402 3.42626 13.3447 3.36766 15.2893 5.12456Z" fill="white"/>
<path d="M14.3167 20.126C14.6963 20.126 15.0042 20.4339 15.0042 20.8135C15.0042 21.1587 14.7498 21.4445 14.4182 21.4936L14.3167 21.501H9.72821C9.34851 21.501 9.04071 21.1932 9.04071 20.8135C9.04071 20.4684 9.29511 20.1826 9.62661 20.1335L9.72821 20.126H14.3167Z" fill="white"/>
</svg>
