<svg width="24" height="24" viewBox="0 0 24 24" fill="none" xmlns="http://www.w3.org/2000/svg">
<path fill-rule="evenodd" clip-rule="evenodd" d="M19.5325 10.312C19.5395 9.40995 18.7165 8.78295 17.9115 8.77395H13.8415C13.8415 8.77395 13.9235 8.20795 14.0825 7.05595C14.4605 4.32595 13.3055 2.81295 12.0085 2.87695C11.8535 2.88495 11.5585 2.93095 11.4335 3.11295C11.2165 3.42895 11.2145 5.91995 11.2145 5.91995C11.2145 5.91995 10.5655 8.30695 8.0405 9.75495C7.4405 10.099 6.1635 10.349 5.7495 10.528C4.9695 10.866 4.4675 11.636 4.4675 12.487V16.314C4.4675 18.972 6.6215 21.125 9.2785 21.125H14.0095C16.6535 21.125 17.7285 20.761 18.2975 20.062C18.9745 19.226 18.3205 18.046 17.5165 18.04H17.7835C18.5885 18.046 19.0805 17.493 19.0875 16.592C19.0945 15.691 18.6135 15.136 17.8095 15.129H17.7605C18.5645 15.136 19.3475 14.441 19.3545 13.541C19.3615 12.639 18.8575 11.959 18.0535 11.951H18.0515C18.9965 11.951 19.5255 11.213 19.5325 10.312Z" fill="white"/>
</svg>
