<svg width="24" height="24" viewBox="0 0 24 24" fill="none" xmlns="http://www.w3.org/2000/svg">
<path d="M10.496 13.508H18.356C19.183 13.508 19.856 13.085 19.856 12.258V6C19.856 5.173 19.183 4.5 18.356 4.5H7.399C6.572 4.5 5.899 5.173 5.899 6V8.73M10.5 16.931H20.75M5.91 17.235H7.66M8.825 9.143C9.651 9.143 10.32 9.812 10.32 10.637V18.007C10.32 18.831 9.651 19.5 8.825 19.5H4.743C3.919 19.5 3.25 18.831 3.25 18.007V10.637C3.25 9.812 3.919 9.143 4.743 9.143H8.825Z" stroke="white" stroke-width="1.5" stroke-linecap="round" stroke-linejoin="round"/>
</svg>
