<svg width="24" height="24" viewBox="0 0 24 24" fill="none" xmlns="http://www.w3.org/2000/svg">
<path d="M10.2459 14.008H18.1059C18.9329 14.008 19.6059 13.585 19.6059 12.758V6.5C19.6059 5.673 18.9329 5 18.1059 5H7.1489C6.3219 5 5.6489 5.673 5.6489 6.5V9.23M10.2498 17.4314H20.4998M5.6599 17.7351H7.4099M8.575 9.6428C9.401 9.6428 10.07 10.3118 10.07 11.1368V18.5068C10.07 19.3308 9.401 19.9998 8.575 19.9998H4.493C3.669 19.9998 3 19.3308 3 18.5068V11.1368C3 10.3118 3.669 9.6428 4.493 9.6428H8.575Z" stroke="white" stroke-width="1.5" stroke-linecap="round" stroke-linejoin="round"/>
</svg>
