<svg width="24" height="24" viewBox="0 0 24 24" fill="none" xmlns="http://www.w3.org/2000/svg">
<path d="M15.3306 13.6351L13.0251 15.8848L12.1172 14.9541L13.4684 13.6351L12.1172 12.3177L13.0242 11.387L15.3306 13.6351Z" fill="white"/>
<path d="M7.53568 12.7729C8.0185 12.7729 8.41053 13.1589 8.41053 13.6359C8.41034 14.1119 8.01839 14.498 7.53568 14.4981C7.05292 14.4981 6.66186 14.1119 6.66167 13.6359C6.66167 13.1589 7.05281 12.7729 7.53568 12.7729Z" fill="white"/>
<path d="M10.4132 12.7729C10.8951 12.7729 11.2864 13.1589 11.2864 13.6359C11.2862 14.1119 10.895 14.498 10.4132 14.4981C9.93138 14.4981 9.53939 14.1119 9.5392 13.6359C9.5392 13.1589 9.93126 12.7729 10.4132 12.7729Z" fill="white"/>
<path fill-rule="evenodd" clip-rule="evenodd" d="M13.086 6C16.0463 6.00037 18.524 8.11023 19.0466 10.8997C20.7741 11.1593 22.1112 12.6366 22.1112 14.4295C22.1109 16.4071 20.4855 17.9997 18.5035 18H7.6702C5.68684 18 4.06192 16.4072 4.06166 14.4295C4.06166 12.6369 5.3975 11.1595 7.12533 10.8997C7.64857 8.11021 10.1258 6 13.086 6ZM13.086 7.30043C10.5993 7.30043 8.5615 9.18683 8.34284 11.5698L8.28869 12.1603H7.69559C7.68466 12.1603 7.67471 12.1597 7.66767 12.1595C6.38732 12.1607 5.36124 13.1866 5.36124 14.4295C5.36151 15.674 6.38911 16.7004 7.6702 16.7004H18.5035C19.7835 16.7001 20.8113 15.6737 20.8116 14.4295C20.8116 13.1868 19.7847 12.1607 18.5051 12.1595C18.4978 12.1597 18.4874 12.1603 18.4764 12.1603H17.8833L17.83 11.5698C17.6122 9.18753 15.5735 7.30083 13.086 7.30043Z" fill="white"/>
<path d="M2.67577 12.8584C3.10984 12.8586 3.45994 13.2064 3.46009 13.6351C3.46009 14.0638 3.10994 14.4115 2.67577 14.4118C2.2405 14.4118 1.88892 14.064 1.88892 13.6351C1.88907 13.2063 2.24059 12.8584 2.67577 12.8584Z" fill="white"/>
</svg>
