<svg width="24" height="24" viewBox="0 0 24 24" fill="none" xmlns="http://www.w3.org/2000/svg">
<path fill-rule="evenodd" clip-rule="evenodd" d="M7.112 10.0778C8.96 8.22975 11.981 8.22975 13.829 10.0778C14.121 10.3708 14.121 10.8457 13.829 11.1377C13.536 11.4307 13.061 11.4307 12.768 11.1377C11.506 9.87575 9.435 9.87575 8.173 11.1377L5.697 13.6138C4.434 14.8768 4.434 16.9477 5.697 18.2097C6.96 19.4727 9.031 19.4727 10.293 18.2097L11.531 16.9727C11.824 16.6797 12.299 16.6797 12.592 16.9727C12.885 17.2657 12.884 17.7408 12.591 18.0338L11.354 19.2698C9.506 21.1188 6.485 21.1188 4.636 19.2698C2.788 17.4228 2.788 14.4018 4.636 12.5538L7.112 10.0778ZM12.553 4.63675C14.401 2.78775 17.422 2.78775 19.271 4.63675C21.119 6.48475 21.119 9.50475 19.271 11.3527L16.795 13.8288C14.947 15.6768 11.926 15.6768 10.079 13.8288C9.786 13.5358 9.786 13.0618 10.079 12.7688C10.371 12.4758 10.846 12.4758 11.139 12.7688C12.401 14.0308 14.472 14.0308 15.735 12.7688L18.211 10.2928C19.473 9.03075 19.473 6.95875 18.211 5.69675C16.947 4.43375 14.876 4.43375 13.613 5.69675L12.376 6.93375C12.083 7.22675 11.608 7.22675 11.316 6.93375C11.023 6.64075 11.023 6.16675 11.316 5.87375L12.553 4.63675Z" fill="white"/>
</svg>
