<svg width="24" height="24" viewBox="0 0 24 24" fill="none" xmlns="http://www.w3.org/2000/svg">
<path fill-rule="evenodd" clip-rule="evenodd" d="M20.1105 10.84C20.5135 10.84 20.6635 11.071 20.7095 11.17C20.7555 11.269 20.8345 11.5319 20.5735 11.8389L18.2675 14.47V18.9259C18.2675 19.3399 17.9315 19.6759 17.5175 19.6759C17.1035 19.6759 16.7675 19.3399 16.7675 18.9259V14.46L14.4605 11.8389C14.1995 11.5319 14.2785 11.269 14.3245 11.17C14.3705 11.071 14.5205 10.84 14.9235 10.84H20.1105ZM11.4927 17.7104C11.9067 17.7104 12.2427 18.0465 12.2427 18.4604C12.2427 18.8744 11.9067 19.2104 11.4927 19.2104H9.99268C9.57768 19.2104 9.24268 18.8744 9.24268 18.4604C9.24268 18.0465 9.57768 17.7104 9.99268 17.7104H11.4927ZM5.99268 17.7104C6.40668 17.7104 6.74268 18.0465 6.74268 18.4604C6.74268 18.8744 6.40668 19.2104 5.99268 19.2104H3.99268C3.57768 19.2104 3.24268 18.8744 3.24268 18.4604C3.24268 18.0465 3.57768 17.7104 3.99268 17.7104H5.99268ZM11.4927 11.0172C11.9067 11.0172 12.2427 11.3531 12.2427 11.7672C12.2427 12.1812 11.9067 12.5172 11.4927 12.5172H9.99268C9.57768 12.5172 9.24268 12.1812 9.24268 11.7672C9.24268 11.3531 9.57768 11.0172 9.99268 11.0172H11.4927ZM5.99268 11.0172C6.40668 11.0172 6.74268 11.3531 6.74268 11.7672C6.74268 12.1812 6.40668 12.5172 5.99268 12.5172H3.99268C3.57768 12.5172 3.24268 12.1812 3.24268 11.7672C3.24268 11.3531 3.57768 11.0172 3.99268 11.0172H5.99268ZM19.7427 4.32324C20.1567 4.32324 20.4927 4.65924 20.4927 5.07324C20.4927 5.48724 20.1567 5.82324 19.7427 5.82324H9.99268C9.57768 5.82324 9.24268 5.48724 9.24268 5.07324C9.24268 4.65924 9.57768 4.32324 9.99268 4.32324H19.7427ZM5.99268 4.32324C6.40668 4.32324 6.74268 4.65924 6.74268 5.07324C6.74268 5.48724 6.40668 5.82324 5.99268 5.82324H3.99268C3.57768 5.82324 3.24268 5.48724 3.24268 5.07324C3.24268 4.65924 3.57768 4.32324 3.99268 4.32324H5.99268Z" fill="white"/>
</svg>
