<svg width="24" height="24" viewBox="0 0 24 24" fill="none" xmlns="http://www.w3.org/2000/svg">
<g clip-path="url(#clip0_1074_13577)">
<path fill-rule="evenodd" clip-rule="evenodd" d="M19.5518 16.6172C19.9658 16.6172 20.3018 16.9532 20.3018 17.3672C20.3018 17.7822 19.9658 18.1172 19.5518 18.1172H9.80176C9.38776 18.1172 9.05176 17.7822 9.05176 17.3672C9.05176 16.9532 9.38776 16.6172 9.80176 16.6172H19.5518ZM5.80176 16.6172C6.21576 16.6172 6.55176 16.9532 6.55176 17.3672C6.55176 17.7822 6.21576 18.1172 5.80176 18.1172H3.80176C3.38776 18.1172 3.05176 17.7822 3.05176 17.3672C3.05176 16.9532 3.38776 16.6172 3.80176 16.6172H5.80176ZM19.5518 10.1739C19.9658 10.1739 20.3018 10.5099 20.3018 10.9239C20.3018 11.3389 19.9658 11.6739 19.5518 11.6739H9.80176C9.38776 11.6739 9.05176 11.3389 9.05176 10.9239C9.05176 10.5099 9.38776 10.1739 9.80176 10.1739H19.5518ZM5.80176 10.1739C6.21576 10.1739 6.55176 10.5099 6.55176 10.9239C6.55176 11.3389 6.21576 11.6739 5.80176 11.6739H3.80176C3.38776 11.6739 3.05176 11.3389 3.05176 10.9239C3.05176 10.5099 3.38776 10.1739 3.80176 10.1739H5.80176ZM19.5518 3.73047C19.9658 3.73047 20.3018 4.06647 20.3018 4.48047C20.3018 4.89447 19.9658 5.23047 19.5518 5.23047H9.80176C9.38776 5.23047 9.05176 4.89447 9.05176 4.48047C9.05176 4.06647 9.38776 3.73047 9.80176 3.73047H19.5518ZM5.80176 3.73047C6.21576 3.73047 6.55176 4.06647 6.55176 4.48047C6.55176 4.89447 6.21576 5.23047 5.80176 5.23047H3.80176C3.38776 5.23047 3.05176 4.89447 3.05176 4.48047C3.05176 4.06647 3.38776 3.73047 3.80176 3.73047H5.80176Z" fill="white"/>
<path d="M21.5633 12.3158C21.3416 12.0873 20.8976 11.9004 20.5763 11.9004H14.9552C14.0133 11.9004 13.25 12.6526 13.25 13.581V22.3198C13.25 23.2475 14.0133 24.0004 14.9552 24.0004H22.2876C23.2296 24.0004 23.9929 23.2475 23.9929 22.3198V15.2622C23.9929 15.0135 23.8612 14.6894 23.6866 14.5093L21.5633 12.3158Z" fill="#F0F0F0"/>
<path d="M22.1987 18.7993C22.1987 18.9072 22.0836 18.9734 21.9441 18.9453L19.6917 18.4618C19.5516 18.4338 19.4353 18.5 19.4323 18.6085L19.2791 19.8128C19.2797 19.808 19.2398 19.9517 19.4341 20.1282L20.022 20.7154C20.118 20.7953 20.2265 20.9259 20.2265 21.0344V21.057C20.2265 21.1656 20.084 21.2657 19.9707 21.2126L18.9924 20.787C18.8308 20.719 18.6561 20.7208 18.479 20.7846L17.3749 21.2156C17.2223 21.2711 17.1185 21.1661 17.1185 21.0582V21.0356C17.1185 20.9271 17.1966 20.8341 17.3242 20.7166L17.9121 20.1288C18.0999 19.9559 18.0659 19.8086 18.0671 19.8134L17.9133 18.6091C17.9109 18.5006 17.7934 18.4344 17.6545 18.463L15.2984 18.9465C15.1589 18.9746 15.0444 18.9084 15.0444 18.7999V18.2734C15.0444 18.1655 15.1445 18.0302 15.2674 17.9724L17.6933 16.7806C17.8101 16.6983 17.9156 16.588 17.9156 16.4801V15.5429C17.9156 15.4344 17.9305 15.2573 17.9478 15.15C17.9478 15.15 17.9633 15.0558 18.045 14.8811C18.1815 14.589 18.4111 14.366 18.6734 14.366C18.9369 14.366 19.17 14.5955 19.3048 14.8889C19.3841 15.0606 19.399 15.1512 19.399 15.1512C19.4163 15.2585 19.4306 15.4356 19.4306 15.5435V16.4807C19.4306 16.5892 19.5409 16.7013 19.6529 16.7818L21.9763 17.9735C22.0985 18.0308 22.1987 18.1661 22.1987 18.2746V18.7993ZM23.0494 14.8978L21.1929 12.953C20.9991 12.7503 20.611 12.584 20.3302 12.584H15.417C14.5937 12.584 13.9265 13.2511 13.9265 14.0745V21.8249C13.9265 22.6483 14.5937 23.3154 15.417 23.3154H21.8261C22.6494 23.3154 23.3165 22.6483 23.3165 21.8249V15.5661C23.3165 15.3449 23.2021 15.0582 23.0494 14.8978Z" fill="#617DAF"/>
</g>
<defs>
<clipPath id="clip0_1074_13577">
<rect width="24" height="24" fill="white"/>
</clipPath>
</defs>
</svg>
