<?xml version="1.0" encoding="UTF-8"?>
<svg xmlns="http://www.w3.org/2000/svg" width="24.0" height="24.0" viewBox="0 0 24.0 24.0">
  <path d="M4.625,4.708L19.375,4.708A2,2 0,0 1,21.375 6.708L21.375,17.292A2,2 0,0 1,19.375 19.292L4.625,19.292A2,2 0,0 1,2.625 17.292L2.625,6.708A2,2 0,0 1,4.625 4.708z" fill="#000000" fill-opacity="0.000" stroke="#000000" stroke-opacity="1.000" stroke-width="1.5" fill-rule="evenodd" />
  <path d="M12,15.646C9.988,15.646 8.354,14.014 8.354,12C8.354,9.986 9.988,8.354 12,8.354C14.014,8.354 15.646,9.986 15.646,12C15.646,14.014 14.014,15.646 12,15.646Z" fill="#000000" fill-opacity="0.000" stroke="#000000" stroke-opacity="1.000" stroke-width="1.5" stroke-linecap="round" stroke-linejoin="round" fill-rule="evenodd" />
  <path d="M5.75,8.875C5.174,8.875 4.708,8.408 4.708,7.833C4.708,7.258 5.174,6.792 5.75,6.792C6.325,6.792 6.792,7.258 6.792,7.833C6.792,8.408 6.325,8.875 5.75,8.875" fill="#000000" fill-opacity="1.000" stroke="#000000" stroke-opacity="0.000" stroke-width="1.0" fill-rule="nonzero" />
</svg>