<svg width="24" height="24" viewBox="0 0 24 24" fill="none" xmlns="http://www.w3.org/2000/svg">
<g clip-path="url(#clip0_1074_13535)">
<path fill-rule="evenodd" clip-rule="evenodd" d="M19.5518 16.6172C19.9658 16.6172 20.3018 16.9532 20.3018 17.3672C20.3018 17.7822 19.9658 18.1172 19.5518 18.1172H9.80176C9.38776 18.1172 9.05176 17.7822 9.05176 17.3672C9.05176 16.9532 9.38776 16.6172 9.80176 16.6172H19.5518ZM5.80176 16.6172C6.21576 16.6172 6.55176 16.9532 6.55176 17.3672C6.55176 17.7822 6.21576 18.1172 5.80176 18.1172H3.80176C3.38776 18.1172 3.05176 17.7822 3.05176 17.3672C3.05176 16.9532 3.38776 16.6172 3.80176 16.6172H5.80176ZM19.5518 10.1739C19.9658 10.1739 20.3018 10.5099 20.3018 10.9239C20.3018 11.3389 19.9658 11.6739 19.5518 11.6739H9.80176C9.38776 11.6739 9.05176 11.3389 9.05176 10.9239C9.05176 10.5099 9.38776 10.1739 9.80176 10.1739H19.5518ZM5.80176 10.1739C6.21576 10.1739 6.55176 10.5099 6.55176 10.9239C6.55176 11.3389 6.21576 11.6739 5.80176 11.6739H3.80176C3.38776 11.6739 3.05176 11.3389 3.05176 10.9239C3.05176 10.5099 3.38776 10.1739 3.80176 10.1739H5.80176ZM19.5518 3.73047C19.9658 3.73047 20.3018 4.06647 20.3018 4.48047C20.3018 4.89447 19.9658 5.23047 19.5518 5.23047H9.80176C9.38776 5.23047 9.05176 4.89447 9.05176 4.48047C9.05176 4.06647 9.38776 3.73047 9.80176 3.73047H19.5518ZM5.80176 3.73047C6.21576 3.73047 6.55176 4.06647 6.55176 4.48047C6.55176 4.89447 6.21576 5.23047 5.80176 5.23047H3.80176C3.38776 5.23047 3.05176 4.89447 3.05176 4.48047C3.05176 4.06647 3.38776 3.73047 3.80176 3.73047H5.80176Z" fill="white"/>
<path d="M21.5633 12.3158C21.3416 12.0873 20.8976 11.9004 20.5763 11.9004H14.9552C14.0133 11.9004 13.25 12.6526 13.25 13.581V22.3198C13.25 23.2475 14.0133 24.0004 14.9552 24.0004H22.2876C23.2296 24.0004 23.9929 23.2475 23.9929 22.3198V15.2622C23.9929 15.0135 23.8612 14.6894 23.6866 14.5093L21.5633 12.3158Z" fill="#F0F0F0"/>
<path d="M21.1927 12.9524C20.9989 12.7497 20.6108 12.584 20.33 12.584H15.4168C14.5935 12.584 13.9263 13.2511 13.9263 14.0745V21.8249C13.9263 22.6477 14.5935 23.3154 15.4168 23.3154H21.8259C22.6492 23.3154 23.3163 22.6477 23.3163 21.8249V15.5655C23.3163 15.3449 23.2013 15.0576 23.0486 14.8978L21.1927 12.9524Z" fill="#6D45BA"/>
<path fill-rule="evenodd" clip-rule="evenodd" d="M18.5811 21.3898C17.9633 21.3898 17.4357 21.2224 17.0147 20.893C16.589 20.5608 16.3826 20.0947 16.401 19.5083L16.4031 19.4954L16.4229 19.4379H17.5601V19.4824C17.5601 19.7605 17.6537 19.9881 17.8403 20.1583C18.0269 20.3305 18.2804 20.418 18.5941 20.418C18.9228 20.418 19.1846 20.3291 19.3712 20.1535C19.5577 19.9792 19.6521 19.727 19.6521 19.4031C19.6521 19.0463 19.5653 18.7798 19.3951 18.6131C19.2249 18.4463 18.9543 18.3616 18.59 18.3616H17.7795V17.4068H18.59C18.9324 17.4068 19.1798 17.3228 19.3281 17.1567C19.4771 16.9886 19.5523 16.746 19.5523 16.435C19.5523 16.1316 19.4716 15.8937 19.311 15.729C19.1511 15.565 18.9099 15.4823 18.5941 15.4823C18.3084 15.4823 18.072 15.5643 17.8916 15.727C17.7132 15.8883 17.6237 16.1035 17.6237 16.3673V16.4111H16.4864L16.4646 16.3421C16.4461 15.8254 16.6416 15.3853 17.0441 15.0354C17.4453 14.6868 17.9626 14.5098 18.5811 14.5098C19.2324 14.5098 19.7614 14.6779 20.1516 15.0094C20.5432 15.3436 20.7421 15.8233 20.7421 16.435C20.7421 16.7241 20.6533 17.0063 20.4763 17.2756C20.3177 17.5182 20.0963 17.7144 19.8168 17.8586C20.151 17.9946 20.4045 18.1928 20.5699 18.447C20.751 18.7251 20.8426 19.0463 20.8426 19.4004C20.8426 20.0161 20.6273 20.5068 20.2029 20.8608C19.7812 21.2121 19.2352 21.3898 18.5811 21.3898Z" fill="#F0F0F0"/>
</g>
<defs>
<clipPath id="clip0_1074_13535">
<rect width="24" height="24" fill="white"/>
</clipPath>
</defs>
</svg>
