<svg width="24" height="24" viewBox="0 0 24 24" fill="none" xmlns="http://www.w3.org/2000/svg">
<path fill-rule="evenodd" clip-rule="evenodd" d="M14.429 14.5859C12.987 14.5859 11.814 15.7424 11.814 17.1749C11.814 18.6066 12.9872 19.7629 14.429 19.7629C15.8715 19.7629 17.045 18.6068 17.045 17.1749C17.045 15.7422 15.8718 14.5859 14.429 14.5859ZM14.429 16.0859C15.0482 16.0859 15.545 16.5755 15.545 17.1749C15.545 17.7733 15.0481 18.2629 14.429 18.2629C13.8108 18.2629 13.314 17.7733 13.314 17.1749C13.314 16.5756 13.8107 16.0859 14.429 16.0859Z" fill="white"/>
<path fill-rule="evenodd" clip-rule="evenodd" d="M9.221 10.6943C9.6352 10.6943 9.971 11.0301 9.971 11.4443C9.971 11.824 9.6888 12.1378 9.3228 12.1875L9.221 12.1943H4.25C3.8358 12.1943 3.5 11.8585 3.5 11.4443C3.5 11.0646 3.7822 10.7508 4.1482 10.7011L4.25 10.6943H9.221Z" fill="white"/>
<path fill-rule="evenodd" clip-rule="evenodd" d="M9.221 17.3877C9.6352 17.3877 9.971 17.7235 9.971 18.1377C9.971 18.5174 9.6888 18.8312 9.3228 18.8809L9.221 18.8877H4.25C3.8358 18.8877 3.5 18.5519 3.5 18.1377C3.5 17.758 3.7822 17.4442 4.1482 17.3945L4.25 17.3877H9.221Z" fill="white"/>
<path fill-rule="evenodd" clip-rule="evenodd" d="M20 4C20.4142 4 20.75 4.3358 20.75 4.75C20.75 5.1297 20.4678 5.4435 20.1018 5.4932L20 5.5H4.25C3.8358 5.5 3.5 5.1642 3.5 4.75C3.5 4.3703 3.7822 4.0565 4.1482 4.0068L4.25 4H20Z" fill="white"/>
<path fill-rule="evenodd" clip-rule="evenodd" d="M17.0449 17.2906C17.0449 17.7048 16.7091 18.0406 16.2949 18.0406C15.9152 18.0406 15.6014 17.7584 15.5517 17.3924L15.5449 17.2906V10.5746C15.5449 10.0303 15.9576 9.58128 16.4868 9.52378L16.6019 9.51758H17.0619C19.3893 9.51758 20.9661 11.46 21.0595 13.5439L21.0639 13.7396V14.5776C21.0639 14.9918 20.7281 15.3276 20.3139 15.3276C19.9342 15.3276 19.6204 15.0454 19.5707 14.6794L19.5639 14.5776V13.7396C19.5639 12.3941 18.6156 11.1195 17.2302 11.0234L17.0442 11.0167L17.0449 17.2906Z" fill="white"/>
</svg>
