<svg width="24" height="24" viewBox="0 0 24 24" fill="none" xmlns="http://www.w3.org/2000/svg">
<path fill-rule="evenodd" clip-rule="evenodd" d="M14.875 17.9438C15.289 17.9438 15.625 18.2788 15.625 18.6938C15.625 19.1078 15.289 19.4438 14.875 19.4438H10.125C9.71 19.4438 9.375 19.1078 9.375 18.6938C9.375 18.2788 9.71 17.9438 10.125 17.9438H14.875ZM19.875 14.4438C20.289 14.4438 20.625 14.7788 20.625 15.1938C20.625 15.6078 20.289 15.9438 19.875 15.9438H10.125C9.71 15.9438 9.375 15.6078 9.375 15.1938C9.375 14.7788 9.71 14.4438 10.125 14.4438H19.875ZM6.125 14.4438C6.539 14.4438 6.875 14.7788 6.875 15.1938C6.875 15.6078 6.539 15.9438 6.125 15.9438H4.125C3.71 15.9438 3.375 15.6078 3.375 15.1938C3.375 14.7788 3.71 14.4438 4.125 14.4438H6.125ZM14.875 8.05664C15.289 8.05664 15.625 8.39164 15.625 8.80664C15.625 9.22064 15.289 9.55664 14.875 9.55664H10.125C9.71 9.55664 9.375 9.22064 9.375 8.80664C9.375 8.39164 9.71 8.05664 10.125 8.05664H14.875ZM19.875 4.55664C20.289 4.55664 20.625 4.89164 20.625 5.30664C20.625 5.72064 20.289 6.05664 19.875 6.05664H10.125C9.71 6.05664 9.375 5.72064 9.375 5.30664C9.375 4.89164 9.71 4.55664 10.125 4.55664H19.875ZM6.125 4.55664C6.539 4.55664 6.875 4.89164 6.875 5.30664C6.875 5.72064 6.539 6.05664 6.125 6.05664H4.125C3.71 6.05664 3.375 5.72064 3.375 5.30664C3.375 4.89164 3.71 4.55664 4.125 4.55664H6.125Z" fill="white"/>
</svg>
