<svg width="24" height="24" viewBox="0 0 24 24" fill="none" xmlns="http://www.w3.org/2000/svg">
<path d="M16.4875 10.3125C16.8741 10.3125 17.1924 10.605 17.2331 10.9808L17.2375 11.0625L17.2373 14.312L20.4875 14.3125C20.9017 14.3125 21.2375 14.6483 21.2375 15.0625C21.2375 15.4491 20.945 15.7674 20.5692 15.8081L20.4875 15.8125L17.2373 15.812L17.2375 19.0625C17.2375 19.4767 16.9017 19.8125 16.4875 19.8125C16.1009 19.8125 15.7826 19.52 15.7419 19.1442L15.7375 19.0625L15.7373 15.812L12.4875 15.8125C12.0733 15.8125 11.7375 15.4767 11.7375 15.0625C11.7375 14.6759 12.03 14.3576 12.4058 14.3169L12.4875 14.3125L15.7373 14.312L15.7375 11.0625C15.7375 10.6483 16.0733 10.3125 16.4875 10.3125ZM8.97121 17.8877C9.38541 17.8877 9.72121 18.2235 9.72121 18.6377C9.72121 19.0243 9.42868 19.3426 9.05295 19.3833L8.97121 19.3877H4.25021C3.83601 19.3877 3.50021 19.0519 3.50021 18.6377C3.50021 18.2511 3.79275 17.9328 4.16848 17.8921L4.25021 17.8877H8.97121ZM8.97121 11.1943C9.38541 11.1943 9.72121 11.5301 9.72121 11.9443C9.72121 12.3309 9.42868 12.6492 9.05295 12.6899L8.97121 12.6943H4.25021C3.83601 12.6943 3.50021 12.3585 3.50021 11.9443C3.50021 11.5577 3.79275 11.2394 4.16848 11.1987L4.25021 11.1943H8.97121ZM20.0002 4.5C20.4144 4.5 20.7502 4.8358 20.7502 5.25C20.7502 5.6366 20.4577 5.95487 20.0819 5.9956L20.0002 6H4.25021C3.83601 6 3.50021 5.6642 3.50021 5.25C3.50021 4.8634 3.79275 4.54513 4.16848 4.5044L4.25021 4.5H20.0002Z" fill="white"/>
</svg>
