<?xml version="1.0" encoding="UTF-8"?>
<svg xmlns="http://www.w3.org/2000/svg" width="24.0" height="24.0" viewBox="0 0 24.0 24.0">
  <path d="M18.935,8.744L18.935,10.855C18.935,11.021 18.8,11.156 18.633,11.156L14.712,11.156C14.546,11.156 14.411,11.021 14.411,10.855L14.411,8.744" fill="#000000" fill-opacity="0.000" stroke="#030404" stroke-opacity="1.000" stroke-width="1.5" stroke-linejoin="round" fill-rule="evenodd" />
  <path d="M14.6,1.42L4,4.26" fill="#000000" fill-opacity="0.000" stroke="#030404" stroke-opacity="1.000" stroke-width="1.5" stroke-linecap="round" stroke-linejoin="round" fill-rule="evenodd" />
  <path d="M19.698,5.391L8.833,5.391L4,6.679L4,22.28C4,22.446 4.135,22.581 4.301,22.581L8.524,22.581C8.69,22.581 8.825,22.446 8.825,22.28L8.825,10.518C8.825,9.519 9.635,8.708 10.635,8.708L19.698,8.708C19.865,8.708 20,8.573 20,8.407L20,5.692C20,5.526 19.865,5.391 19.698,5.391Z" fill="#000000" fill-opacity="0.000" stroke="#030404" stroke-opacity="1.000" stroke-width="1.5" stroke-linejoin="round" fill-rule="evenodd" />
</svg>