<svg width="24" height="24" viewBox="0 0 24 24" fill="none" xmlns="http://www.w3.org/2000/svg">
<path d="M5.24754 4.125C5.66154 4.125 5.99754 4.461 5.99754 4.875V19.125C5.99754 19.421 5.82354 19.688 5.55554 19.81C5.45654 19.854 5.35154 19.875 5.24754 19.875C5.06654 19.875 4.88954 19.811 4.74954 19.686L1.98754 17.232C1.67854 16.957 1.64954 16.483 1.92554 16.174C2.20054 15.863 2.67454 15.836 2.98354 16.111L4.49754 17.455V4.875C4.49754 4.461 4.83354 4.125 5.24754 4.125ZM14.3701 17.7627C14.7851 17.7627 15.1201 18.0987 15.1201 18.5127C15.1201 18.9267 14.7851 19.2627 14.3701 19.2627H9.76414C9.35014 19.2627 9.01414 18.9267 9.01414 18.5127C9.01414 18.0987 9.35014 17.7627 9.76414 17.7627H14.3701ZM16.5024 11.3193C16.9164 11.3193 17.2524 11.6553 17.2524 12.0693C17.2524 12.4833 16.9164 12.8193 16.5024 12.8193H9.76444C9.35044 12.8193 9.01444 12.4833 9.01444 12.0693C9.01444 11.6553 9.35044 11.3193 9.76444 11.3193H16.5024ZM21.5141 4.875C21.9281 4.875 22.2641 5.211 22.2641 5.625C22.2641 6.039 21.9281 6.375 21.5141 6.375H9.76414C9.35014 6.375 9.01414 6.039 9.01414 5.625C9.01414 5.211 9.35014 4.875 9.76414 4.875H21.5141Z" fill="white"/>
</svg>
