<svg width="24" height="24" viewBox="0 0 24 24" fill="none" xmlns="http://www.w3.org/2000/svg">
<g clip-path="url(#clip0_1074_13551)">
<path fill-rule="evenodd" clip-rule="evenodd" d="M19.5518 16.6172C19.9658 16.6172 20.3018 16.9532 20.3018 17.3672C20.3018 17.7822 19.9658 18.1172 19.5518 18.1172H9.80176C9.38776 18.1172 9.05176 17.7822 9.05176 17.3672C9.05176 16.9532 9.38776 16.6172 9.80176 16.6172H19.5518ZM5.80176 16.6172C6.21576 16.6172 6.55176 16.9532 6.55176 17.3672C6.55176 17.7822 6.21576 18.1172 5.80176 18.1172H3.80176C3.38776 18.1172 3.05176 17.7822 3.05176 17.3672C3.05176 16.9532 3.38776 16.6172 3.80176 16.6172H5.80176ZM19.5518 10.1739C19.9658 10.1739 20.3018 10.5099 20.3018 10.9239C20.3018 11.3389 19.9658 11.6739 19.5518 11.6739H9.80176C9.38776 11.6739 9.05176 11.3389 9.05176 10.9239C9.05176 10.5099 9.38776 10.1739 9.80176 10.1739H19.5518ZM5.80176 10.1739C6.21576 10.1739 6.55176 10.5099 6.55176 10.9239C6.55176 11.3389 6.21576 11.6739 5.80176 11.6739H3.80176C3.38776 11.6739 3.05176 11.3389 3.05176 10.9239C3.05176 10.5099 3.38776 10.1739 3.80176 10.1739H5.80176ZM19.5518 3.73047C19.9658 3.73047 20.3018 4.06647 20.3018 4.48047C20.3018 4.89447 19.9658 5.23047 19.5518 5.23047H9.80176C9.38776 5.23047 9.05176 4.89447 9.05176 4.48047C9.05176 4.06647 9.38776 3.73047 9.80176 3.73047H19.5518ZM5.80176 3.73047C6.21576 3.73047 6.55176 4.06647 6.55176 4.48047C6.55176 4.89447 6.21576 5.23047 5.80176 5.23047H3.80176C3.38776 5.23047 3.05176 4.89447 3.05176 4.48047C3.05176 4.06647 3.38776 3.73047 3.80176 3.73047H5.80176Z" fill="white"/>
<path d="M21.5633 12.3158C21.3416 12.0873 20.8976 11.9004 20.5763 11.9004H14.9552C14.0133 11.9004 13.25 12.6526 13.25 13.581V22.3198C13.25 23.2475 14.0133 24.0004 14.9552 24.0004H22.2876C23.2296 24.0004 23.9929 23.2475 23.9929 22.3198V15.2622C23.9929 15.0135 23.8612 14.6894 23.6866 14.5093L21.5633 12.3158Z" fill="#F0F0F0"/>
<path d="M21.1929 12.9524C20.9991 12.7497 20.611 12.584 20.3302 12.584H15.417C14.5937 12.584 13.9265 13.2511 13.9265 14.0745V21.8249C13.9265 22.6477 14.5937 23.3154 15.417 23.3154H21.8261C22.6494 23.3154 23.3165 22.6477 23.3165 21.8249V15.5655C23.3165 15.3449 23.2015 15.0576 23.0488 14.8978L21.1929 12.9524Z" fill="#B066D8"/>
<path fill-rule="evenodd" clip-rule="evenodd" d="M20.8285 21.3898H19.8289V18.9017C19.8289 18.5551 19.5451 18.272 19.1985 18.272H17.9384C17.5924 18.272 17.3087 18.5551 17.3087 18.9017V21.3898H16.4137C15.8352 21.3898 15.3635 20.918 15.3635 20.3396V17.5247C15.3635 17.2929 15.5098 16.9852 15.6876 16.8382L18.296 14.6195C18.4744 14.4732 18.7671 14.4732 18.9462 14.6195L21.5539 16.8382C21.7324 16.9852 21.8787 17.2929 21.8787 17.5247V20.3396C21.8787 20.918 21.4069 21.3898 20.8285 21.3898Z" fill="#F0F0F0"/>
</g>
<defs>
<clipPath id="clip0_1074_13551">
<rect width="24" height="24" fill="white"/>
</clipPath>
</defs>
</svg>
