<svg width="24" height="24" viewBox="0 0 24 24" fill="none" xmlns="http://www.w3.org/2000/svg">
<g clip-path="url(#clip0_1074_13541)">
<path fill-rule="evenodd" clip-rule="evenodd" d="M19.5518 16.6172C19.9658 16.6172 20.3018 16.9532 20.3018 17.3672C20.3018 17.7822 19.9658 18.1172 19.5518 18.1172H9.80176C9.38776 18.1172 9.05176 17.7822 9.05176 17.3672C9.05176 16.9532 9.38776 16.6172 9.80176 16.6172H19.5518ZM5.80176 16.6172C6.21576 16.6172 6.55176 16.9532 6.55176 17.3672C6.55176 17.7822 6.21576 18.1172 5.80176 18.1172H3.80176C3.38776 18.1172 3.05176 17.7822 3.05176 17.3672C3.05176 16.9532 3.38776 16.6172 3.80176 16.6172H5.80176ZM19.5518 10.1739C19.9658 10.1739 20.3018 10.5099 20.3018 10.9239C20.3018 11.3389 19.9658 11.6739 19.5518 11.6739H9.80176C9.38776 11.6739 9.05176 11.3389 9.05176 10.9239C9.05176 10.5099 9.38776 10.1739 9.80176 10.1739H19.5518ZM5.80176 10.1739C6.21576 10.1739 6.55176 10.5099 6.55176 10.9239C6.55176 11.3389 6.21576 11.6739 5.80176 11.6739H3.80176C3.38776 11.6739 3.05176 11.3389 3.05176 10.9239C3.05176 10.5099 3.38776 10.1739 3.80176 10.1739H5.80176ZM19.5518 3.73047C19.9658 3.73047 20.3018 4.06647 20.3018 4.48047C20.3018 4.89447 19.9658 5.23047 19.5518 5.23047H9.80176C9.38776 5.23047 9.05176 4.89447 9.05176 4.48047C9.05176 4.06647 9.38776 3.73047 9.80176 3.73047H19.5518ZM5.80176 3.73047C6.21576 3.73047 6.55176 4.06647 6.55176 4.48047C6.55176 4.89447 6.21576 5.23047 5.80176 5.23047H3.80176C3.38776 5.23047 3.05176 4.89447 3.05176 4.48047C3.05176 4.06647 3.38776 3.73047 3.80176 3.73047H5.80176Z" fill="white"/>
<path d="M21.5633 12.3158C21.3416 12.0873 20.8976 11.9004 20.5763 11.9004H14.9552C14.0133 11.9004 13.25 12.6526 13.25 13.581V22.3198C13.25 23.2475 14.0133 24.0004 14.9552 24.0004H22.2876C23.2296 24.0004 23.9929 23.2475 23.9929 22.3198V15.2622C23.9929 15.0135 23.8612 14.6894 23.6866 14.5093L21.5633 12.3158Z" fill="#F0F0F0"/>
<path d="M21.3978 20.251L21.3966 20.2522C20.8541 20.7941 20.3366 20.9169 19.8006 20.8919C19.4667 20.8764 19.118 20.787 18.7185 20.5378C18.7179 20.5384 18.6547 20.4972 18.6249 20.4764C18.6046 20.4632 18.585 20.4495 18.5653 20.4358C16.8715 19.247 15.9951 17.8132 15.9951 17.8132C15.7477 17.4155 15.6595 17.0679 15.6434 16.7353C15.6183 16.1987 15.7405 15.6818 16.2825 15.1393L16.2843 15.1375C16.4554 14.9676 16.5919 14.927 16.7248 14.9336C16.8584 14.9401 17.0009 14.9932 17.1887 15.1816L17.6638 15.6568C17.8528 15.8451 17.9065 15.9876 17.9119 16.1206C17.9184 16.2529 17.8791 16.3907 17.7086 16.5618L17.5172 16.7531C17.3455 16.9248 17.3049 17.0626 17.3115 17.1955C17.3175 17.3052 17.3717 17.4137 17.3783 17.4262C17.4772 17.617 17.9816 18.5095 19.053 19.123C19.0858 19.1451 19.23 19.2214 19.3397 19.2232C19.4727 19.2255 19.6104 19.1898 19.7821 19.0181L19.9735 18.8267C20.144 18.6568 20.2823 18.6168 20.4147 18.6234C20.5476 18.6288 20.6901 18.6824 20.8785 18.8714L21.3537 19.3466C21.5421 19.535 21.5951 19.6769 21.6017 19.8104C21.6082 19.9428 21.5683 20.0805 21.3978 20.251ZM23.0492 14.8978L21.1921 12.953C20.9989 12.7497 20.6108 12.584 20.33 12.584H15.4168C14.5935 12.584 13.9263 13.2511 13.9263 14.0745V21.8249C13.9263 22.6483 14.5935 23.3154 15.4168 23.3154H21.8259C22.6492 23.3154 23.3163 22.6483 23.3163 21.8249V15.5661C23.3163 15.3449 23.2013 15.0576 23.0492 14.8978Z" fill="#13A555"/>
</g>
<defs>
<clipPath id="clip0_1074_13541">
<rect width="24" height="24" fill="white"/>
</clipPath>
</defs>
</svg>
