<?xml version="1.0" encoding="UTF-8"?>
<svg xmlns="http://www.w3.org/2000/svg" width="24.0" height="24.0" viewBox="0 0 24.0 24.0">
  <path d="M12,12m-10,0a10,10 0,1 1,20 0a10,10 0,1 1,-20 0" fill="#000000" fill-opacity="0.000" stroke="#000000" stroke-opacity="1.000" stroke-width="1.5" stroke-linecap="round" stroke-linejoin="round" fill-rule="evenodd" />
  <path d="M9.5,9.5L14.5,9.5A2.5,2.5 0,0 1,17 12L17,12A2.5,2.5 0,0 1,14.5 14.5L9.5,14.5A2.5,2.5 0,0 1,7 12L7,12A2.5,2.5 0,0 1,9.5 9.5z" fill="#000000" fill-opacity="0.000" stroke="#000000" stroke-opacity="1.000" stroke-width="1.5" stroke-linecap="round" stroke-linejoin="round" fill-rule="evenodd" />
  <path d="M4.25,5.66L4.25,22.317" fill="#000000" fill-opacity="0.000" stroke="#000000" stroke-opacity="1.000" stroke-width="1.5" stroke-linecap="round" stroke-linejoin="round" fill-rule="evenodd" />
  <path d="M19.75,5.66L19.75,22.317" fill="#000000" fill-opacity="0.000" stroke="#000000" stroke-opacity="1.000" stroke-width="1.5" stroke-linecap="round" stroke-linejoin="round" fill-rule="evenodd" />
</svg>