<svg width="24" height="24" viewBox="0 0 24 24" fill="none" xmlns="http://www.w3.org/2000/svg">
<g clip-path="url(#clip0_1074_13557)">
<path fill-rule="evenodd" clip-rule="evenodd" d="M19.5518 16.6172C19.9658 16.6172 20.3018 16.9532 20.3018 17.3672C20.3018 17.7822 19.9658 18.1172 19.5518 18.1172H9.80176C9.38776 18.1172 9.05176 17.7822 9.05176 17.3672C9.05176 16.9532 9.38776 16.6172 9.80176 16.6172H19.5518ZM5.80176 16.6172C6.21576 16.6172 6.55176 16.9532 6.55176 17.3672C6.55176 17.7822 6.21576 18.1172 5.80176 18.1172H3.80176C3.38776 18.1172 3.05176 17.7822 3.05176 17.3672C3.05176 16.9532 3.38776 16.6172 3.80176 16.6172H5.80176ZM19.5518 10.1739C19.9658 10.1739 20.3018 10.5099 20.3018 10.9239C20.3018 11.3389 19.9658 11.6739 19.5518 11.6739H9.80176C9.38776 11.6739 9.05176 11.3389 9.05176 10.9239C9.05176 10.5099 9.38776 10.1739 9.80176 10.1739H19.5518ZM5.80176 10.1739C6.21576 10.1739 6.55176 10.5099 6.55176 10.9239C6.55176 11.3389 6.21576 11.6739 5.80176 11.6739H3.80176C3.38776 11.6739 3.05176 11.3389 3.05176 10.9239C3.05176 10.5099 3.38776 10.1739 3.80176 10.1739H5.80176ZM19.5518 3.73047C19.9658 3.73047 20.3018 4.06647 20.3018 4.48047C20.3018 4.89447 19.9658 5.23047 19.5518 5.23047H9.80176C9.38776 5.23047 9.05176 4.89447 9.05176 4.48047C9.05176 4.06647 9.38776 3.73047 9.80176 3.73047H19.5518ZM5.80176 3.73047C6.21576 3.73047 6.55176 4.06647 6.55176 4.48047C6.55176 4.89447 6.21576 5.23047 5.80176 5.23047H3.80176C3.38776 5.23047 3.05176 4.89447 3.05176 4.48047C3.05176 4.06647 3.38776 3.73047 3.80176 3.73047H5.80176Z" fill="white"/>
<path d="M21.5633 12.3158C21.3416 12.0873 20.8976 11.9004 20.5763 11.9004H14.9552C14.0133 11.9004 13.25 12.6526 13.25 13.581V22.3198C13.25 23.2475 14.0133 24.0004 14.9552 24.0004H22.2876C23.2296 24.0004 23.9929 23.2475 23.9929 22.3198V15.2622C23.9929 15.0135 23.8612 14.6894 23.6866 14.5093L21.5633 12.3158Z" fill="#F0F0F0"/>
<path d="M20.3302 12.584C20.611 12.584 20.9991 12.7497 21.1929 12.953L23.0494 14.8978C23.2021 15.0576 23.3165 15.3449 23.3165 15.5661V21.8249C23.3165 22.6483 22.6494 23.3154 21.8261 23.3154H15.417C14.5937 23.3154 13.9265 22.6483 13.9265 21.8249V14.0745C13.9265 13.2511 14.5937 12.584 15.417 12.584H20.3302ZM18.6215 14.6689C16.6702 14.6689 15.0819 16.2559 15.0819 18.2084C15.0819 20.1604 16.6702 21.748 18.6215 21.748C20.5729 21.748 22.1617 20.161 22.1617 18.2084C22.1617 16.2565 20.5729 14.6689 18.6215 14.6689ZM19.3739 18.6104C19.2964 20.0627 18.826 20.8491 18.6215 20.8491C18.417 20.8491 17.9466 20.0627 17.8691 18.6104H19.3739ZM17.0592 18.6105C17.0986 19.3867 17.2482 20.1367 17.5046 20.6983C16.6711 20.3233 16.0666 19.5435 15.9276 18.6105H17.0592ZM21.3157 18.6105C21.1762 19.5435 20.5717 20.3233 19.7388 20.6983C19.9952 20.1367 20.1454 19.3873 20.1835 18.6105H21.3157ZM17.5046 15.718C17.2482 16.2802 17.0986 17.0296 17.0592 17.8058H15.9276C16.0666 16.8728 16.6717 16.0936 17.5046 15.718ZM18.6215 15.5672C18.826 15.5672 19.2964 16.3536 19.3739 17.8059H17.8691C17.9466 16.3536 18.417 15.5672 18.6215 15.5672ZM19.7388 15.718C20.5711 16.0936 21.1762 16.8728 21.3157 17.8058H20.1835C20.1454 17.0296 19.9952 16.2802 19.7388 15.718Z" fill="#2DB6C1"/>
</g>
<defs>
<clipPath id="clip0_1074_13557">
<rect width="24" height="24" fill="white"/>
</clipPath>
</defs>
</svg>
