<svg width="24" height="24" viewBox="0 0 24 24" fill="none" xmlns="http://www.w3.org/2000/svg">
<g clip-path="url(#clip0_1074_13582)">
<path fill-rule="evenodd" clip-rule="evenodd" d="M19.5518 16.6172C19.9658 16.6172 20.3018 16.9532 20.3018 17.3672C20.3018 17.7822 19.9658 18.1172 19.5518 18.1172H9.80176C9.38776 18.1172 9.05176 17.7822 9.05176 17.3672C9.05176 16.9532 9.38776 16.6172 9.80176 16.6172H19.5518ZM5.80176 16.6172C6.21576 16.6172 6.55176 16.9532 6.55176 17.3672C6.55176 17.7822 6.21576 18.1172 5.80176 18.1172H3.80176C3.38776 18.1172 3.05176 17.7822 3.05176 17.3672C3.05176 16.9532 3.38776 16.6172 3.80176 16.6172H5.80176ZM19.5518 10.1739C19.9658 10.1739 20.3018 10.5099 20.3018 10.9239C20.3018 11.3389 19.9658 11.6739 19.5518 11.6739H9.80176C9.38776 11.6739 9.05176 11.3389 9.05176 10.9239C9.05176 10.5099 9.38776 10.1739 9.80176 10.1739H19.5518ZM5.80176 10.1739C6.21576 10.1739 6.55176 10.5099 6.55176 10.9239C6.55176 11.3389 6.21576 11.6739 5.80176 11.6739H3.80176C3.38776 11.6739 3.05176 11.3389 3.05176 10.9239C3.05176 10.5099 3.38776 10.1739 3.80176 10.1739H5.80176ZM19.5518 3.73047C19.9658 3.73047 20.3018 4.06647 20.3018 4.48047C20.3018 4.89447 19.9658 5.23047 19.5518 5.23047H9.80176C9.38776 5.23047 9.05176 4.89447 9.05176 4.48047C9.05176 4.06647 9.38776 3.73047 9.80176 3.73047H19.5518ZM5.80176 3.73047C6.21576 3.73047 6.55176 4.06647 6.55176 4.48047C6.55176 4.89447 6.21576 5.23047 5.80176 5.23047H3.80176C3.38776 5.23047 3.05176 4.89447 3.05176 4.48047C3.05176 4.06647 3.38776 3.73047 3.80176 3.73047H5.80176Z" fill="white"/>
<path d="M21.5633 12.3158C21.3416 12.0873 20.8976 11.9004 20.5763 11.9004H14.9552C14.0133 11.9004 13.25 12.6526 13.25 13.581V22.3198C13.25 23.2475 14.0133 24.0004 14.9552 24.0004H22.2876C23.2296 24.0004 23.9929 23.2475 23.9929 22.3198V15.2622C23.9929 15.0135 23.8612 14.6894 23.6866 14.5093L21.5633 12.3158Z" fill="#F0F0F0"/>
<path d="M20.3302 12.584C20.611 12.584 20.9991 12.7497 21.1923 12.953L23.0494 14.8978C23.2015 15.0582 23.3165 15.3449 23.3165 15.5661V21.8249C23.3165 22.6483 22.6494 23.3154 21.8261 23.3154H15.417C14.5937 23.3154 13.9265 22.6483 13.9265 21.8249V14.0745C13.9265 13.2511 14.5937 12.584 15.417 12.584H20.3302ZM19.1265 14.1305H18.116C17.6134 14.1305 17.2062 14.5389 17.2062 15.0403V15.2591H17.0041C16.4472 15.2591 15.9935 15.7134 15.9935 16.2702V20.2128C15.9935 20.7691 16.4472 21.2234 17.0041 21.2234H17.019V21.6276C17.019 21.8232 17.177 21.9811 17.3725 21.9811C17.5681 21.9811 17.7261 21.8232 17.7261 21.6276V21.2234H19.517V21.6276C19.517 21.8232 19.6744 21.9811 19.8705 21.9811C20.0661 21.9811 20.2235 21.8232 20.2235 21.6276V21.2234H20.239C20.7952 21.2234 21.2495 20.7685 21.2495 20.2128V16.2702C21.2495 15.7134 20.794 15.2591 20.239 15.2591H20.0369V15.0403C20.0369 14.5377 19.6279 14.1305 19.1265 14.1305ZM19.7224 16.5571C19.9621 16.5571 20.157 16.7503 20.157 16.9911V19.5655C20.157 19.8046 19.9621 19.9989 19.7224 19.9989C19.4833 19.9989 19.2884 19.8046 19.2884 19.5655V16.9911C19.2884 16.7515 19.4833 16.5571 19.7224 16.5571ZM17.6054 16.5571C17.8457 16.5571 18.0395 16.7503 18.0395 16.9911V19.5655C18.0395 19.8046 17.8445 19.9989 17.6054 19.9989C17.3664 19.9989 17.1714 19.8046 17.1714 19.5655V16.9911C17.1714 16.7515 17.3664 16.5571 17.6054 16.5571ZM19.1267 14.7369C19.2942 14.7369 19.4301 14.8729 19.4301 15.0404L19.4307 15.2592H17.8133V15.0404C17.8133 14.8729 17.9486 14.7369 18.1161 14.7369H19.1267Z" fill="#395E8B"/>
</g>
<defs>
<clipPath id="clip0_1074_13582">
<rect width="24" height="24" fill="white"/>
</clipPath>
</defs>
</svg>
