<svg width="24" height="24" viewBox="0 0 24 24" fill="none" xmlns="http://www.w3.org/2000/svg">
<path d="M15.4875 9.22949C12.9207 9.22949 10.8394 11.3107 10.8394 13.8764C10.8394 16.4437 12.9202 18.5245 15.4875 18.5245C18.0547 18.5245 20.1355 16.4437 20.1355 13.8764C20.1355 11.3107 18.0542 9.22949 15.4875 9.22949ZM15.4875 10.7295C17.2257 10.7295 18.6355 12.1392 18.6355 13.8764C18.6355 15.6152 17.2262 17.0245 15.4875 17.0245C13.7487 17.0245 12.3394 15.6152 12.3394 13.8764C12.3394 12.1392 13.7492 10.7295 15.4875 10.7295Z" fill="white"/>
<path d="M17.7808 16.1688C18.0471 15.9026 18.4638 15.8785 18.7574 16.0964L18.8415 16.169L21.9675 19.296C22.2603 19.5889 22.2602 20.0638 21.9673 20.3567C21.701 20.6229 21.2843 20.647 20.9907 20.4291L20.9066 20.3565L17.7806 17.2295C17.4878 16.9366 17.4879 16.4617 17.7808 16.1688Z" fill="white"/>
<path d="M18.813 3.92383C19.2272 3.92383 19.563 4.25953 19.563 4.67373C19.563 5.05343 19.2808 5.36723 18.9147 5.41693L18.813 5.42373H2.56289C2.14869 5.42373 1.81299 5.08803 1.81299 4.67373C1.81299 4.29413 2.09509 3.98033 2.46119 3.93063L2.56289 3.92383H18.813Z" fill="white"/>
<path d="M7.91899 10.9141C8.33319 10.9141 8.66899 11.2498 8.66899 11.6641C8.66899 12.0437 8.38679 12.3575 8.02069 12.4072L7.91899 12.4141H2.56289C2.14869 12.4141 1.81299 12.0783 1.81299 11.6641C1.81299 11.2844 2.09509 10.9706 2.46119 10.9209L2.56289 10.9141H7.91899Z" fill="white"/>
<path d="M7.91899 17.9229C8.33319 17.9229 8.66899 18.2587 8.66899 18.6729C8.66899 19.0526 8.38679 19.3664 8.02069 19.4161L7.91899 19.4229H2.56289C2.14869 19.4229 1.81299 19.0872 1.81299 18.6729C1.81299 18.2933 2.09509 17.9795 2.46119 17.9298L2.56289 17.9229H7.91899Z" fill="white"/>
</svg>
