<svg width="24" height="24" viewBox="0 0 24 24" fill="none" xmlns="http://www.w3.org/2000/svg">
<g clip-path="url(#clip0_1074_13567)">
<path fill-rule="evenodd" clip-rule="evenodd" d="M19.5518 16.6172C19.9658 16.6172 20.3018 16.9532 20.3018 17.3672C20.3018 17.7822 19.9658 18.1172 19.5518 18.1172H9.80176C9.38776 18.1172 9.05176 17.7822 9.05176 17.3672C9.05176 16.9532 9.38776 16.6172 9.80176 16.6172H19.5518ZM5.80176 16.6172C6.21576 16.6172 6.55176 16.9532 6.55176 17.3672C6.55176 17.7822 6.21576 18.1172 5.80176 18.1172H3.80176C3.38776 18.1172 3.05176 17.7822 3.05176 17.3672C3.05176 16.9532 3.38776 16.6172 3.80176 16.6172H5.80176ZM19.5518 10.1739C19.9658 10.1739 20.3018 10.5099 20.3018 10.9239C20.3018 11.3389 19.9658 11.6739 19.5518 11.6739H9.80176C9.38776 11.6739 9.05176 11.3389 9.05176 10.9239C9.05176 10.5099 9.38776 10.1739 9.80176 10.1739H19.5518ZM5.80176 10.1739C6.21576 10.1739 6.55176 10.5099 6.55176 10.9239C6.55176 11.3389 6.21576 11.6739 5.80176 11.6739H3.80176C3.38776 11.6739 3.05176 11.3389 3.05176 10.9239C3.05176 10.5099 3.38776 10.1739 3.80176 10.1739H5.80176ZM19.5518 3.73047C19.9658 3.73047 20.3018 4.06647 20.3018 4.48047C20.3018 4.89447 19.9658 5.23047 19.5518 5.23047H9.80176C9.38776 5.23047 9.05176 4.89447 9.05176 4.48047C9.05176 4.06647 9.38776 3.73047 9.80176 3.73047H19.5518ZM5.80176 3.73047C6.21576 3.73047 6.55176 4.06647 6.55176 4.48047C6.55176 4.89447 6.21576 5.23047 5.80176 5.23047H3.80176C3.38776 5.23047 3.05176 4.89447 3.05176 4.48047C3.05176 4.06647 3.38776 3.73047 3.80176 3.73047H5.80176Z" fill="white"/>
<path d="M21.5633 12.3158C21.3416 12.0873 20.8976 11.9004 20.5763 11.9004H14.9552C14.0133 11.9004 13.25 12.6526 13.25 13.581V22.3198C13.25 23.2475 14.0133 24.0004 14.9552 24.0004H22.2876C23.2296 24.0004 23.9929 23.2475 23.9929 22.3198V15.2622C23.9929 15.0135 23.8612 14.6894 23.6866 14.5093L21.5633 12.3158Z" fill="#F0F0F0"/>
<path d="M20.3302 12.584C20.611 12.584 20.9997 12.7497 21.1929 12.953L23.0494 14.8978C23.2021 15.0576 23.3165 15.3449 23.3165 15.5661V21.8249C23.3165 22.6483 22.6494 23.3154 21.8261 23.3154H15.417C14.5937 23.3154 13.9265 22.6483 13.9265 21.8249V14.0745C13.9265 13.2511 14.5937 12.584 15.417 12.584H20.3302ZM18.8529 14.7249H16.6034C16.046 14.7249 15.5941 15.156 15.5941 15.6883V20.1151C15.5941 20.6469 16.046 21.0785 16.6034 21.0785H17.2455V19.3186C17.2455 19.0992 17.4232 18.9215 17.6426 18.9215H18.3371C18.5565 18.9215 18.7342 19.0992 18.7342 19.3186V21.0785H20.6402C21.1977 21.0785 21.649 20.6469 21.649 20.1151L21.6484 17.8722C21.6484 17.3398 21.1971 16.9088 20.6396 16.9088H19.8616V15.6883C19.8616 15.156 19.4103 14.7249 18.8529 14.7249ZM18.5308 17.0659C18.7502 17.0659 18.9279 17.2436 18.9279 17.463C18.9279 17.6824 18.7502 17.86 18.5308 17.86H18.4015C18.1821 17.86 18.0044 17.6824 18.0044 17.463C18.0044 17.2436 18.1821 17.0659 18.4015 17.0659H18.5308ZM17.1411 17.0659C17.3605 17.0659 17.5381 17.2436 17.5381 17.463C17.5381 17.6824 17.3605 17.86 17.1411 17.86H17.0117C16.7923 17.86 16.6146 17.6824 16.6146 17.463C16.6146 17.2436 16.7923 17.0659 17.0117 17.0659H17.1411ZM17.1411 15.7751C17.3605 15.7751 17.5381 15.9528 17.5381 16.1722C17.5381 16.3916 17.3605 16.5692 17.1411 16.5692H17.0117C16.7923 16.5692 16.6146 16.3916 16.6146 16.1722C16.6146 15.9528 16.7923 15.7751 17.0117 15.7751H17.1411ZM18.5308 15.7751C18.7502 15.7751 18.9279 15.9528 18.9279 16.1722C18.9279 16.3916 18.7502 16.5692 18.5308 16.5692H18.4015C18.1821 16.5692 18.0044 16.3916 18.0044 16.1722C18.0044 15.9528 18.1821 15.7751 18.4015 15.7751H18.5308Z" fill="#F77C46"/>
</g>
<defs>
<clipPath id="clip0_1074_13567">
<rect width="24" height="24" fill="white"/>
</clipPath>
</defs>
</svg>
