<svg width="24" height="24" viewBox="0 0 24 24" fill="none" xmlns="http://www.w3.org/2000/svg">
<path d="M20.5 12V18.107C20.5 19.425 19.427 20.5 18.11 20.5C16.79 20.5 15.718 19.425 15.718 18.107V14.823C15.718 13.502 16.79 12.43 18.11 12.43C18.425 12.43 18.725 12.49 19 12.603V12C19 8.14 15.86 5 12 5C8.143 5 5 8.14 5 12V12.603C5.275 12.49 5.578 12.43 5.893 12.43C7.213 12.43 8.285 13.502 8.285 14.823V18.107C8.285 19.425 7.213 20.5 5.893 20.5C4.575 20.5 3.5 19.425 3.5 18.107V12C3.5 7.313 7.315 3.5 12 3.5C16.687 3.5 20.5 7.313 20.5 12Z" fill="white"/>
</svg>
