<svg width="24" height="24" viewBox="0 0 24 24" fill="none" xmlns="http://www.w3.org/2000/svg">
<g clip-path="url(#clip0_1074_13529)">
<path fill-rule="evenodd" clip-rule="evenodd" d="M19.5518 16.6201C19.9658 16.6201 20.3018 16.9561 20.3018 17.3701C20.3018 17.7851 19.9658 18.1201 19.5518 18.1201H9.80176C9.38776 18.1201 9.05176 17.7851 9.05176 17.3701C9.05176 16.9561 9.38776 16.6201 9.80176 16.6201H19.5518ZM5.80176 16.6201C6.21576 16.6201 6.55176 16.9561 6.55176 17.3701C6.55176 17.7851 6.21576 18.1201 5.80176 18.1201H3.80176C3.38776 18.1201 3.05176 17.7851 3.05176 17.3701C3.05176 16.9561 3.38776 16.6201 3.80176 16.6201H5.80176ZM19.5518 10.1768C19.9658 10.1768 20.3018 10.5128 20.3018 10.9268C20.3018 11.3418 19.9658 11.6768 19.5518 11.6768H9.80176C9.38776 11.6768 9.05176 11.3418 9.05176 10.9268C9.05176 10.5128 9.38776 10.1768 9.80176 10.1768H19.5518ZM5.80176 10.1768C6.21576 10.1768 6.55176 10.5128 6.55176 10.9268C6.55176 11.3418 6.21576 11.6768 5.80176 11.6768H3.80176C3.38776 11.6768 3.05176 11.3418 3.05176 10.9268C3.05176 10.5128 3.38776 10.1768 3.80176 10.1768H5.80176ZM19.5518 3.7334C19.9658 3.7334 20.3018 4.0694 20.3018 4.4834C20.3018 4.8974 19.9658 5.2334 19.5518 5.2334H9.80176C9.38776 5.2334 9.05176 4.8974 9.05176 4.4834C9.05176 4.0694 9.38776 3.7334 9.80176 3.7334H19.5518ZM5.80176 3.7334C6.21576 3.7334 6.55176 4.0694 6.55176 4.4834C6.55176 4.8974 6.21576 5.2334 5.80176 5.2334H3.80176C3.38776 5.2334 3.05176 4.8974 3.05176 4.4834C3.05176 4.0694 3.38776 3.7334 3.80176 3.7334H5.80176Z" fill="white"/>
<path d="M21.5633 12.3158C21.3416 12.0873 20.8976 11.9004 20.5763 11.9004H14.9552C14.0133 11.9004 13.25 12.6526 13.25 13.581V22.3198C13.25 23.2475 14.0133 24.0004 14.9552 24.0004H22.2876C23.2296 24.0004 23.9929 23.2475 23.9929 22.3198V15.2622C23.9929 15.0135 23.8612 14.6894 23.6866 14.5093L21.5633 12.3158Z" fill="#F0F0F0"/>
<path d="M21.1927 12.9524C20.9989 12.7497 20.6108 12.584 20.33 12.584H15.4168C14.5935 12.584 13.9263 13.2511 13.9263 14.0745V21.8249C13.9263 22.6477 14.5935 23.3154 15.4168 23.3154H21.8259C22.6492 23.3154 23.3163 22.6477 23.3163 21.8249V15.5655C23.3163 15.3449 23.2013 15.0576 23.0486 14.8978L21.1927 12.9524Z" fill="#12932A"/>
<path d="M20.9966 21.3877H16.3739V20.5007L18.5954 18.0771C18.9061 17.7313 19.1299 17.4393 19.2609 17.2088C19.3866 16.9865 19.4502 16.762 19.4502 16.5411C19.4502 16.2485 19.3716 16.0202 19.2092 15.8428C19.0498 15.6684 18.8387 15.5838 18.5647 15.5838C18.2332 15.5838 17.9854 15.6804 17.8058 15.8787C17.6261 16.0778 17.5348 16.357 17.5348 16.7088V16.8024H16.2466V16.7088C16.2466 16.2926 16.3432 15.9117 16.5333 15.5771C16.7242 15.2417 17.0004 14.9768 17.3544 14.7911C17.7062 14.6063 18.1179 14.5127 18.5737 14.5127C19.2347 14.5127 19.7646 14.6826 20.1508 15.0179C20.5408 15.357 20.7384 15.8301 20.7384 16.4229C20.7384 16.7657 20.6411 17.1287 20.4495 17.5015C20.2609 17.8682 19.9487 18.2889 19.5221 18.7522L18.0558 20.3218H20.9966V21.3877Z" fill="#F0F0F0"/>
</g>
<defs>
<clipPath id="clip0_1074_13529">
<rect width="24" height="24" fill="white"/>
</clipPath>
</defs>
</svg>
