<svg width="24" height="24" viewBox="0 0 24 24" fill="none" xmlns="http://www.w3.org/2000/svg">
<path fill-rule="evenodd" clip-rule="evenodd" d="M17.25 3.00098C19.042 3.00098 20.5 4.45898 20.5 6.25098V17.251C20.5 19.042 19.042 20.501 17.25 20.501H6.25C4.458 20.501 3 19.042 3 17.251V6.25098C3 4.45898 4.458 3.00098 6.25 3.00098H17.25ZM19 15.167H15.167V19.001H17.25C18.215 19.001 19 18.215 19 17.251V15.167ZM13.667 15.168H9.834V19.001H13.667V15.168ZM8.333 15.167H4.5V17.251C4.5 18.215 5.285 19.001 6.25 19.001H8.333V15.167ZM19 9.83398H15.167V13.667H19V9.83398ZM13.667 9.83398H9.834V13.667H13.667V9.83398ZM8.333 9.83398H4.5V13.667H8.333V9.83398ZM17.25 4.50098H15.167V8.33398H19V6.25098C19 5.28598 18.215 4.50098 17.25 4.50098ZM13.667 4.50098H9.834V8.33398H13.667V4.50098ZM8.333 4.50098H6.25C5.285 4.50098 4.5 5.28598 4.5 6.25098V8.33398H8.333V4.50098Z" fill="white"/>
</svg>
