<svg width="24" height="24" viewBox="0 0 24 24" fill="none" xmlns="http://www.w3.org/2000/svg">
<path fill-rule="evenodd" clip-rule="evenodd" d="M11.9994 13.1684C10.3434 13.1684 8.99942 11.8254 8.99942 10.1664C8.99942 8.51137 10.3434 7.16837 11.9994 7.16837C13.6564 7.16837 14.9994 8.51137 14.9994 10.1664C14.9994 11.8254 13.6564 13.1684 11.9994 13.1684ZM11.9984 3.02637C8.02042 3.02637 4.78442 6.26237 4.78442 10.2394C4.78442 12.9944 6.87942 15.3144 6.96142 15.4024L10.8604 20.4494C11.4594 21.1474 12.5394 21.1474 13.1384 20.4484L17.0284 15.4114C17.1184 15.3144 19.2154 12.9944 19.2154 10.2394C19.2154 6.26237 15.9784 3.02637 11.9984 3.02637Z" fill="white"/>
</svg>
