<svg width="24" height="24" viewBox="0 0 24 24" fill="none" xmlns="http://www.w3.org/2000/svg">
<path fill-rule="evenodd" clip-rule="evenodd" d="M7.68069 8.11612C7.68069 5.66056 9.61821 3.6622 11.999 3.6622C14.3815 3.6622 16.3199 5.66056 16.3199 8.11612V10.2742H7.68069V8.11612ZM20.3999 11.9558C20.3999 11.0314 19.6442 10.2742 18.7199 10.2742H18.2798V8.11612C18.2798 4.57852 15.4627 1.7002 11.999 1.7002C8.53785 1.7002 5.72061 4.57852 5.72061 8.11612V10.2742H5.28021C4.35621 10.2742 3.59985 11.0314 3.59985 11.9558V20.6186C3.59985 21.5438 4.35621 22.3001 5.28021 22.3001H18.7199C19.6442 22.3001 20.3999 21.5438 20.3999 20.6186V11.9558Z" fill="white"/>
</svg>
