<svg width="24" height="24" viewBox="0 0 24 24" fill="none" xmlns="http://www.w3.org/2000/svg">
<path d="M17.328 2H6.673C5.749 2 5 2.746 5 3.667V20.334C5 21.254 5.749 22 6.673 22H17.328C18.252 22 19 21.254 19 20.334V3.667C19 2.746 18.252 2 17.328 2ZM12 5.474C12.972 5.474 13.759 6.261 13.759 7.233C13.759 7.881 13.404 8.443 12.88 8.748V12.145H11.12V8.747C10.598 8.442 10.241 7.881 10.241 7.232C10.241 6.261 11.028 5.474 12 5.474ZM17 19.26C17 19.465 16.834 19.631 16.629 19.631H7.37C7.166 19.631 7 19.465 7 19.26V17.506C7 17.156 7.226 16.94 7.233 16.93L9.411 14.887C9.555 14.748 9.788 14.754 9.928 14.891L10.987 15.924C11.13 16.063 11.359 16.061 11.5 15.924L14.167 13.309C14.309 13.17 14.535 13.17 14.675 13.315L16.798 15.485C16.798 15.485 17.001 15.671 17.001 15.936L17 19.26Z" fill="white"/>
<path d="M2.529 5.015C1.674 5.085 1 5.797 1 6.673V17.328C1 18.205 1.674 18.915 2.529 18.986V19.025H3.693V5H2.529V5.015Z" fill="white"/>
<path d="M21.471 5.015V5H20.306V19.025H21.471V18.986C22.325 18.915 23 18.205 23 17.328V6.673C23 5.797 22.325 5.085 21.471 5.015Z" fill="white"/>
</svg>
