<svg width="24" height="24" viewBox="0 0 24 24" fill="none" xmlns="http://www.w3.org/2000/svg">
<path d="M10.0923 10.626V8.952C10.0923 7.873 10.9463 6.998 12.0003 6.998C13.0533 6.998 13.9073 7.873 13.9073 8.952V10.626M16.75 20.5H7.25C5.869 20.5 4.75 19.381 4.75 18V6C4.75 4.62 5.869 3.5 7.25 3.5H16.75C18.131 3.5 19.25 4.62 19.25 6V18C19.25 19.381 18.131 20.5 16.75 20.5ZM14.7505 15.876H9.2505C8.8365 15.876 8.5005 15.541 8.5005 15.126V11.376C8.5005 10.962 8.8365 10.626 9.2505 10.626H14.7505C15.1645 10.626 15.5005 10.962 15.5005 11.376V15.126C15.5005 15.541 15.1645 15.876 14.7505 15.876Z" stroke="white" stroke-width="1.5" stroke-linecap="round" stroke-linejoin="round"/>
</svg>
