<svg width="24" height="24" viewBox="0 0 24 24" fill="none" xmlns="http://www.w3.org/2000/svg">
<path d="M16.4966 10.0496L16.3966 7.34961C16.3966 4.84961 14.3966 2.84961 11.9966 2.84961C9.59663 2.84961 7.59663 4.84961 7.59663 7.34961V10.0496H7.49663C6.29663 10.0496 5.29663 11.0496 5.29663 12.2496V18.9496C5.29663 20.1496 6.29663 21.1496 7.49663 21.1496H16.4966C17.6966 21.1496 18.6966 20.1496 18.6966 18.9496V12.2496C18.7966 11.0496 17.7966 10.0496 16.4966 10.0496ZM10.7966 14.4496C10.7966 13.7496 11.3966 13.1496 12.0966 13.1496C12.7966 13.1496 13.3966 13.7496 13.3966 14.4496C13.3966 14.8496 13.1966 15.2496 12.8966 15.4496V17.5496C12.8966 17.9496 12.5966 18.3496 12.0966 18.3496C11.5966 18.3496 11.2966 18.0496 11.2966 17.5496V15.4496C10.9966 15.2496 10.7966 14.8496 10.7966 14.4496ZM9.09663 7.24961C9.09663 5.54961 10.3966 4.24961 11.9966 4.24961C13.5966 4.24961 14.8966 5.54961 14.8966 7.24961V9.94961H9.09663V7.24961Z" fill="white"/>
</svg>
