<svg width="24" height="24" viewBox="0 0 24 24" fill="none" xmlns="http://www.w3.org/2000/svg">
<path d="M13.5356 14.1849C13.5356 14.8849 12.9596 15.4519 12.2496 15.4519C11.5396 15.4519 10.9646 14.8849 10.9646 14.1849C10.9646 13.4849 11.5396 12.9189 12.2496 12.9189C12.9596 12.9189 13.5356 13.4849 13.5356 14.1849Z" fill="white"/>
<path d="M12.25 14.9522V17.3292M8.582 9.25V7.007C8.582 4.932 10.224 3.25 12.249 3.25C14.275 3.25 15.917 4.932 15.917 7.007V9.25M16.75 20.6905H7.75C6.646 20.6905 5.75 19.7945 5.75 18.6905V11.9635C5.75 10.8585 6.646 9.9635 7.75 9.9635H16.75C17.854 9.9635 18.75 10.8585 18.75 11.9635V18.6905C18.75 19.7945 17.854 20.6905 16.75 20.6905Z" stroke="white" stroke-width="1.5" stroke-linecap="round" stroke-linejoin="round"/>
</svg>
