<svg width="24" height="24" viewBox="0 0 24 24" fill="none" xmlns="http://www.w3.org/2000/svg">
<g clip-path="url(#clip0_1074_13459)">
<path d="M19.267 1.48828L16.7286 1.59388C13.3425 1.79088 10.3013 2.95338 10.0276 3.08598C8.71449 3.66678 8.78649 4.42578 8.78019 4.57828L8.77949 4.60528C9.03479 6.74118 10.864 10.2506 10.9543 10.3942L11.1952 10.5323M11.1952 10.5323C9.51789 14.3975 8.69309 17.5356 8.33499 18.0505C8.13919 18.3453 4.93249 22.3856 4.77119 22.7561L4.75959 22.777C4.72279 22.8271 4.42419 23.3095 4.44059 23.3969C4.48419 23.6265 10.099 21.1919 10.3661 21.0523L10.4293 21.0188L10.4724 20.9815C10.5556 20.9321 10.8441 20.7466 10.9747 20.4888L11.1571 20.1295L10.9094 19.8112C10.8892 19.785 10.8555 19.7457 10.8041 19.6973L10.7461 18.9123C10.7423 18.9093 10.7053 18.8793 10.6866 18.7936C10.6594 18.6691 10.6526 18.2969 11.1672 17.5492C12.243 16.0718 12.7777 15.1003 13.3664 14.1477C13.6532 14.7216 13.825 15.1169 13.8754 15.3271C13.9032 15.4382 15.2206 18.9874 15.5273 19.9168C15.962 21.233 17.4785 22.0192 17.4785 22.0192C17.3805 20.6987 18.4812 16.0665 18.4442 15.7608L18.4061 15.4405L18.1415 15.2921C18.0692 15.2389 17.9309 15.1563 17.7847 15.121L17.5856 15.0771L17.4223 15.1371C17.416 15.1381 16.6691 15.1386 16.6585 15.1386C16.5096 15.1386 14.9739 10.2478 14.9739 10.2478C15.0591 10.1437 15.1473 10.0706 15.2355 10.0321L15.2897 10.0056C16.502 9.33428 18.5679 8.40588 19.0046 8.21788L19.3894 8.05258V1.87758L17.3493 3.05718C15.4096 4.76958 12.7225 4.26328 11.1952 10.5323Z" stroke="white" stroke-width="1.512" stroke-linecap="round" stroke-linejoin="round"/>
<path d="M14.9738 10.2471C14.9738 10.2471 14.2662 12.8768 12.889 14.8938" stroke="white" stroke-width="1.512" stroke-linecap="round" stroke-linejoin="round"/>
</g>
<defs>
<clipPath id="clip0_1074_13459">
<rect width="24" height="24" fill="white"/>
</clipPath>
</defs>
</svg>
