<svg width="24" height="24" viewBox="0 0 24 24" fill="none" xmlns="http://www.w3.org/2000/svg">
<path d="M12.1237 3C17.1634 3 21.2497 7.0863 21.2497 12.125C21.2497 17.1651 17.1641 21.25 12.1237 21.25C7.085 21.25 2.99969 17.1647 2.99969 12.125C2.99969 7.0866 7.0856 3 12.1237 3ZM12.1237 4.5C7.9141 4.5 4.49969 7.915 4.49969 12.125C4.49969 16.3363 7.9134 19.75 12.1237 19.75C16.3357 19.75 19.7497 16.3366 19.7497 12.125C19.7497 7.9147 16.335 4.5 12.1237 4.5ZM14.753 8.1342C15.475 8.1342 16.04 8.3042 16.449 8.6462C16.859 8.9882 17.063 9.4592 17.063 10.0582C17.063 10.3682 16.968 10.6522 16.778 10.9122C16.587 11.1722 16.337 11.3712 16.028 11.5102C16.412 11.6462 16.699 11.8502 16.888 12.1232C17.077 12.3942 17.171 12.7172 17.171 13.0882C17.171 13.6872 16.95 14.1682 16.508 14.5302C16.066 14.8912 15.481 15.0732 14.753 15.0732C14.072 15.0732 13.515 14.8952 13.083 14.5392C12.65 14.1832 12.433 13.7142 12.433 13.1292H13.788C13.788 13.3832 13.884 13.5902 14.076 13.7512C14.268 13.9122 14.505 13.9922 14.786 13.9922C15.108 13.9922 15.36 13.9082 15.543 13.7392C15.726 13.5712 15.817 13.3472 15.817 13.0692C15.817 12.3942 15.442 12.0572 14.692 12.0572H13.975V11.0092H14.697C15.041 11.0092 15.295 10.9252 15.461 10.7542C15.626 10.5842 15.709 10.3582 15.709 10.0772C15.709 9.8042 15.627 9.5932 15.463 9.4412C15.299 9.2902 15.073 9.2142 14.786 9.2142C14.526 9.2142 14.31 9.2852 14.134 9.4262C13.959 9.5662 13.872 9.7492 13.872 9.9742H12.518C12.518 9.6222 12.614 9.3062 12.806 9.0262C12.998 8.7472 13.267 8.5272 13.612 8.3702C13.957 8.2122 14.338 8.1342 14.753 8.1342ZM8.86699 9.9612L9.70099 11.4592L10.554 9.9612H12.003L10.559 12.4202L12.063 14.9802H10.611L9.706 13.4032L8.80599 14.9802H7.34899L8.85299 12.4202L7.41499 9.9612H8.86699Z" fill="white"/>
</svg>
