<svg width="24" height="24" viewBox="0 0 24 24" fill="none" xmlns="http://www.w3.org/2000/svg">
<path d="M12.1238 3C17.1633 3 21.2498 7.0861 21.2498 12.124C21.2498 17.1642 17.164 21.25 12.1238 21.25C7.08516 21.25 2.99976 17.1639 2.99976 12.124C2.99976 7.0865 7.08586 3 12.1238 3ZM12.1238 4.5C7.91436 4.5 4.49976 7.9149 4.49976 12.124C4.49976 16.3355 7.91366 19.75 12.1238 19.75C16.3356 19.75 19.7498 16.3358 19.7498 12.124C19.7498 7.9146 16.3349 4.5 12.1238 4.5ZM14.8327 8.1325C15.5357 8.1325 16.0817 8.2995 16.4707 8.6335C16.8597 8.9675 17.0537 9.4395 17.0537 10.0485C17.0537 10.3825 16.9667 10.7225 16.7917 11.0695C16.6167 11.4165 16.3167 11.8195 15.8917 12.2805L14.3407 13.8985H17.2747V14.9795H12.5977V14.0615L14.8047 11.7325C15.1077 11.4045 15.3317 11.1195 15.4777 10.8745C15.6227 10.6295 15.6947 10.3985 15.6947 10.1785C15.6947 9.8785 15.6187 9.6425 15.4657 9.4705C15.3127 9.2995 15.0927 9.2135 14.8097 9.2135C14.5037 9.2135 14.2617 9.3185 14.0857 9.5265C13.9087 9.7355 13.8207 10.0095 13.8207 10.3505H12.4617C12.4617 9.9385 12.5607 9.5635 12.7587 9.2225C12.9577 8.8825 13.2377 8.6165 13.6007 8.4225C13.9627 8.2295 14.3737 8.1325 14.8327 8.1325ZM8.86766 9.9605L9.70166 11.4585L10.5547 9.9605H12.0027L10.5587 12.4185L12.0637 14.9795H10.6107L9.70666 13.4025L8.80666 14.9795H7.34866L8.85366 12.4185L7.41466 9.9605H8.86766Z" fill="white"/>
</svg>
