<svg width="24" height="24" viewBox="0 0 24 24" fill="none" xmlns="http://www.w3.org/2000/svg">
<path d="M12.1238 3C17.1633 3 21.2498 7.0861 21.2498 12.124C21.2498 17.1642 17.164 21.25 12.1238 21.25C7.08516 21.25 2.99976 17.1639 2.99976 12.124C2.99976 7.0865 7.08586 3 12.1238 3ZM12.1238 4.5C7.91436 4.5 4.49976 7.9149 4.49976 12.124C4.49976 16.3355 7.91366 19.75 12.1238 19.75C16.3356 19.75 19.7498 16.3358 19.7498 12.124C19.7498 7.9146 16.3349 4.5 12.1238 4.5ZM15.8875 8.2165V14.9795H14.5335V9.8125L12.9165 10.3085V9.2185L15.7415 8.2165H15.8875ZM8.86746 9.9605L9.70146 11.4585L10.5545 9.9605H12.0025L10.5585 12.4185L12.0635 14.9795H10.6105L9.70646 13.4025L8.80646 14.9795H7.34846L8.85346 12.4185L7.41446 9.9605H8.86746Z" fill="white"/>
</svg>
