<svg width="24" height="24" viewBox="0 0 24 24" fill="none" xmlns="http://www.w3.org/2000/svg">
<path fill-rule="evenodd" clip-rule="evenodd" d="M8.05331 3.99838C8.80631 3.11238 10.2553 3.64538 10.2553 4.80838V9.54738C10.9953 9.91638 11.5053 10.6784 11.5053 11.5604V18.9454C11.5053 19.7744 10.8343 20.4454 10.0053 20.4454H6.25531C5.42731 20.4454 4.75531 19.7744 4.75531 18.9454V11.5604C4.75531 10.6784 5.26631 9.91638 6.00531 9.54738V7.14238C6.00531 6.66838 6.17431 6.20938 6.48231 5.84738L8.05331 3.99838ZM16.1747 10.4051C17.8967 10.4371 19.2447 11.9131 19.2447 13.6361V18.9441C19.2447 19.7691 18.5697 20.4441 17.7447 20.4441H14.4857C13.6607 20.4441 12.9857 19.7691 12.9857 18.9441V16.5851L12.9867 13.6871C12.9867 11.7841 14.4197 10.3731 16.1747 10.4051ZM9.25531 10.8104H7.00531C6.59231 10.8104 6.25531 11.1464 6.25531 11.5604V13.1954H10.0053V11.5604C10.0053 11.1464 9.66931 10.8104 9.25531 10.8104Z" fill="white"/>
</svg>
