<svg width="24" height="24" viewBox="0 0 24 24" fill="none" xmlns="http://www.w3.org/2000/svg">
<path fill-rule="evenodd" clip-rule="evenodd" d="M11.2719 3.64258L11.2689 8.82358C9.83591 9.16258 8.76791 10.4456 8.76691 11.9816C8.76691 13.7766 10.2209 15.2326 12.0159 15.2336C13.5519 15.2346 14.8369 14.1676 15.1769 12.7346L20.3569 12.7376C19.9749 17.0106 16.3859 20.3606 12.0129 20.3576C7.38791 20.3556 3.63991 16.6046 3.64191 11.9786C3.64491 7.60658 6.99691 4.02058 11.2719 3.64258ZM12.7711 3.64358C16.7981 4.00358 20.0021 7.21058 20.3581 11.2376L15.1771 11.2346C14.8961 10.0436 13.9601 9.10658 12.7691 8.82458L12.7711 3.64358Z" fill="white"/>
</svg>
