<svg width="24" height="24" viewBox="0 0 24 24" fill="none" xmlns="http://www.w3.org/2000/svg">
<path d="M12 4.3027V8.3027M15.5693 12H19.5693M20.5 12C20.5 7.305 16.695 3.5 12 3.5C7.306 3.5 3.5 7.305 3.5 12C3.5 16.694 7.306 20.5 12 20.5C16.695 20.5 20.5 16.694 20.5 12ZM12 15.25C10.208 15.25 8.75 13.792 8.75 12C8.75 10.208 10.208 8.75 12 8.75C13.792 8.75 15.25 10.208 15.25 12C15.25 13.792 13.792 15.25 12 15.25Z" stroke="white" stroke-width="1.5" stroke-linecap="round" stroke-linejoin="round"/>
</svg>
