<svg width="24" height="24" viewBox="0 0 24 24" fill="none" xmlns="http://www.w3.org/2000/svg">
<path d="M8.91309 5.99237C8.93129 5.99237 8.95509 5.99237 8.98489 5.99487C8.99999 5.99597 9.01619 6.00107 9.03149 6.00307C11.1182 6.17107 13.0767 8.01127 13.5722 10.4051C13.7549 11.2888 13.7104 12.0491 13.4226 12.9476C13.0358 14.1548 12.3831 14.767 12.3099 14.8331C12.1878 14.9429 12.0349 14.9971 11.8822 14.9971C11.7074 14.9971 11.5331 14.9256 11.4068 14.7854C11.1719 14.5243 11.1917 14.1228 11.4505 13.8861L11.4793 13.8569C11.5864 13.7443 11.9638 13.3098 12.2049 12.5576C12.4262 11.8655 12.4586 11.3348 12.3198 10.6642C12.0278 9.25287 11.0617 8.06317 9.93369 7.54467C9.65699 7.41757 9.37089 7.32897 9.08229 7.28957V15.4461C9.01079 16.9289 7.77649 18.1118 6.25909 18.1118C4.70019 18.1118 3.43619 16.8636 3.43619 15.3238C3.43619 13.7842 4.70019 12.5361 6.25909 12.5361C6.82949 12.5361 7.35969 12.7044 7.80349 12.9916V7.12607L7.80119 7.10427C7.80119 7.09687 7.80319 7.09007 7.80349 7.08267C7.81509 6.48097 8.30329 5.99657 8.90689 5.99317C8.90889 5.99317 8.91309 5.99237 8.91309 5.99237ZM18.452 4.97957C19.2747 6.06827 20.6519 8.33577 20.6312 11.2912C20.6079 14.6252 19.2205 16.5874 18.475 17.6417C18.3495 17.8188 18.1494 17.9144 17.9468 17.9144C17.82 17.9144 17.692 17.8769 17.581 17.7983C17.2927 17.5946 17.2214 17.1992 17.4255 16.9109C18.1418 15.8978 19.332 14.2149 19.3524 11.2824C19.3706 8.70437 18.1568 6.70987 17.4317 5.75067C17.2189 5.46887 17.2748 5.06817 17.5563 4.85497C17.8378 4.64217 18.2391 4.69747 18.452 4.97957ZM16.1243 7.42257C16.6699 8.21457 17.3136 9.45587 17.3924 10.9783L17.4005 11.2864C17.3999 13.1487 16.6816 14.4014 16.1413 15.1821C16.017 15.3612 15.8175 15.4576 15.6148 15.4576C15.4894 15.4576 15.3626 15.4205 15.2513 15.3438C14.961 15.1426 14.8886 14.7445 15.0895 14.4541C15.57 13.7603 16.1214 12.7735 16.1217 11.2876C16.1214 9.88247 15.4633 8.71747 15.0711 8.14797C14.8707 7.85737 14.9442 7.45917 15.2348 7.25877C15.526 7.05847 15.9239 7.13167 16.1243 7.42257Z" fill="white"/>
</svg>
