<svg width="24" height="24" viewBox="0 0 24 24" fill="none" xmlns="http://www.w3.org/2000/svg">
<path fill-rule="evenodd" clip-rule="evenodd" d="M6.80371 13.3828C6.33471 14.1418 6.06571 15.0067 6.06571 15.9157V17.8028C6.06571 18.0978 6.12171 18.3778 6.22171 18.6377C6.21871 18.6388 6.21571 18.6388 6.21271 18.6388H4.32471C3.93571 18.6388 3.61871 18.3217 3.61871 17.9327V16.3877C3.61871 14.9058 5.01971 13.5277 6.80371 13.3828ZM17.1953 13.3828C18.9803 13.5277 20.3813 14.9058 20.3813 16.3877V17.9327C20.3813 18.3217 20.0643 18.6388 19.6743 18.6388L17.7818 18.6386C17.8773 18.3778 17.9343 18.0978 17.9343 17.8028V15.9157C17.9343 15.0067 17.6653 14.1418 17.1953 13.3828ZM12 12.0839C14.449 12.0839 16.435 13.9288 16.435 15.9159V17.8028C16.435 18.2648 16.061 18.6388 15.599 18.6388H8.40101C7.93901 18.6388 7.56501 18.2648 7.56501 17.8028V15.9159C7.56501 13.9288 9.55101 12.0839 12 12.0839ZM6.92141 8.66055C7.89641 8.66055 8.68841 9.45165 8.68841 10.4277C8.68841 11.4047 7.89641 12.1956 6.92141 12.1956C5.94541 12.1956 5.15441 11.4047 5.15441 10.4277C5.15441 9.45165 5.94541 8.66055 6.92141 8.66055ZM17.0777 8.66055C18.0537 8.66055 18.8457 9.45165 18.8457 10.4277C18.8457 11.4047 18.0537 12.1956 17.0777 12.1956C16.1027 12.1956 15.3117 11.4047 15.3117 10.4277C15.3117 9.45165 16.1027 8.66055 17.0777 8.66055ZM11.999 5.36035C13.472 5.36035 14.665 6.55225 14.665 8.02535C14.665 9.49735 13.472 10.6904 11.999 10.6904C10.528 10.6904 9.33501 9.49735 9.33501 8.02535C9.33501 6.55225 10.528 5.36035 11.999 5.36035Z" fill="white"/>
</svg>
