<svg width="24" height="24" viewBox="0 0 24 24" fill="none" xmlns="http://www.w3.org/2000/svg">
<path d="M14.875 10.438H9.125C8.711 10.438 8.375 10.102 8.375 9.688C8.375 9.274 8.711 8.938 9.125 8.938H14.875C15.289 8.938 15.625 9.274 15.625 9.688C15.625 10.102 15.289 10.438 14.875 10.438ZM14.875 15.188H9.125C8.711 15.188 8.375 14.852 8.375 14.438C8.375 14.024 8.711 13.688 9.125 13.688H14.875C15.289 13.688 15.625 14.024 15.625 14.438C15.625 14.852 15.289 15.188 14.875 15.188ZM16.582 3.625H7.417C6.013 3.625 4.875 4.71 4.875 6.05V17.948C4.875 19.288 6.013 20.375 7.417 20.375H16.582C17.986 20.375 19.125 19.288 19.125 17.948V6.05C19.125 4.71 17.986 3.625 16.582 3.625Z" fill="white"/>
</svg>
