<svg width="24" height="24" viewBox="0 0 24 24" fill="none" xmlns="http://www.w3.org/2000/svg">
<path d="M3.75 7.489V6.25C3.75 4.875 4.875 3.75 6.25 3.75H7.488M7.4883 20.2503H6.2503C4.8753 20.2503 3.7503 19.1253 3.7503 17.7503V16.5123M20.25 16.512V17.75C20.25 19.125 19.125 20.25 17.75 20.25H16.511M16.5108 3.7503H17.7498C19.1248 3.7503 20.2498 4.8753 20.2498 6.2503V7.4893M10.1104 10.5044H13.8884M10.1104 13.4951H13.8884M14.7266 17.1943H9.2726C8.4346 17.1943 7.7496 16.5093 7.7496 15.6713V8.3283C7.7496 7.4903 8.4346 6.8053 9.2726 6.8053H14.7266C15.5646 6.8053 16.2496 7.4903 16.2496 8.3283V15.6713C16.2496 16.5093 15.5646 17.1943 14.7266 17.1943Z" stroke="white" stroke-width="1.5" stroke-linecap="round" stroke-linejoin="round"/>
</svg>
