<svg width="24" height="24" viewBox="0 0 24 24" fill="none" xmlns="http://www.w3.org/2000/svg">
<path d="M15 5.5996C16.1046 5.5996 17 6.495 17 7.5996V15.5996C17 16.7042 16.1046 17.5996 15 17.5996H9C7.8954 17.5996 7 16.7042 7 15.5996V7.5996C7 6.495 7.8954 5.5996 9 5.5996H15ZM13.75 12.2996H10.25C9.8358 12.2996 9.5 12.6354 9.5 13.0496C9.5 13.4638 9.8358 13.7996 10.25 13.7996H13.75C14.1642 13.7996 14.5 13.4638 14.5 13.0496C14.5 12.6354 14.1642 12.2996 13.75 12.2996ZM13.75 9.2996H10.25C9.8358 9.2996 9.5 9.6354 9.5 10.0496C9.5 10.4638 9.8358 10.7996 10.25 10.7996H13.75C14.1642 10.7996 14.5 10.4638 14.5 10.0496C14.5 9.6354 14.1642 9.2996 13.75 9.2996ZM3.7499 7.836C4.1639 7.836 4.4999 7.5 4.4999 7.086V5.75C4.4999 5.061 5.0609 4.5 5.7499 4.5H7.0539C7.4679 4.5 7.8039 4.164 7.8039 3.75C7.8039 3.335 7.4679 3 7.0539 3H5.7499C4.2329 3 2.9999 4.233 2.9999 5.75V7.086C2.9999 7.5 3.3359 7.836 3.7499 7.836ZM18.2499 3H16.9459C16.5319 3 16.1959 3.335 16.1959 3.75C16.1959 4.164 16.5319 4.5 16.9459 4.5H18.2499C18.9389 4.5 19.4999 5.061 19.4999 5.75V7.086C19.4999 7.5 19.8359 7.836 20.2499 7.836C20.6639 7.836 20.9999 7.5 20.9999 7.086V5.75C20.9999 4.233 19.7669 3 18.2499 3ZM7.0536 18.9512H5.7496C5.0606 18.9512 4.4996 18.3902 4.4996 17.7012V16.1152C4.4996 15.7012 4.1636 15.3652 3.7496 15.3652C3.3356 15.3652 2.9996 15.7012 2.9996 16.1152V17.7012C2.9996 19.2182 4.2336 20.4512 5.7496 20.4512H7.0536C7.4676 20.4512 7.8036 20.1162 7.8036 19.7012C7.8036 19.2872 7.4676 18.9512 7.0536 18.9512ZM20.2499 15.6153C19.8359 15.6153 19.4999 15.9513 19.4999 16.3653V17.7013C19.4999 18.3903 18.9389 18.9513 18.2499 18.9513H16.9459C16.5319 18.9513 16.1959 19.2873 16.1959 19.7013C16.1959 20.1163 16.5319 20.4513 16.9459 20.4513H18.2499C19.7669 20.4513 20.9999 19.2183 20.9999 17.7013V16.3653C20.9999 15.9513 20.6639 15.6153 20.2499 15.6153Z" fill="white"/>
</svg>
