<svg width="24" height="24" viewBox="0 0 24 24" fill="none" xmlns="http://www.w3.org/2000/svg">
<path d="M14.875 10.4385H9.125C8.711 10.4385 8.375 10.1025 8.375 9.68848C8.375 9.27448 8.711 8.93848 9.125 8.93848H14.875C15.289 8.93848 15.625 9.27448 15.625 9.68848C15.625 10.1025 15.289 10.4385 14.875 10.4385ZM14.875 15.1885H9.125C8.711 15.1885 8.375 14.8525 8.375 14.4385C8.375 14.0245 8.711 13.6885 9.125 13.6885H14.875C15.289 13.6885 15.625 14.0245 15.625 14.4385C15.625 14.8525 15.289 15.1885 14.875 15.1885Z" fill="white"/>
<path fill-rule="evenodd" clip-rule="evenodd" d="M16.582 3.625H7.417C6.013 3.625 4.875 4.71 4.875 6.05V17.948C4.875 19.288 6.013 20.375 7.417 20.375H16.582C17.986 20.375 19.125 19.288 19.125 17.948V6.05C19.125 4.71 17.986 3.625 16.582 3.625Z" stroke="white" stroke-width="1.5" stroke-linecap="round" stroke-linejoin="round"/>
</svg>
