<svg width="24" height="24" viewBox="0 0 24 24" fill="none" xmlns="http://www.w3.org/2000/svg">
<path d="M12 3C14.7661 3 17.2406 3.3035 18.8915 4.7988C20.2074 5.9906 21 7.9392 21 11.0944C21 14.2497 20.2073 16.1984 18.8913 17.3902C17.2404 18.8852 14.7659 19.1889 12 19.1889C11.1569 19.1889 10.3408 19.1607 9.5669 19.0791C8.4618 20.1275 7.3277 20.7606 6.1657 20.9787C5.798 21.0478 5.6131 20.9502 5.8246 20.6654C6.0228 20.3984 6.32 19.9643 6.4252 19.3405C6.4976 18.9106 6.463 18.5353 6.3212 18.2146C5.8791 17.9932 5.4737 17.7209 5.1086 17.3902C3.7927 16.1984 3 14.2497 3 11.0944C3 7.9392 3.7926 5.9904 5.1084 4.7988C6.7592 3.3035 9.2338 3 12 3Z" fill="white"/>
</svg>
