<svg width="24" height="24" viewBox="0 0 24 24" fill="none" xmlns="http://www.w3.org/2000/svg">
<path d="M11.8 3C14.5048 3 16.924 3.2968 18.5384 4.7584C19.8248 5.924 20.6 7.8296 20.6 10.9144C20.6 14 19.8248 15.9048 18.5384 17.0704C16.924 18.532 14.5048 18.8288 11.8 18.8288C9.0952 18.8288 6.676 18.532 5.0616 17.0704C3.7752 15.9048 3 14 3 10.9144C3 7.8296 3.7752 5.924 5.0616 4.7584C6.676 3.2968 9.0952 3 11.8 3ZM14.4752 7.4488H9.7032C9.2976 7.4488 8.9696 7.7776 8.9696 8.1824L8.9744 8.268C9.0168 8.6328 9.3264 8.9152 9.7032 8.9152H12.7088L8.3016 13.3192C8.0152 13.6056 8.0152 14.0696 8.3008 14.3568L8.376 14.4224C8.6632 14.6408 9.0752 14.6192 9.3384 14.3568L13.7416 9.9568L13.7424 12.9496C13.7424 13.3208 14.0184 13.628 14.376 13.6768L14.4752 13.6832C14.8808 13.6832 15.2088 13.3552 15.2088 12.9496V8.1824C15.2088 7.7776 14.8808 7.4488 14.4752 7.4488Z" fill="white"/>
<path d="M5.4896 17.08C6.2064 17.4936 6.4928 18.1256 6.3488 18.9776C6.2464 19.5872 5.956 20.012 5.7616 20.2728C5.5552 20.5512 5.736 20.6464 6.0952 20.5792C7.704 20.2776 9.2584 19.1616 10.7576 17.2312L5.4896 17.08Z" fill="white"/>
</svg>
