<svg width="24" height="24" viewBox="0 0 24 24" fill="none" xmlns="http://www.w3.org/2000/svg">
<path d="M8.11197 6.8088C8.39397 5.8908 8.83197 5.2068 9.39297 4.6988C10.623 3.5848 12.442 3.3208 14.485 3.3008L14.753 3.2998C16.904 3.2998 18.829 3.5358 20.113 4.6988C21.136 5.6258 21.753 7.1418 21.753 9.5958C21.753 12.0498 21.136 13.5648 20.113 14.4918C19.478 15.0668 18.686 15.4158 17.788 15.6208M10.65 6.8008L10.918 6.7998C13.069 6.7998 14.994 7.0358 16.278 8.1988C17.302 9.1258 17.918 10.6418 17.918 13.0958C17.918 15.5498 17.301 17.0648 16.278 17.9918C14.994 19.1548 13.069 19.3908 10.918 19.3908C10.262 19.3908 9.62797 19.3688 9.02597 19.3058C8.16597 20.1208 7.28397 20.6138 6.37997 20.7828C6.09397 20.8368 5.94997 20.7608 6.11497 20.5398L6.22697 20.3818C6.36397 20.1748 6.51797 19.8868 6.58197 19.5088C6.63797 19.1748 6.61097 18.8828 6.50097 18.6338C6.15697 18.4608 5.84197 18.2498 5.55797 17.9918C4.53497 17.0648 3.91797 15.5498 3.91797 13.0958C3.91797 10.6418 4.53397 9.1258 5.55797 8.1988C6.78797 7.08481 8.60697 6.8208 10.65 6.8008Z" stroke="white" stroke-width="1.5625"/>
</svg>
