<svg width="24" height="24" viewBox="0 0 24 24" fill="none" xmlns="http://www.w3.org/2000/svg">
<path fill-rule="evenodd" clip-rule="evenodd" d="M15.2512 14.509C15.6843 14.509 16.036 14.8596 16.036 15.2913C16.036 15.7236 15.6843 16.0737 15.2512 16.0737H8.7492C8.3157 16.0737 7.9644 15.7239 7.9644 15.2913C7.9644 14.8596 8.3157 14.509 8.7492 14.509H15.2512ZM15.5082 10.2802C16.1266 10.2802 16.6293 10.7814 16.6293 11.3973C16.6293 12.0141 16.1266 12.5151 15.5082 12.5151C14.8896 12.5151 14.3872 12.0138 14.3872 11.3973C14.3872 10.7814 14.8896 10.2802 15.5082 10.2802ZM8.49225 10.2802C9.11055 10.2802 9.6132 10.7814 9.6132 11.3973C9.6132 12.0141 9.11055 12.5151 8.49225 12.5151C7.8738 12.5151 7.3707 12.0141 7.3707 11.3973C7.3707 10.7814 7.8738 10.2802 8.49225 10.2802ZM12.8499 6.9699V5.6442C13.4214 5.3145 13.794 4.7448 13.794 4.03785C13.794 3.0504 12.9898 2.25 12.0001 2.25C11.0088 2.25 10.2064 3.0504 10.2064 4.03785C10.2064 4.74525 10.5904 5.32875 11.1796 5.6445V6.9699H6.73095C5.2512 6.9699 4.0404 8.1768 4.0404 9.65205V10.5462V15.4635V16.311C4.0404 17.7862 5.2509 18.9928 6.73095 18.9928H7.6278H7.66365C7.6812 18.9928 7.69755 18.9976 7.71465 18.9985H8.56635L8.57205 20.7572L8.56635 21.1332C8.56635 21.4692 8.96685 21.7152 9.52425 21.4062L13.1797 18.9928H17.269C18.7488 18.9928 19.9596 17.7862 19.9596 16.311V9.65205C19.9596 8.1771 18.7488 6.9699 17.269 6.9699H12.8499Z" fill="white"/>
</svg>
