<svg width="24" height="24" viewBox="0 0 24 24" fill="none" xmlns="http://www.w3.org/2000/svg">
<path d="M11.656 3.002L12 3C14.766 3 17.241 3.304 18.892 4.799C20.207 5.991 21 7.939 21 11.094C21 14.25 20.207 16.198 18.891 17.39C17.24 18.885 14.766 19.189 12 19.189C11.157 19.189 10.341 19.161 9.567 19.079C8.462 20.127 7.328 20.761 6.166 20.979C5.798 21.048 5.613 20.95 5.825 20.665L5.968 20.462C6.145 20.196 6.343 19.826 6.425 19.34C6.498 18.911 6.463 18.535 6.321 18.215C5.879 17.993 5.474 17.721 5.109 17.39C3.793 16.198 3 14.25 3 11.094C3 7.939 3.793 5.99 5.108 4.799C6.69 3.366 9.029 3.027 11.656 3.002Z" stroke="white" stroke-width="1.5625"/>
</svg>
