<svg width="24" height="24" viewBox="0 0 24 24" fill="none" xmlns="http://www.w3.org/2000/svg">
<path d="M19.7146 19.1332L13.4483 12.867M9.94884 19.0793C8.84334 20.1278 7.70934 20.7608 6.54759 20.979C6.18009 21.048 5.99484 20.9505 6.20634 20.6655L6.35034 20.4622C6.52734 20.196 6.72534 19.8255 6.80709 19.3403C6.87984 18.9105 6.84459 18.5355 6.70284 18.2145C6.26109 17.9932 5.85534 17.721 5.49084 17.3903C4.17459 16.1985 3.38184 14.25 3.38184 11.0948C3.38184 7.9395 4.17459 5.99025 5.49009 4.7985C7.07259 3.366 9.41109 3.027 12.0376 3.0015L12.3818 3C15.1478 3 17.6221 3.30375 19.2736 4.7985C20.4091 5.8275 21.1546 7.41975 21.3376 9.86475M21.0818 15.9998C21.0818 18.4852 19.0666 20.4998 16.5818 20.4998C14.0971 20.4998 12.0818 18.4852 12.0818 15.9998C12.0818 13.5158 14.0971 11.4998 16.5818 11.4998C19.0666 11.4998 21.0818 13.5158 21.0818 15.9998Z" stroke="white" stroke-width="1.5"/>
</svg>
