<svg width="24" height="24" viewBox="0 0 24 24" fill="none" xmlns="http://www.w3.org/2000/svg">
<path fill-rule="evenodd" clip-rule="evenodd" d="M11.7998 3C14.5044 3 16.9237 3.29648 18.5381 4.75781C19.8245 5.9234 20.5996 7.82932 20.5996 10.9141C20.5996 13.9997 19.8245 15.9047 18.5381 17.0703C16.9237 18.5317 14.5045 18.8281 11.7998 18.8281C10.975 18.8281 10.1769 18.7995 9.41992 18.7197C8.33831 19.7451 7.23088 20.3661 6.09473 20.5791C5.73562 20.6463 5.55535 20.5508 5.76172 20.2725C5.95611 20.0116 6.24627 19.5868 6.34863 18.9775C6.41986 18.5561 6.38447 18.189 6.24512 17.875C5.81553 17.6565 5.41816 17.3932 5.06152 17.0703C3.77512 15.9047 3 13.9997 3 10.9141C3.00002 7.82932 3.77514 5.9234 5.06152 4.75781C6.67588 3.29635 9.09516 3.00001 11.7998 3ZM11.5557 6.75684C11.1509 6.75684 10.8223 7.0845 10.8223 7.48926V11.0791C10.8223 11.4838 11.1509 11.8125 11.5557 11.8125H14.4893C14.8938 11.8123 15.2226 11.4837 15.2227 11.0791L15.2148 10.9795C15.1667 10.6214 14.8601 10.3459 14.4893 10.3457H12.2891V7.48926C12.289 7.08466 11.961 6.75709 11.5557 6.75684Z" fill="white"/>
</svg>
