<svg width="24" height="24" viewBox="0 0 24 24" fill="none" xmlns="http://www.w3.org/2000/svg">
<path d="M14.6652 19.2566C13.8511 19.3434 12.9917 19.3738 12.1028 19.3738C11.2286 19.3738 10.3821 19.3443 9.57999 19.2612C8.43353 20.3366 7.25753 20.9855 6.05292 21.2089C5.67076 21.28 5.47968 21.1803 5.69845 20.8877L5.84799 20.68C6.03169 20.4068 6.23661 20.0265 6.32153 19.5289C6.3963 19.0877 6.36122 18.7028 6.21353 18.3741C5.75569 18.1471 5.33476 17.8683 4.9563 17.5286C3.59199 16.3065 2.76953 14.308 2.76953 11.0717C2.76953 7.83538 3.59107 5.83692 4.9563 4.61476C6.59661 3.1443 9.02153 2.79722 11.7455 2.77138L12.1028 2.76953C14.9717 2.76953 17.5378 3.08061 19.2492 4.61476C20.6145 5.83692 21.436 7.83538 21.436 11.0717C21.436 11.92 21.3797 12.6834 21.2717 13.3701M17.4871 18.4831H22.1541M19.8206 20.7908V16.1754" stroke="white" stroke-width="1.39569"/>
</svg>
