<svg width="24" height="24" viewBox="0 0 24 24" fill="none" xmlns="http://www.w3.org/2000/svg">
<path d="M16.4697 18.1914C16.7627 17.8984 17.2373 17.8984 17.5303 18.1914C17.8223 18.4844 17.8223 18.958 17.5303 19.252C17.2373 19.5447 16.7626 19.5449 16.4697 19.252C16.1768 18.958 16.177 18.4844 16.4697 18.1914Z" fill="white"/>
<path d="M17.75 16.7451H16.25V14.46H17.75V16.7451Z" fill="white"/>
<path fill-rule="evenodd" clip-rule="evenodd" d="M18.168 11.5498C19.2929 11.5498 20.1897 12.4318 20.3066 13.5312L21.0186 20.2451H21.5V21.6445H12.5V20.2451H12.9814L13.6914 13.5312L13.6924 13.5303L13.7236 13.3271C13.9234 12.3255 14.7757 11.5498 15.8311 11.5498H18.168ZM15.8311 12.9502C15.4768 12.9502 15.1319 13.2358 15.084 13.6797L14.3896 20.2451H19.6104L18.915 13.6787C18.8678 13.2363 18.523 12.9502 18.168 12.9502H15.8311Z" fill="white"/>
<path d="M12.5 3C17.2658 3 21.3403 6.1026 21.9287 10.291L21.1855 10.3945L20.4434 10.499C19.9796 7.19958 16.6781 4.5 12.5 4.5C7.9763 4.5 4.5 7.65109 4.5 11.3184C4.50013 13.4349 5.64163 15.3599 7.49023 16.6279L7.86914 16.873L8.17969 17.0615L8.22461 17.4219C8.33389 18.304 8.11172 19.1283 7.82031 19.7891C8.60034 19.4706 9.55337 18.9698 10.5127 18.1885L11.46 19.3516C10.0721 20.4819 8.69346 21.1031 7.70117 21.4346L7.7002 21.4336C6.61352 21.7968 5.65994 20.6236 6.2207 19.6348L6.22168 19.6338L6.34473 19.4043C6.57239 18.953 6.73868 18.444 6.74902 17.9346C4.49924 16.4342 3.00013 14.0498 3 11.3184C3 6.62563 7.3597 3 12.5 3Z" fill="white"/>
</svg>
