<svg width="24" height="24" viewBox="0 0 24 24" fill="none" xmlns="http://www.w3.org/2000/svg">
<path fill-rule="evenodd" clip-rule="evenodd" d="M10.1525 12.2798C10.9715 12.2798 11.6375 12.9458 11.6375 13.7648V18.8838C11.6375 19.2998 11.3025 19.6338 10.8875 19.6338C10.4735 19.6338 10.1375 19.2998 10.1375 18.8838V15.0718L4.74751 20.7658C4.59951 20.9218 4.40151 21.0008 4.20251 21.0008C4.01651 21.0008 3.83251 20.9318 3.68651 20.7948C3.38551 20.5098 3.37351 20.0358 3.65751 19.7348L9.30651 13.7678L4.96051 13.7798C4.54651 13.7798 4.21051 13.4438 4.21051 13.0298C4.21051 12.6158 4.54651 12.2798 4.96051 12.2798H10.1525ZM19.2537 3.23364C19.5387 2.93364 20.0127 2.92064 20.3137 3.20564C20.6147 3.49064 20.6267 3.96564 20.3417 4.26664L14.6857 10.2296L18.3027 10.2206C18.7167 10.2206 19.0527 10.5566 19.0527 10.9706C19.0527 11.3846 18.7167 11.7206 18.3027 11.7206H13.1107C12.2917 11.7206 11.6257 11.0536 11.6257 10.2346V5.11464C11.6257 4.70064 11.9607 4.36464 12.3757 4.36464C12.7897 4.36464 13.1257 4.70064 13.1257 5.11464V9.73664C13.1557 9.68064 13.1917 9.62564 13.2377 9.57664L19.2537 3.23364Z" fill="white"/>
</svg>
