<svg width="24" height="24" viewBox="0 0 24 24" fill="none" xmlns="http://www.w3.org/2000/svg">
<path d="M16.5 3.75C17.881 3.75 19 4.869 19 6.25V17.75C19 19.131 17.881 20.25 16.5 20.25H7.5C6.12 20.25 5 19.131 5 17.75V6.25C5 4.869 6.12 3.75 7.5 3.75H16.5ZM9.22168 14.5908C8.88074 14.249 8.32537 14.249 7.98438 14.5908C7.64259 14.9318 7.64251 15.4862 7.98438 15.8281C8.32532 16.17 8.88069 16.1699 9.22168 15.8281C9.56346 15.4861 9.56355 14.9318 9.22168 14.5908ZM8.54102 10.8936C8.12698 10.8937 7.79111 11.2295 7.79102 11.6436C7.79108 12.0576 8.12696 12.3934 8.54102 12.3936C10.1297 12.3937 11.4188 13.682 11.4189 15.2715C11.419 15.6855 11.7549 16.0213 12.1689 16.0215C12.583 16.0213 12.9189 15.6856 12.9189 15.2715C12.9188 12.8533 10.9579 10.8937 8.54102 10.8936ZM8.54102 7.55273C8.12711 7.55309 7.79102 7.88874 7.79102 8.30273C7.79108 8.71667 8.12715 9.05238 8.54102 9.05273C11.9756 9.05287 14.7606 11.8369 14.7607 15.2715C14.7608 15.6856 15.0967 16.0213 15.5107 16.0215C15.9246 16.0212 16.2607 15.6854 16.2607 15.2715C16.2606 11.0085 12.804 7.55287 8.54102 7.55273Z" fill="white"/>
</svg>
