<svg width="24" height="24" viewBox="0 0 24 24" fill="none" xmlns="http://www.w3.org/2000/svg">
<path fill-rule="evenodd" clip-rule="evenodd" d="M5.99996 4.4502H18C18.5303 4.4502 19.039 4.66088 19.414 5.0359C19.789 5.41092 19.9997 5.91955 19.9997 6.44991V13.4502C19.9997 13.9806 19.789 14.4892 19.414 14.8642C19.039 15.2392 18.5303 15.4499 18 15.4499H5.99996C5.4696 15.4499 4.96097 15.2392 4.58595 14.8642C4.21093 14.4892 4.00024 13.9806 4.00024 13.4502V6.44991C4.00024 5.91955 4.21093 5.41092 4.58595 5.0359C4.96097 4.66088 5.4696 4.4502 5.99996 4.4502Z" stroke="white" stroke-width="1.75" stroke-linecap="round" stroke-linejoin="round"/>
<path d="M12 15.4502V18.9165" stroke="white" stroke-width="1.75" stroke-linecap="round" stroke-linejoin="round"/>
<path d="M7.00024 19.0537H16.9997" stroke="white" stroke-width="1.75" stroke-linecap="round" stroke-linejoin="round"/>
</svg>
