<svg width="24" height="24" viewBox="0 0 24 24" fill="none" xmlns="http://www.w3.org/2000/svg">
<path d="M19.5 14.39V11.507C19.5 7.361 16.182 4 12.089 4C7.996 4 4.678 7.361 4.678 11.507M9.5806 16.9789H13.0646M9.5806 16.9789L7.291 14.6884C6.822 14.2204 6.187 13.9564 5.523 13.9564H4.5M9.5806 16.9789L7.291 19.2684C6.822 19.7364 6.187 20.0004 5.523 20.0004H4.5M11.8136 19.1547L13.6296 17.3317C13.8236 17.1357 13.8236 16.8207 13.6296 16.6257L11.8136 14.8017M18.25 20.0004H17.78C17.09 20.0004 16.53 19.4404 16.53 18.7504V14.4384C16.53 13.7474 17.09 13.1884 17.78 13.1884H18.25C18.94 13.1884 19.5 13.7474 19.5 14.4384V18.7504C19.5 19.4404 18.94 20.0004 18.25 20.0004Z" stroke="white" stroke-width="1.5" stroke-linecap="round" stroke-linejoin="round"/>
</svg>
