<svg width="24" height="24" viewBox="0 0 24 24" fill="none" xmlns="http://www.w3.org/2000/svg">
<path fill-rule="evenodd" clip-rule="evenodd" d="M11.6001 16.75C12.4685 16.75 13.1001 17.3816 13.1001 18.25C13.1001 19.1184 12.4685 19.75 11.6001 19.75C10.8106 19.75 10.1001 19.1184 10.1001 18.25C10.1001 17.3816 10.7317 16.75 11.6001 16.75ZM11.6001 10.5C12.4685 10.5 13.1001 11.1316 13.1001 12C13.1001 12.8684 12.4685 13.5 11.6001 13.5C10.8106 13.5 10.1001 12.8684 10.1001 12C10.1001 11.1316 10.7317 10.5 11.6001 10.5ZM11.6001 4.25C12.3896 4.25 13.1001 4.88157 13.1001 5.75C13.1001 6.61843 12.4685 7.25 11.6001 7.25C10.8106 7.25 10.1001 6.61843 10.1001 5.75C10.1001 4.88157 10.7317 4.25 11.6001 4.25Z" fill="white"/>
</svg>
