<svg width="24" height="24" viewBox="0 0 24 24" fill="none" xmlns="http://www.w3.org/2000/svg">
<path fill-rule="evenodd" clip-rule="evenodd" d="M11.9135 18.4189L12.0232 18.4258C12.4545 18.4798 12.7885 18.848 12.7885 19.2929V20.125C12.7885 20.608 12.3965 21 11.9135 21L11.8115 20.9939C11.3765 20.9429 11.0385 20.5739 11.0385 20.125V19.2939C11.0385 18.8109 11.4305 18.4189 11.9135 18.4189ZM15.1342 17.6026C15.5512 17.3615 16.0872 17.5035 16.3292 17.9216L16.7452 18.6416C16.9872 19.0606 16.8442 19.5956 16.4262 19.8375C16.2882 19.9165 16.1372 19.9555 15.9882 19.9555C15.6862 19.9555 15.3922 19.7976 15.2302 19.5186L14.8142 18.7976C14.5722 18.3796 14.7162 17.8445 15.1342 17.6026ZM7.5202 17.836C7.7612 17.417 8.2972 17.2729 8.7152 17.5149C9.1342 17.757 9.2782 18.292 9.0362 18.7099L8.6202 19.431C8.4582 19.711 8.1642 19.868 7.8622 19.868C7.7132 19.868 7.5632 19.83 7.4252 19.7509C7.0072 19.51 6.8632 18.975 7.1052 18.556L7.5202 17.836ZM17.5154 15.2854C17.7574 14.8665 18.2924 14.7234 18.7104 14.9645L19.4314 15.3794C19.8494 15.6215 19.9934 16.1565 19.7524 16.5755C19.5894 16.8564 19.2954 17.0124 18.9934 17.0124C18.8444 17.0124 18.6944 16.9755 18.5564 16.8955L17.8364 16.4804C17.4174 16.2395 17.2744 15.7044 17.5154 15.2854ZM12.0009 7C14.7619 7 17.0009 9.2389 17.0009 12C17.0009 14.7619 14.7619 17 12.0009 17C9.2399 17 7.0009 14.7619 7.0009 12C7.0009 9.2389 9.2399 7 12.0009 7ZM5.2033 14.8132C5.6213 14.5723 6.1563 14.7153 6.3983 15.1333C6.6403 15.5513 6.4963 16.0882 6.0783 16.3293L5.3583 16.7453C5.2203 16.8242 5.0693 16.8622 4.9213 16.8622C4.6193 16.8622 4.3253 16.7052 4.1633 16.4252C3.9213 16.0063 4.0653 15.4702 4.4833 15.2292L5.2033 14.8132ZM20.1254 11.2118C20.6084 11.2118 21.0004 11.6039 21.0004 12.0868C21.0004 12.5699 20.6084 12.9618 20.1254 12.9618L19.2944 12.9628L19.1924 12.9569C18.7564 12.9058 18.4194 12.5359 18.4194 12.0878C18.4194 11.6049 18.8104 11.2128 19.2944 11.2128L20.1254 11.2118ZM4.707 11.038C5.19 11.038 5.582 11.43 5.582 11.913C5.582 12.396 5.19 12.788 4.707 12.788H3.875C3.393 12.788 3 12.396 3 11.913C3 11.43 3.393 11.038 3.875 11.038H4.707ZM18.6425 7.2558C19.0605 7.0139 19.5965 7.1568 19.8375 7.5749C20.0795 7.9928 19.9365 8.5279 19.5185 8.7709L18.7985 9.1868C18.6605 9.2669 18.5105 9.3048 18.3615 9.3048C18.0595 9.3048 17.7655 9.1479 17.6035 8.8668C17.3615 8.4488 17.5045 7.9128 17.9225 7.6719L18.6425 7.2558ZM4.25 7.4246C4.491 7.0065 5.027 6.8636 5.445 7.1045L6.165 7.5196C6.584 7.7615 6.727 8.2965 6.486 8.7146C6.324 8.9965 6.03 9.1536 5.727 9.1536C5.579 9.1536 5.428 9.1156 5.29 9.0356L4.57 8.6206C4.152 8.3785 4.008 7.8435 4.25 7.4246ZM15.3811 4.5695C15.6231 4.1516 16.1581 4.0086 16.5761 4.2495C16.9951 4.4916 17.1391 5.0275 16.8961 5.4455L16.4801 6.1656C16.3181 6.4455 16.0241 6.6026 15.7221 6.6026C15.5731 6.6026 15.4231 6.5646 15.2851 6.4846C14.8671 6.2435 14.7231 5.7076 14.9651 5.2895L15.3811 4.5695ZM7.5761 4.1616C7.9941 3.9207 8.5301 4.0646 8.7711 4.4826L9.1871 5.2027C9.4291 5.6206 9.2851 6.1567 8.8671 6.3976C8.7291 6.4776 8.5781 6.5147 8.4301 6.5147C8.1281 6.5147 7.8331 6.3587 7.6711 6.0777L7.2561 5.3576C7.0141 4.9396 7.1581 4.4046 7.5761 4.1616ZM12.0878 3C12.5708 3 12.9628 3.392 12.9628 3.875V4.706C12.9628 5.1891 12.5708 5.581 12.0878 5.581C11.6048 5.581 11.2128 5.1891 11.2128 4.706V3.875C11.2128 3.392 11.6048 3 12.0878 3Z" fill="white"/>
</svg>
