<svg width="24" height="24" viewBox="0 0 24 24" fill="none" xmlns="http://www.w3.org/2000/svg">
<path d="M11.9999 19.1687V20.2497M11.9999 3.75V4.831M4.831 11.9998H3.75M20.2499 11.9998H19.1689M5.7919 15.5843L4.8549 16.1253M19.1454 7.875L18.2084 8.416M8.4159 18.2083L7.8749 19.1443M16.1249 4.8553L15.5849 5.7913M18.2089 15.5843L19.1449 16.1253M4.8554 7.875L5.7924 8.416M15.5849 18.2083L16.1249 19.1443M7.8749 4.8553L8.4159 5.7913M16.2499 11.9998C16.2499 14.3468 14.3479 16.2498 11.9999 16.2498C9.6529 16.2498 7.7499 14.3468 7.7499 11.9998C7.7499 9.6528 9.6529 7.7498 11.9999 7.7498C14.3479 7.7498 16.2499 9.6528 16.2499 11.9998Z" stroke="white" stroke-width="1.5" stroke-linecap="round" stroke-linejoin="round"/>
</svg>
