<svg width="24" height="24" viewBox="0 0 24 24" fill="none" xmlns="http://www.w3.org/2000/svg">
<path d="M11.4443 12.6774H13.9733C13.9584 12.6776 13.9584 12.6776 14.0351 12.68C14.9173 12.7038 15.9905 12.6269 17.0419 12.3589C18.0105 12.112 18.825 11.7274 19.4311 11.1635C20.7364 9.94833 20.6275 8.32153 19.4334 7.20143C18.6203 6.43863 17.2881 5.94043 16.6033 5.94043C16.1891 5.94043 15.8533 6.27623 15.8533 6.69043C15.8533 7.10463 16.1891 7.44043 16.6033 7.44043C16.9165 7.44043 17.8798 7.80073 18.4072 8.29543C18.9998 8.85133 19.0417 9.47663 18.4092 10.0655C18.0133 10.4338 17.4172 10.7153 16.6715 10.9054C16.166 11.0342 15.6183 11.1148 15.0598 11.1548C14.6762 11.1822 14.3382 11.1876 14.0755 11.1805L14.0108 11.1783L11.4443 11.1774C11.0301 11.1774 10.6943 11.5132 10.6943 11.9274C10.6943 12.3416 11.0301 12.6774 11.4443 12.6774Z" fill="white"/>
<path d="M13.4807 13.6813L11.7287 11.9293L13.4769 10.1717C13.7692 9.87819 13.7681 9.40329 13.4745 9.11109C13.181 8.81879 12.7061 8.81989 12.4139 9.11349L10.6649 10.8705C10.0819 11.4575 10.0831 12.405 10.6681 12.9899L12.4201 14.7419C12.713 15.0348 13.1878 15.0348 13.4807 14.7419C13.7736 14.449 13.7736 13.9742 13.4807 13.6813Z" fill="white"/>
<path d="M17.26 11.5V5.65C17.26 3.9098 15.8502 2.5 14.11 2.5L7.0738 3.224C5.41 3.22 4 4.6296 4 6.37V18.13C4 19.8697 5.4103 21.28 7.151 21.28L14.0328 21.996C15.8499 22 17.26 20.5895 17.26 18.85V15.174C17.26 14.7598 16.9242 14.424 16.51 14.424C16.0958 14.424 15.76 14.7598 15.76 15.174V18.85C15.76 19.7612 15.0214 20.5 14.11 20.5L7.2282 19.784C6.2387 19.78 5.5 19.0413 5.5 18.13V6.37C5.5 5.4581 6.2383 4.72 7.151 4.72L14.1872 3.996C15.0218 4 15.76 4.7382 15.76 5.65V11.5C15.76 11.9142 16.0958 12.25 16.51 12.25C16.9242 12.25 17.26 11.9142 17.26 11.5Z" fill="white"/>
<path d="M8.59028 18.5313L11.8393 18.7713C12.2524 18.8018 12.612 18.4916 12.6426 18.0786C12.6731 17.6655 12.3629 17.3059 11.9499 17.2753L8.70088 17.0353C8.28778 17.0048 7.92818 17.315 7.89758 17.728C7.86708 18.1411 8.17728 18.5007 8.59028 18.5313Z" fill="white"/>
</svg>
