<svg width="24" height="24" viewBox="0 0 24 24" fill="none" xmlns="http://www.w3.org/2000/svg">
<path fill-rule="evenodd" clip-rule="evenodd" d="M8.25 12.626H13.395L12.007 11.239C11.714 10.946 11.714 10.472 12.007 10.179C12.3 9.88598 12.775 9.88598 13.068 10.179L15.381 12.49C15.619 12.729 15.75 13.045 15.75 13.382C15.75 13.718 15.618 14.034 15.379 14.272L13.067 16.574C12.92 16.72 12.729 16.792 12.538 16.792C12.345 16.792 12.153 16.719 12.006 16.571C11.714 16.278 11.715 15.803 12.009 15.511L13.4 14.126H8.25C7.835 14.126 7.5 13.79 7.5 13.376C7.5 12.961 7.835 12.626 8.25 12.626ZM3 17.251C3 18.626 4.125 19.751 5.5 19.751H18C19.375 19.751 20.5 18.626 20.5 17.251V9.91098C20.5 8.53598 19.375 7.41098 18 7.41098H12.802C12.442 7.41098 12.323 7.34298 12.078 7.07898L10.354 5.47998C10.108 5.21698 9.614 5.00098 9.253 5.00098H5.5C4.125 5.00098 3 6.12598 3 7.50098V17.251Z" fill="white"/>
</svg>
