<svg width="24" height="24" viewBox="0 0 24 24" fill="none" xmlns="http://www.w3.org/2000/svg">
<path d="M14.7441 12.8334H8.3581M12.6464 15.5004L14.9594 13.1984C15.1584 13.0004 15.1584 12.6774 14.9594 12.4794L12.6464 10.1674M18.25 7.161H13.587C13.195 7.161 12.645 6.937 12.364 6.662L10.918 5.249C10.638 4.974 10.087 4.75 9.695 4.75H5.75C4.369 4.75 3.25 5.869 3.25 7.25V16.75C3.25 18.131 4.369 19.25 5.75 19.25H18.25C19.631 19.25 20.75 18.131 20.75 16.75V9.661C20.75 8.28 19.631 7.161 18.25 7.161Z" stroke="white" stroke-width="1.5" stroke-linecap="round" stroke-linejoin="round"/>
</svg>
