<svg width="24" height="24" viewBox="0 0 24 24" fill="none" xmlns="http://www.w3.org/2000/svg">
<path d="M7.6582 8.27539C7.6582 8.82839 7.2112 9.27539 6.6582 9.27539C6.1062 9.27539 5.6582 8.82839 5.6582 8.27539C5.6582 7.72339 6.1062 7.27539 6.6582 7.27539C7.2112 7.27539 7.6582 7.72339 7.6582 8.27539ZM7.6582 12C7.6582 12.553 7.2112 13 6.6582 13C6.1062 13 5.6582 12.553 5.6582 12C5.6582 11.447 6.1062 11 6.6582 11C7.2112 11 7.6582 11.447 7.6582 12ZM7.6582 15.7236C7.6582 16.2766 7.2112 16.7236 6.6582 16.7236C6.1062 16.7236 5.6582 16.2766 5.6582 15.7236C5.6582 15.1716 6.1062 14.7236 6.6582 14.7236C7.2112 14.7236 7.6582 15.1716 7.6582 15.7236ZM18.3408 8.27539C18.3408 8.82839 17.8938 9.27539 17.3408 9.27539C16.7888 9.27539 16.3408 8.82839 16.3408 8.27539C16.3408 7.72339 16.7888 7.27539 17.3408 7.27539C17.8938 7.27539 18.3408 7.72339 18.3408 8.27539ZM18.3408 12C18.3408 12.553 17.8938 13 17.3408 13C16.7888 13 16.3408 12.553 16.3408 12C16.3408 11.447 16.7888 11 17.3408 11C17.8938 11 18.3408 11.447 18.3408 12ZM18.3408 15.7236C18.3408 16.2766 17.8938 16.7236 17.3408 16.7236C16.7888 16.7236 16.3408 16.2766 16.3408 15.7236C16.3408 15.1716 16.7888 14.7236 17.3408 14.7236C17.8938 14.7236 18.3408 15.1716 18.3408 15.7236Z" fill="white"/>
<path fill-rule="evenodd" clip-rule="evenodd" d="M18.125 19H5.875C4.494 19 3.375 17.881 3.375 16.5V7.5C3.375 6.119 4.494 5 5.875 5H18.125C19.506 5 20.625 6.119 20.625 7.5V16.5C20.625 17.881 19.506 19 18.125 19Z" stroke="white" stroke-width="1.3" stroke-linecap="round" stroke-linejoin="round"/>
</svg>
