<svg width="24" height="24" viewBox="0 0 24 24" fill="none" xmlns="http://www.w3.org/2000/svg">
<path d="M12.7849 7.41067C12.7849 6.48567 13.8649 5.97967 14.5739 6.57567L21.0339 11.9957C21.7139 12.5697 21.4569 13.6737 20.5909 13.8867L19.0239 14.2717C19.1919 14.6327 19.3189 14.9037 19.4029 15.0847C19.5699 15.4427 19.8209 15.9807 20.1549 16.6977C20.3919 17.2057 20.2019 17.8027 19.7329 18.0877L19.6279 18.1437L18.3999 18.7167C17.8539 18.9727 17.2049 18.7367 16.9509 18.1907L15.8199 15.7657L14.5169 16.7187C13.8289 17.2227 12.8719 16.7747 12.7909 15.9537L12.7849 15.8397V7.41067ZM14.2849 8.28967V15.0287L15.6719 14.0177C16.0239 13.7597 16.5119 13.8587 16.7419 14.2127L16.7939 14.3057L18.1359 17.1837L18.6209 16.9577L17.2789 14.0787C17.0939 13.6817 17.2889 13.2187 17.6849 13.0637L17.7799 13.0337L19.4479 12.6227L14.2849 8.28967Z" fill="white"/>
<path d="M13.5351 8.82031C13.9491 8.82031 14.2851 9.15631 14.2851 9.57031C14.2851 9.98431 13.9491 10.3203 13.5351 10.3203H3.33008C2.91608 10.3203 2.58008 9.98431 2.58008 9.57031C2.58008 9.15631 2.91608 8.82031 3.33008 8.82031H13.5351Z" fill="white"/>
<path d="M13.5351 11.8203C13.9491 11.8203 14.2851 12.1563 14.2851 12.5703C14.2851 12.9843 13.9491 13.3203 13.5351 13.3203H5.73511C5.32111 13.3203 4.98511 12.9843 4.98511 12.5703C4.98511 12.1563 5.32111 11.8203 5.73511 11.8203H13.5351Z" fill="white"/>
<path d="M10.53 20.0701C10.806 20.0701 11.03 20.2941 11.03 20.5701V20.6201C11.03 20.8961 10.806 21.1201 10.53 21.1201C10.254 21.1201 10.03 20.8961 10.03 20.6201V20.5701C10.03 20.2941 10.254 20.0701 10.53 20.0701ZM10.53 17.9201C10.806 17.9201 11.03 18.1441 11.03 18.4201V18.4701C11.03 18.7461 10.806 18.9701 10.53 18.9701C10.254 18.9701 10.03 18.7461 10.03 18.4701V18.4201C10.03 18.1441 10.254 17.9201 10.53 17.9201ZM10.53 15.7701C10.806 15.7701 11.03 15.9941 11.03 16.2701V16.3201C11.03 16.5961 10.806 16.8201 10.53 16.8201C10.254 16.8201 10.03 16.5961 10.03 16.3201V16.2701C10.03 15.9941 10.254 15.7701 10.53 15.7701ZM10.53 13.6201C10.806 13.6201 11.03 13.8441 11.03 14.1201V14.1701C11.03 14.4461 10.806 14.6701 10.53 14.6701C10.254 14.6701 10.03 14.4461 10.03 14.1701V14.1201C10.03 13.8441 10.254 13.6201 10.53 13.6201ZM10.53 7.17012C10.806 7.17012 11.03 7.39412 11.03 7.67012V7.72012C11.03 7.99612 10.806 8.22012 10.53 8.22012C10.254 8.22012 10.03 7.99612 10.03 7.72012V7.67012C10.03 7.39412 10.254 7.17012 10.53 7.17012ZM10.53 5.02012C10.806 5.02012 11.03 5.24412 11.03 5.52012V5.57012C11.03 5.84612 10.806 6.07012 10.53 6.07012C10.254 6.07012 10.03 5.84612 10.03 5.57012V5.52012C10.03 5.24412 10.254 5.02012 10.53 5.02012ZM10.53 2.87012C10.806 2.87012 11.03 3.09412 11.03 3.37012V3.42012C11.03 3.69612 10.806 3.92012 10.53 3.92012C10.254 3.92012 10.03 3.69612 10.03 3.42012V3.37012C10.03 3.09412 10.254 2.87012 10.53 2.87012Z" fill="white"/>
</svg>
