<svg width="24" height="24" viewBox="0 0 24 24" fill="none" xmlns="http://www.w3.org/2000/svg">
<path d="M13.3016 3H10.6301V12.4168C10.037 12.14 9.38991 11.9976 8.73537 12C6.25011 12 4.23535 14.0147 4.23535 16.5C4.23535 18.9852 6.25011 21 8.73537 21C11.2206 21 13.2353 18.9852 13.2353 16.5C13.2353 16.5 13.2353 16.4858 13.2353 16.4787V5.6053H13.304C16.6198 5.6053 18.1593 8.21051 18.1593 9.98214V12.5874H20.7646V9.98214C20.7621 6.62366 17.9106 3 13.3016 3ZM8.73537 18.3947C7.69173 18.3947 6.84463 17.5507 6.84073 16.507C6.83684 15.4634 7.67772 14.6131 8.72128 14.6053C9.76493 14.5975 10.6183 15.4351 10.6301 16.4787C10.6301 17.5251 9.78175 18.3734 8.73537 18.3734" fill="white"/>
</svg>
