<svg width="24" height="24" viewBox="0 0 24 24" fill="none" xmlns="http://www.w3.org/2000/svg">
<path fill-rule="evenodd" clip-rule="evenodd" d="M13.0304 4H12.2695C11.5702 4 11.0013 4.5702 11.0013 5.26823V13.1718C10.3539 12.6836 9.54837 12.3906 8.67379 12.3906C6.55007 12.3906 4.82324 14.0967 4.82324 16.1953C4.82324 18.2923 6.55007 20 8.67379 20C10.6754 20 12.3231 18.481 12.5049 16.5492C12.5158 16.4977 12.5231 16.4437 12.5231 16.3881V16.1953V5.52188H13.0304C16.1846 5.52188 17.6549 8.49745 17.6549 10.5084V11.8955C17.6549 12.3155 17.9958 12.6564 18.4158 12.6564C18.8359 12.6564 19.1768 12.3155 19.1768 11.8955V10.5084C19.1768 7.88383 17.2235 4 13.0304 4Z" fill="white"/>
</svg>
