<svg width="24" height="24" viewBox="0 0 24 24" fill="none" xmlns="http://www.w3.org/2000/svg">
<path fill-rule="evenodd" clip-rule="evenodd" d="M6.64445 19.898C6.51045 20.405 6.81045 20.925 7.31645 21.06C7.39945 21.081 7.48045 21.092 7.56345 21.092C7.98045 21.092 8.36445 20.812 8.47845 20.387C8.72045 19.479 9.04145 18.612 9.41445 17.791C19.3804 18.9 18.7974 10.477 18.7974 10.477V4.91001C18.7974 3.66001 17.6594 2.71801 16.4294 2.94101C2.23745 5.51101 5.19945 14.48 6.01245 16.403C7.61345 12.544 10.1864 9.86801 11.3574 8.78801C11.7414 8.43201 12.3414 8.45701 12.6964 8.84101C12.9764 9.14601 13.0184 9.58201 12.8344 9.92601C10.5044 12.066 7.79045 15.6 6.64445 19.898Z" fill="white"/>
</svg>
