<svg width="24" height="24" viewBox="0 0 24 24" fill="none" xmlns="http://www.w3.org/2000/svg">
<path fill-rule="evenodd" clip-rule="evenodd" d="M8.47772 17.2314C8.82272 17.2314 9.10272 17.5114 9.10272 17.8564C9.10272 18.2014 8.82272 18.4814 8.47772 18.4814C8.13272 18.4814 7.85272 18.2014 7.85272 17.8564C7.85272 17.5114 8.13272 17.2314 8.47772 17.2314Z" fill="white"/>
<path d="M4.875 15.3379H19.125M16.75 20.5H7.25C5.869 20.5 4.75 19.381 4.75 18V6C4.75 4.619 5.869 3.5 7.25 3.5H16.75C18.131 3.5 19.25 4.619 19.25 6V18C19.25 19.381 18.131 20.5 16.75 20.5Z" stroke="white" stroke-width="1.5" stroke-linecap="round" stroke-linejoin="round"/>
</svg>
