<svg width="24" height="24" viewBox="0 0 24 24" fill="none" xmlns="http://www.w3.org/2000/svg">
<path d="M16.0015 11.266C16.4075 11.06 16.8895 11.099 17.2575 11.368L19.1805 12.78C19.4615 12.977 19.6415 13.297 19.6625 13.65C19.6835 13.994 19.5445 14.336 19.2925 14.563C19.2775 14.577 19.2605 14.59 19.2425 14.604L17.3845 16.008L19.1735 17.361C19.6045 17.654 19.6955 18.022 19.7105 18.218C19.7375 18.553 19.5975 18.877 19.3185 19.131C19.2985 19.149 19.2785 19.165 19.2575 19.18L17.2575 20.648C17.0455 20.803 16.7975 20.882 16.5465 20.882C16.3615 20.882 16.1745 20.838 16.0015 20.751C15.5955 20.545 15.3425 20.134 15.3425 19.678V17.551L13.5615 18.897C13.2315 19.147 12.7605 19.08 12.5105 18.75C12.2615 18.42 12.3265 17.949 12.6565 17.699L14.8965 16.008L12.6565 14.317C12.3265 14.067 12.2615 13.597 12.5105 13.266C12.7605 12.936 13.2315 12.87 13.5615 13.119L15.3425 14.466V12.339C15.3425 11.883 15.5955 11.472 16.0015 11.266ZM13.5362 3.11719C14.9162 3.11719 16.0362 4.23619 16.0362 5.61719V9.68819C15.7902 9.73519 15.5482 9.81319 15.3242 9.92719C14.6292 10.2792 14.1342 10.8982 13.9372 11.6252C13.6762 11.5212 13.3972 11.4682 13.1102 11.4682C12.4082 11.4682 11.7372 11.8022 11.3142 12.3612C11.0642 12.6912 10.9162 13.0762 10.8742 13.4772H10.8732V13.4842C10.8582 13.6362 10.8572 13.7892 10.8732 13.9442V16.2572H8.59419C8.18019 16.2572 7.84419 16.5932 7.84419 17.0072C7.84419 17.4212 8.18019 17.7572 8.59419 17.7572H10.8732V20.3682H6.78619C5.40619 20.3682 4.28619 19.2482 4.28619 17.8682V5.61719C4.28619 4.23619 5.40619 3.11719 6.78619 3.11719H13.5362ZM16.8425 17.479V19.092L17.9255 18.297L16.8425 17.479ZM16.8425 12.925V14.537L17.9255 13.719L16.8425 12.925Z" fill="white"/>
</svg>
