<svg width="24" height="24" viewBox="0 0 24 24" fill="none" xmlns="http://www.w3.org/2000/svg">
<path fill-rule="evenodd" clip-rule="evenodd" d="M5.63271 15.0847C6.40338 15.0847 7.02813 15.7109 7.02813 16.4822C7.02813 16.6976 6.97996 16.9016 6.89283 17.0836C8.148 18.6455 10.0605 19.6025 12.1458 19.6025C13.5717 19.6025 14.9289 19.159 16.0636 18.3459C16.3781 18.1206 16.8166 18.1915 17.0433 18.5045C17.2699 18.8176 17.1984 19.2547 16.8839 19.4799C15.5125 20.4631 13.8685 21 12.1458 21C9.58875 21 7.247 19.81 5.73258 17.8762L5.63271 17.8798C4.86204 17.8798 4.23658 17.2536 4.23658 16.4822C4.23658 15.7109 4.86204 15.0847 5.63271 15.0847ZM15.7527 5.53921C18.5095 6.90346 20.2917 9.71696 20.2917 12.8492C20.2917 13.8246 20.1203 14.7752 19.7923 15.6662C19.9573 15.895 20.0551 16.1777 20.0551 16.4822C20.0551 17.2536 19.4303 17.8798 18.659 17.8798C17.8883 17.8798 17.2635 17.2536 17.2635 16.4822C17.2635 15.7626 17.8068 15.1704 18.5053 15.0932C18.7567 14.382 18.8878 13.6255 18.8878 12.8492C18.8878 10.2517 17.4109 7.92062 15.1279 6.79083C14.7801 6.61871 14.6392 6.19938 14.8113 5.85371C14.9841 5.50875 15.4056 5.36779 15.7527 5.53921ZM13.4846 9.40246C14.03 9.40246 14.472 9.87137 14.472 10.4501V15.2483C14.472 15.827 14.03 16.296 13.4846 16.296H10.8999C10.3545 16.296 9.91246 15.827 9.91246 15.2483V10.4501C9.91246 9.87137 10.3545 9.40246 10.8999 9.40246H13.4846ZM12.1458 4C12.9165 4 13.5413 4.62546 13.5413 5.39754C13.5413 6.16892 12.9165 6.79438 12.1458 6.79438C11.6705 6.79438 11.2512 6.55708 10.999 6.19371C7.82287 6.73771 5.40392 9.51012 5.40392 12.8492C5.40392 12.9597 5.40675 13.0695 5.41242 13.1786C5.43083 13.5639 5.13121 13.8912 4.74446 13.9096C4.357 13.928 4.02763 13.6305 4.00921 13.2452C4.00283 13.1134 4 12.9817 4 12.8492C4 8.777 6.98492 5.40179 10.8857 4.79546C11.111 4.32512 11.5905 4 12.1458 4Z" fill="white"/>
</svg>
