<svg width="24" height="24" viewBox="0 0 24 24" fill="none" xmlns="http://www.w3.org/2000/svg">
<path d="M18.7234 17.5363C18.1104 17.8923 17.3314 17.6893 16.9834 17.0813C16.6354 16.4733 16.8504 15.6913 17.4624 15.3353C18.0764 14.9783 18.8554 15.1823 19.2024 15.7903C19.5504 16.3973 19.3364 17.1793 18.7234 17.5363ZM21.0244 17.0413C20.9374 16.9683 20.8744 16.8183 20.8844 16.7073L20.8774 16.1793C20.8674 16.0683 20.9304 15.9183 21.0174 15.8453L21.5194 15.2763C21.6064 15.2033 21.6314 15.0663 21.5764 14.9693L21.1574 14.2433C21.1014 14.1473 20.9184 14.0123 20.8114 14.0513L20.0674 14.2003C19.9614 14.2403 19.7994 14.2203 19.7084 14.1553L19.2694 13.9103C19.1684 13.8633 19.0704 13.7333 19.0514 13.6213L18.8084 12.9013C18.7894 12.7903 18.6824 12.6993 18.5704 12.6993H17.6314C17.5194 12.6993 17.4134 12.7903 17.3944 12.9013L17.1514 13.6213C17.1324 13.7323 17.0344 13.8623 16.9324 13.9093L16.4864 14.1683C16.3954 14.2323 16.2344 14.2523 16.1284 14.2133L15.3834 14.0633C15.2774 14.0243 15.1444 14.0713 15.0884 14.1683L14.6194 14.9813C14.5634 15.0783 14.5884 15.2163 14.6754 15.2883L15.1774 15.8583C15.2644 15.9303 15.3274 16.0803 15.3174 16.1923L15.3104 16.6943C15.3204 16.8053 15.2574 16.9553 15.1704 17.0273L14.6684 17.5973C14.5814 17.6693 14.5554 17.8083 14.6114 17.9053L15.0814 18.7183C15.1374 18.8153 15.2684 18.8623 15.3744 18.8233L16.1194 18.6723C16.2254 18.6333 16.3874 18.6533 16.4794 18.7183L16.9314 18.9883C17.0334 19.0353 17.1314 19.1653 17.1514 19.2763L17.3934 19.9963C17.4124 20.1073 17.5194 20.1983 17.6304 20.1983L18.4684 20.1993C18.5794 20.1993 18.7884 20.1073 18.8084 19.9953L19.0504 19.2763C19.0694 19.1643 19.1684 19.0343 19.2694 18.9883L19.7154 18.7313C19.8074 18.6673 19.9684 18.6473 20.0744 18.6863L20.8194 18.8363C20.9254 18.8753 21.0574 18.8283 21.1134 18.7313L21.5324 18.0063C21.5884 17.9103 21.6134 17.6833 21.5264 17.6103L21.0244 17.0413ZM8.95611 7.87066C9.15911 6.95866 8.36411 6.16366 7.45211 6.36566C6.99311 6.46766 6.62111 6.83866 6.52011 7.29866C6.31711 8.20966 7.11211 9.00466 8.02411 8.80266C8.48311 8.69966 8.85411 8.33066 8.95611 7.87066ZM8.95611 16.7721C9.15811 15.8611 8.36311 15.0651 7.45211 15.2671C6.99311 15.3691 6.62111 15.7401 6.51911 16.2001C6.31711 17.1111 7.11211 17.9061 8.02311 17.7041C8.48311 17.6021 8.85411 17.2321 8.95611 16.7721Z" fill="white"/>
<path d="M12.9802 19.7803H6.5002C5.1192 19.7803 4.0002 18.6613 4.0002 17.2803V15.5523C4.0002 14.1713 5.1192 13.0523 6.5002 13.0523H13.0182M17.5 4.21973C18.88 4.21973 20 5.33873 20 6.71973V8.44773C20 9.82873 18.88 10.9477 17.5 10.9477H6.5C5.119 10.9477 4 9.82873 4 8.44773V6.71973C4 5.33873 5.119 4.21973 6.5 4.21973H17.5Z" stroke="white" stroke-width="1.5" stroke-linecap="round" stroke-linejoin="round"/>
</svg>
