<svg width="24" height="24" viewBox="0 0 24 24" fill="none" xmlns="http://www.w3.org/2000/svg">
<path d="M7.73611 15.2372C8.42611 15.2372 8.98611 15.7972 8.98611 16.4872C8.98611 17.1772 8.42611 17.7372 7.73611 17.7372C7.04611 17.7372 6.48611 17.1772 6.48611 16.4872C6.48611 15.7972 7.04611 15.2372 7.73611 15.2372ZM7.73611 6.33594C8.42611 6.33594 8.98611 6.89594 8.98611 7.58594C8.98611 8.27594 8.42611 8.83594 7.73611 8.83594C7.04611 8.83594 6.48611 8.27594 6.48611 7.58594C6.48611 6.89594 7.04611 6.33594 7.73611 6.33594Z" fill="white"/>
<path fill-rule="evenodd" clip-rule="evenodd" d="M17.5 13.0525C18.881 13.0525 20 14.1715 20 15.5525V17.2805C20 18.6615 18.881 19.7805 17.5 19.7805H6.5C5.119 19.7805 4 18.6615 4 17.2805V15.5525C4 14.1715 5.119 13.0525 6.5 13.0525H17.5ZM17.5 4.21973C18.881 4.21973 20 5.33873 20 6.71973V8.44773C20 9.82873 18.881 10.9477 17.5 10.9477H6.5C5.119 10.9477 4 9.82873 4 8.44773V6.71973C4 5.33873 5.119 4.21973 6.5 4.21973H17.5Z" stroke="white" stroke-width="1.5" stroke-linecap="round" stroke-linejoin="round"/>
</svg>
