<svg width="24" height="24" viewBox="0 0 24 24" fill="none" xmlns="http://www.w3.org/2000/svg">
<path fill-rule="evenodd" clip-rule="evenodd" d="M17.8952 12.699C18.0122 12.699 18.1332 12.793 18.1622 12.907L18.2372 13.197L18.3702 13.711C18.3992 13.825 18.6352 14.028 18.7112 14.077C18.7642 14.111 18.8552 14.127 18.9442 14.124C18.9822 14.122 19.0212 14.118 19.0562 14.109L19.8522 13.887C19.9652 13.856 20.1062 13.913 20.1652 14.015L20.8082 15.133C20.8672 15.236 20.8462 15.387 20.7622 15.47L20.1722 16.052C20.0882 16.134 20.0252 16.276 20.0312 16.366V16.532C20.0252 16.623 20.0882 16.764 20.1722 16.847L20.7622 17.429C20.8462 17.512 20.8672 17.663 20.8082 17.765L20.1652 18.883C20.1062 18.986 19.9652 19.044 19.8522 19.012L19.0562 18.79C18.9422 18.758 18.6492 18.861 18.5692 18.904C18.4882 18.946 18.3992 19.074 18.3702 19.188L18.1632 19.992C18.1332 20.106 18.0132 20.199 17.8952 20.199H16.6102C16.4922 20.199 16.3722 20.106 16.3422 19.992L16.1802 19.362L16.1352 19.188C16.1062 19.074 15.8692 18.87 15.7932 18.821C15.7172 18.773 15.5622 18.758 15.4492 18.79L14.6522 19.012C14.5392 19.044 14.3982 18.986 14.3392 18.883L13.6962 17.765C13.6372 17.663 13.6582 17.512 13.7422 17.429L14.3322 16.847C14.4162 16.764 14.4792 16.623 14.4732 16.532V16.366C14.4792 16.276 14.4162 16.134 14.3322 16.051L13.7422 15.47C13.6582 15.387 13.6372 15.236 13.6962 15.133L14.3392 14.015C14.3982 13.913 14.5392 13.856 14.6522 13.887L15.4492 14.109C15.5622 14.14 15.8552 14.037 15.9352 13.995C16.0162 13.953 16.1062 13.825 16.1352 13.711L16.3422 12.907C16.3712 12.793 16.4922 12.699 16.6092 12.699H17.8952ZM13.4672 12.6344C12.4862 13.6084 11.8772 14.9574 11.8772 16.4494C11.8772 17.5244 12.1962 18.5224 12.7392 19.3624H5.6582C4.2772 19.3624 3.1582 18.2434 3.1582 16.8624V15.1344C3.1582 13.7534 4.2772 12.6344 5.6582 12.6344H13.4672ZM17.2522 15.164C16.5432 15.164 15.9662 15.739 15.9662 16.449C15.9662 17.159 16.5432 17.735 17.2522 17.735C17.9622 17.735 18.5382 17.159 18.5382 16.449C18.5382 15.739 17.9622 15.164 17.2522 15.164ZM6.8962 14.7594C6.1742 14.7594 5.5882 15.3454 5.5882 16.0684C5.5882 16.7904 6.1742 17.3764 6.8962 17.3764C7.6182 17.3764 8.2042 16.7904 8.2042 16.0684C8.2042 15.3454 7.6182 14.7594 6.8962 14.7594ZM16.6583 3.80176C18.0383 3.80176 19.1583 4.92176 19.1583 6.30176V8.03076C19.1583 9.41076 18.0383 10.5308 16.6583 10.5308H5.6583C4.2773 10.5308 3.1583 9.41076 3.1583 8.03076V6.30176C3.1583 4.92176 4.2773 3.80176 5.6583 3.80176H16.6583ZM8.1713 7.46576C8.3833 6.51176 7.5513 5.67976 6.5973 5.89076C6.1163 5.99776 5.7273 6.38576 5.6213 6.86676C5.4093 7.82076 6.2413 8.65276 7.1953 8.44076C7.6763 8.33476 8.0643 7.94676 8.1713 7.46576Z" fill="white"/>
</svg>
