<svg width="24" height="24" viewBox="0 0 24 24" fill="none" xmlns="http://www.w3.org/2000/svg">
<path d="M8.5068 14.0938H5.88181C5.67481 14.0938 5.50681 13.9258 5.50681 13.7188V10.9688C5.50681 10.7617 5.67481 10.5938 5.88181 10.5938H8.6318C8.8388 10.5938 9.0068 10.7617 9.0068 10.9688V13.5938C9.0068 13.8697 8.7828 14.0938 8.5068 14.0938Z" fill="white"/>
<path d="M20.746 15.9943V16.1763M20.746 16.1763C20.746 17.5563 19.627 18.6763 18.246 18.6763H14.891H5.75C4.369 18.6763 3.25 17.5563 3.25 16.1763V7.82031C3.25 6.43831 4.369 5.32031 5.75 5.32031H14.891C16.271 5.32031 17.391 6.43831 17.391 7.82031V16.1763C17.391 16.2443 17.3936 16.3119 17.3986 16.3789C17.5586 18.3609 20.5786 18.3609 20.7376 16.3789C20.7436 16.3119 20.746 16.2443 20.746 16.1763ZM20.746 16.1763L20.7456 8.92691C20.7456 8.71991 20.5786 8.55191 20.3706 8.55191H17.3906M6.249 8.30781H14.407M11.3095 11.343H14.4065" stroke="white" stroke-width="1.5" stroke-linecap="round" stroke-linejoin="round"/>
</svg>
