<svg width="24" height="24" viewBox="0 0 24 24" fill="none" xmlns="http://www.w3.org/2000/svg">
<path d="M14.438 12.511H11.418C11.003 12.511 10.668 12.175 10.668 11.761C10.668 11.346 11.003 11.011 11.418 11.011H14.438C14.853 11.011 15.188 11.346 15.188 11.761C15.188 12.175 14.853 12.511 14.438 12.511ZM8.994 13.933C8.994 14.208 8.77 14.433 8.494 14.433H5.994C5.718 14.433 5.494 14.208 5.494 13.933V11.433C5.494 11.157 5.718 10.933 5.994 10.933H8.494C8.77 10.933 8.994 11.157 8.994 11.433V13.933ZM6.178 7.354H14.428C14.842 7.354 15.178 7.689 15.178 8.104C15.178 8.518 14.842 8.854 14.428 8.854H6.178C5.764 8.854 5.428 8.518 5.428 8.104C5.428 7.689 5.764 7.354 6.178 7.354ZM19.938 7.763C19.528 7.846 19.245 8.225 19.245 8.642V15.375C19.245 15.432 19.242 15.488 19.237 15.542C19.155 16.471 17.75 16.375 17.75 15.444V7.5C17.75 6.125 16.625 5 15.25 5H5.5C4.125 5 3 6.125 3 7.5V16.5C3 17.875 4.125 19 5.5 19H7.305H16.25H17.37C19.372 19 20.995 17.377 20.995 15.375V8.619C20.995 8.076 20.5 7.649 19.938 7.763Z" fill="white"/>
</svg>
