<svg width="24" height="24" viewBox="0 0 24 24" fill="none" xmlns="http://www.w3.org/2000/svg">
<path d="M9.2122 8.90424L13.9922 13.2872V11.0342L7.6192 5.05624V16.1872C7.6192 17.5232 7.9652 18.5022 8.6482 19.5682H10.5972C9.5292 18.1612 9.2122 17.3692 9.2122 16.1872V8.90424ZM14.7882 15.0956L10.0082 10.7116V12.9656L16.3812 18.9436V7.81264C16.3812 6.47664 16.0352 5.49764 15.3532 4.43164H13.4032C14.4712 5.83864 14.7882 6.63064 14.7882 7.81264V15.0956Z" fill="white"/>
<path fill-rule="evenodd" clip-rule="evenodd" d="M17.5 20H6.5C5.119 20 4 18.881 4 17.5V6.5C4 5.119 5.119 4 6.5 4H17.5C18.881 4 20 5.119 20 6.5V17.5C20 18.881 18.881 20 17.5 20Z" stroke="white" stroke-width="1.5" stroke-linecap="round" stroke-linejoin="round"/>
</svg>
