<svg width="24" height="24" viewBox="0 0 24 24" fill="none" xmlns="http://www.w3.org/2000/svg">
<path d="M19.2925 2.75977H16.0905C16.9225 4.06477 17.3455 5.25777 17.3455 6.88877V20.4808L9.5685 13.1798V10.4298L15.4045 15.7838V6.89077C15.4045 5.44777 15.0135 4.48077 13.7145 2.76177H4.7065C3.6375 2.76177 2.7615 3.63677 2.7615 4.70477V19.2948C2.7615 20.3648 3.6365 21.2398 4.7065 21.2398H7.9085C7.0755 19.9388 6.6525 18.7418 6.6525 17.1108V3.52277L14.4305 10.8198V13.5698L8.5945 8.21576V17.1108C8.5945 18.5518 8.9845 19.5208 10.2855 21.2398H19.2935C20.3635 21.2398 21.2385 20.3648 21.2385 19.2948V4.70477C21.2395 3.63477 20.3645 2.75977 19.2925 2.75977Z" fill="white"/>
</svg>
