<svg width="24" height="24" viewBox="0 0 24 24" fill="none" xmlns="http://www.w3.org/2000/svg">
<path fill-rule="evenodd" clip-rule="evenodd" d="M12.7498 8.74237C12.0598 8.74237 11.4998 8.18238 11.4998 7.49238C11.4998 6.80238 12.0598 6.24238 12.7498 6.24238C13.4398 6.24238 13.9998 6.80238 13.9998 7.49238C13.9998 8.18238 13.4398 8.74237 12.7498 8.74237ZM18.9968 3.73438H5.0038C4.3648 3.73438 4.0188 4.48037 4.4308 4.96837L11.2498 13.4464V18.7664H7.9998C7.5858 18.7664 7.2498 19.1014 7.2498 19.5164C7.2498 19.9304 7.5858 20.2664 7.9998 20.2664H11.9998H15.9998C16.4148 20.2664 16.7498 19.9304 16.7498 19.5164C16.7498 19.1014 16.4148 18.7664 15.9998 18.7664H12.7498V13.4464L19.5698 4.96837C19.9808 4.48037 19.6348 3.73438 18.9968 3.73438Z" fill="white"/>
</svg>
