<svg width="24" height="24" viewBox="0 0 24 24" fill="none" xmlns="http://www.w3.org/2000/svg">
<path d="M18.2291 7.5455C18.6537 7.5455 19 7.8926 19 8.3203V16.7901C19 18.5602 17.5665 20 15.8062 20H8.5323C8.1067 20 7.7614 19.6538 7.7614 19.2252C7.7614 18.7975 8.1067 18.4504 8.5323 18.4504H15.8062C16.7163 18.4504 17.4582 17.7066 17.4582 16.7901V8.3203C17.4582 7.8926 17.8035 7.5455 18.2291 7.5455ZM13.9849 4C15.0748 4 15.9673 4.897 15.9673 5.9924V15.6699C15.9673 16.4005 15.3726 16.9982 14.6457 16.9982H5.9824C4.8925 16.9982 4 16.1012 4 15.0058V14.9607H5.2802C5.8176 14.9607 6.2493 14.4967 6.1964 13.9459C6.1498 13.4651 5.7207 13.1117 5.2405 13.1117H4V11.4142H5.2802C5.8176 11.4142 6.2484 10.9511 6.1964 10.4004C6.1506 9.9195 5.7216 9.5653 5.2405 9.5653H4V7.8856H5.2802C5.8176 7.8856 6.2484 7.4216 6.1964 6.8708C6.1506 6.3899 5.7216 6.0375 5.2414 6.0375H4V5.9924C4 4.897 4.8925 4 5.9824 4H13.9849Z" fill="white"/>
</svg>
