<svg width="24" height="24" viewBox="0 0 24 24" fill="none" xmlns="http://www.w3.org/2000/svg">
<path d="M9.82689 19.0359C10.4099 19.4569 11.1689 19.7129 12.0019 19.7129C12.8359 19.7129 13.5949 19.4569 14.1779 19.0359M7.31989 7.12888C8.13089 5.34988 9.92189 4.12988 12.0019 4.12988C14.7729 4.12988 17.0309 6.29588 17.1419 9.06488C17.1429 9.08688 17.1449 9.10988 17.1479 9.13188V11.6149C17.1479 11.7359 17.1749 11.8559 17.2269 11.9649L18.6599 14.9769C18.9169 15.5159 18.5229 16.1379 17.9269 16.1379H16.3289H6.07689C5.47989 16.1379 5.08589 15.5159 5.34289 14.9769L6.77589 11.9649C6.82789 11.8559 6.85589 11.7359 6.85589 11.6149V9.13188C6.85889 9.10988 6.85989 9.08688 6.86089 9.06488C6.88889 8.37388 7.04989 7.72088 7.31989 7.12888Z" stroke="white" stroke-width="1.5" stroke-linecap="round" stroke-linejoin="round"/>
</svg>
