<svg width="24" height="24" viewBox="0 0 24 24" fill="none" xmlns="http://www.w3.org/2000/svg">
<path fill-rule="evenodd" clip-rule="evenodd" d="M19.4981 5.75C21.0191 5.75 22.2501 6.984 22.2501 8.507C22.2501 9.76 21.4151 10.815 20.2701 11.15C20.1491 11.186 20.0231 11.212 19.8951 11.23C19.7721 11.248 19.6471 11.261 19.5191 11.262C19.5121 11.262 19.5051 11.263 19.4981 11.263C17.9781 11.263 16.7461 10.028 16.7461 8.507C16.7461 8.388 16.7571 8.272 16.7711 8.157C16.7861 8.029 16.8121 7.904 16.8451 7.781C16.8811 7.654 16.9231 7.53 16.9741 7.41C17.3971 6.435 18.3671 5.75 19.4981 5.75Z" fill="white"/>
<path fill-rule="evenodd" clip-rule="evenodd" d="M5.75 13.75V10.25C5.75 8.87 6.869 7.75 8.25 7.75H17.726C19.103 7.75 20.22 8.863 20.226 10.24L20.24 13.74C20.246 15.125 19.125 16.25 17.74 16.25H8.25C6.869 16.25 5.75 15.131 5.75 13.75Z" stroke="white" stroke-width="1.5" stroke-linecap="round" stroke-linejoin="round"/>
</svg>
