<svg width="24" height="24" viewBox="0 0 24 24" fill="none" xmlns="http://www.w3.org/2000/svg">
<path d="M15.239 4.63563C15.852 4.08363 16.3541 4.30863 16.3541 5.13263V17.8826C16.3541 18.7076 15.852 18.9316 15.239 18.3806L9.69204 14.9936V18.4166C9.69204 19.1076 9.13304 19.6666 8.44204 19.6666H8.22114C7.53114 19.6666 6.97114 19.1076 6.97114 18.4166V14.8476C6.97114 14.7306 6.98114 14.6156 6.99914 14.5056H5.76904C4.80714 14.5056 4.01904 13.7176 4.01904 12.7556V10.2556C4.01904 9.29263 4.80714 8.50563 5.76904 8.50563H8.61304C8.71514 8.50563 8.81314 8.51563 8.91014 8.53263V8.49863L15.239 4.63563ZM17.6541 8.49793C18.9391 8.49793 19.9811 9.85193 19.9811 11.5229C19.9811 13.1939 18.9391 14.5489 17.6541 14.5489V8.49793Z" fill="white"/>
</svg>
