<svg width="24" height="24" viewBox="0 0 24 24" fill="none" xmlns="http://www.w3.org/2000/svg">
<path fill-rule="evenodd" clip-rule="evenodd" d="M8.93945 13.561C9.90545 13.561 10.6895 14.344 10.6895 15.311V18.311C10.6895 19.277 9.90545 20.061 8.93945 20.061H5.93945C4.97245 20.061 4.18945 19.277 4.18945 18.311V15.311C4.18945 14.344 4.97245 13.561 5.93945 13.561H8.93945ZM17.4395 13.561C18.4055 13.561 19.1895 14.344 19.1895 15.311V18.311C19.1895 19.277 18.4055 20.061 17.4395 20.061H14.4395C13.4725 20.061 12.6895 19.277 12.6895 18.311V15.311C12.6895 14.344 13.4725 13.561 14.4395 13.561H17.4395ZM14.7024 4.4517C15.3854 3.7687 16.4934 3.7687 17.1764 4.4517L19.2984 6.5737C19.9814 7.2567 19.9814 8.3647 19.2984 9.0487L17.1764 11.1697C16.4934 11.8527 15.3854 11.8527 14.7024 11.1697L12.5804 9.0487C11.8974 8.3647 11.8974 7.2567 12.5804 6.5737L14.7024 4.4517ZM8.93945 4.561C9.90545 4.561 10.6895 5.344 10.6895 6.311V9.311C10.6895 10.277 9.90545 11.061 8.93945 11.061H5.93945C4.97245 11.061 4.18945 10.277 4.18945 9.311V6.311C4.18945 5.344 4.97245 4.561 5.93945 4.561H8.93945Z" fill="white"/>
</svg>
