<svg width="24" height="24" viewBox="0 0 24 24" fill="none" xmlns="http://www.w3.org/2000/svg">
<path fill-rule="evenodd" clip-rule="evenodd" d="M18.3345 13.6586C18.1825 13.6586 18.0295 13.6126 17.8965 13.5166C17.5605 13.2746 17.4845 12.8056 17.7265 12.4706C18.0385 12.0376 18.2095 11.4796 18.2095 10.9006C18.2095 10.3216 18.0385 9.76361 17.7265 9.33161C17.4845 8.99561 17.5605 8.52661 17.8965 8.28461C18.2335 8.04361 18.7015 8.11861 18.9435 8.45461C19.4385 9.14061 19.7095 10.0096 19.7095 10.9006C19.7095 11.7926 19.4385 12.6606 18.9435 13.3466C18.7965 13.5506 18.5675 13.6586 18.3345 13.6586ZM5.50049 9.22761V12.7276H6.89649C7.31149 12.7276 7.64649 13.0636 7.64649 13.4776V17.5486C7.64649 17.9616 7.98349 18.2986 8.39649 18.2986C8.81049 18.2986 9.14649 17.9616 9.14649 17.5486V14.0356C9.14649 13.7626 9.29449 13.5126 9.53149 13.3806C9.76849 13.2476 10.0595 13.2536 10.2915 13.3976L14.9995 16.3076L15.0005 5.49561L9.16349 9.11561C9.04449 9.18861 8.90749 9.22761 8.76849 9.22761H5.50049ZM8.39649 19.7986C7.15649 19.7986 6.14649 18.7886 6.14649 17.5486V14.2276H5.50049C4.67249 14.2276 4.00049 13.5546 4.00049 12.7276V9.22761C4.00049 8.40061 4.67249 7.72761 5.50049 7.72761H8.55449L14.2095 4.22361C14.6735 3.93761 15.2555 3.92561 15.7305 4.18961C16.2055 4.45461 16.5005 4.95661 16.5005 5.49961V16.3076C16.5005 16.8506 16.2055 17.3526 15.7305 17.6176C15.2555 17.8826 14.6735 17.8696 14.2105 17.5846L10.6475 15.3816V17.5486C10.6475 18.7886 9.63749 19.7986 8.39649 19.7986Z" fill="white"/>
</svg>
