<svg width="24" height="24" viewBox="0 0 24 24" fill="none" xmlns="http://www.w3.org/2000/svg">
<path fill-rule="evenodd" clip-rule="evenodd" d="M14.7647 7.69231C14.7347 7.81631 14.7087 7.94031 14.6877 8.06831C14.6677 8.19231 14.6507 8.31731 14.6407 8.44331C14.6327 8.56031 14.6237 8.67531 14.6237 8.79331C14.6237 11.2803 16.6447 13.3033 19.1287 13.3033C19.1367 13.3033 19.1427 13.3013 19.1497 13.3013C19.2767 13.3013 19.4027 13.2933 19.5257 13.2823C19.6537 13.2713 19.7777 13.2523 19.9017 13.2313V14.5813C19.9017 16.4473 18.3847 17.9633 16.5197 17.9633H7.50065C5.63665 17.9633 4.11865 16.4473 4.11865 14.5813V11.0743C4.11865 9.20931 5.63665 7.69231 7.50065 7.69231H14.7647ZM19.1291 6.03711C20.6501 6.03711 21.8811 7.27111 21.8811 8.79311C21.8811 10.0461 21.0461 11.1021 19.9011 11.4371C19.7801 11.4721 19.6541 11.4981 19.5261 11.5171C19.4031 11.5351 19.2781 11.5471 19.1501 11.5481C19.1431 11.5481 19.1361 11.5491 19.1291 11.5491C17.6091 11.5491 16.3771 10.3151 16.3771 8.79311C16.3771 8.67411 16.3881 8.55911 16.4021 8.44411C16.4171 8.31611 16.4431 8.19111 16.4761 8.06811C16.5121 7.94111 16.5541 7.81711 16.6051 7.69711C17.0281 6.72111 17.9981 6.03711 19.1291 6.03711Z" fill="white"/>
</svg>
