<svg width="24" height="24" viewBox="0 0 24 24" fill="none" xmlns="http://www.w3.org/2000/svg">
<path d="M19 11.875C19.4142 11.875 19.75 12.2108 19.75 12.625C19.75 13.0047 19.4678 13.3185 19.1018 13.3682L19 13.375H5C4.5858 13.375 4.25 13.0392 4.25 12.625C4.25 12.2453 4.5322 11.9315 4.8982 11.8818L5 11.875H19Z" fill="white"/>
<path d="M17 16.25C17.4142 16.25 17.75 16.5858 17.75 17C17.75 17.3797 17.4678 17.6935 17.1018 17.7432L17 17.75H7C6.5858 17.75 6.25 17.4142 6.25 17C6.25 16.6203 6.5322 16.3065 6.8982 16.2568L7 16.25H17Z" fill="white"/>
<path fill-rule="evenodd" clip-rule="evenodd" d="M5.7447 9C5.3333 9 5 8.7016 5 8.3333C5 7.9651 5.3333 7.6667 5.7447 7.6667H16.766C17.1764 7.6667 17.5106 7.3675 17.5106 7C17.5106 6.6325 17.1764 6.3333 16.766 6.3333C16.3546 6.3333 16.0213 6.0349 16.0213 5.6667C16.0213 5.2984 16.3546 5 16.766 5C17.9977 5 19 5.8973 19 7C19 8.1027 17.9977 9 16.766 9H5.7447Z" fill="white" stroke="white" stroke-width="0.15" stroke-linecap="round" stroke-linejoin="round"/>
</svg>
