<svg width="24" height="24" viewBox="0 0 24 24" fill="none" xmlns="http://www.w3.org/2000/svg">
<path d="M16.7999 20.5H7.79994C5.99994 20.5 4.59994 19 4.59994 17.3V6.8C4.49994 5 5.99994 3.5 7.79994 3.5H16.7999C18.4999 3.5 19.9999 5 19.9999 6.8V17.3C19.9999 19 18.4999 20.5 16.7999 20.5ZM9.99994 19H16.7999C17.7999 19 18.5999 18.2 18.5999 17.2V6.8C18.5999 5.8 17.7999 5 16.7999 5H9.99994V19ZM7.79994 5C6.79994 5 5.99994 5.8 5.99994 6.8V17.3C5.99994 18.3 6.79994 19.1 7.79994 19.1H8.59994V5H7.79994Z" fill="white"/>
</svg>
