<svg width="24" height="24" viewBox="0 0 24 24" fill="none" xmlns="http://www.w3.org/2000/svg">
<path d="M19.1961 8.53647L19.3246 8.65537L22.3447 11.6757C23.1768 12.5078 23.2164 13.8323 22.4636 14.7113L22.3447 14.8397L16.5681 20.6166C14.7866 22.3983 11.9534 22.4729 10.2392 20.7604C8.58079 19.1001 8.59899 16.3892 10.2215 14.6015L10.3835 14.4315L16.1605 8.65567C16.9918 7.82317 18.3161 7.78357 19.1961 8.53647ZM11.845 14.6951L11.2464 15.2945C9.93149 16.6095 9.87719 18.6711 11.1021 19.8974C12.2834 21.0775 14.2387 21.0709 15.5561 19.8946L15.7052 19.7536L16.304 19.1541L11.845 14.6951ZM5.78959 16.5279C6.22589 16.9147 6.35099 17.0786 6.86539 17.353C7.21479 17.5393 7.34689 17.9732 7.16049 18.3221C6.97399 18.671 6.53959 18.8028 6.19019 18.6164C5.57599 18.2889 5.35799 18.0604 4.83759 17.599C4.54139 17.3363 4.51439 16.8837 4.77729 16.5879C5.04009 16.2922 5.49339 16.2653 5.78959 16.5279ZM17.1194 9.43387L17.0237 9.51847L12.709 13.8321L17.167 18.2911L21.4818 13.9767C21.8483 13.6101 21.8765 13.0334 21.5663 12.6345L21.4818 12.5387L18.4619 9.51867C18.0946 9.15177 17.5179 9.12357 17.1194 9.43387ZM3.39239 12.1958C3.48709 12.7724 3.64979 13.3328 3.87619 13.8676C4.03049 14.232 3.85989 14.6521 3.49509 14.8061C3.13039 14.96 2.70959 14.7895 2.55529 14.4251C2.28479 13.7861 2.09029 13.1162 1.97709 12.4272C1.91299 12.0369 2.17789 11.6687 2.56869 11.6048C2.95949 11.5408 3.32829 11.8055 3.39239 12.1958ZM3.92499 6.45417C4.27199 6.64497 4.39849 7.08047 4.20759 7.42697C3.92729 7.93587 3.70779 8.47677 3.55439 9.04007C3.45049 9.42167 3.05649 9.64687 2.67429 9.54297C2.29209 9.43907 2.06659 9.04547 2.17049 8.66387C2.35369 7.99067 2.61609 7.34427 2.95099 6.73617C3.14189 6.38967 3.57799 6.26347 3.92499 6.45417ZM16.5367 4.35237C17.0594 4.81087 17.0846 4.85067 17.4863 5.41777C17.715 5.74077 17.6384 6.18767 17.3151 6.41607C16.9918 6.64437 16.5442 6.56767 16.3155 6.24477C15.9786 5.76907 16.0288 5.81287 15.5905 5.42837C15.2929 5.16737 15.2634 4.71477 15.5247 4.41767C15.7861 4.12057 16.2391 4.09127 16.5367 4.35237ZM8.27079 3.21067C8.42189 3.57637 8.24759 3.99497 7.88149 4.14577C7.34239 4.36777 6.83159 4.65307 6.35949 4.99477C6.03879 5.22687 5.59039 5.15537 5.35799 4.83507C5.12549 4.51477 5.19689 4.06697 5.51759 3.83487C6.08089 3.42717 6.69059 3.08677 7.33429 2.82157C7.70039 2.67077 8.11969 2.84497 8.27079 3.21067ZM11.1123 2.16777C11.8136 2.20017 12.5013 2.31407 13.1651 2.50577C13.5456 2.61557 13.765 3.01267 13.6551 3.39267C13.5452 3.77267 13.1476 3.99157 12.7672 3.88167C12.2113 3.72117 11.6351 3.62577 11.0465 3.59857C10.6509 3.58037 10.3449 3.24527 10.363 2.85007C10.3812 2.45497 10.7166 2.14947 11.1123 2.16777Z" fill="white"/>
</svg>
