<svg width="24" height="24" viewBox="0 0 24 24" fill="none" xmlns="http://www.w3.org/2000/svg">
<path d="M19.1801 18.2811L17.8331 19.6281L15.3541 17.1501L7.78212 17.1581C7.68412 17.1551 7.58612 17.1581 7.48712 17.1581C4.99512 17.1581 2.97412 15.1381 2.97412 12.6451C2.97412 10.5081 4.46012 8.71807 6.45412 8.25107L4.00512 5.80007L5.35212 4.45207L19.1801 18.2811ZM12.0001 4.37207C14.2361 4.37207 16.0931 5.99807 16.4511 8.13307H16.5131C19.0051 8.13307 21.0261 10.1531 21.0261 12.6451C21.0261 13.9611 20.4631 15.1451 19.5651 15.9701L9.05712 5.46307C9.84712 4.78307 10.8761 4.37207 12.0001 4.37207Z" fill="white"/>
</svg>
