<svg width="24" height="24" viewBox="0 0 24 24" fill="none" xmlns="http://www.w3.org/2000/svg">
<path fill-rule="evenodd" clip-rule="evenodd" d="M18.3871 3.625C18.9382 3.625 19.3871 4.08 19.3871 4.642V19.358C19.3871 19.919 18.9382 20.375 18.3871 20.375C17.8332 20.375 17.3871 19.919 17.3871 19.358V4.642C17.3871 4.08 17.8332 3.625 18.3871 3.625ZM14.1289 7.6934C14.6808 7.6934 15.1289 8.1484 15.1289 8.7094V19.3584C15.1289 19.9194 14.6808 20.3754 14.1289 20.3754C13.5758 20.3754 13.1289 19.9194 13.1289 19.3584V8.7094C13.1289 8.1484 13.5758 7.6934 14.1289 7.6934ZM9.87098 12.2701C10.423 12.2701 10.871 12.7261 10.871 13.2861V19.3581C10.871 19.9191 10.423 20.3751 9.87098 20.3751C9.31898 20.3751 8.87098 19.9191 8.87098 19.3581V13.2861C8.87098 12.7261 9.31898 12.2701 9.87098 12.2701ZM5.61328 16.0967C6.16618 16.0967 6.61328 16.5517 6.61328 17.1137V19.3577C6.61328 19.9197 6.16618 20.3747 5.61328 20.3747C5.06128 20.3747 4.61328 19.9197 4.61328 19.3577V17.1137C4.61328 16.5517 5.06128 16.0967 5.61328 16.0967Z" fill="white"/>
</svg>
