<svg width="24" height="24" viewBox="0 0 24 24" fill="none" xmlns="http://www.w3.org/2000/svg">
<path d="M9.78905 9.14598L13.7778 11.5345L16.1546 10.5343C16.6375 10.3255 17.1583 10.2184 17.6845 10.219C17.7721 10.219 17.8588 10.2229 17.945 10.2287C17.3612 7.95218 15.4896 6.23418 13.1716 5.84698C10.8535 5.45978 8.52515 6.47608 7.23315 8.43918C7.25345 8.43898 7.27345 8.43768 7.29375 8.43768C8.17535 8.43648 9.03955 8.68178 9.78905 9.14598Z" fill="#0364B8"/>
<path d="M9.78906 9.1451C9.03956 8.6809 8.17526 8.4363 7.29366 8.4375C7.27336 8.4375 7.25336 8.4388 7.23306 8.439C5.47476 8.4608 3.87256 9.4524 3.06876 11.0163C2.26506 12.5802 2.39136 14.4603 3.39716 15.9026L6.91446 14.4224L8.47806 13.7644L11.9596 12.2994L13.7777 11.5343L9.78906 9.1451Z" fill="#0078D4"/>
<path d="M17.9448 10.2286C17.8586 10.2228 17.7719 10.2188 17.6843 10.2188C17.1581 10.2183 16.6374 10.3258 16.1545 10.5346L13.7776 11.5344L14.4669 11.9472L16.726 13.3004L17.7117 13.8908L21.082 15.9096C21.7043 14.7544 21.697 13.3622 21.0627 12.2136C20.4284 11.0649 19.2539 10.3172 17.9448 10.2286Z" fill="#1490DF"/>
<path d="M17.7118 13.8906L16.7261 13.3002L14.467 11.947L13.7777 11.5342L11.9596 12.2993L8.47812 13.7643L6.91452 14.4223L3.39722 15.9025C4.28442 17.178 5.74002 17.9382 7.29372 17.9374H17.6844C19.1038 17.9378 20.4088 17.1589 21.0821 15.9094L17.7118 13.8906Z" fill="#28A8EA"/>
</svg>
