<svg width="24" height="24" viewBox="0 0 24 24" fill="none" xmlns="http://www.w3.org/2000/svg">
<path d="M12.4339 9.22788L13.1631 8.49758C14.0787 7.57988 15.5797 7.57887 16.4974 8.49447C17.4162 9.41117 17.4172 10.9112 16.5006 11.8299L15.0433 13.2904C14.1266 14.2081 12.6266 14.2091 11.7078 13.2935M12.567 15.7714L11.8378 16.5016C10.9222 17.4193 9.42122 17.4204 8.50352 16.5047C7.58472 15.5881 7.58372 14.0881 8.50032 13.1693L9.95762 11.7089C10.8743 10.7912 12.3743 10.7901 13.2931 11.7058M3.81102 15.1483C4.03082 16.792 4.61412 18.2806 5.64122 19.3722C6.73292 20.3983 8.22452 20.9774 9.86932 21.1941C11.4401 21.4004 12.5089 21.3493 12.5089 21.3493C12.5089 21.3493 13.5787 21.3983 15.1485 21.1889C16.7933 20.9691 18.2818 20.3868 19.3724 19.3587C20.3985 18.266 20.9787 16.7754 21.1953 15.1316C21.4016 13.5608 21.3485 12.492 21.3485 12.492C21.3485 12.492 21.3995 11.4212 21.1901 9.85238C20.9703 8.20758 20.387 6.71808 19.3589 5.62848C18.2672 4.60238 16.7766 4.02118 15.1318 3.80558C13.561 3.59928 12.4912 3.65138 12.4912 3.65138C12.4912 3.65138 11.4224 3.60238 9.85262 3.81078C8.20782 4.02948 6.71932 4.61388 5.62872 5.64198H5.62762C4.60262 6.73368 4.02242 8.22538 3.80582 9.86908C3.59952 11.4389 3.65162 12.5087 3.65162 12.5087C3.65162 12.5087 3.60162 13.5774 3.81102 15.1483Z" stroke="white" stroke-width="1.5" stroke-linecap="round" stroke-linejoin="round"/>
</svg>
