<svg width="24" height="24" viewBox="0 0 24 24" fill="none" xmlns="http://www.w3.org/2000/svg">
<path fill-rule="evenodd" clip-rule="evenodd" d="M19.1194 10.6005H14.0802C13.7048 10.6005 13.3997 10.2953 13.3997 9.91991V4.88077C13.3997 4.50534 13.7048 4.2002 14.0802 4.2002H19.1194C19.4948 4.2002 19.7999 4.50534 19.7999 4.88077V9.91991C19.7999 10.2953 19.4948 10.6005 19.1194 10.6005Z" stroke="white" stroke-width="1.75" stroke-linecap="round" stroke-linejoin="round"/>
<path fill-rule="evenodd" clip-rule="evenodd" d="M9.91967 19.7997H4.88052C4.50424 19.7997 4.19995 19.4946 4.19995 19.1191V14.08C4.19995 13.7046 4.50424 13.3994 4.88052 13.3994H9.91967C10.2951 13.3994 10.5994 13.7046 10.5994 14.08V19.1191C10.5994 19.4946 10.2951 19.7997 9.91967 19.7997Z" stroke="white" stroke-width="1.75" stroke-linecap="round" stroke-linejoin="round"/>
<path fill-rule="evenodd" clip-rule="evenodd" d="M19.9997 16.4997C19.9997 18.4326 18.4328 19.9994 16.5 19.9994C14.5671 19.9994 13.0002 18.4326 13.0002 16.4997C13.0002 14.5669 14.5671 13 16.5 13C18.4328 13 19.9997 14.5669 19.9997 16.4997Z" stroke="white" stroke-width="1.75" stroke-linecap="round" stroke-linejoin="round"/>
<path fill-rule="evenodd" clip-rule="evenodd" d="M10.9997 7.49971C10.9997 9.43257 9.43282 10.9994 7.49996 10.9994C5.5671 10.9994 4.00024 9.43257 4.00024 7.49971C4.00024 5.56686 5.5671 4 7.49996 4C9.43282 4 10.9997 5.56686 10.9997 7.49971Z" stroke="white" stroke-width="1.75" stroke-linecap="round" stroke-linejoin="round"/>
</svg>
