<svg width="24" height="24" viewBox="0 0 24 24" fill="none" xmlns="http://www.w3.org/2000/svg">
<path d="M8.40416 14.4748C8.75016 16.1419 10.2312 17.3968 12.0002 17.3968C13.7692 17.3968 15.2492 16.1419 15.5962 14.4748H20.0002V17.4999C20.0002 18.8749 18.8752 19.9999 17.5002 19.9999H6.50016C5.12516 19.9999 4.00016 18.8749 4.00016 17.4999V14.4748H8.40416ZM17.4998 4C18.8748 4 19.9998 5.125 19.9998 6.5V12.9749H14.9238C14.5098 12.9749 14.1738 13.31 14.1738 13.7249C14.1738 14.9229 13.1988 15.8969 11.9998 15.8969C10.8018 15.8969 9.82676 14.9229 9.82676 13.7249C9.82676 13.31 9.49076 12.9749 9.07676 12.9749H3.99976V6.5C3.99976 5.125 5.12476 4 6.49976 4H17.4998ZM12.0008 6.2449C11.8918 6.2449 11.7888 6.269 11.6958 6.31C11.5338 6.362 11.3818 6.4489 11.2638 6.5739L9.20776 8.7269C8.92176 9.027 8.93276 9.502 9.23176 9.7879C9.37776 9.9269 9.56376 9.995 9.74976 9.995C9.94776 9.995 10.1448 9.917 10.2928 9.763L11.2508 8.7599V12.1389C11.2508 12.553 11.5858 12.8889 12.0008 12.8889C12.4148 12.8889 12.7508 12.553 12.7508 12.1389V8.7599L13.7078 9.763C13.9938 10.0619 14.4688 10.0729 14.7678 9.7879C15.0678 9.502 15.0788 9.027 14.7928 8.7269L12.7388 6.5749C12.6188 6.4489 12.4678 6.362 12.3048 6.31C12.2118 6.269 12.1088 6.2449 12.0008 6.2449Z" fill="white"/>
</svg>
