<svg width="24" height="24" viewBox="0 0 24 24" fill="none" xmlns="http://www.w3.org/2000/svg">
<path d="M15.6344 8.27312C16.263 8.27312 16.8653 8.46582 17.3771 8.83162C17.705 9.06512 17.7809 9.52152 17.5474 9.84942C17.3129 10.1773 16.8565 10.2542 16.5286 10.0197C16.2659 9.83192 15.9565 9.73262 15.6344 9.73262C14.7616 9.73262 14.0513 10.4682 14.0513 11.3722V12.75H18.4717C19.436 12.75 20.2202 13.5332 20.2202 14.4965V18.7398C20.2202 19.7031 19.436 20.4874 18.4717 20.4874H12.7961C11.8328 20.4874 11.0496 19.7031 11.0496 18.7398V14.4965C11.0496 13.6033 11.7248 12.8726 12.5918 12.7704V11.3722C12.5918 9.66352 13.9569 8.27312 15.6344 8.27312ZM15.4099 3.02832C17.1536 3.02832 18.5722 4.44692 18.5722 6.19062V6.44452C18.5722 6.84732 18.2453 7.17432 17.8425 7.17432C17.4396 7.17432 17.1127 6.84732 17.1127 6.44452V6.19062C17.1127 5.25162 16.3489 4.48782 15.4099 4.48782H7.38251C6.44361 4.48782 5.67981 5.25162 5.67981 6.19062V17.3248C5.67981 18.2638 6.44361 19.0276 7.38251 19.0276H8.99191C9.39471 19.0276 9.72171 19.3545 9.72171 19.7573C9.72171 20.1602 9.39471 20.4871 8.99191 20.4871H7.38251C5.63891 20.4871 4.22021 19.0684 4.22021 17.3248V6.19062C4.22021 4.44692 5.63891 3.02832 7.38251 3.02832H15.4099ZM15.6344 14.8166C15.0671 14.8166 14.6079 15.2681 14.6079 15.8276C14.6079 16.1847 14.8064 16.4824 15.0895 16.6634C15.0856 16.6878 15.0749 16.7092 15.0749 16.7345V17.9021C15.0749 18.2125 15.325 18.4625 15.6344 18.4625C15.9429 18.4625 16.1939 18.2125 16.1939 17.9021V16.7345C16.1939 16.7092 16.1822 16.6878 16.1793 16.6634C16.4624 16.4834 16.6609 16.1847 16.6609 15.8276C16.6609 15.2681 16.2007 14.8166 15.6344 14.8166Z" fill="white"/>
</svg>
