<svg width="24" height="24" viewBox="0 0 24 24" fill="none" xmlns="http://www.w3.org/2000/svg">
<path d="M13.8238 19.5834H8.3611C7.0568 19.5834 6 18.5266 6 17.2223V6.3611C6 5.0568 7.0568 4 8.3611 4H14.5C15.8043 4 16.8612 5.0568 16.8612 6.3611V10.0914M11.1424 13.5469H19.2175M19.2494 11.1277V15.2596C19.2494 15.5534 19.0501 15.8084 18.7658 15.8782L17.3067 16.2409C16.6682 16.3986 16.2555 17.0163 16.3528 17.667L16.6049 19.3444C16.7362 20.2161 16.0609 21 15.1798 21C14.2986 21 13.6243 20.2161 13.7546 19.3444L14.0068 17.667C14.105 17.0163 13.6913 16.3986 13.0538 16.2409L11.5946 15.8782C11.3104 15.8084 11.1111 15.5534 11.1111 15.2596V10.7064V10.7074C11.5833 10.8906 12.2624 11.0729 13.1048 11.0729C13.8424 11.071 14.5999 10.9331 15.3545 10.6564C16.3698 10.2862 17.2434 10.0973 17.9527 10.0973C18.0953 10.0973 18.2303 10.1058 18.3569 10.1218C18.8669 10.1832 19.2494 10.6148 19.2494 11.1277Z" stroke="white" stroke-width="1.3" stroke-linecap="round" stroke-linejoin="round"/>
</svg>
