<svg width="24" height="24" viewBox="0 0 24 24" fill="none" xmlns="http://www.w3.org/2000/svg">
<path d="M15.4103 3.02832C17.1539 3.02832 18.5726 4.44702 18.5726 6.19062V6.44462C18.5726 6.84742 18.2456 7.17442 17.8428 7.17442C17.44 7.17442 17.113 6.84742 17.113 6.44462V6.19062C17.113 5.25172 16.3492 4.48782 15.4103 4.48782H7.38276C6.44376 4.48782 5.67996 5.25172 5.67996 6.19062V17.3249C5.67996 18.2639 6.44376 19.0277 7.38276 19.0277H8.99216C9.39496 19.0277 9.72196 19.3547 9.72196 19.7575C9.72196 20.1603 9.39496 20.4873 8.99216 20.4873H7.38276C5.63916 20.4873 4.22046 19.0686 4.22046 17.3249V6.19062C4.22046 4.44702 5.63916 3.02832 7.38276 3.02832H15.4103ZM15.6346 8.27282C17.3121 8.27282 18.6773 9.66322 18.6773 11.3719V12.7701C19.5433 12.8732 20.2205 13.604 20.2205 14.4972V18.7396C20.2205 19.7029 19.4362 20.4872 18.4729 20.4872H12.7973C11.833 20.4872 11.0497 19.7029 11.0497 18.7396V14.4972C11.0497 13.604 11.725 12.8732 12.592 12.7701V11.3719C12.592 9.66322 13.9571 8.27282 15.6346 8.27282ZM15.6346 14.8164C15.0674 14.8164 14.6081 15.2688 14.6081 15.8273C14.6081 16.1844 14.8066 16.4841 15.0897 16.6632C15.0868 16.6885 15.0751 16.7089 15.0751 16.7352V17.9028C15.0751 18.2122 15.3252 18.4623 15.6346 18.4623C15.9431 18.4623 16.1941 18.2122 16.1941 17.9028V16.7352C16.1941 16.7089 16.1834 16.6885 16.1795 16.6632C16.4627 16.4832 16.6612 16.1844 16.6612 15.8273C16.6612 15.2688 16.2019 14.8164 15.6346 14.8164ZM15.6346 9.73232C14.7618 9.73232 14.0515 10.4679 14.0515 11.3719V12.7497H17.2177V11.3719C17.2177 10.4679 16.5074 9.73232 15.6346 9.73232Z" fill="white"/>
</svg>
