<svg width="24" height="24" viewBox="0 0 24 24" fill="none" xmlns="http://www.w3.org/2000/svg">
<path fill-rule="evenodd" clip-rule="evenodd" d="M16.521 15.9102C16.521 16.5148 16.031 17.0039 15.4273 17.0039C14.8226 17.0039 14.3335 16.5148 14.3335 15.9102C14.3335 15.3064 14.8226 14.8164 15.4273 14.8164C16.031 14.8164 16.521 15.3064 16.521 15.9102Z" fill="white"/>
<path d="M8.71135 18.7188H7.78205C6.57375 18.7188 5.59375 17.7395 5.59375 16.5312V6.46875C5.59375 5.26035 6.57375 4.28125 7.78205 4.28125H15.2188C16.427 4.28125 17.4071 5.26035 17.4071 6.46875V6.74165M13.02 12.6714V11.1997C13.02 9.83815 14.0972 8.73385 15.4263 8.73385C16.7563 8.73385 17.8335 9.83815 17.8335 11.1997V12.6714M15.4272 16.4137V17.9739M18.3804 20.1795H12.4741C11.7488 20.1795 11.1616 19.5915 11.1616 18.867V14.4525C11.1616 13.7271 11.7488 13.14 12.4741 13.14H18.3804C19.1049 13.14 19.6929 13.7271 19.6929 14.4525V18.867C19.6929 19.5915 19.1049 20.1795 18.3804 20.1795Z" stroke="white" stroke-width="1.5" stroke-linecap="round" stroke-linejoin="round"/>
</svg>
