<svg width="24" height="24" viewBox="0 0 24 24" fill="none" xmlns="http://www.w3.org/2000/svg">
<path fill-rule="evenodd" clip-rule="evenodd" d="M15.9829 19.2826H8.20114C7.38934 19.2826 6.72894 18.544 6.72894 17.636V16.8504H17.4551V17.636C17.4551 18.544 16.7947 19.2826 15.9829 19.2826ZM8.20114 5.16911H12.9854C13.1183 5.16911 13.3749 5.29241 13.4708 5.40341L15.2316 7.44141H6.72894V6.81571C6.72894 5.90771 7.38934 5.16911 8.20114 5.16911ZM6.72894 15.439H17.4551V12.8516H6.72894V15.439ZM17.4551 10.3459V11.4402H6.72894V8.85271H16.4523L17.2515 9.77761C17.3541 9.89811 17.4551 10.1794 17.4551 10.3459ZM18.1626 8.80011L14.3803 4.42581C14.0496 4.03911 13.4633 3.75781 12.9854 3.75781H8.20114C6.69364 3.75781 5.46704 5.12961 5.46704 6.81571V17.636C5.46704 19.3221 6.69364 20.6939 8.20114 20.6939H15.9829C17.4904 20.6939 18.717 19.3221 18.717 17.636V10.3459C18.717 9.81901 18.4899 9.18581 18.1626 8.80011Z" fill="white"/>
</svg>
