<svg width="24" height="24" viewBox="0 0 24 24" fill="none" xmlns="http://www.w3.org/2000/svg">
<path fill-rule="evenodd" clip-rule="evenodd" d="M11.2573 8.86878V11.8188H12.9873C13.5423 11.8188 13.9423 11.6878 14.1883 11.4248C14.4333 11.1628 14.5553 10.8268 14.5553 10.4178C14.5553 10.0098 14.4333 9.64878 14.1883 9.33678C13.9423 9.02478 13.5423 8.86878 12.9873 8.86878H11.2573ZM11.2573 13.3808V16.6988H9.31433V7.30078H12.9873C14.0973 7.30078 14.9633 7.59278 15.5853 8.17878C16.2073 8.76378 16.5183 9.50578 16.5183 10.4048C16.5183 11.3128 16.2073 12.0358 15.5853 12.5738C14.9633 13.1118 14.0973 13.3808 12.9873 13.3808H11.2573Z" fill="white"/>
<path fill-rule="evenodd" clip-rule="evenodd" d="M20.5 12C20.5 16.694 16.694 20.5 12 20.5C7.306 20.5 3.5 16.694 3.5 12C3.5 7.305 7.306 3.5 12 3.5C16.694 3.5 20.5 7.305 20.5 12Z" stroke="white" stroke-width="1.5" stroke-linecap="round" stroke-linejoin="round"/>
</svg>
