<svg width="24" height="24" viewBox="0 0 24 24" fill="none" xmlns="http://www.w3.org/2000/svg">
<path fill-rule="evenodd" clip-rule="evenodd" d="M2.52508 3.63147C2.74908 3.40847 3.07798 3.35647 3.35208 3.47447C3.37698 3.51047 3.40408 3.54547 3.43598 3.57847L19.431 19.5725C19.532 19.8395 19.476 20.1525 19.261 20.3685C19.114 20.5145 18.9221 20.5875 18.73 20.5875C18.539 20.5875 18.347 20.5145 18.2001 20.3685L16.3461 18.5135C14.974 19.0995 13.503 19.4115 12 19.4115C8.47898 19.4115 5.13608 17.7125 2.82698 14.7505C1.39898 12.9185 1.39898 10.1555 2.82698 8.32447C3.31908 7.69147 3.86208 7.12047 4.44008 6.60847L2.52508 4.69247C2.23198 4.39947 2.23198 3.92447 2.52508 3.63147ZM5.50298 7.67047C4.96708 8.13847 4.46498 8.66247 4.00998 9.24547C2.99208 10.5525 2.99208 12.5215 4.00998 13.8285C6.03308 16.4235 8.94498 17.9115 12 17.9115C13.092 17.9115 14.166 17.7185 15.187 17.3545L13.7731 15.9415C13.225 16.1615 12.6271 16.2865 12 16.2865C9.37498 16.2865 7.25008 14.1605 7.25008 11.5365C7.25008 10.9095 7.37508 10.3115 7.59598 9.76347L5.50298 7.67047ZM12 3.66107C15.5199 3.66107 18.8629 5.36107 21.173 8.32407C22.601 10.1561 22.601 12.9181 21.173 14.7501C20.511 15.5991 19.7619 16.3401 18.951 16.9711L17.8829 15.9031C18.6549 15.3241 19.365 14.6291 19.99 13.8281C21.0079 12.5221 21.0079 10.5521 19.99 9.24607C17.966 6.65007 15.054 5.16107 12 5.16107C10.6209 5.16107 9.27188 5.46807 8.01888 6.03907L6.89588 4.91607C8.47798 4.10007 10.216 3.66107 12 3.66107ZM11.9997 6.78697C14.6236 6.78697 16.7507 8.91297 16.7507 11.537C16.7507 12.46 16.4827 13.319 16.0276 14.048L9.48958 7.50997C10.2186 7.05397 11.0766 6.78697 11.9997 6.78697Z" fill="white"/>
</svg>
