<svg width="24" height="24" viewBox="0 0 24 24" fill="none" xmlns="http://www.w3.org/2000/svg">
<path d="M12.0003 4.125C15.5193 4.125 18.8633 5.824 21.1733 8.787C22.6003 10.619 22.6003 13.382 21.1733 15.214C18.8633 18.176 15.5193 19.875 12.0003 19.875C8.47935 19.875 5.13535 18.176 2.82735 15.214C1.39935 13.382 1.39935 10.619 2.82735 8.787C5.13535 5.824 8.47935 4.125 12.0003 4.125ZM12.0003 5.625C8.94535 5.625 6.03335 7.114 4.01035 9.71C2.99235 11.016 2.99235 12.985 4.01035 14.292C6.03335 16.887 8.94535 18.375 12.0003 18.375C15.0543 18.375 17.9673 16.887 19.9893 14.292C21.0083 12.985 21.0083 11.016 19.9893 9.71C17.9673 7.114 15.0543 5.625 12.0003 5.625ZM12.0004 7.2499C14.6244 7.2499 16.7504 9.3769 16.7504 11.9999C16.7504 14.6239 14.6244 16.7499 12.0004 16.7499C9.37645 16.7499 7.25045 14.6239 7.25045 11.9999C7.25045 9.3769 9.37645 7.2499 12.0004 7.2499ZM12.9434 9.0839C12.2534 9.0839 11.6934 9.6439 11.6934 10.3339C11.6934 11.0239 12.2534 11.5839 12.9434 11.5839C13.6334 11.5839 14.1934 11.0239 14.1934 10.3339C14.1934 9.6439 13.6334 9.0839 12.9434 9.0839Z" fill="white"/>
</svg>
