<svg width="24" height="24" viewBox="0 0 24 24" fill="none" xmlns="http://www.w3.org/2000/svg">
<path d="M5.73551 15.8583C6.09951 14.7933 6.63751 13.8193 6.97951 13.3593L10.6565 17.0373C10.1965 17.3793 9.22351 17.9173 8.15751 18.2813C6.66351 18.7923 5.83951 18.6793 5.58851 18.4273C5.33651 18.1763 5.22451 17.3523 5.73551 15.8583ZM15.2705 5.03431C15.7745 4.52931 16.6215 4.61731 16.9235 4.91931L19.0965 7.09231C19.3995 7.39531 19.4865 8.24231 18.9825 8.74631L12.7085 15.0203L11.7775 15.9513L11.7345 15.9943L8.02251 12.2813L15.2705 5.03431ZM3.41251 20.5693C3.58351 20.7403 3.80751 20.8253 4.03151 20.8253C4.25551 20.8253 4.47951 20.7403 4.65051 20.5693L5.26451 19.9553C5.58651 20.0773 5.95751 20.1393 6.37751 20.1393C7.02551 20.1393 7.78551 19.9933 8.64351 19.7003C9.81851 19.2983 11.0745 18.6423 11.7245 18.1043L11.7345 18.1153L11.9155 17.9343L11.9195 17.9303L13.7685 16.0813L20.0435 9.80631C20.5465 9.30331 20.8305 8.61631 20.8435 7.87231C20.8555 7.15031 20.6055 6.48031 20.1575 6.03231L17.9845 3.85831C17.0275 2.90131 15.2275 2.95531 14.2095 3.97331L8.10051 10.0823L6.96451 11.2183L5.90151 12.2813L5.91151 12.2923C5.37351 12.9413 4.71751 14.1983 4.31651 15.3733C3.84251 16.7553 3.75451 17.8843 4.04351 18.7013L3.41251 19.3323C3.07051 19.6723 3.07051 20.2273 3.41251 20.5693Z" fill="white"/>
</svg>
