<svg width="24" height="24" viewBox="0 0 24 24" fill="none" xmlns="http://www.w3.org/2000/svg">
<path d="M5.07842 14.7174C5.08842 14.6594 5.16242 14.5404 5.20642 14.5084L9.46042 11.8254L12.1784 14.5424L9.49842 18.7934C9.46342 18.8414 9.34442 18.9144 9.29042 18.9244L5.59242 19.2954L7.27742 17.6104C7.56742 17.6414 7.86842 17.5494 8.09042 17.3264C8.48142 16.9374 8.48142 16.3034 8.09142 15.9124C7.70042 15.5224 7.06642 15.5224 6.67642 15.9124C6.45442 16.1354 6.36342 16.4364 6.39342 16.7264L4.70242 18.4174L5.07842 14.7174ZM11.5674 9.43143L14.5724 12.4364L13.3764 13.6324C13.3534 13.6064 13.3344 13.5774 13.3094 13.5524L10.4514 10.6954C10.4264 10.6694 10.3974 10.6504 10.3704 10.6274L11.5674 9.43143ZM16.0744 4.92443C16.5784 4.42043 17.4244 4.50743 17.7274 4.81043L19.1934 6.27643C19.3504 6.43443 19.4454 6.72243 19.4394 7.03043C19.4334 7.37843 19.3024 7.70643 19.0784 7.93043L15.6334 11.3754L12.6274 8.37043L16.0744 4.92443ZM3.39342 20.6024C3.60842 20.8174 3.90142 20.9354 4.21142 20.9354C4.25242 20.9354 4.29442 20.9334 4.33542 20.9294L9.44142 20.4164C9.94842 20.3654 10.4924 20.0294 10.7644 19.5974L12.8734 16.2534C12.8794 16.2474 12.8864 16.2434 12.8914 16.2384L16.1634 12.9664L20.1394 8.99043C21.1574 7.97343 21.2114 6.17343 20.2544 5.21543L18.7874 3.74943C17.8294 2.79143 16.0304 2.84643 15.0134 3.86343L7.76542 11.1124C7.75942 11.1174 7.75542 11.1244 7.74942 11.1304L4.40742 13.2384C3.97542 13.5104 3.63842 14.0544 3.58642 14.5614L3.06742 19.6594C3.03142 20.0154 3.15042 20.3594 3.39342 20.6024Z" fill="white"/>
</svg>
