<svg width="24" height="24" viewBox="0 0 24 24" fill="none" xmlns="http://www.w3.org/2000/svg">
<path fill-rule="evenodd" clip-rule="evenodd" d="M4.50271 17.7585C4.28581 17.7585 4.06641 17.6869 3.88261 17.5389C3.44721 17.1897 3.37221 16.5464 3.71511 16.1025C3.94581 15.8033 9.42991 8.74636 14.7704 5.75696C15.5191 5.33816 16.3691 5.43726 16.9351 6.01056C17.537 6.62016 17.646 7.58826 17.2062 8.42026C17.1076 8.60706 16.9294 8.83436 16.4279 9.46476C15.702 10.3777 14.4585 11.9418 13.6201 13.3446C13.8295 13.1776 14.029 13.0171 14.2019 12.8778C16.228 11.2434 17.0078 10.6813 17.7867 10.7863C18.1956 10.8412 18.5287 11.0588 18.7242 11.399C19.1067 12.0638 18.8542 12.7084 18.2447 14.2655C18.2199 14.3287 18.1944 14.3939 18.1682 14.4606C18.2784 14.3576 18.3949 14.242 18.5183 14.1117C18.903 13.705 19.5383 13.6938 19.9369 14.086C20.3357 14.478 20.3474 15.126 19.9624 15.5324C19.1171 16.426 17.5232 17.8098 16.3344 17.0369C15.9453 16.7839 15.3755 16.1381 15.9356 14.658C16.048 14.3614 16.1534 14.0892 16.2507 13.8398C15.9686 14.0616 15.6884 14.2876 15.447 14.4828C13.2965 16.2171 12.1115 17.1727 11.1457 16.376C10.2283 15.6194 10.9089 14.2141 11.3588 13.2845C12.2192 11.5082 13.8779 9.42206 14.8693 8.17596C14.9219 8.10986 14.976 8.04176 15.0289 7.97506C10.2462 10.9952 5.34331 17.302 5.29201 17.3685C5.09401 17.6246 4.79991 17.7585 4.50271 17.7585Z" fill="white" stroke="white" stroke-width="0.3" stroke-linecap="round" stroke-linejoin="round"/>
</svg>
