<svg width="24" height="24" viewBox="0 0 24 24" fill="none" xmlns="http://www.w3.org/2000/svg">
<path d="M5.91085 17.4207C6.11685 16.9097 6.18285 16.4127 6.24685 15.9327C6.37185 15.0037 6.47885 14.2007 7.57385 13.2657C8.09985 12.8167 8.66285 12.5587 9.36585 12.4507L12.0468 15.1377C12.0878 15.4517 12.0778 16.3067 11.1058 17.4747C9.68485 19.1797 6.58185 19.2897 4.86885 19.1447C5.22085 18.7507 5.59885 18.1997 5.91085 17.4207ZM16.5658 5.15968C16.7898 4.93668 17.1178 4.80468 17.4658 4.79868C17.7768 4.78968 18.0629 4.88868 18.2199 5.04568L19.6859 6.51168C19.8439 6.66868 19.9379 6.95768 19.9319 7.26568C19.9269 7.61368 19.7948 7.94168 19.5718 8.16468L13.3778 14.3577L13.3719 14.3427L10.3809 11.3447L16.5658 5.15968ZM2.90985 20.2137C3.22385 20.4467 4.45785 20.7007 5.97385 20.7007C8.10285 20.7007 10.7868 20.1997 12.2578 18.4347C12.8578 17.7147 13.1898 17.0557 13.3698 16.4877L20.6318 9.22568C21.6498 8.20768 21.7038 6.40868 20.7468 5.45068L19.2808 3.98468C18.3228 3.02668 16.5238 3.08168 15.5058 4.09968L8.61185 10.9937C8.57685 11.0277 8.54685 11.0657 8.52085 11.1047C7.80685 11.3017 7.17085 11.6377 6.59985 12.1247C5.06885 13.4337 4.89785 14.7087 4.76085 15.7337C4.70385 16.1577 4.65485 16.5247 4.51885 16.8617C4.05985 18.0047 3.44285 18.4657 3.11085 18.7127C2.88185 18.8837 2.56785 19.1167 2.56885 19.5517C2.56885 19.8107 2.69285 20.0527 2.90985 20.2137Z" fill="white"/>
</svg>
