<svg width="24" height="24" viewBox="0 0 24 24" fill="none" xmlns="http://www.w3.org/2000/svg">
<path d="M5.37869 17.2974L7.06869 18.9834L6.67069 19.3804C6.60469 19.4474 6.50269 19.4644 6.41769 19.4224L4.37269 18.6674C4.26469 18.6084 4.20169 18.5404 4.17469 18.4984L5.37869 17.2974ZM7.48869 15.1934C7.71369 14.9684 7.84369 14.6634 7.85169 14.3474L8.16169 12.1414L12.2337 16.2024L10.0247 16.5154C9.70969 16.5234 9.40669 16.6514 9.18269 16.8744L8.13069 17.9234L6.44069 16.2374L7.48869 15.1934ZM14.4057 4.91841C14.8927 4.43341 15.6847 4.43341 16.1717 4.91941L19.4707 8.20941C19.7077 8.44541 19.8377 8.76041 19.8377 9.09441C19.8377 9.42941 19.7077 9.74341 19.4707 9.98041L13.7947 15.6414L8.72569 10.5844L14.4057 4.91841ZM5.79469 20.7864C6.02569 20.8934 6.27169 20.9444 6.51469 20.9444C6.96069 20.9444 7.39969 20.7724 7.73069 20.4434L10.1697 18.0094L13.0137 17.6084C13.5987 17.6204 14.1737 17.3814 14.5927 16.9644L20.5297 11.0414C21.0507 10.5224 21.3377 9.83041 21.3377 9.09441C21.3377 8.35941 21.0507 7.66741 20.5297 7.14841L17.2307 3.85741C16.1607 2.78841 14.4177 2.78841 13.3467 3.85741L7.40369 9.78441C6.98269 10.2034 6.74969 10.7774 6.75569 11.3694L6.35869 14.1914L3.11369 17.4394C2.75769 17.7934 2.60469 18.2464 2.68169 18.7154C2.76969 19.2534 3.16469 19.7444 3.73769 20.0274L5.79469 20.7864Z" fill="white"/>
</svg>
