<svg width="24" height="24" viewBox="0 0 24 24" fill="none" xmlns="http://www.w3.org/2000/svg">
<path fill-rule="evenodd" clip-rule="evenodd" d="M18.353 10.344L13.0235 15.6725L7.54399 10.1933L12.8735 4.8648C13.3608 4.3775 14.1538 4.3775 14.641 4.8648L18.353 8.576C18.589 8.8123 18.7192 9.126 18.7192 9.46C18.7192 9.794 18.589 10.108 18.353 10.344ZM11.239 17.4583C9.63019 19.0668 7.09299 19.1458 5.58199 17.635C4.07119 16.124 4.15019 13.5865 5.75869 11.978C5.77649 11.9603 5.78999 11.9398 5.80569 11.9205L5.81099 11.926L6.48319 11.2538L11.9625 16.733L11.2902 17.4055L11.2963 17.4115C11.277 17.4273 11.2568 17.4405 11.239 17.4583ZM20.2192 9.46C20.2192 8.7255 19.933 8.0348 19.4135 7.5153L15.7017 3.804C14.6295 2.732 12.885 2.732 11.813 3.804L4.75049 10.865L4.75569 10.8705C4.73649 10.886 4.71599 10.8995 4.69819 10.9175C2.50479 13.1105 2.42579 16.5998 4.52149 18.6955C5.53799 19.7123 6.88219 20.217 8.24769 20.217C9.69729 20.217 11.1705 19.648 12.2995 18.5188C12.3173 18.501 12.3305 18.4808 12.3462 18.4618L12.3507 18.4663L13.5507 17.2663L13.554 17.2638L13.5562 17.2608L19.4135 11.4048C19.933 10.8855 20.2192 10.1948 20.2192 9.46Z" fill="white"/>
</svg>
