<svg width="24" height="24" viewBox="0 0 24 24" fill="none" xmlns="http://www.w3.org/2000/svg">
<path d="M4.58348 17.7325L5.13148 17.1825L6.81948 18.8705L6.27048 19.4185C5.96748 19.7215 5.30748 19.5935 4.85748 19.1445C4.61448 18.9015 4.45648 18.5935 4.42348 18.2985C4.40848 18.1625 4.40848 17.9075 4.58348 17.7325ZM7.27448 15.0385C7.46648 14.8455 7.59148 14.5915 7.62648 14.3215L7.91948 12.0255L11.9755 16.0815L9.68048 16.3765C9.41148 16.4105 9.15748 16.5355 8.96448 16.7275L7.88048 17.8105L6.19148 16.1215L7.27448 15.0385ZM14.1505 4.78455C14.6375 4.29655 15.4305 4.29755 15.9175 4.78455L19.2165 8.08255C19.4525 8.31755 19.5825 8.63255 19.5825 8.96655C19.5825 9.30055 19.4525 9.61455 19.2165 9.85055L13.5415 15.5245L8.47448 10.4595L14.1505 4.78455ZM3.79648 20.2055C4.37548 20.7835 5.11548 21.0805 5.81448 21.0805C6.35948 21.0805 6.87948 20.8995 7.27648 20.5315L7.27948 20.5335L9.96048 17.8525L12.7525 17.4935C13.3475 17.4995 13.9185 17.2675 14.3395 16.8475L20.2765 10.9115C20.7965 10.3915 21.0825 9.70155 21.0825 8.96655C21.0825 8.23155 20.7965 7.54155 20.2765 7.02155L16.9785 3.72355C15.9065 2.65155 14.1615 2.65255 13.0895 3.72355L7.15148 9.66055C6.73148 10.0805 6.49848 10.6565 6.50648 11.2495L6.14948 14.0415L3.48448 16.7105C3.05948 17.1595 2.85848 17.7955 2.93248 18.4645C3.00348 19.1005 3.31048 19.7185 3.79648 20.2055Z" fill="white"/>
</svg>
