<svg width="24" height="24" viewBox="0 0 24 24" fill="none" xmlns="http://www.w3.org/2000/svg">
<path d="M15.1909 4.33383L15.3249 4.45913L19.498 8.63163C20.5005 9.63383 20.5423 11.2331 19.6234 12.285L19.4981 12.419L13.2843 18.6327C11.0861 20.8309 7.5219 20.8309 5.3237 18.6327C3.1849 16.4939 3.1271 13.062 5.1503 10.8532L5.3237 10.672L11.538 4.45903C12.5404 3.45693 14.1391 3.41523 15.1909 4.33383ZM6.69 11.0728L6.2076 11.556C4.4975 13.266 4.4975 16.0388 6.2076 17.7488C7.8625 19.4037 10.5126 19.4571 12.2317 17.909L12.4004 17.7488L12.883 17.2658L6.69 11.0728Z" fill="white"/>
</svg>
