<svg width="24" height="24" viewBox="0 0 24 24" fill="none" xmlns="http://www.w3.org/2000/svg">
<path d="M14.4167 4.12766C15.4202 3.12416 17.0471 3.12406 18.0507 4.12766L19.7749 5.85186C20.7782 6.85546 20.7782 8.48236 19.7748 9.48576L9.84269 19.4174C8.36329 20.8973 5.96399 20.8973 4.48549 19.4176C3.00499 17.9383 3.00479 15.539 4.48489 14.0593L14.4167 4.12766ZM17.1668 5.01156C16.6514 4.49616 15.8159 4.49616 15.3006 5.01156L8.85899 11.452L9.97809 12.571L8.64899 13.899L10.0094 15.2595L8.64259 16.6263L7.28199 15.266L5.96399 16.584L7.32399 17.9444L6.18709 19.0825C6.86709 19.3658 7.6455 19.3401 8.3079 19.0055L7.30099 17.9983L8.66779 16.6317L9.76399 17.728L11.082 16.409L9.98669 15.3126L11.3532 13.9461L12.449 15.042L18.8909 8.60186C19.3718 8.12096 19.4039 7.36106 18.9871 6.84286L18.8909 6.73566L17.1668 5.01156ZM4.89669 15.5942C4.56219 16.2566 4.53659 17.035 4.81989 17.7152L5.91899 16.616L4.89669 15.5942ZM7.49299 12.819L6.17399 14.138L7.28499 15.249L8.60399 13.93L7.49299 12.819Z" fill="white"/>
</svg>
