<svg width="24" height="24" viewBox="0 0 24 24" fill="none" xmlns="http://www.w3.org/2000/svg">
<path d="M5.07836 14.7179C5.08836 14.6589 5.16236 14.5399 5.20636 14.5079L9.46036 11.8249L12.1784 14.5429L9.49736 18.7939C9.46336 18.8409 9.34536 18.9139 9.29036 18.9239L5.59136 19.2949L7.27736 17.6099C7.56736 17.6399 7.86836 17.5489 8.09036 17.3259C8.48136 16.9369 8.48136 16.3029 8.09136 15.9119C7.70036 15.5219 7.06636 15.5219 6.67636 15.9119C6.45436 16.1349 6.36336 16.4359 6.39336 16.7259L4.70236 18.4169L5.07836 14.7179ZM16.0744 4.92493C16.5784 4.41993 17.4244 4.50793 17.7274 4.80993L19.1934 6.27693C19.4954 6.57893 19.5834 7.42593 19.0784 7.92993L13.3764 13.6329C13.3534 13.6069 13.3344 13.5769 13.3094 13.5529L10.4514 10.6949C10.4264 10.6689 10.3974 10.6499 10.3704 10.6269L16.0744 4.92493ZM3.39336 20.6029C3.60836 20.8179 3.90136 20.9359 4.21136 20.9359C4.25236 20.9359 4.29436 20.9339 4.33536 20.9289L9.44036 20.4159C9.94836 20.3649 10.4924 20.0289 10.7644 19.5979L12.8724 16.2539C12.8794 16.2479 12.8864 16.2439 12.8914 16.2389L20.1404 8.98993C21.1574 7.97293 21.2114 6.17393 20.2544 5.21593L18.7874 3.74893C17.8304 2.79193 16.0314 2.84593 15.0134 3.86393L7.76536 11.1119C7.75936 11.1169 7.75536 11.1239 7.74936 11.1309L4.40636 13.2389C3.97536 13.5109 3.63836 14.0549 3.58636 14.5619L3.06736 19.6589C3.03136 20.0149 3.15036 20.3589 3.39336 20.6029Z" fill="white"/>
</svg>
