<svg width="24" height="24" viewBox="0 0 24 24" fill="none" xmlns="http://www.w3.org/2000/svg">
<path fill-rule="evenodd" clip-rule="evenodd" d="M8.65436 8.55801L13.6663 3.54611C14.5648 2.64761 16.1215 2.62071 16.9529 3.45211L18.7365 5.23571C19.5664 6.06731 19.5401 7.62321 18.6419 8.52281L13.4945 13.6694L12.4865 14.6773L11.7306 15.4331L11.7182 15.4207C10.4433 16.4747 7.84746 17.3798 6.36466 16.8556L5.94116 17.2784C5.64806 17.5711 5.17316 17.5707 4.88056 17.2776C4.61446 17.0111 4.59056 16.5944 4.80866 16.301L4.88136 16.2169L5.31776 15.7811C4.82506 14.292 5.72326 11.7333 6.76706 10.4697L6.75486 10.4575L6.99566 10.2167L7.00126 10.2108L8.65436 8.55801ZM7.83736 11.5399C7.08416 12.5791 6.32936 14.9493 6.78386 15.4038C7.23866 15.8586 9.60896 15.104 10.648 14.3505L7.83736 11.5399ZM8.87606 10.4574L11.7305 13.3118L17.5809 7.46261C17.8751 7.16791 17.9083 6.63251 17.7293 6.36251L17.6753 6.29581L15.8923 4.51281C15.655 4.27551 15.0477 4.28601 14.7269 4.60681L9.71447 9.61801L8.87606 10.4574ZM19.25 19.1508C19.6634 19.1508 19.9985 19.4859 19.9985 19.8993C19.9985 20.2782 19.7169 20.5914 19.3516 20.6409L19.25 20.6478H4.74996C4.33656 20.6478 4.00146 20.3127 4.00146 19.8993C4.00146 19.5203 4.28306 19.2072 4.64836 19.1576L4.74996 19.1508H19.25Z" fill="white"/>
</svg>
