<svg width="24" height="24" viewBox="0 0 24 24" fill="none" xmlns="http://www.w3.org/2000/svg">
<path d="M6.33111 14.4418C6.45811 14.0588 6.82011 13.5038 7.19611 13.0968L10.9031 16.8028C10.4971 17.1798 9.94011 17.5418 9.55811 17.6698L6.63811 18.6418L5.35811 17.3618L6.33111 14.4418ZM15.5021 4.78576C16.0071 4.28176 16.8521 4.36976 17.1551 4.67076L19.3291 6.84476C19.6311 7.14776 19.7191 7.99376 19.2141 8.49876L11.9661 15.7468L8.25411 12.0338L15.5021 4.78576ZM3.92511 21.0738C4.03111 21.0738 4.13811 21.0568 4.24311 21.0218L10.0331 19.0918C10.7201 18.8628 11.4741 18.3278 11.9641 17.8648L11.9661 17.8678L12.0591 17.7748L12.0661 17.7678L12.0671 17.7658L20.2751 9.55876C21.2921 8.54176 21.3471 6.74176 20.3891 5.78476L18.2161 3.61076C17.2581 2.65276 15.4591 2.70776 14.4411 3.72476L6.23211 11.9338L6.13311 12.0338L6.13511 12.0368C5.67211 12.5268 5.13711 13.2808 4.90811 13.9678L2.97811 19.7558C2.85711 20.1188 2.95011 20.5098 3.22011 20.7798C3.41111 20.9718 3.66411 21.0738 3.92511 21.0738Z" fill="white"/>
</svg>
