<svg width="24" height="24" viewBox="0 0 24 24" fill="none" xmlns="http://www.w3.org/2000/svg">
<path d="M16.7742 3.94502C18.4095 3.67372 19.9233 4.93552 19.9233 6.61952L19.9228 11.3731L21.7312 11.3735C22.0764 11.3735 22.3562 11.6533 22.3562 11.9985C22.3562 12.3123 22.1249 12.572 21.8236 12.6167L21.7312 12.6235L19.9228 12.6231L19.9233 17.3778C19.9233 19.0617 18.4096 20.3233 16.7908 20.0558L16.6286 20.0239L6.3645 18.0001C5.026 17.6951 4.0765 16.5048 4.0765 15.132L4.0758 12.6231L2.2688 12.6235C1.9236 12.6235 1.6438 12.3436 1.6438 11.9985C1.6438 11.6847 1.8751 11.4249 2.1764 11.3802L2.2688 11.3735L4.0758 11.3731L4.0765 8.86512C4.0765 7.55202 4.9452 6.40592 6.208 6.03812L6.3826 5.99282L16.7742 3.94502ZM18.6728 12.6231H5.3258L5.3265 15.132C5.3265 15.8721 5.8064 16.52 6.4858 16.7395L6.6243 16.7776L16.8884 18.8013C17.8025 19.0098 18.6733 18.3153 18.6733 17.3778L18.6728 12.6231ZM18.6733 6.61952C18.6733 5.68192 17.8025 4.98732 16.8703 5.19982L6.6424 7.21542C5.8726 7.39102 5.3265 8.07562 5.3265 8.86512L5.3258 11.3731H18.6728L18.6733 6.61952Z" fill="white"/>
</svg>
