<svg width="24" height="24" viewBox="0 0 24 24" fill="none" xmlns="http://www.w3.org/2000/svg">
<path d="M12.019 2.375C12.3328 2.375 12.5926 2.6063 12.6372 2.9077L12.644 3L12.6439 4.63L15.5207 4.6307C16.8063 4.6307 17.9286 5.4813 18.2879 6.7131L18.3321 6.8834L20.3281 16.5608C20.59 18.1608 19.3549 19.6404 17.7069 19.6404L12.6439 19.64L12.644 21.2711C12.644 21.6163 12.3642 21.8961 12.019 21.8961C11.7052 21.8961 11.4454 21.6648 11.4008 21.3634L11.394 21.2711L11.3939 19.64L6.331 19.6404C4.683 19.6404 3.4479 18.1608 3.7074 16.5722L3.7396 16.4076L5.7086 6.8707C6.0077 5.5604 7.1732 4.6307 8.5173 4.6307L11.3939 4.63L11.394 3C11.394 2.6549 11.6738 2.375 12.019 2.375ZM11.3939 5.88L8.5173 5.8807C7.7565 5.8807 7.0966 6.4071 6.9301 7.1361L4.961 16.6729C4.7604 17.5525 5.4287 18.3904 6.331 18.3904L11.3939 18.39V5.88ZM15.5207 5.8807L12.6439 5.88V18.39L17.7069 18.3904C18.5662 18.3904 19.2134 17.6304 19.0974 16.7873L19.0742 16.6603L17.1107 7.1488C16.9414 6.4071 16.2815 5.8807 15.5207 5.8807Z" fill="white"/>
</svg>
