<svg width="24" height="24" viewBox="0 0 24 24" fill="none" xmlns="http://www.w3.org/2000/svg">
<path d="M11.9969 10.3704C13.0969 10.3594 14.0079 11.6334 14.4769 12.2334C15.3009 13.2894 16.7219 14.3314 17.4939 15.2674C18.1149 16.0194 18.0459 17.3834 17.4399 18.1924C16.8639 18.9614 15.8059 19.3544 14.8239 19.2064C13.0429 18.9384 10.9519 18.9384 9.1709 19.2064C8.1889 19.3544 7.1299 18.9614 6.5539 18.1924C5.9479 17.3834 5.8949 16.0324 6.4999 15.2674C7.3119 14.2424 8.9119 13.0714 9.5189 12.2334C9.9639 11.6164 10.8979 10.3594 11.9969 10.3704ZM5.0213 8.95978C6.1693 8.77278 6.7923 9.62878 6.9773 10.7778C7.1643 11.9268 6.8433 12.9348 5.6953 13.1198C4.5453 13.3068 3.4633 12.5258 3.2773 11.3768C3.0913 10.2278 3.8723 9.14578 5.0213 8.95978ZM17.0225 10.7778C17.2085 9.62878 17.8295 8.77278 18.9795 8.95978C20.1275 9.14578 20.9095 10.2278 20.7225 11.3768C20.5365 12.5258 19.4545 13.3068 18.3055 13.1198C17.1565 12.9348 16.8365 11.9268 17.0225 10.7778ZM7.3161 6.69688C7.5521 5.41488 8.5341 4.56588 9.8161 4.80288C11.0981 5.03888 11.4321 6.17488 11.1971 7.45788C10.9611 8.73988 10.2441 9.43388 8.9621 9.19688C7.6781 8.96088 7.0801 7.97988 7.3161 6.69688ZM14.1849 4.80208C15.4669 4.56608 16.4479 5.41508 16.6839 6.69708C16.9199 7.98008 16.3209 8.96108 15.0389 9.19708C13.7569 9.43308 13.0399 8.74008 12.8039 7.45808C12.5669 6.17508 12.9009 5.03908 14.1849 4.80208Z" fill="white"/>
</svg>
