<svg width="24" height="24" viewBox="0 0 24 24" fill="none" xmlns="http://www.w3.org/2000/svg">
<path fill-rule="evenodd" clip-rule="evenodd" d="M6.2086 3.69245C6.6036 3.70975 7.0236 3.86715 7.5804 4.42495L8.9869 5.83045C9.5447 6.38935 9.7021 6.80935 9.7206 7.20325C9.7379 7.59395 9.6207 8.00205 9.1182 8.50675L8.5517 9.07325C8.0438 9.58115 7.9233 9.98925 7.944 10.3832C7.9613 10.7055 8.1219 11.0279 8.1415 11.0637C8.4334 11.6291 9.9257 14.2706 13.0958 16.0852C13.1924 16.1481 13.6189 16.3761 13.9423 16.3816C14.3373 16.387 14.7432 16.2817 15.2512 15.7727L15.8188 15.2073C16.3234 14.7048 16.7304 14.5865 17.1222 14.605C17.5161 14.6223 17.9372 14.7808 18.4951 15.3386L19.8994 16.7451C20.4583 17.3019 20.6157 17.7219 20.6342 18.1169C20.6526 18.5087 20.5354 18.9157 20.0318 19.4193L20.0275 19.4236C18.4202 21.0287 16.8921 21.3911 15.3076 21.3162C14.3178 21.2696 13.2868 21.0058 12.1049 20.2689C12.1028 20.2711 11.9183 20.1496 11.8282 20.0877C11.7707 20.0486 11.711 20.0075 11.6513 19.9662C6.6416 16.451 4.05 12.2097 4.05 12.2097C3.3174 11.0333 3.0558 10.0055 3.0092 9.01895C2.9343 7.43335 3.2957 5.90425 4.8997 4.29905L4.9019 4.29795C5.4098 3.79005 5.8157 3.67285 6.2086 3.69245Z" fill="white"/>
</svg>
