<svg width="24" height="24" viewBox="0 0 24 24" fill="none" xmlns="http://www.w3.org/2000/svg">
<path fill-rule="evenodd" clip-rule="evenodd" d="M15.6112 14.8619L15.0892 15.3829C14.6212 15.8519 14.2472 15.9499 13.8822 15.9439C13.5852 15.9389 13.1912 15.7289 13.1032 15.6709C10.1812 13.9989 8.8062 11.5649 8.5382 11.0449C8.5192 11.0109 8.3722 10.7139 8.3562 10.4169C8.3372 10.0529 8.4472 9.67785 8.9162 9.20985L9.4372 8.68785C9.9012 8.22285 10.0082 7.84685 9.9932 7.48685C9.9752 7.12385 9.8312 6.73685 9.3172 6.22185L8.0212 4.92685C7.5072 4.41285 7.1212 4.26785 6.7572 4.25185C6.3952 4.23385 6.0212 4.34185 5.5552 4.80585L5.5522 4.80985L5.5502 4.81085C4.0732 6.29085 3.7402 7.69985 3.8082 9.15985C3.8512 10.0679 4.0922 11.0159 4.7672 12.0999C4.7672 12.0999 7.1562 16.0079 11.7722 19.2479C11.8272 19.2859 11.8822 19.3229 11.9352 19.3589C12.0172 19.4159 12.1872 19.5279 12.1902 19.5259C13.2782 20.2049 14.2282 20.4479 15.1402 20.4919C16.6002 20.5599 18.0082 20.2259 19.4892 18.7499L19.4902 18.7479L19.4942 18.7439C19.9582 18.2789 20.0662 17.9049 20.0482 17.5429C20.0312 17.1789 19.8862 16.7919 19.3722 16.2789L18.0772 14.9829C17.5642 14.4689 17.1752 14.3239 16.8122 14.3069C16.4522 14.2909 16.0772 14.3989 15.6112 14.8619Z" stroke="white" stroke-width="1.5" stroke-linecap="round" stroke-linejoin="round"/>
</svg>
