<svg width="24" height="24" viewBox="0 0 24 24" fill="none" xmlns="http://www.w3.org/2000/svg">
<path d="M14.1617 8.10106C13.4177 8.84513 11.2062 9.10106 11.2062 9.10106L11.6617 5.10106L14.2062 2.10106C14.2062 2.10106 14.7399 2.25731 15.1617 3.10104C15.6617 4.10106 14.9058 7.35699 14.1617 8.10106Z" fill="white" fill-opacity="0.6"/>
<path d="M14.1172 16.1011C13.3732 15.357 11.1617 15.1011 11.1617 15.1011L11.6172 19.1011L14.1617 22.1011C14.1617 22.1011 14.6954 21.9448 15.1172 21.1011C15.6172 20.1011 14.8613 16.8451 14.1172 16.1011Z" fill="white" fill-opacity="0.6"/>
<path d="M8.66171 17.1011C7.66173 13.6011 7.76914 8.60106 9.1617 4.60106C10.3352 1.23024 14.1618 2.10107 14.2062 2.10106C11.2062 6.10106 8.66177 13.6011 14.1617 22.1011C10.1618 22.6011 9.49724 20.0254 8.66171 17.1011Z" fill="white"/>
</svg>
