<svg width="24" height="24" viewBox="0 0 24 24" fill="none" xmlns="http://www.w3.org/2000/svg">
<path fill-rule="evenodd" clip-rule="evenodd" d="M8.40011 3.7002H15.6001C15.8627 3.7002 16.1227 3.75192 16.3654 3.85241C16.608 3.95291 16.8284 4.10021 17.0141 4.2859C17.1998 4.47159 17.3471 4.69204 17.4476 4.93465C17.5481 5.17727 17.5998 5.4373 17.5998 5.69991V18.2999C17.5998 18.5625 17.5481 18.8226 17.4476 19.0652C17.3471 19.3078 17.1998 19.5282 17.0141 19.7139C16.8284 19.8996 16.608 20.0469 16.3654 20.1474C16.1227 20.2479 15.8627 20.2996 15.6001 20.2996H8.40011C7.86975 20.2996 7.36111 20.0889 6.98609 19.7139C6.61107 19.3389 6.40039 18.8303 6.40039 18.2999V5.69991C6.40039 5.16955 6.61107 4.66092 6.98609 4.2859C7.36111 3.91088 7.86975 3.7002 8.40011 3.7002Z" stroke="white" stroke-width="1.75" stroke-linecap="round" stroke-linejoin="round"/>
<path fill-rule="evenodd" clip-rule="evenodd" d="M11.1001 6.30039C11.1001 6.0617 11.1949 5.83278 11.3637 5.66399C11.5325 5.49521 11.7614 5.40039 12.0001 5.40039C12.2388 5.40039 12.4677 5.49521 12.6365 5.66399C12.8053 5.83278 12.9001 6.0617 12.9001 6.30039C12.9001 6.53909 12.8053 6.768 12.6365 6.93679C12.4677 7.10557 12.2388 7.20039 12.0001 7.20039C11.7614 7.20039 11.5325 7.10557 11.3637 6.93679C11.1949 6.768 11.1001 6.53909 11.1001 6.30039Z" fill="white"/>
</svg>
