<svg width="24" height="24" viewBox="0 0 24 24" fill="none" xmlns="http://www.w3.org/2000/svg">
<path d="M16.529 13.916C15.265 13.117 13.671 12.622 11.94 12.622C7.832 12.622 4.5 15.412 4.5 18.42V19.234C4.5 19.844 5.047 20.337 5.722 20.337H18.157C18.326 20.337 18.487 20.306 18.633 20.25M15.5221 6.582C15.5221 8.561 13.9181 10.164 11.9391 10.164C9.9621 10.164 8.3571 8.561 8.3571 6.582C8.3571 4.603 9.9621 3 11.9391 3C13.9181 3 15.5221 4.603 15.5221 6.582ZM20.4538 17.0371L19.9888 17.0361C19.5708 17.0361 19.3598 16.9131 19.2008 16.7481C19.0698 16.6131 18.9878 16.3451 18.9748 16.2781C18.4168 14.2291 18.8898 12.5311 19.0018 12.1791C19.0088 12.1561 19.0748 11.9581 19.2008 11.8181C19.3538 11.6471 19.5708 11.5291 19.9888 11.5301H20.4538C20.8678 11.5291 21.0838 11.4091 21.2368 11.2421C21.3918 11.0721 21.4998 10.8351 21.4998 10.3761V9.2211C21.4998 8.7631 21.3918 8.5241 21.2368 8.3551C21.0838 8.1861 20.8688 8.0671 20.4538 8.0671H20.4508L20.4498 8.0661C19.1308 8.0671 18.3538 8.5481 17.7328 9.2291C17.3468 9.6541 17.0318 10.1841 16.8498 10.9691C16.8498 10.9691 16.1718 13.7771 16.7858 17.2801C16.7928 17.3211 16.8008 17.3631 16.8088 17.4031C16.8198 17.4651 16.8458 17.5911 16.8478 17.5911C17.0308 18.3791 17.3458 18.9111 17.7328 19.3371C18.3538 20.0191 19.1308 20.4991 20.4498 20.5001H20.4538C20.8688 20.5001 21.0838 20.3811 21.2368 20.2111C21.3918 20.0421 21.4998 19.8041 21.4988 19.3461L21.4998 18.1901C21.4998 17.7321 21.3918 17.4941 21.2368 17.3251C21.0838 17.1561 20.8678 17.0381 20.4538 17.0371Z" stroke="white" stroke-width="1.5" stroke-linecap="round" stroke-linejoin="round"/>
</svg>
