<svg width="24" height="24" viewBox="0 0 24 24" fill="none" xmlns="http://www.w3.org/2000/svg">
<path d="M4.25024 20.4998C4.44224 20.4998 4.63424 20.4267 4.78024 20.2797L10.2302 14.8308L13.3542 17.9728C13.5342 18.1298 13.7932 18.1397 13.9482 17.9847C14.0302 17.9017 14.3212 16.6247 14.7042 14.3857L18.7522 9.51675L19.2202 9.98475C19.3662 10.1308 19.5582 10.2048 19.7502 10.2048C19.9422 10.2048 20.1342 10.1308 20.2802 9.98475C20.5732 9.69175 20.5732 9.21675 20.2802 8.92375L15.0762 3.71975C14.7832 3.42675 14.3082 3.42675 14.0152 3.71975C13.7222 4.01275 13.7222 4.48675 14.0152 4.77975L14.4422 5.20775L9.61624 9.26875C8.41524 9.40775 6.12024 9.94575 6.03924 10.0278C5.88424 10.1848 5.89424 10.4447 6.05224 10.6267L9.17324 13.7668L3.72024 19.2198C3.42724 19.5128 3.42724 19.9867 3.72024 20.2797C3.86624 20.4267 4.05824 20.4998 4.25024 20.4998Z" fill="white"/>
</svg>
