<svg width="24" height="24" viewBox="0 0 24 24" fill="none" xmlns="http://www.w3.org/2000/svg">
<path d="M7.46875 10.632C8.16575 10.468 9.21175 10.249 9.88575 10.171L10.1098 10.145L15.1308 5.917C15.1348 5.914 15.1367 5.91 15.1407 5.906L18.0757 8.841C18.0377 8.871 18.0027 8.905 17.9707 8.943L13.8428 13.876L13.8078 14.076C13.6058 15.256 13.4498 16.045 13.3428 16.541L7.46875 10.632ZM4.24975 20.5C4.44175 20.5 4.63375 20.426 4.78075 20.28L9.87775 15.182L12.7558 18.078L12.7948 18.115C13.0228 18.313 13.3037 18.412 13.5817 18.412C13.8727 18.412 14.1598 18.304 14.3758 18.088C14.5318 17.929 14.6927 17.766 15.2517 14.528L19.1207 9.906C19.1247 9.902 19.1258 9.898 19.1288 9.894L19.2198 9.985C19.3658 10.131 19.5578 10.204 19.7498 10.204C19.9418 10.204 20.1337 10.131 20.2807 9.985C20.5727 9.692 20.5727 9.217 20.2807 8.924L15.0758 3.719C14.7828 3.427 14.3078 3.427 14.0148 3.719C13.7218 4.012 13.7218 4.487 14.0148 4.78L14.0778 4.843L9.47575 8.717C8.70275 8.84 6.27775 9.253 5.92775 9.607C5.51075 10.027 5.50175 10.72 5.90675 11.185L8.82075 14.118L3.71975 19.219C3.42675 19.512 3.42675 19.987 3.71975 20.28C3.86575 20.426 4.05775 20.5 4.24975 20.5Z" fill="white"/>
</svg>
