<svg width="24" height="24" viewBox="0 0 24 24" fill="none" xmlns="http://www.w3.org/2000/svg">
<path fill-rule="evenodd" clip-rule="evenodd" d="M6.043 16.2715C6.041 16.2815 6.039 16.2915 6.038 16.2995C6.018 16.5425 6 16.9435 6 17.1785V18.7505C6 19.1635 6.337 19.5005 6.75 19.5005H16.854C17.267 19.5005 17.604 19.1635 17.604 18.7505V9.97447C17.604 9.56047 17.267 9.22447 16.854 9.22447H14.824C14.502 9.22947 14.021 9.24447 13.469 8.92947C13.091 8.71247 12.831 8.37347 12.738 7.97447C12.663 7.65447 12.662 7.14347 13.078 6.52147C13.187 6.36047 13.299 6.22247 13.406 6.09147C13.644 5.80147 13.706 5.71547 13.706 5.48047C13.706 5.03547 13.545 4.67547 13.228 4.41047C12.804 4.05647 12.136 3.92147 11.442 4.04647C10.741 4.17447 10.218 4.75947 10.198 5.43847C10.189 5.74647 10.266 5.84147 10.52 6.15647C10.583 6.23447 10.648 6.31647 10.716 6.40547C11.171 7.00647 11.152 7.52847 11.056 7.86047C10.835 8.62247 10.071 8.94347 9.92 9.00047C9.578 9.12747 9.049 9.22447 8.688 9.22447H6.75C6.337 9.22447 6 9.56047 6 9.97447V11.4325C6 11.6005 6.015 11.9485 6.033 12.2035C6.036 12.2335 6.047 12.2775 6.06 12.3145C6.145 12.2865 6.306 12.2125 6.558 12.0225L6.75 11.8705C7.092 11.5935 7.517 11.2495 8.286 11.2495C9.1 11.2495 9.831 11.5745 10.347 12.1645C10.943 12.8475 11.206 13.8315 11.066 14.8625C10.87 16.3025 9.72 17.3665 8.332 17.3925C7.525 17.3815 7.07 17.0325 6.716 16.7335C6.642 16.6705 6.564 16.6055 6.479 16.5405C6.272 16.3815 6.129 16.3065 6.043 16.2715ZM16.854 21.0005H6.75C5.51 21.0005 4.5 19.9905 4.5 18.7505V17.1785C4.5 16.9105 4.52 16.4515 4.545 16.1605C4.582 15.7155 4.828 15.1055 5.399 14.8525C5.96 14.6015 6.631 14.7685 7.389 15.3475C7.494 15.4275 7.591 15.5095 7.683 15.5865C7.98 15.8375 8.007 15.8855 8.306 15.8925C8.938 15.8805 9.485 15.3505 9.58 14.6605C9.662 14.0585 9.529 13.5085 9.217 13.1505C8.984 12.8835 8.671 12.7495 8.286 12.7495C8.057 12.7495 7.986 12.7985 7.693 13.0365L7.463 13.2185C6.682 13.8105 5.992 13.9715 5.417 13.7115C4.633 13.3555 4.545 12.4165 4.537 12.3095C4.517 12.0205 4.5 11.6245 4.5 11.4325V9.97447C4.5 8.73347 5.51 7.72447 6.75 7.72447H8.688C8.87 7.72447 9.221 7.66047 9.394 7.59547C9.469 7.56447 9.574 7.49247 9.61 7.44547C9.601 7.43847 9.579 7.38847 9.52 7.31047L9.353 7.09947C9.034 6.70447 8.672 6.25647 8.698 5.39347C8.74 4.01247 9.78 2.82547 11.173 2.57147C12.319 2.36347 13.416 2.61447 14.189 3.25947C14.845 3.80647 15.206 4.59547 15.206 5.48047C15.206 6.26147 14.852 6.69447 14.566 7.04247C14.487 7.13847 14.403 7.23947 14.324 7.35747C14.196 7.54747 14.2 7.63747 14.2 7.63747C14.399 7.73347 14.544 7.73247 14.751 7.72547L14.945 7.72047L16.854 7.72447C18.094 7.72447 19.104 8.73347 19.104 9.97447V18.7505C19.104 19.9905 18.094 21.0005 16.854 21.0005Z" fill="white"/>
</svg>
