<svg width="24" height="24" viewBox="0 0 24 24" fill="none" xmlns="http://www.w3.org/2000/svg">
<path d="M6.94824 20.7495H17.0522C18.1562 20.7495 19.0522 19.8545 19.0522 18.7495V10.4735C19.0522 9.36848 18.1562 8.47348 17.0522 8.47348H16.1372C15.8622 8.47348 15.4242 8.47248 15.1622 8.47048L15.0042 8.47348C14.7582 8.47848 14.4272 8.49948 14.0392 8.27648C13.6572 8.05848 13.4582 7.59748 13.8992 6.93948C14.2492 6.41848 14.6542 6.18248 14.6542 5.48048C14.6542 3.88748 13.1682 3.00548 11.5062 3.30948C10.4752 3.49748 9.67724 4.36848 9.64624 5.41648C9.62524 6.12248 9.95024 6.37448 10.3162 6.85648C11.0622 7.84348 9.85324 8.29748 9.85324 8.29748C9.59624 8.39448 9.16024 8.47348 8.88524 8.47348H6.94824C5.84324 8.47348 4.94824 9.36848 4.94824 10.4735V10.6045V11.4325C4.94824 11.6115 4.96424 11.9825 4.98324 12.2575C4.98324 12.2575 5.09624 13.8395 6.70824 12.6215C7.14124 12.2925 7.37424 11.9995 7.98424 11.9995C9.41024 11.9995 10.2222 13.2855 10.0212 14.7625C9.88124 15.7915 9.05624 16.6235 8.01724 16.6425C7.34124 16.6535 7.10124 16.3015 6.63124 15.9415C5.11124 14.7805 4.99024 16.2235 4.99024 16.2235C4.96724 16.4975 4.94824 16.9275 4.94824 17.1785V18.1355V18.7495C4.94824 19.8545 5.84324 20.7495 6.94824 20.7495Z" fill="white"/>
</svg>
