<svg width="24" height="24" viewBox="0 0 24 24" fill="none" xmlns="http://www.w3.org/2000/svg">
<path d="M15.5315 14.3181V13.4842C15.5315 12.1211 16.6447 11.0124 18.0131 11.0124C18.2086 11.0124 18.3978 11.0374 18.5803 11.0802V10.2838C18.5803 9.07014 17.5926 8.08664 16.3744 8.08664H15.3658C15.0625 8.08664 14.5786 8.08465 14.2904 8.08275C14.2904 8.08275 14.2904 8.08274 14.1153 8.08664C13.8446 8.09294 13.4798 8.11544 13.0513 7.87104C12.6302 7.63074 12.411 7.12394 12.8966 6.40164C13.2826 5.82924 13.7296 5.56914 13.7296 4.79884C13.7296 3.04844 12.0906 2.07974 10.2575 2.41264C9.12041 2.61944 8.24141 3.57684 8.20631 4.72734C8.18291 5.50354 8.54161 5.77984 8.94531 6.31104C9.76751 7.39454 8.43491 7.89324 8.43491 7.89324C8.15121 7.99954 7.67061 8.08664 7.36731 8.08664H5.23031C4.01211 8.08664 3.02441 9.07014 3.02441 10.2838V10.4285C3.02441 10.7306 3.02441 11.1393 3.02441 11.3368C3.02441 11.5339 3.04241 11.9421 3.06391 12.2434C3.06391 12.2434 3.18851 13.9811 4.96561 12.6435C5.44371 12.2826 5.70071 11.9602 6.37271 11.9602C7.94601 11.9602 8.84161 13.373 8.61991 14.9948C8.46521 16.1258 7.55531 17.0398 6.40911 17.0601C5.66411 17.0736 5.39881 16.6863 4.88071 16.2919C3.20371 15.0159 3.07051 16.6007 3.07051 16.6007C3.04511 16.9017 3.02441 17.3738 3.02441 17.6501C3.02441 17.9261 3.02441 18.3993 3.02441 18.7014V19.3762C3.02441 20.5896 4.01211 21.5734 5.23031 21.5734H12.9029C12.7808 21.2812 12.7124 20.961 12.7124 20.6251C12.7124 19.7404 13.1814 18.9629 13.8848 18.5259L13.8573 18.4974C12.9109 17.5139 12.9443 15.9462 13.9317 15.0028C14.3682 14.5867 14.9321 14.3461 15.5315 14.3181Z" fill="white"/>
<path d="M20.8236 19.801H18.538H18.457C18.4867 19.7892 18.5154 19.7744 18.5444 19.7604C18.6709 19.698 18.7901 19.6184 18.889 19.5154L20.9656 17.3575C21.2816 17.029 21.2703 16.5072 20.9408 16.1924C20.6107 15.8774 20.0871 15.8887 19.7711 16.2171L18.8394 17.185V13.4841C18.8394 13.2487 18.7393 13.0373 18.5799 12.8873C18.4319 12.7472 18.2328 12.6602 18.0122 12.6602C17.5556 12.6602 17.185 13.029 17.185 13.4841V17.1932L16.2458 16.2169C15.9293 15.8884 15.4057 15.8777 15.0762 16.1922C14.7461 16.5069 14.7354 17.0287 15.0514 17.3572L17.1279 19.5148C17.2495 19.6417 17.3984 19.737 17.5597 19.8007H15.1934C14.7367 19.8007 14.3662 20.1696 14.3662 20.6247C14.3662 21.0798 14.7367 21.4486 15.1934 21.4486H17.0998H20.8233C21.2799 21.4486 21.6505 21.0798 21.6505 20.6247C21.6505 20.1696 21.2802 19.801 20.8236 19.801Z" fill="white"/>
</svg>
