<svg width="24" height="24" viewBox="0 0 24 24" fill="none" xmlns="http://www.w3.org/2000/svg">
<path d="M7.9541 3.83887L8.2851 20.9549" stroke="white" stroke-width="1.5" stroke-linecap="round" stroke-linejoin="round"/>
<path d="M2.89014 8.91016H13.0331" stroke="white" stroke-width="1.5" stroke-linecap="round" stroke-linejoin="round"/>
<path d="M4.37549 12.4962L11.5475 5.32422" stroke="white" stroke-width="1.5" stroke-linecap="round" stroke-linejoin="round"/>
<path d="M11.5475 12.4962L4.37549 5.32422" stroke="white" stroke-width="1.5" stroke-linecap="round" stroke-linejoin="round"/>
<path d="M14.7573 6.23157C14.6563 6.76057 15.1123 7.21657 15.6413 7.11557C15.9363 7.05857 16.1743 6.82057 16.2293 6.52557C16.3293 5.99757 15.8753 5.54457 15.3473 5.64357C15.0523 5.69957 14.8133 5.93657 14.7573 6.23157Z" fill="white"/>
<path d="M18.6658 3.94549C18.7648 3.41749 18.3118 2.96449 17.7838 3.06349C17.4888 3.11849 17.2498 3.35649 17.1938 3.65149C17.0928 4.18049 17.5488 4.63649 18.0778 4.53549C18.3728 4.47849 18.6108 4.24049 18.6658 3.94549Z" fill="white"/>
<path d="M18.6658 9.05389C18.7648 8.52589 18.3118 8.07289 17.7838 8.17189C17.4888 8.22689 17.2498 8.46489 17.1938 8.75989C17.0928 9.28889 17.5488 9.74489 18.0778 9.64389C18.3728 9.58689 18.6108 9.34889 18.6658 9.05389Z" fill="white"/>
<path d="M14.7573 11.3439C14.6563 11.8729 15.1123 12.3289 15.6413 12.2279C15.9363 12.1709 16.1743 11.9329 16.2293 11.6379C16.3293 11.1099 15.8753 10.6569 15.3473 10.7559C15.0523 10.8109 14.8133 11.0489 14.7573 11.3439Z" fill="white"/>
<path d="M21.1024 6.52677C21.2024 5.99877 20.7484 5.54377 20.2194 5.64377C19.9244 5.69977 19.6864 5.93677 19.6304 6.23277C19.5294 6.76077 19.9844 7.21577 20.5134 7.11577C20.8084 7.05977 21.0464 6.82177 21.1024 6.52677Z" fill="white"/>
<path d="M18.6658 14.4338C18.7648 13.9058 18.3118 13.4528 17.7838 13.5518C17.4888 13.6078 17.2498 13.8448 17.1938 14.1398C17.0928 14.6698 17.5488 15.1258 18.0778 15.0238C18.3728 14.9668 18.6108 14.7288 18.6658 14.4338Z" fill="white"/>
<path fill-rule="evenodd" clip-rule="evenodd" d="M21.1024 11.6391C21.2024 11.1111 20.7484 10.6561 20.2194 10.7561C19.9244 10.8121 19.6864 11.0491 19.6304 11.3451C19.5294 11.8731 19.9844 12.3281 20.5134 12.2281C20.8084 12.1721 21.0464 11.9341 21.1024 11.6391Z" fill="white"/>
</svg>
