<svg width="24" height="24" viewBox="0 0 24 24" fill="none" xmlns="http://www.w3.org/2000/svg">
<path d="M13.2046 14.709H7.70459C7.15159 14.709 6.70459 14.261 6.70459 13.709V8.87402C6.70459 8.32202 7.15159 7.87402 7.70459 7.87402H13.2046C13.7566 7.87402 14.2046 8.32202 14.2046 8.87402V13.709C14.2046 14.261 13.7566 14.709 13.2046 14.709Z" fill="white"/>
<path d="M17.7495 21H6.74951C4.95531 21 3.49951 19.5442 3.49951 17.75V6.75C3.49951 4.9551 4.95501 3.5 6.74951 3.5H17.7495C19.5447 3.5 20.9995 4.9548 20.9995 6.75V17.75C20.9995 19.5445 19.5444 21 17.7495 21ZM17.7495 19.5C18.7159 19.5 19.4995 18.7162 19.4995 17.75V6.75C19.4995 5.7832 18.7163 5 17.7495 5H6.74951C5.78331 5 4.99951 5.7836 4.99951 6.75V17.75C4.99951 18.7158 5.78371 19.5 6.74951 19.5H17.7495Z" fill="white"/>
</svg>
