<svg width="24" height="24" viewBox="0 0 24 24" fill="none" xmlns="http://www.w3.org/2000/svg">
<path d="M12 2.5C9.69426 4.03157 6.98801 4.84901 4.21997 4.85V13.85C4.21997 18.33 12 21.5 12 21.5C12 21.5 19.78 18.33 19.78 13.84V4.84C17.013 4.84198 14.3068 4.02804 12 2.5ZM14.08 13.1C14.4602 13.1156 14.8188 13.2811 15.0774 13.5603C15.3359 13.8395 15.4735 14.2097 15.46 14.59C15.4434 14.9343 15.303 15.2609 15.0647 15.5099C14.8263 15.7589 14.5061 15.9134 14.1629 15.9451C13.8197 15.9767 13.4766 15.8833 13.1968 15.6821C12.917 15.4809 12.7192 15.1854 12.64 14.85L9.63997 13.18C9.40517 13.3216 9.13395 13.3912 8.85997 13.38C8.49738 13.3376 8.16442 13.1591 7.92845 12.8805C7.69248 12.602 7.57112 12.2442 7.58891 11.8796C7.60669 11.515 7.7623 11.1707 8.02426 10.9164C8.28622 10.6622 8.63497 10.5169 8.99997 10.51C9.26083 10.5209 9.51355 10.604 9.72997 10.75L12.66 8.68C12.6841 8.39982 12.7902 8.13296 12.9652 7.9128C13.1402 7.69265 13.3762 7.52896 13.6437 7.44223C13.9112 7.35549 14.1983 7.34956 14.4692 7.42516C14.74 7.50077 14.9826 7.65455 15.1665 7.86729C15.3504 8.08003 15.4675 8.34227 15.5032 8.62122C15.5388 8.90016 15.4914 9.18343 15.3669 9.43558C15.2425 9.68774 15.0464 9.89759 14.8032 10.0389C14.5601 10.1802 14.2807 10.2467 14 10.23C13.8241 10.2211 13.6513 10.1804 13.49 10.11L10.87 12L13.3 13.3C13.5367 13.163 13.8065 13.0938 14.08 13.1Z" fill="white"/>
</svg>
