<svg width="24" height="24" viewBox="0 0 24 24" fill="none" xmlns="http://www.w3.org/2000/svg">
<path fill-rule="evenodd" clip-rule="evenodd" d="M11.9999 2.25C13.419 2.25 14.5692 3.36743 14.5692 4.746C14.5692 6.1245 13.419 7.24193 11.9999 7.24193C10.5809 7.24193 9.43066 6.1245 9.43066 4.746C9.43066 3.36743 10.5809 2.25 11.9999 2.25Z" fill="white"/>
<path fill-rule="evenodd" clip-rule="evenodd" d="M12 8.18652C7.8579 8.18652 4.5 11.3883 4.5 15.3378C4.5 17.9396 5.95747 20.217 8.13607 21.4685C8.14657 21.474 8.15648 21.4797 8.16698 21.4845C8.47088 21.6529 8.82255 21.7497 9.19792 21.7497C10.3485 21.7497 11.2812 20.8437 11.2812 19.7256C11.2812 19.1057 10.994 18.5517 10.5425 18.1803L8.41515 16.2984C7.96867 15.9038 7.93672 15.2322 8.34262 14.7992L8.36775 14.7728C8.77402 14.3394 9.4653 14.308 9.91125 14.7027L11.9787 16.5315L14.9711 13.3387C15.3845 12.8979 16.0872 12.8664 16.5408 13.2677C16.9948 13.6689 17.0274 14.3515 16.6143 14.7926L13.331 18.2948C12.9542 18.6612 12.7213 19.1669 12.7213 19.7258C12.7213 20.8437 13.654 21.7498 14.8046 21.7498C15.1767 21.7498 15.5264 21.6546 15.8285 21.4883C15.83 21.4874 15.8327 21.4858 15.8327 21.4858C15.8353 21.4844 15.8367 21.483 15.8399 21.4821C15.8681 21.4656 15.8974 21.4488 15.9253 21.4315C18.0699 20.1729 19.5 17.9149 19.5 15.3378C19.5 11.3883 16.1421 8.18652 12 8.18652Z" fill="white"/>
</svg>
