<svg width="24" height="24" viewBox="0 0 24 24" fill="none" xmlns="http://www.w3.org/2000/svg">
<path fill-rule="evenodd" clip-rule="evenodd" d="M5.78582 13.1572H18.2144C18.669 13.1572 19.1051 13.3378 19.4266 13.6593C19.7481 13.9808 19.9287 14.4169 19.9287 14.8715V16.9287C19.9287 17.3833 19.7481 17.8193 19.4266 18.1408C19.1051 18.4623 18.669 18.6429 18.2144 18.6429H5.78582C5.33116 18.6429 4.89513 18.4623 4.57364 18.1408C4.25214 17.8193 4.07153 17.3833 4.07153 16.9287V14.8715C4.07153 14.4169 4.25214 13.9808 4.57364 13.6593C4.89513 13.3378 5.33116 13.1572 5.78582 13.1572Z" stroke="white" stroke-width="1.5" stroke-linecap="round" stroke-linejoin="round"/>
<path d="M4.71948 13.7607L5.41291 14.6573C5.53291 14.8125 5.71377 14.9016 5.91005 14.9016H18.1552C18.3601 14.9016 18.5521 14.8013 18.6695 14.6333L19.2669 13.7787" stroke="white" stroke-width="1.5" stroke-linecap="round" stroke-linejoin="round"/>
<path d="M6.00171 18.8574V20.1431" stroke="white" stroke-width="1.5" stroke-linecap="round" stroke-linejoin="round"/>
<path d="M18 18.8574V20.1431" stroke="white" stroke-width="1.5" stroke-linecap="round" stroke-linejoin="round"/>
<path fill-rule="evenodd" clip-rule="evenodd" d="M15.2339 10.8123L18.6856 7.33662C14.8756 3.72633 9.12421 3.72633 5.31421 7.33662L8.76335 10.8123C9.88535 10.0683 10.7434 9.57548 11.9999 9.57548C13.2565 9.57548 14.0828 10.0683 15.2339 10.8123Z" stroke="white" stroke-width="1.5" stroke-linecap="round" stroke-linejoin="round"/>
</svg>
