<svg width="24" height="24" viewBox="0 0 24 24" fill="none" xmlns="http://www.w3.org/2000/svg">
<path fill-rule="evenodd" clip-rule="evenodd" d="M3.75418 12.8755L4.8719 14.6164C5.14618 14.9746 5.51475 15.1555 5.9099 15.1555H18.155C18.5699 15.1555 18.9582 14.9532 19.1965 14.6138L20.1256 13.0761C20.4025 13.3804 20.5713 13.7849 20.5713 14.2289V17.5718C20.5713 18.4752 19.8719 19.2158 18.9848 19.2818L18.857 19.2861H5.14275C4.19561 19.2861 3.42847 18.5189 3.42847 17.5718V14.2289L3.43104 14.1518L3.4319 14.1115C3.46447 13.6092 3.69247 13.1661 3.75418 12.8755ZM18.857 12.5146L18.9608 12.5181L18.1448 13.8698H5.91761L5.04847 12.5146H18.857Z" fill="white"/>
<path d="M6.00171 18.8574V20.1431" stroke="white" stroke-width="1.5" stroke-linecap="round" stroke-linejoin="round"/>
<path d="M18 18.8574V20.1431" stroke="white" stroke-width="1.5" stroke-linecap="round" stroke-linejoin="round"/>
<path fill-rule="evenodd" clip-rule="evenodd" d="M15.2339 10.8123L18.6856 7.33662C14.8756 3.72633 9.12421 3.72633 5.31421 7.33662L8.76335 10.8123C9.88535 10.0683 10.7434 9.57633 11.9999 9.57633C13.2565 9.57633 14.0828 10.0683 15.2339 10.8123Z" fill="white" stroke="white" stroke-width="1.5" stroke-linecap="round" stroke-linejoin="round"/>
</svg>
