<svg width="24" height="24" viewBox="0 0 24 24" fill="none" xmlns="http://www.w3.org/2000/svg">
<path d="M8.202 20H6.5C5.119 20 4 18.881 4 17.5V6.5C4 5.119 5.119 4 6.5 4H17.5C18.881 4 20 5.119 20 6.5V9.514M19.3909 11.8037H19.2709C18.6699 11.8037 18.1789 12.5107 18.1789 13.1687V12.6997C18.1789 12.0427 17.6879 11.5037 17.0869 11.5037H16.9659C16.3659 11.5037 15.8739 12.0427 15.8739 12.6997V12.4797C15.8739 11.8217 15.3829 11.2827 14.7829 11.2827H14.6619C14.0619 11.2827 13.5699 11.8217 13.5699 12.4797V8.2697C13.5699 7.6117 13.0789 7.0737 12.4779 7.0737H12.3579C11.7569 7.0737 11.2659 7.6117 11.2659 8.2697V12.4097L11.2639 14.6587V15.3027L10.7619 14.7227C10.3309 14.2257 9.6169 14.1327 9.1729 14.5167L9.0839 14.5937C8.6409 14.9777 8.6309 15.6987 9.0619 16.1957L10.9119 18.3337C10.9119 18.3337 12.8289 20.8937 15.7569 20.8217H15.9769C18.4549 20.8217 20.4839 18.5987 20.4839 15.8827V13.0007C20.4839 12.3427 19.9919 11.8037 19.3909 11.8037Z" stroke="white" stroke-width="1.5" stroke-linecap="round" stroke-linejoin="round"/>
</svg>
