<svg width="24" height="24" viewBox="0 0 24 24" fill="none" xmlns="http://www.w3.org/2000/svg">
<path fill-rule="evenodd" clip-rule="evenodd" d="M6.948 20.7495H17.052C18.156 20.7495 19.052 19.8545 19.052 18.7495V10.4735C19.052 9.36848 18.156 8.47348 17.052 8.47348H16.137C15.862 8.47348 15.424 8.47248 15.162 8.47048L15.004 8.47348C14.758 8.47848 14.427 8.49948 14.039 8.27648C13.657 8.05848 13.458 7.59748 13.899 6.93948C14.249 6.41848 14.654 6.18248 14.654 5.48048C14.654 3.88748 13.168 3.00548 11.506 3.30948C10.475 3.49748 9.677 4.36848 9.646 5.41648C9.625 6.12248 9.95 6.37448 10.316 6.85648C11.062 7.84348 9.853 8.29748 9.853 8.29748C9.596 8.39448 9.16 8.47348 8.885 8.47348H6.948C5.843 8.47348 4.948 9.36848 4.948 10.4735V10.6045V11.4325C4.948 11.6115 4.964 11.9825 4.983 12.2575C4.983 12.2575 5.096 13.8395 6.708 12.6215C7.141 12.2925 7.374 11.9995 7.984 11.9995C9.41 11.9995 10.222 13.2855 10.021 14.7625C9.881 15.7915 9.056 16.6235 8.017 16.6425C7.341 16.6535 7.101 16.3015 6.631 15.9415C5.111 14.7805 4.99 16.2235 4.99 16.2235C4.967 16.4975 4.948 16.9275 4.948 17.1785V18.1355V18.7495C4.948 19.8545 5.843 20.7495 6.948 20.7495Z" fill="white"/>
</svg>
