<svg width="24" height="24" viewBox="0 0 24 24" fill="none" xmlns="http://www.w3.org/2000/svg">
<path d="M2.719 16.0936C3.185 16.0936 3.563 16.4726 3.563 16.9376V18.7226C3.563 19.4966 4.194 20.1286 4.969 20.1286H6.436C6.902 20.1286 7.28 20.5056 7.28 20.9726C7.28 21.4396 6.902 21.8166 6.436 21.8166H4.969C3.263 21.8166 1.875 20.4286 1.875 18.7226V16.9376C1.875 16.4726 2.253 16.0936 2.719 16.0936ZM21.281 16.3746C21.747 16.3746 22.125 16.7536 22.125 17.2186V18.7226C22.125 20.4286 20.738 21.8166 19.031 21.8166H17.564C17.097 21.8166 16.72 21.4396 16.72 20.9726C16.72 20.5056 17.097 20.1286 17.564 20.1286H19.031C19.806 20.1286 20.437 19.4966 20.437 18.7226V17.2186C20.438 16.7536 20.815 16.3746 21.281 16.3746ZM9.156 13.8886C9.853 13.8886 10.422 14.4546 10.422 15.1546V17.0656C10.422 17.7626 9.854 18.3316 9.156 18.3316H7.244C6.546 18.3316 5.978 17.7636 5.978 17.0656V15.1546C5.978 14.4556 6.545 13.8886 7.244 13.8886H9.156ZM14.408 11.4596V12.9686H17.483V14.4806H14.408V15.9916H17.483V17.5036H14.399V15.9916H12.901V17.5036H11.359V15.9916H12.865V14.4796H11.335V12.9676H12.865V11.4596H14.408ZM9.016 15.2946H7.386V16.9246H9.016V15.2946ZM14.399 12.9686H12.877V14.4806H14.399V12.9686ZM7.87 11.4586V12.9686H6.328V11.4586H7.87ZM11.331 11.4236V12.9346H8.914V11.4236H11.331ZM12.885 9.00662V11.4236H11.375V9.00662H12.885ZM17.016 6.02662C17.713 6.02662 18.282 6.59462 18.282 7.29262V9.20462C18.282 9.90162 17.714 10.4706 17.016 10.4706H15.106C14.407 10.4706 13.84 9.90262 13.84 9.20462V7.29262C13.84 6.59562 14.406 6.02662 15.106 6.02662H17.016ZM9.156 6.02662C9.853 6.02662 10.422 6.59462 10.422 7.29262V9.20462C10.422 9.90162 9.854 10.4706 9.156 10.4706H7.244C6.546 10.4706 5.978 9.90262 5.978 9.20462V7.29262C5.978 6.59562 6.545 6.02662 7.244 6.02662H9.156ZM16.875 7.43362H15.246V9.06362H16.875V7.43362ZM9.015 7.43362H7.385V9.06362H9.015V7.43362ZM12.877 6.27662V7.78762H11.335V6.27662H12.877ZM6.436 2.18362C6.902 2.18362 7.28 2.56062 7.28 3.02762C7.28 3.49362 6.902 3.87162 6.436 3.87162H4.969C4.194 3.87162 3.563 4.50262 3.563 5.27762V6.77962C3.563 7.24562 3.185 7.62362 2.719 7.62362C2.253 7.62362 1.875 7.24562 1.875 6.77962V5.27662C1.875 3.56962 3.263 2.18262 4.969 2.18262L6.436 2.18362ZM19.031 2.18362C20.738 2.18362 22.125 3.57062 22.125 5.27762V6.77962C22.125 7.24562 21.747 7.62362 21.281 7.62362C20.815 7.62362 20.437 7.24562 20.437 6.77962V5.27662C20.437 4.50162 19.806 3.87062 19.031 3.87062H17.564C17.097 3.87062 16.72 3.49262 16.72 3.02662C16.72 2.55962 17.097 2.18262 17.564 2.18262L19.031 2.18362Z" fill="white"/>
</svg>
