<svg width="24" height="24" viewBox="0 0 24 24" fill="none" xmlns="http://www.w3.org/2000/svg">
<path fill-rule="evenodd" clip-rule="evenodd" d="M8.22554 14.5236C8.91454 14.5236 9.47554 15.0846 9.47554 15.7736V18.8976C9.47554 19.5876 8.91454 20.1476 8.22554 20.1476H5.10254C4.41354 20.1476 3.85254 19.5876 3.85254 18.8976V15.7736C3.85254 15.0846 4.41354 14.5236 5.10254 14.5236H8.22554ZM19.7995 18.2676V20.0336H16.3475V18.2676H19.7995ZM14.5835 18.2676V20.0336H12.8195V18.2676H14.5835ZM7.97554 16.0236H5.35354V18.6476H7.97554V16.0236ZM12.8185 12.9786V14.7396H14.5835V16.5036H12.8185V18.2676H11.0545V12.9786H12.8185ZM16.3475 16.5036V18.2676H14.5835V16.5036H16.3475ZM14.5835 11.2146V12.9786L16.3455 12.9776L16.3465 11.2146H18.1095V12.9786H16.3475V14.7396H19.7985V16.5036H16.3475V14.7406H14.5835V12.9786H12.8185V11.2146H14.5835ZM5.82554 11.2146V12.9786H4.06254V11.2146H5.82554ZM11.0535 11.2146L11.0545 12.9786H7.61054V11.2146H11.0535ZM11.0538 7.44486L12.8188 7.44686L12.8185 11.2146H11.0535L11.0538 7.44486ZM18.8975 3.85156C19.5875 3.85156 20.1475 4.41156 20.1475 5.10156V8.22456C20.1475 8.91356 19.5875 9.47456 18.8975 9.47456H15.7755C15.0865 9.47456 14.5255 8.91356 14.5255 8.22456V5.10156C14.5255 4.41156 15.0865 3.85156 15.7755 3.85156H18.8975ZM8.22554 3.85156C8.91454 3.85156 9.47554 4.41156 9.47554 5.10156V8.22456C9.47554 8.91356 8.91454 9.47456 8.22554 9.47456H5.10254C4.41354 9.47456 3.85254 8.91356 3.85254 8.22456V5.10156C3.85254 4.41156 4.41354 3.85156 5.10254 3.85156H8.22554ZM18.6475 5.35156H16.0255V7.97456H18.6475V5.35156ZM7.97454 5.35156H5.35254V7.97456H7.97454V5.35156ZM11.0543 4.03336L12.8193 4.03436V5.79436H11.0543V4.03336Z" fill="white"/>
</svg>
