<svg width="24" height="24" viewBox="0 0 24 24" fill="none" xmlns="http://www.w3.org/2000/svg">
<mask id="mask0_1074_14093" style="mask-type:alpha" maskUnits="userSpaceOnUse" x="0" y="0" width="30" height="30">
<rect x="30" y="30" width="30" height="30" transform="rotate(-180 30 30)" fill="#D9D9D9"/>
</mask>
<g mask="url(#mask0_1074_14093)">
<mask id="mask1_1074_14093" style="mask-type:luminance" maskUnits="userSpaceOnUse" x="2" y="3" width="20" height="18">
<path d="M21.1914 21L2.80843 21L2.80843 3L21.1914 3L21.1914 21Z" fill="white"/>
</mask>
<g mask="url(#mask1_1074_14093)">
<path d="M3.6324 12.0455C4.04935 12.0455 4.40656 12.3535 4.45033 12.766C4.84855 16.546 8.0943 19.3963 11.9995 19.3963C15.1637 19.3963 17.9416 17.511 19.0654 14.7099H14.0709L14.475 15.1039C14.5429 15.1699 14.5967 15.2484 14.6335 15.3348C14.6702 15.4213 14.6891 15.514 14.6891 15.6077C14.6891 15.7013 14.6702 15.794 14.6335 15.8805C14.5967 15.9669 14.5429 16.0454 14.475 16.1114C14.3375 16.2452 14.1516 16.3202 13.9578 16.3202C13.764 16.3202 13.578 16.2452 13.4405 16.1114L11.6976 14.4129C11.6297 14.3469 11.5758 14.2683 11.539 14.1818C11.5022 14.0953 11.4833 14.0025 11.4833 13.9088C11.4833 13.8151 11.5022 13.7224 11.539 13.6358C11.5758 13.5493 11.6297 13.4708 11.6976 13.4048L13.4405 11.7063C13.5779 11.5726 13.7638 11.4976 13.9575 11.4976C14.1512 11.4976 14.337 11.5726 14.4745 11.7063C14.5423 11.7723 14.5962 11.8508 14.633 11.9373C14.6698 12.0238 14.6887 12.1166 14.6887 12.2103C14.6887 12.304 14.6698 12.3968 14.633 12.4833C14.5962 12.5698 14.5423 12.6483 14.4745 12.7144L14.0731 13.1053H20.1222C20.3744 13.1053 20.6494 13.2367 20.8058 13.4299C20.9624 13.6239 21.0275 13.9181 20.9673 14.1574C19.9503 18.1863 16.2623 21 11.9995 21C7.24742 21 3.29795 17.5302 2.81264 12.9296C2.76622 12.4893 3.09528 12.0951 3.5475 12.0498C3.57572 12.0471 3.60405 12.0456 3.6324 12.0455Z" fill="white"/>
<path d="M20.4521 11.9608C19.9944 12.0009 19.5961 11.6841 19.5497 11.2438C19.5359 11.1089 19.518 10.9749 19.4966 10.8427C18.914 7.22797 15.7609 4.60525 11.9999 4.60525C8.83447 4.60525 6.05565 6.49087 4.9328 9.29459L9.9317 9.29459L9.5244 8.89769C9.45652 8.83165 9.40265 8.75312 9.36589 8.66661C9.32913 8.58011 9.3102 8.48733 9.3102 8.39364C9.3102 8.29994 9.32913 8.20717 9.36589 8.12066C9.40265 8.03415 9.45652 7.95562 9.5244 7.88958C9.66183 7.75593 9.84767 7.68092 10.0414 7.68092C10.2351 7.68092 10.4209 7.75593 10.5583 7.88958L12.3017 9.58844C12.3696 9.65448 12.4235 9.73302 12.4602 9.81952C12.497 9.90603 12.5159 9.9988 12.5159 10.0925C12.5159 10.1862 12.497 10.279 12.4602 10.3655C12.4235 10.452 12.3696 10.5305 12.3017 10.5966L10.5587 12.2952C10.4211 12.4289 10.2352 12.5039 10.0414 12.5039C9.84763 12.5039 9.6617 12.4289 9.52417 12.2952C9.45632 12.2292 9.40247 12.1507 9.36572 12.0642C9.32898 11.9777 9.31006 11.885 9.31006 11.7914C9.31006 11.6977 9.32898 11.605 9.36572 11.5185C9.40247 11.432 9.45632 11.3535 9.52417 11.2875L9.92263 10.8992H3.876C3.62381 10.8992 3.3483 10.7678 3.1925 10.5746C3.03579 10.3806 2.97064 10.0882 3.03085 9.84809C4.04662 5.81654 7.73482 3.00067 11.9999 3.00067C16.5767 3.00067 20.4131 6.19421 21.1226 10.5937C21.1485 10.7559 21.1701 10.9187 21.1874 11.082C21.2333 11.5222 20.9038 11.9156 20.4521 11.9608Z" fill="white"/>
</g>
</g>
</svg>
