<svg width="24" height="24" viewBox="0 0 24 24" fill="none" xmlns="http://www.w3.org/2000/svg">
<path d="M18.3839 7.00391C19.3136 7.00391 20.0742 7.24001 20.6061 7.70631C21.1467 8.17841 21.4192 8.85161 21.4192 9.68801C21.4192 10.1324 21.2822 10.5433 21.0097 10.9178C20.8072 11.1961 20.5478 11.4351 20.2636 11.6071C20.6134 11.7703 20.9019 12.0078 21.1642 12.3269C21.4541 12.6824 21.5765 13.1341 21.5765 13.7199C21.5765 14.5534 21.2749 15.2616 20.7022 15.7657C20.1281 16.2728 19.3588 16.5337 18.416 16.5337C17.5053 16.5337 16.749 16.2889 16.1924 15.7978C15.6124 15.2863 15.3181 14.6394 15.3181 13.8481V13.7024H17.1002V13.8481C17.1002 14.2081 17.2226 14.5024 17.4718 14.6977C17.6903 14.9177 18.0313 15.0357 18.448 15.0357C18.8823 15.0357 19.1999 14.9264 19.4622 14.6918C19.7114 14.4718 19.8265 14.1643 19.8265 13.7199C19.8265 13.2769 19.7114 12.9709 19.4622 12.7495C19.2058 12.5221 18.8284 12.4056 18.3213 12.4056H17.1643L17.1599 10.9091H18.2251C18.6506 10.9091 18.9741 10.8027 19.248 10.59C19.4855 10.4035 19.6036 10.1062 19.6036 9.68801C19.6036 9.29601 19.5001 9.00901 19.2976 8.80641C19.1008 8.61121 18.7846 8.50041 18.3839 8.50041C18.0211 8.50041 17.734 8.60531 17.4951 8.81371C17.278 9.00461 17.1643 9.28001 17.1643 9.62531V9.76961H15.3808V9.62531C15.3808 9.12411 15.5148 8.68261 15.7873 8.27461C16.0438 7.88991 16.3993 7.58391 16.8598 7.33621C17.3144 7.10891 17.8084 7.00391 18.3839 7.00391ZM7.55614 7.11471V12.9243H8.66794V14.4208H7.55614V16.4215H5.77404V14.4208H1.87324L1.86884 14.2809L1.85864 13.2784L5.85564 7.11471H7.55614ZM11.9531 13.2643C12.305 13.2643 12.5532 13.3565 12.6848 13.5584C12.8672 13.7409 12.9471 13.9634 12.9471 14.2586C12.9471 14.5415 12.8578 14.7897 12.6848 14.927C12.5052 15.1069 12.2559 15.19 11.9531 15.19C11.6504 15.19 11.4011 15.1069 11.2215 14.927C11.0391 14.7449 10.9589 14.522 10.9589 14.2272C10.9589 13.9324 11.0391 13.7094 11.2334 13.5165C11.4307 13.3586 11.6851 13.2643 11.9531 13.2643ZM5.74194 9.81771L3.79964 12.9243H5.74194V9.81771ZM11.9531 8.06901C12.305 8.06901 12.5532 8.16111 12.6848 8.36311C12.8672 8.54551 12.9471 8.76811 12.9471 9.06321C12.9471 9.34611 12.8578 9.59431 12.6848 9.73161C12.5052 9.91121 12.2559 9.99431 11.9531 9.99431C11.6504 9.99431 11.4011 9.91121 11.2215 9.73161C11.0391 9.54951 10.9589 9.32661 10.9589 9.03181C10.9589 8.73661 11.0391 8.51411 11.2334 8.32081C11.4307 8.16331 11.6851 8.06901 11.9531 8.06901Z" fill="white"/>
</svg>
