<svg width="24" height="24" viewBox="0 0 24 24" fill="none" xmlns="http://www.w3.org/2000/svg">
<path d="M17.0815 2.375C19.3786 2.375 21.4256 4.2382 21.4256 6.4712C21.4256 6.8164 21.1458 7.0962 20.8006 7.0962C20.4555 7.0962 20.1756 6.8164 20.1756 6.4712C20.1756 5.0102 18.8157 3.7203 17.2556 3.63L17.0815 3.625H6.9172C5.2855 3.625 3.823 4.9561 3.823 6.4712C3.823 6.8164 3.5432 7.0962 3.198 7.0962C2.8528 7.0962 2.573 6.8164 2.573 6.4712C2.573 4.3058 4.4979 2.4882 6.7091 2.3801L6.9172 2.375H17.0815Z" fill="white"/>
<path d="M20.8006 16.8057C21.1457 16.8057 21.4256 17.0855 21.4256 17.4307C21.4256 19.5961 19.5007 21.4137 17.2895 21.5218L17.0814 21.5269H6.91708C4.61998 21.5269 2.57288 19.6637 2.57288 17.4307C2.57288 17.0855 2.85278 16.8057 3.19788 16.8057C3.54308 16.8057 3.82288 17.0855 3.82288 17.4307C3.82288 18.8917 5.18288 20.1816 6.74298 20.2719L6.91708 20.2769H17.0814C18.7131 20.2769 20.1756 18.9458 20.1756 17.4307C20.1756 17.0855 20.4554 16.8057 20.8006 16.8057Z" fill="white"/>
<path d="M13.8152 10.4565V15.1235H12.6161V14.8755C12.3181 15.1065 11.9431 15.2275 11.5132 15.2275C11.0071 15.2275 10.6111 15.0715 10.3272 14.7645C10.0532 14.4675 9.91515 14.0205 9.91515 13.4625L9.91225 10.4785H11.1872V13.4415C11.1872 13.9215 11.3521 14.1205 11.7201 14.1205C12.1502 14.1205 12.4221 13.9785 12.5442 13.7525V10.4565H13.8152ZM9.20015 8.94561V10.0726H6.48805V11.5336H8.84815V12.6396H6.48805V15.1236H5.17505V8.94561H9.20015ZM18.8249 8.94591V15.1239H17.545L17.5529 9.09491V8.94591H18.8249ZM16.3001 8.94531V15.1233H15.0281V8.94531H16.3001Z" fill="white"/>
</svg>
