<svg width="24" height="24" viewBox="0 0 24 24" fill="none" xmlns="http://www.w3.org/2000/svg">
<path d="M15.8974 1.10352C17.9117 1.10352 19.5449 2.73672 19.5449 4.75092V19.4176C19.5449 21.432 17.9117 23.0651 15.8974 23.0651H8.2711C6.2566 23.0651 4.6236 21.4321 4.6236 19.4176V4.75092C4.6236 2.73672 6.2567 1.10352 8.2711 1.10352H15.8974ZM15.8974 2.53202H8.2711C7.0457 2.53202 6.0522 3.52562 6.0522 4.75092V19.4176C6.0522 20.6431 7.0456 21.6365 8.2711 21.6365H15.8974C17.1228 21.6365 18.1164 20.643 18.1164 19.4176V4.75092C18.1164 3.52572 17.1227 2.53202 15.8974 2.53202Z" fill="white"/>
</svg>
