<svg width="24" height="24" viewBox="0 0 24 24" fill="none" xmlns="http://www.w3.org/2000/svg">
<path d="M17.0815 2.375C19.3786 2.375 21.4256 4.2382 21.4256 6.4712C21.4256 6.8164 21.1458 7.0962 20.8006 7.0962C20.4555 7.0962 20.1756 6.8164 20.1756 6.4712C20.1756 5.0102 18.8157 3.7203 17.2556 3.63L17.0815 3.625H6.9172C5.2855 3.625 3.823 4.9561 3.823 6.4712C3.823 6.8164 3.5432 7.0962 3.198 7.0962C2.8528 7.0962 2.573 6.8164 2.573 6.4712C2.573 4.3058 4.4979 2.4882 6.7091 2.3801L6.9172 2.375H17.0815Z" fill="white"/>
<path d="M20.8007 16.8057C21.1458 16.8057 21.4257 17.0855 21.4257 17.4307C21.4257 19.5961 19.5008 21.4137 17.2896 21.5218L17.0815 21.5269H6.9172C4.6201 21.5269 2.573 19.6637 2.573 17.4307C2.573 17.0855 2.8529 16.8057 3.198 16.8057C3.5432 16.8057 3.823 17.0855 3.823 17.4307C3.823 18.8917 5.183 20.1816 6.7431 20.2719L6.9172 20.2769H17.0815C18.7132 20.2769 20.1757 18.9458 20.1757 17.4307C20.1757 17.0855 20.4555 16.8057 20.8007 16.8057Z" fill="white"/>
<path d="M7.65747 8.82617C8.29547 8.82617 8.81747 8.98817 9.18247 9.30817C9.55347 9.63217 9.74047 10.0942 9.74047 10.6682C9.74047 10.9732 9.64647 11.2552 9.45947 11.5122C9.32047 11.7032 9.14247 11.8672 8.94747 11.9852C9.18747 12.0972 9.38547 12.2602 9.56547 12.4792C9.76447 12.7232 9.84847 13.0332 9.84847 13.4352C9.84847 14.0072 9.64147 14.4932 9.24847 14.8392C8.85447 15.1872 8.32647 15.3662 7.67947 15.3662C7.05447 15.3662 6.53547 15.1982 6.15347 14.8612C5.75547 14.5102 5.55347 14.0662 5.55347 13.5232V13.4232H6.77647V13.5232C6.77647 13.7702 6.86047 13.9722 7.03147 14.1062C7.18147 14.2572 7.41547 14.3382 7.70147 14.3382C7.99947 14.3382 8.21747 14.2632 8.39747 14.1022C8.56847 13.9512 8.64747 13.7402 8.64747 13.4352C8.64747 13.1312 8.56847 12.9212 8.39747 12.7692C8.22147 12.6132 7.96247 12.5332 7.61447 12.5332H6.82047L6.81747 11.5062H7.54847C7.84047 11.5062 8.06247 11.4332 8.25047 11.2872C8.41347 11.1592 8.49447 10.9552 8.49447 10.6682C8.49447 10.3992 8.42347 10.2022 8.28447 10.0632C8.14947 9.92917 7.93247 9.85317 7.65747 9.85317C7.40847 9.85317 7.21147 9.92517 7.04747 10.0682C6.89847 10.1992 6.82047 10.3882 6.82047 10.6252V10.7242H5.59647V10.6252C5.59647 10.2812 5.68847 9.97817 5.87547 9.69817C6.05147 9.43417 6.29547 9.22417 6.61147 9.05417C6.92347 8.89817 7.26247 8.82617 7.65747 8.82617ZM17.9325 8.90217V12.8892H18.6955V13.9162H17.9325V15.2892H16.7095V13.9162H14.0325L14.0295 13.8202L14.0225 13.1322L16.7655 8.90217H17.9325ZM11.8913 13.1225C12.1328 13.1225 12.3031 13.1858 12.3934 13.3244C12.5186 13.4496 12.5734 13.6023 12.5734 13.8049C12.5734 13.999 12.5121 14.1694 12.3934 14.2636C12.2701 14.3871 12.0991 14.4441 11.8913 14.4441C11.6835 14.4441 11.5124 14.3871 11.3892 14.2636C11.264 14.1386 11.2089 13.9856 11.2089 13.7833C11.2089 13.581 11.264 13.428 11.3974 13.2956C11.5327 13.1873 11.7073 13.1225 11.8913 13.1225ZM16.6875 10.7572L15.3545 12.8892H16.6875V10.7572ZM11.8913 9.55707C12.1328 9.55707 12.3031 9.62027 12.3934 9.75887C12.5186 9.88407 12.5734 10.0369 12.5734 10.2394C12.5734 10.4336 12.5121 10.6039 12.3934 10.6981C12.2701 10.8214 12.0991 10.8784 11.8913 10.8784C11.6835 10.8784 11.5124 10.8214 11.3892 10.6981C11.264 10.5732 11.2089 10.4202 11.2089 10.2179C11.2089 10.0153 11.264 9.86257 11.3974 9.72987C11.5327 9.62177 11.7073 9.55707 11.8913 9.55707Z" fill="white"/>
</svg>
