<svg width="24" height="24" viewBox="0 0 24 24" fill="none" xmlns="http://www.w3.org/2000/svg">
<path d="M15.8974 1.10352C17.9117 1.10352 19.5449 2.73672 19.5449 4.75092V19.4176C19.5449 21.432 17.9117 23.0651 15.8974 23.0651H8.2711C6.2566 23.0651 4.6236 21.4321 4.6236 19.4176V4.75092C4.6236 2.73672 6.2567 1.10352 8.2711 1.10352H15.8974ZM16.0073 9.60852C15.7279 9.33002 15.2757 9.33072 14.9972 9.61002L11.4116 13.2044L9.1714 10.9567L9.0726 10.8739C8.7945 10.6806 8.4096 10.7076 8.1613 10.9552C7.8819 11.2337 7.8812 11.6859 8.1597 11.9653L10.6304 14.4436L10.7345 14.5359C11.1685 14.8742 11.797 14.8434 12.1955 14.4436L16.0088 10.6186L16.0913 10.5196C16.2838 10.2409 16.2556 9.85612 16.0073 9.60852Z" fill="white"/>
</svg>
