<svg width="24" height="24" viewBox="0 0 24 24" fill="none" xmlns="http://www.w3.org/2000/svg">
<path d="M22 17.0084C22 19.3056 20.1368 21.3526 17.9038 21.3526C17.5586 21.3526 17.2788 21.0728 17.2788 20.7276C17.2788 20.3824 17.5586 20.1026 17.9038 20.1026C19.3647 20.1026 20.6547 18.7427 20.745 17.1825L20.75 17.0084V6.8442C20.75 5.2125 19.4188 3.75 17.9038 3.75C17.5586 3.75 17.2788 3.4702 17.2788 3.125C17.2788 2.7798 17.5586 2.5 17.9038 2.5C20.0692 2.5 21.8867 4.4248 21.9949 6.6361L22 6.8442V17.0084Z" fill="white"/>
<path d="M6.92115 20.7276C6.92115 21.0728 6.64135 21.3526 6.29615 21.3526C4.13075 21.3526 2.31325 19.4278 2.20505 17.2165L2.19995 17.0084V6.8442C2.19995 4.547 4.06315 2.5 6.29615 2.5C6.64135 2.5 6.92115 2.7798 6.92115 3.125C6.92115 3.4702 6.64135 3.75 6.29615 3.75C4.83525 3.75 3.54525 5.1099 3.45495 6.6701L3.44995 6.8442V17.0084C3.44995 18.6401 4.78115 20.1026 6.29615 20.1026C6.64135 20.1026 6.92115 20.3824 6.92115 20.7276Z" fill="white"/>
<path d="M16.6575 8.82617C17.2955 8.82617 17.8175 8.98817 18.1825 9.30817C18.5535 9.63217 18.7405 10.0942 18.7405 10.6682C18.7405 10.9732 18.6465 11.2552 18.4595 11.5122C18.3205 11.7032 18.1425 11.8672 17.9475 11.9852C18.1875 12.0972 18.3855 12.2602 18.5655 12.4792C18.7645 12.7232 18.8485 13.0332 18.8485 13.4352C18.8485 14.0072 18.6415 14.4932 18.2485 14.8392C17.8545 15.1872 17.3265 15.3662 16.6795 15.3662C16.0545 15.3662 15.5355 15.1982 15.1535 14.8612C14.7555 14.5102 14.5535 14.0662 14.5535 13.5232V13.4232H15.7765V13.5232C15.7765 13.7702 15.8605 13.9722 16.0315 14.1062C16.1815 14.2572 16.4155 14.3382 16.7015 14.3382C16.9995 14.3382 17.2175 14.2632 17.3975 14.1022C17.5685 13.9512 17.6475 13.7402 17.6475 13.4352C17.6475 13.1312 17.5685 12.9212 17.3975 12.7692C17.2215 12.6132 16.9625 12.5332 16.6145 12.5332H15.8205L15.8175 11.5062H16.5485C16.8405 11.5062 17.0625 11.4332 17.2505 11.2872C17.4135 11.1592 17.4945 10.9552 17.4945 10.6682C17.4945 10.3992 17.4235 10.2022 17.2845 10.0632C17.1495 9.92917 16.9325 9.85317 16.6575 9.85317C16.4085 9.85317 16.2115 9.92517 16.0475 10.0682C15.8985 10.1992 15.8205 10.3882 15.8205 10.6252V10.7242H14.5965V10.6252C14.5965 10.2812 14.6885 9.97817 14.8755 9.69817C15.0515 9.43417 15.2955 9.22417 15.6115 9.05417C15.9235 8.89817 16.2625 8.82617 16.6575 8.82617ZM8.93246 8.90217V12.8892H9.69546V13.9162H8.93246V15.2892H7.70946V13.9162H5.03246L5.02946 13.8202L5.02246 13.1322L7.76546 8.90217H8.93246ZM12.1823 13.1225C12.4238 13.1225 12.5942 13.1858 12.6844 13.3244C12.8096 13.4496 12.8644 13.6023 12.8644 13.8049C12.8644 13.999 12.8032 14.1694 12.6844 14.2636C12.5612 14.3871 12.3901 14.4441 12.1823 14.4441C11.9746 14.4441 11.8035 14.3871 11.6803 14.2636C11.555 14.1386 11.5 13.9856 11.5 13.7833C11.5 13.581 11.555 13.428 11.6884 13.2956C11.8238 13.1873 11.9984 13.1225 12.1823 13.1225ZM7.68746 10.7572L6.35446 12.8892H7.68746V10.7572ZM12.1823 9.55707C12.4238 9.55707 12.5942 9.62027 12.6844 9.75887C12.8096 9.88407 12.8644 10.0369 12.8644 10.2394C12.8644 10.4336 12.8032 10.6039 12.6844 10.6981C12.5612 10.8214 12.3901 10.8784 12.1823 10.8784C11.9746 10.8784 11.8035 10.8214 11.6803 10.6981C11.555 10.5732 11.5 10.4202 11.5 10.2179C11.5 10.0153 11.555 9.86257 11.6884 9.72987C11.8238 9.62177 11.9984 9.55707 12.1823 9.55707Z" fill="white"/>
</svg>
