<svg width="24" height="24" viewBox="0 0 24 24" fill="none" xmlns="http://www.w3.org/2000/svg">
<path d="M6.94943 8.85946V15.2685H5.72043V10.3405L4.32743 10.8185L4.19543 10.8765V9.79446L4.26043 9.75846L6.71343 8.85946H6.94943ZM17.8024 8.77246C18.4534 8.77246 18.9644 9.01646 19.3614 9.50646C19.7424 9.97646 19.9284 10.6255 19.9284 11.4425V11.7255C19.9284 12.8505 19.6644 13.7265 19.1424 14.3395C18.6184 14.9545 17.8254 15.2685 16.8004 15.2685H16.5694V14.2195H16.8214C17.3974 14.2195 17.8374 14.0805 18.1504 13.8075C18.4364 13.5605 18.6294 13.2285 18.6994 12.8315C18.3814 13.0935 18.0244 13.2195 17.6064 13.2195C17.0394 13.2195 16.5744 13.0165 16.2244 12.6205C15.8884 12.2385 15.7204 11.7005 15.7204 11.0505C15.7204 10.6345 15.8054 10.2485 15.9694 9.89746C16.1264 9.55946 16.3754 9.28146 16.7024 9.07146C17.0174 8.86846 17.3814 8.77246 17.8024 8.77246ZM13.9894 13.1955C14.2334 13.1955 14.4044 13.2585 14.4964 13.3985C14.6224 13.5245 14.6774 13.6785 14.6774 13.8825C14.6774 14.0795 14.6154 14.2515 14.4964 14.3455C14.3714 14.4695 14.1994 14.5275 13.9894 14.5275C13.7804 14.5275 13.6074 14.4695 13.4834 14.3455C13.3574 14.2195 13.3014 14.0655 13.3014 13.8615C13.3014 13.6575 13.3574 13.5035 13.4914 13.3695C13.6284 13.2605 13.8044 13.1955 13.9894 13.1955ZM17.8454 9.79946C17.5914 9.79946 17.3614 9.91746 17.2074 10.1285C17.0454 10.3515 16.9644 10.6375 16.9644 11.0065C16.9644 11.3775 17.0454 11.6625 17.2074 11.8855C17.3664 12.1035 17.5784 12.2145 17.8454 12.2145C18.0274 12.2145 18.1814 12.1665 18.3854 12.0525C18.5514 11.9615 18.6714 11.8115 18.7484 11.6385V11.2245C18.7484 10.7755 18.6624 10.4285 18.4824 10.1705C18.3084 9.91746 18.1004 9.79946 17.8454 9.79946ZM13.9894 9.60046C14.2334 9.60046 14.4044 9.66346 14.4964 9.80346C14.6224 9.92946 14.6774 10.0845 14.6774 10.2885C14.6774 10.4845 14.6154 10.6555 14.4964 10.7505C14.3714 10.8755 14.1994 10.9325 13.9894 10.9325C13.7804 10.9325 13.6074 10.8755 13.4834 10.7505C13.3574 10.6245 13.3014 10.4705 13.3014 10.2665C13.3014 10.0625 13.3574 9.90846 13.4914 9.77446C13.6284 9.66546 13.8044 9.60046 13.9894 9.60046Z" fill="white"/>
<path d="M22.0021 17.0084C22.0021 19.3056 20.1389 21.3526 17.9058 21.3526C17.5606 21.3526 17.2808 21.0728 17.2808 20.7276C17.2808 20.3824 17.5606 20.1026 17.9058 20.1026C19.3668 20.1026 20.6567 18.7427 20.747 17.1825L20.7521 17.0084V6.8442C20.7521 5.2125 19.4209 3.75 17.9058 3.75C17.5606 3.75 17.2808 3.4702 17.2808 3.125C17.2808 2.7798 17.5606 2.5 17.9058 2.5C20.0712 2.5 21.8888 4.4248 21.997 6.6361L22.0021 6.8442V17.0084Z" fill="white"/>
<path d="M6.92335 20.7276C6.92335 21.0728 6.64355 21.3526 6.29835 21.3526C4.13295 21.3526 2.31535 19.4278 2.20715 17.2165L2.20215 17.0084V6.8442C2.20215 4.547 4.06525 2.5 6.29835 2.5C6.64355 2.5 6.92335 2.7798 6.92335 3.125C6.92335 3.4702 6.64355 3.75 6.29835 3.75C4.83735 3.75 3.54745 5.1099 3.45715 6.6701L3.45215 6.8442V17.0084C3.45215 18.6401 4.78325 20.1026 6.29835 20.1026C6.64355 20.1026 6.92335 20.3824 6.92335 20.7276Z" fill="white"/>
<path d="M11.5194 8.88184V9.88684H11.2894C10.7424 9.88684 10.3024 10.0428 9.9604 10.3418C9.6924 10.5758 9.5174 10.8948 9.4284 11.3098C9.7394 11.0728 10.1204 10.9518 10.5484 10.9518C11.1254 10.9518 11.5894 11.1628 11.9124 11.5788C12.2404 12.0008 12.4134 12.5278 12.4134 13.1428C12.4134 13.8038 12.2274 14.3278 11.8404 14.7358C11.4494 15.1508 10.9424 15.3558 10.3084 15.3558C9.6644 15.3558 9.1374 15.1218 8.7294 14.6458C8.3284 14.1768 8.1394 13.5718 8.1394 12.7948V12.4458C8.1394 11.3338 8.4074 10.4618 8.9474 9.83184C9.4904 9.19784 10.2814 8.88184 11.3114 8.88184H11.5194ZM10.3084 12.0008C10.1074 12.0008 9.9094 12.0608 9.7314 12.1798C9.5624 12.2928 9.4394 12.4458 9.3624 12.5978V12.9028C9.3624 13.3538 9.4494 13.6978 9.6254 13.9328C9.8134 14.1828 10.0274 14.3068 10.2874 14.3068C10.5664 14.3068 10.7734 14.2088 10.9254 13.9998C11.0904 13.7718 11.1674 13.5068 11.1674 13.1428C11.1674 12.7788 11.0904 12.5128 10.9254 12.2868C10.7774 12.0828 10.5964 12.0008 10.3084 12.0008Z" fill="white"/>
</svg>
