<svg width="24" height="24" viewBox="0 0 24 24" fill="none" xmlns="http://www.w3.org/2000/svg">
<path d="M17.0815 2.375C19.3786 2.375 21.4256 4.2382 21.4256 6.4712C21.4256 6.8164 21.1458 7.0962 20.8006 7.0962C20.4555 7.0962 20.1756 6.8164 20.1756 6.4712C20.1756 5.0102 18.8157 3.7203 17.2556 3.63L17.0815 3.625H6.9172C5.2855 3.625 3.823 4.9561 3.823 6.4712C3.823 6.8164 3.5432 7.0962 3.198 7.0962C2.8528 7.0962 2.573 6.8164 2.573 6.4712C2.573 4.3058 4.4979 2.4882 6.7091 2.3801L6.9172 2.375H17.0815Z" fill="white"/>
<path d="M20.8007 16.8057C21.1458 16.8057 21.4257 17.0855 21.4257 17.4307C21.4257 19.5961 19.5008 21.4137 17.2896 21.5218L17.0815 21.5269H6.9172C4.6201 21.5269 2.573 19.6637 2.573 17.4307C2.573 17.0855 2.8529 16.8057 3.198 16.8057C3.5432 16.8057 3.823 17.0855 3.823 17.4307C3.823 18.8917 5.183 20.1816 6.7431 20.2719L6.9172 20.2769H17.0815C18.7132 20.2769 20.1757 18.9458 20.1757 17.4307C20.1757 17.0855 20.4555 16.8057 20.8007 16.8057Z" fill="white"/>
<path d="M10.1459 7.51074C10.7558 7.51074 11.2573 7.97434 11.3176 8.56834L11.3237 8.68884V11.1944C11.3237 11.5396 11.0438 11.8194 10.6987 11.8194C10.3849 11.8194 10.1251 11.5881 10.0804 11.2867L10.0737 11.1944L10.0713 9.41054C9.31893 10.0234 8.85763 10.9508 8.85763 11.9615C8.85763 13.7785 10.3358 15.2522 12.1595 15.2522C13.9837 15.2522 15.4614 13.7788 15.4614 11.9615C15.4614 10.4444 14.4246 9.13534 12.9691 8.76884C12.6344 8.68454 12.4314 8.34494 12.5156 8.01014C12.5999 7.67544 12.9396 7.47244 13.2743 7.55674C15.2814 8.06214 16.7114 9.86764 16.7114 11.9615C16.7114 14.47 14.6733 16.5022 12.1595 16.5022C9.64633 16.5022 7.60763 14.4697 7.60763 11.9615C7.60763 10.7318 8.10223 9.59174 8.93013 8.75984L7.63623 8.76074C7.32243 8.76074 7.06263 8.52954 7.01793 8.22814L7.01123 8.13574C7.01123 7.82194 7.24243 7.56214 7.54383 7.51754L7.63623 7.51074H10.1459Z" fill="white"/>
</svg>
