<svg width="24" height="24" viewBox="0 0 24 24" fill="none" xmlns="http://www.w3.org/2000/svg">
<path d="M14.0266 10.165V16.851H12.3577V16.4957C11.9428 16.8267 11.4209 17 10.8223 17C10.118 17 9.5668 16.7765 9.1715 16.3367C8.7901 15.9112 8.598 15.2708 8.598 14.4714L8.5938 10.1965H10.3686V14.4413C10.3686 15.129 10.5982 15.4141 11.1105 15.4141C11.709 15.4141 12.0876 15.2107 12.2574 14.8869V10.165H14.0266ZM7.6026 8.0004V9.615H3.8276V11.708H7.1126V13.2925H3.8276V16.8512H2V8.0004H7.6026ZM21 8.0009V16.8516H19.2183L19.2294 8.2143V8.0009H21ZM17.4855 8V16.8507H15.7149V8H17.4855Z" fill="white"/>
</svg>
