<svg width="24" height="24" viewBox="0 0 24 24" fill="none" xmlns="http://www.w3.org/2000/svg">
<path d="M23 15.8199C23 17.8377 21.3639 19.4738 19.3461 19.4738H4.6539C2.6359 19.4738 1 17.8378 1 15.8199V8.18027C1 6.16217 2.6358 4.52637 4.6539 4.52637H19.3461C21.3639 4.52637 23 6.16227 23 8.18027V15.8199ZM21.5689 15.8199V8.18027C21.5689 6.95267 20.5736 5.95747 19.3461 5.95747H4.6539C3.4262 5.95747 2.4311 6.95257 2.4311 8.18027V15.8199C2.4311 17.0474 3.4263 18.0427 4.6539 18.0427H19.3461C20.5735 18.0427 21.5689 17.0473 21.5689 15.8199Z" fill="white"/>
</svg>
