<svg width="24" height="24" viewBox="0 0 24 24" fill="none" xmlns="http://www.w3.org/2000/svg">
<path d="M17.0815 2.375C19.3786 2.375 21.4256 4.2382 21.4256 6.4712C21.4256 6.8164 21.1458 7.0962 20.8006 7.0962C20.4555 7.0962 20.1756 6.8164 20.1756 6.4712C20.1756 5.0102 18.8157 3.7203 17.2556 3.63L17.0815 3.625H6.9172C5.2855 3.625 3.823 4.9561 3.823 6.4712C3.823 6.8164 3.5432 7.0962 3.198 7.0962C2.8528 7.0962 2.573 6.8164 2.573 6.4712C2.573 4.3058 4.4979 2.4882 6.7091 2.3801L6.9172 2.375H17.0815Z" fill="white"/>
<path d="M20.8006 16.8057C21.1457 16.8057 21.4256 17.0855 21.4256 17.4307C21.4256 19.5961 19.5007 21.4137 17.2895 21.5218L17.0814 21.5269H6.91708C4.61998 21.5269 2.57288 19.6637 2.57288 17.4307C2.57288 17.0855 2.85278 16.8057 3.19788 16.8057C3.54308 16.8057 3.82288 17.0855 3.82288 17.4307C3.82288 18.8917 5.18288 20.1816 6.74298 20.2719L6.91708 20.2769H17.0814C18.7131 20.2769 20.1756 18.9458 20.1756 17.4307C20.1756 17.0855 20.4554 16.8057 20.8006 16.8057Z" fill="white"/>
<path d="M19.6194 8.88146V9.88646H19.3894C18.8424 9.88646 18.4024 10.0425 18.0604 10.3415C17.7924 10.5755 17.6174 10.8945 17.5284 11.3095C17.8394 11.0725 18.2204 10.9515 18.6484 10.9515C19.2254 10.9515 19.6894 11.1625 20.0124 11.5785C20.3404 12.0005 20.5134 12.5275 20.5134 13.1425C20.5134 13.8035 20.3274 14.3275 19.9404 14.7355C19.5494 15.1505 19.0424 15.3555 18.4084 15.3555C17.7644 15.3555 17.2374 15.1215 16.8294 14.6455C16.4284 14.1765 16.2394 13.5715 16.2394 12.7945V12.4455C16.2394 11.3335 16.5074 10.4615 17.0474 9.83146C17.5904 9.19746 18.3814 8.88146 19.4114 8.88146H19.6194ZM15.0494 8.85946V15.2685H13.8204V10.3405L12.4274 10.8185L12.2954 10.8765V9.79446L12.3604 9.75846L14.8134 8.85946H15.0494ZM5.90243 8.77246C6.55343 8.77246 7.06443 9.01646 7.46143 9.50646C7.84243 9.97646 8.02843 10.6255 8.02843 11.4425V11.7255C8.02843 12.8505 7.76443 13.7265 7.24243 14.3395C6.71843 14.9545 5.92543 15.2685 4.90043 15.2685H4.66943V14.2195H4.92143C5.49743 14.2195 5.93743 14.0805 6.25043 13.8075C6.53643 13.5605 6.72943 13.2285 6.79943 12.8315C6.48143 13.0935 6.12443 13.2195 5.70643 13.2195C5.13943 13.2195 4.67443 13.0165 4.32443 12.6205C3.98843 12.2385 3.82043 11.7005 3.82043 11.0505C3.82043 10.6345 3.90543 10.2485 4.06943 9.89746C4.22643 9.55946 4.47543 9.28146 4.80243 9.07146C5.11743 8.86846 5.48143 8.77246 5.90243 8.77246ZM10.0894 13.1955C10.3334 13.1955 10.5044 13.2585 10.5964 13.3985C10.7224 13.5245 10.7774 13.6785 10.7774 13.8825C10.7774 14.0795 10.7154 14.2515 10.5964 14.3455C10.4714 14.4695 10.2994 14.5275 10.0894 14.5275C9.88043 14.5275 9.70743 14.4695 9.58343 14.3455C9.45743 14.2195 9.40143 14.0655 9.40143 13.8615C9.40143 13.6575 9.45743 13.5035 9.59143 13.3695C9.72843 13.2605 9.90443 13.1955 10.0894 13.1955ZM18.4084 12.0005C18.2074 12.0005 18.0094 12.0605 17.8314 12.1795C17.6624 12.2925 17.5394 12.4455 17.4624 12.5975V12.9025C17.4624 13.3535 17.5494 13.6975 17.7254 13.9325C17.9134 14.1825 18.1274 14.3065 18.3874 14.3065C18.6664 14.3065 18.8734 14.2085 19.0254 13.9995C19.1904 13.7715 19.2674 13.5065 19.2674 13.1425C19.2674 12.7785 19.1904 12.5125 19.0254 12.2865C18.8774 12.0825 18.6964 12.0005 18.4084 12.0005ZM5.94543 9.79946C5.69143 9.79946 5.46143 9.91746 5.30743 10.1285C5.14543 10.3515 5.06443 10.6375 5.06443 11.0065C5.06443 11.3775 5.14543 11.6625 5.30743 11.8855C5.46643 12.1035 5.67843 12.2145 5.94543 12.2145C6.12743 12.2145 6.28143 12.1665 6.48543 12.0525C6.65143 11.9615 6.77143 11.8115 6.84843 11.6385V11.2245C6.84843 10.7755 6.76243 10.4285 6.58243 10.1705C6.40843 9.91746 6.20043 9.79946 5.94543 9.79946ZM10.0894 9.60046C10.3334 9.60046 10.5044 9.66346 10.5964 9.80346C10.7224 9.92946 10.7774 10.0845 10.7774 10.2885C10.7774 10.4845 10.7154 10.6555 10.5964 10.7505C10.4714 10.8755 10.2994 10.9325 10.0894 10.9325C9.88043 10.9325 9.70743 10.8755 9.58343 10.7505C9.45743 10.6245 9.40143 10.4705 9.40143 10.2665C9.40143 10.0625 9.45743 9.90846 9.59143 9.77446C9.72843 9.66546 9.90443 9.60046 10.0894 9.60046Z" fill="white"/>
</svg>
