<svg width="24" height="24" viewBox="0 0 24 24" fill="none" xmlns="http://www.w3.org/2000/svg">
<path d="M23 15.8199C23 17.8377 21.3639 19.4738 19.3461 19.4738H4.6539C2.6359 19.4738 1 17.8378 1 15.8199V8.18027C1 6.16217 2.6358 4.52637 4.6539 4.52637H19.3461C21.3639 4.52637 23 6.16227 23 8.18027V15.8199ZM16.0071 10.4354C16.1995 10.1568 16.1714 9.77187 15.923 9.52427C15.6437 9.24577 15.1914 9.24647 14.9129 9.52587L11.3273 13.1202L9.0871 10.8726L8.9883 10.7898C8.7102 10.5965 8.3253 10.6234 8.077 10.871C7.7976 11.1495 7.7969 11.6018 8.0754 11.8812L10.5461 14.3594L10.6503 14.4517C11.0842 14.79 11.7127 14.7593 12.1113 14.3594L15.9246 10.5345L16.0071 10.4354Z" fill="white"/>
</svg>
