<svg width="24" height="24" viewBox="0 0 24 24" fill="none" xmlns="http://www.w3.org/2000/svg">
<path d="M5.58387 7.00391C6.51357 7.00391 7.27417 7.24001 7.80607 7.70631C8.34667 8.17841 8.61917 8.85161 8.61917 9.68801C8.61917 10.1324 8.48217 10.5433 8.20967 10.9178C8.00717 11.1961 7.74777 11.4351 7.46357 11.6071C7.81337 11.7703 8.10187 12.0078 8.36417 12.3269C8.65407 12.6824 8.77647 13.1341 8.77647 13.7199C8.77647 14.5534 8.47487 15.2616 7.90217 15.7657C7.32807 16.2728 6.55877 16.5337 5.61597 16.5337C4.70527 16.5337 3.94897 16.2889 3.39237 15.7978C2.81237 15.2863 2.51807 14.6394 2.51807 13.8481V13.7024H4.30017V13.8481C4.30017 14.2081 4.42257 14.5024 4.67177 14.6977C4.89027 14.9177 5.23127 15.0357 5.64797 15.0357C6.08227 15.0357 6.39987 14.9264 6.66217 14.6918C6.91137 14.4718 7.02647 14.1643 7.02647 13.7199C7.02647 13.2769 6.91137 12.9709 6.66217 12.7495C6.40577 12.5221 6.02837 12.4056 5.52127 12.4056H4.36427L4.35987 10.9091H5.42507C5.85057 10.9091 6.17407 10.8027 6.44797 10.59C6.68547 10.4035 6.80357 10.1062 6.80357 9.68801C6.80357 9.29601 6.70007 9.00901 6.49757 8.80641C6.30077 8.61121 5.98457 8.50041 5.58387 8.50041C5.22107 8.50041 4.93397 8.60531 4.69507 8.81371C4.47797 9.00461 4.36427 9.28001 4.36427 9.62531V9.76961H2.58077V9.62531C2.58077 9.12411 2.71477 8.68261 2.98727 8.27461C3.24377 7.88991 3.59927 7.58391 4.05977 7.33621C4.51437 7.10891 5.00837 7.00391 5.58387 7.00391ZM20.5561 7.11471V12.9243H21.6679V14.4208H20.5561V16.4215H18.774V14.4208H14.8732L14.8688 14.2809L14.8586 13.2784L18.8556 7.11471H20.5561ZM11.7531 13.2643C12.105 13.2643 12.3532 13.3565 12.4848 13.5584C12.6672 13.7409 12.7471 13.9634 12.7471 14.2586C12.7471 14.5415 12.6578 14.7897 12.4848 14.927C12.3052 15.1069 12.0559 15.19 11.7531 15.19C11.4504 15.19 11.2011 15.1069 11.0215 14.927C10.8391 14.7449 10.7589 14.522 10.7589 14.2272C10.7589 13.9324 10.8391 13.7094 11.0334 13.5165C11.2307 13.3586 11.4851 13.2643 11.7531 13.2643ZM18.7419 9.81771L16.7996 12.9243H18.7419V9.81771ZM11.7531 8.06901C12.105 8.06901 12.3532 8.16111 12.4848 8.36311C12.6672 8.54551 12.7471 8.76811 12.7471 9.06321C12.7471 9.34611 12.6578 9.59431 12.4848 9.73161C12.3052 9.91121 12.0559 9.99431 11.7531 9.99431C11.4504 9.99431 11.2011 9.91121 11.0215 9.73161C10.8391 9.54951 10.7589 9.32661 10.7589 9.03181C10.7589 8.73661 10.8391 8.51411 11.0334 8.32081C11.2307 8.16331 11.4851 8.06901 11.7531 8.06901Z" fill="white"/>
</svg>
