<svg width="24" height="24" viewBox="0 0 24 24" fill="none" xmlns="http://www.w3.org/2000/svg">
<path d="M17.0815 2.375C19.3786 2.375 21.4256 4.2382 21.4256 6.4712C21.4256 6.8164 21.1458 7.0962 20.8006 7.0962C20.4555 7.0962 20.1756 6.8164 20.1756 6.4712C20.1756 5.0102 18.8157 3.7203 17.2556 3.63L17.0815 3.625H6.9172C5.2855 3.625 3.823 4.9561 3.823 6.4712C3.823 6.8164 3.5432 7.0962 3.198 7.0962C2.8528 7.0962 2.573 6.8164 2.573 6.4712C2.573 4.3058 4.4979 2.4882 6.7091 2.3801L6.9172 2.375H17.0815Z" fill="white"/>
<path d="M20.8006 16.8057C21.1457 16.8057 21.4256 17.0855 21.4256 17.4307C21.4256 19.5961 19.5007 21.4137 17.2895 21.5218L17.0814 21.5269H6.91708C4.61998 21.5269 2.57288 19.6637 2.57288 17.4307C2.57288 17.0855 2.85278 16.8057 3.19788 16.8057C3.54308 16.8057 3.82288 17.0855 3.82288 17.4307C3.82288 18.8917 5.18288 20.1816 6.74298 20.2719L6.91708 20.2769H17.0814C18.7131 20.2769 20.1756 18.9458 20.1756 17.4307C20.1756 17.0855 20.4554 16.8057 20.8006 16.8057Z" fill="white"/>
<path d="M13.7019 10.3345C14.3479 10.3345 14.8629 10.5405 15.2379 10.9525C15.6119 11.3635 15.7969 11.9405 15.7969 12.6805V13.2735H12.9329C12.9809 13.4945 13.1339 13.7415 13.2869 13.8795C13.4649 14.0415 13.6379 14.0535 13.9149 14.0535C14.3509 14.0535 14.6859 13.8985 14.9289 13.5855L14.9989 13.5075L15.7269 14.3135L15.6829 14.3705C15.4909 14.6415 15.2319 14.8535 14.9069 15.0025C14.5849 15.1525 14.2269 15.2275 13.8359 15.2275C13.1469 15.2275 12.5809 15.0145 12.1449 14.5885C11.7079 14.1625 11.4899 13.5935 11.4899 12.8905V12.7725C11.4899 12.3035 11.5799 11.8815 11.7629 11.5095C11.9479 11.1335 12.2099 10.8425 12.5479 10.6395C12.8859 10.4365 13.2719 10.3345 13.7019 10.3345ZM18.4829 10.3345C19.1289 10.3345 19.6429 10.5405 20.0189 10.9525C20.3929 11.3635 20.5779 11.9405 20.5779 12.6805V13.2735H17.7139C17.7629 13.4945 17.8629 13.6725 18.0159 13.8115C18.1939 13.9735 18.4179 14.0535 18.6959 14.0535C19.1329 14.0535 19.4669 13.8985 19.7089 13.5855L19.7839 13.5035L20.5139 14.3025L20.4639 14.3705C20.2719 14.6415 20.0129 14.8525 19.6879 15.0025C19.3649 15.1535 19.0079 15.2275 18.6169 15.2275C17.9279 15.2275 17.3619 15.0145 16.9259 14.5885C16.4889 14.1625 16.2699 13.5935 16.2699 12.8905V12.7725C16.2699 12.3025 16.3609 11.8815 16.5439 11.5095C16.7279 11.1335 16.9899 10.8435 17.3289 10.6395C17.6669 10.4365 18.0529 10.3345 18.4829 10.3345ZM7.88595 8.85352V10.0685H5.17495V11.4425H7.58495V12.6555H5.17495V15.1445H3.72095V8.85352H7.88595ZM10.6189 10.3345C10.7629 10.3345 10.8979 10.3535 11.0249 10.3935L11.0949 10.4345L11.0779 11.7715L10.9649 11.7505C10.8059 11.7285 10.6649 11.7175 10.5439 11.7175C10.1219 11.7175 9.85895 11.8535 9.74395 12.0825V15.1445H8.33495V10.4175H9.67695V10.5115L9.69295 10.7675C9.93495 10.4805 10.2449 10.3345 10.6189 10.3345ZM13.6979 11.5125C13.4849 11.5125 13.3169 11.5825 13.1869 11.7235C13.0719 11.8485 12.9909 12.0235 12.9449 12.2505H14.4099C14.4039 12.0085 14.3399 11.8275 14.2199 11.7015C14.0999 11.5765 13.9289 11.5125 13.6979 11.5125ZM18.4789 11.5125C18.2659 11.5125 18.0979 11.5825 17.9689 11.7235C17.8529 11.8485 17.7709 12.0235 17.7259 12.2505H19.1909C19.1839 12.0085 19.1199 11.8275 19.0009 11.7015C18.8809 11.5755 18.7099 11.5125 18.4789 11.5125Z" fill="white"/>
</svg>
