<svg width="24" height="24" viewBox="0 0 24 24" fill="none" xmlns="http://www.w3.org/2000/svg">
<path d="M8.71156 8.77246V15.2275H7.39966V10.3598L5.88696 10.8785V9.70696L5.98366 9.66756L8.43366 8.77246H8.71156ZM17.4633 8.77246V15.2275H16.1507L16.1512 10.3598L14.6388 10.8785V9.71016L14.7355 9.66756L17.1854 8.77246H17.4633ZM11.8913 13.1224C12.1328 13.1224 12.3031 13.1857 12.3934 13.3243C12.5186 13.4495 12.5734 13.6022 12.5734 13.8048C12.5734 13.9989 12.5121 14.1693 12.3934 14.2635C12.2701 14.387 12.0991 14.444 11.8913 14.444C11.6835 14.444 11.5124 14.387 11.3892 14.2635C11.264 14.1385 11.2089 13.9855 11.2089 13.7832C11.2089 13.5809 11.264 13.4279 11.3974 13.2955C11.5327 13.1872 11.7073 13.1224 11.8913 13.1224ZM11.8913 9.55696C12.1328 9.55696 12.3031 9.62016 12.3934 9.75876C12.5186 9.88396 12.5734 10.0368 12.5734 10.2393C12.5734 10.4335 12.5121 10.6038 12.3934 10.698C12.2701 10.8213 12.0991 10.8783 11.8913 10.8783C11.6835 10.8783 11.5124 10.8213 11.3892 10.698C11.264 10.5731 11.2089 10.4201 11.2089 10.2178C11.2089 10.0152 11.264 9.86246 11.3974 9.72976C11.5327 9.62166 11.7073 9.55696 11.8913 9.55696Z" fill="white"/>
<path d="M17.0815 2.375C19.3786 2.375 21.4256 4.2382 21.4256 6.4712C21.4256 6.8164 21.1458 7.0962 20.8006 7.0962C20.4555 7.0962 20.1756 6.8164 20.1756 6.4712C20.1756 5.0102 18.8157 3.7203 17.2556 3.63L17.0815 3.625H6.9172C5.2855 3.625 3.823 4.9561 3.823 6.4712C3.823 6.8164 3.5432 7.0962 3.198 7.0962C2.8528 7.0962 2.573 6.8164 2.573 6.4712C2.573 4.3058 4.4979 2.4882 6.7091 2.3801L6.9172 2.375H17.0815Z" fill="white"/>
<path d="M20.8007 16.8057C21.1458 16.8057 21.4257 17.0855 21.4257 17.4307C21.4257 19.5961 19.5008 21.4137 17.2896 21.5218L17.0815 21.5269H6.9172C4.6201 21.5269 2.573 19.6637 2.573 17.4307C2.573 17.0855 2.8529 16.8057 3.198 16.8057C3.5432 16.8057 3.823 17.0855 3.823 17.4307C3.823 18.8917 5.183 20.1816 6.7431 20.2719L6.9172 20.2769H17.0815C18.7132 20.2769 20.1757 18.9458 20.1757 17.4307C20.1757 17.0855 20.4555 16.8057 20.8007 16.8057Z" fill="white"/>
</svg>
