<svg width="24" height="24" viewBox="0 0 24 24" fill="none" xmlns="http://www.w3.org/2000/svg">
<path d="M19.6558 17.5508C19.6558 17.9643 19.3193 18.3008 18.9058 18.3008H15.2475C13.835 18.3008 13.2032 18.6212 12.7245 19.0493V6.98153C12.7395 6.92223 12.75 6.86123 12.75 6.79723C12.75 6.42833 13.5227 5.36133 14.9975 5.36133H18.9058C19.3193 5.36133 19.6558 5.69773 19.6558 6.11123V17.5508ZM8.75101 18.3008H5.09421C4.68071 18.3008 4.34421 17.9643 4.34421 17.5508V6.11123C4.34421 5.69773 4.68071 5.36133 5.09421 5.36133H9.00101C10.3282 5.36133 11.0852 6.22303 11.2245 6.66533V19.0045C10.751 18.599 10.1143 18.3008 8.75101 18.3008ZM18.9058 3.86133H14.9975C13.6897 3.86133 12.6525 4.42983 12.0037 5.14003C11.9058 5.03333 11.7987 4.93003 11.684 4.83123C10.956 4.20583 10.0033 3.86133 9.00101 3.86133H5.09421C3.85371 3.86133 2.84421 4.87083 2.84421 6.11123V17.5508C2.84421 18.7912 3.85371 19.8008 5.09421 19.8008H8.75101C9.93471 19.8008 10.1545 20.0298 10.4585 20.3465C10.6093 20.5032 10.7968 20.6985 11.068 20.8698C11.351 21.0485 11.6755 21.1378 11.9998 21.1378C12.3243 21.1378 12.6488 21.0482 12.9318 20.8698C13.2032 20.6982 13.3907 20.503 13.5413 20.346C13.845 20.0295 14.0645 19.8008 15.2475 19.8008H18.9058C20.1462 19.8008 21.1558 18.7912 21.1558 17.5508V6.11123C21.1558 4.87083 20.1462 3.86133 18.9058 3.86133Z" fill="white"/>
</svg>
