<svg width="24" height="24" viewBox="0 0 24 24" fill="none" xmlns="http://www.w3.org/2000/svg">
<path fill-rule="evenodd" clip-rule="evenodd" d="M8.00131 5.40177C9.85421 5.40177 11.0002 6.27677 11.0002 7.08777V18.3488C11.0002 18.4338 10.9583 18.5128 10.8853 18.5588C10.8442 18.5848 10.7972 18.5988 10.7502 18.5988C10.7153 18.5988 10.6792 18.5908 10.6462 18.5748L10.5392 18.5268C9.87721 18.2208 8.80331 17.8408 7.75121 17.8408H4.59421C3.76531 17.8408 3.09421 17.1688 3.09421 16.3408V6.90177C3.09421 6.07277 3.76531 5.40177 4.59421 5.40177H8.00131ZM19.4058 5.40137C20.2348 5.40137 20.9058 6.07337 20.9058 6.90137V16.3404C20.9058 17.1694 20.2348 17.8404 19.4058 17.8404H16.2477C15.1958 17.8404 14.1217 18.2214 13.4598 18.5264L13.3547 18.5754C13.3228 18.5904 13.2858 18.5984 13.2498 18.5984C13.2028 18.5984 13.1558 18.5854 13.1147 18.5584C13.0438 18.5124 12.9998 18.4334 12.9998 18.3484V7.08837C12.9998 6.27637 14.1458 5.40137 15.9977 5.40137H19.4058Z" fill="white"/>
</svg>
