<svg width="24" height="24" viewBox="0 0 24 24" fill="none" xmlns="http://www.w3.org/2000/svg">
<path d="M15.1668 8.96273C15.2758 9.05373 16.5218 10.1327 16.5218 12.0857C16.5218 14.0387 15.2758 15.1177 15.1668 15.2097M17.3138 6.10433C17.5868 6.33533 19.9758 8.43433 19.9748 12.0863C19.9748 15.7383 17.5868 17.8363 17.3138 18.0673M8.304 19.6312C9.408 19.6312 10.304 18.7352 10.304 17.6312V12.3232C10.304 11.7732 10.754 11.3232 11.304 11.3232H11.414C11.965 11.3232 12.297 10.8882 12.154 10.3572L10.838 5.47423C10.673 4.86423 10.022 4.36523 9.39 4.36523H6.03C4.931 4.36523 4.03 5.26523 4.03 6.36523V17.6312C4.03 18.7352 4.926 19.6312 6.03 19.6312H8.304Z" stroke="white" stroke-width="1.5" stroke-linecap="round" stroke-linejoin="round"/>
</svg>
