<svg width="24" height="24" viewBox="0 0 24 24" fill="none" xmlns="http://www.w3.org/2000/svg">
<path fill-rule="evenodd" clip-rule="evenodd" d="M12.75 19.0942C12.75 19.3062 12.999 19.4232 13.16 19.2852C14.12 18.4692 14.805 18.3382 15.684 18.3382H18.066H19C20.1 18.3382 21 17.4382 21 16.3382V6.66016C21 5.56016 20.1 4.66016 19 4.66016H15.25C13.869 4.66016 12.75 5.77916 12.75 7.16016V19.0942ZM11.25 19.0942C11.25 19.3062 11.001 19.4232 10.84 19.2852C9.88 18.4692 9.195 18.3382 8.316 18.3382H5.934H5C3.9 18.3382 3 17.4382 3 16.3382V6.66016C3 5.56016 3.9 4.66016 5 4.66016H8.75C10.125 4.66016 11.25 5.78516 11.25 7.16016V19.0942Z" fill="white"/>
</svg>
