<svg width="24" height="24" viewBox="0 0 24 24" fill="none" xmlns="http://www.w3.org/2000/svg">
<path fill-rule="evenodd" clip-rule="evenodd" d="M8.014 16.5C8.152 16.5 8.264 16.611 8.264 16.75V19.984C8.264 20.521 8.586 20.661 8.979 20.298L13.255 16.62C13.346 16.543 13.461 16.5 13.581 16.5H17.75C19.406 16.5 20.75 15.156 20.75 13.5V6.5C20.75 4.843 19.406 3.5 17.75 3.5H6.25C4.593 3.5 3.25 4.843 3.25 6.5V13.5C3.25 15.156 4.593 16.5 6.25 16.5H8.014ZM13.4305 7.4151C13.4305 8.2051 12.7895 8.8461 11.9995 8.8461C11.2095 8.8461 10.5685 8.2051 10.5685 7.4151C10.5685 6.6251 11.2095 5.9841 11.9995 5.9841C12.7895 5.9841 13.4305 6.6251 13.4305 7.4151ZM14.9711 12.9385C14.9711 11.7375 13.6411 10.6235 11.9991 10.6235C10.3591 10.6235 9.0281 11.7375 9.0281 12.9385V13.2645C9.0281 13.5075 9.2461 13.7055 9.5161 13.7055H14.4831C14.7521 13.7055 14.9711 13.5075 14.9711 13.2645V12.9385Z" stroke="white" stroke-width="1.5" stroke-linecap="round" stroke-linejoin="round"/>
</svg>
