<svg width="24" height="24" viewBox="0 0 24 24" fill="none" xmlns="http://www.w3.org/2000/svg">
<path d="M18.699 10.5904C18.654 11.4824 18.225 12.6034 16.861 13.2664C16.67 13.3594 16.438 13.2794 16.345 13.0884C16.253 12.8964 16.342 12.6824 16.524 12.5724C17.143 12.1994 17.286 11.8614 17.227 11.5814C16.689 11.4504 16.287 10.9504 16.287 10.3514C16.287 9.65144 16.832 9.08444 17.505 9.08444C17.781 9.08444 18.034 9.18444 18.238 9.34544C18.442 9.50644 18.593 9.73144 18.668 9.99244C18.7 10.1064 18.706 10.4924 18.699 10.5904ZM15.548 10.5904C15.503 11.4824 15.074 12.6034 13.71 13.2664C13.518 13.3594 13.287 13.2794 13.194 13.0884C13.101 12.8964 13.19 12.6824 13.373 12.5724C13.992 12.1994 14.135 11.8614 14.077 11.5814C13.538 11.4504 13.136 10.9504 13.136 10.3514C13.136 9.65144 13.68 9.08444 14.353 9.08444C14.63 9.08444 14.883 9.18444 15.087 9.34544C15.291 9.50644 15.441 9.73144 15.516 9.99244C15.549 10.1064 15.554 10.4924 15.548 10.5904ZM9.86 10.9014C9.584 10.9014 9.331 10.8014 9.127 10.6394C8.923 10.4794 8.772 10.2544 8.697 9.99344C8.665 9.87944 8.659 9.49244 8.666 9.39544C8.711 8.50344 9.139 7.38244 10.504 6.71944C10.695 6.62644 10.927 6.70644 11.019 6.89844C11.112 7.08944 11.023 7.30344 10.841 7.41344C10.221 7.78644 10.079 8.12444 10.137 8.40344C10.676 8.53444 11.078 9.03444 11.078 9.63444C11.078 10.3344 10.533 10.9014 9.86 10.9014ZM6.709 10.9014C6.432 10.9014 6.179 10.8014 5.975 10.6394C5.772 10.4794 5.621 10.2544 5.546 9.99344C5.513 9.87944 5.508 9.49244 5.514 9.39544C5.559 8.50344 5.988 7.38244 7.352 6.71944C7.544 6.62644 7.775 6.70644 7.868 6.89844C7.961 7.08944 7.872 7.30344 7.689 7.41344C7.071 7.78644 6.928 8.12444 6.986 8.40344C7.524 8.53444 7.927 9.03444 7.927 9.63444C7.927 10.3344 7.382 10.9014 6.709 10.9014ZM17.625 3.39844H6.125C4.612 3.39844 3.375 4.63544 3.375 6.14844V13.5964C3.375 15.2464 4.724 16.5964 6.375 16.5964L8.422 16.6024L8.415 20.0734C8.415 20.6234 8.746 20.7674 9.149 20.3944L13.565 16.5964H17.625C19.275 16.5964 20.625 15.2464 20.625 13.5964V6.39844C20.625 4.74844 19.275 3.39844 17.625 3.39844Z" fill="white"/>
</svg>
