<svg width="24" height="24" viewBox="0 0 24 24" fill="none" xmlns="http://www.w3.org/2000/svg">
<path d="M6.6018 10.9018C6.3248 10.9018 6.0718 10.8008 5.8678 10.6388C5.6648 10.4788 5.5138 10.2548 5.4388 9.99383C5.4058 9.87983 5.4008 9.49283 5.4068 9.39483C5.4518 8.50383 5.8808 7.38183 7.2448 6.71883C7.4368 6.62683 7.6678 6.70683 7.7608 6.89783C7.8538 7.08883 7.7648 7.30283 7.5818 7.41383C6.9638 7.78683 6.8208 8.12483 6.8788 8.40383C7.4168 8.53483 7.8198 9.03483 7.8198 9.63383C7.8198 10.3348 7.2748 10.9018 6.6018 10.9018ZM9.7527 10.9018C9.4767 10.9018 9.2237 10.8008 9.0197 10.6388C8.8157 10.4788 8.6647 10.2548 8.5897 9.99383C8.5577 9.87983 8.5517 9.49283 8.5587 9.39483C8.6037 8.50383 9.0317 7.38183 10.3967 6.71883C10.5877 6.62683 10.8197 6.70683 10.9117 6.89783C11.0047 7.08883 10.9157 7.30283 10.7337 7.41383C10.1137 7.78683 9.9717 8.12483 10.0297 8.40383C10.5687 8.53483 10.9707 9.03483 10.9707 9.63383C10.9707 10.3348 10.4257 10.9018 9.7527 10.9018ZM15.4408 10.5903C15.3958 11.4823 14.9668 12.6033 13.6028 13.2663C13.4108 13.3593 13.1798 13.2793 13.0868 13.0883C12.9938 12.8963 13.0828 12.6823 13.2658 12.5723C13.8848 12.1993 14.0278 11.8613 13.9698 11.5813C13.4308 11.4503 13.0288 10.9503 13.0288 10.3513C13.0288 9.65233 13.5728 9.08433 14.2458 9.08433C14.5228 9.08433 14.7758 9.18433 14.9798 9.34533C15.1838 9.50633 15.3338 9.73133 15.4088 9.99233C15.4418 10.1063 15.4468 10.4923 15.4408 10.5903ZM18.5918 10.5903C18.5468 11.4823 18.1178 12.6033 16.7538 13.2663C16.5628 13.3593 16.3308 13.2793 16.2378 13.0883C16.1458 12.8963 16.2348 12.6823 16.4168 12.5723C17.0358 12.1993 17.1788 11.8613 17.1198 11.5813C16.5818 11.4503 16.1798 10.9503 16.1798 10.3513C16.1798 9.65233 16.7248 9.08433 17.3978 9.08433C17.6738 9.08433 17.9268 9.18433 18.1308 9.34533C18.3348 9.50633 18.4858 9.73133 18.5608 9.99233C18.5928 10.1063 18.5988 10.4923 18.5918 10.5903Z" fill="white"/>
<path fill-rule="evenodd" clip-rule="evenodd" d="M8.014 16.5C8.152 16.5 8.264 16.611 8.264 16.75V19.984C8.264 20.521 8.586 20.661 8.979 20.298L13.255 16.62C13.346 16.542 13.461 16.5 13.581 16.5H17.75C19.406 16.5 20.75 15.156 20.75 13.5V6.5C20.75 4.843 19.406 3.5 17.75 3.5H6.25C4.593 3.5 3.25 4.843 3.25 6.5V13.5C3.25 15.156 4.593 16.5 6.25 16.5H8.014Z" stroke="white" stroke-width="1.5" stroke-linecap="round" stroke-linejoin="round"/>
</svg>
