<svg width="24" height="24" viewBox="0 0 24 24" fill="none" xmlns="http://www.w3.org/2000/svg">
<path d="M13.9599 6.53906C13.5459 6.53906 13.2099 6.20306 13.2099 5.78906C13.2099 5.37506 13.5459 5.03906 13.9599 5.03906H18.8159C19.2299 5.03906 19.5659 5.37506 19.5659 5.78906C19.5659 6.20306 19.2299 6.53906 18.8159 6.53906H13.9599ZM13.9599 10.8391C13.5459 10.8391 13.2099 10.5031 13.2099 10.0891C13.2099 9.67506 13.5459 9.33906 13.9599 9.33906H18.8159C19.2299 9.33906 19.5659 9.67506 19.5659 10.0891C19.5659 10.5031 19.2299 10.8391 18.8159 10.8391H13.9599ZM4.6499 15.1391C4.2359 15.1391 3.8999 14.8041 3.8999 14.3891C3.8999 13.9751 4.2359 13.6391 4.6499 13.6391H19.1499C19.5639 13.6391 19.8999 13.9751 19.8999 14.3891C19.8999 14.8041 19.5639 15.1391 19.1499 15.1391H4.6499ZM4.6499 19.4391C4.2359 19.4391 3.8999 19.1041 3.8999 18.6891C3.8999 18.2751 4.2359 17.9391 4.6499 17.9391H19.1499C19.5639 17.9391 19.8999 18.2751 19.8999 18.6891C19.8999 19.1041 19.5639 19.4391 19.1499 19.4391H4.6499Z" fill="white"/>
<path fill-rule="evenodd" clip-rule="evenodd" d="M5.95996 11.0996H8.95996C9.92596 11.0996 10.71 10.3156 10.71 9.34961V6.34961C10.71 5.38261 9.92596 4.59961 8.95996 4.59961H5.95996C4.99296 4.59961 4.20996 5.38261 4.20996 6.34961V9.34961C4.20996 10.3156 4.99296 11.0996 5.95996 11.0996Z" stroke="white" stroke-width="1.5" stroke-linecap="round" stroke-linejoin="round"/>
</svg>
