<svg width="24" height="24" viewBox="0 0 24 24" fill="none" xmlns="http://www.w3.org/2000/svg">
<path d="M5.2821 10.1559C5.12575 9.99135 4.87598 9.90753 4.53196 9.90527H3.56592V11.6945H4.51728C4.84917 11.6945 5.09837 11.611 5.26517 11.4437C5.43252 11.2766 5.51606 11.066 5.51606 10.8126C5.51606 10.5397 5.43817 10.3207 5.2821 10.1559Z" fill="white"/>
<path d="M22.4454 6.39633C22.2992 6.39633 22.1527 6.43951 22.0093 6.52503L17.7721 8.98655V7.53509C17.7721 5.98288 16.5021 4.71289 14.9499 4.71289H3.9433C2.39108 4.71289 1.12109 5.98288 1.12109 7.53509V16.2839C1.12109 17.8361 2.39108 19.1061 3.9433 19.1061H14.9499C16.5021 19.1061 17.7721 17.8361 17.7721 16.2839V14.8237L22.0065 17.2711C22.1569 17.3713 22.3119 17.4221 22.4668 17.4221C22.7987 17.4221 23.1343 17.1625 23.1343 16.6663V7.16454C23.1343 6.66021 22.7877 6.39633 22.4454 6.39633ZM6.65769 14.4904H5.66992L4.60143 12.4378H3.56597V14.4904H2.64395V9.16322H4.51733C5.12975 9.16322 5.60275 9.29953 5.9369 9.573C6.27133 9.84619 6.43812 10.245 6.43812 10.7693C6.43812 11.1255 6.35148 11.4241 6.1782 11.6659C6.0052 11.9072 5.76587 12.0915 5.46107 12.2183L6.65741 14.443L6.65769 14.4904ZM10.8069 14.4904H7.32373V9.16322H10.7812V9.90602H8.24574V11.3806H10.4338V12.1088H8.24574V13.7516H10.8069V14.4904ZM12.6058 13.3291C12.7943 13.6542 13.1047 13.8173 13.5368 13.8173C13.9342 13.8173 14.2164 13.7259 14.384 13.5427C14.5505 13.3598 14.6564 13.0974 14.7004 12.7562H15.6221C15.5758 13.2732 15.3803 13.7036 15.0351 14.0476C14.69 14.3916 14.1907 14.5635 13.5368 14.5635C12.8804 14.5635 12.3585 14.3352 11.9708 13.8788C11.583 13.423 11.3888 12.8106 11.3888 12.0424V11.6106C11.3888 10.8447 11.5864 10.2331 11.9818 9.77564C12.3772 9.31844 12.9097 9.08956 13.5805 9.08956C14.2172 9.08956 14.7038 9.26228 15.0408 9.60715C15.3774 9.95259 15.5727 10.3909 15.6261 10.9226H14.7035C14.6643 10.5836 14.5624 10.3178 14.3981 10.125C14.2333 9.93227 13.961 9.83632 13.5803 9.83632C13.1609 9.83632 12.8471 9.98928 12.6382 10.2952C12.4299 10.6017 12.3241 11.0312 12.3216 11.585V12.0424C12.3216 12.5744 12.4161 13.0028 12.6058 13.3291Z" fill="white"/>
</svg>
