<svg width="24" height="24" viewBox="0 0 24 24" fill="none" xmlns="http://www.w3.org/2000/svg">
<g clip-path="url(#clip0_1074_14215)">
<path d="M17.2502 15.1502C17.2502 16.3082 16.3082 17.2502 15.1502 17.2502H6.7502V8.8502C6.7502 7.6922 7.6922 6.7502 8.8502 6.7502H17.2502V15.1502ZM22.6502 4.9502H19.0502V1.3502C19.0502 0.852195 18.647 0.450195 18.1502 0.450195C17.6534 0.450195 17.2502 0.852195 17.2502 1.3502V4.9502H8.8502C6.6998 4.9502 4.9502 6.6998 4.9502 8.8502V17.2502H1.3502C0.853395 17.2502 0.450195 17.6522 0.450195 18.1502C0.450195 18.647 0.853395 19.0502 1.3502 19.0502H4.9502V22.6502C4.9502 23.147 5.3534 23.5502 5.8502 23.5502C6.347 23.5502 6.7502 23.147 6.7502 22.6502V19.0502H15.1502C17.3006 19.0502 19.0502 17.3006 19.0502 15.1502V6.7502H22.6502C23.147 6.7502 23.5502 6.347 23.5502 5.8502C23.5502 5.3522 23.147 4.9502 22.6502 4.9502Z" fill="white"/>
</g>
<defs>
<clipPath id="clip0_1074_14215">
<rect width="24" height="24" fill="white"/>
</clipPath>
</defs>
</svg>
