<svg width="24" height="24" viewBox="0 0 24 24" fill="none" xmlns="http://www.w3.org/2000/svg">
<path d="M19.6821 7.52275L16.3781 4.21975C16.0851 3.92675 15.6111 3.92675 15.3181 4.21975C15.0251 4.51275 15.0251 4.98775 15.3181 5.28075L17.6981 7.66075H14.2081C8.59613 7.66075 3.99512 12.2638 3.95312 17.9138C3.95312 17.9378 3.95312 19.2258 3.95312 19.2508C3.95312 19.6648 4.28813 20.0008 4.70312 20.0008C5.11812 20.0008 5.45312 19.6648 5.45312 19.2508C5.45312 19.2258 5.45312 18.0017 5.45312 17.9337C5.49013 13.0957 9.41713 9.16075 14.2081 9.16075H17.6951L15.3241 11.5407C15.0321 11.8347 15.0331 12.3088 15.3261 12.6018C15.4721 12.7478 15.6631 12.8197 15.8551 12.8197C16.0471 12.8197 16.2401 12.7468 16.3871 12.5988L19.6841 9.28975C20.1691 8.80175 20.1681 8.00875 19.6821 7.52275Z" fill="white"/>
</svg>
