<svg width="24" height="24" viewBox="0 0 24 24" fill="none" xmlns="http://www.w3.org/2000/svg">
<path fill-rule="evenodd" clip-rule="evenodd" d="M12.3503 8.24512L12.3573 15.4401L10.8743 15.4411L10.8713 12.3571L7.98026 12.3601L7.98326 15.4441L6.49626 15.4451L6.48926 8.25112L7.97626 8.24912L7.97926 11.1651L10.8703 11.1621L10.8673 8.24612L12.3503 8.24512ZM17.7327 10.0878L17.7337 10.9278L15.1967 14.2858L17.8117 14.2828L17.8127 15.4338L13.3747 15.4388L13.3737 14.5688L15.8957 11.2408L13.4497 11.2428L13.4487 10.0918L17.7327 10.0878Z" fill="white"/>
<path d="M17.513 20L6.513 20.011C5.132 20.012 4.012 18.894 4.011 17.513L4 6.513C3.999 5.133 5.117 4.012 6.497 4.011L17.497 4C18.878 3.999 19.999 5.117 20 6.498L20.011 17.498C20.012 18.878 18.894 19.999 17.513 20Z" stroke="white" stroke-width="1.5" stroke-linecap="round" stroke-linejoin="round"/>
</svg>
