<svg width="24" height="24" viewBox="0 0 24 24" fill="none" xmlns="http://www.w3.org/2000/svg">
<path d="M9.7401 19.305C10.3461 19.737 11.1351 20 12.0001 20C12.8661 20 13.6551 19.737 14.2601 19.305M5.0831 15.137L6.5721 12.044C6.6261 11.932 6.6541 11.81 6.6541 11.685V9.135C6.6581 9.113 6.6591 9.089 6.6601 9.067C6.7761 6.225 9.1201 4 12.0001 4C14.8801 4 17.2241 6.225 17.3401 9.067L17.3461 9.136V11.686C17.3461 11.81 17.3741 11.932 17.4281 12.044L18.9171 15.137C19.1841 15.691 18.7751 16.329 18.1551 16.329H5.8451C5.2251 16.329 4.8161 15.691 5.0831 15.137Z" stroke="white" stroke-width="1.5" stroke-linecap="round" stroke-linejoin="round"/>
</svg>
