<svg width="24" height="24" viewBox="0 0 24 24" fill="none" xmlns="http://www.w3.org/2000/svg">
<path fill-rule="evenodd" clip-rule="evenodd" d="M13.7323 18.4299C14.0929 18.0693 14.6771 18.0693 15.0378 18.4299C15.3974 18.7905 15.3974 19.3737 15.0378 19.7343C14.2996 20.4725 13.3189 20.8785 12.276 20.8785C11.2331 20.8785 10.2524 20.4725 9.51424 19.7343C9.15464 19.3737 9.15464 18.7905 9.51424 18.4299C9.87494 18.0693 10.4591 18.0693 10.8197 18.4299C11.2088 18.818 11.7266 19.0331 12.276 19.0331C12.8265 19.0331 13.3442 18.818 13.7323 18.4299ZM3.49445 3.35118C3.78655 3.05808 4.24945 3.04648 4.56055 3.30798L20.1073 18.8558C20.3688 19.1658 20.3572 19.6288 20.064 19.9209C19.9101 20.0759 19.7076 20.1529 19.5051 20.1529C19.3027 20.1529 19.1002 20.0759 18.9463 19.9209L15.8354 16.8111H6.04425C5.04245 16.8111 4.29275 16.4188 4.49515 15.4371L6.47665 11.2749V8.75878C6.49875 8.36758 6.55255 7.98578 6.64215 7.61778L3.49445 4.47008C3.18545 4.16108 3.18545 3.65918 3.49445 3.35118ZM12.2759 3.19698C15.3994 3.19698 17.945 5.66658 18.0705 8.75948H18.0757V11.2746L20.0572 15.4368C20.1415 15.847 20.0582 16.1538 19.861 16.3721L8.28245 4.79348C9.32225 3.80538 10.7279 3.19698 12.2759 3.19698Z" fill="white"/>
</svg>
