<svg width="24" height="24" viewBox="0 0 24 24" fill="none" xmlns="http://www.w3.org/2000/svg">
<path fill-rule="evenodd" clip-rule="evenodd" d="M13.4602 18.4072C13.8206 18.0457 14.4062 18.0457 14.7677 18.4072C15.1292 18.7677 15.1292 19.3533 14.7677 19.7148C14.0278 20.4547 13.0458 20.8617 11.9994 20.8617C10.954 20.8617 9.97088 20.4547 9.23208 19.7148C8.87058 19.3533 8.87058 18.7677 9.23208 18.4072C9.59248 18.0457 10.1781 18.0457 10.5396 18.4072C10.9297 18.7962 11.4476 19.0119 11.9994 19.0119C12.5511 19.0119 13.0702 18.7962 13.4602 18.4072ZM11.9998 3.13867C15.1307 3.13867 17.6824 5.61317 17.8071 8.71347H17.8135V11.2345L19.7996 15.4077C20.0015 16.3907 19.251 16.784 18.2469 16.784H5.75268C4.74858 16.784 3.99808 16.3907 4.19998 15.4077L6.18608 11.2345V8.71347C6.31718 5.61317 8.86888 3.13867 11.9998 3.13867Z" fill="white"/>
</svg>
