<svg width="24" height="24" viewBox="0 0 24 24" fill="none" xmlns="http://www.w3.org/2000/svg">
<path fill-rule="evenodd" clip-rule="evenodd" d="M16 2C17.105 2 18 2.895 18 4V20C18 21.105 17.105 22 16 22H8C6.895 22 6 21.105 6 20V4C6 2.895 6.895 2 8 2H16ZM10 17.5C9.31 17.5 8.75 18.06 8.75 18.75C8.75 19.44 9.31 20 10 20C10.69 20 11.25 19.44 11.25 18.75C11.25 18.06 10.69 17.5 10 17.5ZM14 17.5C13.31 17.5 12.75 18.06 12.75 18.75C12.75 19.44 13.31 20 14 20C14.69 20 15.25 19.44 15.25 18.75C15.25 18.06 14.69 17.5 14 17.5ZM10 13.5C9.31 13.5 8.75 14.06 8.75 14.75C8.75 15.44 9.31 16 10 16C10.69 16 11.25 15.44 11.25 14.75C11.25 14.06 10.69 13.5 10 13.5ZM14 13.5C13.31 13.5 12.75 14.06 12.75 14.75C12.75 15.44 13.31 16 14 16C14.69 16 15.25 15.44 15.25 14.75C15.25 14.06 14.69 13.5 14 13.5ZM12 4C9.791 4 8 5.791 8 8C8 10.209 9.791 12 12 12C14.209 12 16 10.209 16 8C16 5.791 14.209 4 12 4ZM12 6C13.105 6 14 6.895 14 8C14 9.105 13.105 10 12 10C10.895 10 10 9.105 10 8C10 6.895 10.895 6 12 6Z" fill="white"/>
</svg>
