<svg width="24" height="24" viewBox="0 0 24 24" fill="none" xmlns="http://www.w3.org/2000/svg">
<path fill-rule="evenodd" clip-rule="evenodd" d="M12 3.25C16.8325 3.25 20.75 7.1671 20.75 12C20.75 16.8322 16.8322 20.75 12 20.75C7.1678 20.75 3.25 16.8322 3.25 12C3.25 7.1671 7.1675 3.25 12 3.25ZM12 4.75C7.9959 4.75 4.75 7.9956 4.75 12C4.75 16.0038 7.9962 19.25 12 19.25C16.0038 19.25 19.25 16.0038 19.25 12C19.25 7.9956 16.0041 4.75 12 4.75ZM16.0594 11.25C16.4736 11.25 16.8094 11.5858 16.8094 12C16.8094 12.3797 16.5272 12.6935 16.1612 12.7432L16.0594 12.75H7.9404C7.5262 12.75 7.1904 12.4142 7.1904 12C7.1904 11.6203 7.4726 11.3065 7.8386 11.2568L7.9404 11.25H16.0594Z" fill="white"/>
</svg>
