<svg width="24" height="24" viewBox="0 0 24 24" fill="none" xmlns="http://www.w3.org/2000/svg">
<path fill-rule="evenodd" clip-rule="evenodd" d="M14.867 20.3996H8.334C7.045 20.3996 6 19.3546 6 18.0666V5.93261C6 4.64461 7.045 3.59961 8.334 3.59961H14.867C16.156 3.59961 17.2 4.64461 17.2 5.93261V18.0666C17.2 19.3546 16.156 20.3996 14.867 20.3996Z" stroke="white" stroke-width="1.375" stroke-linecap="round" stroke-linejoin="round"/>
<path fill-rule="evenodd" clip-rule="evenodd" d="M9.23999 8.76035C9.23999 8.44518 9.30207 8.13309 9.42268 7.84191C9.54329 7.55073 9.72007 7.28616 9.94293 7.06329C10.1658 6.84043 10.4304 6.66365 10.7215 6.54304C11.0127 6.42243 11.3248 6.36035 11.64 6.36035C11.9552 6.36035 12.2672 6.42243 12.5584 6.54304C12.8496 6.66365 13.1142 6.84043 13.337 7.06329C13.5599 7.28616 13.7367 7.55073 13.8573 7.84191C13.9779 8.13309 14.04 8.44518 14.04 8.76035C14.04 9.07552 13.9779 9.38761 13.8573 9.67879C13.7367 9.96997 13.5599 10.2345 13.337 10.4574C13.1142 10.6803 12.8496 10.8571 12.5584 10.9777C12.2672 11.0983 11.9552 11.1604 11.64 11.1604C11.3248 11.1604 11.0127 11.0983 10.7215 10.9777C10.4304 10.8571 10.1658 10.6803 9.94293 10.4574C9.72007 10.2345 9.54329 9.96997 9.42268 9.67879C9.30207 9.38761 9.23999 9.07552 9.23999 8.76035Z" stroke="white" stroke-width="1.1" stroke-linecap="round" stroke-linejoin="round"/>
<path d="M9.85103 14.9398C9.27003 14.9398 8.80103 14.4698 8.80103 13.8908C8.80103 13.3098 9.27003 12.8398 9.85103 12.8398C10.431 12.8398 10.9 13.3098 10.9 13.8908C10.9 14.4698 10.431 14.9398 9.85103 14.9398ZM13.351 14.9398C12.77 14.9398 12.301 14.4698 12.301 13.8908C12.301 13.3098 12.77 12.8398 13.351 12.8398C13.931 12.8398 14.4 13.3098 14.4 13.8908C14.4 14.4698 13.931 14.9398 13.351 14.9398ZM9.85103 18.0098C9.27003 18.0098 8.80103 17.5398 8.80103 16.9608C8.80103 16.3798 9.27003 15.9098 9.85103 15.9098C10.431 15.9098 10.9 16.3798 10.9 16.9608C10.9 17.5398 10.431 18.0098 9.85103 18.0098ZM12.301 16.9608C12.301 16.3798 12.77 15.9098 13.351 15.9098C13.931 15.9098 14.4 16.3798 14.4 16.9608C14.4 17.5398 13.931 18.0098 13.351 18.0098C12.77 18.0098 12.301 17.5398 12.301 16.9608Z" fill="white"/>
</svg>
