<svg width="24" height="24" viewBox="0 0 24 24" fill="none" xmlns="http://www.w3.org/2000/svg">
<path d="M16.326 14.7641C16.6177 14.47 17.0926 14.4682 17.3866 14.7599C17.6807 15.0516 17.6825 15.5265 17.3908 15.8206L13.1992 20.0452C12.543 20.705 11.4749 20.7061 10.8191 20.0466L6.61013 15.8216C6.31773 15.5282 6.31863 15.0533 6.61213 14.761C6.90553 14.4686 7.38043 14.4695 7.67273 14.763L11.8822 18.9884C11.9515 19.0582 12.0654 19.058 12.135 18.9881L16.326 14.7641ZM10.8027 3.95151C11.4586 3.29551 12.5241 3.29441 13.1785 3.95061L17.4055 8.17961C17.6983 8.47261 17.6982 8.94741 17.4052 9.24031C17.1122 9.53311 16.6374 9.53301 16.3445 9.24001L12.1169 5.01041C12.0483 4.94161 11.9338 4.94171 11.8646 5.01091L7.65663 9.23891C7.36443 9.53251 6.88953 9.53361 6.59593 9.24141C6.30233 8.94921 6.30123 8.47431 6.59343 8.18071L10.8027 3.95151Z" fill="white"/>
</svg>
