<svg width="24" height="24" viewBox="0 0 24 24" fill="none" xmlns="http://www.w3.org/2000/svg">
<path d="M17.637 13.7762L17.7246 13.8488L20.0097 16.0416C20.4477 16.4634 20.4768 17.1456 20.0965 17.6029L20.0087 17.6973L17.7246 19.8891C17.4186 20.1828 16.9323 20.1729 16.6386 19.8668C16.3716 19.5885 16.3557 19.1614 16.5849 18.8654L16.661 18.7808L17.8517 17.6369L4.4065 17.637C3.9823 17.637 3.63843 17.2931 3.63843 16.8689C3.63843 16.4773 3.93145 16.1542 4.31013 16.1068L4.4065 16.1008L17.8524 16.1001L16.661 14.9571C16.3828 14.6901 16.3492 14.2641 16.5661 13.9588L16.6386 13.8711C16.9056 13.5929 17.3318 13.5594 17.637 13.7762ZM12.2601 4.76172L15.6176 13.6349H14.0085L13.2836 11.5688H9.84648L9.12738 13.6349H7.52403L10.8757 4.76172H12.2601ZM11.565 6.64444L10.2786 10.3254H12.8506L11.565 6.64444Z" fill="white"/>
</svg>
