<svg width="24" height="24" viewBox="0 0 24 24" fill="none" xmlns="http://www.w3.org/2000/svg">
<path d="M18.9808 10.7929C19.3368 10.7929 19.6305 11.0593 19.6736 11.4036L19.679 11.4912V13.8181C19.679 16.0692 17.9032 17.9059 15.6762 18.0035L15.4895 18.0076L6.7433 18.007L7.64773 18.9116C7.8956 19.1595 7.91818 19.5474 7.71538 19.8207L7.64773 19.899C7.39985 20.147 7.01195 20.1695 6.73858 19.9667L6.66028 19.899L4.80988 18.0487C4.43405 17.6729 4.4072 17.0793 4.7294 16.6746L4.80988 16.5846L6.67513 14.7195C6.94775 14.4468 7.38988 14.4468 7.66258 14.7195C7.91045 14.9673 7.93303 15.3553 7.73015 15.6286L7.66258 15.7069L6.7583 16.6105L15.4895 16.6111C16.9788 16.6111 18.196 15.4453 18.2782 13.9766L18.2825 13.8181V11.4912C18.2825 11.1056 18.5952 10.7929 18.9808 10.7929ZM13.0131 8.84074V14.8546H11.8222V10.1745L10.6285 10.5226L10.2776 9.37909L12.0124 8.84074H13.0131ZM17.2611 4.03332L17.3395 4.10089L19.1924 5.95302C19.5654 6.32854 19.5921 6.91984 19.2709 7.32544L19.1907 7.41552L17.3246 9.28069C17.0518 9.55332 16.6097 9.55324 16.3371 9.28047C16.0893 9.03252 16.0669 8.64462 16.2697 8.37132L16.3374 8.29302L17.2418 7.38852L8.5103 7.38897C7.02103 7.38897 5.80385 8.55477 5.72165 10.0235L5.7173 10.182V12.5089C5.7173 12.8945 5.40463 13.2072 5.01905 13.2072C4.66303 13.2072 4.36933 12.9408 4.3262 12.5964L4.3208 12.5089V10.182C4.3208 7.93084 6.09658 6.09417 8.32363 5.99659L8.5103 5.99247L17.2561 5.99202L16.3522 5.08864C16.1042 4.84077 16.0816 4.45287 16.2844 4.17949L16.3519 4.10112C16.5998 3.85317 16.9877 3.83052 17.2611 4.03332Z" fill="white"/>
</svg>
