<svg width="24" height="24" viewBox="0 0 24 24" fill="none" xmlns="http://www.w3.org/2000/svg">
<path d="M17.7544 5.71875C18.0649 5.71875 18.3169 5.97065 18.3169 6.28125C18.3169 7.28635 18.3165 7.64265 18.3163 7.77125L18.3161 7.84645C18.2846 12.0833 14.8339 15.5362 10.6249 15.5362H10.2581L12.0431 17.3213C12.2629 17.541 12.2629 17.8964 12.0431 18.1161C11.9329 18.2264 11.7896 18.2812 11.6449 18.2812C11.5016 18.2812 11.3576 18.2264 11.2474 18.1161L8.77011 15.639C8.40491 15.2738 8.40491 14.6797 8.76861 14.3144L11.2406 11.8312C11.4604 11.6114 11.8166 11.6107 12.0371 11.8297C12.2569 12.0486 12.2576 12.4057 12.0386 12.6254L10.2604 14.4112H10.6249C14.2181 14.4112 17.1641 11.4592 17.1911 7.83065C17.1912 7.82285 17.1913 7.78995 17.1914 7.73865L17.1919 6.28125C17.1919 5.97065 17.4431 5.71875 17.7544 5.71875ZM8.42871 11.8318C8.64851 11.612 9.00401 11.6113 9.22451 11.8303C9.44421 12.0493 9.44501 12.4055 9.22601 12.6253L6.88521 14.9757L9.23051 17.3209C9.45021 17.5407 9.45021 17.8969 9.23051 18.1159C9.12021 18.2262 8.97701 18.281 8.83301 18.281C8.68901 18.281 8.54501 18.2262 8.43471 18.1159L5.95751 15.6388C5.59221 15.2735 5.59221 14.6794 5.95601 14.3142L8.42871 11.8318Z" fill="white"/>
</svg>
