<svg width="24" height="24" viewBox="0 0 24 24" fill="none" xmlns="http://www.w3.org/2000/svg">
<path d="M8.10087 3.99121C8.44597 3.99121 8.72587 4.27111 8.72587 4.61621C8.72587 4.93001 8.49457 5.18981 8.19317 5.23451L8.10087 5.24121H6.23727C6.18887 5.24121 6.14137 5.24471 6.09487 5.25131L6.29497 5.36711C7.95867 6.28611 9.73657 6.71131 11.8588 6.71131C14.1505 6.71131 16.0581 6.21011 17.8405 5.12511L17.638 5.24321L17.5864 5.24121H15.7235C15.3783 5.24121 15.0985 4.96141 15.0985 4.61621C15.0985 4.30241 15.3298 4.04261 15.6312 3.99801L15.7235 3.99121H17.5864C18.7753 3.99121 19.7485 4.91491 19.8275 6.08371L19.8327 6.23751V8.10131C19.8327 8.44651 19.5529 8.72631 19.2077 8.72631C18.8939 8.72631 18.6341 8.49511 18.5895 8.19371L18.5827 8.10131V6.23751L18.5787 6.18671C17.5765 7.91141 17.1122 9.76051 17.1122 11.9656C17.1122 14.0876 17.5376 15.8658 18.4522 17.5212L18.5321 17.6614L18.5664 17.6849C18.57 17.6877 18.5736 17.6906 18.5771 17.6935L18.5827 17.5867V15.7229C18.5827 15.3777 18.8625 15.0979 19.2077 15.0979C19.5215 15.0979 19.7813 15.3292 19.8259 15.6306L19.8327 15.7229V17.5867C19.8327 18.7756 18.9091 19.7488 17.7402 19.8278L17.5864 19.833H15.7235C15.3783 19.833 15.0985 19.5532 15.0985 19.208C15.0985 18.8942 15.3298 18.6344 15.6312 18.5898L15.7235 18.583H17.5864L17.635 18.5792L17.5244 18.5144C16.0437 17.6765 14.4678 17.2315 12.6521 17.1334L12.2593 17.1177L11.8588 17.1124C9.73687 17.1124 7.95897 17.5379 6.30347 18.4527L6.11677 18.5597C6.10877 18.5643 6.10077 18.5687 6.09277 18.5729C6.10157 18.5739 6.11127 18.5752 6.12107 18.5763L6.23727 18.583H8.10087C8.44597 18.583 8.72587 18.8628 8.72587 19.208C8.72587 19.5218 8.49457 19.7816 8.19317 19.8263L8.10087 19.833H6.23727C5.04837 19.833 4.07517 18.9094 3.99617 17.7405L3.99097 17.5867V15.7229C3.99097 15.3777 4.27077 15.0979 4.61597 15.0979C4.92977 15.0979 5.18957 15.3292 5.23417 15.6306L5.24097 15.7229V17.5867C5.24097 17.6359 5.24447 17.6842 5.25137 17.7314L5.26497 17.7046L5.36647 17.5294C6.28547 15.866 6.71077 14.0879 6.71077 11.9656C6.71077 9.80831 6.26667 7.99431 5.31837 6.31491L5.24297 6.18721L5.24097 6.23751V8.10131C5.24097 8.44651 4.96117 8.72631 4.61597 8.72631C4.30217 8.72631 4.04237 8.49511 3.99777 8.19371L3.99097 8.10131V6.23751C3.99097 5.04861 4.91457 4.07541 6.08347 3.99641L6.23727 3.99121H8.10087ZM16.7571 7.06641L16.6949 7.09291C15.2183 7.68211 13.6336 7.96131 11.8588 7.96131C10.1138 7.96131 8.56057 7.69421 7.10617 7.12591L7.08707 7.11741L7.24757 7.54131C7.68627 8.77531 7.91647 10.0879 7.95497 11.5259L7.96077 11.9656C7.96077 13.5652 7.73627 15.0038 7.26087 16.3531L7.13607 16.6854L7.47497 16.5608C8.69857 16.1301 9.99857 15.9053 11.4265 15.868L11.8588 15.8624C13.6336 15.8624 15.2184 16.1419 16.6951 16.7316L16.7041 16.7354L16.5474 16.3129C16.1253 15.1 15.9047 13.8116 15.8677 12.3979L15.8622 11.9656C15.8622 10.1907 16.1415 8.60621 16.731 7.12951L16.7571 7.06641Z" fill="white"/>
</svg>
