<svg width="24" height="24" viewBox="0 0 24 24" fill="none" xmlns="http://www.w3.org/2000/svg">
<path d="M15.0475 4.8448C15.2285 4.4718 15.6775 4.3158 16.0495 4.4968C19.0495 5.9508 20.9875 9.0428 20.9875 12.3748C20.9875 17.1998 17.0635 21.1248 12.2375 21.1248C9.1535 21.1248 6.3445 19.5178 4.7715 16.9408L4.7785 17.9688C4.7805 18.3828 4.4475 18.7218 4.0335 18.7238C3.6165 18.7238 3.2805 18.3918 3.2785 17.9788L3.2615 15.4608C3.2595 15.1968 3.3615 14.9478 3.5485 14.7608C3.7355 14.5738 3.9855 14.4728 4.2485 14.4738L6.7665 14.4918C7.1805 14.4948 7.5135 14.8328 7.5105 15.2468C7.5075 15.6588 7.1725 15.9918 6.7605 15.9918H6.7555L5.9535 15.9858C7.2365 18.2208 9.6145 19.6248 12.2375 19.6248C16.2365 19.6248 19.4875 16.3728 19.4875 12.3748C19.4875 9.6138 17.8815 7.0518 15.3955 5.8468C15.0235 5.6658 14.8665 5.2178 15.0475 4.8448ZM4.4726 10.3048C4.8806 10.3728 5.1556 10.7598 5.0876 11.1678C5.0376 11.4648 5.0066 11.7668 4.9936 12.0688C4.9776 12.4728 4.6456 12.7878 4.2456 12.7878C4.2346 12.7878 4.2246 12.7878 4.2136 12.7868C3.8006 12.7698 3.4786 12.4208 3.4956 12.0068C3.5106 11.6428 3.5486 11.2778 3.6086 10.9208C3.6776 10.5118 4.0676 10.2368 4.4726 10.3048ZM12.238 2.875C12.652 2.875 12.988 3.211 12.988 3.625V9.863C12.988 10.277 12.652 10.613 12.238 10.613C11.824 10.613 11.488 10.277 11.488 9.863V3.625C11.488 3.211 11.824 2.875 12.238 2.875ZM5.1974 7.1799C5.4434 6.8459 5.9124 6.7749 6.2454 7.0209C6.5784 7.2669 6.6494 7.7369 6.4034 8.0699C6.2244 8.3129 6.0584 8.5689 5.9114 8.8309C5.7744 9.0759 5.5194 9.2139 5.2564 9.2139C5.1324 9.2139 5.0064 9.1819 4.8904 9.1179C4.5294 8.9149 4.4014 8.4579 4.6034 8.0969C4.7814 7.7799 4.9814 7.4719 5.1974 7.1799ZM8.3011 4.5581C8.6721 4.3721 9.1231 4.5201 9.3091 4.8901C9.4961 5.2591 9.3471 5.7111 8.9771 5.8971C8.7091 6.0331 8.4461 6.1861 8.1961 6.3551C8.0671 6.4411 7.9221 6.4831 7.7781 6.4831C7.5371 6.4831 7.2991 6.3671 7.1551 6.1511C6.9241 5.8081 7.0141 5.3411 7.3581 5.1111C7.6601 4.9071 7.9771 4.7211 8.3011 4.5581Z" fill="white"/>
</svg>
