<svg width="24" height="24" viewBox="0 0 24 24" fill="none" xmlns="http://www.w3.org/2000/svg">
<path fill-rule="evenodd" clip-rule="evenodd" d="M16.4167 2.64648C18.1187 2.64648 19.4377 5.39948 19.4377 7.76648C19.4377 9.79548 17.7187 10.7265 17.6457 10.7655C17.5477 10.8165 17.3367 10.9335 17.1647 11.0285C17.1657 11.0335 17.1667 11.0375 17.1667 11.0415V20.6035C17.1667 21.0175 16.8307 21.3535 16.4167 21.3535C16.0017 21.3535 15.6667 21.0175 15.6667 20.6035V11.0415C15.6667 11.0305 15.6687 11.0195 15.6687 11.0085L15.4631 10.9057C15.3565 10.8523 15.2525 10.7997 15.1877 10.7655C15.1147 10.7265 13.3947 9.79548 13.3947 7.76648C13.3947 5.39948 14.7137 2.64648 16.4167 2.64648ZM10.9973 2.86838C11.3523 2.93638 11.5983 3.26838 11.5983 3.63138V8.67838C11.5983 9.12638 11.3853 9.64038 11.0683 9.97538C11.0053 10.0424 10.9313 10.0974 10.8533 10.1494L8.83026 11.5004V20.6034C8.83026 21.0174 8.49526 21.3534 8.08026 21.3534C7.66626 21.3534 7.33026 21.0174 7.33026 20.6034V11.4804L5.31126 10.1514C5.23126 10.0984 5.15426 10.0414 5.08926 9.97138C4.77426 9.63638 4.56226 9.12438 4.56226 8.67838V3.60338C4.56226 3.14038 4.98226 2.77538 5.46226 2.86838C5.81726 2.93638 6.06226 3.26838 6.06226 3.63138V6.35838C6.06226 6.70738 6.34626 6.99038 6.69526 6.99038C7.04826 6.99038 7.33126 6.70738 7.33126 6.35838V3.60338C7.33126 3.14038 7.75026 2.77538 8.22926 2.86838C8.58626 2.93638 8.83126 3.26838 8.83126 3.63138V6.35838C8.83126 6.70738 9.11426 6.99038 9.46326 6.99038C9.81426 6.99038 10.0983 6.70738 10.0983 6.35838V3.60338C10.0983 3.14038 10.5183 2.77538 10.9973 2.86838Z" fill="white"/>
</svg>
