<svg width="24" height="24" viewBox="0 0 24 24" fill="none" xmlns="http://www.w3.org/2000/svg">
<path d="M7.55304 10.7814C7.75694 11.0158 7.75514 11.359 7.56294 11.5904L7.49184 11.6632C7.25744 11.8671 6.91424 11.8653 6.68274 11.673L6.61004 11.6019L3.52854 8.06033C3.33844 7.84193 3.32584 7.52633 3.48534 7.29533L3.55324 7.21303L6.63474 4.06293C6.87614 3.81623 7.27184 3.81183 7.51864 4.05323C7.74064 4.27053 7.76644 4.61273 7.59334 4.85893L7.52834 4.93703L5.45504 7.05603L12.9428 7.05643C16.3255 7.05643 19.0678 9.79873 19.0678 13.1814C19.0678 16.489 16.446 19.1842 13.1673 19.3024L12.9428 19.3064H7.94284C7.59764 19.3064 7.31784 19.0266 7.31784 18.6814C7.31784 18.3676 7.54904 18.1078 7.85044 18.0632L7.94284 18.0564H12.9428C15.6352 18.0564 17.8178 15.8738 17.8178 13.1814C17.8178 10.5618 15.7515 8.42483 13.1599 8.31123L12.9428 8.30643L5.39904 8.30603L7.55304 10.7814Z" fill="white"/>
</svg>
