<svg width="24" height="24" viewBox="0 0 24 24" fill="none" xmlns="http://www.w3.org/2000/svg">
<path d="M17.1084 5H19.5754C19.9894 5 20.3254 4.664 20.3254 4.25C20.3254 3.836 19.9894 3.5 19.5754 3.5H14.8954C14.2114 3.5 13.6544 4.057 13.6544 4.742V9.16C13.6544 9.574 13.9894 9.91 14.4044 9.91C14.8184 9.91 15.1544 9.574 15.1544 9.16V5.563C17.5644 6.756 19.1094 9.215 19.1094 11.912C19.1094 15.82 15.9204 19 11.9994 19C8.08038 19 4.89038 15.82 4.89038 11.912C4.89038 8.659 7.09738 5.832 10.2564 5.038C10.6584 4.938 10.9024 4.529 10.8004 4.128C10.7004 3.727 10.2914 3.482 9.89038 3.583C6.06338 4.546 3.39038 7.971 3.39038 11.912C3.39038 16.647 7.25338 20.5 11.9994 20.5C16.7474 20.5 20.6094 16.647 20.6094 11.912C20.6094 9.154 19.2784 6.599 17.1084 5Z" fill="white"/>
</svg>
