<svg width="24" height="24" viewBox="0 0 24 24" fill="none" xmlns="http://www.w3.org/2000/svg">
<path fill-rule="evenodd" clip-rule="evenodd" d="M19.3632 9.12284C20.6358 10.396 19.4676 13.8328 16.581 16.7182C13.6956 19.6048 10.2594 20.773 8.98563 19.4998C8.41863 18.9328 8.33643 17.9362 8.67423 16.75C10.2096 16.2964 11.9634 15.1882 13.5066 13.6438C15.051 12.1 16.1598 10.3468 16.6128 8.81144L16.7478 8.77484C17.8746 8.48024 18.8172 8.57744 19.3632 9.12284ZM16.098 5.05004L19.212 8.16404C17.3202 7.25744 13.9932 8.59544 11.226 11.3632C8.45823 14.131 7.12023 17.4568 8.02683 19.3498L4.91283 16.2352C3.30063 14.623 4.57803 10.8646 7.65303 7.79024C10.728 4.71524 14.4852 3.43784 16.098 5.05004Z" fill="white"/>
</svg>
