<svg width="24" height="24" viewBox="0 0 24 24" fill="none" xmlns="http://www.w3.org/2000/svg">
<path fill-rule="evenodd" clip-rule="evenodd" d="M7.50299 20.5988L3.45999 16.3598L3.44799 16.3458L3.34799 16.2398C1.46099 14.1028 2.75099 9.31179 6.03099 6.03079C9.31199 2.74979 14.102 1.46079 16.24 3.34679L16.36 3.45979L20.518 7.42579C20.55 7.45479 20.581 7.48479 20.612 7.51579C22.644 9.54779 21.137 13.9798 17.558 17.5578C13.98 21.1378 9.54899 22.6438 7.51599 20.6118L7.50299 20.5988ZM17.627 8.13479L17.602 8.13779C17.278 10.2448 16.09 12.4578 14.272 14.2748C12.455 16.0928 10.241 17.2798 8.13799 17.6048C8.02199 18.4308 8.15299 19.1068 8.55299 19.5268L8.58499 19.5598L8.66899 19.6358C9.98999 20.7338 13.503 19.4918 16.497 16.4978C19.562 13.4338 20.791 9.82579 19.555 8.57979L19.537 8.56279L19.459 8.49179C19.04 8.14379 18.401 8.03079 17.627 8.13479ZM7.09199 7.09179C4.25099 9.93279 3.20299 13.9818 4.53299 15.3118L4.54099 15.3198L6.64099 17.5208C6.88899 15.4058 8.31999 12.8188 10.57 10.5698C12.819 8.31979 15.407 6.88779 17.523 6.64079L15.325 4.54579L15.312 4.53279C13.982 3.20279 9.93399 4.24979 7.09199 7.09179ZM15.976 8.60579L15.857 8.65479C14.517 9.23079 13.018 10.2428 11.63 11.6308C10.2 13.0598 9.16999 14.6078 8.60299 15.9788C10.176 15.5718 11.818 14.6088 13.212 13.2148C14.606 11.8208 15.57 10.1798 15.976 8.60579Z" fill="white"/>
</svg>
