<svg width="24" height="24" viewBox="0 0 24 24" fill="none" xmlns="http://www.w3.org/2000/svg">
<path fill-rule="evenodd" clip-rule="evenodd" d="M2.914 17.8525C3.52 18.8315 4.662 19.4995 6.047 19.4995H18.158C19.407 19.4995 20.459 18.9565 21.097 18.1315V18.1155C21.177 19.9765 19.633 21.0465 17.648 21.0465H6.352C4.367 21.0465 2.823 19.9765 2.903 18.1155L2.914 17.8525Z" fill="white"/>
<path d="M17.241 3C19.083 3 20.642 4.509 20.722 6.37L21.097 15.035C21.177 16.896 19.633 18.404 17.648 18.404H6.352C4.367 18.404 2.823 16.896 2.903 15.035L3.278 6.37C3.358 4.509 4.917 3 6.759 3H17.241ZM17.241 4.5H6.759C5.723 4.5 4.822 5.372 4.776 6.435L4.402 15.1C4.359 16.084 5.199 16.904 6.352 16.904H17.648C18.801 16.904 19.641 16.084 19.598 15.1L19.224 6.435C19.178 5.372 18.277 4.5 17.241 4.5Z" fill="white"/>
<path d="M12 12.667C12.276 12.667 12.5 12.891 12.5 13.167V13.595C12.5 13.871 12.276 14.095 12 14.095C11.724 14.095 11.5 13.871 11.5 13.595V13.167C11.5 12.891 11.724 12.667 12 12.667Z" fill="white"/>
<path d="M12.0001 5.46484C15.1191 5.46484 17.6481 7.76384 17.6481 10.5998C17.6481 13.4348 15.1191 15.7338 12.0001 15.7338C8.88105 15.7338 6.35205 13.4348 6.35205 10.5998C6.35205 7.76384 8.88105 5.46484 12.0001 5.46484ZM12.0001 6.46484C9.41305 6.46484 7.35205 8.33784 7.35205 10.5998C7.35205 12.8608 9.41305 14.7338 12.0001 14.7338C14.5871 14.7338 16.6481 12.8608 16.6481 10.5998C16.6481 8.33784 14.5871 6.46484 12.0001 6.46484Z" fill="white"/>
</svg>
