<svg width="24" height="24" viewBox="0 0 24 24" fill="none" xmlns="http://www.w3.org/2000/svg">
<path fill-rule="evenodd" clip-rule="evenodd" d="M12.0253 2.00018C12.9583 2.01318 13.7433 2.80218 13.7493 3.73518C13.7553 4.48718 13.2863 5.12918 12.6243 5.38218V7.86118H16.4763C17.7183 7.86118 18.7263 8.86818 18.7263 10.1112V16.6112C18.7263 17.8532 17.7183 18.8612 16.4763 18.8612H7.52432C6.28132 18.8612 5.27432 17.8532 5.27432 16.6112V10.1112C5.27432 8.86818 6.28132 7.86118 7.52432 7.86118H11.3743V5.38218C10.7173 5.13118 10.2493 4.49518 10.2493 3.74918C10.2493 2.77418 11.0463 1.98618 12.0253 2.00018ZM14.8533 14.9802H9.14632C8.73232 14.9802 8.39632 15.3162 8.39632 15.7302C8.39632 16.1442 8.73232 16.4802 9.14632 16.4802H14.8533C15.2673 16.4802 15.6033 16.1442 15.6033 15.7302C15.6033 15.3162 15.2673 14.9802 14.8533 14.9802ZM19.9695 10.2361C21.5575 10.2361 22.8445 11.5231 22.8445 13.1111C22.8445 14.6991 21.5575 15.9861 19.9695 15.9861V10.2361ZM4.03052 10.2361V15.9861C2.44252 15.9861 1.15552 14.6991 1.15552 13.1111C1.15552 11.5231 2.44252 10.2361 4.03052 10.2361ZM14.8703 10.7412C14.2913 10.7412 13.8233 11.2092 13.8233 11.7882C13.8233 12.3662 14.2913 12.8342 14.8703 12.8342C15.4473 12.8342 15.9153 12.3662 15.9153 11.7882C15.9153 11.2092 15.4473 10.7412 14.8703 10.7412ZM9.13032 10.7412C8.55232 10.7412 8.08432 11.2092 8.08432 11.7882C8.08432 12.3662 8.55232 12.8342 9.13032 12.8342C9.70732 12.8342 10.1763 12.3662 10.1763 11.7882C10.1763 11.2092 9.70732 10.7412 9.13032 10.7412Z" fill="white"/>
</svg>
