<svg width="24" height="24" viewBox="0 0 24 24" fill="none" xmlns="http://www.w3.org/2000/svg">
<path fill-rule="evenodd" clip-rule="evenodd" d="M15.5538 10.2281C15.9988 10.6731 15.9988 11.4014 15.5538 11.8464L12.1668 15.2326C11.7218 15.6774 10.9938 15.6774 10.5488 15.2326L8.83033 13.5139C8.38533 13.0689 8.38533 12.3406 8.83033 11.8956L12.2173 8.50938C12.6623 8.06458 13.3903 8.06458 13.8351 8.50938L15.5538 10.2281Z" fill="white"/>
<path d="M8.87894 4.38281C6.04294 5.66181 4.06714 8.53331 4.06714 11.8721C4.06714 15.4316 6.31564 18.4618 9.45714 19.5943" stroke="white" stroke-width="1.5" stroke-linecap="round" stroke-linejoin="round"/>
<path d="M9.16896 4.2763C9.16896 4.0001 8.94496 3.8623 8.66846 3.8623H5.60496C5.58266 3.8623 5.57146 3.8893 5.58716 3.9051L6.93496 5.2528" stroke="white" stroke-width="1.5" stroke-linecap="round" stroke-linejoin="round"/>
<path d="M15.5055 19.3599C18.3402 18.0799 20.3172 15.2089 20.3172 11.8716C20.3172 8.31144 18.0685 5.28094 14.926 4.14844" stroke="white" stroke-width="1.5" stroke-linecap="round" stroke-linejoin="round"/>
<path d="M15.2153 19.4662C15.2153 19.7427 15.4393 19.8802 15.7158 19.8802H18.7791C18.8013 19.8802 18.8126 19.8535 18.7968 19.8377L17.2618 18.3027" stroke="white" stroke-width="1.5" stroke-linecap="round" stroke-linejoin="round"/>
</svg>
