<svg width="24" height="24" viewBox="0 0 24 24" fill="none" xmlns="http://www.w3.org/2000/svg">
<path d="M12.2852 2.19141L15.4462 5.01541L12.2852 7.94141V6.00541C12.2622 6.00641 12.2402 6.01241 12.2172 6.01241C8.41319 6.01241 5.32019 9.10641 5.32019 12.9104C5.32019 16.7134 8.41319 19.8084 12.2172 19.8084C15.1532 19.8084 17.7732 17.9464 18.7352 15.1744C18.9162 14.6534 19.4862 14.3764 20.0082 14.5584C20.5292 14.7394 20.8052 15.3094 20.6242 15.8304C19.3822 19.4064 16.0032 21.8084 12.2172 21.8084C7.31119 21.8084 3.32019 17.8164 3.32019 12.9104C3.32019 8.00341 7.31119 4.01241 12.2172 4.01241C12.2402 4.01241 12.2622 4.01741 12.2852 4.01941V2.19141ZM18.2043 8.08601C18.5933 7.69401 19.2273 7.69201 19.6183 8.08101C20.0103 8.47001 20.0133 9.10301 19.6233 9.49501L12.4323 16.738L7.94529 12.405C7.54829 12.021 7.53729 11.388 7.92129 10.991C8.30429 10.594 8.93829 10.583 9.33429 10.967L12.4023 13.929L18.2043 8.08601Z" fill="white"/>
</svg>
