<svg width="24" height="24" viewBox="0 0 24 24" fill="none" xmlns="http://www.w3.org/2000/svg">
<path d="M9.4937 9.4572C9.8707 9.4392 10.2497 9.49121 10.5637 9.67721L20.6467 16.3622C20.9967 16.5512 21.2347 16.8982 21.2817 17.2912C21.3627 17.9602 20.8847 18.5702 20.2167 18.6502C19.9457 18.6842 19.6787 18.6272 19.4447 18.4852L13.3887 14.4872L12.4147 16.1042L15.0847 16.8192C15.5327 16.9672 15.8587 17.3652 15.9157 17.8332C15.9957 18.5012 15.5167 19.1102 14.8487 19.1912C14.6627 19.2142 14.4767 19.1932 14.2897 19.1282L10.4087 18.0622C9.9017 17.9122 9.5227 17.5512 9.3687 17.0702C9.2147 16.5902 9.3107 16.0742 9.6387 15.6502L11.3167 13.0832L9.8987 12.1232L7.5667 13.7252C7.1027 14.0532 6.8207 14.2472 6.3797 14.3082L6.3527 14.3112C5.9197 14.3632 5.4727 14.2382 5.1217 13.9632L3.3257 12.4562C2.9877 12.1532 2.7877 11.9172 2.7197 11.3782C2.6337 10.6982 3.1017 10.2392 3.6807 10.2422C4.3287 10.2462 4.3277 10.3442 4.7417 10.5382L6.0767 11.6862L8.2487 10.1042C8.7637 9.71421 9.1297 9.4752 9.4937 9.4572ZM13.4702 6.9966C13.8742 6.7466 14.3962 6.7416 14.7632 6.9836C15.1352 7.2276 15.3272 7.67561 15.2662 8.15061L14.7332 10.6736L10.9602 8.3776L13.4702 6.9966ZM7.4896 4.7998C8.5956 4.7998 9.4956 5.7008 9.4956 6.8078C9.4956 7.9118 8.5956 8.8108 7.4896 8.8108C6.3846 8.8108 5.4836 7.9118 5.4836 6.8078C5.4836 5.7008 6.3846 4.7998 7.4896 4.7998Z" fill="white"/>
</svg>
