<svg width="24" height="24" viewBox="0 0 24 24" fill="none" xmlns="http://www.w3.org/2000/svg">
<g clip-path="url(#clip0_1074_14320)">
<path fill-rule="evenodd" clip-rule="evenodd" d="M11.6998 0.000976562C11.8948 0.00277656 11.9999 0.00777656 11.9999 0.00777656C12.0318 0.00637656 12.1328 0.00247656 12.3 0.000976562H12.5992C13.2151 0.00657656 14.2677 0.0470766 15.5776 0.220777C17.8061 0.515777 19.8257 1.30438 21.3046 2.69538L21.5312 2.94688C22.7821 4.39978 23.501 6.31788 23.78 8.42248C24.062 10.551 23.9924 12.0005 23.9924 12.0005C23.9924 12.0005 24.062 13.4495 23.78 15.5781C23.4845 17.8064 22.6961 19.8259 21.3049 21.3051L21.0531 21.5316C19.6007 22.7822 17.6823 23.5015 15.5776 23.7802C14.2677 23.9538 13.2151 23.9942 12.5992 23.9996H12.3C12.105 23.9978 11.9999 23.9927 11.9999 23.9927C11.9681 23.9941 11.867 23.998 11.6998 23.9996H11.4005C10.7845 23.9942 9.73187 23.9538 8.42227 23.7802C6.19337 23.4851 4.17427 22.6961 2.69527 21.3054L2.46867 21.0536C1.21807 19.6009 0.498871 17.6827 0.220071 15.5781C0.0464714 14.2682 0.00607139 13.2157 0.000671387 12.5998V12.3006C0.00257139 12.1055 0.00757139 12.0005 0.00757139 12.0005C0.00757139 12.0005 0.00257139 11.8954 0.000671387 11.7003V11.4011C0.00607139 10.7851 0.0464714 9.73238 0.220071 8.42248C0.515271 6.19408 1.30427 4.17468 2.69487 2.69538L2.94667 2.46918C4.39927 1.21828 6.31727 0.499377 8.42227 0.220777C9.73187 0.0470766 10.7845 0.00657656 11.4005 0.000976562H11.6998ZM16.05 13.7948H12.59V14.8335H16.05V13.7948ZM20.1172 13.7948H16.6572V14.8336H20.1172V13.7948ZM7.30017 9.00028H3.99997V14.8336H5.08667V12.4202H7.30017V11.3816H5.08667V10.0391H7.30017V9.00028ZM9.79317 9.00028H7.92337V14.8336H9.01017V10.0152H9.69737C10.113 10.0152 10.4151 10.103 10.6043 10.2789C10.7934 10.4546 10.888 10.6918 10.888 10.9901C10.888 11.1339 10.868 11.2696 10.8281 11.3976C10.7882 11.5254 10.7215 11.6386 10.6284 11.7371C10.5351 11.8357 10.4125 11.9129 10.2608 11.9688C10.1089 12.0248 9.92117 12.0535 9.69737 12.0535H9.48887L10.92 14.8336H12.1585L10.9919 12.7321C11.3115 12.5615 11.5552 12.3232 11.7231 12.0168C11.8908 11.7106 11.9748 11.3816 11.9748 11.03C11.9748 10.7263 11.9254 10.4506 11.827 10.2029C11.7283 9.95518 11.5858 9.74218 11.3994 9.56368C11.2129 9.38528 10.9852 9.24678 10.7161 9.14808C10.4471 9.04968 10.1395 9.00028 9.79317 9.00028ZM16.05 11.3816H12.59V12.4203H16.05V11.3816ZM20.1172 11.3816H16.6572V12.4202H20.1172V11.3816ZM16.05 9.00028H12.59V10.0392H16.05V9.00028ZM20.1172 9.00028H16.6572V10.0391H20.1172V9.00028Z" fill="white"/>
</g>
<defs>
<clipPath id="clip0_1074_14320">
<rect width="24" height="24" fill="white"/>
</clipPath>
</defs>
</svg>
