<svg width="24" height="24" viewBox="0 0 24 24" fill="none" xmlns="http://www.w3.org/2000/svg">
<path d="M17.6848 7.8056L19.7144 12.7886L21.6319 7.8056H23.4L19.0545 18.4387H17.3486L18.8802 14.7743L15.8918 7.8056H17.6848ZM11.3222 7.79296C11.8036 7.79296 12.2478 7.88008 12.6545 8.05392C13.0612 8.22824 13.3974 8.46552 13.663 8.76616V7.80536H15.344V15.0894H13.663V14.0544C13.3974 14.3797 13.0572 14.6357 12.6421 14.8219C12.227 15.0087 11.7787 15.1018 11.2973 15.1018C10.8573 15.1018 10.4237 15.0199 9.99616 14.856C9.56856 14.6919 9.1848 14.4538 8.8444 14.1418C8.50392 13.8298 8.23 13.4478 8.02256 12.9956C7.81512 12.5436 7.71128 12.0294 7.71128 11.4534C7.71128 10.8694 7.81288 10.3514 8.01632 9.89944C8.21984 9.4472 8.48952 9.0652 8.82568 8.75296C9.16192 8.44088 9.54792 8.20304 9.98368 8.03896C10.4195 7.87512 10.8658 7.79296 11.3222 7.79296ZM4.11288 6C4.586 6 5.02184 6.0852 5.42024 6.25528C5.81872 6.42536 6.16312 6.65568 6.45376 6.94632C6.74408 7.23688 6.97248 7.57928 7.13856 7.97352C7.3044 8.36776 7.3876 8.7888 7.3876 9.23736C7.3876 9.6856 7.3044 10.1089 7.13856 10.5074C6.97248 10.9055 6.74408 11.2502 6.45376 11.5408C6.16312 11.8314 5.81648 12.0618 5.414 12.2318C5.01136 12.4019 4.5736 12.4871 4.1004 12.4871H2.69336V15.0894H1V6H4.11288ZM11.5713 9.3244C11.2642 9.3244 10.9756 9.3792 10.7058 9.48832C10.4359 9.59736 10.2016 9.74528 10.0023 9.93256C9.80312 10.1196 9.64752 10.3419 9.53544 10.5992C9.42336 10.8564 9.36736 11.1334 9.36736 11.4294C9.36736 11.7258 9.42336 12.0047 9.53544 12.2657C9.64752 12.5266 9.80312 12.753 10.0023 12.9438C10.2016 13.135 10.4359 13.285 10.7058 13.3942C10.9756 13.5034 11.2642 13.5578 11.5713 13.5578C11.8867 13.5578 12.1771 13.5034 12.4429 13.3942C12.7083 13.285 12.9366 13.133 13.1277 12.9381C13.3186 12.7433 13.4701 12.517 13.5822 12.2597C13.6942 12.0027 13.7502 11.7258 13.7502 11.4294C13.7502 11.141 13.6942 10.8682 13.5822 10.6109C13.4701 10.3539 13.3186 10.1293 13.1277 9.93856C12.9366 9.74728 12.7083 9.59736 12.4429 9.48832C12.1771 9.3792 11.8867 9.3244 11.5713 9.3244ZM3.98832 7.56888H2.69336V10.9182H3.98832C4.23736 10.9182 4.46552 10.8744 4.6732 10.7875C4.88064 10.7003 5.0592 10.5801 5.20856 10.4264C5.358 10.2728 5.47408 10.0945 5.5572 9.89104C5.64016 9.68784 5.68176 9.46992 5.68176 9.23736C5.68176 9.00496 5.64016 8.78712 5.5572 8.5836C5.47408 8.3804 5.358 8.20384 5.20856 8.05448C5.0592 7.90504 4.88064 7.78672 4.6732 7.69936C4.46552 7.6124 4.23736 7.56888 3.98832 7.56888Z" fill="white"/>
</svg>
