<svg width="24" height="24" viewBox="0 0 24 24" fill="none" xmlns="http://www.w3.org/2000/svg">
<path d="M11.8117 4.88281C14.3747 4.88281 16.4532 6.97821 16.4532 9.56261C16.4532 9.63351 16.4504 9.70441 16.4476 9.77441L16.4345 10.1076L16.246 9.93311C15.8363 9.52241 15.2128 9.25921 14.6369 9.25921H12.4847C10.9223 9.25921 9.65106 10.5304 9.65106 12.0928V17.6826C9.65106 18.2062 9.79666 18.6952 10.0449 19.1162H7.55756C4.99276 19.1162 2.91516 17.0218 2.91516 14.4374C2.91516 11.9818 4.79026 9.96951 7.17486 9.77441C7.17206 9.70441 7.16926 9.63351 7.16926 9.56261C7.16926 6.97821 9.24786 4.88281 11.8117 4.88281ZM14.6373 10.6602C14.8436 10.6602 15.1273 10.7834 15.2673 10.9346L16.2557 11.8511C16.2949 11.8922 16.3276 11.9239 16.3584 11.95C16.4443 12.02 16.5208 12.0415 16.6711 12.0415H19.6512C20.4399 12.0415 21.0848 12.6864 21.0848 13.4751V17.6826C21.0848 18.4712 20.4399 19.1162 19.6512 19.1162H12.4841C11.6964 19.1162 11.0515 18.4712 11.0515 17.6826V12.0928C11.0515 11.3042 11.6964 10.6602 12.4841 10.6602H14.6373ZM16.0681 13.2464C15.8423 13.2464 15.6229 13.3407 15.4661 13.5031L14.0139 15.016C13.7908 15.2484 13.7983 15.618 14.0307 15.8411C14.2631 16.0642 14.6327 16.0567 14.8557 15.8243L15.4848 15.1691V17.7255C15.4848 18.0475 15.7461 18.3088 16.0681 18.3088C16.0793 18.3088 16.0887 18.306 16.0989 18.3051C16.4069 18.2892 16.6515 18.0372 16.6515 17.7255V15.1691L17.2805 15.8243C17.3953 15.9438 17.5484 16.0035 17.7015 16.0035C17.8471 16.0035 17.9927 15.9494 18.1056 15.8411C18.338 15.618 18.3455 15.2484 18.1224 15.016L16.6701 13.5031C16.5693 13.3986 16.4415 13.3267 16.3043 13.2856C16.2277 13.2632 16.1493 13.2464 16.0681 13.2464Z" fill="white"/>
</svg>
