<svg width="24" height="24" viewBox="0 0 24 24" fill="none" xmlns="http://www.w3.org/2000/svg">
<path fill-rule="evenodd" clip-rule="evenodd" d="M3.69723 6.26465C3.46773 6.60205 3.26363 6.95105 3.07983 7.30745L3.08423 7.31235C2.86413 7.67655 2.90983 8.15635 3.22443 8.47105L15.4314 20.6776C15.7458 20.9917 16.2259 21.0379 16.5901 20.8178L16.5942 20.822C16.9509 20.6384 17.2999 20.4343 17.6373 20.2048L3.69723 6.26465Z" fill="white"/>
<path fill-rule="evenodd" clip-rule="evenodd" d="M2.16623 10.0557C2.04413 10.7109 1.99133 11.3761 2.00123 12.0401L2.00553 12.0442C2.00453 12.0512 2.00313 12.0589 2.00213 12.0664C2.00413 12.1568 2.00843 12.2478 2.01253 12.3388C2.04603 12.5207 2.13273 12.6946 2.27313 12.8353L11.0654 21.6275C11.209 21.7713 11.3878 21.8579 11.5733 21.89C11.6582 21.8937 11.7429 21.898 11.8278 21.8994C11.8372 21.8985 11.8471 21.8966 11.8565 21.8951L11.8618 21.9009C12.526 21.9108 13.1909 21.8579 13.8464 21.7359L2.16623 10.0557Z" fill="white"/>
<path fill-rule="evenodd" clip-rule="evenodd" d="M19.69 18.2257L19.6919 18.2272C22.8568 14.3112 22.624 8.5587 18.9837 4.9183C15.3431 1.2782 9.59118 1.0449 5.67428 4.2101L5.67618 4.2118C5.64688 4.2344 5.61928 4.2587 5.59258 4.2848C5.22508 4.6525 5.22508 5.2483 5.59258 5.6157L18.286 18.3094C18.6537 18.6768 19.2492 18.6768 19.6167 18.3094C19.6436 18.2829 19.6674 18.2543 19.69 18.2257Z" fill="white"/>
</svg>
