<svg width="24" height="24" viewBox="0 0 24 24" fill="none" xmlns="http://www.w3.org/2000/svg">
<path fill-rule="evenodd" clip-rule="evenodd" d="M6.09759 16.5036L8.2296 14.9296H8.2366L9.0846 19.4206L6.09759 16.5036ZM15.4086 8.75163C16.1356 8.75163 16.2566 7.05263 16.2766 6.49463C16.2806 6.39463 16.2326 6.28363 16.1516 6.22463C15.9276 6.06063 15.9516 5.85763 15.9506 5.52963C15.9506 5.49763 15.9496 5.46463 15.9496 5.42963L15.9666 5.01463L15.9826 4.66763C15.9866 4.21363 15.8386 3.78363 15.5886 3.40463V3.40263C15.3006 2.96463 14.8006 2.59363 14.2396 2.32763C14.0526 2.23963 13.8596 2.16363 13.6646 2.09963C13.3836 2.01863 13.0866 1.97363 12.7796 1.97363C11.0156 1.97363 9.5866 3.40363 9.5866 5.16763C9.5866 5.33863 9.6006 5.50763 9.6266 5.67263C9.6496 5.78263 9.6756 5.89363 9.7086 6.00563C9.8056 6.33563 9.95359 6.63463 10.1156 6.91963H9.2016C8.1716 6.94763 7.1726 7.36363 6.4326 8.10563L5.4696 9.06963C5.3296 9.20363 4.93059 9.60963 4.47959 9.09463L4.9306 9.60963C5.7586 10.5946 7.2436 10.6386 8.1266 9.70463L10.3186 7.26063C10.4276 7.44163 10.5376 7.62163 10.6386 7.80063L10.6816 7.87863C10.7226 7.95363 10.7626 8.02963 10.7986 8.10663C11.0406 8.61463 11.0756 9.39463 10.8666 10.0756C10.6486 10.0206 10.4246 9.99163 10.2006 9.99163C10.0366 9.99163 9.8726 10.0066 9.7106 10.0376C9.5666 10.0646 9.4386 10.0996 9.3346 10.1436C8.9246 10.2936 8.5696 10.5316 8.3056 10.8186L3.68059 15.7346C3.02259 16.3706 3.13759 17.4586 3.90159 17.9606L7.7976 20.7946C8.6136 21.2946 9.5676 21.7686 10.4616 21.9426C10.9846 21.9976 11.5166 22.0266 12.0576 22.0266C13.1386 22.0266 14.1876 21.9146 15.1886 21.7056C15.3486 21.6526 15.6026 21.5526 15.9076 21.3926V21.3976C15.9316 21.3836 15.9586 21.3666 15.9846 21.3516C16.0096 21.3376 16.0326 21.3266 16.0586 21.3126V21.3076C16.3426 21.1376 16.6576 20.9206 16.9826 20.6366L20.0826 17.4386C20.2566 17.2616 20.3826 17.1246 20.4776 17.0026C20.6456 16.8396 20.7496 16.6136 20.7496 16.3626V14.7356C20.7496 14.6976 20.7466 14.6626 20.7436 14.6286C20.7416 14.6106 20.7386 14.5926 20.7356 14.5746L20.7266 14.5336C20.7216 14.5146 20.7166 14.4956 20.7116 14.4766C20.5556 13.9916 19.9766 13.9526 19.9766 13.9526C19.9676 13.9516 19.9586 13.9516 19.9516 13.9516C19.8696 13.9516 19.7846 13.9666 19.6976 13.9916C19.2726 14.1146 18.8256 14.4776 18.8096 14.4896L18.8076 14.4906C18.6066 14.6546 18.4776 14.9026 18.4776 15.1806L18.7006 16.3626C18.7006 16.4506 18.7136 16.5336 18.7376 16.6136L16.0586 18.6326V18.0206L15.9516 14.0616L15.9476 14.0666C15.8286 12.6006 14.1606 11.2766 14.0526 11.1926L14.5266 8.75163H15.4086Z" fill="white"/>
</svg>
