<svg width="24" height="24" viewBox="0 0 24 24" fill="none" xmlns="http://www.w3.org/2000/svg">
<path d="M20.3034 12.9232C19.9197 12.9232 19.6082 13.2334 19.6082 13.617C19.6054 15.2266 18.9769 16.7368 17.8381 17.8715C16.702 19.0048 15.1932 19.6279 13.5878 19.6279C13.1932 19.6279 12.883 19.9395 12.8816 20.3232C12.8803 20.7068 13.1918 21.0198 13.5769 21.0198C15.5633 21.0198 17.4218 20.2524 18.8204 18.8579C20.2231 17.4592 20.9959 15.5993 21 13.6198C21 13.2347 20.6871 12.9232 20.3034 12.9232ZM6.71157 12.7626L3.18231 16.2823C2.94014 16.5245 2.93878 16.9191 3.18095 17.1626L4.64626 18.6361C4.8898 18.8796 5.28299 18.8796 5.52653 18.6374L9.05578 15.1177C9.29932 14.8742 9.29932 14.481 9.05714 14.2374L7.59184 12.764C7.3483 12.5204 6.9551 12.5191 6.71157 12.7626ZM17.0422 12.9177C16.6585 12.9177 16.3469 13.2279 16.3469 13.613C16.3456 14.349 16.0571 15.0415 15.5361 15.5613C15.015 16.081 14.3225 16.3667 13.5878 16.3667C13.1986 16.3667 12.8871 16.6783 12.8871 17.0619C12.8857 17.4456 13.1973 17.7572 13.581 17.7585C14.6939 17.7585 15.7347 17.3286 16.5184 16.5476C17.3034 15.7653 17.7361 14.7232 17.7388 13.6143C17.7388 13.2306 17.4259 12.9191 17.0422 12.9177ZM12.966 12.7368C12.3701 13.1681 12.3687 14.0442 12.9633 14.4769C13.332 14.7449 13.8517 14.7436 14.2177 14.4728C14.8027 14.0402 14.8041 13.1803 14.2204 12.7449C13.8558 12.4742 13.3361 12.4701 12.966 12.7368ZM9.38912 6.98438L7.02993 9.33813C6.70612 9.66057 6.70476 10.1871 7.02857 10.5109L9.75102 13.2524C10.0748 13.5762 10.6 13.5776 10.9238 13.2538L13.283 10.9014C13.6068 10.5776 13.6082 10.0524 13.2844 9.72724L10.5619 6.9871C10.2381 6.66193 9.71293 6.66193 9.38912 6.98438ZM16.3361 3.16125L12.815 6.67418C12.5728 6.91636 12.5714 7.31091 12.8136 7.55309L14.2803 9.02792C14.5225 9.27146 14.9156 9.27146 15.1592 9.02928L18.6803 5.51772C18.9224 5.27418 18.9238 4.88098 18.6816 4.63744L17.2163 3.16398C16.9728 2.92044 16.5796 2.91908 16.3361 3.16125Z" fill="white"/>
</svg>
