<svg width="24" height="24" viewBox="0 0 24 24" fill="none" xmlns="http://www.w3.org/2000/svg">
<path d="M16.9806 3.53738L18.1935 4.75888C18.8967 5.46613 18.8949 6.60945 18.1893 7.31419L15.2742 10.2263C15.2447 10.2557 15.2145 10.2839 15.1836 10.3109L15.1361 10.349L15.1505 10.3565C15.24 10.4067 15.3249 10.4641 15.4044 10.528L15.4676 10.581L15.5306 10.528C15.8223 10.2939 16.186 10.146 16.5833 10.123L16.6925 10.1199C17.1322 10.1199 17.5362 10.2726 17.8543 10.528L17.9171 10.581L17.9805 10.528C18.2722 10.2939 18.6359 10.146 19.0333 10.123L19.1424 10.1199C20.1683 10.1199 21 10.9516 21 11.9775C21 12.1424 20.9955 12.307 20.9866 12.4712C20.9791 12.6117 20.9682 12.7518 20.9541 12.8914C20.5253 17.1416 17.1515 20.5179 12.9017 20.9498C12.7603 20.9641 12.6185 20.9752 12.4762 20.9829C12.3116 20.9919 12.1465 20.9963 11.9811 20.9963C10.9552 20.9963 10.1235 20.1646 10.1235 19.1387C10.1235 18.699 10.2763 18.2951 10.5316 17.9769L10.5848 17.9139L10.5316 17.8507C10.2975 17.5591 10.1497 17.1952 10.1266 16.798L10.1235 16.6888C10.1235 16.2492 10.2763 15.8451 10.5316 15.527L10.5848 15.4638L10.5316 15.4008C10.4678 15.3213 10.4104 15.2364 10.3601 15.1469L10.3503 15.1278L10.3043 15.1852L10.2198 15.2756L7.2977 18.1947C6.59065 18.9014 5.44448 18.8996 4.73884 18.1901L3.52568 16.9681C2.82308 16.261 2.82495 15.1183 3.53026 14.4133L6.45276 11.4937C6.48223 11.4643 6.51246 11.4361 6.54335 11.4091L6.6163 11.3493L6.54761 11.2657C5.97166 10.5207 5.99963 9.45946 6.63058 8.74529L6.71625 8.65419L8.66943 6.70301C9.38444 5.98924 10.5078 5.936 11.2846 6.54316L11.3621 6.60797L11.4223 6.53515L11.5068 6.44482L14.4218 3.53272C15.1289 2.82593 16.275 2.8278 16.9806 3.53738ZM19.1424 11.4121C18.8301 11.4121 18.577 11.6652 18.577 11.9775C18.577 12.0988 18.5737 12.2198 18.5672 12.3402C18.5616 12.4433 18.5537 12.546 18.5434 12.6482C18.2301 15.7533 15.7614 18.2237 12.6567 18.5392C12.5532 18.5498 12.4493 18.5578 12.3449 18.5635C12.2241 18.57 12.1028 18.5733 11.9811 18.5733C11.6689 18.5733 11.4157 18.8265 11.4157 19.1387C11.4157 19.451 11.6689 19.7041 11.9811 19.7041C12.1233 19.7041 12.265 19.7003 12.4062 19.6926C12.5283 19.686 12.6499 19.6765 12.771 19.6641C16.41 19.2943 19.3012 16.4011 19.6684 12.7618C19.6805 12.6421 19.6898 12.5219 19.6963 12.4013C19.7039 12.2606 19.7077 12.1192 19.7077 11.9775C19.7077 11.6652 19.4546 11.4121 19.1424 11.4121ZM8.09418 12.4093C7.89337 12.2074 7.5674 12.2069 7.36593 12.4081L4.44356 15.3275C4.24223 15.5287 4.24171 15.8554 4.44234 16.0573L5.65589 17.2795C5.85671 17.4815 6.18281 17.482 6.38414 17.2808L9.30651 14.3613C9.50798 14.1601 9.50849 13.8333 9.30768 13.6315L8.09418 12.4093ZM16.6925 11.4121C16.3803 11.4121 16.1271 11.6652 16.1271 11.9775C16.1271 12.0955 16.1222 12.2128 16.1124 12.3292C15.9442 14.3344 14.3472 15.9351 12.3427 16.1079C12.223 16.1183 12.1024 16.1235 11.9811 16.1235C11.6689 16.1235 11.4157 16.3766 11.4157 16.6888C11.4157 17.0011 11.6689 17.2542 11.9811 17.2542C12.1349 17.2542 12.2879 17.2476 12.4398 17.2345C14.9931 17.0143 17.025 14.9778 17.2392 12.4238C17.2516 12.2759 17.2578 12.127 17.2578 11.9775C17.2578 11.6652 17.0047 11.4121 16.6925 11.4121ZM14.2425 11.4121C13.9303 11.4121 13.6772 11.6652 13.6772 11.9775C13.6772 12.7838 13.1099 13.4743 12.3314 13.6374C12.2173 13.6614 12.1002 13.6736 11.9811 13.6736C11.6689 13.6736 11.4157 13.9267 11.4157 14.2389C11.4157 14.5511 11.6689 14.8043 11.9811 14.8043C12.1782 14.8043 12.3731 14.784 12.5634 14.7441C13.8631 14.4717 14.8079 13.3215 14.8079 11.9775C14.8079 11.6652 14.5548 11.4121 14.2425 11.4121ZM10.5537 7.61877C10.2859 7.34972 9.85139 7.34908 9.58273 7.61722L7.62955 9.5684C7.36115 9.8366 7.36044 10.2723 7.62807 10.5415L9.8826 12.8143C10.1504 13.0835 10.5849 13.0842 10.8535 12.8159L12.8067 10.8647C13.0751 10.5965 13.0758 10.1608 12.8082 9.89185L10.5537 7.61877ZM16.0637 4.4479C15.8628 4.24598 15.5367 4.24547 15.3354 4.44667L12.4201 7.35909C12.2187 7.5603 12.2182 7.88691 12.4188 8.08889L13.6324 9.31111C13.8332 9.51302 14.1593 9.51354 14.3607 9.31233L17.276 6.39991C17.4774 6.19871 17.478 5.87203 17.2772 5.67011L16.0637 4.4479Z" fill="white"/>
</svg>
