<svg width="24" height="24" viewBox="0 0 24 24" fill="none" xmlns="http://www.w3.org/2000/svg">
<path d="M7.68781 4.635V19.191C8.88381 19.907 10.2798 20.325 11.8748 20.325V3.5C10.2798 3.5 8.88381 3.918 7.68781 4.635Z" fill="white"/>
<path d="M16.0623 4.63477V19.1908C18.4553 17.7348 20.2493 15.0248 20.2493 11.9118C20.2493 8.80077 18.4553 6.09077 16.0623 4.63477Z" fill="white"/>
<path d="M7.68782 4.63477V19.1908C5.29482 17.7348 3.49982 15.0248 3.49982 11.9118C3.49982 8.80077 5.29482 6.09077 7.68782 4.63477Z" fill="white"/>
<path d="M11.8753 3.5V20.325C13.2713 20.325 14.6663 19.907 16.0623 19.19V4.635C14.6663 3.918 13.2713 3.5 11.8753 3.5Z" fill="white"/>
</svg>
