<svg width="24" height="24" viewBox="0 0 24 24" fill="none" xmlns="http://www.w3.org/2000/svg">
<path d="M13.9063 7.76953H7.3113C5.9298 7.76953 4.802 8.89733 4.802 10.2788V18.0515C4.802 19.4329 5.9298 20.5608 7.3113 20.5608H13.4353C14.8166 20.5608 15.9445 19.4328 15.9445 18.0515V9.80773C15.9445 8.68513 15.0288 7.76953 13.9063 7.76953ZM7.3113 9.01953H13.9063C14.3385 9.01953 14.6945 9.37553 14.6945 9.80773V18.0515C14.6945 18.7425 14.1262 19.3108 13.4353 19.3108H7.3113C6.6202 19.3108 6.052 18.7426 6.052 18.0515V10.2788C6.052 9.58763 6.6201 9.01953 7.3113 9.01953Z" fill="white"/>
<path d="M15.8102 4.64258C17.5251 4.64258 18.9264 5.98468 19.021 7.67598L19.0261 7.85848V16.5785C19.0261 16.9237 18.7462 17.2035 18.4011 17.2035C18.0873 17.2035 17.8275 16.9722 17.7828 16.6708L17.7761 16.5785V7.85848C17.7761 6.82198 16.9742 5.97298 15.9569 5.89788L15.8102 5.89258H9.1532C8.808 5.89258 8.5282 5.61268 8.5282 5.26758C8.5282 4.95378 8.7595 4.69398 9.0608 4.64928L9.1532 4.64258H15.8102Z" fill="white"/>
<path d="M12.8994 14.0265C13.1378 13.7768 13.5334 13.7676 13.7831 14.006C14.0078 14.2205 14.0377 14.5624 13.8677 14.8106L13.8036 14.8896L10.9386 17.8909C10.717 18.123 10.3613 18.1462 10.1129 17.9605L10.0344 17.8908L7.17009 14.8896C6.93179 14.6399 6.94099 14.2442 7.19069 14.0059C7.41539 13.7914 7.75839 13.7775 7.99839 13.9589L8.07429 14.0265L10.4862 16.553L12.8994 14.0265Z" fill="white"/>
<path d="M10.4865 10.3203C10.8003 10.3203 11.0601 10.5516 11.1048 10.8529L11.1115 10.9453V17.322C11.1115 17.6672 10.8317 17.947 10.4865 17.947C10.1727 17.947 9.91301 17.7157 9.86831 17.4144L9.86151 17.322V10.9453C9.86151 10.6001 10.1414 10.3203 10.4865 10.3203Z" fill="white"/>
</svg>
