<svg width="24" height="24" viewBox="0 0 24 24" fill="none" xmlns="http://www.w3.org/2000/svg">
<path d="M16.7206 12.765L12.9036 16.764C12.6686 17.009 12.3396 17.151 11.9996 17.151C11.6596 17.151 11.3296 17.009 11.0956 16.763L7.2796 12.765C6.9926 12.465 7.0046 11.991 7.3036 11.704C7.6036 11.418 8.0776 11.43 8.3646 11.73L11.2496 14.752V6.87402C11.2496 6.46002 11.5856 6.12402 11.9996 6.12402C12.4136 6.12402 12.7496 6.46002 12.7496 6.87402V14.753L15.6356 11.73C15.9216 11.43 16.3966 11.418 16.6966 11.704C16.9956 11.991 17.0066 12.465 16.7206 12.765ZM17.4996 3.99902H6.4996C5.1246 3.99902 3.9996 5.12402 3.9996 6.49902V17.499C3.9996 18.874 5.1246 19.999 6.4996 19.999H17.4996C18.8746 19.999 19.9996 18.874 19.9996 17.499V6.49902C19.9996 5.12402 18.8746 3.99902 17.4996 3.99902Z" fill="white"/>
</svg>
