<svg width="24" height="24" viewBox="0 0 24 24" fill="none" xmlns="http://www.w3.org/2000/svg">
<path fill-rule="evenodd" clip-rule="evenodd" d="M15.7505 20.251H8.25049C7.42149 20.251 6.75049 19.58 6.75049 18.751V7.25098C6.75049 6.42198 7.42149 5.75098 8.25049 5.75098H15.7505C16.5785 5.75098 17.2505 6.42198 17.2505 7.25098V18.751C17.2505 19.58 16.5785 20.251 15.7505 20.251Z" stroke="white" stroke-width="1.5" stroke-linecap="round" stroke-linejoin="round"/>
<path d="M14.5005 6H9.50049V3.75C9.50049 3.336 9.83549 3 10.2505 3H13.7505C14.1645 3 14.5005 3.336 14.5005 3.75V6Z" fill="white"/>
<path d="M13.4492 11.597L12.9882 10.799C12.5492 10.037 11.4502 10.037 11.0112 10.799L10.5502 11.598M13.0267 15.887H13.9487C14.8277 15.887 15.3767 14.936 14.9377 14.175L14.4767 13.376M9.52279 13.3763L9.06179 14.1753C8.62279 14.9363 9.17179 15.8873 10.0498 15.8873H10.9728" stroke="white" stroke-width="1.5" stroke-linecap="round" stroke-linejoin="round"/>
</svg>
