<svg width="24" height="24" viewBox="0 0 24 24" fill="none" xmlns="http://www.w3.org/2000/svg">
<path fill-rule="evenodd" clip-rule="evenodd" d="M18.932 11.6554L16.254 10.7634V9.15838L12.546 6.66238V6.06838L15.437 4.55138L12.459 2.73838C12.342 2.56038 12.138 2.44238 11.905 2.44238C11.554 2.44238 11.262 2.73838 11.262 3.09538V6.63238L7.496 9.15838V10.7634L5.069 11.6554C4.105 11.6554 3.317 12.4584 3.317 13.4394V19.7754C3.317 20.7564 4.105 21.5584 5.069 21.5584H18.932C19.895 21.5584 20.683 20.7564 20.683 19.7754V13.4394C20.683 12.4584 19.895 11.6554 18.932 11.6554ZM11.875 15.6634C10.592 15.6634 9.542 14.5944 9.542 13.2884C9.542 11.9824 10.592 10.9134 11.875 10.9134C13.159 10.9134 14.207 11.9824 14.207 13.2884C14.207 14.5944 13.159 15.6634 11.875 15.6634Z" fill="white"/>
</svg>
