<svg width="24" height="24" viewBox="0 0 24 24" fill="none" xmlns="http://www.w3.org/2000/svg">
<path d="M2.81639 7.39049C3.28403 7.39049 3.66305 7.01119 3.66305 6.54383V5.03509C3.66305 4.257 4.29607 3.62398 5.07415 3.62398H6.54593C7.01356 3.62398 7.39259 3.24468 7.39259 2.77732C7.39259 2.30997 7.01356 1.93066 6.54593 1.93066H5.07415C3.36248 1.93066 1.96973 3.32342 1.96973 5.03509V6.54383C1.96973 7.01119 2.34903 7.39049 2.81639 7.39049Z" fill="white"/>
<path d="M19.1856 1.93066H17.7138C17.2465 1.93066 16.8672 2.30997 16.8672 2.77732C16.8672 3.24468 17.2465 3.62398 17.7138 3.62398H19.1856C19.9634 3.62398 20.5967 4.257 20.5967 5.03509V6.54383C20.5967 7.01119 20.9755 7.39049 21.4434 7.39049C21.9107 7.39049 22.29 7.01119 22.29 6.54383V5.03509C22.29 3.32314 20.897 1.93066 19.1856 1.93066Z" fill="white"/>
<path d="M5.07415 21.9139H6.54593C7.01356 21.9139 7.39259 21.5346 7.39259 21.0673C7.39259 20.5993 7.01356 20.2206 6.54593 20.2206H5.07415C4.29607 20.2206 3.66305 19.5873 3.66305 18.8095V17.0185C3.66305 16.5506 3.28403 16.1719 2.81639 16.1719C2.34903 16.1719 1.96973 16.5506 1.96973 17.0185V18.8095C1.96973 20.5209 3.36248 21.9139 5.07415 21.9139Z" fill="white"/>
<path d="M16.8672 21.0673C16.8672 21.5346 17.2465 21.9139 17.7138 21.9139H19.1856C20.897 21.9139 22.29 20.5209 22.29 18.8095V17.3008C22.29 16.8328 21.9107 16.4541 21.4434 16.4541C20.9755 16.4541 20.5967 16.8328 20.5967 17.3008V18.8095C20.5967 19.5873 19.9634 20.2206 19.1856 20.2206H17.7138C17.2465 20.2206 16.8672 20.5994 16.8672 21.0673Z" fill="white"/>
<path d="M5.8252 8.04202V15.8022C5.8252 17.1357 6.91626 18.2271 8.25003 18.2271H16.0102C17.3437 18.2271 18.4351 17.1357 18.4351 15.8022V7.07203C18.4351 6.27194 17.7803 5.61719 16.9799 5.61719H8.24975C6.91626 5.61691 5.8252 6.70853 5.8252 8.04202ZM11.8102 13.8899L14.5842 11.1755C14.9909 10.7736 15.3995 11.0477 15.5528 11.2043L16.9799 12.6685V15.8022C16.9799 16.3274 16.5363 16.7719 16.0102 16.7719H8.24975C7.72397 16.7719 7.27976 16.3277 7.27976 15.8022V14.7185L9.27788 12.9529C9.66311 12.6058 10.0142 12.6972 10.2456 12.9236L11.2416 13.8905C11.3982 14.0437 11.6542 14.0432 11.8102 13.8899ZM9.61005 8.51982C10.262 8.51982 10.792 9.0504 10.792 9.70176C10.792 10.3531 10.262 10.8837 9.61005 10.8837C8.95756 10.8837 8.42783 10.3531 8.42783 9.70176C8.42783 9.0504 8.95756 8.51982 9.61005 8.51982Z" fill="white"/>
</svg>
