<svg width="24" height="24" viewBox="0 0 24 24" fill="none" xmlns="http://www.w3.org/2000/svg">
<path d="M7.0536 3.5C7.4678 3.5 7.8036 3.8358 7.8036 4.25C7.8036 4.6297 7.5214 4.9435 7.1554 4.9932L7.0536 5H5.7496C5.1025 5 4.5701 5.4919 4.5061 6.1222L4.4996 6.25V7.586C4.4996 8.0002 4.1638 8.336 3.7496 8.336C3.3699 8.336 3.0561 8.0538 3.0064 7.6878L2.9996 7.586V6.25C2.9996 4.7873 4.1416 3.5916 5.5821 3.505L5.7496 3.5H7.0536Z" fill="white"/>
<path d="M18.2497 3.5C19.7126 3.5 20.9081 4.6413 20.9947 6.0824L20.9997 6.25V7.586C20.9997 8.0002 20.6639 8.336 20.2497 8.336C19.87 8.336 19.5562 8.0538 19.5065 7.6878L19.4997 7.586V6.25C19.4997 5.6024 19.0082 5.0704 18.3776 5.0064L18.2497 5H16.9467C16.5325 5 16.1967 4.6642 16.1967 4.25C16.1967 3.8703 16.4789 3.5565 16.8449 3.5068L16.9467 3.5H18.2497Z" fill="white"/>
<path d="M3.7496 16.1162C4.1293 16.1162 4.4431 16.3984 4.4928 16.7644L4.4996 16.8662V18.4522C4.4996 19.0989 4.992 19.6317 5.6219 19.6957L5.7496 19.7022H7.0536C7.4678 19.7022 7.8036 20.038 7.8036 20.4522C7.8036 20.8319 7.5214 21.1457 7.1554 21.1954L7.0536 21.2022H5.7496C4.2876 21.2022 3.0912 20.06 3.0046 18.6197L2.9996 18.4522V16.8662C2.9996 16.452 3.3354 16.1162 3.7496 16.1162Z" fill="white"/>
<path d="M20.2497 16.3662C20.6294 16.3662 20.9432 16.6484 20.9929 17.0144L20.9997 17.1162V18.4522C20.9997 19.9145 19.8581 21.1106 18.4172 21.1972L18.2497 21.2022H16.9467C16.5325 21.2022 16.1967 20.8664 16.1967 20.4522C16.1967 20.0725 16.4789 19.7587 16.8449 19.709L16.9467 19.7022H18.2497C18.8969 19.7022 19.4292 19.2102 19.4932 18.58L19.4997 18.4522V17.1162C19.4997 16.702 19.8355 16.3662 20.2497 16.3662Z" fill="white"/>
<path d="M15.3749 14.4416C15.3749 14.8596 15.0329 15.2016 14.6149 15.2016H9.3849C8.9649 15.2016 8.6249 14.8616 8.6249 14.4416V14.1396C8.6249 13.9006 8.7769 13.7496 8.7829 13.7456L10.0779 12.5166C10.2709 12.3336 10.5839 12.3366 10.7729 12.5236L11.3149 13.0586C11.4109 13.1526 11.5659 13.1516 11.6609 13.0576L13.2759 11.4566C13.4739 11.2606 13.7939 11.2636 13.9869 11.4646L15.2369 12.7586C15.2369 12.7586 15.3749 12.8856 15.3749 13.0666V14.4416ZM15.2499 8.10156H8.7499C7.9209 8.10156 7.2499 8.77356 7.2499 9.60156V15.1016C7.2499 15.9296 7.9209 16.6016 8.7499 16.6016H15.2499C16.0789 16.6016 16.7499 15.9296 16.7499 15.1016V9.60156C16.7499 8.77356 16.0789 8.10156 15.2499 8.10156Z" fill="white"/>
</svg>
