<svg width="24" height="24" viewBox="0 0 24 24" fill="none" xmlns="http://www.w3.org/2000/svg">
<path d="M10.8225 6.5195H13.1945M15.9806 8.7578L14.7156 10.0228M12.0403 10.9375V12.3235M16.75 20.5H7.25C5.869 20.5 4.75 19.381 4.75 18V6C4.75 4.619 5.869 3.5 7.25 3.5H16.75C18.131 3.5 19.25 4.619 19.25 6V18C19.25 19.381 18.131 20.5 16.75 20.5ZM15.8302 12.7138C15.8302 14.8158 14.1262 16.5198 12.0232 16.5198C9.9212 16.5198 8.2172 14.8158 8.2172 12.7138C8.2172 10.6108 9.9212 8.9068 12.0232 8.9068C14.1262 8.9068 15.8302 10.6108 15.8302 12.7138Z" stroke="white" stroke-width="1.5" stroke-linecap="round" stroke-linejoin="round"/>
</svg>
