<svg width="24" height="24" viewBox="0 0 24 24" fill="none" xmlns="http://www.w3.org/2000/svg">
<path d="M8.78469 15.674C9.04069 15.708 9.27169 15.798 9.44169 15.958C9.60069 16.127 9.69169 16.359 9.72469 16.614C9.74299 16.7534 9.74819 16.8674 9.74929 16.9395L9.74909 17.0141C9.74889 17.0206 9.74869 17.024 9.74869 17.024L9.74909 17.0339L9.74929 17.1085C9.74819 17.1804 9.74299 17.2941 9.72469 17.433C9.69169 17.689 9.60069 17.921 9.44169 18.09C9.27169 18.249 9.04069 18.34 8.78469 18.373C8.57559 18.4013 8.42369 18.3994 8.38459 18.3983L8.37469 18.398C8.37469 18.398 8.20969 18.406 7.96469 18.373C7.70969 18.34 7.47869 18.249 7.30869 18.09C7.14969 17.921 7.05869 17.689 7.02569 17.433C7.00679 17.2941 7.00169 17.1804 7.00079 17.1085V16.9395C7.00169 16.8674 7.00679 16.7534 7.02569 16.614C7.05869 16.359 7.14969 16.127 7.30869 15.958C7.47869 15.798 7.70969 15.708 7.96469 15.674C8.10469 15.6557 8.21859 15.6505 8.29049 15.6494H8.45919C8.53129 15.6505 8.64529 15.6557 8.78469 15.674ZM16.0347 15.674C16.2907 15.708 16.5217 15.798 16.6917 15.958C16.8507 16.127 16.9417 16.359 16.9747 16.614C16.993 16.7534 16.9982 16.8674 16.9993 16.9395L16.9991 17.0141C16.9989 17.0206 16.9987 17.024 16.9987 17.024L16.9991 17.0339L16.9993 17.1085C16.9982 17.1804 16.993 17.2941 16.9747 17.433C16.9417 17.689 16.8507 17.921 16.6917 18.09C16.5217 18.249 16.2907 18.34 16.0347 18.373C15.8256 18.4013 15.6737 18.3994 15.6346 18.3983L15.6247 18.398C15.6247 18.398 15.4597 18.406 15.2147 18.373C14.9597 18.34 14.7287 18.249 14.5587 18.09C14.3997 17.921 14.3087 17.689 14.2757 17.433C14.2474 17.2247 14.25 17.073 14.2513 17.0339L14.2517 17.024C14.2517 17.024 14.2427 16.858 14.2757 16.614C14.3087 16.359 14.3997 16.127 14.5587 15.958C14.7287 15.798 14.9597 15.708 15.2147 15.674C15.3547 15.6557 15.4686 15.6505 15.5405 15.6494H15.7092C15.7813 15.6505 15.8953 15.6557 16.0347 15.674Z" fill="white"/>
<path d="M16.75 20.5H7.25C5.869 20.5 4.75 19.381 4.75 18V6C4.75 4.619 5.869 3.5 7.25 3.5H16.75C18.131 3.5 19.25 4.619 19.25 6V18C19.25 19.381 18.131 20.5 16.75 20.5Z" stroke="white" stroke-width="1.5" stroke-linecap="round" stroke-linejoin="round"/>
</svg>
