<svg width="24" height="24" viewBox="0 0 24 24" fill="none" xmlns="http://www.w3.org/2000/svg">
<path fill-rule="evenodd" clip-rule="evenodd" d="M22 6.875C22 8.187 20.937 9.25 19.625 9.25C18.313 9.25 17.25 8.187 17.25 6.875C17.25 5.563 18.313 4.5 19.625 4.5C20.937 4.5 22 5.563 22 6.875ZM4.27 6.2554C4.547 5.7744 5.168 5.6084 5.648 5.8864L7.119 6.9344C7.6 7.2124 7.801 7.7694 7.576 8.1624C7.333 8.5814 6.763 8.6604 6.283 8.3824L4.639 7.6324C4.158 7.3554 3.992 6.7354 4.27 6.2554ZM3.0078 11.4717L5.1328 11.6427C5.6868 11.6427 6.1408 12.0257 6.1408 12.4797C6.1408 12.9617 5.6868 13.3167 5.1328 13.3167L3.0078 13.4887C2.4538 13.4887 1.9998 13.0347 1.9998 12.4797C1.9998 11.9247 2.4538 11.4717 3.0078 11.4717ZM6.2769 16.6099C6.7569 16.3329 7.3429 16.4379 7.5679 16.8299C7.8099 17.2479 7.5939 17.7819 7.1129 18.0589L5.6429 19.1079C5.1609 19.3859 4.5409 19.2199 4.2629 18.7379C3.9859 18.2579 4.1519 17.6389 4.6329 17.3599L6.2769 16.6099Z" fill="white"/>
<path fill-rule="evenodd" clip-rule="evenodd" d="M19.6499 7.49316V17.4992C19.6499 18.6042 18.7539 19.4992 17.6499 19.4992H11.1019C9.9969 19.4992 9.1019 18.6042 9.1019 17.4992V7.49316C9.1019 6.38916 9.9969 5.49316 11.1019 5.49316H17.4669H17.6499C18.7539 5.49316 19.6499 6.38916 19.6499 7.49316Z" stroke="white" stroke-width="1.5" stroke-linecap="round" stroke-linejoin="round"/>
</svg>
