<svg width="24" height="24" viewBox="0 0 24 24" fill="none" xmlns="http://www.w3.org/2000/svg">
<path fill-rule="evenodd" clip-rule="evenodd" d="M18.2391 11.9073C16.9891 13.1583 15.1651 13.4853 13.6131 12.8893L7.55711 18.9453C6.87211 19.6313 5.74311 19.7033 5.04011 19.0353C4.31811 18.3503 4.30711 17.2103 5.00711 16.5103L11.1201 10.3963C10.5241 8.84427 10.8521 7.02127 12.1021 5.77027C13.3141 4.55827 15.0641 4.21427 16.5831 4.73527C16.8481 4.82727 16.9311 5.16027 16.7331 5.35927L14.3821 7.71027C14.0891 8.00327 14.0891 8.47827 14.3821 8.77127L15.2391 9.62827C15.5311 9.92127 16.0061 9.92127 16.2991 9.62827L18.6511 7.27627C18.8491 7.07827 19.1831 7.16227 19.2741 7.42727C19.7961 8.94627 19.4511 10.6953 18.2391 11.9073Z" stroke="white" stroke-width="1.5" stroke-linecap="round" stroke-linejoin="round"/>
</svg>
