<svg width="24" height="24" viewBox="0 0 24 24" fill="none" xmlns="http://www.w3.org/2000/svg">
<path d="M16.8439 9.38641C16.8439 9.77281 16.5303 10.0864 16.1439 10.0864C15.7575 10.0864 15.4439 9.77281 15.4439 9.38641V7.28641C15.4439 6.90001 15.7575 6.58641 16.1439 6.58641C16.5303 6.58641 16.8439 6.90001 16.8439 7.28641V9.38641ZM13.5772 9.38641C13.5772 9.77281 13.2636 10.0864 12.8772 10.0864C12.4908 10.0864 12.1772 9.77281 12.1772 9.38641V7.28641C12.1772 6.90001 12.4908 6.58641 12.8772 6.58641C13.2636 6.58641 13.5772 6.90001 13.5772 7.28641V9.38641ZM10.3106 9.38641C10.3106 9.77281 9.997 10.0864 9.6106 10.0864C9.2242 10.0864 8.9106 9.77281 8.9106 9.38641V7.28641C8.9106 6.90001 9.2242 6.58641 9.6106 6.58641C9.997 6.58641 10.3106 6.90001 10.3106 7.28641V9.38641ZM17.0166 3.83301H8.5662C7.2828 3.83301 6.2328 4.88301 6.2328 6.16641V11.1774C6.2328 11.366 6.1348 11.6413 6.0163 11.7878L5.0195 13.0245C4.8151 13.2774 4.6499 13.7497 4.6499 14.0736V18.2997C4.6499 19.5886 5.6943 20.1664 6.9832 20.1664H17.0166C18.3036 20.1664 19.3499 19.5886 19.3499 18.2997V6.16641C19.3499 4.87741 18.3036 3.83301 17.0166 3.83301Z" fill="white"/>
</svg>
