<svg width="24" height="24" viewBox="0 0 24 24" fill="none" xmlns="http://www.w3.org/2000/svg">
<path d="M4.7876 10.4111C4.7876 7.30911 7.3106 4.78711 10.4126 4.78711C13.5146 4.78711 16.0376 7.30911 16.0376 10.4111C16.0376 13.5131 13.5146 16.0371 10.4126 16.0371C7.3106 16.0371 4.7876 13.5131 4.7876 10.4111ZM20.4926 19.4321L15.9506 14.8891C16.9416 13.6641 17.5376 12.1061 17.5376 10.4111C17.5376 6.48211 14.3416 3.28711 10.4126 3.28711C6.4836 3.28711 3.2876 6.48211 3.2876 10.4111C3.2876 14.3401 6.4836 17.5371 10.4126 17.5371C12.1066 17.5371 13.6656 16.9401 14.8896 15.9491L19.4326 20.4921C19.5786 20.6391 19.7706 20.7121 19.9626 20.7121C20.1546 20.7121 20.3466 20.6391 20.4926 20.4921C20.7856 20.1991 20.7856 19.7241 20.4926 19.4321Z" fill="white"/>
</svg>
