<svg width="24" height="24" viewBox="0 0 24 24" fill="none" xmlns="http://www.w3.org/2000/svg">
<path d="M15.6359 10.135V8.00901C15.6359 7.08401 14.8849 6.33301 13.9599 6.33301H3.3469C2.4219 6.33301 1.6709 7.08401 1.6709 8.00901V15.991C1.6709 16.917 2.4219 17.667 3.3469 17.667H14.0829" stroke="white" stroke-width="1.5" stroke-linecap="round" stroke-linejoin="round"/>
<path fill-rule="evenodd" clip-rule="evenodd" d="M21.1701 10.5234H13.8331C13.1931 10.5234 12.6741 11.0414 12.6741 11.6814V16.5084C12.6741 17.1484 13.1931 17.6674 13.8331 17.6674H21.1701C21.8101 17.6674 22.3291 17.1484 22.3291 16.5084V11.6814C22.3291 11.0414 21.8101 10.5234 21.1701 10.5234Z" stroke="white" stroke-width="1.5" stroke-linecap="round" stroke-linejoin="round"/>
<path d="M4.59912 17.666C5.74612 14.646 8.66712 12.5 12.0891 12.5C15.5111 12.5 18.4321 14.647 19.5781 17.667" stroke="white" stroke-width="1.5" stroke-linecap="round" stroke-linejoin="round"/>
</svg>
