<svg width="24" height="24" viewBox="0 0 24 24" fill="none" xmlns="http://www.w3.org/2000/svg">
<path fill-rule="evenodd" clip-rule="evenodd" d="M12.386 21.9389C13.2978 21.568 14.8824 20.7682 16.3651 19.5084C18.9019 17.3519 20.1894 14.7527 20.1894 11.7791V5.56249C20.1894 4.71301 19.563 4.00117 18.7239 3.87277C16.4888 3.53185 14.6269 2.88013 12.6726 1.96009C12.2161 1.74637 11.6856 1.74637 11.2291 1.96009C9.27476 2.87893 7.41296 3.53185 5.17664 3.87277C4.3376 4.00117 3.7124 4.71301 3.7124 5.56249V11.7791C3.7124 14.7527 4.99976 17.3519 7.53656 19.5084C9.02048 20.7682 10.6039 21.568 11.5158 21.9389C11.7954 22.0534 12.1063 22.0534 12.386 21.9389Z" fill="white"/>
</svg>
