<svg width="24" height="24" viewBox="0 0 24 24" fill="none" xmlns="http://www.w3.org/2000/svg">
<path d="M14.0733 13.9182C13.406 14.3555 12.6087 14.6115 11.7527 14.6115C10.896 14.6115 10.0993 14.3555 9.43133 13.9182V13.4395C9.43133 12.4002 10.4707 11.4335 11.7527 11.4335C13.034 11.4335 14.074 12.4002 14.0733 13.4395V13.9182ZM11.7527 7.97149C12.49 7.97149 13.088 8.56949 13.088 9.30749C13.088 10.0448 12.49 10.6428 11.7527 10.6428C11.0147 10.6428 10.4173 10.0448 10.4173 9.30749C10.4173 8.56949 11.0147 7.97149 11.7527 7.97149ZM16.482 6.11416C14.9207 5.87616 13.6207 5.42083 12.256 4.77949C11.9373 4.62949 11.5673 4.62949 11.2487 4.77949C9.88467 5.42083 8.584 5.87616 7.02267 6.11416C6.43667 6.20349 6 6.70149 6 7.29416V11.6355C6 13.7108 6.89867 15.5255 8.67 17.0315C9.706 17.9108 10.812 18.4695 11.4487 18.7282C11.644 18.8082 11.8607 18.8082 12.056 18.7282C12.6933 18.4695 13.7993 17.9108 14.8353 17.0315C16.6067 15.5255 17.5047 13.7108 17.5047 11.6355V7.29416C17.5047 6.70149 17.068 6.20349 16.482 6.11416Z" fill="white"/>
</svg>
