<svg width="24" height="24" viewBox="0 0 24 24" fill="none" xmlns="http://www.w3.org/2000/svg">
<path fill-rule="evenodd" clip-rule="evenodd" d="M12.3862 21.9389C13.298 21.568 14.8826 20.7682 16.3653 19.5084C18.9021 17.3519 20.1896 14.7527 20.1896 11.7791V5.56249C20.1896 4.71301 19.5632 4.00117 18.7242 3.87277C16.489 3.53185 14.6271 2.88013 12.6728 1.96009C12.2163 1.74637 11.6858 1.74637 11.2293 1.96009C9.27501 2.87893 7.41321 3.53185 5.17689 3.87277C4.33785 4.00117 3.71265 4.71301 3.71265 5.56249V11.7791C3.71265 14.7527 5.00001 17.3519 7.53681 19.5084C9.02073 20.7682 10.6041 21.568 11.516 21.9389C11.7956 22.0534 12.1065 22.0534 12.3862 21.9389Z" stroke="white" stroke-width="1.8" stroke-linecap="round" stroke-linejoin="round"/>
</svg>
