<svg width="24" height="24" viewBox="0 0 24 24" fill="none" xmlns="http://www.w3.org/2000/svg">
<path d="M10.995 3.71682C9.53 4.38082 8.104 4.86383 6.437 5.13883C5.604 5.27583 5 6.01383 5 6.86283V11.9258C5 14.4648 6.093 16.6857 8.248 18.5298C9.112 19.2668 10.018 19.8207 10.752 20.1987C11.536 20.6007 12.463 20.6007 13.247 20.1987C13.98 19.8207 14.886 19.2668 15.75 18.5298C17.904 16.6857 19 14.4648 19 11.9258V6.86283C19 6.01383 18.395 5.27683 17.561 5.13883C15.895 4.86383 14.469 4.38082 13.006 3.71682C12.367 3.42773 11.633 3.42773 10.995 3.71682Z" stroke="white" stroke-width="1.5" stroke-linecap="round" stroke-linejoin="round"/>
<path d="M12.0005 11.6365C13.5885 11.6365 14.8775 12.8345 14.8765 14.1225V14.7155C14.0495 15.2575 13.0615 15.5745 12.0005 15.5745C10.9385 15.5745 9.95154 15.2575 9.12354 14.7155V14.1225C9.12354 12.8345 10.4115 11.6365 12.0005 11.6365ZM13.6238 9.32962C13.4928 10.0126 12.9198 10.5486 12.2298 10.6416C11.1338 10.7876 10.2118 9.86362 10.3618 8.76862C10.4548 8.07962 10.9928 7.50762 11.6758 7.37762C12.8428 7.15562 13.8478 8.16162 13.6238 9.32962Z" fill="white"/>
</svg>
