<svg width="24" height="24" viewBox="0 0 24 24" fill="none" xmlns="http://www.w3.org/2000/svg">
<path d="M17.6514 18.6453C18.0514 18.5373 18.4634 18.7753 18.5694 19.1763C18.6774 19.5763 18.4404 19.9873 18.0394 20.0953C17.5614 20.2233 17.0664 20.2873 16.5664 20.2873H16.1094C15.6954 20.2873 15.3594 19.9523 15.3594 19.5373C15.3594 19.1233 15.6954 18.7873 16.1094 18.7873H16.5664C16.9354 18.7873 17.2994 18.7393 17.6514 18.6453ZM12.8569 18.7873C13.2709 18.7873 13.6069 19.1233 13.6069 19.5373C13.6069 19.9523 13.2709 20.2873 12.8569 20.2873H11.1059C10.6909 20.2873 10.3559 19.9523 10.3559 19.5373C10.3559 19.1233 10.6909 18.7873 11.1059 18.7873H12.8569ZM5.39647 19.1544C5.50847 18.7564 5.92147 18.5214 6.32047 18.6334C6.68647 18.7354 7.06447 18.7874 7.44747 18.7874H7.85347C8.26747 18.7874 8.60348 19.1234 8.60348 19.5374C8.60348 19.9524 8.26747 20.2874 7.85347 20.2874H7.44747C6.92847 20.2874 6.41347 20.2164 5.91747 20.0784C5.51847 19.9664 5.28547 19.5524 5.39647 19.1544ZM20.5892 15.8251C20.7152 15.4311 21.1362 15.2121 21.5312 15.3371C21.9262 15.4621 22.1442 15.8841 22.0192 16.2781C21.8162 16.9211 21.5042 17.5181 21.0922 18.0521C20.9452 18.2441 20.7222 18.3451 20.4972 18.3451C20.3382 18.3451 20.1772 18.2941 20.0402 18.1901C19.7122 17.9371 19.6512 17.4661 19.9042 17.1381C20.2082 16.7411 20.4392 16.3001 20.5892 15.8251ZM2.47647 15.2829C2.87347 15.1629 3.29147 15.3859 3.41347 15.7819C3.55847 16.2579 3.78447 16.7019 4.08447 17.1009C4.33347 17.4319 4.26747 17.9029 3.93647 18.1519C3.80147 18.2529 3.64347 18.3019 3.48647 18.3019C3.25847 18.3019 3.03347 18.1989 2.88647 18.0029C2.48047 17.4639 2.17547 16.8649 1.97847 16.2199C1.85747 15.8239 2.08047 15.4049 2.47647 15.2829ZM19.9333 10.7594C20.2543 10.4974 20.7263 10.5444 20.9883 10.8654C21.4153 11.3874 21.7443 11.9744 21.9673 12.6114C22.1033 13.0024 21.8973 13.4294 21.5063 13.5664C21.4243 13.5944 21.3403 13.6084 21.2583 13.6084C20.9483 13.6084 20.6583 13.4154 20.5503 13.1054C20.3863 12.6364 20.1423 12.2014 19.8263 11.8144C19.5643 11.4934 19.6123 11.0204 19.9333 10.7594ZM3.06697 10.8178C3.33297 10.4998 3.80597 10.4568 4.12397 10.7228C4.44197 10.9878 4.48397 11.4608 4.21897 11.7788C3.89897 12.1618 3.64997 12.5938 3.48097 13.0628C3.37097 13.3678 3.08297 13.5578 2.77597 13.5578C2.69097 13.5578 2.60497 13.5428 2.52097 13.5128C2.13097 13.3718 1.92997 12.9428 2.06997 12.5528C2.29897 11.9188 2.63497 11.3348 3.06697 10.8178ZM7.25237 7.64856C7.66037 7.72256 7.92937 8.11356 7.85537 8.52056C7.80837 8.77656 7.78537 9.03956 7.78537 9.30056C7.78537 9.36656 7.78737 9.43056 7.79037 9.49456C7.80937 9.90856 7.48837 10.2586 7.07537 10.2776C7.06337 10.2786 7.05137 10.2786 7.04037 10.2786C6.64237 10.2786 6.31037 9.96456 6.29237 9.56256C6.28837 9.47556 6.28537 9.38856 6.28537 9.30056C6.28537 8.94856 6.31637 8.59556 6.37937 8.25156C6.45437 7.84356 6.84537 7.57456 7.25237 7.64856ZM16.5323 7.08546C16.9283 6.96246 17.3483 7.18346 17.4713 7.57946C17.6443 8.13446 17.7323 8.71446 17.7323 9.30046C17.7323 9.38746 17.7293 9.47446 17.7253 9.55946C17.7083 9.96346 17.3763 10.2785 16.9763 10.2785C16.9653 10.2785 16.9553 10.2785 16.9443 10.2775C16.5303 10.2595 16.2093 9.91046 16.2263 9.49646C16.2293 9.43146 16.2323 9.36746 16.2323 9.30046C16.2323 8.86546 16.1673 8.43546 16.0393 8.02346C15.9163 7.62846 16.1373 7.20846 16.5323 7.08546ZM9.84537 3.96366C10.2294 3.80666 10.6674 3.98966 10.8244 4.37266C10.9824 4.75466 10.7994 5.19366 10.4164 5.35066C9.95737 5.53966 9.53837 5.80666 9.16937 6.14466C9.02537 6.27666 8.84337 6.34166 8.66237 6.34166C8.46037 6.34166 8.25737 6.25966 8.10937 6.09866C7.82937 5.79266 7.85037 5.31866 8.15538 5.03966C8.65438 4.58166 9.22337 4.21966 9.84537 3.96366ZM12.5926 4.26456C12.7026 3.86556 13.1146 3.63056 13.5146 3.73956C14.1636 3.91856 14.7726 4.20856 15.3236 4.60256C15.6606 4.84456 15.7376 5.31256 15.4966 5.64956C15.3506 5.85356 15.1196 5.96256 14.8866 5.96256C14.7346 5.96256 14.5826 5.91756 14.4506 5.82256C14.0436 5.53156 13.5956 5.31756 13.1186 5.18656C12.7186 5.07656 12.4836 4.66456 12.5926 4.26456Z" fill="white"/>
</svg>
