<svg width="24" height="24" viewBox="0 0 24 24" fill="none" xmlns="http://www.w3.org/2000/svg">
<path fill-rule="evenodd" clip-rule="evenodd" d="M20.7905 3.15133C20.6409 3.05003 20.554 3.01303 20.3249 3.00013C20.296 2.99883 20.1321 3.00803 20.0955 3.01053C19.5971 3.04233 18.137 3.57533 17.9568 3.64143L3.4576 8.97433C3.2498 9.05023 3.0897 9.22322 3.0277 9.43822C2.9659 9.65462 3.0088 9.88623 3.1434 10.0641C3.4252 10.4359 4.7071 11.1246 5.2452 11.4035L7.1377 12.385C7.1806 12.7659 7.2221 13.4921 7.206 14.3454L7.1806 15.6495L14.7042 8.03312C15.0108 7.72322 15.5073 7.72322 15.8139 8.03312C16.12 8.34342 16.12 8.84622 15.8139 9.15652L8.294 16.769C9.0187 16.8774 9.9201 16.8911 9.9724 16.8918C10.7156 16.9017 11.3237 16.936 11.6013 16.9638C11.8091 17.217 12.2552 17.8616 12.6844 18.5913L13.8966 20.6559C14.0068 20.8434 14.1954 20.968 14.4092 20.9952C14.4371 20.9987 14.4657 21.0001 14.4946 21.0001C14.6781 21.0001 14.8556 20.9267 14.987 20.7929C15.3305 20.4434 15.8588 18.9408 16.0126 18.489L20.9613 3.92983C21.0443 3.56373 20.9966 3.29043 20.7905 3.15133Z" fill="white"/>
</svg>
