<svg width="24" height="24" viewBox="0 0 24 24" fill="none" xmlns="http://www.w3.org/2000/svg">
<path fill-rule="evenodd" clip-rule="evenodd" d="M13.3856 3.13965C13.8582 3.13965 14.3088 3.41735 14.5588 3.86595L14.6219 3.99245L14.6691 4.13445L15.1121 5.86025L15.1526 5.89365C15.2432 5.97645 15.4617 6.18645 15.5527 6.24455C15.5427 6.23805 15.5523 6.23625 15.5701 6.23625L15.6656 6.23675L15.7338 6.22385L17.4439 5.74715C17.9001 5.61975 18.4098 5.76655 18.7707 6.13395L18.8653 6.23955L18.9471 6.36205L20.3352 8.77515C20.5639 9.17425 20.5547 9.68655 20.3069 10.1263L20.2254 10.2558L20.1156 10.3821L18.8475 11.6322C18.8112 11.6679 18.77 11.7413 18.7555 11.7527L18.7502 11.748L18.7476 11.8141L18.7457 12.2267C18.7467 12.2127 18.7528 12.2181 18.7609 12.2314L18.8019 12.3048L18.8476 12.358L20.118 13.6093C20.4459 13.9356 20.5739 14.4368 20.4472 14.9306L20.4063 15.0649L20.3346 15.2149L18.947 17.6273C18.7111 18.0372 18.2447 18.2894 17.7304 18.2809L17.5891 18.2721L17.4442 18.2421L15.7335 17.7652C15.7515 17.7703 15.3099 17.8912 15.1922 17.9526C15.2101 17.9431 15.174 17.9928 15.1508 18.0321L15.137 18.0585L15.1134 18.1276L14.6686 19.8564C14.55 20.3135 14.1686 20.6805 13.6716 20.8101L13.5333 20.8395L13.3856 20.8495H10.6144C10.1414 20.8495 9.6902 20.5713 9.4409 20.1215L9.3781 19.9947L9.3321 19.8554L8.8868 18.1283C8.8909 18.1444 8.564 17.8194 8.4487 17.7452C8.4583 17.7513 8.4482 17.7528 8.4302 17.7527L8.3352 17.7518L8.2653 17.7653L6.5561 18.242C6.1001 18.3693 5.5908 18.2221 5.2299 17.8556L5.1353 17.7503L5.0528 17.627L3.6675 15.2171C3.4362 14.8181 3.4443 14.3045 3.6927 13.8635L3.7744 13.7335L3.8844 13.607L5.1515 12.3579C5.1878 12.3222 5.2294 12.2481 5.244 12.2351L5.2524 12.175L5.2541 11.7658C5.2522 11.7925 5.2297 11.7417 5.2105 11.7064L5.1971 11.6843L5.1515 11.6311L3.8824 10.3811C3.5531 10.0552 3.4258 9.55365 3.5525 9.05955L3.5933 8.92515L3.6654 8.77425L5.0523 6.36295C5.2882 5.95155 5.7549 5.69935 6.2697 5.70815L6.4112 5.71715L6.5559 5.74715L8.2631 6.22325C8.2462 6.21855 8.6888 6.09715 8.811 6.03345C8.8009 6.03865 8.8047 6.02905 8.8139 6.01315L8.8635 5.92805L8.8866 5.86155L9.3308 4.13515C9.448 3.67665 9.8304 3.30895 10.3281 3.17905L10.4666 3.14965L10.6144 3.13965H13.3856ZM10.6912 4.56135L10.2537 6.25945L10.2047 6.40635C10.0605 6.77785 9.7899 7.12945 9.4699 7.29645C9.0923 7.49345 8.4617 7.67575 8.0217 7.62275L7.8826 7.59605L6.2494 7.13695L4.9341 9.41715L6.1821 10.6488L6.2855 10.7661C6.5042 11.0412 6.6576 11.395 6.677 11.6911L6.6764 12.2019L6.6679 12.3551C6.6281 12.6676 6.4677 13.0102 6.2486 13.2678L6.1513 13.3727L4.9351 14.5654L6.2456 16.8494L7.9252 16.3826L8.0776 16.3513C8.4708 16.2905 8.9111 16.3505 9.2173 16.5458C9.5802 16.7794 10.057 17.2418 10.2253 17.6513L10.2661 17.7723L10.6893 19.424L13.3076 19.4269L13.7456 17.7319L13.7944 17.584C13.9371 17.2139 14.2078 16.8621 14.5291 16.6918C14.9079 16.4942 15.5387 16.3121 15.9777 16.3661L16.1163 16.3931L17.7502 16.8513L19.0646 14.5711L17.8169 13.3403L17.7136 13.223C17.4942 12.947 17.3407 12.5922 17.3224 12.2973L17.3234 11.79L17.3315 11.6362C17.3704 11.3231 17.5308 10.9804 17.7502 10.7224L17.8477 10.6174L19.0646 9.42185L17.7531 7.13885L16.072 7.60685L15.9202 7.63775C15.5258 7.69805 15.0858 7.63805 14.7842 7.44395C14.4236 7.21395 13.9432 6.74815 13.7738 6.33745L13.7328 6.21615L13.3104 4.56415L10.6912 4.56135ZM11.9995 8.68585C13.8269 8.68585 15.3083 10.1671 15.3083 11.9946C15.3083 13.8213 13.8266 15.3033 11.9995 15.3033C10.1732 15.3033 8.6917 13.8211 8.6917 11.9946C8.6917 10.1673 10.1729 8.68585 11.9995 8.68585ZM11.9995 10.1104C10.9597 10.1104 10.1163 10.954 10.1163 11.9946C10.1163 13.0345 10.9601 13.8787 11.9995 13.8787C13.0398 13.8787 13.8837 13.0346 13.8837 11.9946C13.8837 10.9539 13.0402 10.1104 11.9995 10.1104Z" fill="white"/>
</svg>
