<svg width="24" height="24" viewBox="0 0 24 24" fill="none" xmlns="http://www.w3.org/2000/svg">
<path d="M20.1782 14.2996L18.7782 12.8996C18.5782 12.6996 18.4782 12.3996 18.4782 12.1996C18.4782 12.1996 18.4782 12.1996 18.4782 11.9996C18.4782 11.7996 18.4782 11.7996 18.4782 11.7996C18.4782 11.5996 18.5782 11.2996 18.7782 11.0996L20.1782 9.69961C20.3782 9.49961 20.3782 9.19961 20.2782 8.89961L18.7782 6.29961C18.6782 6.09961 18.2782 5.89961 18.0782 5.99961L16.1782 6.49961C15.8782 6.59961 15.5782 6.49961 15.3782 6.39961C15.1782 6.29961 14.6782 5.79961 14.5782 5.49961L14.0782 3.59961C13.9782 3.29961 13.7782 3.09961 13.4782 3.09961H10.4782C10.1782 3.09961 9.87823 3.29961 9.87823 3.59961L9.37823 5.49961C9.27823 5.79961 9.07823 6.09961 8.87823 6.19961C8.67823 6.29961 7.97823 6.49961 7.77823 6.49961L5.87823 5.99961C5.57823 5.89961 5.27823 6.09961 5.17823 6.29961L3.67823 8.89961C3.57823 9.09961 3.57823 9.49961 3.77823 9.69961L5.17823 11.0996C5.37823 11.2996 5.47823 11.5996 5.47823 11.7996C5.47823 11.7996 5.47823 11.7996 5.47823 11.9996C5.47823 12.1996 5.47823 12.1996 5.47823 12.1996C5.47823 12.3996 5.37823 12.6996 5.17823 12.8996L3.77823 14.2996C3.57823 14.4996 3.57823 14.7996 3.67823 15.0996L5.17823 17.6996C5.27823 17.8996 5.67823 18.0996 5.87823 17.9996L7.77823 17.4996C8.07823 17.3996 8.37823 17.4996 8.57823 17.5996C8.77823 17.6996 9.27823 18.1996 9.37823 18.4996L9.87823 20.3996C9.97823 20.6996 10.1782 20.8996 10.4782 20.8996H13.4782C13.7782 20.8996 14.0782 20.6996 14.0782 20.3996L14.5782 18.4996C14.6782 18.1996 14.8782 17.8996 15.0782 17.7996C15.2782 17.6996 15.9782 17.4996 16.1782 17.4996L18.0782 17.9996C18.3782 18.0996 18.6782 17.8996 18.7782 17.6996L20.2782 15.0996C20.4782 14.8996 20.3782 14.4996 20.1782 14.2996ZM12.0782 14.9996C10.3782 14.9996 9.07823 13.6996 9.07823 11.9996C9.07823 10.2996 10.3782 8.99961 12.0782 8.99961C13.7782 8.99961 15.0782 10.2996 15.0782 11.9996C15.0782 13.6996 13.6782 14.9996 12.0782 14.9996Z" fill="white"/>
</svg>
