<svg width="24" height="24" viewBox="0 0 24 24" fill="none" xmlns="http://www.w3.org/2000/svg">
<path d="M12.125 3C7.0855 3 3 7.0851 3 12.125C3 17.1642 7.0858 21.25 12.125 21.25C17.1642 21.25 21.25 17.1642 21.25 12.125C21.25 7.0851 17.1645 3 12.125 3ZM12.125 4.5C16.3361 4.5 19.75 7.9136 19.75 12.125C19.75 16.3358 16.3358 19.75 12.125 19.75C7.9142 19.75 4.5 16.3358 4.5 12.125C4.5 7.9136 7.9139 4.5 12.125 4.5Z" fill="white"/>
<path d="M18.2847 16.25C18.6989 16.25 19.0347 16.5858 19.0347 17C19.0347 17.3797 18.7525 17.6935 18.3865 17.7432L18.2847 17.75H12.8037C12.3895 17.75 12.0537 17.4142 12.0537 17C12.0537 16.6203 12.3359 16.3065 12.7019 16.2568L12.8037 16.25H18.2847ZM20.0347 13C20.4489 13 20.7847 13.3358 20.7847 13.75C20.7847 14.1297 20.5025 14.4435 20.1365 14.4932L20.0347 14.5H12.8037C12.3895 14.5 12.0537 14.1642 12.0537 13.75C12.0537 13.3703 12.3359 13.0565 12.7019 13.0068L12.8037 13H20.0347ZM20.0347 9.75C20.4489 9.75 20.7847 10.0858 20.7847 10.5C20.7847 10.8797 20.5025 11.1935 20.1365 11.2432L20.0347 11.25H12.8037C12.3895 11.25 12.0537 10.9142 12.0537 10.5C12.0537 10.1203 12.3359 9.8065 12.7019 9.7568L12.8037 9.75H20.0347ZM18.2847 6.5C18.6989 6.5 19.0347 6.8358 19.0347 7.25C19.0347 7.6297 18.7525 7.9435 18.3865 7.9932L18.2847 8H12.8037C12.3895 8 12.0537 7.6642 12.0537 7.25C12.0537 6.8703 12.3359 6.5565 12.7019 6.5068L12.8037 6.5H18.2847Z" fill="white"/>
</svg>
