<svg width="24" height="24" viewBox="0 0 24 24" fill="none" xmlns="http://www.w3.org/2000/svg">
<path fill-rule="evenodd" clip-rule="evenodd" d="M15.2139 13.2704C15.7019 12.7824 16.4929 12.7824 16.9809 13.2704L18.9879 15.2774C19.4759 15.7654 19.4759 16.5564 18.9879 17.0454L16.9809 19.0514C16.4929 19.5404 15.7019 19.5404 15.2139 19.0514L13.2069 17.0454C12.7179 16.5564 12.7179 15.7654 13.2069 15.2774L15.2139 13.2704ZM7.47622 13.3712C7.66822 13.0382 8.15022 13.0382 8.34222 13.3712L11.1052 18.1552C11.2972 18.4892 11.0562 18.9052 10.6712 18.9052H5.14722C4.76222 18.9052 4.52122 18.4892 4.71422 18.1552L7.47622 13.3712ZM7.90982 4.58105C9.65182 4.58105 11.0678 5.99705 11.0678 7.73905C11.0678 9.48005 9.65182 10.8971 7.90982 10.8971C6.16782 10.8971 4.75082 9.48005 4.75082 7.73905C4.75082 5.99705 6.16782 4.58105 7.90982 4.58105ZM17.7721 4.81445C18.4621 4.81445 19.0221 5.37445 19.0221 6.06445V9.41346C19.0221 10.1035 18.4621 10.6635 17.7721 10.6635H14.4231C13.7331 10.6635 13.1731 10.1035 13.1731 9.41346V6.06445C13.1731 5.37445 13.7331 4.81445 14.4231 4.81445H17.7721Z" stroke="white" stroke-width="1.5" stroke-linecap="round" stroke-linejoin="round"/>
</svg>
