<svg width="24" height="24" viewBox="0 0 24 24" fill="none" xmlns="http://www.w3.org/2000/svg">
<path d="M16.3036 15.3248C15.6816 15.3248 15.1136 15.5538 14.6766 15.9288L9.07764 12.6208C9.12964 12.4218 9.15864 12.2148 9.15864 11.9998C9.15864 11.7858 9.12964 11.5788 9.07864 11.3798L14.6766 8.0698C15.1136 8.4458 15.6816 8.6748 16.3036 8.6748C17.6846 8.6748 18.8036 7.5548 18.8036 6.1768C18.8036 4.7948 17.6846 3.6748 16.3036 3.6748C14.9226 3.6748 13.8026 4.7948 13.8026 6.1768C13.8026 6.3898 13.8326 6.5968 13.8836 6.7968L8.28664 10.1048C7.84864 9.7288 7.28164 9.5008 6.65964 9.5008C5.27964 9.5008 4.16064 10.6208 4.16064 11.9998C4.16064 13.3798 5.27964 14.5008 6.65964 14.5008C7.28164 14.5008 7.84864 14.2708 8.28664 13.8948L13.8846 17.2038C13.8326 17.4028 13.8036 17.6098 13.8036 17.8248C13.8036 19.2068 14.9226 20.3248 16.3036 20.3248C17.6846 20.3248 18.8036 19.2068 18.8036 17.8248C18.8036 16.4448 17.6846 15.3248 16.3036 15.3248Z" fill="white"/>
</svg>
