<svg width="24" height="24" viewBox="0 0 24 24" fill="none" xmlns="http://www.w3.org/2000/svg">
<path fill-rule="evenodd" clip-rule="evenodd" d="M16.3221 3.125C18.0065 3.125 19.372 4.4909 19.372 6.176C19.372 7.8594 18.0061 9.2249 16.3221 9.2249C15.4964 9.2249 14.7473 8.8971 14.198 8.3645L9.58913 11.0878C9.67933 11.3757 9.72803 11.6821 9.72803 11.9997C9.72803 12.3174 9.67933 12.6239 9.58913 12.9121L14.1979 15.6355C14.7472 15.1028 15.4963 14.7749 16.3221 14.7749C18.0063 14.7749 19.372 16.1406 19.372 17.8248C19.372 19.5098 18.0066 20.8749 16.3221 20.8749C14.6367 20.8749 13.2711 19.51 13.2711 17.8248C13.2711 17.507 13.3197 17.2005 13.41 16.9123L8.80203 14.1893C8.25273 14.7229 7.50363 15.0517 6.67793 15.0517C4.99393 15.0517 3.62793 13.684 3.62793 11.9997C3.62793 10.3161 4.99403 8.9496 6.67793 8.9496C7.50353 8.9496 8.25273 9.2781 8.80193 9.8113L13.4099 7.0878C13.3197 6.7999 13.2711 6.4936 13.2711 6.176C13.2711 4.4907 14.6368 3.125 16.3221 3.125ZM16.3221 16.2749C15.4654 16.2749 14.7711 16.969 14.7711 17.8248C14.7711 18.6813 15.465 19.3749 16.3221 19.3749C17.1782 19.3749 17.872 18.6812 17.872 17.8248C17.872 16.9691 17.1778 16.2749 16.3221 16.2749ZM6.67793 10.4496C5.82263 10.4496 5.12803 11.1445 5.12803 11.9997C5.12803 12.856 5.82273 13.5517 6.67793 13.5517C7.53323 13.5517 8.22803 12.856 8.22803 11.9997C8.22803 11.1445 7.53333 10.4496 6.67793 10.4496ZM16.3221 4.625C15.4653 4.625 14.7711 5.3192 14.7711 6.176C14.7711 7.0309 15.4655 7.7249 16.3221 7.7249C17.1777 7.7249 17.872 7.0308 17.872 6.176C17.872 5.3193 17.1779 4.625 16.3221 4.625Z" fill="white"/>
</svg>
