<svg width="24" height="24" viewBox="0 0 24 24" fill="none" xmlns="http://www.w3.org/2000/svg">
<path fill-rule="evenodd" clip-rule="evenodd" d="M17.5066 17.1416C18.4036 17.1416 19.1326 17.8696 19.1326 18.7656C19.1326 19.6616 18.4036 20.3916 17.5066 20.3916C16.6116 20.3916 15.8826 19.6616 15.8826 18.7656C15.8826 17.8696 16.6116 17.1416 17.5066 17.1416ZM10.2683 17.1416C11.1643 17.1416 11.8933 17.8696 11.8933 18.7656C11.8933 19.6616 11.1643 20.3916 10.2683 20.3916C9.3723 20.3916 8.6443 19.6616 8.6443 18.7656C8.6443 17.8696 9.3723 17.1416 10.2683 17.1416ZM5.1664 3.60742C5.9454 3.60742 6.6374 4.12942 6.8504 4.87842L7.5044 7.18342H19.8594C20.8524 7.18342 21.5714 8.13042 21.3044 9.08642L20.1054 13.3854C19.8034 14.4664 18.8194 15.2134 17.6974 15.2134H10.0954C8.9774 15.2134 7.9944 14.4714 7.6904 13.3954L5.9314 7.18342H5.9464L5.4084 5.28942C5.3764 5.18142 5.2784 5.10742 5.1664 5.10742H3.3894C2.9754 5.10742 2.6394 4.77142 2.6394 4.35742C2.6394 3.94342 2.9754 3.60742 3.3894 3.60742H5.1664Z" fill="white"/>
</svg>
