<svg width="24" height="24" viewBox="0 0 24 24" fill="none" xmlns="http://www.w3.org/2000/svg">
<path d="M5.23187 4.1851L5.31152 4.25433L11.292 10.2765L11.9279 8.94828C12.4628 7.82785 13.5665 7.0948 14.7964 7.02753L14.9817 7.02243L17.3678 7.0222L16.6145 6.27138C16.361 6.01885 16.3373 5.62308 16.5438 5.34378L16.6127 5.26375C16.8652 5.01033 17.261 4.98663 17.5403 5.1931L17.6203 5.26195L19.4042 7.03968C19.9117 7.5454 19.9433 8.34805 19.4995 8.89068L19.4044 8.9956L17.7853 10.6103C17.5066 10.8882 17.0555 10.8876 16.7776 10.6089C16.525 10.3556 16.5026 9.95973 16.7099 9.6811L16.779 9.6013L17.9348 8.4472L14.9817 8.44743C14.2775 8.44743 13.631 8.8255 13.2835 9.42955L13.2137 9.56238L12.3593 11.3505L17.6588 16.6867L18.365 15.9817L16.7786 14.3991C16.5253 14.1464 16.5017 13.7506 16.7083 13.4714L16.7772 13.3914C17.0298 13.1381 17.4256 13.1145 17.7048 13.3212L17.7848 13.39L19.4038 15.0045C19.9112 15.5103 19.9429 16.3121 19.4992 16.8546L19.4041 16.9594L18.663 17.6985L19.6996 18.7422C19.9769 19.0214 19.9753 19.4725 19.6961 19.7498C19.4423 20.0019 19.0463 20.0235 18.7682 19.8156L18.6885 19.7463L11.6985 12.708L10.5689 15.0587C10.0328 16.176 8.93184 16.9059 7.70424 16.9729L7.51922 16.9779H4.90254C4.50902 16.9779 4.19004 16.659 4.19004 16.2654C4.19004 15.9022 4.46184 15.6024 4.81314 15.5585L4.90254 15.5529H7.51922C8.22204 15.5529 8.86659 15.1769 9.21452 14.5743L9.28442 14.4418L10.5257 11.8572L10.5331 11.8164C10.5493 11.7467 10.5761 11.679 10.6135 11.616L7.46702 8.4472L4.90262 8.44743C4.50909 8.44743 4.19012 8.12845 4.19012 7.73493C4.19012 7.3717 4.46192 7.07193 4.81322 7.02798L4.90262 7.02243L6.05177 7.0222L4.30044 5.2585C4.02317 4.97928 4.02474 4.52815 4.30389 4.25088C4.55777 3.9988 4.95369 3.9772 5.23187 4.1851Z" fill="white"/>
</svg>
