<svg width="24" height="24" viewBox="0 0 24 24" fill="none" xmlns="http://www.w3.org/2000/svg">
<path fill-rule="evenodd" clip-rule="evenodd" d="M4.8499 1.90039H15.4499C15.7999 1.90039 16.2265 2.05349 16.5286 2.29279L16.6499 2.40039L20.2499 6.20039C20.5124 6.46289 20.6983 6.87849 20.8077 7.31329L20.8499 7.50039V20.4004C20.8499 21.253 20.1319 22.0159 19.2911 22.0939L19.1499 22.1004H4.8499C3.9973 22.1004 3.2344 21.3824 3.1564 20.5416L3.1499 20.4004V3.60039C3.1499 2.74779 3.8679 1.98489 4.7087 1.90689L4.8499 1.90039ZM16.1499 8.70039H7.8499C6.9499 8.70039 6.1499 9.40039 6.1499 10.4004V18.1004C6.1499 19.0004 6.8499 19.8004 7.8499 19.8004H16.1499C17.0499 19.8004 17.8499 19.1004 17.8499 18.1004V10.4004C17.8499 9.50039 17.1499 8.70039 16.1499 8.70039ZM9.3499 10.3004V13.1004H11.0499V10.3004H12.7499V13.1004H14.4499V10.3004H16.0499L16.1499 18.1004C16.1499 18.2004 16.0499 18.2004 16.0499 18.2004H14.4499V15.4004H12.7499V18.2004H11.0499V15.4004H9.3499V18.2004H7.7499C7.6499 18.2004 7.6499 18.1004 7.6499 18.1004V10.4004C7.6499 10.3004 7.7499 10.3004 7.7499 10.3004H9.3499Z" fill="white"/>
</svg>
