<svg width="24" height="24" viewBox="0 0 24 24" fill="none" xmlns="http://www.w3.org/2000/svg">
<path d="M12 3.2998C16.8043 3.2998 20.7 7.19552 20.7 11.9998C20.7 16.8049 16.8051 20.6998 12 20.6998C7.19484 20.6998 3.29999 16.8049 3.29999 11.9998C3.29999 7.19552 7.1957 3.2998 12 3.2998ZM12 4.69952C7.96884 4.69952 4.6997 7.96866 4.6997 11.9998C4.6997 16.0318 7.96799 19.3001 12 19.3001C16.032 19.3001 19.3003 16.0318 19.3003 11.9998C19.3003 7.96866 16.0311 4.69952 12 4.69952ZM12.2914 8.20095L13.4357 10.6429L15.8254 11.7367C16.0577 11.8429 16.0577 12.1575 15.8254 12.2629L13.4357 13.3567L12.2914 15.7987C12.1988 16.0669 11.8028 16.0669 11.7068 15.7987L10.5703 13.3567L8.17456 12.2629C7.94227 12.1575 7.94227 11.8429 8.17456 11.7367L10.5703 10.6421L11.7068 8.20095C11.8028 7.93266 12.1988 7.93266 12.2914 8.20095Z" fill="white"/>
</svg>
