<svg width="24" height="24" viewBox="0 0 24 24" fill="none" xmlns="http://www.w3.org/2000/svg">
<path d="M16.8 4.2998C18.402 4.2998 19.6997 5.59752 19.6997 7.19952V10.9744C19.6997 11.3609 19.3869 11.6747 19.0003 11.6747C18.6137 11.6747 18.3 11.3609 18.3 10.9744V7.19952C18.3 6.37152 17.628 5.69952 16.8 5.69952H7.20001C6.37201 5.69952 5.70001 6.37152 5.70001 7.19952V15.7932L8.44972 13.2021C9.06515 12.6227 10.0277 12.6321 10.632 13.2227L11.6529 14.2221L14.4206 11.5109C14.6966 11.2409 15.1397 11.2452 15.4106 11.5212C15.6814 11.7972 15.6763 12.2404 15.4003 12.5112L12.4569 15.3964C12.0129 15.8318 11.2954 15.8318 10.8514 15.3972L9.65315 14.2238C9.58544 14.1578 9.47829 14.1569 9.40972 14.2212L5.89372 17.5367C6.15086 17.9918 6.63944 18.2995 7.20001 18.2995H14.4754C14.862 18.2995 15.1749 18.6132 15.1749 18.9998C15.1749 19.3864 14.862 19.6992 14.4754 19.6992H7.20001C5.59801 19.6992 4.30029 18.4015 4.30029 16.7995V7.19952C4.30029 5.59752 5.59801 4.2998 7.20001 4.2998H16.8ZM17.6589 13.2767C17.7377 13.0564 18.0651 13.0564 18.1406 13.2767L19.0817 15.2884L21.0514 16.1884C21.2434 16.2758 21.2434 16.5338 21.0514 16.6221L19.0817 17.5221L18.1406 19.5347C18.0651 19.7541 17.7377 19.7541 17.6589 19.5347L16.7237 17.5221L14.7497 16.6221C14.5594 16.5338 14.5594 16.2758 14.7497 16.1884L16.7237 15.2875L17.6589 13.2767ZM9.17486 7.91609C9.97029 7.91609 10.6157 8.56238 10.6157 9.3578C10.6157 10.1507 9.97029 10.7978 9.17486 10.7978C8.38029 10.7978 7.73315 10.1507 7.73315 9.3578C7.73315 8.56238 8.38029 7.91609 9.17486 7.91609Z" fill="white"/>
</svg>
