<svg width="24" height="24" viewBox="0 0 24 24" fill="none" xmlns="http://www.w3.org/2000/svg">
<path d="M12.1097 3.2998C16.854 3.2998 20.7 7.1458 20.7 11.8901C20.7 16.6352 16.854 20.4821 12.1097 20.4821C11.7231 20.4821 11.4094 20.1684 11.4094 19.7818C11.4094 19.3952 11.7231 19.0815 12.1097 19.0815C16.0808 19.0815 19.3002 15.8621 19.3002 11.8901C19.3002 7.91895 16.0808 4.69952 12.1097 4.69952C11.7231 4.69952 11.4094 4.38666 11.4094 4.00009C11.4094 3.61352 11.7231 3.2998 12.1097 3.2998ZM9.98996 9.01095C9.98996 8.3758 10.7897 8.03466 11.304 8.45038L14.7154 11.2078C15.0814 11.5035 15.0814 12.0332 14.7154 12.3289L11.304 15.0864C10.7897 15.5021 9.98996 15.1609 9.98996 14.5258V9.01095ZM7.16824 18.2578C7.38339 17.9038 7.84453 17.7898 8.19853 18.0049C8.45653 18.1609 8.72482 18.3007 9.00082 18.4232C9.37967 18.5912 9.55024 19.0335 9.38224 19.4124C9.2151 19.7912 8.77196 19.9618 8.3931 19.7947C8.05882 19.6464 7.73396 19.4767 7.42196 19.2881C7.0671 19.0729 6.95396 18.6118 7.16824 18.2578ZM4.56939 14.9347C4.93539 14.7401 5.38967 14.8781 5.58424 15.2441C5.72653 15.5098 5.8851 15.7678 6.05996 16.0138C6.2991 16.3515 6.21939 16.8195 5.88082 17.0595C5.5431 17.2987 5.0751 17.2189 4.83596 16.8812C4.62424 16.5829 4.43224 16.2718 4.26082 15.9495C4.06539 15.5835 4.20424 15.1292 4.56939 14.9347ZM4.04996 10.7244C4.4631 10.7458 4.7811 11.0989 4.75967 11.5129C4.75282 11.6407 4.75024 11.7667 4.75024 11.9124C4.75024 12.0889 4.7571 12.2647 4.77082 12.4395C4.80167 12.8527 4.49224 13.2127 4.07996 13.2444C3.66682 13.2761 3.30596 12.9667 3.2751 12.5535C3.25882 12.3418 3.25024 12.1301 3.25024 11.9141C3.25024 11.7418 3.25367 11.5892 3.26224 11.4341C3.28367 11.0209 3.63596 10.7029 4.04996 10.7244ZM4.70653 7.08752C4.9371 6.7438 5.40339 6.65123 5.7471 6.88181C6.09167 7.11238 6.18339 7.57866 5.95282 7.92238C5.78482 8.17352 5.6331 8.43495 5.49853 8.70495C5.31339 9.07523 4.86253 9.22523 4.49224 9.04095C4.12196 8.85581 3.9711 8.40495 4.15624 8.03466C4.31996 7.70723 4.50339 7.3918 4.70653 7.08752ZM8.18482 4.08238C8.55939 3.90495 9.00682 4.06438 9.18424 4.43809C9.36253 4.8118 9.2031 5.25923 8.82939 5.43752C8.55682 5.56695 8.29282 5.71438 8.03824 5.87723C7.69024 6.10095 7.22567 5.9998 7.00196 5.65095C6.77824 5.30295 6.87939 4.83838 7.22824 4.61466C7.5351 4.41752 7.85482 4.24009 8.18482 4.08238Z" fill="white"/>
</svg>
