<svg width="24" height="24" viewBox="0 0 24 24" fill="none" xmlns="http://www.w3.org/2000/svg">
<path d="M16.8129 4.2998C18.408 4.2998 19.6997 5.59238 19.6997 7.18752V16.8132C19.6997 18.4075 18.4071 19.6992 16.8129 19.6992H7.18715C5.59286 19.6992 4.30029 18.4075 4.30029 16.8132V7.18752C4.30029 5.59238 5.59201 4.2998 7.18715 4.2998H16.8129ZM11.7994 15.1992H5.70001V16.8132C5.70001 17.6344 6.36515 18.2995 7.18715 18.2995H11.7994V15.1992ZM18.3 11.1998H13.2V18.2995H16.8129C17.6349 18.2995 18.3 17.6344 18.3 16.8132V11.1998ZM11.7994 5.69952H7.18715C6.36601 5.69952 5.70001 6.36552 5.70001 7.18752V13.7995H11.7994V5.69952ZM16.8129 5.69952H13.2V9.79923H18.3V7.18752C18.3 6.36552 17.634 5.69952 16.8129 5.69952Z" fill="white"/>
</svg>
