<svg width="24" height="24" viewBox="0 0 24 24" fill="none" xmlns="http://www.w3.org/2000/svg">
<path d="M16.1254 3.9248C16.5119 3.9248 16.8248 4.23852 16.8248 4.62509V7.17423L19.3748 7.17509C19.7614 7.17509 20.0751 7.48795 20.0751 7.87538C20.0751 8.26195 19.7614 8.5748 19.3748 8.5748L16.8248 8.57395V13.6251C16.8248 15.3925 15.3925 16.8248 13.6251 16.8248H8.57395L8.5748 19.3748C8.5748 19.7614 8.26195 20.0751 7.87538 20.0751C7.48795 20.0751 7.17509 19.7614 7.17509 19.3748L7.17423 16.8248H4.62509C4.23852 16.8248 3.9248 16.5119 3.9248 16.1254C3.9248 15.7379 4.23852 15.4251 4.62509 15.4251L7.17423 15.4242L7.17509 10.3748C7.17509 8.60738 8.60738 7.17509 10.3748 7.17509L15.4242 7.17423L15.4251 4.62509C15.4251 4.23852 15.7379 3.9248 16.1254 3.9248ZM15.4242 8.57395L10.3748 8.5748C9.38052 8.5748 8.5748 9.38052 8.5748 10.3748L8.57395 15.4242L13.6251 15.4251C14.6194 15.4251 15.4251 14.6194 15.4251 13.6251L15.4242 8.57395Z" fill="white"/>
</svg>
