<svg width="24" height="24" viewBox="0 0 24 24" fill="none" xmlns="http://www.w3.org/2000/svg">
<path d="M19.989 6.26855C20.3342 6.26855 20.614 6.54845 20.614 6.89355L20.604 8.01105C20.6026 8.08175 20.601 8.13645 20.5994 8.16705C20.3164 13.4683 15.7178 19.0554 12 19.0554C8.34329 19.0554 3.83709 13.6614 3.41849 8.44105L3.40019 8.16645C3.39229 8.01555 3.38599 7.25865 3.38599 6.89355C3.38599 6.54845 3.66579 6.26855 4.01099 6.26855C4.35619 6.26855 4.63599 6.54845 4.63599 6.89355L4.64669 8.04736L4.64849 8.10095C4.89509 12.7976 9.02019 17.8054 12 17.8054C14.9767 17.8054 19.1006 12.7951 19.3511 8.10045L19.3633 7.13665C19.3638 7.04465 19.364 6.96085 19.364 6.89355C19.364 6.54845 19.6438 6.26855 19.989 6.26855Z" fill="white"/>
</svg>
