<svg width="24" height="24" viewBox="0 0 24 24" fill="none" xmlns="http://www.w3.org/2000/svg">
<path d="M20.4062 10.5752C20.7841 10.5417 21.1183 10.8204 21.1523 11.1982C21.1762 11.4637 21.1875 11.7297 21.1875 12C21.1874 17.0745 17.0745 21.1874 12 21.1875C10.1486 21.1874 8.42559 20.6363 6.98242 19.6934C6.67819 19.8805 6.3216 19.9911 5.93848 19.9912C4.83456 19.9912 3.93861 19.0951 3.93848 17.9912C3.93848 16.8872 4.83448 15.9912 5.93848 15.9912C7.04225 15.9915 7.93848 16.8874 7.93848 17.9912C7.93845 18.2075 7.90154 18.4152 7.83789 18.6104C9.04397 19.3712 10.4705 19.8125 12 19.8125C16.3151 19.8124 19.8124 16.3151 19.8125 12C19.8125 11.7705 19.8024 11.5456 19.7822 11.3213C19.7484 10.9432 20.0281 10.6091 20.4062 10.5752ZM9.67969 9.05078C9.67987 8.41593 10.3671 8.01796 10.917 8.33691L15.3916 11.2598C15.9416 11.5778 15.9416 12.3715 15.3916 12.6895L10.917 15.6133C10.3671 15.9302 9.67998 15.5332 9.67969 14.8984V9.05078ZM12 2.8125C13.8509 2.8125 15.5739 3.36344 17.0166 4.30566C17.3206 4.11904 17.6779 4.00977 18.0605 4.00977C19.1642 4.01003 20.0604 4.90604 20.0605 6.00977C20.0605 7.1136 19.1643 8.0095 18.0605 8.00977C16.9565 8.00977 16.0605 7.11377 16.0605 6.00977C16.0606 5.79324 16.0954 5.58498 16.1592 5.38965C14.9538 4.6296 13.5287 4.1875 12 4.1875C7.68575 4.1875 4.1875 7.68664 4.1875 12C4.1875 12.2318 4.19683 12.4592 4.2168 12.6816C4.25067 13.0597 3.97175 13.3936 3.59375 13.4277C3.21565 13.4617 2.88173 13.1827 2.84766 12.8047C2.82363 12.5371 2.8125 12.2682 2.8125 12C2.8125 6.92736 6.92625 2.8125 12 2.8125Z" fill="white"/>
</svg>
