<svg width="24" height="24" viewBox="0 0 24 24" fill="none" xmlns="http://www.w3.org/2000/svg">
<path d="M4.48301 10.212C4.62801 9.76798 5.04201 9.48398 5.48501 9.48398C5.59301 9.48398 5.70301 9.50098 5.81001 9.53598C6.36301 9.71498 6.66601 10.311 6.48701 10.863C6.30701 11.416 5.71101 11.719 5.15901 11.54C4.60701 11.36 4.30301 10.765 4.48301 10.212ZM12 10.88C12.979 10.88 13.775 11.676 13.775 12.655C13.775 13.633 12.979 14.43 12 14.43C11.022 14.43 10.225 13.633 10.225 12.655C10.225 11.676 11.022 10.88 12 10.88ZM10.947 5.80398C10.947 5.22298 11.419 4.75098 12 4.75098C12.581 4.75098 13.054 5.22298 13.054 5.80398C13.054 6.38498 12.581 6.85798 12 6.85798C11.419 6.85798 10.947 6.38498 10.947 5.80398ZM16.025 17.144C16.352 17.144 16.673 17.295 16.879 17.578C17.22 18.048 17.116 18.708 16.646 19.049C16.175 19.391 15.516 19.286 15.174 18.816C14.833 18.346 14.938 17.687 15.407 17.345C15.408 17.345 15.408 17.345 15.408 17.344C15.594 17.209 15.811 17.144 16.025 17.144ZM8.82601 18.816C8.48401 19.286 7.82401 19.391 7.35401 19.049C6.88401 18.708 6.78001 18.048 7.12101 17.578C7.28701 17.35 7.53101 17.201 7.80901 17.157C7.86401 17.148 7.92101 17.144 7.97601 17.144C8.19601 17.144 8.41101 17.212 8.59301 17.345C9.06301 17.686 9.16701 18.346 8.82601 18.816ZM18.19 9.53598C18.297 9.50098 18.407 9.48398 18.514 9.48398C18.959 9.48398 19.373 9.76798 19.518 10.212C19.697 10.765 19.393 11.36 18.841 11.54C18.574 11.627 18.288 11.605 18.037 11.477C17.786 11.349 17.6 11.131 17.513 10.863C17.334 10.311 17.638 9.71498 18.19 9.53598ZM4.69601 12.966C4.95701 13.051 5.22201 13.091 5.48301 13.091C6.31101 13.091 7.09501 12.684 7.57301 12.005L8.73901 12.384C8.73201 12.473 8.72501 12.564 8.72501 12.655C8.72501 13.47 9.02701 14.215 9.52201 14.789L8.80201 15.781C8.41201 15.647 7.99301 15.609 7.57501 15.675C6.90001 15.781 6.30901 16.144 5.90801 16.696C5.08001 17.835 5.33401 19.435 6.47201 20.263C6.92401 20.591 7.44901 20.75 7.97001 20.75C8.76001 20.75 9.54001 20.385 10.039 19.698C10.713 18.77 10.67 17.536 10.015 16.663L10.733 15.674C11.123 15.838 11.551 15.93 12 15.93C12.449 15.93 12.877 15.838 13.267 15.674L13.985 16.664C13.33 17.537 13.287 18.77 13.961 19.698C14.46 20.385 15.24 20.75 16.03 20.75C16.55 20.75 17.075 20.591 17.527 20.263C18.667 19.436 18.92 17.836 18.093 16.696C17.419 15.768 16.232 15.428 15.199 15.782L14.478 14.79C14.973 14.216 15.275 13.471 15.275 12.655C15.275 12.564 15.269 12.474 15.261 12.384L16.425 12.006C16.662 12.343 16.978 12.62 17.356 12.813C17.72 12.999 18.115 13.092 18.512 13.092C18.778 13.092 19.045 13.051 19.304 12.966C20.643 12.531 21.379 11.088 20.944 9.74898C20.509 8.40998 19.066 7.67398 17.726 8.10898C16.635 8.46398 15.945 9.48798 15.962 10.579L14.796 10.959C14.346 10.22 13.615 9.67398 12.75 9.46998V8.24498C13.793 7.92398 14.554 6.95098 14.554 5.80398C14.554 4.39698 13.408 3.25098 12 3.25098C10.592 3.25098 9.44701 4.39698 9.44701 5.80398C9.44701 6.95098 10.207 7.92398 11.25 8.24498V9.46998C10.386 9.67398 9.65401 10.22 9.20501 10.958L8.03801 10.579C8.05501 9.48698 7.36501 8.46398 6.27401 8.10898C4.93401 7.67398 3.49201 8.40998 3.05601 9.74898C2.62101 11.087 3.35701 12.531 4.69601 12.966Z" fill="white"/>
</svg>
