<svg width="24" height="24" viewBox="0 0 24 24" fill="none" xmlns="http://www.w3.org/2000/svg">
<path fill-rule="evenodd" clip-rule="evenodd" d="M17 19.5H7C5.625 19.5 4.5 18.375 4.5 17V7C4.5 5.625 5.625 4.5 7 4.5H17C18.375 4.5 19.5 5.625 19.5 7V17C19.5 18.375 18.375 19.5 17 19.5Z" stroke="white" stroke-width="1.5" stroke-linecap="round" stroke-linejoin="round"/>
<path d="M13.25 14.0732H7.75C7.1978 14.0732 6.75 13.6254 6.75 13.0732V9.07324C6.75 8.52104 7.1978 8.07324 7.75 8.07324H13.25C13.8022 8.07324 14.25 8.52104 14.25 9.07324V13.0732C14.25 13.6254 13.8022 14.0732 13.25 14.0732Z" fill="white"/>
</svg>
