<svg width="24" height="24" viewBox="0 0 24 24" fill="none" xmlns="http://www.w3.org/2000/svg">
<path d="M19.2496 13.0003C19.2496 15.6235 17.1228 17.7503 14.4996 17.7503H7.81014L9.78866 19.7288L8.72811 20.7893L4.9537 17.0149L5.45467 16.4846L8.76522 12.9885L9.85409 14.0198L7.74178 16.2503H14.4996C16.2944 16.2503 17.7496 14.795 17.7496 13.0003V7.00025H19.2496V13.0003Z" fill="white"/>
<path d="M6.25838 7.57447C6.34436 7.40951 6.58834 7.40959 6.6744 7.57447L7.3912 9.33228L8.80526 10.0247C8.97626 10.1087 8.97626 10.343 8.80526 10.426L7.3912 11.1184L6.6744 12.8762C6.5884 13.0412 6.34438 13.0412 6.25838 12.8762L5.54159 11.1184L4.12752 10.426C3.95688 10.3429 3.9568 10.1087 4.12752 10.0247L5.54159 9.33228L6.25838 7.57447Z" fill="white"/>
<path d="M11.1724 3.17603C11.2965 2.94136 11.6451 2.94129 11.7691 3.17603L12.7935 5.68873L14.817 6.67701C15.0608 6.79598 15.0606 7.13209 14.817 7.25123L12.7935 8.23951L11.7691 10.7512C11.6451 10.9872 11.2964 10.9872 11.1724 10.7512L10.148 8.23951L8.1246 7.25123C7.88075 7.13216 7.88065 6.79598 8.1246 6.67701L10.148 5.68873L11.1724 3.17603Z" fill="white"/>
</svg>
