<svg width="24" height="24" viewBox="0 0 24 24" fill="none" xmlns="http://www.w3.org/2000/svg">
<path d="M15.4655 9.63915L21.2675 14.0231C21.5435 14.2041 21.5805 14.4331 21.3455 14.6461L19.3365 16.1201C19.0065 16.3621 18.5405 16.1261 18.5405 15.7171V8.28215C18.5405 7.87215 19.0065 7.63715 19.3365 7.87915L21.2665 9.29515C21.5045 9.46215 21.4975 9.77815 21.3225 9.93515L15.4655 14.3601M11.528 4.86725L6.635 8.99425H3.986C3.165 8.99425 2.5 9.65925 2.5 10.4802V13.5132C2.5 14.3342 3.165 14.9992 3.986 14.9992H6.631L11.528 19.1322C11.85 19.4042 12.342 19.1752 12.342 18.7532V5.24525C12.342 4.82525 11.85 4.59625 11.528 4.86725Z" stroke="white" stroke-width="1.5" stroke-linecap="round" stroke-linejoin="round"/>
</svg>
