<svg width="24" height="24" viewBox="0 0 24 24" fill="none" xmlns="http://www.w3.org/2000/svg">
<path d="M18.2656 18.2676L5.7326 5.7336M21 12C21 16.971 16.97 21 12 21C7.029 21 3 16.971 3 12C3 7.03 7.029 3 12 3C16.97 3 21 7.03 21 12ZM13.9775 6.5352L10.3295 9.6122H8.2945C7.6045 9.6122 7.0445 10.1722 7.0445 10.8622V13.1342C7.0445 13.8242 7.6045 14.3842 8.2945 14.3842H10.3265L13.9775 17.4662C14.4655 17.9042 14.8645 17.7262 14.8645 17.0702V6.9312C14.8645 6.2742 14.4655 6.0972 13.9775 6.5352Z" stroke="white" stroke-width="1.5" stroke-linecap="round" stroke-linejoin="round"/>
</svg>
