<svg width="24" height="24" viewBox="0 0 24 24" fill="none" xmlns="http://www.w3.org/2000/svg">
<path d="M11.6613 5.12782C12.2753 4.57582 12.7773 4.80082 12.7773 5.62482V18.3748C12.7773 19.1998 12.2753 19.4238 11.6613 18.8728L7.08226 15.0088V14.9708C6.98526 14.9868 6.88726 14.9978 6.78626 14.9978H4.69226C3.72926 14.9978 2.94226 14.2098 2.94226 13.2478V10.7478C2.94226 9.78482 3.72926 8.99782 4.69226 8.99782H6.78626C6.88726 8.99782 6.98526 9.00882 7.08226 9.02482V8.99082L11.6613 5.12782ZM17.0789 5.49002C17.3609 5.18602 17.8359 5.16902 18.1389 5.45002C20.0219 7.19702 21.0579 9.52302 21.0579 12.001C21.0579 14.478 20.0209 16.804 18.1389 18.55C17.9939 18.684 17.8119 18.75 17.6289 18.75C17.4279 18.75 17.2269 18.67 17.0789 18.511C16.7969 18.207 16.8159 17.732 17.1189 17.45C18.6919 15.992 19.5579 14.056 19.5579 12.001C19.5579 9.94502 18.6919 8.01002 17.1189 6.55002C16.8159 6.26802 16.7969 5.79402 17.0789 5.49002ZM14.948 8.35892C15.233 8.05992 15.707 8.04592 16.009 8.33092C17.041 9.30892 17.61 10.6109 17.611 11.9999C17.611 13.3889 17.041 14.6919 16.009 15.6699C15.863 15.8079 15.678 15.8749 15.493 15.8749C15.294 15.8749 15.096 15.7969 14.948 15.6419C14.663 15.3409 14.677 14.8649 14.978 14.5809C15.708 13.8889 16.111 12.9729 16.111 11.9999C16.11 11.0279 15.708 10.1109 14.978 9.41992C14.677 9.13492 14.663 8.65992 14.948 8.35892Z" fill="white"/>
</svg>
