<svg width="24" height="24" viewBox="0 0 24 24" fill="none" xmlns="http://www.w3.org/2000/svg">
<path d="M18.4971 4.50105C18.7901 4.20905 19.2642 4.20905 19.5572 4.50205C19.8502 4.79405 19.8502 5.27005 19.5572 5.56305L17.9572 7.16305L19.3532 8.55805C19.9372 9.14205 19.9381 10.093 19.3551 10.678L17.9572 12.081L19.3532 13.477C19.9372 14.062 19.9372 15.013 19.3532 15.597L17.9572 16.996L19.5642 18.602C19.8572 18.895 19.8572 19.371 19.5642 19.664C19.4172 19.809 19.2252 19.882 19.0342 19.882C18.8412 19.882 18.6501 19.809 18.5031 19.663L16.8961 18.056C16.3121 17.472 16.3112 16.521 16.8952 15.936L18.2912 14.538L16.8961 13.141C16.3121 12.557 16.3112 11.607 16.8942 11.022L18.2921 9.61905L16.8972 8.22305C16.6132 7.93905 16.4572 7.56305 16.4572 7.16205C16.4572 6.76105 16.6132 6.38405 16.8972 6.10105L18.4971 4.50105ZM4.21975 4.81455C4.44275 4.59155 4.77175 4.54055 5.04675 4.65855C5.07075 4.69355 5.09875 4.72955 5.13075 4.76155L14.2778 13.9085V18.2805C14.2778 19.2115 13.7128 19.4635 13.0198 18.8425L8.06475 14.3735C7.96175 14.3885 7.85575 14.3955 7.74775 14.3895L5.93475 14.3045C4.97375 14.2595 4.18675 13.4345 4.18675 12.4725V10.4555C4.18675 9.49255 4.97375 8.70555 5.93675 8.70555H7.04875L4.21975 5.87555C3.92675 5.58355 3.92675 5.10755 4.21975 4.81455ZM13.0202 4.34135C13.7122 3.71935 14.2782 3.97135 14.2782 4.90235V11.7873L9.43215 6.94335L13.0202 4.34135Z" fill="white"/>
</svg>
