<svg width="24" height="24" viewBox="0 0 24 24" fill="none" xmlns="http://www.w3.org/2000/svg">
<path fill-rule="evenodd" clip-rule="evenodd" d="M12 4.5C12.414 4.5 12.75 4.836 12.75 5.25V18.75C12.75 19.164 12.414 19.5 12 19.5C11.586 19.5 11.25 19.164 11.25 18.75V5.25C11.25 4.836 11.586 4.5 12 4.5ZM14.8331 7.6973C15.2471 7.6973 15.5831 8.0333 15.5831 8.4473V15.5523C15.5831 15.9673 15.2471 16.3023 14.8331 16.3023C14.4191 16.3023 14.0831 15.9673 14.0831 15.5523V8.4473C14.0831 8.0333 14.4191 7.6973 14.8331 7.6973ZM9.1661 7.6973C9.5811 7.6973 9.9161 8.0333 9.9161 8.4473V15.5523C9.9161 15.9673 9.5811 16.3023 9.1661 16.3023C8.7521 16.3023 8.4161 15.9673 8.4161 15.5523V8.4473C8.4161 8.0333 8.7521 7.6973 9.1661 7.6973ZM17.6661 9.4737C18.0811 9.4737 18.4161 9.8097 18.4161 10.2237V13.7767C18.4161 14.1907 18.0811 14.5267 17.6661 14.5267C17.2521 14.5267 16.9161 14.1907 16.9161 13.7767V10.2237C16.9161 9.8097 17.2521 9.4737 17.6661 9.4737ZM6.3331 9.4737C6.7471 9.4737 7.0831 9.8097 7.0831 10.2237V13.7767C7.0831 14.1907 6.7471 14.5267 6.3331 14.5267C5.9191 14.5267 5.5831 14.1907 5.5831 13.7767V10.2237C5.5831 9.8097 5.9191 9.4737 6.3331 9.4737ZM20.5 10.3614C20.914 10.3614 21.25 10.6974 21.25 11.1114V12.8874C21.25 13.3024 20.914 13.6374 20.5 13.6374C20.086 13.6374 19.75 13.3024 19.75 12.8874V11.1114C19.75 10.6974 20.086 10.3614 20.5 10.3614ZM3.5 10.3614C3.914 10.3614 4.25 10.6974 4.25 11.1114V12.8874C4.25 13.3024 3.914 13.6374 3.5 13.6374C3.086 13.6374 2.75 13.3024 2.75 12.8874V11.1114C2.75 10.6974 3.086 10.3614 3.5 10.3614Z" fill="white"/>
</svg>
