<svg width="24" height="24" viewBox="0 0 24 24" fill="none" xmlns="http://www.w3.org/2000/svg">
<path d="M19.4253 19.1821L17.5813 17.3381C17.2893 17.0461 17.2883 16.5711 17.5813 16.2781L18.8963 14.9621C19.1893 14.6691 19.1883 14.1941 18.8963 13.9021L17.5823 12.5881C17.2893 12.2951 17.2893 11.8201 17.5823 11.5271L18.8953 10.2141C19.1883 9.92113 19.1883 9.44713 18.8953 9.15413L17.5823 7.84013C17.2893 7.54713 17.2893 7.07213 17.5823 6.77913L19.4253 4.93613M4.52545 4.44043L14.3724 14.1184M13.269 4.88033L8.43205 8.75033H5.30005C4.47105 8.75033 3.80005 9.42233 3.80005 10.2503V13.5003C3.80005 14.3293 4.47105 15.0003 5.30005 15.0003H8.42805L13.269 19.3753C13.883 19.9263 14.385 19.7033 14.385 18.8783V5.37833C14.385 4.55333 13.883 4.32933 13.269 4.88033Z" stroke="white" stroke-width="1.5" stroke-linecap="round" stroke-linejoin="round"/>
</svg>
