<svg width="24" height="24" viewBox="0 0 24 24" fill="none" xmlns="http://www.w3.org/2000/svg">
<path d="M18.2219 4.16797C20.0135 4.16797 21.4715 5.62597 21.4715 7.41757V16.5832C21.4715 18.376 20.0135 19.834 18.2219 19.834H5.97592C4.18312 19.834 2.72512 18.376 2.72512 16.5832V15.5008C2.72512 15.0868 3.06112 14.7508 3.47512 14.7508C3.88912 14.7508 4.22512 15.0868 4.22512 15.5008V16.5832C4.22512 17.548 5.01112 18.334 5.97592 18.334H18.2219C19.1867 18.334 19.9715 17.548 19.9715 16.5832V7.41757C19.9715 6.45277 19.1867 5.66677 18.2219 5.66677H5.97592C5.01112 5.66677 4.22512 6.45277 4.22512 7.41757V8.49997C4.22512 8.91517 3.88912 9.24997 3.47512 9.24997C3.06112 9.24997 2.72512 8.91517 2.72512 8.49997V7.41757C2.72512 5.62597 4.18312 4.16797 5.97592 4.16797H18.2219ZM9.17992 8.34037C9.46672 8.04157 9.94192 8.03197 10.2419 8.31877L13.1495 11.11C13.3907 11.3428 13.5287 11.6668 13.5287 12.0016C13.5287 12.3352 13.3907 12.6592 13.1495 12.892L10.2419 15.6832C10.0955 15.8224 9.90832 15.892 9.72112 15.892C9.52432 15.892 9.32752 15.814 9.17992 15.6604C8.89312 15.3628 8.90392 14.8876 9.20272 14.6008L11.1287 12.7504H3.27832C2.86432 12.7504 2.52832 12.4156 2.52832 12.0004C2.52832 11.5864 2.86432 11.2504 3.27832 11.2504H11.1287L9.20272 9.39997C8.90392 9.11317 8.89312 8.63917 9.17992 8.34037Z" fill="white"/>
</svg>
