<svg width="24" height="24" viewBox="0 0 24 24" fill="none" xmlns="http://www.w3.org/2000/svg">
<path fill-rule="evenodd" clip-rule="evenodd" d="M5.5424 7.21745C8.1414 4.61845 12.0224 3.83145 15.4284 5.21345C15.8124 5.36845 15.9964 5.80645 15.8414 6.18945C15.6864 6.57345 15.2484 6.75845 14.8654 6.60345C12.0184 5.44945 8.7754 6.10645 6.6034 8.27845C3.9284 10.9535 3.6274 15.2435 5.9024 18.2565C6.1524 18.5875 6.0864 19.0575 5.7554 19.3075C5.6204 19.4095 5.4614 19.4585 5.3044 19.4585C5.0764 19.4585 4.8534 19.3555 4.7054 19.1605C1.9824 15.5535 2.3414 10.4185 5.5424 7.21745ZM19.3227 9.54125C19.7007 9.37025 20.1447 9.53825 20.3147 9.91625C21.6597 12.8983 21.3017 16.3903 19.3817 19.0303C19.2347 19.2323 19.0067 19.3393 18.7737 19.3393C18.6217 19.3393 18.4677 19.2923 18.3337 19.1953C17.9987 18.9513 17.9247 18.4833 18.1687 18.1483C19.7727 15.9423 20.0707 13.0243 18.9467 10.5333C18.7767 10.1553 18.9447 9.71125 19.3227 9.54125ZM17.4748 6.99795C17.7678 6.70495 18.2428 6.70495 18.5358 6.99795C18.8288 7.29095 18.8288 7.76595 18.5358 8.05895L13.4058 13.188C13.4628 13.346 13.4948 13.516 13.4948 13.693C13.4948 14.522 12.8238 15.193 11.9948 15.193C11.1668 15.193 10.4948 14.522 10.4948 13.693C10.4948 12.865 11.1668 12.193 11.9948 12.193C12.0838 12.193 12.1708 12.203 12.2558 12.218L17.4748 6.99795Z" fill="white"/>
</svg>
