<svg width="24" height="24" viewBox="0 0 24 24" fill="none" xmlns="http://www.w3.org/2000/svg">
<path fill-rule="evenodd" clip-rule="evenodd" d="M21.7499 12C21.7499 15.729 18.7419 18.75 15.0299 18.75C11.3179 18.75 8.3109 15.729 8.3109 12C8.3109 8.272 11.3179 5.25 15.0299 5.25C18.7419 5.25 21.7499 8.272 21.7499 12Z" stroke="white" stroke-width="1.5" stroke-linecap="round" stroke-linejoin="round"/>
<path d="M10.3515 17.3145C7.4295 17.3145 5.0605 14.9355 5.0605 12.0005C5.0605 9.06455 7.4295 6.68555 10.3515 6.68555" stroke="white" stroke-width="1.5" stroke-linecap="round" stroke-linejoin="round"/>
<path d="M6.1166 15.8842C3.9816 15.8842 2.2496 14.1462 2.2496 12.0002C2.2496 9.85619 3.9816 8.11719 6.1166 8.11719" stroke="white" stroke-width="1.5" stroke-linecap="round" stroke-linejoin="round"/>
<path d="M17.6781 12.427L14.0371 14.782C13.9421 14.845 13.8441 14.875 13.7461 14.875C13.5281 14.875 13.3081 14.707 13.3081 14.385V9.615C13.3081 9.293 13.5281 9.125 13.7461 9.125C13.8441 9.125 13.9421 9.156 14.0371 9.219L17.6781 11.573C17.8371 11.676 17.9281 11.831 17.9281 12C17.9281 12.169 17.8371 12.324 17.6781 12.427Z" fill="white"/>
</svg>
