<svg width="24" height="24" viewBox="0 0 24 24" fill="none" xmlns="http://www.w3.org/2000/svg">
<path d="M17.0233 16.4222C17.0233 17.199 16.3913 17.8309 15.6146 17.8309H12.5958V13.3543C13.0651 13.1289 13.3896 12.6508 13.3896 12.0954C13.3896 11.5399 13.0651 11.061 12.5958 10.8364V6.35982H15.6146C16.3913 6.35982 17.0233 6.99176 17.0233 7.76853V16.4222ZM11.3883 10.8364C10.919 11.061 10.5938 11.5399 10.5938 12.0954C10.5938 12.6508 10.919 13.1289 11.3883 13.3543V17.8309H8.3696C7.59283 17.8309 6.96089 17.199 6.96089 16.4222V7.76853C6.96089 6.99176 7.59283 6.35982 8.3696 6.35982H11.3883V10.8364ZM18.2307 7.76853C18.2307 6.32604 17.057 5.15234 15.6146 5.15234H11.9921H8.3696C6.92711 5.15234 5.75342 6.32604 5.75342 7.76853V16.4222C5.75342 17.8647 6.92711 19.0384 8.3696 19.0384H11.9921H15.6146C17.057 19.0384 18.2307 17.8647 18.2307 16.4222V7.76853Z" fill="white"/>
</svg>
