<svg width="24" height="24" viewBox="0 0 24 24" fill="none" xmlns="http://www.w3.org/2000/svg">
<path d="M9.453 8.5166L15.303 14.3846M7.221 18.8936C6.276 19.7036 6.753 19.7126 4.251 20.6666M13.242 12.8726L7.149 18.9566" stroke="white" stroke-width="1.53" stroke-linecap="round" stroke-linejoin="round"/>
<path d="M3.198 19.623L4.215 20.64" stroke="white" stroke-width="1.53" stroke-linecap="round" stroke-linejoin="round"/>
<path d="M4.899 16.5808C4.08 17.5168 4.08 17.0758 3.189 19.6228M10.929 10.5598L4.836 16.6438M10.641 9.5338C10.641 9.5338 12.585 9.5968 13.323 7.7158C13.323 7.7158 13.728 5.5648 14.934 4.2958C14.97 4.2598 14.997 4.2328 15.033 4.1968C16.302 2.9818 18.246 2.7388 19.686 4.1698" stroke="white" stroke-width="1.53" stroke-linecap="round" stroke-linejoin="round"/>
<path d="M14.295 13.1786C14.295 13.1786 14.232 11.2436 16.113 10.4966C16.113 10.4966 18.264 10.0916 19.533 8.88558C19.569 8.84958 19.596 8.82258 19.632 8.78658C20.847 7.52658 21.09 5.57358 19.659 4.14258" stroke="white" stroke-width="1.53" stroke-linecap="round" stroke-linejoin="round"/>
</svg>
