<svg width="24" height="24" viewBox="0 0 24 24" fill="none" xmlns="http://www.w3.org/2000/svg">
<path fill-rule="evenodd" clip-rule="evenodd" d="M6.1931 15.9394C6.3201 15.8124 6.4781 15.6544 6.6761 15.4274L11.0951 11.0134L12.6821 12.6034L8.2431 17.0374C8.0061 17.2444 7.8451 17.4084 7.7161 17.5414C7.4131 17.8494 6.2041 18.7054 4.8211 19.2534L4.5001 18.9314C5.0291 17.4614 5.8681 16.2654 6.1931 15.9394ZM5.3751 20.6484C6.8361 20.0694 8.2681 19.1204 8.7861 18.5904C8.8901 18.4854 9.0291 18.3424 9.2321 18.1654L9.2691 18.1324L9.3031 18.0974L13.7421 13.6644L13.9191 13.8404L14.4581 14.3804C14.7501 14.6734 15.2251 14.6734 15.5181 14.3804C15.8111 14.0874 15.8121 13.6134 15.5191 13.3204L14.6841 12.4844C14.8391 11.9364 15.2311 11.1674 16.2231 10.7444C16.4701 10.6874 18.3991 10.2194 19.6271 9.05038C19.6611 9.01838 19.6931 8.98638 19.7281 8.95138C20.9271 7.70738 21.1941 5.50138 19.7331 4.01738C19.7321 4.01638 19.7321 4.01638 19.7311 4.01538L19.7131 3.99838C18.2291 2.53638 16.0221 2.80238 14.7731 4.00638L14.6761 4.10438C13.5071 5.33138 13.0401 7.25738 12.9831 7.50438C12.5601 8.49438 11.7931 8.88438 11.2451 9.04138L11.0961 8.89138L10.4161 8.21038C10.1241 7.91838 9.6491 7.91838 9.3561 8.21038C9.0631 8.50238 9.0621 8.97738 9.3551 9.27138L9.8591 9.77538L10.0351 9.95238L5.6161 14.3664L5.5801 14.4024L5.5471 14.4404C5.3851 14.6254 5.2591 14.7524 5.1331 14.8774C4.5871 15.4254 3.6521 16.8574 3.0891 18.4244C2.8921 18.9714 3.0291 19.5824 3.4401 19.9934L3.7611 20.3144C4.1841 20.7374 4.8181 20.8684 5.3751 20.6484Z" fill="white"/>
</svg>
