<svg width="24" height="24" viewBox="0 0 24 24" fill="none" xmlns="http://www.w3.org/2000/svg">
<path d="M20.75 12.375C20.75 17 17 20.75 12.375 20.75M20.75 12.375C20.75 7.75 17 4 12.375 4M20.75 12.375H4M12.375 20.75C7.75 20.75 4 17 4 12.375M12.375 20.75V4M4 12.375C4 7.75 7.75 4 12.375 4M18.209 6.82C17.919 7.346 17.461 8.054 17.049 8.696C16.152 10.091 15.745 10.929 15.745 12.374C15.745 13.82 16.152 14.659 17.047 16.055C17.478 16.723 17.96 17.466 18.246 17.996M6.46 6.669C6.74 7.206 7.248 7.991 7.702 8.696C8.599 10.091 9.006 10.93 9.005 12.374C9.005 13.82 8.599 14.659 7.702 16.055C7.272 16.723 6.79 17.466 6.504 17.996" stroke="white" stroke-width="1.5"/>
</svg>
