<svg width="24" height="24" viewBox="0 0 24 24" fill="none" xmlns="http://www.w3.org/2000/svg">
<path d="M11.8063 3.25C15.9897 3.25 19.3623 6.8273 19.3623 11.219C19.3623 15.9656 15.7899 21.25 11.8063 21.25C7.82271 21.25 4.25031 15.9656 4.25031 11.219C4.25031 6.8273 7.62291 3.25 11.8063 3.25ZM11.8063 4.75C8.47171 4.75 5.75031 7.6366 5.75031 11.219C5.75031 15.2332 8.80381 19.75 11.8063 19.75C14.8088 19.75 17.8623 15.2332 17.8623 11.219C17.8623 7.6366 15.1409 4.75 11.8063 4.75ZM13.9458 13.8699C14.2648 14.1889 14.2638 14.7049 13.9458 15.0239C13.6278 15.3429 13.1108 15.3429 12.7918 15.0239C12.4728 14.7049 12.4728 14.1889 12.7918 13.8699C13.1118 13.5509 13.6278 13.5509 13.9458 13.8699ZM10.8208 13.8699C11.1398 14.1889 11.1388 14.7049 10.8208 15.0239C10.5028 15.3429 9.9858 15.3429 9.6668 15.0239C9.3478 14.7049 9.3478 14.1889 9.6668 13.8699C9.9868 13.5509 10.5028 13.5509 10.8208 13.8699ZM9.50831 11.3699C9.82731 11.6889 9.82631 12.2049 9.50831 12.5239C9.19031 12.8429 8.6733 12.8429 8.3543 12.5239C8.0353 12.2049 8.0353 11.6889 8.3543 11.3699C8.6743 11.0509 9.19031 11.0509 9.50831 11.3699ZM15.2583 11.3699C15.5773 11.6889 15.5763 12.2049 15.2583 12.5239C14.9403 12.8429 14.4233 12.8429 14.1043 12.5239C13.7853 12.2049 13.7853 11.6889 14.1043 11.3699C14.4243 11.0509 14.9403 11.0509 15.2583 11.3699ZM12.3833 11.3699C12.7023 11.6889 12.7013 12.2049 12.3833 12.5239C12.0653 12.8429 11.5483 12.8429 11.2293 12.5239C10.9103 12.2049 10.9103 11.6889 11.2293 11.3699C11.5493 11.0509 12.0653 11.0509 12.3833 11.3699Z" fill="white"/>
</svg>
