<svg width="24" height="24" viewBox="0 0 24 24" fill="none" xmlns="http://www.w3.org/2000/svg">
<path fill-rule="evenodd" clip-rule="evenodd" d="M5.75522 7.91881C9.28716 6.84657 15.1594 7.05313 18.8704 9.25731C19.3146 9.52 19.4603 10.0943 19.1964 10.5385C18.9337 10.9827 18.3594 11.1284 17.9152 10.8657C14.6925 8.95164 9.37552 8.77493 6.29851 9.70866C5.80418 9.8591 5.28239 9.5797 5.13194 9.08657C4.98269 8.59105 5.2609 8.06925 5.75522 7.91881ZM17.8101 13.7003C17.5833 14.0681 17.1033 14.1827 16.7379 13.957C14.0501 12.3057 9.95224 11.8269 6.77373 12.7928C6.3606 12.917 5.92597 12.6842 5.8006 12.2722C5.67642 11.8603 5.90806 11.4257 6.32 11.3003C9.95224 10.1982 14.4669 10.7319 17.5534 12.6281C17.92 12.8549 18.0358 13.3349 17.8101 13.7003ZM16.5863 16.4239C16.406 16.7188 16.0227 16.8107 15.7301 16.6304C13.3815 15.1952 10.4251 14.8716 6.94448 15.6669C6.60895 15.7433 6.27463 15.5331 6.19821 15.1988C6.12179 14.8633 6.33075 14.5278 6.66746 14.4513C10.4764 13.5809 13.7433 13.9558 16.3797 15.5666C16.6734 15.7457 16.7666 16.129 16.5863 16.4239ZM12 22C17.5236 22 22 17.5224 22 12C22 6.47761 17.5236 2 12 2C6.47761 2 2 6.47761 2 12C2 17.5224 6.47761 22 12 22Z" fill="white"/>
</svg>
