<?xml version="1.0" encoding="UTF-8"?>
<svg xmlns="http://www.w3.org/2000/svg" width="13.0" height="14.0" viewBox="0 0 13.0 14.0">
  <path d="M1.85,10.44L1.85,10.44A0.8,0.8 0,0 1,2.65 11.24L2.65,12.2A0.8,0.8 0,0 1,1.85 13L1.85,13A0.8,0.8 0,0 1,1.05 12.2L1.05,11.24A0.8,0.8 0,0 1,1.85 10.44z" fill="#000000" fill-opacity="1.000" />
  <path d="M4.15,11.24C4.15,10.798 4.508,10.44 4.95,10.44C5.392,10.44 5.75,10.798 5.75,11.24V12.2C5.75,12.642 5.392,13 4.95,13C4.508,13 4.15,12.642 4.15,12.2V11.24Z" fill="#000000" fill-opacity="1.000" fill-rule="evenodd" />
  <path d="M7.25,11.24C7.25,10.798 7.608,10.44 8.05,10.44C8.492,10.44 8.85,10.798 8.85,11.24V12.2C8.85,12.642 8.492,13 8.05,13C7.608,13 7.25,12.642 7.25,12.2V11.24Z" fill="#000000" fill-opacity="1.000" fill-rule="evenodd" />
  <path d="M10.35,11.24C10.35,10.798 10.708,10.44 11.15,10.44C11.591,10.44 11.95,10.798 11.95,11.24V12.2C11.95,12.642 11.591,13 11.15,13C10.708,13 10.35,12.642 10.35,12.2V11.24Z" fill="#000000" fill-opacity="1.000" fill-rule="evenodd" />
</svg>