<svg width="24" height="24" viewBox="0 0 24 24" fill="none" xmlns="http://www.w3.org/2000/svg">
<path d="M14.3707 3.54625C14.5064 2.90469 14.9705 2.95303 15.2244 3.0738C15.2519 3.08689 15.2753 3.10483 15.2968 3.12636C16.7048 4.53358 19.6528 7.43167 20.4346 8.01802C21.2223 8.60882 21.1172 9.80275 20.4346 10.4796C18.3279 12.5688 12.5679 18.5051 12.3972 18.681C12.3919 18.6865 12.3903 18.6876 12.3846 18.6927C11.1403 19.8018 9.90337 20.0251 9.43944 19.9979C7.82575 19.9979 5.16743 19.9978 4.27005 19.9979C3.11599 19.998 2.29547 17.195 3.94184 16.3053C4.90625 15.7841 6.21585 14.8595 7.17222 13.4876C7.22317 13.5093 7.27736 13.5258 7.33425 13.5358L10.2431 14.0488C10.6448 14.1196 11.028 13.8514 11.0988 13.4498C11.1696 13.0481 10.9014 12.6651 10.4997 12.5943L7.93795 12.1425C7.94109 12.1369 7.94423 12.1312 7.94741 12.1255C7.95391 12.1139 7.9597 12.1023 7.96471 12.0899C8.01685 11.9614 8.33155 11.1751 8.44966 10.6309C8.4544 10.6091 8.45879 10.5875 8.46329 10.566C8.48256 10.571 8.50214 10.5756 8.5221 10.5792L10.7847 10.978C11.1863 11.0489 11.5693 10.7808 11.6401 10.3791C11.711 9.97749 11.4427 9.59434 11.0411 9.52351L8.77852 9.12462C8.722 9.11466 8.66585 9.11164 8.61089 9.11453C8.51958 7.76411 9.33408 7.04364 9.60194 6.84475C9.65526 6.80516 9.71926 6.78915 9.7856 6.79218C10.3236 6.81673 12.8821 6.89884 13.7883 6.29473C14.5143 5.81063 14.4207 4.42768 14.3654 3.6275C14.3635 3.60033 14.365 3.57289 14.3707 3.54625Z" fill="white"/>
</svg>
