<svg width="24" height="24" viewBox="0 0 24 24" fill="none" xmlns="http://www.w3.org/2000/svg">
<path d="M14.9692 8.55273C15.5212 8.55273 15.9672 8.99973 15.9672 9.55273C15.9672 10.1047 15.5212 10.5527 14.9692 10.5527C14.4152 10.5527 13.9682 10.1047 13.9682 9.55273C13.9682 8.99973 14.4152 8.55273 14.9692 8.55273ZM9.40572 8.55324C9.95872 8.55324 10.4067 8.99924 10.4067 9.55324C10.4067 10.1052 9.95872 10.5532 9.40572 10.5532C8.85272 10.5532 8.40772 10.1052 8.40772 9.55324C8.40672 8.99924 8.85372 8.55324 9.40572 8.55324Z" fill="white"/>
<path d="M7.85986 13.2559C8.65986 15.1499 10.8549 16.0919 12.8259 15.6569" stroke="white" stroke-width="1.5" stroke-linecap="round" stroke-linejoin="round"/>
<path fill-rule="evenodd" clip-rule="evenodd" d="M13.515 19.561L19.561 13.515C19.842 13.234 20 12.853 20 12.455V8C20 5.791 18.209 4 16 4H8C5.79 4 4 5.791 4 8V16C4 18.209 5.79 20 8 20H12.454C12.852 20 13.234 19.842 13.515 19.561Z" stroke="white" stroke-width="1.5" stroke-linecap="round" stroke-linejoin="round"/>
<path d="M19.7622 13.0752H16.5752C14.6422 13.0752 13.0752 14.6422 13.0752 16.5752V19.7182" stroke="white" stroke-width="1.5" stroke-linecap="round" stroke-linejoin="round"/>
</svg>
