<svg width="24" height="24" viewBox="0 0 24 24" fill="none" xmlns="http://www.w3.org/2000/svg">
<path fill-rule="evenodd" clip-rule="evenodd" d="M16.3163 3.49805C18.6182 3.49805 20.5017 5.38155 20.5017 7.68345V12.0938C20.4839 12.098 20.464 12.099 20.4452 12.1032H19.0085C18.6915 12.0896 18.3389 12.0802 17.9402 12.0938C17.8607 12.0959 17.7843 12.099 17.7079 12.1032L17.428 12.1191C15.9508 12.2181 14.7221 12.558 13.6408 13.6403C13.2233 14.0578 12.9177 14.4972 12.6917 14.9639C10.8847 15.4212 8.88624 14.5318 8.19774 12.9016C8.01144 12.4589 7.46634 12.2769 7.04364 12.551C6.72024 12.7603 6.61254 13.1883 6.76524 13.5419C7.59504 15.4714 9.59874 16.6579 11.705 16.6579C11.8704 16.6579 12.0357 16.6506 12.202 16.6349C12.1414 17.0493 12.1079 17.4825 12.0932 17.9408C12.0838 18.2264 12.0859 18.489 12.0932 18.7328V20.5012H7.68394C5.38204 20.5012 3.49854 18.6177 3.49854 16.3158V7.68345C3.49854 5.38155 5.38204 3.49805 7.68394 3.49805H16.3163ZM18.0004 13.9237C18.4409 13.9091 18.8354 13.9593 19.1943 13.9237L13.9228 19.1942C13.9583 18.8353 13.9092 18.4408 13.9228 18.0003C13.9751 16.4318 14.2409 15.6293 14.9356 14.9345C15.6294 14.2397 16.4319 13.975 18.0004 13.9237ZM15.0879 8.39285C14.436 8.39285 13.9086 8.91815 13.9097 9.57005C13.9086 10.2198 14.436 10.7471 15.0879 10.7471C15.7366 10.7471 16.2629 10.2198 16.2629 9.57005C16.2629 8.91815 15.7366 8.39285 15.0879 8.39285ZM9.04314 8.39285C8.39334 8.39285 7.86704 8.91815 7.86814 9.57005C7.86814 10.2198 8.39234 10.7471 9.04314 10.7471C9.69294 10.7471 10.2213 10.2198 10.2213 9.57005C10.2213 8.91815 9.69294 8.39285 9.04314 8.39285Z" fill="white"/>
</svg>
