<svg width="39" height="41" viewBox="0 0 39 41" fill="none" xmlns="http://www.w3.org/2000/svg">
<g filter="url(#filter0_d_1074_14396)">
<path d="M13.5556 10.8889C13.5556 10.398 13.9535 10 14.4445 10H19.7778C20.2687 10 20.6667 10.398 20.6667 10.8889C20.6667 11.3798 20.2687 11.7778 19.7778 11.7778H14.4445C13.9535 11.7778 13.5556 11.3798 13.5556 10.8889Z" fill="white"/>
<path fill-rule="evenodd" clip-rule="evenodd" d="M23.8317 13.0572C23.311 12.5365 22.4668 12.5365 21.9461 13.0572L21.1079 13.8953C19.9689 13.1199 18.5929 12.6667 17.1111 12.6667C13.1838 12.6667 10 15.8504 10 19.7778C10 23.7051 13.1838 26.8889 17.1111 26.8889C21.0385 26.8889 24.2222 23.7051 24.2222 19.7778C24.2222 18.2959 23.769 16.92 22.9936 15.7809L23.8317 14.9428C24.3524 14.4221 24.3524 13.5779 23.8317 13.0572ZM18 15.3333C18 14.8424 17.6021 14.4444 17.1111 14.4444C16.6202 14.4444 16.2222 14.8424 16.2222 15.3333V18C16.2222 18.4909 16.6202 18.8889 17.1111 18.8889C17.6021 18.8889 18 18.4909 18 18V15.3333Z" fill="white"/>
</g>
<defs>
<filter id="filter0_d_1074_14396" x="0" y="0" width="38.2222" height="40.8887" filterUnits="userSpaceOnUse" color-interpolation-filters="sRGB">
<feFlood flood-opacity="0" result="BackgroundImageFix"/>
<feColorMatrix in="SourceAlpha" type="matrix" values="0 0 0 0 0 0 0 0 0 0 0 0 0 0 0 0 0 0 127 0" result="hardAlpha"/>
<feOffset dx="2" dy="2"/>
<feGaussianBlur stdDeviation="6"/>
<feComposite in2="hardAlpha" operator="out"/>
<feColorMatrix type="matrix" values="0 0 0 0 0 0 0 0 0 0 0 0 0 0 0 0 0 0 0.25 0"/>
<feBlend mode="normal" in2="BackgroundImageFix" result="effect1_dropShadow_1074_14396"/>
<feBlend mode="normal" in="SourceGraphic" in2="effect1_dropShadow_1074_14396" result="shape"/>
</filter>
</defs>
</svg>
