<svg width="24" height="24" viewBox="0 0 24 24" fill="none" xmlns="http://www.w3.org/2000/svg">
<path fill-rule="evenodd" clip-rule="evenodd" d="M12.412 6.648L10.872 5.263C10.505 4.933 10.028 4.75 9.534 4.75H5.25C4.145 4.75 3.25 5.645 3.25 6.75V17.25C3.25 18.355 4.145 19.25 5.25 19.25H18.75C19.855 19.25 20.75 18.355 20.75 17.25V9.161C20.75 8.056 19.855 7.161 18.75 7.161H13.749C13.255 7.161 12.779 6.978 12.412 6.648Z" stroke="white" stroke-width="1.5" stroke-linecap="round" stroke-linejoin="round"/>
<path d="M9.68707 16.3416C9.73007 14.3586 8.00407 12.6326 6.01807 12.6726" stroke="white" stroke-width="1.5" stroke-linecap="round" stroke-linejoin="round"/>
<path d="M12.5101 16.3399C12.5871 12.8309 9.53307 9.77689 6.01807 9.84789" stroke="white" stroke-width="1.5" stroke-linecap="round" stroke-linejoin="round"/>
<path fill-rule="evenodd" clip-rule="evenodd" d="M5.68297 15.2565C5.77522 15.1609 5.88557 15.0848 6.00757 15.0324C6.12957 14.9799 6.26079 14.9524 6.39357 14.9512C6.52635 14.9501 6.65803 14.9754 6.78093 15.0256C6.90382 15.0759 7.01548 15.1502 7.10937 15.2441C7.20326 15.338 7.27751 15.4496 7.3278 15.5725C7.37808 15.6954 7.40338 15.8271 7.40222 15.9599C7.40107 16.0926 7.37348 16.2239 7.32108 16.3459C7.26867 16.4679 7.19248 16.5782 7.09697 16.6705C7.00473 16.766 6.89438 16.8422 6.77238 16.8946C6.65037 16.947 6.51915 16.9746 6.38638 16.9757C6.2536 16.9769 6.12192 16.9516 5.99902 16.9013C5.87612 16.851 5.76447 16.7767 5.67058 16.6829C5.57669 16.589 5.50243 16.4773 5.45215 16.3544C5.40187 16.2315 5.37657 16.0998 5.37772 15.9671C5.37888 15.8343 5.40646 15.7031 5.45887 15.5811C5.51128 15.4591 5.58746 15.3487 5.68297 15.2565Z" fill="white"/>
</svg>
