<svg width="24" height="24" viewBox="0 0 24 24" fill="none" xmlns="http://www.w3.org/2000/svg">
<path d="M16.6259 10.2703C16.6259 10.6845 16.9617 11.0203 17.3759 11.0203C17.7901 11.0203 18.1259 10.6845 18.1259 10.2703V8.22726C18.1259 7.54346 17.5725 6.98926 16.8889 6.98926H14.7949C14.3807 6.98926 14.0449 7.32506 14.0449 7.73926C14.0449 8.15346 14.3807 8.48926 14.7949 8.48926H16.6259V10.2703Z" fill="white"/>
<path d="M7.37598 13.8965C7.37598 13.4823 7.04018 13.1465 6.62598 13.1465C6.21178 13.1465 5.87598 13.4823 5.87598 13.8965V15.9395C5.87598 16.6236 6.43068 17.1775 7.11398 17.1775H9.20698C9.62118 17.1775 9.95698 16.8417 9.95698 16.4275C9.95698 16.0133 9.62118 15.6775 9.20698 15.6775H7.37598V13.8965Z" fill="white"/>
<path d="M9.20698 8.48926C9.62118 8.48926 9.95698 8.15346 9.95698 7.73926C9.95698 7.32506 9.62118 6.98926 9.20698 6.98926H7.11398C6.43068 6.98926 5.87598 7.54316 5.87598 8.22726V10.2703C5.87598 10.6845 6.21178 11.0203 6.62598 11.0203C7.04018 11.0203 7.37598 10.6845 7.37598 10.2703V8.48926H9.20698Z" fill="white"/>
<path d="M14.7959 15.6775C14.3817 15.6775 14.0459 16.0133 14.0459 16.4275C14.0459 16.8417 14.3817 17.1775 14.7959 17.1775H16.8889C17.5725 17.1775 18.1259 16.6233 18.1259 15.9395V13.8965C18.1259 13.4823 17.7901 13.1465 17.3759 13.1465C16.9617 13.1465 16.6259 13.4823 16.6259 13.8965V15.6775H14.7959Z" fill="white"/>
<path d="M18.1244 4H5.87939C4.08449 4 2.62939 5.4555 2.62939 7.25V16.916C2.62939 18.7112 4.08419 20.166 5.87939 20.166H18.1244C19.9196 20.166 21.3744 18.7112 21.3744 16.916V7.25C21.3744 5.4555 19.9193 4 18.1244 4ZM18.1244 5.5C19.0908 5.5 19.8744 6.2838 19.8744 7.25V16.916C19.8744 17.8828 19.0912 18.666 18.1244 18.666H5.87939C4.91259 18.666 4.12939 17.8828 4.12939 16.916V7.25C4.12939 6.2838 4.91299 5.5 5.87939 5.5H18.1244Z" fill="white"/>
<path d="M16.47 7.79114L13.747 10.1271C13.4326 10.3968 13.3964 10.8703 13.6661 11.1846C13.9358 11.499 14.4093 11.5352 14.7237 11.2655L17.4467 8.92954C17.761 8.65984 17.7973 8.18634 17.5276 7.87204C17.2579 7.55764 16.7844 7.52144 16.47 7.79114Z" fill="white"/>
<path d="M9.36907 12.7179L6.43307 15.2369C6.11867 15.5066 6.08247 15.9801 6.35217 16.2945C6.62187 16.6088 7.09537 16.645 7.40977 16.3753L10.3458 13.8563C10.6602 13.5866 10.6964 13.1131 10.4266 12.7987C10.1569 12.4844 9.68337 12.4482 9.36907 12.7179Z" fill="white"/>
<path d="M6.55661 8.92954L9.27961 11.2655C9.59401 11.5352 10.0675 11.499 10.3372 11.1846C10.6069 10.8703 10.5706 10.3968 10.2563 10.1271L7.53331 7.79114C7.21891 7.52144 6.74541 7.55764 6.47571 7.87204C6.20601 8.18634 6.24221 8.65984 6.55661 8.92954Z" fill="white"/>
<path d="M13.6571 13.8562L16.5921 16.3752C16.9064 16.645 17.3799 16.6089 17.6497 16.2946C17.9194 15.9802 17.8833 15.5067 17.569 15.237L14.634 12.718C14.3197 12.4482 13.8462 12.4843 13.5764 12.7986C13.3066 13.113 13.3427 13.5865 13.6571 13.8562Z" fill="white"/>
</svg>
