<svg width="24" height="24" viewBox="0 0 24 24" fill="none" xmlns="http://www.w3.org/2000/svg">
<path d="M19.206 15.323V11.102C19.206 7.185 16.02 4 12.103 4C8.186 4 5 7.185 5 11.102V15.323M17.7865 18.2497V18.6197C17.7865 19.4477 17.1155 20.1197 16.2865 20.1197H13.9435C13.1475 20.1197 12.3845 19.8037 11.8225 19.2407L11.7235 19.1427M6.5004 18.156C5.6714 18.156 5.0004 17.484 5.0004 16.656V13.656C5.0004 12.827 5.6714 12.156 6.5004 12.156C7.3284 12.156 8.0004 12.827 8.0004 13.656V16.656C8.0004 17.484 7.3284 18.156 6.5004 18.156ZM17.706 18.156C16.878 18.156 16.206 17.484 16.206 16.656V13.656C16.206 12.827 16.878 12.156 17.706 12.156C18.535 12.156 19.206 12.827 19.206 13.656V16.656C19.206 17.484 18.535 18.156 17.706 18.156Z" stroke="white" stroke-width="1.5" stroke-linecap="round" stroke-linejoin="round"/>
</svg>
