<svg width="24" height="24" viewBox="0 0 24 24" fill="none" xmlns="http://www.w3.org/2000/svg">
<path d="M16.7001 20.7996C17.7001 20.7996 18.5001 19.9996 18.5001 18.9996V18.7996C19.3001 18.4996 19.9001 17.6996 19.9001 16.7996V15.1996V13.3996V10.9996C19.9001 6.69961 16.4001 3.09961 12.0001 3.09961C7.7001 3.09961 4.1001 6.59961 4.1001 10.9996V13.3996V15.1996V16.7996C4.1001 17.9996 5.0001 18.8996 6.2001 18.8996H6.3001C7.5001 18.8996 8.4001 17.9996 8.4001 16.7996V13.3996C8.4001 12.1996 7.5001 11.2996 6.3001 11.2996H6.2001C6.0001 11.2996 5.8001 11.2996 5.6001 11.3996V10.9996C5.6001 7.49961 8.4001 4.59961 12.0001 4.59961C15.5001 4.59961 18.4001 7.39961 18.4001 10.9996V11.3996C18.2001 11.2996 18.0001 11.2996 17.8001 11.2996H17.7001C16.5001 11.2996 15.6001 12.1996 15.6001 13.3996V16.7996C15.6001 17.6996 16.2001 18.4996 17.0001 18.7996V18.9996C17.0001 19.0996 16.9001 19.1996 16.8001 19.1996H13.0001C12.9001 19.1996 12.9001 19.1996 12.8001 19.0996L12.1001 18.3996C11.8001 18.0996 11.3001 18.0996 11.0001 18.3996C10.7001 18.6996 10.7001 19.1996 11.0001 19.4996L11.7001 20.1996C12.0001 20.4996 12.5001 20.6996 12.9001 20.6996H16.7001V20.7996Z" fill="white"/>
</svg>
