<svg width="24" height="24" viewBox="0 0 24 24" fill="none" xmlns="http://www.w3.org/2000/svg">
<path fill-rule="evenodd" clip-rule="evenodd" d="M17.5 3.25C19.296 3.25 20.75 4.704 20.75 6.5V17.499C20.75 19.294 19.296 20.75 17.5 20.75H6.5C4.705 20.75 3.25 19.294 3.25 17.499V6.5C3.25 4.704 4.705 3.25 6.5 3.25H17.5ZM17.5 4.75H6.5C5.533 4.75 4.75 5.533 4.75 6.5V17.499C4.75 18.466 5.534 19.249 6.5 19.249H17.5C18.467 19.249 19.25 18.466 19.25 17.499V6.5C19.25 5.533 18.467 4.75 17.5 4.75ZM6.804 14.77C7.022 14.77 7.195 14.833 7.323 14.961C7.449 15.09 7.512 15.251 7.512 15.446C7.512 15.635 7.45 15.792 7.327 15.919C7.204 16.045 7.03 16.108 6.804 16.108C6.578 16.108 6.404 16.045 6.281 15.919C6.158 15.792 6.095 15.634 6.095 15.446C6.095 15.251 6.158 15.09 6.285 14.961C6.412 14.833 6.585 14.77 6.804 14.77ZM10.275 14.759C10.495 14.759 10.668 14.823 10.795 14.952C10.922 15.08 10.985 15.242 10.985 15.437C10.985 15.626 10.923 15.783 10.8 15.909C10.677 16.036 10.503 16.099 10.276 16.099C10.05 16.099 9.877 16.036 9.755 15.909C9.634 15.783 9.573 15.625 9.573 15.437C9.573 15.235 9.635 15.072 9.762 14.947C9.889 14.822 10.06 14.759 10.275 14.759ZM16.018 8.563L15.618 10.699H16.767L17.167 8.563H18.029L17.629 10.699H18.696V11.514H17.474L17.176 13.12H18.311V13.932H17.023L16.632 16.036H15.776L16.166 13.932H15.012L14.621 16.036H13.764L14.155 13.932H12.969V13.12H14.309L14.606 11.514H13.359V10.699H14.76L15.16 8.563H16.018ZM10.399 8.461C11.087 8.461 11.623 8.636 12.008 8.985C12.394 9.335 12.586 9.822 12.586 10.448C12.586 11.005 12.326 11.555 11.806 12.095L11.174 12.716C10.948 12.973 10.832 13.348 10.825 13.84H9.66C9.66 13.385 9.717 13.022 9.829 12.752C9.942 12.481 10.166 12.184 10.499 11.861C10.833 11.538 11.044 11.308 11.133 11.171C11.271 10.962 11.339 10.736 11.339 10.493C11.339 10.172 11.259 9.927 11.1 9.757C10.941 9.588 10.708 9.503 10.4 9.503C10.105 9.503 9.869 9.586 9.689 9.752C9.509 9.918 9.419 10.143 9.419 10.427H8.172C8.179 9.821 8.385 9.342 8.79 8.99C9.195 8.638 9.731 8.461 10.399 8.461ZM7.445 8.563L7.322 13.835H6.249L6.131 8.563H7.445ZM16.618 11.515H15.463L15.165 13.121H16.32L16.618 11.515Z" fill="white"/>
</svg>
