<svg width="24" height="24" viewBox="0 0 24 24" fill="none" xmlns="http://www.w3.org/2000/svg">
<path d="M12.0001 3.81836C11.3819 3.81836 10.9092 4.29109 10.9092 4.90927V19.0911C10.9092 19.7093 11.3819 20.182 12.0001 20.182C12.6183 20.182 13.091 19.7093 13.091 19.0911V4.90927C13.091 4.29109 12.6183 3.81836 12.0001 3.81836Z" fill="white"/>
<path d="M18.5455 3.81836C17.9273 3.81836 17.4546 4.29109 17.4546 4.90927V19.0911C17.4546 19.7093 17.9273 20.182 18.5455 20.182C19.1637 20.182 19.6364 19.7093 19.6364 19.0911V4.90927C19.6364 4.29109 19.1637 3.81836 18.5455 3.81836Z" fill="white"/>
<path d="M5.45443 3.81836C4.83625 3.81836 4.36353 4.29109 4.36353 4.90927V19.0911C4.36353 19.7093 4.83625 20.182 5.45443 20.182C6.07262 20.182 6.54534 19.7093 6.54534 19.0911V4.90927C6.54534 4.29109 6.07262 3.81836 5.45443 3.81836Z" fill="white"/>
</svg>
