<svg width="24" height="24" viewBox="0 0 24 24" fill="none" xmlns="http://www.w3.org/2000/svg">
<path d="M18.9818 5.01792C17.9636 3.99973 16.5091 3.27246 13.7091 3.27246H10.3273C7.52726 3.27246 6.07272 3.99973 5.05454 5.01792C4.03635 6.0361 3.30908 7.49064 3.30908 10.2906V13.6725C3.30908 16.4725 4.03635 17.927 5.05454 18.9452C6.07272 19.9634 7.52726 20.6906 10.3273 20.6906H13.7091C16.5091 20.6906 17.9636 19.9634 18.9818 18.9452C20 17.927 20.7273 16.4725 20.7273 13.6725V10.2906C20.7273 7.49064 20 6.07246 18.9818 5.01792ZM18.5454 13.5634C18.5454 15.8543 17.9636 16.7634 17.3818 17.3452C16.8 17.927 15.8909 18.5088 13.6 18.5088H10.4364C8.14545 18.5088 7.23635 17.927 6.65454 17.3452C6.07272 16.7634 5.4909 15.8543 5.4909 13.5634V10.3997C5.4909 8.10882 6.07272 7.19973 6.65454 6.61792C7.23635 6.0361 8.14545 5.45428 10.4364 5.45428H13.6C15.8909 5.45428 16.8 6.0361 17.3818 6.61792C17.9636 7.19973 18.5454 8.10882 18.5454 10.3997V13.5634Z" fill="white"/>
</svg>
