<svg width="24" height="24" viewBox="0 0 24 24" fill="none" xmlns="http://www.w3.org/2000/svg">
<path d="M20.0001 14.7635C19.7092 14.2181 19.3092 13.8181 18.7637 13.5272C18.2183 13.2363 17.6001 13.0908 16.7637 13.0908H7.23645C6.40008 13.0908 5.74554 13.2363 5.23645 13.5272C4.69099 13.8181 4.29099 14.2181 4.00008 14.7635C3.70918 15.309 3.56372 15.9272 3.56372 16.7635C3.56372 17.5999 3.70918 18.2545 4.00008 18.7635C4.29099 19.309 4.69099 19.709 5.23645 19.9999C5.7819 20.2908 6.40008 20.4363 7.23645 20.4363H16.7637C17.6001 20.4363 18.2546 20.2908 18.7637 19.9999C19.3092 19.709 19.7092 19.309 20.0001 18.7635C20.291 18.2181 20.4364 17.5999 20.4364 16.7635C20.4364 15.9272 20.291 15.309 20.0001 14.7635ZM18.3274 17.8908C18.2183 18.109 18.0728 18.2545 17.891 18.3272C17.7092 18.3999 17.4183 18.5454 16.7637 18.5454H7.23645C6.5819 18.5454 6.29099 18.4363 6.10917 18.3272C5.89099 18.2181 5.74554 18.0726 5.67281 17.8908C5.60008 17.709 5.45463 17.4181 5.45463 16.7999C5.45463 16.1454 5.56372 15.8545 5.67281 15.6726C5.7819 15.4545 5.92736 15.309 6.10917 15.2363C6.29099 15.1272 6.5819 15.0181 7.23645 15.0181H16.7637C17.4183 15.0181 17.7092 15.1272 17.891 15.2363C18.1092 15.3454 18.2546 15.4908 18.3274 15.6726C18.4001 15.8545 18.5455 16.1454 18.5455 16.7635C18.5455 17.4181 18.4364 17.709 18.3274 17.8908Z" fill="white"/>
<path d="M20.0001 5.2362C19.7092 4.69075 19.3092 4.29075 18.7637 3.99984C18.2183 3.70893 17.6001 3.56348 16.7637 3.56348H7.23645C6.40008 3.56348 5.74554 3.70893 5.23645 3.99984C4.69099 4.29075 4.29099 4.69075 4.00008 5.2362C3.70918 5.78166 3.56372 6.39984 3.56372 7.2362C3.56372 8.07257 3.70918 8.72711 4.00008 9.2362C4.29099 9.78166 4.69099 10.1817 5.23645 10.4726C5.7819 10.7635 6.40008 10.9089 7.23645 10.9089H16.7637C17.6001 10.9089 18.2546 10.7635 18.7637 10.4726C19.3092 10.1817 19.7092 9.78166 20.0001 9.2362C20.291 8.69075 20.4364 8.07257 20.4364 7.2362C20.4364 6.39984 20.291 5.74529 20.0001 5.2362ZM18.3274 8.32711C18.2183 8.54529 18.0728 8.69075 17.891 8.76348C17.7092 8.8362 17.4183 8.98166 16.7637 8.98166H7.23645C6.5819 8.98166 6.29099 8.87257 6.10917 8.76348C5.89099 8.65439 5.74554 8.50893 5.67281 8.32711C5.60008 8.14529 5.45463 7.85439 5.45463 7.2362C5.45463 6.58166 5.56372 6.29075 5.67281 6.10893C5.7819 5.89075 5.92736 5.74529 6.10917 5.67257C6.29099 5.56348 6.5819 5.45439 7.23645 5.45439H16.7637C17.4183 5.45439 17.7092 5.56348 17.891 5.67257C18.1092 5.78166 18.2546 5.92711 18.3274 6.10893C18.4001 6.29075 18.5455 6.58166 18.5455 7.19984C18.5455 7.85439 18.4364 8.18166 18.3274 8.32711Z" fill="white"/>
</svg>
