<svg xmlns="http://www.w3.org/2000/svg" width="24" height="24" viewBox="0 0 24 24" fill="currentColor">
  <path d="M14.956,3.317C17.278,2.788 18.755,3.467 19.714,4.49C20.679,5.52 21.13,6.909 21.37,7.809C21.624,8.762 21.526,10.224 21.364,11.281C20.615,10.682 19.733,10.262 18.786,10.065C18.888,8.953 18.77,8.09 18.48,7.444C18.181,6.78 17.703,6.349 17.114,6.118C15.943,5.66 14.353,5.991 12.865,6.744C11.922,7.221 10.928,7.744 10.057,8.256C9.189,8.766 8.437,9.27 7.981,9.711C7.797,9.89 7.701,10.087 7.659,10.283C7.228,10.245 6.786,10.253 6.339,10.317C4.723,10.546 3.359,11.423 2.469,12.644C2.611,11.958 2.868,11.301 3.213,10.692C3.645,9.933 4.416,9.13 5.382,8.342C6.347,7.555 7.499,6.787 8.686,6.095C11.062,4.71 13.563,3.634 14.956,3.317Z"/>
  <path d="M19.17,15.672C19.764,14.029 20.481,12.899 20.902,13.023C21.402,13.171 21.295,15.031 20.663,17.178C20.031,19.325 19.112,20.946 18.612,20.798C18.469,20.756 18.377,20.572 18.332,20.28C18.33,20.267 18.327,20.254 18.325,20.24C18.226,19.507 18.41,18.146 18.853,16.645C18.944,16.333 19.042,16.033 19.143,15.747C19.153,15.722 19.161,15.697 19.17,15.672ZM16.28,11.651C17.437,11.35 18.604,11.508 19.592,12.012C19.526,12.066 19.466,12.12 19.415,12.17C19.11,12.473 18.851,12.862 18.636,13.241C18.194,14.021 17.767,15.075 17.428,16.225C17.09,17.374 16.878,18.491 16.826,19.386C16.801,19.821 16.809,20.289 16.901,20.708C16.912,20.757 16.924,20.809 16.94,20.864C15.063,20.654 13.422,19.318 12.917,17.382C12.263,14.872 13.768,12.306 16.28,11.651Z"/>
  <path d="M2.945,14.87C3.436,13.332 4.766,12.132 6.47,11.89C8.843,11.553 11.04,13.203 11.377,15.575C11.713,17.947 10.061,20.143 7.688,20.48C7.348,20.529 7.012,20.534 6.684,20.504L6.266,18.166C6.209,17.846 5.903,17.634 5.584,17.691C5.265,17.749 5.052,18.055 5.109,18.374L5.436,20.199C4.828,19.95 4.282,19.566 3.844,19.076L2.945,14.87Z"/>
</svg>
