<svg width="24" height="24" viewBox="0 0 24 24" fill="none" xmlns="http://www.w3.org/2000/svg">
<path d="M17.7165 7.1841C19.0769 7.1846 20.1851 8.2838 20.1851 9.6274V18.0067C20.1851 19.0781 19.4893 19.8871 18.1748 19.8871H9.8415C8.5178 19.8871 7.4293 18.8373 7.3805 17.5356L15.9858 17.5359C16.8876 17.5359 17.6341 16.8371 17.7102 15.9539L17.7166 15.8051L17.7165 7.1841ZM14.3436 4C15.6981 4 16.8063 5.0993 16.8063 6.4428V15.2368C16.8063 16.0432 16.1414 16.7025 15.3287 16.7025H6.4628C5.1082 16.7025 4 15.6033 4 14.2597V6.4428C4 5.0993 5.1082 4 6.4628 4H14.3436ZM15.7151 6.795C15.9381 5.792 15.0651 4.918 14.0621 5.14C13.5561 5.251 13.1481 5.658 13.0351 6.164C12.8121 7.166 13.6861 8.042 14.6891 7.82C15.1941 7.708 15.6031 7.301 15.7151 6.795Z" fill="white"/>
</svg>
