<svg width="24" height="24" viewBox="0 0 24 24" fill="none" xmlns="http://www.w3.org/2000/svg">
<path fill-rule="evenodd" clip-rule="evenodd" d="M4.99971 5.7998H19.0003C20.1043 5.7998 21 6.69466 21 7.79952V16.1995C21 17.3044 20.1043 18.1992 19.0003 18.1992H4.99971C3.89571 18.1992 3 17.3044 3 16.1995V7.79952C3 6.69466 3.89571 5.7998 4.99971 5.7998Z" stroke="white" stroke-width="1.75" stroke-linecap="round" stroke-linejoin="round"/>
<path fill-rule="evenodd" clip-rule="evenodd" d="M11.1 8.4C11.1 8.16131 11.1948 7.93239 11.3636 7.7636C11.5324 7.59482 11.7613 7.5 12 7.5C12.2387 7.5 12.4676 7.59482 12.6364 7.7636C12.8052 7.93239 12.9 8.16131 12.9 8.4C12.9 8.6387 12.8052 8.86761 12.6364 9.0364C12.4676 9.20518 12.2387 9.3 12 9.3C11.7613 9.3 11.5324 9.20518 11.3636 9.0364C11.1948 8.86761 11.1 8.6387 11.1 8.4Z" fill="white"/>
</svg>
