<svg width="24" height="24" viewBox="0 0 24 24" fill="none" xmlns="http://www.w3.org/2000/svg">
<path fill-rule="evenodd" clip-rule="evenodd" d="M20 14.5004L19.9833 17.5716C17.4337 18.8349 14.6689 19.516 11.9137 19.5001C8.91109 19.4824 6.74699 18.8663 3.99999 17.5716L4.01859 14.5004C6.51669 15.6154 9.10919 16.1106 11.9338 16.1267C14.901 16.1441 17.1512 15.5843 20 14.5004ZM16.1837 4.55385C19.4967 4.57445 20.9795 6.91305 20.9658 9.53345C20.951 12.1546 19.4431 14.4928 16.1298 14.4729C14.0589 14.4595 12.7033 13.5332 11.9815 12.2004C11.2523 13.5518 9.87929 14.4854 7.78129 14.4724C4.46789 14.452 2.98519 12.0945 2.99999 9.47375C3.01439 6.85265 4.52159 4.53295 7.83499 4.55435C9.90599 4.56665 11.2618 5.48495 11.9838 6.81215C12.7131 5.46625 14.0861 4.54045 16.1837 4.55385ZM7.82109 7.17455C6.54629 7.16645 6.36919 8.49435 6.36359 9.49455C6.35859 10.4954 6.52089 11.8438 7.79509 11.8521C9.06899 11.8595 9.24689 10.5145 9.25259 9.51255C9.25789 8.51145 9.09539 7.18205 7.82109 7.17455ZM16.1696 7.17415C14.8955 7.16595 14.7185 8.49385 14.7131 9.49495C14.707 10.4959 14.8695 11.8435 16.1444 11.8517C17.4175 11.8599 17.5957 10.5141 17.601 9.51295C17.6064 8.51175 17.4435 7.18165 16.1696 7.17415Z" fill="white"/>
</svg>
