<svg width="24" height="24" viewBox="0 0 24 24" fill="none" xmlns="http://www.w3.org/2000/svg">
<path fill-rule="evenodd" clip-rule="evenodd" d="M5.74119 7.68164H19.2C19.4122 7.68164 19.6156 7.76593 19.7657 7.91596C19.9157 8.06598 20 8.26947 20 8.48164C20 8.69381 19.9157 8.8973 19.7657 9.04733C19.6156 9.19736 19.4122 9.28164 19.2 9.28164H5.74119C5.52902 9.28164 5.32554 9.19736 5.17551 9.04733C5.02548 8.8973 4.94119 8.69381 4.94119 8.48164C4.94119 8.26947 5.02548 8.06598 5.17551 7.91596C5.32554 7.76593 5.52902 7.68164 5.74119 7.68164Z" fill="white"/>
<path fill-rule="evenodd" clip-rule="evenodd" d="M12.2856 4.07582L8.56099 19.6136C8.45969 20.0364 8.03469 20.2969 7.61189 20.1956C7.60719 20.1945 7.60249 20.1933 7.59779 20.1921C7.16679 20.0803 6.90469 19.6439 7.00849 19.211L10.7331 3.67322C10.8345 3.25042 11.2594 2.98982 11.6822 3.09122C11.6869 3.09232 11.6916 3.09352 11.6963 3.09472C12.1273 3.20652 12.3894 3.64282 12.2856 4.07582Z" fill="white"/>
<path fill-rule="evenodd" clip-rule="evenodd" d="M16.9915 4.07582L13.2669 19.6136C13.1655 20.0364 12.7406 20.2969 12.3178 20.1956C12.3131 20.1945 12.3084 20.1933 12.3037 20.1921C11.8727 20.0803 11.6106 19.6439 11.7144 19.211L15.439 3.67322C15.5403 3.25042 15.9653 2.98982 16.3881 3.09122C16.3928 3.09232 16.3975 3.09352 16.4022 3.09472C16.8332 3.20652 17.0953 3.64282 16.9915 4.07582Z" fill="white"/>
<path fill-rule="evenodd" clip-rule="evenodd" d="M4.8 13.3291H18.2588C18.471 13.3291 18.6745 13.4134 18.8245 13.5634C18.9745 13.7134 19.0588 13.9169 19.0588 14.1291C19.0588 14.3413 18.9745 14.5448 18.8245 14.6948C18.6745 14.8448 18.471 14.9291 18.2588 14.9291H4.8C4.58783 14.9291 4.38434 14.8448 4.23431 14.6948C4.08429 14.5448 4 14.3413 4 14.1291C4 13.9169 4.08429 13.7134 4.23431 13.5634C4.38434 13.4134 4.58783 13.3291 4.8 13.3291Z" fill="white"/>
</svg>
