<svg width="24" height="24" viewBox="0 0 24 24" fill="none" xmlns="http://www.w3.org/2000/svg">
<path d="M11.9829 1.30371C13.3679 1.30371 14.5044 2.38961 14.5867 3.75471L14.5915 3.91341L14.5913 14.3938L14.6747 14.4539C15.643 15.1925 16.2544 16.2776 16.3818 17.474L16.4008 17.7147L16.4067 17.9435C16.4067 20.3768 14.4277 22.3558 11.9944 22.3558C9.56109 22.3558 7.58209 20.3768 7.58209 17.9435C7.58209 16.5742 8.21189 15.3039 9.29199 14.4686L9.37389 14.4071L9.37429 3.91341C9.37429 2.58341 10.3744 1.48221 11.6619 1.32341L11.8242 1.30851L11.9829 1.30371ZM11.9829 2.32501C11.1082 2.32501 10.3955 3.03761 10.3955 3.91341V14.7396C10.3955 14.8754 10.3266 15.0008 10.2116 15.0719C9.20419 15.6989 8.60339 16.7721 8.60339 17.9435C8.60339 19.813 10.1249 21.3345 11.9944 21.3345C13.8639 21.3345 15.3854 19.813 15.3854 17.9435C15.3854 16.7637 14.7762 15.6863 13.7573 15.0614C13.6413 14.9904 13.5702 14.8639 13.5702 14.727V3.91341C13.5702 3.03761 12.8576 2.32501 11.9829 2.32501ZM12.624 9.08561L12.6239 15.5993L12.7347 15.631C13.6212 15.9137 14.275 16.6826 14.4035 17.6091L14.4214 17.7846L14.4266 17.9444C14.4266 19.2877 13.338 20.3764 11.9946 20.3764C10.6512 20.3764 9.56259 19.2877 9.56259 17.9444C9.56259 16.8831 10.2488 15.9616 11.2412 15.636L11.3651 15.5993L11.3652 9.08561H12.624Z" fill="white"/>
</svg>
