<svg width="24" height="24" viewBox="0 0 24 24" fill="none" xmlns="http://www.w3.org/2000/svg">
<path d="M13.067 6.5498C14.098 6.5498 14.936 7.3888 14.936 8.4188C14.936 9.4498 14.098 10.2878 13.067 10.2878H9.527V6.5498H13.067ZM13.544 17.4508H9.527V12.7878H13.067C13.174 12.7878 13.279 12.7788 13.384 12.7728C13.437 12.7788 13.489 12.7878 13.544 12.7878C14.829 12.7878 15.875 13.8338 15.875 15.1188C15.875 16.4048 14.829 17.4508 13.544 17.4508ZM7.027 17.4508H6.875C6.185 17.4508 5.625 18.0108 5.625 18.7008C5.625 19.3918 6.185 19.9508 6.875 19.9508H13.544C16.208 19.9508 18.375 17.7828 18.375 15.1188C18.375 13.5268 17.596 12.1148 16.403 11.2348C17.046 10.4738 17.436 9.4908 17.436 8.4188C17.436 6.0098 15.476 4.0498 13.067 4.0498H6.875C6.185 4.0498 5.625 4.6098 5.625 5.2998C5.625 5.9898 6.185 6.5498 6.875 6.5498H7.027V11.5378V17.4508Z" fill="white"/>
</svg>
