<svg width="24" height="24" viewBox="0 0 24 24" fill="none" xmlns="http://www.w3.org/2000/svg">
<path d="M18.2567 10.5635C19.3207 10.5635 20.1877 11.4295 20.1877 12.4945C20.1877 12.9085 19.8517 13.2445 19.4377 13.2445C19.0237 13.2445 18.6877 12.9085 18.6877 12.4945C18.6877 12.2565 18.4937 12.0635 18.2567 12.0635H16.3127V17.8265H16.9527C17.3667 17.8265 17.7027 18.1615 17.7027 18.5765C17.7027 18.9905 17.3667 19.3265 16.9527 19.3265H14.1727C13.7577 19.3265 13.4227 18.9905 13.4227 18.5765C13.4227 18.1615 13.7577 17.8265 14.1727 17.8265H14.8127V12.0635H12.8677C12.6307 12.0635 12.4377 12.2565 12.4377 12.4945C12.4377 12.9085 12.1017 13.2445 11.6877 13.2445C11.2737 13.2445 10.9377 12.9085 10.9377 12.4945C10.9377 11.4295 11.8037 10.5635 12.8677 10.5635H18.2567ZM8.31226 17.6729C8.72626 17.6729 9.06226 18.0079 9.06226 18.4229C9.06226 18.8369 8.72626 19.1729 8.31226 19.1729H4.56226C4.14826 19.1729 3.81226 18.8369 3.81226 18.4229C3.81226 18.0079 4.14826 17.6729 4.56226 17.6729H8.31226ZM8.56226 11.1729C8.97626 11.1729 9.31226 11.5079 9.31226 11.9229C9.31226 12.3369 8.97626 12.6729 8.56226 12.6729H4.56226C4.14826 12.6729 3.81226 12.3369 3.81226 11.9229C3.81226 11.5079 4.14826 11.1729 4.56226 11.1729H8.56226ZM18.8123 4.67285C19.2263 4.67285 19.5623 5.00785 19.5623 5.42285C19.5623 5.83685 19.2263 6.17285 18.8123 6.17285H4.56226C4.14826 6.17285 3.81226 5.83685 3.81226 5.42285C3.81226 5.00785 4.14826 4.67285 4.56226 4.67285H18.8123Z" fill="white"/>
</svg>
