<svg width="24" height="24" viewBox="0 0 24 24" fill="none" xmlns="http://www.w3.org/2000/svg">
<path d="M4.86492 15.9359C5.19292 15.8289 5.61492 15.8259 5.96692 15.9279C6.14482 15.9809 6.30082 16.0599 6.43092 16.1659C6.56282 16.2719 6.66692 16.4069 6.74082 16.5649C6.81382 16.7219 6.85092 16.9039 6.85092 17.1039C6.85092 17.2039 6.83582 17.3029 6.80492 17.3999C6.77482 17.4959 6.72882 17.5879 6.66992 17.6729C6.61492 17.7509 6.54892 17.8239 6.47182 17.8889C6.57182 17.9599 6.65582 18.0439 6.72182 18.1389C6.84682 18.3209 6.90992 18.5359 6.90992 18.7789C6.90992 18.9809 6.86882 19.1659 6.78882 19.3279C6.70992 19.4889 6.59892 19.6269 6.45882 19.7369C6.32492 19.8429 6.16282 19.9259 5.97882 19.9819C5.79982 20.0359 5.60592 20.0629 5.40092 20.0629C5.22482 20.0629 5.05082 20.0399 4.88292 19.9919C4.70982 19.9439 4.55282 19.8669 4.41592 19.7639C4.27482 19.6599 4.16092 19.5259 4.07592 19.3689C3.98892 19.2079 3.94482 19.0169 3.94482 18.8009V18.6139H5.05982V18.8009C5.05982 18.8429 5.06792 18.8819 5.08282 18.9149C5.09892 18.9489 5.12092 18.9769 5.14982 19.0019C5.18092 19.0289 5.21992 19.0509 5.26392 19.0659C5.35592 19.0989 5.49492 19.0989 5.59282 19.0649C5.63782 19.0499 5.67392 19.0289 5.70382 19.0019C5.73392 18.9739 5.75482 18.9429 5.76982 18.9059C5.78592 18.8669 5.79492 18.8209 5.79492 18.7679C5.79492 18.6929 5.78492 18.6309 5.76482 18.5829C5.74782 18.5399 5.72692 18.5089 5.69682 18.4839C5.66492 18.4569 5.62382 18.4359 5.57382 18.4229C5.51392 18.4049 5.44582 18.3969 5.36992 18.3969H4.78782V17.4429H5.36992C5.50382 17.4429 5.59892 17.4149 5.65292 17.3589C5.70882 17.3009 5.73592 17.2209 5.73592 17.1149C5.73592 17.0669 5.72882 17.0249 5.71482 16.9859C5.70382 16.9529 5.68882 16.9269 5.66692 16.9059C5.64282 16.8829 5.61182 16.8629 5.57492 16.8489C5.50692 16.8239 5.38192 16.8129 5.28182 16.8459C5.24292 16.8589 5.20992 16.8759 5.18282 16.8969C5.15792 16.9169 5.13982 16.9389 5.12582 16.9679C5.11182 16.9939 5.10592 17.0229 5.10592 17.0579V17.2459H3.99082V17.0579C3.99082 16.8759 4.02992 16.7059 4.10792 16.5539C4.18282 16.4059 4.28782 16.2769 4.41882 16.1729C4.54582 16.0709 4.69582 15.9909 4.86492 15.9359ZM19.3051 17.444C19.7201 17.444 20.0551 17.779 20.0551 18.194C20.0551 18.608 19.7201 18.944 19.3051 18.944H9.80522C9.39112 18.944 9.05522 18.608 9.05522 18.194C9.05522 17.779 9.39112 17.444 9.80522 17.444H19.3051ZM4.83402 9.8481C5.16702 9.7121 5.65602 9.7011 6.02302 9.8191C6.19792 9.8761 6.34892 9.9591 6.46992 10.0661C6.59402 10.1751 6.68902 10.3111 6.75292 10.4691C6.81402 10.6231 6.84602 10.7951 6.84602 10.9831C6.84602 11.1281 6.82292 11.2691 6.77692 11.4041C6.73302 11.5341 6.67092 11.6641 6.59192 11.7921C6.51602 11.9161 6.42202 12.0431 6.31492 12.1681C6.21292 12.2861 6.09702 12.4141 5.96792 12.5461L5.61092 12.9221H6.96602V13.8951H4.03392V13.1261L5.29202 11.7851C5.37702 11.6921 5.45002 11.6061 5.50902 11.5281C5.56402 11.4551 5.61092 11.3851 5.64602 11.3241C5.67602 11.2691 5.69792 11.2181 5.70992 11.1741C5.72202 11.1331 5.72802 11.0931 5.72802 11.0541C5.72802 10.9351 5.70202 10.8471 5.64902 10.7881C5.60192 10.7351 5.53102 10.7091 5.43102 10.7091C5.37202 10.7091 5.32192 10.7181 5.27802 10.7391C5.23592 10.7581 5.20302 10.7851 5.17492 10.8181C5.14492 10.8551 5.12202 10.9001 5.10602 10.9541C5.08702 11.0121 5.07802 11.0791 5.07802 11.1491V11.3361H3.95992V11.1491C3.95992 10.9591 3.99502 10.7751 4.06302 10.6051C4.13292 10.4321 4.23402 10.2801 4.36392 10.1521C4.49502 10.0241 4.65192 9.9211 4.83402 9.8481ZM19.3051 11.2506C19.7201 11.2506 20.0551 11.5856 20.0551 12.0006C20.0551 12.4146 19.7201 12.7506 19.3051 12.7506H9.80522C9.39112 12.7506 9.05522 12.4146 9.05522 12.0006C9.05522 11.5856 9.39112 11.2506 9.80522 11.2506H19.3051ZM6.20802 3.9375V8.0495H5.09212V5.2605L4.20802 5.5345V4.5455L5.94112 3.9375H6.20802ZM19.3051 5.0563C19.7201 5.0563 20.0551 5.3923 20.0551 5.8063C20.0551 6.2203 19.7201 6.5563 19.3051 6.5563H9.80522C9.39112 6.5563 9.05522 6.2203 9.05522 5.8063C9.05522 5.3923 9.39112 5.0563 9.80522 5.0563H19.3051Z" fill="white"/>
</svg>
