<svg width="24" height="24" viewBox="0 0 24 24" fill="none" xmlns="http://www.w3.org/2000/svg">
<path d="M12 14.0526C12.3849 14.0526 12.6957 14.3486 12.6957 14.7134V17.6783H14.496C14.88 17.6783 15.1917 17.9744 15.1917 18.3392C15.1917 18.7039 14.88 19 14.496 19H9.5049C9.12 19 8.8093 18.7039 8.8093 18.3392C8.8093 17.9744 9.12 17.6783 9.5049 17.6783H11.3043V14.7134C11.3043 14.3486 11.616 14.0526 12 14.0526ZM16.8371 5C18.3898 5 19.6522 6.1992 19.6522 7.6733C19.6522 8.039 19.3414 8.3341 18.9565 8.3341C18.5725 8.3341 18.2609 8.039 18.2609 7.6733C18.2609 6.9279 17.6227 6.3217 16.8371 6.3217H12.6957V11.4092H19.3043C19.6893 11.4092 20 11.7053 20 12.07C20 12.4348 19.6893 12.7309 19.3043 12.7309H4.6957C4.3117 12.7309 4 12.4348 4 12.07C4 11.7053 4.3117 11.4092 4.6957 11.4092H11.3043V6.3217H7.1629C6.3782 6.3217 5.7391 6.9279 5.7391 7.6733C5.7391 8.039 5.4284 8.3341 5.0435 8.3341C4.6595 8.3341 4.3478 8.039 4.3478 7.6733C4.3478 6.1992 5.6111 5 7.1629 5H16.8371Z" fill="white"/>
</svg>
