<svg width="24" height="24" viewBox="0 0 24 24" fill="none" xmlns="http://www.w3.org/2000/svg">
<path d="M18.875 17.9432C19.29 17.9432 19.625 18.2793 19.625 18.6932C19.625 19.1082 19.29 19.4432 18.875 19.4432H5.125C4.711 19.4432 4.375 19.1082 4.375 18.6932C4.375 18.2793 4.711 17.9432 5.125 17.9432H18.875ZM8.0167 8.93274C8.3307 8.66164 8.8047 8.69774 9.0747 9.00974C9.3457 9.32364 9.3107 9.79774 8.9967 10.0687L6.7567 11.9997L8.9967 13.9326C9.3107 14.2027 9.3457 14.6756 9.0747 14.9896C8.9267 15.1616 8.7177 15.2497 8.5067 15.2497C8.3327 15.2497 8.1587 15.1907 8.0167 15.0687L5.3697 12.7846C5.1387 12.5856 5.0067 12.2997 5.0067 11.9997C5.0077 11.6996 5.1387 11.4147 5.3697 11.2156L8.0167 8.93274ZM18.875 13.4814C19.29 13.4814 19.625 13.8173 19.625 14.2314C19.625 14.6453 19.29 14.9814 18.875 14.9814H12.125C11.711 14.9814 11.375 14.6453 11.375 14.2314C11.375 13.8173 11.711 13.4814 12.125 13.4814H18.875ZM18.875 9.01844C19.29 9.01844 19.625 9.35444 19.625 9.76844C19.625 10.1834 19.29 10.5184 18.875 10.5184H12.125C11.711 10.5184 11.375 10.1834 11.375 9.76844C11.375 9.35444 11.711 9.01844 12.125 9.01844H18.875ZM18.875 4.55664C19.29 4.55664 19.625 4.89264 19.625 5.30664C19.625 5.72054 19.29 6.05664 18.875 6.05664H5.125C4.711 6.05664 4.375 5.72054 4.375 5.30664C4.375 4.89264 4.711 4.55664 5.125 4.55664H18.875Z" fill="white"/>
</svg>
