<svg width="24" height="24" viewBox="0 0 24 24" fill="none" xmlns="http://www.w3.org/2000/svg">
<path d="M4.2949 18.2969L5.1738 15.6602H9.8057L10.6846 18.2969H13.4971L8.707 5.5H6.2637L1.5 18.2969H4.2949ZM9.0938 13.5244H5.8857L7.4941 8.7168L9.0938 13.5244ZM17.3818 18.4727C18.3662 18.4727 19.166 18.1299 19.7813 17.4443C19.8457 17.79 19.9307 18.0742 20.0361 18.2969H22.6025V18.1475C22.3623 17.6846 22.2363 17.0313 22.2246 16.1875V11.9512C22.2246 10.8379 21.8643 10.0029 21.1436 9.4463C20.4229 8.8896 19.5117 8.6113 18.4102 8.6113C17.1797 8.6113 16.1982 8.9087 15.4658 9.5034C14.7334 10.0981 14.3672 10.8086 14.3672 11.6348H16.9072C16.9072 10.873 17.3613 10.4922 18.2695 10.4922C18.7559 10.4922 19.1118 10.6226 19.3374 10.8833C19.563 11.144 19.6758 11.4941 19.6758 11.9336V12.4873H18.542C17.0947 12.4873 16.002 12.7612 15.2637 13.3091C14.5254 13.8569 14.1563 14.6289 14.1563 15.625C14.1563 16.4512 14.4668 17.1323 15.0879 17.6685C15.709 18.2046 16.4736 18.4727 17.3818 18.4727ZM17.9355 16.5303C17.5488 16.5303 17.2456 16.4277 17.0259 16.2227C16.8062 16.0176 16.6963 15.7568 16.6963 15.4404C16.6963 15.0244 16.8516 14.6743 17.1621 14.3901C17.4727 14.106 17.9648 13.9639 18.6387 13.9639H19.6758V15.6162C19.5469 15.8447 19.3315 16.0542 19.0298 16.2446C18.728 16.4351 18.3633 16.5303 17.9355 16.5303Z" fill="white"/>
<path d="M18.4102 8.1611C19.6067 8.1611 20.6147 8.4691 21.4186 9.0899C22.2008 9.6941 22.617 10.5779 22.669 11.7056L22.6746 11.951L22.6744 16.174L22.6823 16.4407C22.7087 17.0117 22.7961 17.4663 22.9379 17.8029L23.002 17.94L23.0525 18.1473V18.7467H19.7402L19.5565 18.3204L19.536 18.2648L19.4611 18.3204C18.9969 18.6357 18.466 18.8278 17.8741 18.8952L17.6168 18.9164L17.3818 18.9225C16.3685 18.9225 15.4991 18.6176 14.7938 18.0089C14.0735 17.3871 13.7063 16.5815 13.7063 15.6248C13.7063 14.4895 14.14 13.5823 14.9955 12.9475C15.7633 12.3777 16.8391 12.0811 18.2183 12.0417L18.542 12.0371L19.226 12.0368L19.2261 11.9504L19.2202 11.7855C19.1997 11.5222 19.1241 11.3244 18.9971 11.1775C18.8666 11.0267 18.6354 10.942 18.2695 10.942C17.6423 10.942 17.3933 11.1133 17.3609 11.5332L17.3572 11.6346V12.0846H13.9014L13.9248 11.4147C13.9858 10.5384 14.4132 9.7783 15.1822 9.1539C16.0012 8.4888 17.0827 8.1611 18.4102 8.1611ZM5.95099 5.0498H9.0191L14.146 18.7467H10.3602L9.481 16.1098H5.49699L4.61929 18.7467H0.852295L5.95099 5.0498ZM18.4102 9.0611C17.2767 9.0611 16.3953 9.3282 15.7495 9.8526C15.3413 10.184 15.0714 10.5456 14.9318 10.9387L14.8799 11.1091L14.863 11.1838H16.506C16.6591 10.534 17.1589 10.1472 17.9251 10.0606L18.0933 10.0467L18.2695 10.042C18.8764 10.042 19.3571 10.218 19.6777 10.5887C19.9003 10.8459 20.0389 11.1622 20.0965 11.5397L20.1186 11.7335L20.1258 11.9334V12.9371H18.542C17.183 12.9371 16.1815 13.1882 15.5318 13.6703C14.9108 14.1311 14.6062 14.7679 14.6062 15.6248C14.6062 16.3204 14.8601 16.8771 15.3819 17.3276C15.9189 17.7911 16.5787 18.0225 17.3818 18.0225C18.1692 18.0225 18.804 17.7785 19.3112 17.2845L19.4463 17.1436L20.0563 16.464L20.2236 17.3617C20.2392 17.445 20.2559 17.524 20.2736 17.5979L20.3007 17.705L20.342 17.8458H21.999L21.971 17.7559C21.9088 17.5354 21.8616 17.2937 21.829 17.0304L21.8012 16.7599L21.7829 16.4748L21.7746 16.1873V11.951C21.7746 10.9698 21.4718 10.2682 20.8685 9.8022C20.231 9.3098 19.4168 9.0611 18.4102 9.0611ZM8.395 5.9498H6.57599L2.147 17.8458H3.97099L4.8495 15.21H10.13L11.008 17.8458H12.847L8.395 5.9498ZM20.1258 13.5137V15.7342L20.0677 15.8371C19.8989 16.1364 19.6306 16.3974 19.2699 16.625C18.8926 16.8631 18.4446 16.9801 17.9355 16.9801C17.4417 16.9801 17.0283 16.8403 16.7188 16.5514C16.4066 16.26 16.2463 15.8796 16.2463 15.4402C16.2463 14.8975 16.4549 14.4271 16.8583 14.058C17.1812 13.7624 17.6262 13.5928 18.1921 13.5354L18.4099 13.5191L18.6387 13.5137H20.1258ZM19.225 14.4128L18.6495 14.4135L18.4432 14.4184C17.9761 14.4417 17.6547 14.5492 17.4659 14.7219C17.2482 14.9211 17.1463 15.1509 17.1463 15.4402C17.1463 15.6337 17.2057 15.7748 17.3329 15.8935C17.4629 16.0148 17.656 16.0801 17.9355 16.0801C18.2819 16.0801 18.5635 16.0066 18.7896 15.8639C18.9353 15.7719 19.0521 15.6783 19.1414 15.584L19.225 15.4828V14.4128ZM5.26069 13.9742L7.49529 7.2947L9.7177 13.9742H5.26069ZM7.49199 10.1368L6.50999 13.0738H8.46899L7.49199 10.1368Z" fill="white"/>
</svg>
