<svg width="24" height="24" viewBox="0 0 24 24" fill="none" xmlns="http://www.w3.org/2000/svg">
<path d="M5.32617 16.7469C6.01517 16.7469 6.57617 17.3099 6.57617 17.9999C6.57617 18.6919 6.01517 19.2539 5.32617 19.2539C4.63717 19.2539 4.07617 18.6919 4.07617 17.9999C4.07617 17.3099 4.63717 16.7469 5.32617 16.7469ZM19.1734 17.4444C19.5874 17.4444 19.9234 17.7794 19.9234 18.1944C19.9234 18.6084 19.5874 18.9444 19.1734 18.9444H9.67337C9.25837 18.9444 8.92337 18.6084 8.92337 18.1944C8.92337 17.7794 9.25837 17.4444 9.67337 17.4444H19.1734ZM5.32617 10.7471C6.01517 10.7471 6.57617 11.3091 6.57617 12.0001C6.57617 12.6911 6.01517 13.2541 5.32617 13.2541C4.63717 13.2541 4.07617 12.6911 4.07617 12.0001C4.07617 11.3091 4.63717 10.7471 5.32617 10.7471ZM19.1734 11.251C19.5874 11.251 19.9234 11.586 19.9234 12.001C19.9234 12.415 19.5874 12.751 19.1734 12.751H9.67337C9.25837 12.751 8.92337 12.415 8.92337 12.001C8.92337 11.586 9.25837 11.251 9.67337 11.251H19.1734ZM5.32617 4.74707C6.01517 4.74707 6.57617 5.30907 6.57617 6.00007C6.57617 6.69107 6.01517 7.25407 5.32617 7.25407C4.63717 7.25407 4.07617 6.69107 4.07617 6.00007C4.07617 5.30907 4.63717 4.74707 5.32617 4.74707ZM19.1734 5.05667C19.5874 5.05667 19.9234 5.39267 19.9234 5.80667C19.9234 6.22067 19.5874 6.55667 19.1734 6.55667H9.67337C9.25837 6.55667 8.92337 6.22067 8.92337 5.80667C8.92337 5.39267 9.25837 5.05667 9.67337 5.05667H19.1734Z" fill="white"/>
</svg>
