<svg width="24" height="24" viewBox="0 0 24 24" fill="none" xmlns="http://www.w3.org/2000/svg">
<path d="M12.5438 7.85266L15.6558 4.73966C16.1288 4.26666 16.9508 4.26666 17.4238 4.73966L18.8388 6.15366C19.3248 6.64066 19.3248 7.43466 18.8388 7.92166L15.7258 11.0347L12.5438 7.85266ZM9.00677 17.7527C8.77277 17.9867 8.45177 18.1197 8.12277 18.1197H8.11177L5.72777 18.0987C5.59177 18.0977 5.48077 17.9867 5.47977 17.8507L5.45867 15.4647C5.45577 15.1317 5.58877 14.8067 5.82477 14.5717L11.4828 8.91366L14.6648 12.0947L9.00677 17.7527ZM19.8988 8.98266C20.9708 7.91066 20.9708 6.16566 19.8988 5.09266L18.4838 3.67866C17.4478 2.64066 15.6358 2.63866 14.5958 3.67866L10.4228 7.85266L4.76577 13.5097C4.24577 14.0277 3.95177 14.7457 3.95877 15.4787L3.97977 17.8647C3.98077 18.0637 4.02277 18.2517 4.08777 18.4297L3.48977 19.0277C3.19677 19.3207 3.19677 19.7947 3.48977 20.0877C3.63677 20.2347 3.82777 20.3077 4.02077 20.3077C4.21277 20.3077 4.40377 20.2347 4.55077 20.0877L5.14777 19.4907C5.32577 19.5547 5.51477 19.5967 5.71377 19.5987L8.09877 19.6197H8.12277C8.84677 19.6197 9.55477 19.3267 10.0668 18.8137L15.7258 13.1557L19.8988 8.98266Z" fill="white"/>
<path fill-rule="evenodd" clip-rule="evenodd" d="M19.6827 15.2256H16.8757C16.0097 15.2256 15.3057 15.9296 15.3057 16.7956C15.3057 17.2096 15.6767 17.5106 16.0907 17.5106C16.5047 17.5106 16.8757 17.1396 16.8757 16.7256H17.5297V19.6446H17.3137C16.8997 19.6446 16.5637 19.9806 16.5637 20.3946C16.5637 20.8086 16.8997 21.1446 17.3137 21.1446H19.2457C19.6597 21.1446 19.9947 20.8086 19.9947 20.3946C19.9947 19.9806 19.6597 19.6446 19.2457 19.6446H19.0297V16.7256H19.6827C19.7217 16.7256 19.7527 16.7566 19.7527 16.7956C19.7527 17.2096 20.0887 17.5456 20.5027 17.5456C20.9167 17.5456 21.2527 17.2096 21.2527 16.7956C21.2527 15.9296 20.5487 15.2256 19.6827 15.2256Z" fill="white"/>
</svg>
