<svg width="24" height="24" viewBox="0 0 24 24" fill="none" xmlns="http://www.w3.org/2000/svg">
<path d="M15.25 5.83105C15.664 5.83105 16 5.49505 16 5.08105C16 4.66705 15.664 4.33105 15.25 4.33105H11.25C10.836 4.33105 10.5 4.66705 10.5 5.08105C10.5 5.49505 10.836 5.83105 11.25 5.83105H12.396L10.067 18.1691H8.75C8.336 18.1691 8 18.5051 8 18.9191C8 19.3331 8.336 19.6691 8.75 19.6691H12.75C13.164 19.6691 13.5 19.3331 13.5 18.9191C13.5 18.5051 13.164 18.1691 12.75 18.1691H11.594L13.922 5.83105H15.25Z" fill="white"/>
</svg>
