<svg width="24" height="24" viewBox="0 0 24 24" fill="none" xmlns="http://www.w3.org/2000/svg">
<path d="M5 20.669V19.169H18.9998L18.999 19.9041L19 19.919C19 19.9241 19 19.9292 18.9998 19.9342V20.669H5ZM8.625 5.33105C9.039 5.33105 9.375 5.66705 9.375 6.08105C9.375 6.49505 9.039 6.83105 8.625 6.83105H8.25V12.2762C8.25 14.3451 9.932 16.0262 12 16.0262C14.067 16.0262 15.75 14.3451 15.75 12.2762V6.83105H15.375C14.96 6.83105 14.625 6.49505 14.625 6.08105C14.625 5.66705 14.96 5.33105 15.375 5.33105H17.625C18.039 5.33105 18.375 5.66705 18.375 6.08105C18.375 6.49505 18.039 6.83105 17.625 6.83105H17.25V12.2762C17.25 15.1712 14.895 17.5262 12 17.5262C9.105 17.5262 6.75 15.1712 6.75 12.2762V6.83105H6.375C5.96 6.83105 5.625 6.49505 5.625 6.08105C5.625 5.66705 5.96 5.33105 6.375 5.33105H8.625Z" fill="white"/>
</svg>
