<svg width="24" height="24" viewBox="0 0 24 24" fill="none" xmlns="http://www.w3.org/2000/svg">
<path d="M16.7838 18.8913C17.1978 18.8913 17.5338 19.2273 17.5338 19.6413C17.5338 20.0553 17.1978 20.3913 16.7838 20.3913H8.6138C8.1988 20.3913 7.8638 20.0553 7.8638 19.6413C7.8638 19.2273 8.1988 18.8913 8.6138 18.8913H16.7838ZM13.8338 14.9206C14.2488 14.9206 14.5838 15.2566 14.5838 15.6706C14.5838 16.0846 14.2488 16.4206 13.8338 16.4206H8.6138C8.1988 16.4206 7.8638 16.0846 7.8638 15.6706C7.8638 15.2566 8.1988 14.9206 8.6138 14.9206H13.8338ZM11.3016 3.82913C11.5946 3.53613 12.0686 3.53613 12.3616 3.82913L13.9956 5.46313C14.3846 5.85113 14.3846 6.48312 13.9966 6.87212L12.3666 8.50912C12.2206 8.65712 12.0266 8.73013 11.8346 8.73013C11.6426 8.73013 11.4516 8.65813 11.3056 8.51113C11.0126 8.21913 11.0116 7.74512 11.3036 7.45112L11.8366 6.91613H10.6486C7.6926 6.91613 5.2876 9.32113 5.2876 12.2771V12.7291C5.2876 13.1431 4.9516 13.4791 4.5376 13.4791C4.1236 13.4791 3.7876 13.1431 3.7876 12.7291V12.2771C3.7876 8.49413 6.8656 5.41613 10.6486 5.41613H11.8276L11.3016 4.88913C11.0086 4.59613 11.0086 4.12213 11.3016 3.82913ZM19.4624 10.9499C19.8764 10.9499 20.2124 11.2859 20.2124 11.6999C20.2124 12.1149 19.8764 12.4499 19.4624 12.4499H8.6134C8.1984 12.4499 7.8634 12.1149 7.8634 11.6999C7.8634 11.2859 8.1984 10.9499 8.6134 10.9499H19.4624Z" fill="white"/>
</svg>
