<svg width="24" height="24" viewBox="0 0 24 24" fill="none" xmlns="http://www.w3.org/2000/svg">
<path d="M14.323 10.118C14.91 10.667 15.684 11 16.531 11C18.368 11 19.857 9.433 19.857 7.5V6.462M18.725 4.869C18.139 4.328 17.371 4 16.531 4C14.694 4 13.204 5.567 13.204 7.5V8.255" stroke="white" stroke-width="1.2" stroke-linecap="round" stroke-linejoin="round"/>
<path d="M14.383 7.63281L13.207 8.86981L12.031 7.63281" stroke="white" stroke-width="1.2" stroke-linecap="round" stroke-linejoin="round"/>
<path d="M21.031 7.36786L19.855 6.13086L18.679 7.36786" stroke="white" stroke-width="1.2" stroke-linecap="round" stroke-linejoin="round"/>
<path d="M18.967 13.5261C18.82 15.5891 18.196 16.9291 17.243 17.7921C15.867 19.0381 13.805 19.2911 11.5 19.2911C10.797 19.2911 10.117 19.2671 9.472 19.1991C8.551 20.0731 7.606 20.6011 6.638 20.7821C6.332 20.8401 6.178 20.7591 6.354 20.5211L6.474 20.3521C6.621 20.1301 6.786 19.8211 6.854 19.4171C6.915 19.0591 6.886 18.7461 6.768 18.4791C6.399 18.2941 6.061 18.0671 5.757 17.7921C4.661 16.7991 4 15.1751 4 12.5451C4 9.91613 4.661 8.29213 5.757 7.29913C7.075 6.10513 8.711 6.02213 9.29 5.91113" stroke="white" stroke-width="1.5" stroke-linecap="round" stroke-linejoin="round"/>
</svg>
