<svg width="24" height="24" viewBox="0 0 24 24" fill="none" xmlns="http://www.w3.org/2000/svg">
<path d="M7.58024 10.7589C7.87324 10.4669 8.34824 10.4669 8.64124 10.7609L11.2362 13.3639L15.3602 9.22894C15.6532 8.93494 16.1272 8.93394 16.4212 9.22694C16.7142 9.51894 16.7152 9.99394 16.4222 10.2869L12.0822 14.6409C11.8562 14.8669 11.5562 14.9909 11.2362 14.9909C10.9162 14.9909 10.6162 14.8669 10.3902 14.6409L7.57824 11.8209C7.28624 11.5269 7.28724 11.0519 7.58024 10.7589Z" fill="white"/>
<path d="M5.5 15.75V8.5C5.5 6.846 6.846 5.5 8.5 5.5H15.75C17.404 5.5 18.75 6.846 18.75 8.5V15.75C18.75 17.404 17.404 18.75 15.75 18.75H8.5C6.846 18.75 5.5 17.404 5.5 15.75ZM20.25 15.75V8.5C20.25 6.02 18.231 4 15.75 4H8.5C6.019 4 4 6.02 4 8.5V15.75C4 18.231 6.019 20.25 8.5 20.25H15.75C18.231 20.25 20.25 18.231 20.25 15.75Z" fill="white"/>
</svg>
