<svg width="24" height="24" viewBox="0 0 24 24" fill="none" xmlns="http://www.w3.org/2000/svg">
<path d="M15.3838 6.2218C15.8508 6.2218 16.2308 6.5875 16.2308 7.038C16.2308 7.3752 16.5151 7.6489 16.8654 7.6489C17.2165 7.6489 17.5 7.3752 17.5 7.038C17.5 5.9139 16.5506 5 15.3838 5H8.6171C7.4502 5 6.5 5.9139 6.5 7.038C6.5 7.3752 6.7843 7.6489 7.1346 7.6489C7.4858 7.6489 7.7692 7.3752 7.7692 7.038C7.7692 6.5875 8.15 6.2218 8.6171 6.2218H11.3654V13.7782H10.2544C9.9041 13.7782 9.6198 14.0511 9.6198 14.3891C9.6198 14.7263 9.9041 15 10.2544 15H12H13.7456C14.0968 15 14.3802 14.7263 14.3802 14.3891C14.3802 14.0511 14.0968 13.7782 13.7456 13.7782H12.6346V6.2218H15.3838Z" fill="white" stroke="white" stroke-width="0.1" stroke-linecap="round" stroke-linejoin="round"/>
</svg>
