<svg width="24" height="24" viewBox="0 0 24 24" fill="none" xmlns="http://www.w3.org/2000/svg">
<path d="M4.2949 18.2969L5.1738 15.6602H9.8057L10.6846 18.2969H13.4971L8.707 5.5H6.2637L1.5 18.2969H4.2949ZM9.0938 13.5244H5.8857L7.4941 8.7168L9.0938 13.5244ZM17.3818 18.4727C18.3662 18.4727 19.166 18.1299 19.7813 17.4443C19.8457 17.79 19.9307 18.0742 20.0361 18.2969H22.6025V18.1475C22.3623 17.6846 22.2363 17.0313 22.2246 16.1875V11.9512C22.2246 10.8379 21.8643 10.0029 21.1436 9.4463C20.4229 8.8896 19.5117 8.6113 18.4102 8.6113C17.1797 8.6113 16.1982 8.9087 15.4658 9.5034C14.7334 10.0981 14.3672 10.8086 14.3672 11.6348H16.9072C16.9072 10.873 17.3613 10.4922 18.2695 10.4922C18.7559 10.4922 19.1118 10.6226 19.3374 10.8833C19.563 11.144 19.6758 11.4941 19.6758 11.9336V12.4873H18.542C17.0947 12.4873 16.002 12.7612 15.2637 13.3091C14.5254 13.8569 14.1563 14.6289 14.1563 15.625C14.1563 16.4512 14.4668 17.1323 15.0879 17.6685C15.709 18.2046 16.4736 18.4727 17.3818 18.4727ZM17.9355 16.5303C17.5488 16.5303 17.2456 16.4277 17.0259 16.2227C16.8062 16.0176 16.6963 15.7568 16.6963 15.4404C16.6963 15.0244 16.8516 14.6743 17.1621 14.3901C17.4727 14.106 17.9648 13.9639 18.6387 13.9639H19.6758V15.6162C19.5469 15.8447 19.3315 16.0542 19.0298 16.2446C18.728 16.4351 18.3633 16.5303 17.9355 16.5303Z" fill="white"/>
</svg>
