<svg width="24" height="24" viewBox="0 0 24 24" fill="none" xmlns="http://www.w3.org/2000/svg">
<path d="M18.875 17.9434C19.29 17.9434 19.625 18.2785 19.625 18.6934C19.625 19.1074 19.29 19.4434 18.875 19.4434H5.125C4.711 19.4434 4.375 19.1074 4.375 18.6934C4.375 18.2785 4.711 17.9434 5.125 17.9434H18.875ZM5.189 9.01026C5.46 8.69536 5.933 8.66026 6.247 8.93126L8.895 11.2153C9.125 11.4144 9.257 11.7004 9.257 12.0003C9.257 12.3003 9.125 12.5864 8.894 12.7843L6.247 15.0673C6.105 15.1893 5.931 15.2494 5.757 15.2494C5.547 15.2494 5.337 15.1613 5.189 14.9893C4.918 14.6764 4.954 14.2024 5.267 13.9314L7.507 11.9994L5.267 10.0673C4.954 9.79736 4.918 9.32326 5.189 9.01026ZM18.875 13.4806C19.29 13.4806 19.625 13.8165 19.625 14.2306C19.625 14.6445 19.29 14.9806 18.875 14.9806H12.125C11.711 14.9806 11.375 14.6445 11.375 14.2306C11.375 13.8165 11.711 13.4806 12.125 13.4806H18.875ZM18.875 9.01866C19.29 9.01866 19.625 9.35356 19.625 9.76866C19.625 10.1827 19.29 10.5187 18.875 10.5187H12.125C11.711 10.5187 11.375 10.1827 11.375 9.76866C11.375 9.35356 11.711 9.01866 12.125 9.01866H18.875ZM18.875 4.55566C19.29 4.55566 19.625 4.89166 19.625 5.30566C19.625 5.71966 19.29 6.05566 18.875 6.05566H5.125C4.711 6.05566 4.375 5.71966 4.375 5.30566C4.375 4.89166 4.711 4.55566 5.125 4.55566H18.875Z" fill="white"/>
</svg>
