<svg width="24" height="24" viewBox="0 0 24 24" fill="none" xmlns="http://www.w3.org/2000/svg">
<path d="M3.31865 18.2969L4.74245 14.4736H11.0178L12.4416 18.2969H12.9602L8.17015 5.5H7.59005L2.80005 18.2969H3.31865ZM10.842 13.999H4.91825L7.88015 6.0713L10.842 13.999ZM16.9943 18.4727C17.9377 18.4727 18.7185 18.2822 19.3366 17.9014C19.9548 17.5205 20.4222 17.0723 20.7386 16.5566C20.7386 17.2598 20.7972 17.8398 20.9144 18.2969H21.4592V18.2178C21.2951 17.8018 21.2132 17.1191 21.2132 16.1699V11.6172C21.2132 10.6152 20.8981 9.8638 20.2683 9.3628C19.6384 8.8618 18.8283 8.6113 17.8381 8.6113C16.8127 8.6113 15.9704 8.8882 15.3112 9.4419C14.6521 9.9956 14.3225 10.6445 14.3225 11.3887L14.7971 11.4063C14.7971 10.7441 15.0886 10.1919 15.6716 9.7495C16.2546 9.3071 16.9768 9.0859 17.8381 9.0859C18.7639 9.0859 19.4787 9.3071 19.9826 9.7495C20.4865 10.1919 20.7386 10.8086 20.7386 11.5996V12.9883H18.4621C17.0852 12.9883 16.0085 13.2593 15.2321 13.8013C14.4558 14.3433 14.0676 15.0391 14.0676 15.8887C14.0676 16.6445 14.3342 17.2642 14.8674 17.7476C15.4006 18.231 16.1096 18.4727 16.9943 18.4727ZM16.9943 18.0068C16.2736 18.0068 15.6848 17.8032 15.2277 17.396C14.7707 16.9888 14.5422 16.498 14.5422 15.9238C14.5422 15.209 14.8894 14.623 15.5837 14.166C16.278 13.709 17.2316 13.4775 18.4445 13.4717H20.7386V15.7305C20.4222 16.4277 19.9489 16.9814 19.319 17.3916C18.6892 17.8018 17.9143 18.0068 16.9943 18.0068Z" fill="white"/>
</svg>
