<svg width="24" height="24" viewBox="0 0 24 24" fill="none" xmlns="http://www.w3.org/2000/svg">
<path d="M12.0088 5L11.9844 9.23633C11.9442 9.30063 11.9045 9.36614 11.8672 9.43359C11.5052 10.0766 11.3243 10.8308 11.3242 11.6963C11.3242 12.562 11.499 13.3293 11.8486 13.9971C11.882 14.0574 11.9176 14.1159 11.9531 14.1738C11.938 14.5708 11.8579 14.9117 11.709 15.1963C11.5559 15.513 11.3256 15.7543 11.0195 15.9189C10.8207 16.0305 10.5982 16.1027 10.3525 16.1387C9.88953 15.6043 9.51328 15.0087 9.22656 14.3496C9.08717 14.0121 8.97824 13.6633 8.89648 13.3047V15.9189C8.57764 15.7416 8.30379 15.4876 8.07422 15.1582L6.31348 16.8311C6.72156 17.3631 7.23165 17.7878 7.84375 18.1045C8.13747 18.2474 8.45308 18.3549 8.78906 18.4307H6.2793V7.31152H2V5H12.0088ZM22 11.3809C22 12.9389 21.719 14.2438 21.1572 15.2949C20.5954 16.3337 19.8214 17.1196 18.835 17.6514C17.8611 18.1707 16.7373 18.4296 15.4639 18.4297C14.5274 18.4297 13.6464 18.2636 12.8223 17.9297C12.7625 17.9042 12.7043 17.8756 12.6455 17.8486C13.2233 17.47 13.6763 16.9727 14.0039 16.3555C14.0793 16.2157 14.1446 16.0705 14.2051 15.9219C14.5919 16.0343 15.0045 16.0927 15.4443 16.0928C16.2684 16.0928 16.9747 15.9443 17.5615 15.6475C18.148 15.3384 18.5971 14.8933 18.9092 14.3125C19.075 13.9972 19.1947 13.6444 19.2725 13.2559L15.2949 13.2178V11.0283H22V11.3809ZM8.89648 10.1445C8.98187 9.77684 9.09681 9.42204 9.24512 9.08105C9.52726 8.42239 9.9003 7.83328 10.3613 7.31152H8.89648V10.1445ZM15.6133 5C16.6996 5 17.6988 5.20421 18.6104 5.6123C19.5216 6.00796 20.2768 6.57045 20.876 7.2998L19.1533 9.00684C18.7413 8.47507 18.2291 8.06665 17.6172 7.78223C17.0054 7.49789 16.3312 7.35549 15.5947 7.35547C15.2313 7.35547 14.8857 7.39287 14.5576 7.46289L14.5498 5.07227C14.8947 5.02388 15.2492 5 15.6133 5Z" fill="white"/>
</svg>
