<svg width="24" height="24" viewBox="0 0 24 24" fill="none" xmlns="http://www.w3.org/2000/svg">
<path d="M5.03519 8.73646H18.9988M17.4849 2.85896C18.3648 2.96596 19.0264 3.71176 19.0264 4.59816V12.108C19.0264 12.575 18.3383 12.8838 17.9326 13.0125C17.9209 13.0151 17.9125 13.018 17.9008 13.0209C17.8891 13.0241 17.8775 13.0297 17.8658 13.0297C17.8541 13.0326 17.848 13.0326 17.8451 13.0326C17.2005 13.1755 16.5504 13.3184 15.9609 13.4993C15.9143 13.5109 15.8676 13.5229 15.8241 13.5401C15.7597 13.5605 15.6955 13.578 15.6343 13.6013C14.7009 13.9225 13.9662 14.3568 13.7414 15.0597C13.4675 15.9055 13.5871 16.3109 13.7679 16.9237C13.8087 17.0579 13.8554 17.2122 13.9021 17.3901L13.9076 17.4076C13.9633 17.5913 14.2666 18.6968 14.2666 19.1751C14.2666 20.1113 13.4234 20.8726 12.54 21.1004C12.3591 21.1497 12.1754 21.1759 11.9975 21.1759C11.8163 21.1759 11.6329 21.1497 11.4491 21.1004C10.5651 20.8697 9.72799 20.1087 9.72799 19.1751C9.72799 18.6968 10.0287 17.5913 10.0838 17.4076L10.0955 17.3726C10.1366 17.2154 10.1801 17.0663 10.2212 16.9322C10.405 16.3109 10.5246 15.9084 10.253 15.0597C10.008 14.3043 9.17969 13.858 8.14719 13.5314C8.09499 13.5139 8.04539 13.4993 7.99579 13.4876C7.41539 13.3126 6.77959 13.1726 6.15249 13.0326C6.14629 13.0326 6.12619 13.0268 6.09679 13.0209C6.08509 13.018 6.07339 13.0151 6.06179 13.0125C5.65369 12.8838 4.96509 12.575 4.96509 12.108V3.87136C5.78179 4.18926 6.95459 4.50456 8.40999 4.50456C9.68459 4.50126 10.9938 4.26246 12.2979 3.78386C14.0508 3.14506 15.5614 2.81836 16.7863 2.81836C17.0316 2.81836 17.265 2.83206 17.4849 2.85896Z" stroke="white" stroke-width="1.5" stroke-linecap="round" stroke-linejoin="round"/>
</svg>
