<svg width="24" height="24" viewBox="0 0 24 24" fill="none" xmlns="http://www.w3.org/2000/svg">
<path d="M8.54687 11.5089C8.122 11.5089 7.7778 11.1609 7.7778 10.7315C7.7778 10.3015 8.122 9.95353 8.54687 9.95353C8.97087 9.95353 9.31513 10.3015 9.31513 10.7315C9.31513 11.1609 8.97087 11.5089 8.54687 11.5089ZM8.54687 14.7133C8.122 14.7133 7.7778 14.3653 7.7778 13.9355C7.7778 13.5058 8.122 13.1578 8.54687 13.1578C8.97087 13.1578 9.31513 13.5058 9.31513 13.9355C9.31513 14.3653 8.97087 14.7133 8.54687 14.7133ZM19.3333 9.7778V8.33333C19.3333 7.6 18.7335 7 18 7H9.10887C9.2358 7.13867 9.31513 7.32287 9.31513 7.52733C9.31513 7.95667 8.97087 8.30467 8.54687 8.30467C8.122 8.30467 7.7778 7.95667 7.7778 7.52733C7.7778 7.32287 7.85713 7.13867 7.98447 7H5.33333C4.6002 7 4 7.5998 4 8.33333V16.3335C4 17.0667 4.6002 17.6669 5.33333 17.6669H7.98447C7.85733 17.528 7.7778 17.344 7.7778 17.14C7.7778 16.7102 8.122 16.3622 8.54687 16.3622C8.97087 16.3622 9.31513 16.7102 9.31513 17.14C9.31513 17.344 9.236 17.528 9.10887 17.6669H18C18.7335 17.6669 19.3333 17.0667 19.3333 16.3335V14.8891C17.938 14.8891 16.8078 13.7447 16.8078 12.3335C16.8078 10.9215 17.938 9.7778 19.3333 9.7778Z" fill="white"/>
</svg>
