<svg width="24" height="24" viewBox="0 0 24 24" fill="none" xmlns="http://www.w3.org/2000/svg">
<path fill-rule="evenodd" clip-rule="evenodd" d="M14.582 18.0062V18.647C14.582 19.6587 13.9178 19.6992 13.5002 19.8306C13.2752 20.4416 12.6902 20.8772 12.0008 20.8772C11.3114 20.8772 10.7264 20.4408 10.5014 19.8306C10.0829 19.6992 9.41869 19.6596 9.41869 18.647L9.41959 18.0062H14.582ZM11.9999 3.12305C15.3965 3.12305 18.1514 5.87795 18.1514 9.27455C18.1514 11.7486 16.6889 13.8807 14.5811 14.8581V16.4952H9.41869V14.8581C7.31179 13.8816 5.84839 11.7494 5.84839 9.27455C5.84839 5.87795 8.60329 3.12305 11.9999 3.12305Z" fill="white"/>
</svg>
