<svg width="24" height="24" viewBox="0 0 24 24" fill="none" xmlns="http://www.w3.org/2000/svg">
<path d="M15.3334 17.2949V18.1219C15.3334 19.4269 14.4774 19.4799 13.9374 19.6489C13.6464 20.4379 12.8924 20.9999 12.0024 20.9999C11.1134 20.9999 10.3574 20.4369 10.0674 19.6489C9.52741 19.4799 8.67041 19.4289 8.67041 18.1219H8.67141V17.2949H15.3334Z" fill="white"/>
<path fill-rule="evenodd" clip-rule="evenodd" d="M12.0021 4C15.3981 4 18.1531 6.755 18.1531 10.151C18.1531 12.626 16.6911 14.757 14.5831 15.735V18.622H9.4201V15.735C7.3141 14.758 5.8501 12.627 5.8501 10.151C5.8501 6.755 8.6061 4 12.0021 4Z" stroke="white" stroke-width="1.5" stroke-linecap="round" stroke-linejoin="round"/>
</svg>
