<svg width="24" height="24" viewBox="0 0 24 24" fill="none" xmlns="http://www.w3.org/2000/svg">
<path d="M14.9272 8.832V5.75C14.9272 4.645 14.0312 3.75 12.9272 3.75H6.25024C4.86924 3.75 3.75024 4.869 3.75024 6.25V12.928C3.75024 14.032 4.64524 14.928 5.75024 14.928H6.26924" stroke="white" stroke-width="1.5" stroke-linecap="round" stroke-linejoin="round"/>
<path d="M9.07275 8.2998V17.7498C9.07275 19.1308 10.1918 20.2498 11.5728 20.2498H17.7498C19.1308 20.2498 20.2498 19.1308 20.2498 17.7498V12.1048C20.2498 10.9998 19.3548 10.1048 18.2498 10.1048H17.8228" stroke="white" stroke-width="1.5" stroke-linecap="round" stroke-linejoin="round"/>
<path d="M6.75244 9.72555L8.71944 7.75855C8.91444 7.56355 9.23144 7.56355 9.42644 7.75855L11.3934 9.72555" stroke="white" stroke-width="1.5" stroke-linecap="round" stroke-linejoin="round"/>
<path d="M17.2474 6.58594L15.2804 8.55294C15.0854 8.74694 14.7684 8.74694 14.5734 8.55294L12.6064 6.58594" stroke="white" stroke-width="1.5" stroke-linecap="round" stroke-linejoin="round"/>
<path d="M12.1162 17.3684L14.5002 12.1894C14.5892 11.9954 14.8652 11.9954 14.9542 12.1894L17.3402 17.3684" stroke="white" stroke-width="1.5" stroke-linecap="round" stroke-linejoin="round"/>
<path d="M13.3535 15.2402H16.1035" stroke="white" stroke-width="1.5" stroke-linecap="round" stroke-linejoin="round"/>
</svg>
