<svg width="24" height="24" viewBox="0 0 24 24" fill="none" xmlns="http://www.w3.org/2000/svg">
<path d="M18.8022 10.8642V7.53324C18.8022 6.15226 17.6823 5.0332 16.3023 5.0332H10.8743" stroke="white" stroke-width="1.63636" stroke-linecap="round" stroke-linejoin="round"/>
<path d="M21.1226 9.11816L19.1556 11.0852C18.9607 11.2801 18.6436 11.2801 18.4486 11.0852L16.4816 9.11816" stroke="white" stroke-width="1.63636" stroke-linecap="round" stroke-linejoin="round"/>
<path d="M5.07043 13.3057V17.3876C5.07043 18.7686 6.18938 19.8877 7.57036 19.8877H12.9974" stroke="white" stroke-width="1.63636" stroke-linecap="round" stroke-linejoin="round"/>
<path d="M2.75 15.0528L4.71702 13.0857C4.91207 12.8907 5.22898 12.8907 5.42404 13.0857L7.39105 15.0528" stroke="white" stroke-width="1.63636" stroke-linecap="round" stroke-linejoin="round"/>
<path d="M3.22217 10.3648L5.96013 4.41782C6.06311 4.19473 6.37915 4.19375 6.48213 4.41673L9.22217 10.3648" stroke="white" stroke-width="1.63636" stroke-linecap="round" stroke-linejoin="round"/>
<path d="M4.64307 7.91895H7.80201" stroke="white" stroke-width="1.63636" stroke-linecap="round" stroke-linejoin="round"/>
<path fill-rule="evenodd" clip-rule="evenodd" d="M21.0429 17.1885C21.0429 15.6004 19.756 14.3135 18.1679 14.3135C16.5799 14.3135 15.293 15.6004 15.293 17.1885C15.293 18.7765 16.5799 20.0634 18.1679 20.0634C19.756 20.0634 21.0429 18.7765 21.0429 17.1885Z" stroke="white" stroke-width="1.63636" stroke-linecap="round" stroke-linejoin="round"/>
</svg>
