<svg width="24" height="24" viewBox="0 0 24 24" fill="none" xmlns="http://www.w3.org/2000/svg">
<path d="M17.2317 5.99118C17.6114 5.99118 17.9252 6.27338 17.9749 6.63938L17.9817 6.74118L17.9809 9.24098L20.4817 9.24118C20.8959 9.24118 21.2317 9.57698 21.2317 9.99118C21.2317 10.3709 20.9495 10.6847 20.5835 10.7344L20.4817 10.7412L17.9809 10.741L17.9817 15.7412C17.9817 17.4745 16.6255 18.8905 14.9162 18.9861L14.7317 18.9912L9.73088 18.991L9.73168 21.4912C9.73168 21.9054 9.39588 22.2412 8.98168 22.2412C8.60198 22.2412 8.28818 21.959 8.23848 21.593L8.23168 21.4912L8.23088 18.991L5.73168 18.9912C5.31748 18.9912 4.98168 18.6554 4.98168 18.2412C4.98168 17.8615 5.26388 17.5477 5.62988 17.498L5.73168 17.4912L8.23088 17.491L8.23168 12.4912C8.23168 10.7579 9.58788 9.34188 11.2972 9.24628L11.4817 9.24118L16.4809 9.24098L16.4817 6.74118C16.4817 6.32698 16.8175 5.99118 17.2317 5.99118ZM16.4809 10.741L11.4817 10.7412C10.5633 10.7412 9.81048 11.4481 9.73748 12.3476L9.73168 12.4912L9.73088 17.491L14.7317 17.4912C15.6501 17.4912 16.4029 16.7843 16.4759 15.8848L16.4817 15.7412L16.4809 10.741ZM11.9893 2.64688L12.0735 2.71948L13.7114 4.35648C14.0656 4.71438 14.0929 5.27488 13.7917 5.66858L13.7096 5.76338L12.0786 7.40038C11.7862 7.69378 11.3114 7.69468 11.0179 7.40228C10.7512 7.13648 10.7262 6.71988 10.9435 6.42588L11.016 6.34158L11.5489 5.80598L10.3609 5.80658C7.47408 5.80658 5.12028 8.08828 5.00438 10.9466L4.99988 11.1676V11.6196C4.99988 12.0338 4.66408 12.3696 4.24988 12.3696C3.87018 12.3696 3.55638 12.0874 3.50668 11.7214L3.49988 11.6196V11.1676C3.49988 7.45728 6.44498 4.43488 10.125 4.31058L10.3609 4.30658L11.5389 4.30598L11.0131 3.78048C10.7468 3.51428 10.7225 3.09768 10.9402 2.80398L11.0128 2.71978C11.279 2.45348 11.6956 2.42918 11.9893 2.64688Z" fill="white"/>
</svg>
