<svg width="24" height="24" viewBox="0 0 24 24" fill="none" xmlns="http://www.w3.org/2000/svg">
<path fill-rule="evenodd" clip-rule="evenodd" d="M13.838 15.714V9.21397C13.838 8.79997 14.174 8.46397 14.588 8.46397C15.003 8.46397 15.338 8.79997 15.338 9.21397V15.714C15.338 16.128 15.003 16.464 14.588 16.464C14.174 16.464 13.838 16.128 13.838 15.714ZM10.162 15.714C10.162 16.128 9.827 16.464 9.412 16.464C8.998 16.464 8.662 16.128 8.662 15.714V9.21397C8.662 8.79997 8.998 8.46397 9.412 8.46397C9.827 8.46397 10.162 8.79997 10.162 9.21397V15.714ZM10 4.54297C10 4.12897 10.337 3.79297 10.75 3.79297H13.25C13.664 3.79297 14 4.12897 14 4.54297L14.001 5.08397H10V4.54297ZM15.088 21.708C15.571 21.708 15.963 21.317 15.963 20.833V19.834H16C17.375 19.834 18.5 18.709 18.5 17.334V7.58397C18.5 6.20897 17.375 5.08397 16 5.08397H15.5V4.54297C15.5 3.30197 14.491 2.29297 13.25 2.29297H10.75C9.51 2.29297 8.5 3.30197 8.5 4.54297V5.08397H8C6.625 5.08397 5.5 6.20897 5.5 7.58397V17.334C5.5 18.709 6.625 19.834 8 19.834H8.037V20.833C8.037 21.317 8.43 21.708 8.912 21.708C9.396 21.708 9.787 21.317 9.787 20.833V19.834H14.213V20.833C14.213 21.317 14.606 21.708 15.088 21.708Z" fill="white"/>
</svg>
