<svg width="24" height="24" viewBox="0 0 24 24" fill="none" xmlns="http://www.w3.org/2000/svg">
<path fill-rule="evenodd" clip-rule="evenodd" d="M7.235 14.9828C8.26 14.9828 9.094 15.7998 9.094 16.8038C9.094 17.0998 9.02 17.3788 8.891 17.6278L8.819 17.7528C8.492 18.2748 7.905 18.6248 7.235 18.6248C6.21 18.6248 5.375 17.8078 5.375 16.8038C5.375 15.7998 6.21 14.9828 7.235 14.9828ZM14.905 16.8038C14.905 15.7998 15.74 14.9828 16.765 14.9828C17.791 14.9828 18.625 15.7998 18.625 16.8038C18.625 17.8078 17.791 18.6248 16.765 18.6248C16.091 18.6248 15.502 18.2718 15.176 17.7448L15.111 17.6318C14.981 17.3828 14.905 17.1018 14.905 16.8038ZM7.235 20.1248C8.415 20.1248 9.453 19.5188 10.052 18.6068C10.059 18.5958 12 15.2358 12 15.2358C12 15.2358 13.942 18.5968 13.949 18.6088C14.549 19.5198 15.586 20.1248 16.765 20.1248C18.618 20.1248 20.125 18.6348 20.125 16.8038C20.125 14.9728 18.618 13.4828 16.765 13.4828C15.458 13.4828 14.326 14.2258 13.771 15.3048L12.865 13.7328L17.896 4.9998C18.103 4.6408 17.98 4.1818 17.621 3.9748C17.262 3.7688 16.803 3.8918 16.596 4.2508L12 12.2308L7.403 4.2508C7.197 3.8918 6.738 3.7688 6.38 3.9748C6.02 4.1818 5.897 4.6408 6.104 4.9998L11.134 13.7328L10.229 15.3048C9.673 14.2258 8.542 13.4828 7.235 13.4828C5.382 13.4828 3.875 14.9728 3.875 16.8038C3.875 18.6348 5.382 20.1248 7.235 20.1248Z" fill="white"/>
</svg>
