<svg width="24" height="24" viewBox="0 0 24 24" fill="none" xmlns="http://www.w3.org/2000/svg">
<path fill-rule="evenodd" clip-rule="evenodd" d="M5.25002 4.27051H18.75C19.2804 4.27051 19.789 4.48119 20.164 4.85621C20.5391 5.23123 20.7497 5.73987 20.7497 6.27022V13.7702C20.7497 14.3006 20.5391 14.8092 20.164 15.1842C19.789 15.5593 19.2804 15.7699 18.75 15.7699H5.25002C4.71966 15.7699 4.21103 15.5593 3.83601 15.1842C3.46099 14.8092 3.25031 14.3006 3.25031 13.7702V6.27022C3.25031 5.73987 3.46099 5.23123 3.83601 4.85621C4.21103 4.48119 4.71966 4.27051 5.25002 4.27051Z" stroke="white" stroke-width="1.75" stroke-linecap="round" stroke-linejoin="round"/>
<path d="M5.4317 19.7323L11.2946 18.4414H12.6797L18.5691 19.7323" stroke="white" stroke-width="1.75" stroke-linecap="round" stroke-linejoin="round"/>
<path d="M12 17.9462V16.8559V15.7656" stroke="white" stroke-width="1.75" stroke-linecap="round" stroke-linejoin="round"/>
</svg>
