<svg width="24" height="24" viewBox="0 0 24 24" fill="none" xmlns="http://www.w3.org/2000/svg">
<path d="M5.2997 4.5H18.7003C19.2306 4.5 19.7393 4.71068 20.1143 5.0857C20.4893 5.46072 20.7 5.96936 20.7 6.49971V13.7751C20.7 14.3055 20.4893 14.8141 20.1143 15.1892C19.7393 15.5642 19.2306 15.7749 18.7003 15.7749H5.2997C4.76935 15.7749 4.26071 15.5642 3.88569 15.1892C3.51067 14.8141 3.29999 14.3055 3.29999 13.7751V6.49971C3.29999 5.96936 3.51067 5.46072 3.88569 5.0857C4.26071 4.71068 4.76935 4.5 5.2997 4.5Z" fill="white" stroke="white" stroke-width="1.75" stroke-linecap="round" stroke-linejoin="round"/>
<path fill-rule="evenodd" clip-rule="evenodd" d="M4.50002 3.7002H19.5C20.6049 3.7002 21.4997 4.59505 21.4997 5.69991V14.5002C21.4997 15.6042 20.6049 16.4999 19.5 16.4999H4.50002C3.39516 16.4999 2.50031 15.6042 2.50031 14.5002V5.69991C2.50031 4.59505 3.39516 3.7002 4.50002 3.7002Z" fill="white"/>
<path d="M12.1003 14.7754V18.3274" stroke="white" stroke-width="1.75" stroke-linecap="round" stroke-linejoin="round"/>
<path d="M6.10028 19.4681L12.1003 18.4678L18.1003 19.4681" stroke="white" stroke-width="1.75" stroke-linecap="round" stroke-linejoin="round"/>
</svg>
