<svg width="24" height="24" viewBox="0 0 24 24" fill="none" xmlns="http://www.w3.org/2000/svg">
<path fill-rule="evenodd" clip-rule="evenodd" d="M5.2 17.2L6.93333 15.6667C6.93333 15.6667 11.6667 15.5333 11.9333 15.6667C12.3333 15.8667 12.5333 16.7333 11.9333 17C11.6 17.1333 11.4 17.1333 11.4 17.1333L8.53333 17.6667L6.46666 19L5.2 17.2Z" fill="white"/>
<path fill-rule="evenodd" clip-rule="evenodd" d="M6.20001 19.533L4.53334 17.0664L6.73334 14.9997H6.93334C11.9333 14.8664 11.9333 14.9997 12.1333 14.9997C12.5333 15.1997 12.8667 15.5997 12.8667 16.133C12.8667 16.6664 12.5333 17.0664 12.1333 17.1997C11.8 17.333 11.5333 17.3997 11.4 17.3997L8.73334 17.933L6.20001 19.533ZM5.93334 17.1997L6.53334 17.9997L8.26667 16.8664L11.2667 16.2664H11.4C11.4 16.2664 11.5333 16.2664 11.7333 16.133C11.8667 16.133 11.8667 15.9997 11.8667 15.9997C11.8667 15.8664 11.8667 15.8664 11.7333 15.7997C11.2 15.7997 8.86667 15.7997 7.20001 15.7997L5.93334 17.1997Z" fill="white"/>
<path fill-rule="evenodd" clip-rule="evenodd" d="M3.46666 18.6004V22.4004L8.53333 20.6671L14.1333 21.7338L20.5333 17.4671C20.5333 17.4671 20.9333 16.0004 19.2667 16.5338C18.3333 16.8671 16.2667 17.8004 16.2667 17.8004L14 18.6004C14 18.6004 12.1333 18.9338 10.2667 17.2671C10.2667 17.2671 8.19999 16.5338 3.53333 16.7338V18.6004H3.46666Z" fill="white"/>
<path fill-rule="evenodd" clip-rule="evenodd" d="M3.46667 23.0002C3.33333 23.0002 3.26667 23.0002 3.13333 22.8669C3 22.7335 2.93333 22.6669 2.93333 22.4669V16.8002C2.93333 16.4669 3.13333 16.2669 3.46667 16.2669C8.2 16.0669 10.4 16.8002 10.4 16.8002C10.5333 16.8002 10.5333 16.8002 10.5333 16.9335C12.0667 18.2669 13.5333 18.2002 13.8667 18.2002L16.2667 17.2669C16.4667 17.1335 18.3333 16.3335 19.2667 16.0002C20 15.8002 20.5333 15.8669 20.8 16.2002C21.3333 16.7335 21.1333 17.4669 21.1333 17.5335C21.1333 17.6669 21 17.7335 20.9333 17.8669L14.5333 22.1335C14.4 22.2669 14.3333 22.2669 14.1333 22.2669L8.66667 21.2002L3.66667 22.8669C3.53333 23.0002 3.53333 23.0002 3.46667 23.0002ZM3.93333 17.2002V21.6669L8.26667 20.1335C8.4 20.1335 8.46667 20.1335 8.6 20.1335L14 21.0669L20 17.0002C20 16.8669 20 16.8002 20 16.8002C20 16.8002 19.8 16.6669 19.4 16.8002C18.4667 17.0002 16.5333 17.9335 16.5333 17.9335L14.2667 18.7335H14.1333C14 18.7335 12.0667 19.0669 10 17.4002C9.66667 17.6002 7.66667 17.0669 3.93333 17.2002Z" fill="white"/>
<path fill-rule="evenodd" clip-rule="evenodd" d="M15.1333 1.2L11.7333 6.26667C11.7333 6.4 11.6 6.4 11.6 6.46667C11.6 6.66667 11.7333 6.8 11.9333 6.8H18.8667C19.0667 6.8 19.2 6.6 19.2 6.46667C19.2 6.33333 19.2 6.33333 19.0667 6.26667L15.6667 1.2C15.5333 1.06667 15.4667 1 15.3333 1C15.3333 1 15.2667 1.13333 15.1333 1.2Z" fill="white"/>
<path fill-rule="evenodd" clip-rule="evenodd" d="M16.0667 6.2002H14.9333C14.7333 6.2002 14.6 6.33353 14.6 6.53353V11.2669C14.6 11.4669 14.7333 11.6002 14.9333 11.6002H16.0667C16.2667 11.6002 16.4 11.4669 16.4 11.2669V6.53353C16.4 6.33353 16.2667 6.2002 16.0667 6.2002Z" fill="white"/>
<path fill-rule="evenodd" clip-rule="evenodd" d="M8.93334 13.267L12.3333 8.20033C12.3333 8.06699 12.4667 8.06699 12.4667 8.00033C12.4667 7.80033 12.3333 7.66699 12.1333 7.66699H5.2C5 7.66699 4.86667 7.86699 4.86667 8.00033C4.86667 8.13366 4.86667 8.13366 5 8.20033L8.4 13.267C8.53334 13.4003 8.6 13.467 8.73334 13.467C8.73334 13.3337 8.8 13.3337 8.93334 13.267Z" fill="white"/>
<path fill-rule="evenodd" clip-rule="evenodd" d="M9.13334 2.86621H8.00001C7.80001 2.86621 7.66667 2.99954 7.66667 3.19954V7.93288C7.66667 8.13288 7.80001 8.26621 8.00001 8.26621H9.13334C9.33334 8.26621 9.46667 8.13288 9.46667 7.93288V3.19954C9.46667 2.99954 9.33334 2.86621 9.13334 2.86621Z" fill="white"/>
</svg>
