<svg width="24" height="24" viewBox="0 0 24 24" fill="none" xmlns="http://www.w3.org/2000/svg">
<path d="M3.1638 4.63283C3.4418 4.35583 3.8818 4.34393 4.1758 4.59283L19.6758 20.0929C19.9248 20.3879 19.9138 20.8268 19.6358 21.1048C19.4888 21.2508 19.2978 21.3238 19.1058 21.3238C18.9138 21.3238 18.7218 21.2508 18.5748 21.1048L8.3048 10.8339L6.1638 12.9758C4.9358 14.2028 4.9358 16.2018 6.1638 17.4308L6.3048 17.5719C6.8968 18.1628 7.6878 18.4889 8.5318 18.4889C9.3768 18.4889 10.1678 18.1628 10.7598 17.5719L12.2598 16.0719C12.5528 15.7789 13.0288 15.7789 13.3208 16.0719C13.6138 16.3639 13.6138 16.8389 13.3208 17.1318L11.8208 18.6318C10.9138 19.5388 9.7238 19.9919 8.5318 19.9919C7.3418 19.9919 6.1508 19.5388 5.2438 18.6318L5.1038 18.4908C3.2898 16.6778 3.2898 13.7278 5.1038 11.9148L7.2438 9.77393L3.1638 5.69393C2.8708 5.40083 2.8708 4.92583 3.1638 4.63283ZM12.952 4.06583C14.805 2.21373 17.817 2.21373 19.67 4.06583C20.563 4.95973 21.056 6.15283 21.056 7.42473C21.056 8.69683 20.563 9.88873 19.67 10.7838L17.24 13.2128C16.831 13.6218 16.361 13.9337 15.862 14.1588L14.687 12.9837C15.234 12.8528 15.754 12.5777 16.18 12.1527L18.608 9.72283C19.22 9.11183 19.556 8.29583 19.556 7.42473C19.556 6.55283 19.22 5.73783 18.609 5.12583C17.342 3.85983 15.28 3.85983 14.013 5.12583L12.583 6.55573C12.29 6.84883 11.815 6.84883 11.522 6.55573C11.229 6.26283 11.229 5.78773 11.522 5.49483L12.952 4.06583ZM9.8751 8.17083C11.3771 7.83583 13.0131 8.24773 14.1801 9.41473L14.3201 9.55583C14.6131 9.84873 14.6131 10.3238 14.3201 10.6168C14.0281 10.9097 13.5531 10.9097 13.2601 10.6168L13.1191 10.4757C12.6051 9.96083 11.9561 9.66583 11.2861 9.58183L9.8751 8.17083Z" fill="white"/>
</svg>
