<svg width="24" height="24" viewBox="0 0 24 24" fill="none" xmlns="http://www.w3.org/2000/svg">
<path d="M20.0463 17.9218C20.0043 12.2638 15.4033 7.65975 9.7913 7.65975H6.3023L8.6823 5.27975C8.9753 4.98675 8.9753 4.51275 8.6823 4.21975C8.3893 3.92675 7.9143 3.92675 7.6213 4.21975L4.3173 7.52375C3.8313 8.00975 3.8313 8.80175 4.3163 9.28875L7.6123 12.5988C7.7603 12.7458 7.9523 12.8188 8.1453 12.8188C8.3363 12.8188 8.5273 12.7468 8.6743 12.6018C8.9673 12.3088 8.9683 11.8337 8.6763 11.5397L6.3053 9.15975H9.7913C14.5823 9.15975 18.5103 13.0957 18.5463 17.9358C18.5473 18.0008 18.5473 19.2258 18.5473 19.2498C18.5473 19.6638 18.8823 19.9998 19.2973 19.9998C19.7113 19.9998 20.0473 19.6638 20.0473 19.2498C20.0473 19.2258 20.0463 17.9378 20.0463 17.9218Z" fill="white"/>
</svg>
