<svg width="24" height="24" viewBox="0 0 24 24" fill="none" xmlns="http://www.w3.org/2000/svg">
<path d="M4.05676 11.6375C4.38796 11.6291 4.66336 11.8907 4.67176 12.2219L4.69036 12.9359C4.69876 13.2671 4.43716 13.5425 4.10596 13.5509C3.77476 13.5593 3.49936 13.2977 3.49036 12.9665L3.47236 12.2525C3.46396 11.9213 3.72556 11.6459 4.05676 11.6375ZM3.92776 8.08612C4.01176 7.76572 4.33936 7.57372 4.65976 7.65772C4.98076 7.74172 5.17216 8.06992 5.08876 8.39032L4.90756 9.08092C4.82356 9.40192 4.49596 9.59332 4.17496 9.50992C3.85456 9.42592 3.66256 9.09772 3.74656 8.77732L3.92776 8.08612ZM6.50356 4.57252C6.77956 4.38892 7.15216 4.46452 7.33516 4.74052C7.51876 5.01652 7.44376 5.38852 7.16776 5.57212L6.57376 5.96632C6.29776 6.14992 5.92576 6.07492 5.74216 5.79892C5.55856 5.52292 5.63356 5.15032 5.90956 4.96732L6.50356 4.57252ZM10.6406 3.44932C10.97 3.41632 11.264 3.65692 11.297 3.98632C11.3306 4.31632 11.09 4.61032 10.76 4.64332L10.0502 4.71472C9.72016 4.74772 9.42616 4.50712 9.39316 4.17712C9.36016 3.84772 9.60076 3.55372 9.93016 3.52072L10.6406 3.44932ZM14.099 3.51532L14.8052 3.61252C15.134 3.65752 15.3632 3.96052 15.3182 4.28872C15.2732 4.61692 14.9702 4.84672 14.642 4.80112L13.9358 4.70392C13.6076 4.65892 13.3778 4.35592 13.4228 4.02772C13.4648 3.72292 13.7288 3.50332 14.0294 3.50992L14.099 3.51532ZM17.3306 5.03632C17.5544 4.79212 17.9342 4.77592 18.1784 4.99972L18.704 5.48212C18.9476 5.70592 18.9644 6.08572 18.74 6.32992C18.5162 6.57412 18.1364 6.59032 17.8922 6.36592L17.3672 5.88412C17.123 5.66032 17.1068 5.28052 17.3306 5.03632ZM19.9976 12.4907C20.3282 12.5183 20.5736 12.8081 20.5466 13.1381L20.4878 13.8491C20.4602 14.1797 20.1704 14.4251 19.8404 14.3981C19.5104 14.3705 19.2644 14.0807 19.292 13.7507L19.3502 13.0397C19.376 12.7331 19.6274 12.4991 19.928 12.4895L19.9976 12.4907ZM18.5018 16.6655C18.6764 16.3835 19.046 16.2965 19.328 16.4705C19.61 16.6445 19.697 17.0147 19.523 17.2961L19.1474 17.9033C18.9734 18.1853 18.6038 18.2729 18.3218 18.0983C18.0398 17.9243 17.9528 17.5547 18.1268 17.2727L18.5018 16.6655ZM15.7766 18.8501C16.0952 18.7595 16.427 18.9443 16.5176 19.2629C16.6082 19.5821 16.4234 19.9139 16.1048 20.0045L15.419 20.2001C15.1004 20.2907 14.768 20.1059 14.6774 19.7873C14.5868 19.4681 14.7716 19.1363 15.0902 19.0457L15.7766 18.8501ZM11.246 19.3139L11.96 19.3217C12.2912 19.3253 12.557 19.5971 12.5534 19.9283C12.5498 20.2595 12.2786 20.5253 11.9468 20.5217L11.2328 20.5139C10.9016 20.5103 10.6358 20.2391 10.6394 19.9079C10.643 19.5761 10.9148 19.3103 11.246 19.3139ZM6.75976 18.8831C6.88636 18.5771 7.23736 18.4319 7.54336 18.5585L8.20276 18.8321C8.50876 18.9587 8.65396 19.3097 8.52736 19.6163C8.40016 19.9223 8.04916 20.0675 7.74316 19.9403L7.08376 19.6673C6.77776 19.5401 6.63256 19.1891 6.75976 18.8831ZM4.43656 15.6587C4.73956 15.5243 5.09416 15.6617 5.22796 15.9647L5.51656 16.6181C5.65036 16.9211 5.51356 17.2757 5.21056 17.4095C4.90696 17.5433 4.55296 17.4059 4.41916 17.1029L4.13056 16.4495C3.99616 16.1465 4.13356 15.7925 4.43656 15.6587ZM19.6118 8.29972C19.9394 8.24692 20.2472 8.46952 20.3 8.79652L20.441 9.67372C20.4938 10.0013 20.2718 10.3091 19.9442 10.3619C19.6172 10.4147 19.3094 10.1921 19.2566 9.86512L19.115 8.98732C19.0622 8.66032 19.2848 8.35252 19.6118 8.29972Z" fill="white"/>
<path d="M11.3803 7.84112V13.2189C11.3803 13.5801 11.6737 13.8735 12.0349 13.8735C12.3967 13.8735 12.6895 13.5801 12.6895 13.2189V7.84112C12.6895 7.47992 12.3967 7.18652 12.0349 7.18652C11.6737 7.18652 11.3803 7.47992 11.3803 7.84112ZM12.0001 16.8141C12.4969 16.8141 12.9001 16.4109 12.9001 15.9141C12.9001 15.4167 12.4969 15.0141 12.0001 15.0141C11.5033 15.0141 11.1001 15.4167 11.1001 15.9141C11.1001 16.4109 11.5033 16.8141 12.0001 16.8141Z" fill="white"/>
</svg>
