<svg width="24" height="24" viewBox="0 0 24 24" fill="none" xmlns="http://www.w3.org/2000/svg">
<path d="M13.5357 14.1849C13.5357 14.8849 12.9597 15.4519 12.2497 15.4519C11.5397 15.4519 10.9647 14.8849 10.9647 14.1849C10.9647 13.4849 11.5397 12.9189 12.2497 12.9189C12.9597 12.9189 13.5357 13.4849 13.5357 14.1849Z" fill="white"/>
<path d="M12.2501 14.9522V17.3292M8.58211 9.5V7.007C8.58211 4.932 10.2241 3.25 12.2491 3.25C13.2631 3.25 14.1801 3.67 14.8431 4.351M16.7501 20.6905H7.75011C6.64611 20.6905 5.75011 19.7945 5.75011 18.6905V11.9635C5.75011 10.8585 6.64611 9.9635 7.75011 9.9635H16.7501C17.8541 9.9635 18.7501 10.8585 18.7501 11.9635V18.6905C18.7501 19.7945 17.8541 20.6905 16.7501 20.6905Z" stroke="white" stroke-width="1.5" stroke-linecap="round" stroke-linejoin="round"/>
</svg>
