<svg width="24" height="24" viewBox="0 0 24 24" fill="none" xmlns="http://www.w3.org/2000/svg">
<path d="M10.0919 10.8769V9.2029C10.0919 8.1239 10.9459 7.2489 11.9999 7.2489C12.6579 7.2489 13.2379 7.5909 13.5809 8.1099M16.75 20.5H7.25C5.869 20.5 4.75 19.381 4.75 18V6C4.75 4.619 5.869 3.5 7.25 3.5H16.75C18.131 3.5 19.25 4.619 19.25 6V18C19.25 19.381 18.131 20.5 16.75 20.5ZM14.75 16.1269H9.25C8.836 16.1269 8.5 15.7909 8.5 15.3769V11.6269C8.5 11.2129 8.836 10.8769 9.25 10.8769H14.75C15.164 10.8769 15.5 11.2129 15.5 11.6269V15.3769C15.5 15.7909 15.164 16.1269 14.75 16.1269Z" stroke="white" stroke-width="1.5" stroke-linecap="round" stroke-linejoin="round"/>
</svg>
