<svg width="24" height="24" viewBox="0 0 24 24" fill="none" xmlns="http://www.w3.org/2000/svg">
<path fill-rule="evenodd" clip-rule="evenodd" d="M18.1537 19.6137C18.5677 19.6137 18.9037 19.9497 18.9037 20.3637C18.9037 20.7777 18.5677 21.1137 18.1537 21.1137H5.84668C5.43268 21.1137 5.09668 20.7777 5.09668 20.3637C5.09668 19.9497 5.43268 19.6137 5.84668 19.6137H18.1537ZM12.0002 2.88672C12.4372 2.88672 12.8602 3.06772 13.1612 3.38272L17.7002 8.11772C17.9872 8.41772 17.9772 8.89172 17.6782 9.17772C17.5322 9.31772 17.3452 9.38672 17.1582 9.38672C16.9612 9.38672 16.7652 9.30972 16.6172 9.15572L12.7592 5.13072V17.1917C12.7592 17.6057 12.4232 17.9417 12.0092 17.9417C11.5952 17.9417 11.2592 17.6057 11.2592 17.1917V5.11172L7.38318 9.15572C7.09718 9.45572 6.62218 9.46572 6.32218 9.17772C6.02418 8.89172 6.01418 8.41772 6.30018 8.11772L10.8392 3.38272C11.1412 3.06772 11.5642 2.88672 12.0002 2.88672Z" fill="white"/>
</svg>
