<svg width="24" height="24" viewBox="0 0 24 24" fill="none" xmlns="http://www.w3.org/2000/svg">
<path d="M15.125 2.59961C16.09 2.59961 16.875 3.38461 16.875 4.34961V8.82061C17.465 9.10161 17.875 9.70261 17.875 10.3996V16.8996C17.875 19.3846 15.859 21.3996 13.375 21.3996H10.625C8.14 21.3996 6.125 19.3846 6.125 16.8996V10.3996C6.125 9.70261 6.534 9.10161 7.125 8.82061V4.34961C7.125 3.38461 7.91 2.59961 8.875 2.59961H15.125ZM15.125 4.09961H8.875C8.736 4.09961 8.624 4.21161 8.624 4.34961V8.64961H15.375V4.34961C15.375 4.21161 15.263 4.09961 15.125 4.09961ZM10.75 5.54901C11.095 5.54901 11.375 5.82901 11.375 6.17401V6.60301C11.375 6.94801 11.095 7.22801 10.75 7.22801C10.404 7.22801 10.125 6.94801 10.125 6.60301V6.17401C10.125 5.82901 10.404 5.54901 10.75 5.54901ZM13.25 5.54901C13.595 5.54901 13.875 5.82901 13.875 6.17401V6.60301C13.875 6.94801 13.595 7.22801 13.25 7.22801C12.904 7.22801 12.625 6.94801 12.625 6.60301V6.17401C12.625 5.82901 12.904 5.54901 13.25 5.54901Z" fill="white"/>
</svg>
