<svg width="24" height="24" viewBox="0 0 24 24" fill="none" xmlns="http://www.w3.org/2000/svg">
<path d="M14.605 19.566C13.788 19.847 12.912 20 12 20C7.582 20 4 16.418 4 12C4 7.582 7.582 4 12 4C16.417 4 20 7.582 20 12" stroke="white" stroke-width="1.5" stroke-linecap="round" stroke-linejoin="round"/>
<path d="M14.981 11.6082C14.902 7.50527 13.598 4.23926 12 4.23926C10.35 4.23926 9.01401 7.71527 9.01401 12.0003C9.01401 16.2863 10.35 19.7613 12 19.7613C12.6 19.7613 13.159 19.3013 13.626 18.5082" stroke="white" stroke-width="1.5" stroke-linecap="round" stroke-linejoin="round"/>
<path d="M14.306 12H4.491" stroke="white" stroke-width="1.5" stroke-linecap="round" stroke-linejoin="round"/>
<path fill-rule="evenodd" clip-rule="evenodd" d="M21.4995 15.625C21.4995 18.041 19.5405 20 17.1245 20C14.7075 20 12.7495 18.041 12.7495 15.625C12.7495 13.209 14.7075 11.25 17.1245 11.25C19.5405 11.25 21.4995 13.209 21.4995 15.625Z" stroke="white" stroke-width="1.5" stroke-linecap="round" stroke-linejoin="round"/>
<path d="M18.8354 15.6248H17.4064C17.2504 15.6248 17.1244 15.4988 17.1244 15.3428V13.4258" stroke="white" stroke-width="1.5" stroke-linecap="round" stroke-linejoin="round"/>
</svg>
