<svg width="24" height="24" viewBox="0 0 24 24" fill="none" xmlns="http://www.w3.org/2000/svg">
<path d="M19.4251 19.1821L17.5811 17.3381C17.2891 17.0461 17.2881 16.5711 17.5811 16.2781L18.8961 14.9621C19.1891 14.6691 19.1881 14.1941 18.8961 13.9021L17.5821 12.5881C17.2891 12.2951 17.2891 11.8201 17.5821 11.5271L18.8951 10.2141C19.1881 9.92113 19.1881 9.44713 18.8951 9.15413L17.5821 7.84013C17.2891 7.54713 17.2891 7.07213 17.5821 6.77913L19.4251 4.93613M4.5252 4.44043L14.3722 14.1184M13.2688 4.88033L8.4318 8.75033H5.2998C4.4708 8.75033 3.7998 9.42233 3.7998 10.2503V13.5003C3.7998 14.3293 4.4708 15.0003 5.2998 15.0003H8.4278L13.2688 19.3753C13.8828 19.9263 14.3848 19.7033 14.3848 18.8783V5.37833C14.3848 4.55333 13.8828 4.32933 13.2688 4.88033Z" stroke="white" stroke-width="1.5" stroke-linecap="round" stroke-linejoin="round"/>
</svg>
