<svg width="24" height="24" viewBox="0 0 24 24" fill="none" xmlns="http://www.w3.org/2000/svg">
<path d="M7.05351 3.5C7.46771 3.5 7.80351 3.8358 7.80351 4.25C7.80351 4.6297 7.52131 4.9435 7.15531 4.9932L7.05351 5H5.74951C5.10241 5 4.57001 5.4919 4.50601 6.1222L4.49951 6.25V7.586C4.49951 8.0002 4.16371 8.336 3.74951 8.336C3.36981 8.336 3.05601 8.0538 3.00631 7.6878L2.99951 7.586V6.25C2.99951 4.7873 4.14151 3.5916 5.58201 3.505L5.74951 3.5H7.05351Z" fill="white"/>
<path d="M18.2498 3.5C19.7127 3.5 20.9082 4.6413 20.9948 6.0824L20.9998 6.25V7.586C20.9998 8.0002 20.664 8.336 20.2498 8.336C19.8701 8.336 19.5563 8.0538 19.5066 7.6878L19.4998 7.586V6.25C19.4998 5.6024 19.0083 5.0704 18.3777 5.0064L18.2498 5H16.9468C16.5326 5 16.1968 4.6642 16.1968 4.25C16.1968 3.8703 16.479 3.5565 16.845 3.5068L16.9468 3.5H18.2498Z" fill="white"/>
<path d="M3.74951 16.1162C4.12921 16.1162 4.44301 16.3984 4.49271 16.7644L4.49951 16.8662V18.4522C4.49951 19.0989 4.99191 19.6317 5.62181 19.6957L5.74951 19.7022H7.05351C7.46771 19.7022 7.80351 20.038 7.80351 20.4522C7.80351 20.8319 7.52131 21.1457 7.15531 21.1954L7.05351 21.2022H5.74951C4.28751 21.2022 3.09111 20.06 3.00451 18.6197L2.99951 18.4522V16.8662C2.99951 16.452 3.33531 16.1162 3.74951 16.1162Z" fill="white"/>
<path d="M20.2498 16.3662C20.6295 16.3662 20.9433 16.6484 20.993 17.0144L20.9998 17.1162V18.4522C20.9998 19.9145 19.8582 21.1106 18.4173 21.1972L18.2498 21.2022H16.9468C16.5326 21.2022 16.1968 20.8664 16.1968 20.4522C16.1968 20.0725 16.479 19.7587 16.845 19.709L16.9468 19.7022H18.2498C18.897 19.7022 19.4293 19.2102 19.4933 18.58L19.4998 18.4522V17.1162C19.4998 16.702 19.8356 16.3662 20.2498 16.3662Z" fill="white"/>
<path d="M15.25 8.10156C16.079 8.10156 16.75 8.77356 16.75 9.60156V15.1016C16.75 15.9296 16.079 16.6016 15.25 16.6016H8.75C7.921 16.6016 7.25 15.9296 7.25 15.1016V9.60156C7.25 8.77356 7.921 8.10156 8.75 8.10156H15.25ZM10.6285 10.1016C10.4405 10.1016 10.25 10.2332 10.25 10.4847V14.218C10.25 14.47 10.4405 14.6016 10.6285 14.6016C10.7137 14.6016 10.7984 14.5769 10.8812 14.5285L14.034 12.6852C14.1716 12.6053 14.25 12.4832 14.25 12.3516C14.25 12.2194 14.1716 12.0974 14.034 12.018L10.8812 10.1742C10.799 10.1258 10.7137 10.1016 10.6285 10.1016Z" fill="white"/>
</svg>
