<svg width="24" height="24" viewBox="0 0 24 24" fill="none" xmlns="http://www.w3.org/2000/svg">
<path d="M17.7471 1.54488C17.8191 1.32488 18.1301 1.32488 18.2031 1.54488L19.0961 4.21488L20.9671 5.10988C21.1491 5.19688 21.1501 5.45688 20.9681 5.54388L19.0991 6.44088L18.2101 9.11688C18.1381 9.33588 17.8261 9.33588 17.7541 9.11688L16.8591 6.44288L14.9911 5.54988C14.8081 5.46288 14.8081 5.20288 14.9901 5.11588L16.8581 4.21788L17.7471 1.54488ZM21.4474 6.42088C21.4944 6.27788 21.6974 6.27788 21.7454 6.42088L22.3284 8.16488L23.5504 8.74888C23.6684 8.80588 23.6684 8.97488 23.5514 9.03188L22.3304 9.61788L21.7504 11.3649C21.7024 11.5079 21.4994 11.5079 21.4524 11.3649L20.8674 9.61988L19.6494 9.03588C19.5294 8.97888 19.5294 8.80988 19.6484 8.75288L20.8674 8.16788L21.4474 6.42088Z" fill="white"/>
<path d="M20.005 12.3041L20.01 17.4891C20.011 18.8641 18.887 19.9901 17.512 19.9911L6.513 20.0021C5.138 20.0031 4.012 18.8791 4.011 17.5041L4 6.50412C3.999 5.12912 5.122 4.00312 6.497 4.00212L12.86 3.99512M14.8042 12.1987L10.5332 14.9677C10.4212 15.0417 10.3062 15.0777 10.1912 15.0777C9.9362 15.0777 9.6782 14.8807 9.6782 14.5017L9.6722 8.90472C9.6722 8.52572 9.9292 8.32772 10.1842 8.32772C10.3002 8.32772 10.4152 8.36372 10.5262 8.43572L14.8032 11.1977C14.9892 11.3187 15.0952 11.4997 15.0952 11.6977C15.0952 11.8957 14.9902 12.0777 14.8042 12.1987Z" stroke="white" stroke-width="1.5" stroke-linecap="round" stroke-linejoin="round"/>
</svg>
