<svg width="24" height="24" viewBox="0 0 24 24" fill="none" xmlns="http://www.w3.org/2000/svg">
<path d="M6.54131 9.2835L11.9738 14.7161M11.9742 9.2835L6.54171 14.7161M22.865 13.8099V16.6424C22.865 17.1411 22.5217 17.4008 22.1849 17.4008C22.0403 17.4008 21.8958 17.3584 21.7546 17.2748L17.5716 14.8443V16.3458C17.5716 17.8397 16.3493 19.0621 14.8553 19.0621H3.85121C2.35731 19.0621 1.13501 17.8397 1.13501 16.3458V13.3829V7.6538C1.13501 6.1599 2.35731 4.9375 3.85121 4.9375H14.8553C16.3493 4.9375 17.5716 6.1599 17.5716 7.6538V9.1553L21.7546 6.7248C21.8958 6.6412 22.0403 6.5988 22.1849 6.5988C22.5217 6.5988 22.865 6.8596 22.865 7.3572V13.8099Z" stroke="white" stroke-width="1.5" stroke-linecap="round" stroke-linejoin="round"/>
</svg>
