<svg width="24" height="24" viewBox="0 0 24 24" fill="none" xmlns="http://www.w3.org/2000/svg">
<path fill-rule="evenodd" clip-rule="evenodd" d="M12.5901 14.2551C12.9251 14.5891 12.9251 15.1341 12.5901 15.4691C12.4221 15.6361 12.2031 15.7201 11.9831 15.7201C11.7631 15.7201 11.5431 15.6361 11.3751 15.4701L9.12109 13.2141L6.86609 15.4691C6.69909 15.6361 6.48009 15.7201 6.26009 15.7201C6.04009 15.7201 5.82009 15.6361 5.65209 15.4701C5.31709 15.1341 5.31709 14.5901 5.65209 14.2551L7.90709 12.0001L5.65209 9.74613C5.31709 9.41113 5.31709 8.86712 5.65209 8.53212C5.98709 8.19612 6.53209 8.19612 6.86609 8.53212L9.12109 10.7871L11.3751 8.53212C11.7101 8.19612 12.2551 8.19612 12.5891 8.53212C12.9251 8.86712 12.9251 9.41113 12.5891 9.74613L10.3351 12.0001L12.5891 14.2551H12.5901ZM22.4621 6.41012C22.3141 6.41012 22.1651 6.45412 22.0201 6.54012L17.7231 9.03712V7.56512C17.7231 5.99112 16.4351 4.70312 14.8621 4.70312H3.70209C2.12809 4.70312 0.840088 5.99112 0.840088 7.56512V16.4351C0.840088 18.0091 2.12809 19.2971 3.70209 19.2971H14.8621C16.4351 19.2971 17.7231 18.0091 17.7231 16.4351V14.9551L22.0171 17.4371C22.1701 17.5391 22.3271 17.5901 22.4841 17.5901C22.8201 17.5901 23.1601 17.3271 23.1601 16.8231V7.19012C23.1601 6.67913 22.8091 6.41012 22.4621 6.41012Z" fill="white"/>
</svg>
