<svg width="24" height="24" viewBox="0 0 24 24" fill="none" xmlns="http://www.w3.org/2000/svg">
<path fill-rule="evenodd" clip-rule="evenodd" d="M22.1144 6.67009C21.9738 6.67009 21.8319 6.71109 21.6924 6.79329L17.8625 9.44199V8.15369C17.8625 6.44229 16.4622 5.04199 14.7507 5.04199H4.33118C2.61978 5.04199 1.21948 6.44229 1.21948 8.15369V15.8461C1.21948 17.5575 2.61978 18.9578 4.33118 18.9578H14.7507C16.4622 18.9578 17.8625 17.5575 17.8625 15.8461V14.5503L21.6912 17.1841C21.8356 17.2812 21.9862 17.3297 22.1356 17.3297C22.4555 17.3297 22.7803 17.0796 22.7803 16.5991V7.41189C22.7803 6.92519 22.4455 6.67009 22.1144 6.67009Z" stroke="white" stroke-width="1.5" stroke-linecap="round" stroke-linejoin="round"/>
</svg>
