<svg width="24" height="24" viewBox="0 0 24 24" fill="none" xmlns="http://www.w3.org/2000/svg">
<path fill-rule="evenodd" clip-rule="evenodd" d="M3.85257 18.9557H15.0137C16.6081 18.9557 17.8609 17.7029 17.8609 16.1084V14.6279L22.1887 17.1334C22.3026 17.2473 22.5304 17.2473 22.6442 17.2473C22.9859 17.2473 23.3276 17.0195 23.3276 16.4501V6.88343C23.3276 6.42793 22.9859 6.08623 22.6442 6.08623C22.5304 6.08623 22.3026 6.08623 22.1887 6.20013L17.8609 8.70573V7.22513C17.8609 5.63073 16.6081 4.37793 15.0137 4.37793H3.85257C2.25807 4.37793 1.00537 5.63073 1.00537 7.22513V16.1084C1.00537 17.589 2.25807 18.9557 3.85257 18.9557Z" fill="white"/>
</svg>
