<svg width="24" height="24" viewBox="0 0 24 24" fill="none" xmlns="http://www.w3.org/2000/svg">
<path fill-rule="evenodd" clip-rule="evenodd" d="M17.5 4C18.875 4 20 5.125 20 6.5V17.5C20 18.875 18.875 20 17.5 20H6.5C5.125 20 4 18.875 4 17.5V6.5C4 5.125 5.125 4 6.5 4H17.5ZM10.1833 8.3301C9.9283 8.3301 9.6703 8.5271 9.6703 8.9061V14.5031C9.6703 14.8821 9.9283 15.0801 10.1833 15.0801C10.2983 15.0801 10.4133 15.0431 10.5253 14.9701L14.7993 12.2051C14.9853 12.0841 15.0913 11.9021 15.0913 11.7051C15.0913 11.5071 14.9853 11.3251 14.7993 11.2041L10.5253 8.4381C10.4143 8.3661 10.2983 8.3301 10.1833 8.3301Z" stroke="white" stroke-width="1.5" stroke-linecap="round" stroke-linejoin="round"/>
</svg>
