<svg width="24" height="24" viewBox="0 0 24 24" fill="none" xmlns="http://www.w3.org/2000/svg">
<path fill-rule="evenodd" clip-rule="evenodd" d="M9.088 8.578C9.088 8.131 9.394 7.897 9.696 7.897C9.833 7.897 9.97 7.94 10.102 8.026L15.167 11.304C15.388 11.445 15.514 11.662 15.514 11.897C15.514 12.131 15.388 12.348 15.167 12.49L10.102 15.767C9.969 15.853 9.833 15.897 9.696 15.897C9.394 15.897 9.088 15.663 9.088 15.215V8.578ZM4 17.5C4 18.875 5.125 20 6.5 20H17.5C18.875 20 20 18.875 20 17.5V6.5C20 5.125 18.875 4 17.5 4H6.5C5.125 4 4 5.125 4 6.5V17.5Z" fill="white"/>
</svg>
