<svg width="24" height="24" viewBox="0 0 24 24" fill="none" xmlns="http://www.w3.org/2000/svg">
<path d="M12.945 7.18682V16.8139H11.3379V7.18682H12.945ZM18.9026 7.18672C19.9645 7.18672 20.7965 7.46072 21.3985 8.00962C21.9995 8.55862 22.3015 9.28062 22.3015 10.1746C22.3015 11.0796 21.9995 11.8027 21.3985 12.3477C20.7965 12.8916 19.9645 13.1646 18.9026 13.1646H16.7466V16.8136H15.1405V7.18672H18.9026ZM3.41034 7.18652L5.70524 14.2936L5.87624 14.9625H5.91624L6.08224 14.3085L8.38224 7.18652H10.0953L6.65734 16.8136H5.12934L1.69824 7.18652H3.41034ZM18.9026 8.47562H16.7466V11.8746H18.9026C19.4976 11.8746 19.9446 11.7157 20.2445 11.3986C20.5445 11.0817 20.6946 10.6777 20.6946 10.1886C20.6946 9.69962 20.5445 9.29162 20.2445 8.96462C19.9446 8.63862 19.4976 8.47562 18.9026 8.47562Z" fill="white"/>
</svg>
