<svg width="24" height="24" viewBox="0 0 24 24" fill="none" xmlns="http://www.w3.org/2000/svg">
<path d="M22.1099 11.1627V12.8371C22.1099 13.3768 21.6729 13.8138 21.1332 13.8138C20.5937 13.8138 20.1564 13.3768 20.1564 12.8371V11.1627C20.1564 10.6232 20.5937 10.1859 21.1332 10.1859C21.6729 10.1859 22.1096 10.6232 22.1099 11.1627ZM6.52034 5.30217C7.05974 5.30217 7.49704 5.73947 7.49704 6.27867V17.7208C7.49704 18.2605 7.06004 18.6981 6.52034 18.6981C5.98094 18.6981 5.54364 18.2608 5.54364 17.7211V6.27867C5.54364 5.73947 5.98094 5.30217 6.52034 5.30217ZM13.8267 2.37207C14.3661 2.37207 14.8034 2.80937 14.8034 3.34877V20.6509C14.8034 21.1903 14.3664 21.6279 13.8267 21.6279C13.2872 21.6279 12.8499 21.1906 12.8499 20.6512V3.34877C12.8499 2.80937 13.2875 2.37207 13.8267 2.37207ZM2.86684 10.1862C3.40634 10.1862 3.84334 10.6232 3.84364 11.1627V12.8371C3.84364 13.3765 3.40634 13.8138 2.86684 13.8138C2.32744 13.8138 1.89014 13.3765 1.89014 12.8371V11.1627C1.89044 10.6232 2.32744 10.1862 2.86684 10.1862ZM10.1735 8.23257C10.7129 8.23257 11.1502 8.66987 11.1502 9.20927V14.7904C11.1502 15.3301 10.7132 15.7674 10.1735 15.7674C9.63404 15.7674 9.19674 15.3304 9.19674 14.7907V9.20927C9.19674 8.66987 9.63404 8.23257 10.1735 8.23257ZM17.4799 8.23267C18.0196 8.23267 18.4566 8.66997 18.4566 9.20917V14.7903C18.4566 15.3297 18.0196 15.7673 17.4799 15.7673C16.9405 15.7673 16.5032 15.33 16.5032 14.7906V9.20917C16.5034 8.66997 16.9407 8.23267 17.4799 8.23267Z" fill="white"/>
</svg>
