<svg width="24" height="24" viewBox="0 0 24 24" fill="none" xmlns="http://www.w3.org/2000/svg">
<path fill-rule="evenodd" clip-rule="evenodd" d="M17.417 11.5492L19.167 11.5762C19.113 15.1721 16.413 18.0451 12.875 18.4512V21.7852H11.125V18.4442C7.37601 17.9761 4.83301 14.6092 4.83301 11.5632H6.58301C6.58301 14.0171 8.81301 16.7511 12.015 16.7511C15 16.7511 17.373 14.4661 17.417 11.5492ZM11.9997 2.21582C13.8997 2.21582 15.4457 3.76182 15.4457 5.66085L15.4357 11.5518C15.4357 13.4509 13.8947 14.9969 11.9997 14.9969C10.1007 14.9969 8.55471 13.4509 8.55471 11.5518V5.66085C8.55471 3.76182 10.1007 2.21582 11.9997 2.21582Z" fill="white"/>
</svg>
