<svg width="24" height="24" viewBox="0 0 24 24" fill="none" xmlns="http://www.w3.org/2000/svg">
<path d="M11.4776 4.48606C12.5723 3.51326 13.8352 4.08086 13.8352 5.55056V18.3006C13.8352 19.7749 12.5644 20.3412 11.4854 19.3707L7.10404 15.6726H4.75024C3.50734 15.6726 2.50024 14.6651 2.50024 13.4226V10.4226C2.50024 9.18006 3.50734 8.17256 4.75024 8.17256H7.10814L11.4776 4.48606ZM12.3352 5.72506L7.65634 9.67256H4.75024C4.33584 9.67256 4.00024 10.0084 4.00024 10.4226V13.4226C4.00024 13.8368 4.33584 14.1726 4.75024 14.1726H7.65244L7.86204 14.3495L12.3352 18.1255V5.72506ZM19.3007 9.67556V11.1756H20.8007C21.8007 11.1756 21.8007 12.6756 20.8007 12.6756H19.3007V14.1756C19.3007 15.1756 17.8007 15.1756 17.8007 14.1756V12.6756H16.3007C15.3007 12.6756 15.3007 11.1756 16.3007 11.1756H17.8007V9.67556C17.8007 8.67556 19.3007 8.67556 19.3007 9.67556Z" fill="white"/>
</svg>
