<svg width="24" height="24" viewBox="0 0 24 24" fill="none" xmlns="http://www.w3.org/2000/svg">
<path d="M11.4776 4.48606C12.5723 3.51326 13.8352 4.08086 13.8352 5.55056V18.3006C13.8352 19.774 12.5643 20.3411 11.4854 19.3707L7.10404 15.6726H4.75024C3.50734 15.6726 2.50024 14.6651 2.50024 13.4226V10.4226C2.50024 9.18006 3.50734 8.17256 4.75024 8.17256H7.10814L11.4776 4.48606ZM12.3352 5.72506L7.86584 9.49576C7.73054 9.60996 7.55924 9.67256 7.38224 9.67256H4.75024C4.33584 9.67256 4.00024 10.0084 4.00024 10.4226V13.4226C4.00024 13.8368 4.33584 14.1726 4.75024 14.1726H7.37824C7.55534 14.1726 7.72664 14.2353 7.86204 14.3495L12.3352 18.1255V5.72506ZM20.5507 11.1756C20.9649 11.1756 21.3007 11.5114 21.3007 11.9256C21.3007 12.3398 20.9649 12.6756 20.5507 12.6756H16.5507C16.1365 12.6756 15.8007 12.3398 15.8007 11.9256C15.8007 11.5114 16.1365 11.1756 16.5507 11.1756H20.5507Z" fill="white"/>
</svg>
