<svg width="24" height="24" viewBox="0 0 24 24" fill="none" xmlns="http://www.w3.org/2000/svg">
<path fill-rule="evenodd" clip-rule="evenodd" d="M8.27655 15.1092L7.03955 11.6602H7.91755L8.63255 13.8792L9.35255 11.6602H10.2326L8.99055 15.1092H8.27655ZM11.6431 13.2244C11.8211 13.2244 11.9471 13.1864 12.0161 13.1124C12.0891 13.0354 12.1241 12.9344 12.1241 12.8064C12.1241 12.6854 12.0871 12.5794 12.0101 12.4854C11.9411 12.3994 11.8181 12.3564 11.6431 12.3564H11.0981V13.2244H11.6431ZM10.2941 15.1094V11.6604H11.6431C12.0451 11.6604 12.3631 11.7684 12.5891 11.9824C12.8171 12.1974 12.9331 12.4734 12.9331 12.8024C12.9331 13.1474 12.8161 13.4244 12.5851 13.6244C12.3601 13.8214 12.0431 13.9204 11.6431 13.9204H11.0981V15.1094H10.2941ZM15.2105 15.1092L13.9765 13.1472V15.1092H13.1725V11.6602H13.9205L15.1585 13.6282V11.6602H15.9605V15.1092H15.2105Z" fill="white"/>
<path d="M18 12.8809V11.7139C18 10.6089 17.104 9.7139 16 9.7139H7C5.896 9.7139 5 10.6089 5 11.7139V18.4409C5 19.5449 5.896 20.4409 7 20.4409H11.299M7.8323 9V6.758C7.8323 4.683 9.4743 3 11.4993 3C13.5253 3 15.1673 4.683 15.1673 6.758V9M19.7 21.2002L15.096 16.5962M17.0528 21.5273L20.0268 18.5523C20.6578 17.9223 20.6578 16.8993 20.0268 16.2693C19.3968 15.6383 18.3738 15.6383 17.7438 16.2693L14.7688 19.2433C14.1388 19.8743 14.1388 20.8963 14.7688 21.5273C15.3998 22.1573 16.4218 22.1573 17.0528 21.5273Z" stroke="white" stroke-width="1.5" stroke-linecap="round" stroke-linejoin="round"/>
</svg>
