<svg width="24" height="24" viewBox="0 0 24 24" fill="none" xmlns="http://www.w3.org/2000/svg">
<path fill-rule="evenodd" clip-rule="evenodd" d="M8.25018 15.1092L7.01318 11.6602H7.89118L8.60618 13.8792L9.32618 11.6602H10.2052L8.96418 15.1092H8.25018ZM11.6164 13.2245C11.7944 13.2245 11.9204 13.1865 11.9894 13.1125C12.0624 13.0355 12.0974 12.9345 12.0974 12.8065C12.0974 12.6855 12.0604 12.5795 11.9834 12.4855C11.9144 12.3995 11.7914 12.3565 11.6164 12.3565H11.0714V13.2245H11.6164ZM10.2674 15.1095V11.6605H11.6164C12.0184 11.6605 12.3364 11.7685 12.5624 11.9825C12.7904 12.1975 12.9064 12.4735 12.9064 12.8025C12.9064 13.1475 12.7894 13.4245 12.5584 13.6245C12.3334 13.8215 12.0164 13.9205 11.6164 13.9205H11.0714V15.1095H10.2674ZM15.1838 15.1092L13.9498 13.1472V15.1092H13.1458V11.6602H13.8938L15.1318 13.6282V11.6602H15.9338V15.1092H15.1838Z" fill="white"/>
<path d="M10.17 20.4405H7C5.896 20.4405 5 19.5445 5 18.4405V11.7135C5 10.6095 5.896 9.7135 7 9.7135H16C17.004 9.7135 17.835 10.4535 17.978 11.4175M16.2845 22.4571C15.5605 23.1821 14.3865 23.1821 13.6625 22.4571C12.9385 21.7331 12.9385 20.5591 13.6625 19.8351L16.4015 17.0951C17.1265 16.3711 18.3005 16.3711 19.0245 17.0951M19.3345 14.1622C20.0585 13.4382 21.2325 13.4382 21.9565 14.1622C22.6805 14.8872 22.6805 16.0602 21.9565 16.7852L19.2175 19.5242C18.4935 20.2482 17.3195 20.2482 16.5945 19.5242M7.8323 9V6.758C7.8323 4.683 9.4743 3 11.4993 3C13.5253 3 15.1673 4.683 15.1673 6.758V9" stroke="white" stroke-width="1.5" stroke-linecap="round" stroke-linejoin="round"/>
</svg>
