<svg width="24" height="24" viewBox="0 0 24 24" fill="none" xmlns="http://www.w3.org/2000/svg">
<path d="M19.0313 13.9356L16.5037 11.2745C16.0711 10.8189 15.3488 10.8062 14.9002 11.2458L11.1669 14.9051C10.9487 15.1192 10.5994 15.1195 10.3803 14.9062L9.1211 13.6777C8.6787 13.2465 7.9719 13.2524 7.5368 13.6906L4.9688 16.2793M16.5 21.2812H7.5C5.9469 21.2812 4.6875 20.0217 4.6875 18.4688V5.53125C4.6875 3.97785 5.9469 2.71875 7.5 2.71875H16.5C18.0531 2.71875 19.3125 3.97785 19.3125 5.53125V18.4688C19.3125 20.0217 18.0531 21.2812 16.5 21.2812ZM9.5001 9.25085C10.4307 9.25085 11.1873 8.49375 11.1873 7.56335C11.1873 6.63305 10.4307 5.87585 9.5001 5.87585C8.5691 5.87585 7.8123 6.63305 7.8123 7.56335C7.8123 8.49375 8.5691 9.25085 9.5001 9.25085Z" stroke="white" stroke-width="1.5" stroke-linecap="round" stroke-linejoin="round"/>
</svg>
