<svg width="24" height="24" viewBox="0 0 24 24" fill="none" xmlns="http://www.w3.org/2000/svg">
<path d="M12.708 17.071C12.318 17.462 11.684 17.462 11.294 17.071C10.903 16.68 10.903 16.046 11.294 15.656C11.684 15.267 12.318 15.267 12.708 15.656C13.098 16.046 13.098 16.68 12.708 17.071Z" fill="white"/>
<path d="M12.316 9.347V13.097M21.331 17.139L13.698 4.809C13.366 4.295 12.862 4 12.316 4C11.77 4 11.266 4.294 10.934 4.809L3.302 17.139C3.101 17.447 3 17.764 3 18.082C3 18.788 3.546 19.5 4.588 19.5H20.043C21.087 19.5 21.632 18.788 21.632 18.082C21.632 17.764 21.531 17.448 21.331 17.139Z" stroke="white" stroke-width="1.5" stroke-linecap="round" stroke-linejoin="round"/>
</svg>
