<svg width="24" height="24" viewBox="0 0 24 24" fill="none" xmlns="http://www.w3.org/2000/svg">
<path fill-rule="evenodd" clip-rule="evenodd" d="M14.8003 2.84961C15.7663 2.84961 16.5497 3.63304 16.5497 4.5999L16.5506 6.74618C18.0206 8.02075 18.9497 9.90132 18.9497 11.9996C18.9497 14.0979 18.0206 15.9785 16.5506 17.253L16.5497 19.3993C16.5497 20.3662 15.7663 21.1496 14.8003 21.1496H9.19972C8.23372 21.1496 7.45029 20.3662 7.45029 19.3993L7.44944 17.253C5.97944 15.9785 5.05029 14.0979 5.05029 11.9996C5.05029 9.90218 5.97944 8.02161 7.44858 6.74704L7.45029 4.5999C7.45029 3.63304 8.23372 2.84961 9.19972 2.84961H14.8003ZM12 6.5499C8.99058 6.5499 6.55029 8.99018 6.55029 11.9996C6.55029 15.0099 8.98972 17.4493 12 17.4493C15.0103 17.4493 17.4497 15.0099 17.4497 11.9996C17.4497 8.99018 15.0094 6.5499 12 6.5499Z" fill="white"/>
</svg>
