<svg width="24" height="24" viewBox="0 0 24 24" fill="none" xmlns="http://www.w3.org/2000/svg">
<path fill-rule="evenodd" clip-rule="evenodd" d="M9.29998 20.7001H14.7C15.3625 20.7001 15.9 20.1627 15.9 19.5001V16.9004C14.6014 17.7001 13.3011 18.1004 12 18.1004C10.6988 18.1004 9.39855 17.7001 8.09998 16.9004V19.5001C8.09998 20.1627 8.6374 20.7001 9.29998 20.7001Z" stroke="white" stroke-width="1.75" stroke-linecap="round" stroke-linejoin="round"/>
<path fill-rule="evenodd" clip-rule="evenodd" d="M9.29998 3.2998H14.7C15.3625 3.2998 15.9 3.83723 15.9 4.4998V7.09952C14.6014 6.2998 13.3011 5.89952 12 5.89952C10.6988 5.89952 9.39855 6.2998 8.09998 7.09952V4.4998C8.09998 3.83723 8.6374 3.2998 9.29998 3.2998Z" stroke="white" stroke-width="1.75" stroke-linecap="round" stroke-linejoin="round"/>
<path fill-rule="evenodd" clip-rule="evenodd" d="M18.1002 11.9997C18.1002 15.3691 15.3694 18.1 11.9999 18.1C8.63052 18.1 5.89966 15.3691 5.89966 11.9997C5.89966 8.63113 8.63052 5.89941 11.9999 5.89941C15.3694 5.89941 18.1002 8.63113 18.1002 11.9997Z" stroke="white" stroke-width="1.75" stroke-linecap="round" stroke-linejoin="round"/>
</svg>
