<svg width="24" height="24" viewBox="0 0 24 24" fill="none" xmlns="http://www.w3.org/2000/svg">
<path d="M12 3.37695C12.1884 3.37695 12.3768 3.45875 12.5652 3.62245L13.2247 4.31895C16.9662 8.32485 18.8593 11.3486 18.8593 14.1246C18.8593 18.1114 15.5963 20.6232 12 20.6232C8.40375 20.6232 5.14075 18.1114 5.14075 14.1246C5.14075 11.19 7.25635 7.97845 11.4348 3.62245C11.6232 3.45875 11.8116 3.37695 12 3.37695ZM12 4.84105L11.7289 5.12935L11.1257 5.78375C7.81855 9.42685 6.39075 11.976 6.39075 14.1246C6.39075 17.1902 8.84315 19.3732 12 19.3732C15.1569 19.3732 17.6093 17.1902 17.6093 14.1246C17.6093 11.8496 16.0086 9.12555 12.2711 5.12935L12 4.84105Z" fill="white"/>
</svg>
