<svg width="24" height="24" viewBox="0 0 24 24" fill="none" xmlns="http://www.w3.org/2000/svg">
<path fill-rule="evenodd" clip-rule="evenodd" d="M11.2282 19.0944C11.0581 19.0944 10.8871 19.0368 10.7467 18.9189C10.4293 18.6528 10.3879 18.1797 10.654 17.8623L12.1969 16.0239C12.4627 15.7065 12.9361 15.6651 13.2532 15.9315C13.5706 16.1976 13.612 16.6707 13.3459 16.9881L11.8033 18.8265C11.6548 19.0032 11.4421 19.0944 11.2282 19.0944Z" fill="#C1C1C1"/>
<path fill-rule="evenodd" clip-rule="evenodd" d="M15.7282 19.0944C15.5581 19.0944 15.3871 19.0368 15.2467 18.9189C14.9293 18.6528 14.8879 18.1797 15.154 17.8623L16.6969 16.0239C16.9627 15.7065 17.4361 15.6651 17.7532 15.9315C18.0706 16.1976 18.112 16.6707 17.8459 16.9881L16.3033 18.8265C16.1548 19.0032 15.9421 19.0944 15.7282 19.0944Z" fill="#C1C1C1"/>
<path fill-rule="evenodd" clip-rule="evenodd" d="M16.32 8.74527H14.3034C13.8588 6.55437 11.922 4.90527 9.60005 4.90527C6.94895 4.90527 4.80005 7.05417 4.80005 9.70527C4.80005 12.3564 6.94895 14.5053 9.60005 14.5053H16.32C17.9106 14.5053 19.2 13.2159 19.2 11.6253C19.2 10.0347 17.9106 8.74527 16.32 8.74527Z" fill="#E0E0E0"/>
<path fill-rule="evenodd" clip-rule="evenodd" d="M11.42 13.0803L6.52876 18.9435C6.36496 19.1397 6.05416 18.9483 6.15586 18.7137L7.86016 14.7822C7.92346 14.6361 7.81636 14.4729 7.65706 14.4729H5.71666C5.55736 14.4729 5.45026 14.3094 5.51386 14.1633L7.60696 9.33925C7.64206 9.25855 7.72186 9.20605 7.81006 9.20605H9.94216C10.1015 9.20605 10.2086 9.36925 10.1453 9.51535L8.89006 12.408C8.82676 12.5541 8.93386 12.7173 9.09316 12.7173H11.2502C11.4377 12.7173 11.5403 12.9363 11.42 13.0803Z" fill="#FFBC09"/>
</svg>
