<svg width="24" height="24" viewBox="0 0 24 24" fill="none" xmlns="http://www.w3.org/2000/svg">
<path fill-rule="evenodd" clip-rule="evenodd" d="M13.8615 16.0786C13.6311 16.0786 13.4007 15.9907 13.2249 15.815C12.8736 15.4636 12.8736 14.8937 13.2252 14.5424L16.4073 11.3603C16.7586 11.0087 17.3286 11.009 17.6802 11.3603C18.0315 11.7118 18.0315 12.2816 17.6799 12.6331L14.4978 15.815C14.3223 15.9907 14.0919 16.0786 13.8615 16.0786Z" fill="#C1C1C1"/>
<path fill-rule="evenodd" clip-rule="evenodd" d="M19.359 10.5807C19.1286 10.5807 18.8985 10.4928 18.7227 10.3173C18.3711 9.96571 18.3711 9.39601 18.7224 9.04438L19.1466 8.62021C19.4982 8.26858 20.0679 8.26858 20.4195 8.61991C20.7711 8.97148 20.7711 9.54118 20.4198 9.89281L19.9956 10.317C19.8198 10.4928 19.5894 10.5807 19.359 10.5807Z" fill="#C1C1C1"/>
<path fill-rule="evenodd" clip-rule="evenodd" d="M12.1905 12.6583C11.9601 12.6583 11.7297 12.5703 11.5542 12.3946C11.2026 12.0432 11.2026 11.4732 11.5542 11.122L14.3118 8.36404C14.6631 8.01277 15.2334 8.01277 15.5844 8.36404C15.936 8.71567 15.936 9.28534 15.5844 9.63694L12.8268 12.3946C12.6513 12.5703 12.4209 12.6583 12.1905 12.6583Z" fill="#C1C1C1"/>
<path fill-rule="evenodd" clip-rule="evenodd" d="M4.21791 15.5396C3.98751 15.5396 3.75741 15.4517 3.58161 15.2762C3.23001 14.9245 3.23001 14.3548 3.58131 14.0032L4.00371 13.5809C4.35531 13.2296 4.92471 13.2296 5.27631 13.5809C5.62791 13.9324 5.62791 14.5022 5.27661 14.8537L4.85451 15.2758C4.67871 15.4517 4.44831 15.5396 4.21791 15.5396Z" fill="#C1C1C1"/>
<path fill-rule="evenodd" clip-rule="evenodd" d="M7.60365 12.1541C7.37325 12.1541 7.14285 12.0661 6.96735 11.8904C6.61575 11.539 6.61575 10.9691 6.96705 10.6177L9.52155 8.06328C9.87285 7.71198 10.4429 7.71198 10.7942 8.06328C11.1458 8.41488 11.1458 8.98455 10.7945 9.33618L8.24025 11.8904C8.06445 12.0661 7.83405 12.1541 7.60365 12.1541Z" fill="#C1C1C1"/>
</svg>
