<svg width="24" height="24" viewBox="0 0 24 24" fill="none" xmlns="http://www.w3.org/2000/svg">
<path fill-rule="evenodd" clip-rule="evenodd" d="M20.4747 8.91417C20.4747 11.3759 18.4793 13.3713 16.0175 13.3713C13.5558 13.3713 11.5604 11.3759 11.5604 8.91417C11.5604 6.45246 13.5558 4.45703 16.0175 4.45703C18.4793 4.45703 20.4747 6.45246 20.4747 8.91417Z" fill="#FFBC09"/>
<path fill-rule="evenodd" clip-rule="evenodd" d="M18.1714 11.3146C20.4435 11.3146 22.2857 13.1568 22.2857 15.4289C22.2857 17.701 20.4435 19.5432 18.1714 19.5432H8.57142L8.57118 16.7068C8.84722 16.7681 9.13412 16.8003 9.42857 16.8003C11.6062 16.8003 13.3714 15.0351 13.3714 12.8575C13.3714 12.3099 13.2598 11.7884 13.0581 11.3145L18.1714 11.3146Z" fill="#F1F1F1"/>
<path fill-rule="evenodd" clip-rule="evenodd" d="M8.57142 5.82812C12.3583 5.82812 15.4286 8.89807 15.4286 12.6853C15.4286 16.4725 12.3583 19.5424 8.57142 19.5424C4.78422 19.5424 1.71428 16.4725 1.71428 12.6853C1.71428 8.89807 4.78422 5.82812 8.57142 5.82812ZM8.74285 9.59955C8.43202 9.59955 8.18005 9.85152 8.18005 10.1624L8.17988 12.2937L6.04851 12.2939L6.00236 12.2957C5.71313 12.3192 5.48571 12.5614 5.48571 12.8567C5.48571 13.1675 5.73767 13.4195 6.04851 13.4195L8.17988 13.4193L8.18005 15.551L8.1819 15.5972C8.20539 15.8864 8.44755 16.1138 8.74285 16.1138C9.05369 16.1138 9.30565 15.8619 9.30565 15.551L9.30548 13.4193L11.4372 13.4195L11.4833 13.4176C11.7726 13.3942 12 13.152 12 12.8567C12 12.5459 11.748 12.2939 11.4372 12.2939L9.30548 12.2937L9.30565 10.1624L9.3038 10.1162C9.28031 9.82697 9.03815 9.59955 8.74285 9.59955Z" fill="white"/>
</svg>
