<svg width="24" height="24" viewBox="0 0 24 24" fill="none" xmlns="http://www.w3.org/2000/svg">
<path fill-rule="evenodd" clip-rule="evenodd" d="M9.09906 17.25C9.01626 17.1066 8.83266 17.0574 8.68926 17.1402L8.10006 17.4804V16.8C8.10006 16.6344 7.96566 16.5 7.80006 16.5C7.63446 16.5 7.50006 16.6344 7.50006 16.8V17.4804L6.91086 17.1402C6.76716 17.0574 6.58386 17.1066 6.50106 17.25C6.41796 17.3934 6.46746 17.577 6.61086 17.6598L7.20006 18L6.61086 18.3402C6.46746 18.423 6.41796 18.6066 6.50106 18.75C6.55656 18.8463 6.65736 18.9 6.76116 18.9C6.81186 18.9 6.86346 18.8871 6.91086 18.8598L7.50006 18.5196V19.2C7.50006 19.3656 7.63446 19.5 7.80006 19.5C7.96566 19.5 8.10006 19.3656 8.10006 19.2V18.5196L8.68926 18.8598C8.73666 18.8871 8.78796 18.9 8.83896 18.9C8.94276 18.9 9.04356 18.8463 9.09906 18.75C9.18186 18.6066 9.13266 18.423 8.98926 18.3402L8.40006 18L8.98926 17.6598C9.13266 17.577 9.18186 17.3934 9.09906 17.25Z" fill="#70C8F9"/>
<path fill-rule="evenodd" clip-rule="evenodd" d="M13.2991 17.25C13.2163 17.1066 13.0327 17.0574 12.8893 17.1402L12.3001 17.4804V16.8C12.3001 16.6344 12.1657 16.5 12.0001 16.5C11.8345 16.5 11.7001 16.6344 11.7001 16.8V17.4804L11.1109 17.1402C10.9675 17.0574 10.7839 17.1066 10.7011 17.25C10.618 17.3934 10.6675 17.577 10.8109 17.6598L11.4001 18L10.8109 18.3402C10.6675 18.423 10.618 18.6066 10.7011 18.75C10.7566 18.8463 10.8574 18.9 10.9612 18.9C11.0119 18.9 11.0635 18.8871 11.1109 18.8598L11.7001 18.5196V19.2C11.7001 19.3656 11.8345 19.5 12.0001 19.5C12.1657 19.5 12.3001 19.3656 12.3001 19.2V18.5196L12.8893 18.8598C12.9367 18.8871 12.988 18.9 13.039 18.9C13.1428 18.9 13.2436 18.8463 13.2991 18.75C13.3819 18.6066 13.3327 18.423 13.1893 18.3402L12.6001 18L13.1893 17.6598C13.3327 17.577 13.3819 17.3934 13.2991 17.25Z" fill="#70C8F9"/>
<path fill-rule="evenodd" clip-rule="evenodd" d="M17.3892 18.3402L16.8 18L17.3892 17.6598C17.5329 17.577 17.5818 17.3934 17.499 17.25C17.4162 17.1066 17.2329 17.0574 17.0892 17.1402L16.5 17.4804V16.8C16.5 16.6344 16.3656 16.5 16.2 16.5C16.0344 16.5 15.9 16.6344 15.9 16.8V17.4804L15.3108 17.1402C15.1671 17.0574 14.9838 17.1066 14.901 17.25C14.8182 17.3934 14.8674 17.577 15.0108 17.6598L15.6 18L15.0108 18.3402C14.8674 18.423 14.8182 18.6066 14.901 18.75C14.9565 18.8463 15.0573 18.9 15.1611 18.9C15.2121 18.9 15.2637 18.8871 15.3108 18.8598L15.9 18.5196V19.2C15.9 19.3656 16.0344 19.5 16.2 19.5C16.3656 19.5 16.5 19.3656 16.5 19.2V18.5196L17.0892 18.8598C17.1366 18.8871 17.1882 18.9 17.2389 18.9C17.3427 18.9 17.4435 18.8463 17.499 18.75C17.5818 18.6066 17.5329 18.423 17.3892 18.3402Z" fill="#70C8F9"/>
<path fill-rule="evenodd" clip-rule="evenodd" d="M17.9323 7.62C17.9323 9.3432 16.5355 10.74 14.8123 10.74C13.0891 10.74 11.6923 9.3432 11.6923 7.62C11.6923 5.8968 13.0891 4.5 14.8123 4.5C16.5355 4.5 17.9323 5.8968 17.9323 7.62Z" fill="#FFBC09"/>
<path fill-rule="evenodd" clip-rule="evenodd" d="M16.32 9.30094H14.3037C13.8588 7.11004 11.922 5.46094 9.6 5.46094C6.9489 5.46094 4.8 7.61014 4.8 10.2609C4.8 12.912 6.9489 15.0609 9.6 15.0609H16.32C17.9106 15.0609 19.2 13.7715 19.2 12.1809C19.2 10.5903 17.9106 9.30094 16.32 9.30094Z" fill="#E0E0E0"/>
</svg>
