<svg width="24" height="24" viewBox="0 0 24 24" fill="none" xmlns="http://www.w3.org/2000/svg">
<path fill-rule="evenodd" clip-rule="evenodd" d="M13.7249 8.3101L12.8411 7.7998L13.7249 7.2895C13.94 7.1653 14.0138 6.8902 13.8896 6.6748C13.7654 6.4597 13.4903 6.3859 13.2749 6.5101L12.3911 7.0204V5.9998C12.3911 5.7514 12.1895 5.5498 11.9411 5.5498C11.6924 5.5498 11.4911 5.7514 11.4911 5.9998V7.0204L10.607 6.5101C10.3916 6.3856 10.1168 6.4597 9.99265 6.6748C9.86815 6.8902 9.94195 7.1653 10.157 7.2895L11.0411 7.7998L10.157 8.3101C9.94195 8.4343 9.86815 8.7097 9.99265 8.9248C10.0757 9.0691 10.2269 9.1498 10.3826 9.1498C10.4588 9.1498 10.5362 9.1303 10.607 9.0895L11.4911 8.5792V9.5998C11.4911 9.8482 11.6924 10.0498 11.9411 10.0498C12.1895 10.0498 12.3911 9.8482 12.3911 9.5998V8.5792L13.2749 9.0895C13.3457 9.1306 13.4231 9.1498 13.4996 9.1498C13.655 9.1498 13.8062 9.0691 13.8896 8.9248C14.0138 8.7097 13.94 8.4343 13.7249 8.3101Z" fill="#70C8F9"/>
<path fill-rule="evenodd" clip-rule="evenodd" d="M13.7249 16.7105L12.8411 16.2002L13.7249 15.6899C13.94 15.5657 14.0138 15.2906 13.8896 15.0752C13.7654 14.8601 13.4903 14.7863 13.2749 14.9105L12.3911 15.4208V14.4002C12.3911 14.1518 12.1895 13.9502 11.9411 13.9502C11.6924 13.9502 11.4911 14.1518 11.4911 14.4002V15.4208L10.607 14.9105C10.3916 14.786 10.1168 14.8601 9.99265 15.0752C9.86815 15.2906 9.94195 15.5657 10.157 15.6899L11.0411 16.2002L10.157 16.7105C9.94195 16.8347 9.86815 17.1101 9.99265 17.3252C10.0757 17.4695 10.2269 17.5502 10.3826 17.5502C10.4588 17.5502 10.5362 17.5307 10.607 17.4899L11.4911 16.9796V18.0002C11.4911 18.2486 11.6924 18.4502 11.9411 18.4502C12.1895 18.4502 12.3911 18.2486 12.3911 18.0002V16.9796L13.2749 17.4899C13.3457 17.531 13.4231 17.5502 13.4996 17.5502C13.655 17.5502 13.8062 17.4695 13.8896 17.3252C14.0138 17.1101 13.94 16.8347 13.7249 16.7105Z" fill="#70C8F9"/>
<path fill-rule="evenodd" clip-rule="evenodd" d="M7.84241 12.5103L6.95861 12L7.84241 11.4897C8.05751 11.3655 8.13131 11.0904 8.00711 10.875C7.88291 10.6599 7.60811 10.5861 7.39241 10.7103L6.50861 11.2206V10.2C6.50861 9.9516 6.30701 9.75 6.05861 9.75C5.80991 9.75 5.60861 9.9516 5.60861 10.2V11.2206L4.72481 10.7103C4.50941 10.5861 4.23431 10.6599 4.11011 10.875C3.98591 11.0904 4.05971 11.3655 4.27481 11.4897L5.15861 12L4.27481 12.5103C4.05971 12.6345 3.98591 12.9099 4.11011 13.125C4.19351 13.2693 4.34471 13.35 4.50011 13.35C4.57661 13.35 4.65401 13.3305 4.72481 13.2897L5.60861 12.7794V13.8C5.60861 14.0484 5.80991 14.25 6.05861 14.25C6.30701 14.25 6.50861 14.0484 6.50861 13.8V12.7794L7.39241 13.2897C7.46321 13.3308 7.54061 13.35 7.61711 13.35C7.77251 13.35 7.92371 13.2693 8.00711 13.125C8.13131 12.9099 8.05751 12.6345 7.84241 12.5103Z" fill="#70C8F9"/>
<path fill-rule="evenodd" clip-rule="evenodd" d="M19.7249 12.5103L18.8411 12L19.7249 11.4897C19.94 11.3655 20.0138 11.0904 19.8896 10.875C19.7654 10.6599 19.4903 10.5861 19.2749 10.7103L18.3911 11.2206V10.2C18.3911 9.9516 18.1895 9.75 17.9411 9.75C17.6924 9.75 17.4911 9.9516 17.4911 10.2V11.2206L16.607 10.7103C16.3919 10.5861 16.1168 10.6599 15.9926 10.875C15.8681 11.0904 15.9419 11.3655 16.157 11.4897L17.0411 12L16.157 12.5103C15.9419 12.6345 15.8681 12.9099 15.9926 13.125C16.0757 13.2693 16.2269 13.35 16.3826 13.35C16.4588 13.35 16.5362 13.3305 16.607 13.2897L17.4911 12.7794V13.8C17.4911 14.0484 17.6924 14.25 17.9411 14.25C18.1895 14.25 18.3911 14.0484 18.3911 13.8V12.7794L19.2749 13.2897C19.3457 13.3308 19.4231 13.35 19.4996 13.35C19.655 13.35 19.8062 13.2693 19.8896 13.125C20.0138 12.9099 19.94 12.6345 19.7249 12.5103Z" fill="#70C8F9"/>
</svg>
