<svg width="24" height="24" viewBox="0 0 24 24" fill="none" xmlns="http://www.w3.org/2000/svg">
<path fill-rule="evenodd" clip-rule="evenodd" d="M17.3185 19.0674H7.11853C6.70423 19.0674 6.36853 18.7317 6.36853 18.3174C6.36853 17.9031 6.70423 17.5674 7.11853 17.5674H17.3185C17.7328 17.5674 18.0685 17.9031 18.0685 18.3174C18.0685 18.7317 17.7328 19.0674 17.3185 19.0674Z" fill="#C1C1C1"/>
<path fill-rule="evenodd" clip-rule="evenodd" d="M18.8285 15.9482H5.62854C5.21424 15.9482 4.87854 15.6125 4.87854 15.1982C4.87854 14.7839 5.21424 14.4482 5.62854 14.4482H18.8285C19.2428 14.4482 19.5785 14.7839 19.5785 15.1982C19.5785 15.6125 19.2428 15.9482 18.8285 15.9482Z" fill="#D1D1D1"/>
<path fill-rule="evenodd" clip-rule="evenodd" d="M19.7415 12.7329C19.7787 12.5385 19.7997 12.3381 19.8 12.1329C19.8006 10.3653 18.3684 8.93221 16.6011 8.93161L14.4561 8.93071C13.9146 6.63811 11.8602 4.92961 9.40195 4.92871C6.53005 4.92751 4.20085 7.25491 4.19995 10.1268C4.19935 11.0754 4.45705 11.9673 4.90045 12.7329H19.7415Z" fill="#E0E0E0"/>
</svg>
