<svg width="24" height="24" viewBox="0 0 24 24" fill="none" xmlns="http://www.w3.org/2000/svg">
<path fill-rule="evenodd" clip-rule="evenodd" d="M14.2956 18.6007C14.232 18.6007 14.1672 18.5986 14.1021 18.5944C13.1397 18.5332 12.2286 17.9023 11.781 16.9867C11.5992 16.6147 11.7534 16.1656 12.1254 15.9835C12.4974 15.8017 12.9465 15.9556 13.1286 16.3279C13.3731 16.828 13.8417 17.0749 14.1975 17.0974C15.0126 17.1496 15.6309 16.4764 15.6957 15.8149C15.7278 15.4879 15.5811 15.1006 15.3126 14.8048C15.0831 14.5516 14.7933 14.4004 14.5374 14.4004H7.4502C7.0359 14.4004 6.7002 14.0647 6.7002 13.6504C6.7002 13.2364 7.0359 12.9004 7.4502 12.9004H14.5374C15.2193 12.9004 15.9069 13.2274 16.4235 13.7971C16.9755 14.4055 17.2617 15.2146 17.1888 15.9613C17.0604 17.2633 15.9276 18.6007 14.2956 18.6007Z" fill="#C1C1C1"/>
<path fill-rule="evenodd" clip-rule="evenodd" d="M17.8872 11.1005H4.19971C3.78571 11.1005 3.44971 10.7648 3.44971 10.3505C3.44971 9.9362 3.78571 9.6005 4.19971 9.6005H17.8872C18.1431 9.6005 18.4326 9.4493 18.6624 9.1961C18.9309 8.9003 19.0776 8.513 19.0455 8.1857C18.9804 7.5245 18.3654 6.8513 17.5473 6.9035C17.1915 6.926 16.7232 7.1729 16.4784 7.6733C16.2963 8.0453 15.8472 8.1995 15.4749 8.0174C15.1029 7.8353 14.949 7.3862 15.1308 7.0142C15.5787 6.0989 16.4898 5.4677 17.4519 5.4065C19.188 5.2967 20.4057 6.6869 20.5383 8.0393C20.6115 8.786 20.3256 9.5951 19.7736 10.2038C19.2567 10.7735 18.5691 11.1005 17.8872 11.1005Z" fill="#C1C1C1"/>
<path fill-rule="evenodd" clip-rule="evenodd" d="M10.746 7.7998H7.146C6.7317 7.7998 6.396 7.4641 6.396 7.0498C6.396 6.6355 6.7317 6.2998 7.146 6.2998H10.746C11.1603 6.2998 11.496 6.6355 11.496 7.0498C11.496 7.4641 11.1603 7.7998 10.746 7.7998Z" fill="#C1C1C1"/>
</svg>
