<svg width="24" height="24" viewBox="0 0 24 24" fill="none" xmlns="http://www.w3.org/2000/svg">
<path fill-rule="evenodd" clip-rule="evenodd" d="M13.4706 12.0294C11.4879 10.0467 10.9617 7.1286 11.8461 4.5C8.49477 5.2932 5.99997 8.3028 5.99997 11.8968C5.99997 16.0959 9.40407 19.5 13.6032 19.5C17.1972 19.5 20.2068 17.0055 21 13.6539C18.3714 14.5383 15.4533 14.0121 13.4706 12.0294Z" fill="#FFC72A"/>
<path fill-rule="evenodd" clip-rule="evenodd" d="M10.35 16.1996H8.3307C8.0577 14.9975 6.9846 14.0996 5.7 14.0996C4.2087 14.0996 3 15.3086 3 16.7996C3 18.2906 4.2087 19.4996 5.7 19.4996H10.35C11.2614 19.4996 12 18.761 12 17.8496C12 16.9382 11.2614 16.1996 10.35 16.1996Z" fill="#CCE4FF"/>
</svg>
