<svg width="24" height="24" viewBox="0 0 24 24" fill="none" xmlns="http://www.w3.org/2000/svg">
<path d="M9.2542 14.6665C8.5352 13.9575 8.0902 12.9725 8.0902 11.8825C8.0902 9.72347 9.8402 7.97247 12.0002 7.97247C14.1592 7.97247 15.9102 9.72347 15.9102 11.8825C15.9102 12.6375 15.6952 13.3435 15.3252 13.9405M12.0003 4.29297V5.28697M5.4046 11.8829H4.4106M19.5902 11.8829H18.5952M18.5736 8.08817L17.7126 8.58517M15.7952 5.30987L15.2982 6.17087M5.4271 8.08817L6.2881 8.58517M8.2054 5.30987L8.7024 6.17087M16.849 16.2122C16.02 16.2122 15.957 12.7122 12.599 12.7122C9.24 12.7122 8.927 16.2122 8.099 16.2122H6C5.034 16.2122 4.25 16.9952 4.25 17.9622C4.25 18.9292 5.034 19.7122 6 19.7122H9.099H16.099H18C18.966 19.7122 19.75 18.9292 19.75 17.9622C19.75 16.9952 18.966 16.2122 18 16.2122H16.849Z" stroke="white" stroke-width="1.5" stroke-linecap="round" stroke-linejoin="round"/>
</svg>
