<svg width="24" height="24" viewBox="0 0 24 24" fill="none" xmlns="http://www.w3.org/2000/svg">
<path fill-rule="evenodd" clip-rule="evenodd" d="M18.6104 14.9503L17.8697 14.5225L18.5306 14.0863C18.8762 13.858 18.9716 13.3927 18.7433 13.0471C18.515 12.7015 18.0497 12.6064 17.7041 12.8347L16.4174 13.6843L13.4999 11.9998L16.4174 10.3156L17.7041 11.1649C17.8313 11.2489 17.9747 11.2891 18.1166 11.2891C18.3602 11.2891 18.599 11.1709 18.7433 10.9525C18.9716 10.6066 18.8762 10.1416 18.5306 9.9133L17.8697 9.4771L18.6104 9.04931C18.9692 8.84231 19.0919 8.3836 18.8849 8.0248C18.6779 7.666 18.2192 7.5433 17.8604 7.7503L17.1197 8.1781L17.0723 7.3873C17.0474 6.9739 16.6913 6.6601 16.2788 6.6835C15.8651 6.7084 15.5501 7.0636 15.575 7.4773L15.6674 9.0163L12.7499 10.7008V7.3321L14.129 6.6424C14.4995 6.4573 14.6498 6.0067 14.4647 5.6362C14.2793 5.2657 13.829 5.1157 13.4582 5.3008L12.7499 5.6551V4.7998C12.7499 4.3855 12.4142 4.0498 11.9999 4.0498C11.5859 4.0498 11.2499 4.3855 11.2499 4.7998V5.6551L10.5416 5.3008C10.1711 5.1157 9.72048 5.2657 9.53538 5.6362C9.35028 6.0067 9.50028 6.4573 9.87078 6.6424L11.2499 7.3321V10.7008L8.33268 9.0163L8.42508 7.4773C8.44968 7.0636 8.13468 6.7084 7.72128 6.6835C7.30788 6.6604 6.95238 6.9739 6.92778 7.3873L6.88038 8.1781L6.13968 7.7503C5.78088 7.5433 5.32218 7.666 5.11518 8.0248C4.90788 8.3836 5.03088 8.84231 5.38968 9.04931L6.13038 9.4771L5.46948 9.9133C5.12358 10.1416 5.02848 10.6066 5.25678 10.9525C5.40108 11.1709 5.63988 11.2891 5.88318 11.2891C6.02508 11.2891 6.16848 11.2489 6.29598 11.1649L7.58268 10.3156L10.4999 11.9998L7.58268 13.6843L6.29598 12.8347C5.95008 12.6064 5.48508 12.7015 5.25678 13.0471C5.02848 13.3927 5.12358 13.858 5.46948 14.0863L6.13038 14.5225L5.38968 14.9503C5.03088 15.1573 4.90788 15.616 5.11518 15.9748C5.25408 16.2154 5.50608 16.3501 5.76528 16.3501C5.89248 16.3501 6.02148 16.3174 6.13968 16.2493L6.88038 15.8218L6.92778 16.6123C6.95148 17.0104 7.28208 17.3173 7.67568 17.3173C7.69068 17.3173 7.70598 17.3167 7.72128 17.3158C8.13468 17.2912 8.44968 16.9357 8.42508 16.5223L8.33268 14.9833L11.2499 13.2988V16.6675L9.87078 17.3572C9.50028 17.5423 9.35028 17.9929 9.53538 18.3634C9.66678 18.6262 9.93168 18.778 10.2068 18.778C10.3196 18.778 10.4339 18.7525 10.5416 18.6988L11.2499 18.3445V19.1998C11.2499 19.6141 11.5859 19.9498 11.9999 19.9498C12.4142 19.9498 12.7499 19.6141 12.7499 19.1998V18.3445L13.4582 18.6988C13.5659 18.7525 13.6805 18.778 13.7933 18.778C14.0681 18.778 14.3333 18.6262 14.4647 18.3634C14.6498 17.9929 14.4995 17.5423 14.129 17.3572L12.7499 16.6675V13.2988L15.6674 14.9833L15.575 16.5223C15.5501 16.9357 15.8651 17.2912 16.2788 17.3158C16.2941 17.3167 16.3091 17.3173 16.3244 17.3173C16.718 17.3173 17.0483 17.0104 17.0723 16.6123L17.1197 15.8218L17.8604 16.2493C17.9786 16.3174 18.1073 16.3501 18.2348 16.3501C18.494 16.3501 18.746 16.2154 18.8849 15.9748C19.0919 15.616 18.9692 15.1573 18.6104 14.9503Z" fill="#99E0FF"/>
</svg>
