<svg width="24" height="24" viewBox="0 0 24 24" fill="none" xmlns="http://www.w3.org/2000/svg">
<path fill-rule="evenodd" clip-rule="evenodd" d="M6.72819 19.5748C6.55809 19.5748 6.38709 19.5172 6.24669 19.3993C5.92929 19.1332 5.88789 18.6601 6.15399 18.3427L7.69689 16.5043C7.96269 16.1869 8.43609 16.1455 8.75319 16.4119C9.07059 16.678 9.11199 17.1511 8.84589 17.4685L7.30329 19.3069C7.15479 19.4836 6.94209 19.5748 6.72819 19.5748Z" fill="#C1C1C1"/>
<path fill-rule="evenodd" clip-rule="evenodd" d="M11.2282 19.5748C11.0581 19.5748 10.8871 19.5172 10.7467 19.3993C10.4293 19.1332 10.3879 18.6601 10.654 18.3427L12.1969 16.5043C12.4627 16.1869 12.9361 16.1455 13.2532 16.4119C13.5706 16.678 13.612 17.1511 13.3459 17.4685L11.8033 19.3069C11.6548 19.4836 11.4421 19.5748 11.2282 19.5748Z" fill="#C1C1C1"/>
<path fill-rule="evenodd" clip-rule="evenodd" d="M15.7282 19.5748C15.5581 19.5748 15.3871 19.5172 15.2467 19.3993C14.9293 19.1332 14.8879 18.6601 15.154 18.3427L16.6969 16.5043C16.963 16.1869 17.4361 16.1455 17.7532 16.4119C18.0706 16.678 18.112 17.1511 17.8459 17.4685L16.3033 19.3069C16.1548 19.4836 15.9421 19.5748 15.7282 19.5748Z" fill="#C1C1C1"/>
<path fill-rule="evenodd" clip-rule="evenodd" d="M17.9322 7.5448C17.9322 9.26801 16.5354 10.6648 14.8122 10.6648C13.089 10.6648 11.6922 9.26801 11.6922 7.5448C11.6922 5.8216 13.089 4.4248 14.8122 4.4248C16.5354 4.4248 17.9322 5.8216 17.9322 7.5448Z" fill="#FFBC09"/>
<path fill-rule="evenodd" clip-rule="evenodd" d="M16.32 9.22574H14.3034C13.8588 7.03484 11.922 5.38574 9.6 5.38574C6.9489 5.38574 4.8 7.53494 4.8 10.1857C4.8 12.8368 6.9489 14.9857 9.6 14.9857H16.32C17.9106 14.9857 19.2 13.6963 19.2 12.1057C19.2 10.5151 17.9106 9.22574 16.32 9.22574Z" fill="#E0E0E0"/>
</svg>
