<svg width="24" height="24" viewBox="0 0 24 24" fill="none" xmlns="http://www.w3.org/2000/svg">
<path fill-rule="evenodd" clip-rule="evenodd" d="M13.8897 8.1748C13.7655 7.9597 13.4904 7.8859 13.275 8.0101L12.3912 8.5204V7.4998C12.3912 7.2514 12.1899 7.0498 11.9412 7.0498C11.6928 7.0498 11.4912 7.2514 11.4912 7.4998V8.5204L10.6074 8.0101C10.3923 7.8859 10.1172 7.9597 9.99268 8.1748C9.86848 8.3899 9.94228 8.6653 10.1574 8.7895L11.0412 9.2998L10.1574 9.8101C9.94228 9.9343 9.86848 10.2097 9.99268 10.4248C10.0761 10.5691 10.2273 10.6498 10.383 10.6498C10.4592 10.6498 10.5366 10.6303 10.6074 10.5895L11.4912 10.0792V11.0998C11.4912 11.3482 11.6928 11.5498 11.9412 11.5498C12.1899 11.5498 12.3912 11.3482 12.3912 11.0998V10.0792L13.275 10.5895C13.3461 10.6303 13.4232 10.6498 13.4997 10.6498C13.6551 10.6498 13.8063 10.5691 13.8897 10.4248C14.0142 10.2097 13.9401 9.9343 13.725 9.8101L12.8412 9.2998L13.725 8.7895C13.9401 8.6653 14.0142 8.3899 13.8897 8.1748Z" fill="#70C8F9"/>
<path fill-rule="evenodd" clip-rule="evenodd" d="M8.90746 13.5752C8.78326 13.3601 8.50816 13.2863 8.29276 13.4105L7.40896 13.9208V12.9002C7.40896 12.6518 7.20736 12.4502 6.95896 12.4502C6.71026 12.4502 6.50896 12.6518 6.50896 12.9002V13.9208L5.62516 13.4105C5.40976 13.2863 5.13466 13.3601 5.01046 13.5752C4.88596 13.7903 4.95976 14.0657 5.17516 14.1899L6.05896 14.7002L5.17516 15.2105C4.95976 15.3347 4.88596 15.6101 5.01046 15.8252C5.09386 15.9695 5.24506 16.0502 5.40046 16.0502C5.47666 16.0502 5.55406 16.0307 5.62516 15.9899L6.50896 15.4796V16.5002C6.50896 16.7486 6.71026 16.9502 6.95896 16.9502C7.20736 16.9502 7.40896 16.7486 7.40896 16.5002V15.4796L8.29276 15.9899C8.36386 16.0307 8.44096 16.0502 8.51746 16.0502C8.67286 16.0502 8.82406 15.9695 8.90746 15.8252C9.03196 15.6101 8.95786 15.3347 8.74276 15.2105L7.85896 14.7002L8.74276 14.1899C8.95786 14.0657 9.03196 13.7903 8.90746 13.5752Z" fill="#70C8F9"/>
<path fill-rule="evenodd" clip-rule="evenodd" d="M18.8251 15.2105L17.9413 14.7002L18.8251 14.1899C19.0402 14.0657 19.114 13.7903 18.9898 13.5752C18.8656 13.3601 18.5905 13.2863 18.3751 13.4105L17.4913 13.9208V12.9002C17.4913 12.6518 17.29 12.4502 17.0413 12.4502C16.7929 12.4502 16.5913 12.6518 16.5913 12.9002V13.9208L15.7075 13.4105C15.4921 13.2863 15.2173 13.3601 15.0928 13.5752C14.9686 13.7903 15.0424 14.0657 15.2575 14.1899L16.1413 14.7002L15.2575 15.2105C15.0424 15.3347 14.9686 15.6101 15.0928 15.8252C15.1762 15.9695 15.3274 16.0502 15.4828 16.0502C15.5593 16.0502 15.6367 16.0307 15.7075 15.9899L16.5913 15.4796V16.5002C16.5913 16.7486 16.7929 16.9502 17.0413 16.9502C17.29 16.9502 17.4913 16.7486 17.4913 16.5002V15.4796L18.3751 15.9899C18.4459 16.0307 18.5233 16.0502 18.5998 16.0502C18.7552 16.0502 18.9064 15.9695 18.9898 15.8252C19.114 15.6101 19.0402 15.3347 18.8251 15.2105Z" fill="#70C8F9"/>
</svg>
