<svg width="24" height="24" viewBox="0 0 24 24" fill="none" xmlns="http://www.w3.org/2000/svg">
<path fill-rule="evenodd" clip-rule="evenodd" d="M11.2563 13.6973C11.1321 13.4821 10.8567 13.4083 10.6416 13.5325L9.75784 14.0428V13.0223C9.75784 12.7738 9.55624 12.5723 9.30784 12.5723C9.05914 12.5723 8.85784 12.7738 8.85784 13.0223V14.0428L7.97404 13.5325C7.75864 13.4083 7.48354 13.4821 7.35934 13.6973C7.23484 13.9126 7.30864 14.1877 7.52404 14.3119L8.40784 14.8223L7.52404 15.3325C7.30864 15.4568 7.23484 15.7319 7.35934 15.9473C7.44244 16.0915 7.59394 16.1723 7.74934 16.1723C7.82554 16.1723 7.90324 16.1528 7.97404 16.1119L8.85784 15.6017V16.6222C8.85784 16.8707 9.05914 17.0722 9.30784 17.0722C9.55624 17.0722 9.75784 16.8707 9.75784 16.6222V15.6017L10.6416 16.1119C10.7124 16.153 10.7898 16.1723 10.866 16.1723C11.0217 16.1723 11.1729 16.0915 11.2563 15.9473C11.3805 15.7319 11.3067 15.4568 11.0916 15.3325L10.2078 14.8223L11.0916 14.3119C11.3067 14.1877 11.3805 13.9126 11.2563 13.6973Z" fill="#70C8F9"/>
<path fill-rule="evenodd" clip-rule="evenodd" d="M20.76 10.1099L19.8762 9.59961L20.76 9.08931C20.9754 8.96514 21.0489 8.69004 20.9247 8.47461C20.8005 8.25954 20.5254 8.18574 20.31 8.30994L19.4262 8.82024V7.79961C19.4262 7.55124 19.2246 7.34961 18.9762 7.34961C18.7275 7.34961 18.5262 7.55124 18.5262 7.79961V8.82024L17.6424 8.30994C17.427 8.18574 17.1519 8.25954 17.0277 8.47461C16.9035 8.69004 16.977 8.96514 17.1924 9.08931L18.0762 9.59961L17.1924 10.1099C16.977 10.2341 16.9035 10.5095 17.0277 10.7246C17.1108 10.8689 17.2623 10.9496 17.4177 10.9496C17.4942 10.9496 17.5716 10.9301 17.6424 10.8893L18.5262 10.379V11.3996C18.5262 11.648 18.7275 11.8496 18.9762 11.8496C19.2246 11.8496 19.4262 11.648 19.4262 11.3996V10.379L20.31 10.8893C20.3808 10.9304 20.4582 10.9496 20.5347 10.9496C20.6901 10.9496 20.8413 10.8689 20.9247 10.7246C21.0489 10.5095 20.9754 10.2341 20.76 10.1099Z" fill="#70C8F9"/>
<path fill-rule="evenodd" clip-rule="evenodd" d="M6.03644 8.70337C6.38804 8.35174 6.38804 7.78204 6.03644 7.43047C5.68514 7.07917 5.11514 7.07917 4.76354 7.43047L3.27884 8.91544C2.92724 9.26707 2.92724 9.83674 3.27884 10.1883C3.45434 10.3639 3.68474 10.4518 3.91514 10.4518C4.14554 10.4518 4.37594 10.3639 4.55144 10.1883L6.03644 8.70337Z" fill="#C1C1C1"/>
<path fill-rule="evenodd" clip-rule="evenodd" d="M11.3945 7.16387C11.0429 6.81257 10.4732 6.81257 10.1216 7.16387L4.18193 13.1035C3.83063 13.4552 3.83063 14.0248 4.18193 14.3764C4.35773 14.5519 4.58813 14.6398 4.81853 14.6398C5.04893 14.6398 5.27903 14.5519 5.45483 14.3764L11.3945 8.43677C11.7461 8.08514 11.7461 7.51547 11.3945 7.16387Z" fill="#C1C1C1"/>
<path fill-rule="evenodd" clip-rule="evenodd" d="M13.0032 11.9186L15.3366 9.58523C15.6882 9.23363 15.6882 8.66393 15.3366 8.31233C14.985 7.961 14.4153 7.961 14.0637 8.31233L11.7303 10.6457C11.379 10.9973 11.379 11.567 11.7303 11.9186C11.9061 12.0944 12.1365 12.1823 12.3669 12.1823C12.597 12.1823 12.8274 12.0944 13.0032 11.9186Z" fill="#C1C1C1"/>
<path fill-rule="evenodd" clip-rule="evenodd" d="M15.3104 12.1571L12.5528 14.9147C12.2012 15.2662 12.2012 15.836 12.5528 16.1875C12.7283 16.3633 12.9587 16.4513 13.1891 16.4513C13.4195 16.4513 13.6499 16.3633 13.8254 16.1875L16.5833 13.4299C16.9346 13.0784 16.9346 12.5086 16.5833 12.1571C16.2317 11.8057 15.6617 11.8057 15.3104 12.1571Z" fill="#C1C1C1"/>
</svg>
