<svg width="24" height="24" viewBox="0 0 24 24" fill="none" xmlns="http://www.w3.org/2000/svg">
<path fill-rule="evenodd" clip-rule="evenodd" d="M11.2282 19.5748C11.0581 19.5748 10.8871 19.5172 10.7467 19.3993C10.4293 19.1332 10.3879 18.6601 10.654 18.3427L12.1969 16.5043C12.4627 16.1869 12.9361 16.1455 13.2532 16.4119C13.5706 16.678 13.612 17.1511 13.3459 17.4685L11.8033 19.3069C11.6548 19.4836 11.4421 19.5748 11.2282 19.5748Z" fill="#C1C1C1"/>
<path fill-rule="evenodd" clip-rule="evenodd" d="M15.7282 19.5748C15.5581 19.5748 15.3871 19.5172 15.2467 19.3993C14.9293 19.1332 14.8879 18.6601 15.154 18.3427L16.6969 16.5043C16.9627 16.1869 17.4361 16.1455 17.7532 16.4119C18.0706 16.678 18.112 17.1511 17.8459 17.4685L16.3033 19.3069C16.1548 19.4836 15.9421 19.5748 15.7282 19.5748Z" fill="#C1C1C1"/>
<path fill-rule="evenodd" clip-rule="evenodd" d="M17.9322 7.5448C17.9322 9.26801 16.5354 10.6648 14.8122 10.6648C13.089 10.6648 11.6922 9.26801 11.6922 7.5448C11.6922 5.8216 13.089 4.4248 14.8122 4.4248C16.5354 4.4248 17.9322 5.8216 17.9322 7.5448Z" fill="#FFBC09"/>
<path fill-rule="evenodd" clip-rule="evenodd" d="M16.32 9.22574H14.3034C13.8588 7.03484 11.922 5.38574 9.6 5.38574C6.9489 5.38574 4.8 7.53464 4.8 10.1857C4.8 12.8368 6.9489 14.9857 9.6 14.9857H16.32C17.9106 14.9857 19.2 13.6963 19.2 12.1057C19.2 10.5151 17.9106 9.22574 16.32 9.22574Z" fill="#E0E0E0"/>
<path fill-rule="evenodd" clip-rule="evenodd" d="M11.4199 13.5607L6.52875 19.4239C6.36495 19.6201 6.05415 19.4287 6.15585 19.1941L7.86015 15.2626C7.92345 15.1165 7.81635 14.9533 7.65705 14.9533H5.71665C5.55735 14.9533 5.45025 14.7898 5.51385 14.6437L7.60695 9.81972C7.64205 9.73902 7.72185 9.68652 7.81005 9.68652H9.94215C10.1014 9.68652 10.2085 9.84972 10.1452 9.99582L8.89005 12.8884C8.82675 13.0345 8.93385 13.1977 9.09315 13.1977H11.2501C11.4376 13.1977 11.5402 13.4167 11.4199 13.5607Z" fill="#FFBC09"/>
</svg>
