<svg width="24" height="24" viewBox="0 0 24 24" fill="none" xmlns="http://www.w3.org/2000/svg">
<path fill-rule="evenodd" clip-rule="evenodd" d="M5.07603 16.6795C4.84563 16.6795 4.61553 16.5916 4.43973 16.4158C4.08813 16.0645 4.08813 15.4945 4.43973 15.1432L4.86393 14.7187C5.21523 14.3674 5.78523 14.3671 6.13653 14.7187C6.48813 15.0703 6.48813 15.64 6.13683 15.9916L5.71233 16.4158C5.53683 16.5916 5.30643 16.6795 5.07603 16.6795Z" fill="#C1C1C1"/>
<path fill-rule="evenodd" clip-rule="evenodd" d="M7.25516 14.5004C7.02476 14.5004 6.79436 14.4125 6.61886 14.2367C6.26726 13.8854 6.26726 13.3154 6.61886 12.9641L9.80066 9.78203C10.1523 9.43073 10.7223 9.43073 11.0736 9.78203C11.4252 10.1336 11.4252 10.7033 11.0736 11.0549L7.89146 14.2367C7.71596 14.4125 7.48556 14.5004 7.25516 14.5004Z" fill="#C1C1C1"/>
<path fill-rule="evenodd" clip-rule="evenodd" d="M13.5613 18.3767C13.3309 18.3767 13.1008 18.2888 12.925 18.113C12.5734 17.7617 12.5734 17.1917 12.925 16.8404L13.3492 16.4159C13.7005 16.0646 14.2705 16.0643 14.6218 16.4159C14.9734 16.7675 14.9734 17.3372 14.6221 17.6888L14.1976 18.113C14.0221 18.2888 13.7917 18.3767 13.5613 18.3767Z" fill="#C1C1C1"/>
<path fill-rule="evenodd" clip-rule="evenodd" d="M15.7405 16.1977C15.5101 16.1977 15.2797 16.1098 15.1042 15.934C14.7526 15.5827 14.7526 15.0127 15.1042 14.6614L18.286 11.4793C18.6376 11.128 19.2073 11.128 19.5589 11.4793C19.9105 11.8309 19.9105 12.4006 19.5589 12.7522L16.3768 15.934C16.2013 16.1098 15.9709 16.1977 15.7405 16.1977Z" fill="#C1C1C1"/>
<path fill-rule="evenodd" clip-rule="evenodd" d="M6.19449 10.47C5.96409 10.47 5.73369 10.3821 5.55819 10.2063C5.20659 9.85497 5.20659 9.28497 5.55819 8.93367L8.52789 5.96367C8.87949 5.61237 9.44919 5.61237 9.80079 5.96367C10.1521 6.31527 10.1521 6.88497 9.80079 7.23657L6.83079 10.2063C6.65529 10.3821 6.42489 10.47 6.19449 10.47Z" fill="#C1C1C1"/>
<path fill-rule="evenodd" clip-rule="evenodd" d="M14.5915 12.2556C14.3611 12.2556 14.131 12.1677 13.9552 11.9919C13.6036 11.6406 13.6036 11.0706 13.9552 10.7193L14.3794 10.2948C14.7307 9.94354 15.3007 9.94324 15.652 10.2948C16.0036 10.6464 16.0036 11.2161 15.6523 11.5677L15.2278 11.9919C15.0523 12.1677 14.8219 12.2556 14.5915 12.2556Z" fill="#C1C1C1"/>
<path fill-rule="evenodd" clip-rule="evenodd" d="M9.0181 17.8284C8.7877 17.8284 8.5573 17.7405 8.3818 17.5647C8.0302 17.2134 8.0302 16.6434 8.3818 16.2921L12.2002 12.4737C12.5515 12.1221 13.1215 12.1221 13.4728 12.4737C13.8244 12.825 13.8244 13.395 13.4728 13.7463L9.6544 17.5647C9.4789 17.7405 9.2485 17.8284 9.0181 17.8284Z" fill="#C1C1C1"/>
</svg>
