<svg width="24" height="24" viewBox="0 0 24 24" fill="none" xmlns="http://www.w3.org/2000/svg">
<path fill-rule="evenodd" clip-rule="evenodd" d="M13.2126 11.9998C13.2126 12.6625 12.6753 13.1998 12.0126 13.1998C11.3499 13.1998 10.8126 12.6625 10.8126 11.9998C10.8126 11.3371 11.3499 10.7998 12.0126 10.7998C12.6753 10.7998 13.2126 11.3371 13.2126 11.9998Z" fill="#C1C1C1"/>
<path fill-rule="evenodd" clip-rule="evenodd" d="M10.9795 19.0574C10.9591 19.0574 10.9387 19.0565 10.9177 19.0547C10.0183 18.9818 9.13484 18.7454 8.29154 18.3524C4.93364 16.7864 3.29144 13.1756 4.63064 10.3034C5.29034 8.88863 6.55634 7.86893 8.19524 7.43153C9.78584 7.00733 11.5453 7.18553 13.1497 7.93373C14.3845 8.50943 15.3427 9.42442 15.9208 10.5794C16.1062 10.9496 15.9562 11.4002 15.5857 11.5856C15.2149 11.771 14.7649 11.621 14.5795 11.2508C14.1484 10.3892 13.4542 9.73073 12.5158 9.29333C11.2297 8.69363 9.83294 8.54723 8.58194 8.88083C7.37924 9.20183 6.45884 9.93203 5.99024 10.937C5.00024 13.0598 6.31694 15.7763 8.92544 16.9928C9.60674 17.3105 10.3177 17.5013 11.0395 17.5598C11.4523 17.5934 11.7598 17.9552 11.7262 18.368C11.6944 18.7604 11.3662 19.0574 10.9795 19.0574Z" fill="#C1C1C1"/>
<path fill-rule="evenodd" clip-rule="evenodd" d="M14.0499 16.7927C12.9738 16.7927 11.8752 16.5473 10.8411 16.0649C9.60626 15.4892 8.64806 14.5742 8.07026 13.4195C7.88486 13.049 8.03486 12.5984 8.40536 12.413C8.77556 12.2276 9.22616 12.3776 9.41186 12.7481C9.84266 13.6094 10.5369 14.2679 11.475 14.7056C12.7611 15.3053 14.1582 15.4517 15.4092 15.1178C16.6119 14.7971 17.532 14.0669 18.0009 13.0616C18.4695 12.0563 18.4374 10.8821 17.91 9.75472C17.3616 8.58172 16.3512 7.60552 15.0654 7.00612C14.3844 6.68842 13.6734 6.49762 12.9516 6.43912C12.5388 6.40552 12.2313 6.04372 12.2649 5.63062C12.2985 5.21782 12.657 4.91032 13.0734 4.94392C13.9728 5.01712 14.8563 5.25352 15.6996 5.64652C17.304 6.39472 18.5715 7.62802 19.2687 9.11902C19.9875 10.6556 20.0199 12.281 19.3602 13.6955C18.7005 15.11 17.4348 16.13 15.7956 16.5671C15.2304 16.718 14.6436 16.7927 14.0499 16.7927Z" fill="#C1C1C1"/>
</svg>
