<svg width="24" height="24" viewBox="0 0 24 24" fill="none" xmlns="http://www.w3.org/2000/svg">
<path fill-rule="evenodd" clip-rule="evenodd" d="M8.61989 5.48535C11.2194 5.48535 13.4659 6.99471 14.5287 9.18372L17.0141 9.18382C19.6124 9.18382 21.7188 11.2902 21.7188 13.8885C21.7188 16.4868 19.6124 18.5931 17.0141 18.5931H9.72355C9.55236 18.5931 9.38334 18.584 9.21688 18.5661C9.02018 18.5841 8.82108 18.5931 8.61989 18.5931C4.99538 18.5931 2.05713 15.6588 2.05713 12.0392C2.05713 8.41963 4.99538 5.48535 8.61989 5.48535Z" fill="#F7FAFF"/>
<path fill-rule="evenodd" clip-rule="evenodd" d="M7.35068 13.7134C7.35068 13.581 7.37676 13.4498 7.42743 13.3275C7.4781 13.2052 7.55237 13.094 7.646 13.0004C7.73963 12.9068 7.85078 12.8325 7.97311 12.7818C8.09544 12.7312 8.22656 12.7051 8.35897 12.7051C8.49138 12.7051 8.62249 12.7312 8.74482 12.7818C8.86716 12.8325 8.97831 12.9068 9.07194 13.0004C9.16557 13.094 9.23984 13.2052 9.29051 13.3275C9.34118 13.4498 9.36726 13.581 9.36726 13.7134C9.36726 13.9808 9.26103 14.2372 9.07194 14.4263C8.88285 14.6154 8.62638 14.7217 8.35897 14.7217C8.09155 14.7217 7.83509 14.6154 7.646 14.4263C7.45691 14.2372 7.35068 13.9808 7.35068 13.7134Z" fill="#0099FF"/>
<path fill-rule="evenodd" clip-rule="evenodd" d="M11.0057 13.7134C11.0057 13.446 11.1119 13.1895 11.301 13.0004C11.4901 12.8113 11.7466 12.7051 12.014 12.7051C12.2814 12.7051 12.5379 12.8113 12.727 13.0004C12.9161 13.1895 13.0223 13.446 13.0223 13.7134C13.0223 13.9808 12.9161 14.2372 12.727 14.4263C12.5379 14.6154 12.2814 14.7217 12.014 14.7217C11.7466 14.7217 11.4901 14.6154 11.301 14.4263C11.1119 14.2372 11.0057 13.9808 11.0057 13.7134Z" fill="#6BC7FF"/>
<path fill-rule="evenodd" clip-rule="evenodd" d="M14.6608 13.7134C14.6608 13.446 14.767 13.1895 14.9561 13.0004C15.1452 12.8113 15.4016 12.7051 15.6691 12.7051C15.9365 12.7051 16.1929 12.8113 16.382 13.0004C16.5711 13.1895 16.6773 13.446 16.6773 13.7134C16.6773 13.9808 16.5711 14.2372 16.382 14.4263C16.1929 14.6154 15.9365 14.7217 15.6691 14.7217C15.4016 14.7217 15.1452 14.6154 14.9561 14.4263C14.767 14.2372 14.6608 13.9808 14.6608 13.7134Z" fill="#0099FF"/>
</svg>
