<svg width="24" height="24" viewBox="0 0 24 24" fill="none" xmlns="http://www.w3.org/2000/svg">
<path fill-rule="evenodd" clip-rule="evenodd" d="M13.6734 16.6269C13.443 16.6269 13.2126 16.539 13.0371 16.3632C12.6855 16.0119 12.6855 15.4419 13.0371 15.0906L16.6434 11.4843C16.9947 11.133 17.5647 11.1327 17.916 11.4843C18.2676 11.8359 18.2676 12.4056 17.916 12.7572L14.3097 16.3632C14.1342 16.539 13.9038 16.6269 13.6734 16.6269Z" fill="#C1C1C1"/>
<path fill-rule="evenodd" clip-rule="evenodd" d="M19.5954 10.7049C19.365 10.7049 19.1349 10.617 18.9591 10.4412C18.6075 10.0899 18.6075 9.51986 18.9591 9.16856L19.3833 8.74406C19.7346 8.39276 20.3046 8.39246 20.6559 8.74406C21.0075 9.09566 21.0075 9.66536 20.6562 10.017L20.2317 10.4412C20.0562 10.617 19.8258 10.7049 19.5954 10.7049Z" fill="#C1C1C1"/>
<path fill-rule="evenodd" clip-rule="evenodd" d="M12.0028 13.2071C11.7724 13.2071 11.542 13.1192 11.3665 12.9434C11.0149 12.5921 11.0149 12.0221 11.3665 11.6708L14.1241 8.91289C14.4757 8.56159 15.0454 8.56159 15.397 8.91289C15.7483 9.26449 15.7483 9.83419 15.397 10.1858L12.6391 12.9434C12.4636 13.1192 12.2332 13.2071 12.0028 13.2071Z" fill="#C1C1C1"/>
<path fill-rule="evenodd" clip-rule="evenodd" d="M4.87867 15.2397C4.64827 15.2397 4.41787 15.1518 4.24237 14.976C3.89077 14.6247 3.89077 14.0547 4.24237 13.7034L10.1821 7.7637C10.5334 7.4121 11.1034 7.4121 11.4547 7.7637C11.8063 8.115 11.8063 8.685 11.4547 9.0363L5.51497 14.976C5.33947 15.1518 5.10907 15.2397 4.87867 15.2397Z" fill="#C1C1C1"/>
<path fill-rule="evenodd" clip-rule="evenodd" d="M3.97501 11.0524C3.74461 11.0524 3.51421 10.9645 3.33871 10.7887C2.98711 10.4374 2.98711 9.86735 3.33871 9.51605L4.82341 8.03105C5.17501 7.67975 5.74501 7.67975 6.09631 8.03105C6.44791 8.38265 6.44791 8.95235 6.09631 9.30395L4.61131 10.7887C4.43581 10.9645 4.20541 11.0524 3.97501 11.0524Z" fill="#C1C1C1"/>
</svg>
