<svg width="24" height="24" viewBox="0 0 24 24" fill="none" xmlns="http://www.w3.org/2000/svg">
<path fill-rule="evenodd" clip-rule="evenodd" d="M17.3076 8.04714H14.8329C14.2071 5.40204 11.8362 3.43164 9 3.43164C5.6862 3.43164 3 6.11814 3 9.43164C3 12.7454 5.6862 15.4316 9 15.4316H17.3076C19.3467 15.4316 21 13.7786 21 11.7395C21 9.70014 19.3467 8.04714 17.3076 8.04714Z" fill="#E0E0E0"/>
<path fill-rule="evenodd" clip-rule="evenodd" d="M15.3144 13.8601L9.79349 20.4781C9.60869 20.6995 9.25799 20.4832 9.37259 20.2186L11.2962 15.781C11.3679 15.616 11.247 15.4318 11.0673 15.4318H8.87699C8.69729 15.4318 8.57639 15.2476 8.64779 15.0826L11.0106 9.6376C11.0502 9.5464 11.1402 9.4873 11.2395 9.4873H13.6464C13.8264 9.4873 13.947 9.6715 13.8756 9.8365L12.459 13.1011C12.3876 13.2661 12.5082 13.4503 12.6882 13.4503H15.1227C15.3345 13.4503 15.45 13.6975 15.3144 13.8601Z" fill="#FFBC09"/>
</svg>
