<svg width="24" height="24" viewBox="0 0 24 24" fill="none" xmlns="http://www.w3.org/2000/svg">
<path fill-rule="evenodd" clip-rule="evenodd" d="M16.8002 16.6045C16.3859 16.6045 16.0502 16.2688 16.0502 15.8545C16.0502 15.4402 16.3859 15.1045 16.8002 15.1045C17.2136 15.1045 17.5502 14.7679 17.5502 14.3545C17.5502 13.9411 17.2136 13.6045 16.8002 13.6045H5.7002C5.2859 13.6045 4.9502 13.2688 4.9502 12.8545C4.9502 12.4402 5.2859 12.1045 5.7002 12.1045H16.8002C18.0407 12.1045 19.0502 13.114 19.0502 14.3545C19.0502 15.595 18.0407 16.6045 16.8002 16.6045Z" fill="#C1C1C1"/>
<path fill-rule="evenodd" clip-rule="evenodd" d="M16.8002 10.6709H5.7002C5.2859 10.6709 4.9502 10.3352 4.9502 9.9209C4.9502 9.5066 5.2859 9.1709 5.7002 9.1709H16.8002C17.2136 9.1709 17.5502 8.8343 17.5502 8.4209C17.5502 8.0075 17.2136 7.6709 16.8002 7.6709C16.3859 7.6709 16.0502 7.3352 16.0502 6.9209C16.0502 6.5066 16.3859 6.1709 16.8002 6.1709C18.0407 6.1709 19.0502 7.1804 19.0502 8.4209C19.0502 9.6614 18.0407 10.6709 16.8002 10.6709Z" fill="#C1C1C1"/>
<path fill-rule="evenodd" clip-rule="evenodd" d="M13.1193 6.34141C13.1193 6.83851 12.7164 7.24141 12.2193 7.24141C11.7222 7.24141 11.3193 6.83851 11.3193 6.34141C11.3193 5.84431 11.7222 5.44141 12.2193 5.44141C12.7164 5.44141 13.1193 5.84431 13.1193 6.34141Z" fill="#C1C1C1"/>
<path fill-rule="evenodd" clip-rule="evenodd" d="M9.96455 15.8541C9.96455 16.3512 9.56165 16.7541 9.06455 16.7541C8.56745 16.7541 8.16455 16.3512 8.16455 15.8541C8.16455 15.357 8.56745 14.9541 9.06455 14.9541C9.56165 14.9541 9.96455 15.357 9.96455 15.8541Z" fill="#C1C1C1"/>
<path fill-rule="evenodd" clip-rule="evenodd" d="M13.5646 17.6539C13.5646 18.151 13.1617 18.5539 12.6646 18.5539C12.1675 18.5539 11.7646 18.151 11.7646 17.6539C11.7646 17.1568 12.1675 16.7539 12.6646 16.7539C13.1617 16.7539 13.5646 17.1568 13.5646 17.6539Z" fill="#C1C1C1"/>
</svg>
