<svg width="24" height="24" viewBox="0 0 24 24" fill="none" xmlns="http://www.w3.org/2000/svg">
<path fill-rule="evenodd" clip-rule="evenodd" d="M15.4141 6.8826C15.4141 5.882 15.2379 4.922 14.917 4.0334C14.9115 4.0191 14.9115 4.0191 14.9115 4.0191C14.9059 4.0024 14.9147 3.9961 14.929 4.0024C14.929 4.0024 14.929 4.0024 14.9456 4.0104C17.9123 5.273 20 8.2293 20 11.6781C20 16.2735 16.3011 20.0001 11.7391 20.0001C8.20379 20.0001 5.18789 17.764 4.00869 14.617C4.00229 14.6011 4.00229 14.6011 4.00229 14.6011C3.99679 14.5844 4.00149 14.5749 4.01339 14.5797C4.01339 14.5797 4.01339 14.5797 4.02689 14.5844C4.99169 14.9831 6.04709 15.203 7.15399 15.203C11.7153 15.203 15.4141 11.478 15.4141 6.8826Z" fill="#FFC72A"/>
</svg>
