<svg width="24" height="24" viewBox="0 0 24 24" fill="none" xmlns="http://www.w3.org/2000/svg">
<path d="M9.90606 16.9538L10.0166 16.9601C10.4878 17.0149 10.854 17.4157 10.854 17.9006V18.8019C10.854 19.3252 10.4293 19.7498 9.90606 19.7498L9.79556 19.7433C9.32426 19.6881 8.95816 19.2883 8.95816 18.8019V17.9017C8.95816 17.3784 9.38276 16.9538 9.90606 16.9538ZM13.3952 16.0693C13.8469 15.8082 14.4276 15.9621 14.6897 16.4149L15.1404 17.1949C15.4026 17.6488 15.2477 18.2284 14.7948 18.4906C14.6453 18.5762 14.4817 18.6184 14.3203 18.6184C13.9932 18.6184 13.6747 18.4472 13.4992 18.145L13.0485 17.3639C12.7863 16.9111 12.9423 16.3315 13.3952 16.0693ZM5.14666 16.3222C5.40766 15.8683 5.98836 15.7123 6.44116 15.9744C6.89516 16.2366 7.05116 16.8162 6.78896 17.269L6.33826 18.0501C6.16276 18.3534 5.84426 18.5235 5.51716 18.5235C5.35566 18.5235 5.19316 18.4823 5.04366 18.3968C4.59086 18.1357 4.43486 17.5561 4.69706 17.1022L5.14666 16.3222ZM15.9748 13.5591C16.237 13.1052 16.8165 12.9503 17.2694 13.2114L18.0505 13.661C18.5033 13.9231 18.6593 14.5027 18.3982 14.9566C18.2216 15.2611 17.9031 15.4301 17.576 15.4301C17.4145 15.4301 17.252 15.39 17.1025 15.3033L16.3225 14.8537C15.8686 14.5926 15.7137 14.0131 15.9748 13.5591ZM10.0008 4.5832C12.9918 4.5832 15.4174 7.0088 15.4174 9.9998C15.4174 12.992 12.9918 15.4165 10.0008 15.4165C7.00966 15.4165 4.58406 12.992 4.58406 9.9998C4.58406 7.0088 7.00966 4.5832 10.0008 4.5832ZM2.63666 13.0476C3.08946 12.7865 3.66906 12.9414 3.93126 13.3943C4.19336 13.8471 4.03736 14.4288 3.58456 14.6899L2.80456 15.1406C2.65506 15.2262 2.49146 15.2673 2.33116 15.2673C2.00396 15.2673 1.68546 15.0973 1.50996 14.7939C1.24786 14.34 1.40386 13.7593 1.85666 13.4983L2.63666 13.0476ZM18.8023 9.1461C19.3256 9.1461 19.7502 9.5707 19.7502 10.094C19.7502 10.6172 19.3256 11.0419 18.8023 11.0419L17.9021 11.043L17.7915 11.0365C17.3192 10.9812 16.9541 10.5804 16.9541 10.0951C16.9541 9.5718 17.3777 9.1472 17.9021 9.1472L18.8023 9.1461ZM2.09896 8.9578C2.62226 8.9578 3.04686 9.3825 3.04686 9.9057C3.04686 10.429 2.62226 10.8536 2.09896 10.8536H1.19766C0.675456 10.8536 0.249756 10.429 0.249756 9.9057C0.249756 9.3825 0.675456 8.9578 1.19766 8.9578H2.09896ZM17.1958 4.8604C17.6487 4.5982 18.2293 4.7532 18.4904 5.206C18.7526 5.6588 18.5977 6.2384 18.1448 6.5017L17.3648 6.9523C17.2153 7.039 17.0528 7.0802 16.8914 7.0802C16.5642 7.0802 16.2457 6.9101 16.0702 6.6057C15.8081 6.1528 15.963 5.5722 16.4158 5.3111L17.1958 4.8604ZM1.60386 5.0432C1.86496 4.5903 2.44566 4.4354 2.89846 4.6965L3.67846 5.1461C4.13236 5.4082 4.28736 5.9878 4.02626 6.4407C3.85076 6.7462 3.53226 6.9162 3.20396 6.9162C3.04366 6.9162 2.88006 6.8751 2.73056 6.7884L1.95056 6.3388C1.49776 6.0767 1.34176 5.4971 1.60386 5.0432ZM13.6626 1.9502C13.9248 1.4974 14.5044 1.3425 14.9572 1.6036C15.4111 1.8657 15.5671 2.4464 15.3039 2.8992L14.8532 3.6792C14.6777 3.9826 14.3592 4.1527 14.0321 4.1527C13.8706 4.1527 13.7081 4.1115 13.5586 4.0248C13.1058 3.7637 12.9498 3.1831 13.212 2.7302L13.6626 1.9502ZM5.20716 1.5084C5.66006 1.2473 6.24066 1.4033 6.50176 1.8561L6.95246 2.6361C7.21456 3.0889 7.05856 3.6696 6.60576 3.9307C6.45626 4.0174 6.29266 4.0574 6.13236 4.0574C5.80516 4.0574 5.48556 3.8884 5.31006 3.584L4.86056 2.804C4.59836 2.3512 4.75436 1.7716 5.20716 1.5084ZM10.0949 0.25C10.6181 0.25 11.0428 0.6746 11.0428 1.1979V2.0981C11.0428 2.6214 10.6181 3.046 10.0949 3.046C9.57156 3.046 9.14696 2.6214 9.14696 2.0981V1.1979C9.14696 0.6746 9.57156 0.25 10.0949 0.25Z" fill="#FFC72A"/>
</svg>
