<svg width="24" height="24" viewBox="0 0 24 24" fill="none" xmlns="http://www.w3.org/2000/svg">
<path fill-rule="evenodd" clip-rule="evenodd" d="M14.9993 18.3208C15.1353 19.058 14.4841 19.7775 13.5167 19.959C13.3687 19.9867 13.223 20 13.082 20C12.3018 20 11.6641 19.5922 11.5488 18.9677C11.4986 18.6959 11.6766 18.4344 11.9464 18.3839C12.2163 18.3329 12.4755 18.5126 12.5258 18.7846C12.5434 18.8805 12.8489 19.0656 13.3349 18.9744C13.821 18.8832 14.0399 18.5997 14.0223 18.5039C13.9722 18.232 14.1502 17.9706 14.4199 17.92C14.6896 17.8693 14.9491 18.0488 14.9993 18.3208ZM16.6439 5.03541C18.7201 5.78561 19.9109 6.98911 19.9109 8.33721C19.9109 8.98661 19.637 9.60251 19.1171 10.1512C19.7197 10.7304 20.0292 11.4051 19.9978 12.0898C19.9274 13.6322 18.1775 14.8238 15.7721 15.1306C15.8392 15.3151 15.8667 15.5075 15.8546 15.7027C15.7844 16.8433 14.4096 17.6399 12.5916 17.6399C12.4601 17.6399 12.3265 17.6358 12.1907 17.6272C10.5293 17.5232 9.1926 16.7926 8.8645 15.8092C8.777 15.547 8.917 15.263 9.1771 15.1748C9.4371 15.0867 9.7189 15.2278 9.8064 15.4899C9.9712 15.9842 10.9313 16.5449 12.2522 16.6276C13.7055 16.7185 14.8296 16.1817 14.8629 15.6407C14.8728 15.4787 14.7815 15.3256 14.6763 15.205L14.5313 15.2079C14.3699 15.2079 14.2065 15.204 14.0414 15.1964C11.0402 15.0569 8.6966 13.6833 8.4193 11.9849C7.7222 11.8149 7.0751 11.5926 6.5001 11.323C4.8879 10.5667 4 9.50641 4 8.33721C4 7.07161 5.0182 5.95401 6.8668 5.19011C7.1716 5.06421 7.5198 5.21111 7.6446 5.51821C7.7695 5.82521 7.6239 6.17621 7.3192 6.30211C5.9875 6.85231 5.1925 7.61321 5.1925 8.33721C5.1925 9.68571 7.9699 11.1883 11.9554 11.1883C15.941 11.1883 18.7185 9.68571 18.7185 8.33721C18.7185 7.55051 17.7694 6.71881 16.2415 6.16681C15.9315 6.05471 15.7704 5.71071 15.8815 5.39831C15.9927 5.08591 16.334 4.92341 16.6439 5.03541ZM18.3451 10.7964L18.2899 10.8343C18.0267 11.0083 17.7332 11.1717 17.4108 11.323C15.9436 12.0111 14.0063 12.3902 11.9554 12.3902C11.1206 12.3902 10.3046 12.3274 9.5315 12.2065C10.0191 13.1678 11.7123 14.0856 14.0873 14.1959C16.9638 14.3286 18.9527 13.1909 19.0052 12.0437C19.0243 11.6279 18.7917 11.1917 18.3451 10.7964Z" fill="white" stroke="white" stroke-width="0.3" stroke-linecap="round" stroke-linejoin="round"/>
</svg>
