<svg width="24" height="24" viewBox="0 0 24 24" fill="none" xmlns="http://www.w3.org/2000/svg">
<path d="M8.2115 14.2501C9.1201 14.2501 9.8573 14.9746 9.8573 15.8701V19.38C9.8573 20.2744 9.1201 21 8.2115 21H4.6458C3.7372 21 3 20.2744 3 19.38V15.8701C3 14.9746 3.7372 14.2501 4.6458 14.2501H8.2115ZM18.4975 14.25C19.4061 14.25 20.1432 14.9756 20.1432 15.87V19.3799C20.1432 20.2743 19.4061 20.9999 18.4975 20.9999H14.9317C14.0231 20.9999 13.2859 20.2743 13.2859 19.3799V15.87C13.2859 14.9756 14.0231 14.25 14.9317 14.25H18.4975ZM15.5282 3.48427C16.183 2.83858 17.2459 2.83858 17.9008 3.48427L20.5088 6.05037C21.1637 6.69607 21.1637 7.74128 20.5088 8.38698L17.9008 10.9531C17.2459 11.5988 16.183 11.5988 15.5282 10.9531L12.9201 8.38698C12.2652 7.74128 12.2652 6.69607 12.9201 6.05037L15.5282 3.48427ZM8.2115 3.84368C9.1201 3.84368 9.8573 4.56938 9.8573 5.46368V8.97367C9.8573 9.86797 9.1201 10.5937 8.2115 10.5937H4.6458C3.7372 10.5937 3 9.86797 3 8.97367V5.46368C3 4.56938 3.7372 3.84368 4.6458 3.84368H8.2115Z" fill="white"/>
</svg>
