<svg width="24" height="24" viewBox="0 0 24 24" fill="none" xmlns="http://www.w3.org/2000/svg">
<path fill-rule="evenodd" clip-rule="evenodd" d="M8.0574 14.5656C7.7644 14.8586 7.7644 15.3336 8.0574 15.6266C8.3504 15.9196 8.8254 15.9196 9.1184 15.6266C10.6704 14.0746 13.1964 14.0736 14.7484 15.6266C14.8954 15.7726 15.0874 15.8456 15.2794 15.8456C15.4714 15.8456 15.6624 15.7726 15.8094 15.6266C16.1024 15.3336 16.1024 14.8586 15.8094 14.5656C13.6724 12.4286 10.1944 12.4286 8.0574 14.5656Z" fill="white"/>
<path opacity="0.8" fill-rule="evenodd" clip-rule="evenodd" d="M11.9336 8.60254C9.30559 8.60254 6.83459 9.62554 4.97559 11.4845C4.68359 11.7775 4.68359 12.2515 4.97559 12.5445C5.26859 12.8375 5.74359 12.8375 6.03659 12.5445C9.28759 9.29354 14.5786 9.29354 17.8306 12.5445C17.9766 12.6915 18.1686 12.7645 18.3606 12.7645C18.5526 12.7645 18.7446 12.6915 18.8916 12.5445C19.1836 12.2515 19.1836 11.7775 18.8916 11.4845C17.0326 9.62554 14.5616 8.60254 11.9336 8.60254Z" fill="white"/>
<path fill-rule="evenodd" clip-rule="evenodd" d="M11.9336 17.1602C11.2886 17.1602 10.7666 17.6822 10.7666 18.3272C10.7666 18.9712 11.2886 19.4932 11.9336 19.4932C12.5776 19.4932 13.1006 18.9712 13.1006 18.3272C13.1006 17.6822 12.5776 17.1602 11.9336 17.1602Z" fill="white"/>
<path opacity="0.8" fill-rule="evenodd" clip-rule="evenodd" d="M21.7963 8.57888C16.3583 3.13987 7.50834 3.14087 2.07034 8.57888C1.77734 8.87088 1.77734 9.34687 2.07034 9.63987C2.36334 9.93287 2.83834 9.93287 3.13134 9.63987C7.98534 4.78587 15.8823 4.78587 20.7353 9.63987C20.8823 9.78587 21.0743 9.85887 21.2663 9.85887C21.4583 9.85887 21.6503 9.78587 21.7963 9.63987C22.0893 9.34687 22.0893 8.87088 21.7963 8.57888Z" fill="white"/>
</svg>
