<svg width="24" height="24" viewBox="0 0 24 24" fill="none" xmlns="http://www.w3.org/2000/svg">
<path d="M6.44067 9.25977L11.711 14.5301M11.7114 9.25977L6.44107 14.5301" stroke="white" stroke-width="1.5" stroke-linecap="round" stroke-linejoin="round"/>
<path d="M17.9604 19.8158C18.6698 19.7104 19.2695 20.3101 19.1641 21.0205C19.0988 21.4633 18.7383 21.8269 18.2945 21.8986C17.5788 22.0114 16.9685 21.4021 17.0824 20.6854C17.1519 20.2416 17.5166 19.8811 17.9604 19.8158Z" fill="white"/>
<path d="M10.8815 18.7487H3.8309C2.3816 18.7487 1.1958 17.5628 1.1958 16.1135V13.2391V7.681C1.1958 6.2317 2.3816 5.0459 3.8309 5.0459H14.5064C15.9558 5.0459 17.1416 6.2317 17.1416 7.681V9.1377L21.1987 6.7809C21.3357 6.6986 21.477 6.6575 21.6161 6.6575C21.9439 6.6575 22.277 6.9105 22.277 7.3933V11.3945M15.7151 18.4491C16.3307 17.8335 17.1824 17.452 18.1226 17.452C19.0628 17.452 19.9145 17.8335 20.5301 18.4491M13.4421 16.1763C14.6395 14.9779 16.2954 14.2369 18.1231 14.2369C19.9509 14.2369 21.6058 14.9779 22.8042 16.1763" stroke="white" stroke-width="1.5" stroke-linecap="round" stroke-linejoin="round"/>
</svg>
