<svg width="24" height="24" viewBox="0 0 24 24" fill="none" xmlns="http://www.w3.org/2000/svg">
<path fill-rule="evenodd" clip-rule="evenodd" d="M4.53684 6.77099C4.87104 6.78659 5.22624 6.91929 5.69514 7.38929L6.88274 8.57579C7.35384 9.04689 7.48644 9.40199 7.50104 9.73519C7.51674 10.0642 7.41754 10.4079 6.99344 10.835L6.51514 11.3124C6.08584 11.7417 5.98454 12.0863 6.00224 12.4174C6.01684 12.69 6.15164 12.9627 6.16834 12.9929C6.41484 13.4692 7.67344 15.6982 10.3504 17.2304C10.4319 17.2837 10.7922 17.4759 11.0648 17.48C11.398 17.4853 11.7406 17.3954 12.1688 16.9672L12.6472 16.4899C13.0734 16.0658 13.417 15.9655 13.7481 15.9812C14.0813 15.9958 14.4364 16.1295 14.9064 16.5995L16.0919 17.7871C16.563 18.2571 16.6956 18.6123 16.7123 18.9444C16.728 19.2755 16.6298 19.6191 16.2037 20.0453L16.2005 20.0484C14.8438 21.4031 13.5528 21.7091 12.2158 21.6454C11.3813 21.6057 10.5102 21.3833 9.51384 20.7618C9.51174 20.7628 9.35604 20.6605 9.28084 20.6083C9.23184 20.5759 9.18164 20.5414 9.13154 20.507C5.63874 18.0556 3.53804 15.1859 2.91304 14.2619L2.82664 14.1325C2.77724 14.0575 2.74414 14.0054 2.72764 13.9791L2.71524 13.9591C2.09794 12.9668 1.87764 12.0989 1.83794 11.2664C1.77424 9.92949 2.07914 8.63849 3.43284 7.28379L3.43494 7.28169C3.86314 6.85449 4.20674 6.75429 4.53684 6.77099ZM15.64 10.7241C16.2176 10.7241 16.6855 11.1921 16.6855 11.7686C16.6855 12.3462 16.2176 12.8131 15.64 12.8131C15.0634 12.8131 14.5955 12.3462 14.5955 11.7686C14.5955 11.1921 15.0634 10.7241 15.64 10.7241ZM15.6401 7.51529C16.7994 7.51529 17.8888 7.96649 18.7088 8.78639C19.0148 9.09239 19.0148 9.58859 18.7088 9.89459C18.5563 10.0471 18.3568 10.1244 18.1552 10.1244C17.9557 10.1244 17.7541 10.0471 17.6016 9.89459C17.0773 9.37029 16.3806 9.08199 15.6401 9.08199C14.8995 9.08199 14.2029 9.37029 13.6785 9.89459C13.3735 10.2006 12.8764 10.2006 12.5714 9.89459C12.2653 9.58859 12.2653 9.09239 12.5714 8.78639C13.3913 7.96649 14.4817 7.51529 15.6401 7.51529ZM10.2483 6.53799C13.2189 3.56859 18.0506 3.56859 21.0201 6.53799C21.3251 6.84299 21.3251 7.34019 21.0201 7.64619C20.8666 7.79869 20.6671 7.87499 20.4655 7.87499C20.266 7.87499 20.0644 7.79869 19.9119 7.64619C17.5524 5.28679 13.715 5.28679 11.3565 7.64619C11.0505 7.95229 10.5544 7.95229 10.2483 7.64619C9.94234 7.34019 9.94234 6.84299 10.2483 6.53799ZM15.6401 1.15039C18.4999 1.15039 21.1873 2.26379 23.2105 4.28589C23.5165 4.59199 23.5165 5.08809 23.2105 5.39409C23.058 5.54659 22.8564 5.62289 22.6569 5.62289C22.4553 5.62289 22.2558 5.54659 22.1023 5.39409C20.3758 3.66759 18.081 2.71709 15.6401 2.71709C13.1991 2.71709 10.9044 3.66759 9.17794 5.39409C8.87184 5.70019 8.37674 5.70019 8.07074 5.39409C7.76474 5.08809 7.76474 4.59199 8.07074 4.28589C10.0918 2.26379 12.7813 1.15039 15.6401 1.15039Z" fill="white"/>
</svg>
