<svg width="24" height="24" viewBox="0 0 24 24" fill="none" xmlns="http://www.w3.org/2000/svg">
<path fill-rule="evenodd" clip-rule="evenodd" d="M18.037 19.755C18.664 19.755 19.173 20.263 19.173 20.891C19.173 21.518 18.664 22.027 18.037 22.027C17.41 22.027 16.901 21.517 16.901 20.891C16.901 20.263 17.411 19.755 18.037 19.755ZM14.774 17.72C16.574 15.92 19.5 15.92 21.3 17.72C21.632 18.051 21.632 18.592 21.3 18.925C21.134 19.091 20.916 19.174 20.698 19.174C20.479 19.174 20.261 19.091 20.096 18.924C18.961 17.789 17.114 17.79 15.979 18.924C15.647 19.258 15.106 19.258 14.774 18.924C14.442 18.592 14.442 18.051 14.774 17.72ZM13.914 4.50195C15.475 4.50195 16.754 5.77995 16.754 7.34195V8.80195L21.017 6.32595C21.161 6.23995 21.309 6.19595 21.457 6.19595C21.801 6.19595 22.148 6.46095 22.148 6.96895V12.102C20.878 11.513 19.481 11.202 18.037 11.202C15.569 11.202 13.244 12.108 11.439 13.759L9.423 11.743L11.66 9.50695C11.993 9.17395 11.993 8.63395 11.66 8.30095C11.327 7.96895 10.788 7.96895 10.455 8.30095L8.218 10.54L5.98 8.30095C5.647 7.96895 5.108 7.96895 4.775 8.30095C4.442 8.63395 4.442 9.17395 4.775 9.50695L7.013 11.743L4.775 13.98C4.442 14.312 4.442 14.853 4.775 15.186C4.942 15.351 5.159 15.434 5.377 15.434C5.595 15.434 5.813 15.351 5.98 15.186L8.217 12.948L10.454 15.186C10.456 15.188 10.46 15.189 10.462 15.192C10.403 15.41 10.369 15.638 10.369 15.87C10.369 16.553 10.635 17.195 11.117 17.678L12.424 18.984H2.84C1.278 18.984 0 17.706 0 16.144V7.34195C0 5.77995 1.278 4.50195 2.84 4.50195H13.914ZM12.323 15.268C15.473 12.118 20.601 12.118 23.75 15.268C24.083 15.601 24.083 16.141 23.75 16.473C23.585 16.639 23.367 16.723 23.148 16.723C22.93 16.723 22.712 16.639 22.545 16.473C20.059 13.987 16.015 13.987 13.528 16.473C13.196 16.806 12.656 16.806 12.323 16.473C11.99 16.141 11.99 15.601 12.323 15.268Z" fill="white"/>
</svg>
