<svg width="24" height="24" viewBox="0 0 24 24" fill="none" xmlns="http://www.w3.org/2000/svg">
<path d="M16.4636 18.8848C16.4636 18.4018 16.0716 18.0098 15.5886 18.0098C15.1056 18.0098 14.7136 18.4018 14.7136 18.8848C14.7136 19.3678 15.1056 19.7598 15.5886 19.7598C16.0716 19.7598 16.4636 19.3678 16.4636 18.8848Z" fill="white"/>
<path d="M12.707 20.5H6C4.619 20.5 3.5 19.381 3.5 18V6C3.5 4.619 4.619 3.5 6 3.5H13.5C14.881 3.5 16 4.619 16 6V9.032M7.2238 7.1875H8.0288M10.9738 7.1875H11.7788M20.5 14.0586C17.788 11.3566 13.39 11.3566 10.678 14.0586M18.1572 16.4277C16.7382 15.0047 14.4392 15.0047 13.0202 16.4277" stroke="white" stroke-width="1.5" stroke-linecap="round" stroke-linejoin="round"/>
</svg>
