<svg width="24" height="24" viewBox="0 0 24 24" fill="none" xmlns="http://www.w3.org/2000/svg">
<path fill-rule="evenodd" clip-rule="evenodd" d="M15.6401 10.7241C16.2177 10.7241 16.6856 11.1921 16.6856 11.7686C16.6856 12.3462 16.2177 12.8131 15.6401 12.8131C15.0635 12.8131 14.5956 12.3462 14.5956 11.7686C14.5956 11.1921 15.0635 10.7241 15.6401 10.7241ZM15.6402 7.51529C16.7995 7.51529 17.8889 7.96649 18.7089 8.78639C19.0149 9.09239 19.0149 9.58859 18.7089 9.89459C18.5564 10.0471 18.3569 10.1244 18.1553 10.1244C17.9558 10.1244 17.7542 10.0471 17.6017 9.89459C17.0774 9.37029 16.3807 9.08199 15.6402 9.08199C14.8996 9.08199 14.203 9.37029 13.6786 9.89459C13.3736 10.2006 12.8765 10.2006 12.5715 9.89459C12.2654 9.58859 12.2654 9.09239 12.5715 8.78639C13.3914 7.96649 14.4818 7.51529 15.6402 7.51529ZM10.2484 6.53799C13.219 3.56859 18.0507 3.56859 21.0202 6.53799C21.3252 6.84299 21.3252 7.34019 21.0202 7.64619C20.8667 7.79869 20.6672 7.87499 20.4656 7.87499C20.2661 7.87499 20.0645 7.79869 19.912 7.64619C17.5525 5.28679 13.7151 5.28679 11.3566 7.64619C11.0506 7.95229 10.5545 7.95229 10.2484 7.64619C9.94241 7.34019 9.94241 6.84299 10.2484 6.53799ZM15.6402 1.15039C18.5 1.15039 21.1874 2.26379 23.2106 4.28589C23.5166 4.59199 23.5166 5.08809 23.2106 5.39409C23.0581 5.54659 22.8565 5.62289 22.657 5.62289C22.4554 5.62289 22.2559 5.54659 22.1024 5.39409C20.3759 3.66759 18.0811 2.71709 15.6402 2.71709C13.1992 2.71709 10.9045 3.66759 9.17801 5.39409C8.87191 5.70019 8.37681 5.70019 8.07081 5.39409C7.76481 5.08809 7.76481 4.59199 8.07081 4.28589C10.0919 2.26379 12.7814 1.15039 15.6402 1.15039Z" fill="white"/>
<path fill-rule="evenodd" clip-rule="evenodd" d="M12.0595 16.0788L11.6074 16.53C11.2021 16.9354 10.8773 17.0202 10.5621 17.015C10.3048 17.0107 9.96448 16.8297 9.88738 16.7786C7.35678 15.3306 6.16598 13.2235 5.93298 12.7722C5.91828 12.7437 5.79008 12.4864 5.77618 12.2284C5.75978 11.914 5.85498 11.5892 6.26118 11.1839L6.71328 10.7318C7.11428 10.3282 7.20778 10.0035 7.19398 9.69174C7.17918 9.37644 7.05368 9.04134 6.60848 8.59614L5.48608 7.47464C5.04178 7.02944 4.70578 6.90384 4.39138 6.88914C4.07788 6.87444 3.75398 6.96794 3.35038 7.36984L3.34778 7.37244L3.34608 7.37324C2.06688 8.65504 1.77768 9.87534 1.83738 11.1406C1.87548 11.927 2.08418 12.7471 2.66878 13.6868C2.66878 13.6868 4.73698 17.0713 8.73468 19.8765C8.78138 19.9094 8.82908 19.9423 8.87578 19.9735C8.94688 20.022 9.09498 20.1198 9.09668 20.1181C10.039 20.7062 10.8617 20.9158 11.6516 20.9539C12.916 21.0136 14.1363 20.7244 15.4172 19.4452L15.4189 19.4435L15.4215 19.44C15.8242 19.0381 15.9177 18.7134 15.9022 18.3999C15.8874 18.0855 15.7618 17.7495 15.3158 17.306L14.1952 16.1836C13.7509 15.7376 13.4148 15.612 13.0996 15.5973C12.7869 15.5835 12.4622 15.677 12.0595 16.0788Z" stroke="white" stroke-width="1.5" stroke-linecap="round" stroke-linejoin="round"/>
</svg>
