<svg width="24" height="24" viewBox="0 0 24 24" fill="none" xmlns="http://www.w3.org/2000/svg">
<path fill-rule="evenodd" clip-rule="evenodd" d="M12.0002 17.1625C12.6452 17.1625 13.1662 17.6845 13.1662 18.3295C13.1662 18.9745 12.6452 19.4965 12.0002 19.4965C11.3552 19.4965 10.8332 18.9745 10.8332 18.3295C10.8332 17.6845 11.3552 17.1625 12.0002 17.1625ZM8.1243 14.5687C10.2613 12.4307 13.7383 12.4307 15.8763 14.5687C16.1693 14.8617 16.1693 15.3367 15.8763 15.6297C15.7293 15.7757 15.5373 15.8487 15.3463 15.8487C15.1533 15.8487 14.9623 15.7757 14.8153 15.6297C13.2633 14.0767 10.7373 14.0767 9.1853 15.6297C8.8923 15.9227 8.4173 15.9227 8.1243 15.6297C7.8313 15.3367 7.8313 14.8617 8.1243 14.5687ZM12.0002 8.60493C14.6282 8.60493 17.0992 9.62793 18.9572 11.4869C19.2502 11.7799 19.2502 12.2549 18.9572 12.5469C18.8112 12.6939 18.6192 12.7669 18.4272 12.7669C18.2352 12.7669 18.0432 12.6939 17.8962 12.5469C14.6462 9.29593 9.3542 9.29593 6.1032 12.5469C5.8112 12.8399 5.3352 12.8399 5.0422 12.5469C4.7492 12.2549 4.7492 11.7799 5.0422 11.4869C6.9002 9.62793 9.3722 8.60493 12.0002 8.60493ZM2.1365 8.58143C7.5755 3.14343 16.4255 3.14343 21.8635 8.58143C22.1565 8.87443 22.1565 9.34943 21.8635 9.64243C21.7175 9.78843 21.5245 9.86143 21.3335 9.86143C21.1405 9.86143 20.9485 9.78843 20.8025 9.64243C15.9485 4.78843 8.0505 4.78843 3.1975 9.64243C2.9045 9.93543 2.4295 9.93543 2.1365 9.64243C1.8435 9.34943 1.8435 8.87443 2.1365 8.58143Z" fill="white"/>
</svg>
