<svg width="24" height="24" viewBox="0 0 24 24" fill="none" xmlns="http://www.w3.org/2000/svg">
<path fill-rule="evenodd" clip-rule="evenodd" d="M10.7891 14.0119C10.7891 13.3399 11.3331 12.7949 12.0071 12.7949C12.6801 12.7949 13.2251 13.3399 13.2241 14.0119C13.2241 14.6859 12.6791 15.2309 12.0071 15.2299C11.3341 15.2309 10.7891 14.6859 10.7891 14.0119Z" fill="white"/>
<path d="M14.6172 11.3943C13.9472 10.7243 13.0212 10.3103 12.0002 10.3103C10.9772 10.3103 10.0532 10.7243 9.38319 11.3943M17.0371 8.97433C15.7481 7.68533 13.9671 6.88733 12.0001 6.88733C10.0321 6.88733 8.25109 7.68533 6.96209 8.97433M19.419 6.59253C17.521 4.69453 14.898 3.51953 12 3.51953C9.10299 3.51953 6.47999 4.69453 4.57999 6.59253M17.752 14.4197C17.918 14.4197 18.081 14.4847 18.211 14.6027L20.024 16.2597C20.29 16.5027 20.326 16.8977 20.105 17.1397C18.136 19.2947 15.366 20.4817 12.307 20.4817C9.26699 20.4817 6.30699 19.3077 3.97499 17.1767C3.84399 17.0577 3.76399 16.8967 3.75199 16.7257C3.73899 16.5637 3.78999 16.4107 3.89499 16.2967L5.41599 14.6307C5.52099 14.5167 5.67599 14.4497 5.83999 14.4497C6.00699 14.4497 6.16999 14.5147 6.30199 14.6347C6.32399 14.6547 6.34799 14.6747 6.37399 14.6957L6.42899 14.7427C7.03899 15.2787 7.70599 15.7227 8.40899 16.0607C8.62399 16.1657 8.77399 16.3727 8.79999 16.6017L8.80099 16.6127L8.95999 17.7147L8.99399 17.9447L9.21699 18.0097C9.70399 18.1517 10.216 18.2607 10.738 18.3337C11.037 18.3767 11.348 18.4037 11.688 18.4207C11.862 18.4297 12.038 18.4347 12.211 18.4347C13.2 18.4347 14.163 18.2937 15.072 18.0167L15.369 17.9267L15.325 17.6197L15.181 16.6147L15.178 16.5947C15.163 16.4307 15.216 16.2727 15.319 16.1567C15.361 16.1107 15.413 16.0707 15.467 16.0427C16.168 15.6707 16.794 15.1867 17.327 14.6027C17.434 14.4857 17.588 14.4197 17.752 14.4197Z" stroke="white" stroke-width="1.5" stroke-linecap="round" stroke-linejoin="round"/>
</svg>
