<svg width="24" height="24" viewBox="0 0 24 24" fill="none" xmlns="http://www.w3.org/2000/svg">
<path fill-rule="evenodd" clip-rule="evenodd" d="M18.1876 14.9935C18.3696 14.9935 18.5495 15.038 18.685 15.1734L20.6713 16.9798C20.9866 17.2507 21.0321 17.7026 20.8067 18.019C18.6395 20.3218 15.6605 21.6308 12.3175 21.6308C8.97771 21.6308 5.77121 20.3218 3.24311 18.019C3.10771 17.8825 3.01661 17.7026 3.01661 17.5227C2.97221 17.3418 3.01661 17.2052 3.15211 17.0698L4.82411 15.2644C4.91411 15.1734 5.09401 15.0835 5.27491 15.0835C5.45481 15.0835 5.63581 15.1279 5.77121 15.2644C5.81681 15.2644 5.81681 15.2644 5.86121 15.3099H5.90671C6.58401 15.8962 7.30681 16.3925 8.07401 16.7555C8.30051 16.8455 8.43481 17.0698 8.48031 17.3418L8.66131 18.5598L8.70571 18.8307L8.84121 18.8773C9.38301 19.0572 9.92481 19.1471 10.5122 19.2371C10.8275 19.2826 11.1894 19.3281 11.5503 19.3281H12.1376C13.2213 19.3281 14.2594 19.1915 15.2531 18.8773L15.5684 18.7873L15.524 18.4698L15.3885 17.3862C15.343 17.2052 15.3885 17.0254 15.524 16.8899C15.5684 16.8455 15.6605 16.7989 15.7039 16.7555C16.4722 16.3481 17.1495 15.8052 17.7357 15.1734C17.8267 15.0835 18.0077 14.9935 18.1876 14.9935ZM12.0022 13.4325C12.6751 13.4325 13.2213 13.9787 13.2213 14.6516C13.2213 15.3257 12.6751 15.8707 12.0022 15.8707C11.3292 15.8707 10.7831 15.3257 10.7831 14.6516C10.7831 13.9787 11.3292 13.4325 12.0022 13.4325ZM12.0023 9.78969C13.3276 9.78969 14.5737 10.3055 15.5111 11.2439C15.8286 11.5614 15.8286 12.0762 15.5111 12.3926C15.3529 12.5519 15.1437 12.631 14.9368 12.631C14.7287 12.631 14.5206 12.5519 14.3624 12.3926C13.7318 11.763 12.893 11.4151 12.0023 11.4151C11.1104 11.4151 10.2717 11.763 9.64211 12.3926C9.32461 12.7101 8.81101 12.7101 8.49341 12.3926C8.17591 12.0762 8.17591 11.5614 8.49341 11.2439C9.42971 10.3055 10.6759 9.78969 12.0023 9.78969ZM11.995 6.04689C14.3422 6.04689 16.5474 6.96039 18.2064 8.62049C18.5239 8.93799 18.5239 9.45279 18.2064 9.76919C18.0482 9.92849 17.8402 10.0076 17.6321 10.0076C17.4251 10.0076 17.216 9.92849 17.0578 9.76919C15.7054 8.41679 13.9066 7.67239 11.995 7.67239C10.0824 7.67239 8.28461 8.41679 6.93221 9.76919C6.61471 10.0867 6.10001 10.0867 5.78251 9.76919C5.46501 9.45279 5.46501 8.93799 5.78251 8.62049C7.44261 6.96039 9.64781 6.04689 11.995 6.04689ZM3.24051 5.99149C8.07141 1.16169 15.931 1.16169 20.7619 5.99149C21.0794 6.30899 21.0794 6.82379 20.7619 7.14129C20.6037 7.29949 20.3967 7.37969 20.1875 7.37969C19.9806 7.37969 19.7714 7.29949 19.6132 7.14129C15.4163 2.94429 8.58721 2.94429 4.39021 7.14129C4.07271 7.45879 3.55801 7.45879 3.24051 7.14129C2.92301 6.82479 2.92301 6.30899 3.24051 5.99149Z" fill="white"/>
</svg>
