<svg width="24" height="24" viewBox="0 0 24 24" fill="none" xmlns="http://www.w3.org/2000/svg">
<g clip-path="url(#clip0_1074_14987)">
<path fill-rule="evenodd" clip-rule="evenodd" d="M11.288 12.7636C12.482 12.7636 13.458 13.7396 13.458 14.9336V16.0486L16.716 14.1566C16.826 14.0906 16.939 14.0566 17.051 14.0566L17.13 14.0626C17.365 14.0996 17.58 14.2976 17.58 14.6476V21.1356C17.58 21.5156 17.322 21.7156 17.068 21.7156C16.948 21.7156 16.829 21.6756 16.713 21.5996L13.46 19.7196V20.8426C13.46 22.0346 12.483 23.0126 11.29 23.0126H2.82601C1.63301 23.0126 0.656006 22.0346 0.656006 20.8426V14.9336C0.656006 13.7406 1.63301 12.7636 2.82601 12.7636H11.288ZM15.552 10.7206C16.177 10.7206 16.684 11.2276 16.684 11.8526C16.684 12.4776 16.177 12.9836 15.552 12.9836C14.926 12.9836 14.42 12.4776 14.42 11.8526C14.42 11.2276 14.926 10.7206 15.552 10.7206ZM15.552 7.24461C16.808 7.24461 17.989 7.73461 18.876 8.62161C19.208 8.95261 19.208 9.49061 18.876 9.82161C18.711 9.98761 18.494 10.0716 18.276 10.0716C18.059 10.0716 17.842 9.98761 17.676 9.82161C17.109 9.25461 16.354 8.94161 15.552 8.94161C14.75 8.94161 13.995 9.25361 13.428 9.82161C13.097 10.1536 12.559 10.1536 12.227 9.82161C11.896 9.49061 11.896 8.95361 12.227 8.62161C13.115 7.73461 14.296 7.24461 15.552 7.24461ZM9.71201 6.18661C12.928 2.97061 18.162 2.96861 21.379 6.18661C21.709 6.51661 21.709 7.05461 21.379 7.38661C21.213 7.55161 20.996 7.63461 20.779 7.63461C20.562 7.63461 20.344 7.55161 20.179 7.38561C17.624 4.83061 13.467 4.83161 10.911 7.38561C10.581 7.71761 10.043 7.71761 9.71101 7.38561C9.38001 7.05561 9.38001 6.51761 9.71101 6.18561L9.71201 6.18661ZM15.552 0.349609C18.65 0.349609 21.562 1.55461 23.752 3.74561C24.082 4.07661 24.082 4.61461 23.752 4.94561C23.586 5.11161 23.37 5.19361 23.152 5.19361C22.935 5.19361 22.717 5.11161 22.552 4.94561C20.682 3.07561 18.197 2.04561 15.552 2.04561C12.908 2.04561 10.422 3.07561 8.55201 4.94561C8.22001 5.27761 7.68401 5.27761 7.35201 4.94561C7.02101 4.61461 7.02101 4.07661 7.35201 3.74561C9.54201 1.55561 12.454 0.349609 15.552 0.349609Z" fill="white"/>
</g>
<defs>
<clipPath id="clip0_1074_14987">
<rect width="24" height="24" fill="white"/>
</clipPath>
</defs>
</svg>
