<svg width="24" height="24" viewBox="0 0 24 24" fill="none" xmlns="http://www.w3.org/2000/svg">
<path fill-rule="evenodd" clip-rule="evenodd" d="M13.1565 17.8139C13.1565 17.1829 12.6395 16.6709 11.9995 16.6709C11.3615 16.6709 10.8445 17.1829 10.8445 17.8139C10.8445 18.4449 11.3615 18.9569 11.9995 18.9569C12.6395 18.9569 13.1565 18.4449 13.1565 17.8139Z" fill="white"/>
<path d="M21.25 8.786C16.142 3.738 7.859 3.738 2.75 8.786M16.5686 10.2508C13.1146 8.2398 8.5956 8.7008 5.6296 11.6318M13.7638 13.6356C13.5108 13.5316 13.1378 13.4056 12.6718 13.3386C11.2458 13.1326 10.1418 13.6566 9.8348 13.8146C9.5378 13.9676 9.1148 14.2256 8.6848 14.6506M18.7921 12.9588C19.4561 13.2848 20.0651 13.5128 20.8131 13.6258C21.0631 13.6638 21.2501 13.8738 21.2501 14.1238V15.9568C21.2501 16.8328 20.8651 17.5988 20.1091 18.2338C19.5841 18.6758 19.0161 18.9248 18.7921 18.9998C18.5681 18.9248 18.0011 18.6758 17.4761 18.2338C16.7191 17.5988 16.3351 16.8328 16.3351 15.9568V14.1238C16.3351 13.8738 16.5221 13.6638 16.7721 13.6258C17.5201 13.5128 18.1291 13.2848 18.7921 12.9588Z" stroke="white" stroke-width="1.5" stroke-linecap="round" stroke-linejoin="round"/>
</svg>
