<svg width="24" height="24" viewBox="0 0 24 24" fill="none" xmlns="http://www.w3.org/2000/svg">
<g clip-path="url(#clip0_1074_14990)">
<path d="M14.4648 11.0076C14.4637 10.2831 15.1319 9.71715 15.8868 9.88815C16.3031 9.98265 16.6406 10.3213 16.7362 10.7376C16.9072 11.4913 16.3402 12.1596 15.6157 12.1584C14.9801 12.1596 14.4648 11.6443 14.4648 11.0076Z" fill="white"/>
<path d="M18.3738 8.70665C17.7182 8.05105 16.8123 7.64465 15.8121 7.64465C14.8118 7.64465 13.9059 8.05105 13.2503 8.70665M20.7425 6.33695C19.4814 5.07585 17.7371 4.29455 15.8123 4.29455C13.8863 4.29455 12.1432 5.07585 10.881 6.33695M23.0739 4.00575C21.2154 2.14735 18.6479 0.998047 15.8125 0.998047C12.976 0.998047 10.4084 2.14735 8.54998 4.00575M10.9799 13.2244C12.2457 13.2244 13.282 14.2631 13.282 15.5323V16.3986L16.419 14.5693C16.5249 14.5076 16.6332 14.4739 16.7415 14.4739C16.9953 14.4739 17.2515 14.6695 17.2515 15.0433V21.3102C17.2515 21.6793 17.0035 21.8714 16.7578 21.8714C16.6425 21.8714 16.5272 21.8342 16.4166 21.7596L13.282 19.9431V20.8153C13.282 22.0834 12.2457 23.122 10.9799 23.122H3.25168C1.98588 23.122 0.949585 22.0834 0.949585 20.8153V15.5323C0.949585 14.2631 1.98588 13.2244 3.25168 13.2244H10.9799Z" stroke="white" stroke-width="1.5" stroke-linecap="round" stroke-linejoin="round"/>
</g>
<defs>
<clipPath id="clip0_1074_14990">
<rect width="24" height="24" fill="white"/>
</clipPath>
</defs>
</svg>
