<svg width="24" height="24" viewBox="0 0 24 24" fill="none" xmlns="http://www.w3.org/2000/svg">
<path d="M19.1744 13.3362C21.243 13.3362 22.9204 15.0163 22.9204 17.0872C22.9204 19.1571 21.2429 20.8362 19.1744 20.8362C17.1044 20.8362 15.4274 19.1576 15.4274 17.0872C15.4274 15.0158 17.1043 13.3362 19.1744 13.3362ZM17.1461 16.1171C17.0059 16.4109 16.9274 16.7398 16.9274 17.0872C16.9274 18.3295 17.9331 19.3362 19.1744 19.3362C19.5208 19.3362 19.8491 19.2575 20.1422 19.1171L17.1461 16.1171ZM11.083 16.6673C11.728 16.6673 12.25 17.1893 12.25 17.8333C12.25 18.4783 11.728 19.0003 11.083 19.0003C10.439 19.0003 9.91699 18.4783 9.91699 17.8333C9.91699 17.1893 10.439 16.6673 11.083 16.6673ZM19.1744 14.8362C18.8277 14.8362 18.4993 14.9148 18.2061 15.0553L21.2021 18.0552C21.3421 17.762 21.4204 17.4337 21.4204 17.0872C21.4204 15.8442 20.414 14.8362 19.1744 14.8362ZM7.20769 14.0726C9.34759 11.9316 12.8186 11.9316 14.9595 14.0725C15.2524 14.3654 15.2524 14.8402 14.9595 15.1331C14.6666 15.426 14.1918 15.426 13.8989 15.1331C12.3438 13.578 9.82279 13.578 8.26869 15.133C7.97589 15.426 7.50099 15.4261 7.20799 15.1333C6.91499 14.8405 6.91489 14.3656 7.20769 14.0726ZM4.12629 10.9914C7.96819 7.14849 14.1981 7.14849 18.041 10.9914C18.3339 11.2843 18.3339 11.7591 18.041 12.052C17.7481 12.3449 17.2733 12.3449 16.9804 12.052C13.7233 8.79489 8.44319 8.79489 5.18709 12.052C4.89429 12.3449 4.41939 12.345 4.12639 12.0521C3.83349 11.7593 3.83339 11.2844 4.12629 10.9914ZM1.21969 8.08509C6.66759 2.63829 15.4994 2.63829 20.9463 8.08519C21.2392 8.37809 21.2392 8.85289 20.9463 9.14579C20.6534 9.43869 20.1786 9.43869 19.8857 9.14579C15.0246 4.28469 7.14239 4.28469 2.28029 9.14589C1.98739 9.43869 1.51249 9.43869 1.21959 9.14579C0.926787 8.85289 0.926788 8.37799 1.21969 8.08509Z" fill="white"/>
</svg>
