<svg width="24" height="24" viewBox="0 0 24 24" fill="none" xmlns="http://www.w3.org/2000/svg">
<path d="M16.6993 14.7035C17.577 14.7035 18.4014 15.0523 19.0096 15.6605C19.2095 15.8603 19.2095 16.1844 19.0096 16.3843C18.8097 16.5842 18.4856 16.5842 18.2857 16.3843C17.8677 15.9662 17.3027 15.7272 16.6993 15.7272C16.0958 15.7272 15.5308 15.9662 15.1127 16.3843C14.9129 16.5842 14.5888 16.5842 14.3889 16.3843C14.189 16.1844 14.189 15.8603 14.3889 15.6605C14.9971 15.0523 15.8216 14.7035 16.6993 14.7035ZM14.5036 5.1748C15.4459 5.1748 16.2098 5.93873 16.2098 6.88096V9.12915L19.3744 6.68833C19.561 6.5445 19.8288 6.57905 19.9727 6.76562C20.0303 6.84026 20.0615 6.93188 20.0615 7.02615L20.0624 11.5138C19.0365 10.9777 17.8898 10.6935 16.6996 10.6935C14.7546 10.6935 12.9265 11.4511 11.553 12.8271C10.8049 13.5744 10.8049 14.7925 11.5539 15.5407L12.278 16.2648H4.70615C3.76384 16.2648 3 15.5009 3 14.5586V6.88096C3 5.93873 3.76384 5.1748 4.70615 5.1748H14.5036ZM16.6997 12.1014C18.277 12.1014 19.7565 12.7274 20.8501 13.8211C21.05 14.0209 21.05 14.345 20.8501 14.5449C20.6502 14.7448 20.3261 14.7448 20.1263 14.5449C19.2227 13.6413 18.0026 13.1251 16.6997 13.1251C15.3965 13.1251 14.1757 13.6415 13.2732 14.5447C13.0735 14.7447 12.7494 14.7449 12.5494 14.5451C12.3495 14.3453 12.3493 14.0212 12.5491 13.8212C13.6417 12.7277 15.122 12.1014 16.6997 12.1014ZM16.568 17.1278C17.1421 17.0425 17.6275 17.5279 17.5422 18.1029C17.4893 18.4612 17.1976 18.7555 16.8384 18.8135C16.2592 18.9048 15.7653 18.4117 15.8574 17.8316C15.9137 17.4725 16.2089 17.1807 16.568 17.1278Z" fill="white"/>
</svg>
