<svg width="24" height="24" viewBox="0 0 24 24" fill="none" xmlns="http://www.w3.org/2000/svg">
<path d="M18.0885 19.8158C18.7979 19.7104 19.3977 20.3101 19.2923 21.0205C19.2269 21.4633 18.8664 21.8269 18.4227 21.8986C17.7069 22.0114 17.0966 21.4021 17.2105 20.6854C17.2801 20.2416 17.6448 19.8811 18.0885 19.8158Z" fill="white"/>
<path d="M11.0098 18.7526H3.95907C2.50977 18.7526 1.32397 17.5668 1.32397 16.1174V13.243V7.685C1.32397 6.2356 2.50977 5.0498 3.95907 5.0498H14.6347C16.084 5.0498 17.2698 6.2356 17.2698 7.685V9.1417L21.3269 6.7848C21.4639 6.7026 21.6052 6.6615 21.7443 6.6615C22.0721 6.6615 22.4052 6.9144 22.4052 7.3972V11.3984M15.8434 18.453C16.4589 17.8374 17.3106 17.4559 18.2508 17.4559C19.1911 17.4559 20.0427 17.8374 20.6583 18.453M13.5703 16.1803C14.7677 14.9818 16.4236 14.2408 18.2514 14.2408C20.0791 14.2408 21.734 14.9818 22.9324 16.1803" stroke="white" stroke-width="1.5" stroke-linecap="round" stroke-linejoin="round"/>
</svg>
