<svg width="24" height="24" viewBox="0 0 24 24" fill="none" xmlns="http://www.w3.org/2000/svg">
<path fill-rule="evenodd" clip-rule="evenodd" d="M11.771 11.646H11.445C11.031 11.646 10.695 11.31 10.695 10.896C10.695 10.481 11.031 10.146 11.445 10.146H11.771C12.185 10.146 12.521 10.481 12.521 10.896C12.521 11.31 12.185 11.646 11.771 11.646ZM11.445 6.896H11.771C12.185 6.896 12.521 7.231 12.521 7.646C12.521 8.06 12.185 8.396 11.771 8.396H11.445C11.031 8.396 10.695 8.06 10.695 7.646C10.695 7.231 11.031 6.896 11.445 6.896ZM8.271 8.396H7.945C7.531 8.396 7.195 8.06 7.195 7.646C7.195 7.231 7.531 6.896 7.945 6.896H8.271C8.685 6.896 9.021 7.231 9.021 7.646C9.021 8.06 8.685 8.396 8.271 8.396ZM8.271 11.646H7.945C7.531 11.646 7.195 11.31 7.195 10.896C7.195 10.481 7.531 10.146 7.945 10.146H8.271C8.685 10.146 9.021 10.481 9.021 10.896C9.021 11.31 8.685 11.646 8.271 11.646ZM12.582 20H17.082C18.486 20 19.625 18.915 19.625 17.575V11.927C19.625 10.587 18.486 9.5 17.082 9.5H15.125V6.427C15.125 5.087 13.986 4 12.582 4H6.917C5.512 4 4.375 5.087 4.375 6.427V17.575C4.375 18.915 5.512 20 6.917 20H8.533V15.567C8.533 15.015 8.98 14.567 9.533 14.567H9.625H11.283C11.834 14.567 12.283 15.015 12.283 15.567V20H12.582Z" fill="white"/>
</svg>
