<svg width="24" height="24" viewBox="0 0 24 24" fill="none" xmlns="http://www.w3.org/2000/svg">
<path d="M14.9999 6.33301H8.99994V4.59967C8.99994 4.39967 9.19994 4.19967 9.39994 4.19967H14.5333C14.7333 4.19967 14.9333 4.39967 14.9333 4.59967V6.33301H14.9999ZM13.4666 17.4663H10.4666L10.9333 13.733C10.3333 13.3997 9.86661 12.733 9.86661 11.933C9.86661 10.7997 10.7999 9.86634 11.9333 9.86634C13.0666 9.86634 13.9999 10.7997 13.9999 11.933C13.9999 12.733 13.5999 13.3997 12.9333 13.733L13.4666 17.4663ZM20.1999 6.33301H17.1999V4.26634C17.1999 3.19967 16.3333 2.33301 15.1999 2.33301H8.86661C7.79994 2.33301 6.86661 3.19967 6.86661 4.26634V6.33301H3.53328C2.53328 6.33301 1.73328 7.13301 1.73328 8.06634V19.8663C1.73328 20.8663 2.53328 21.5997 3.53328 21.5997H20.1333C21.1333 21.5997 21.9333 20.7997 21.9333 19.8663V8.13301C21.9333 7.13301 21.1333 6.33301 20.1999 6.33301Z" fill="white"/>
</svg>
