<svg width="24" height="24" viewBox="0 0 24 24" fill="none" xmlns="http://www.w3.org/2000/svg">
<path d="M9.5 7.57785V6.67285C9.5 5.98385 10.061 5.42285 10.75 5.42285H13.25C13.939 5.42285 14.5 5.98385 14.5 6.67285V7.57785H9.5ZM13.25 3.92285H10.75C9.233 3.92285 8 5.15685 8 6.67285V7.57785H6.25C4.875 7.57785 3.75 8.70285 3.75 10.0779V17.5779C3.75 18.9529 4.875 20.0779 6.25 20.0779H17.75C19.125 20.0779 20.25 18.9529 20.25 17.5779V10.0779C20.25 8.70285 19.125 7.57785 17.75 7.57785H16V6.67285C16 5.15685 14.766 3.92285 13.25 3.92285Z" fill="white"/>
</svg>
