<svg width="24" height="24" viewBox="0 0 24 24" fill="none" xmlns="http://www.w3.org/2000/svg">
<path d="M11.0599 7.99023C9.79078 8.01364 8.51901 8.083 7.26615 8.19829L6.84373 8.23701C6.53929 8.26494 5.95835 8.36942 5.52512 8.4757C3.56341 8.95757 2.85637 10.2798 3.13648 11.9416C3.55891 14.1113 4.62983 15.3732 6.34384 15.8469C7.17608 16.0766 7.99391 16.0793 8.71266 15.8379C9.35935 15.6209 9.9475 15.2345 10.424 14.7157C10.8347 14.268 11.403 14.0239 11.9948 14.0239H12.0056C12.5973 14.0239 13.1657 14.268 13.5764 14.7157C14.0528 15.2336 14.641 15.6209 15.2877 15.8379C16.0064 16.0793 16.8243 16.0766 17.6565 15.8469C19.3705 15.3732 20.4414 14.1113 20.8621 11.9551C21.144 10.2798 20.4369 8.95757 18.4752 8.4757C18.042 8.36942 17.4611 8.26494 17.1575 8.23701L16.7342 8.19829C15.1634 8.05327 13.5872 7.98122 12.0101 7.98122L11.0599 7.99023ZM12.9765 6.9094C14.2636 6.93281 15.5498 7.00397 16.8333 7.12196L17.2557 7.16069C17.6187 7.19402 18.251 7.3084 18.7337 7.42639C21.2899 8.05417 22.2978 9.93932 21.9249 12.1487C21.4268 14.704 20.0722 16.3009 17.9447 16.889C16.9134 17.1728 15.8785 17.1773 14.9436 16.8629C14.1213 16.5864 13.3791 16.0982 12.7811 15.447C12.5766 15.2246 12.2974 15.1048 12.0056 15.1048H11.9948C11.7029 15.1048 11.4237 15.2246 11.2193 15.447C10.6212 16.0982 9.87905 16.5864 9.05672 16.8629C8.12181 17.1773 7.08691 17.1728 6.05562 16.889C3.92819 16.3009 2.57355 14.704 2.07277 12.1352C1.70259 9.93932 2.71046 8.05417 5.26662 7.42639C5.74939 7.3084 6.38167 7.19402 6.74465 7.16069L7.16707 7.12196C8.7658 6.97515 10.3951 6.90039 12.0101 6.90039L12.9765 6.9094Z" fill="white"/>
</svg>
