<svg width="24" height="24" viewBox="0 0 24 24" fill="none" xmlns="http://www.w3.org/2000/svg">
<g clip-path="url(#clip0_1074_15022)">
<path d="M12.0001 3.99902C15.2818 3.99902 18.217 5.93765 19.6158 8.90459C20.2977 9.30128 20.8583 9.78976 21.2965 10.3821C21.9697 11.2934 22.2899 12.489 22.2899 13.7402C22.2899 16.7104 20.1272 19.5102 16.6434 19.9484C15.6271 20.0763 14.4971 19.8468 13.977 19.3976C13.6633 19.1255 13.4087 18.8184 13.165 18.4436C13.0557 18.2742 12.7214 17.6983 12.6951 17.6513L12.6274 17.5388C12.3891 17.1607 12.2504 17.0645 12.0001 17.0645C11.7575 17.0645 11.6187 17.1574 11.3838 17.5158L11.3138 17.6251L11.3105 17.6295C11.2647 17.7093 10.9313 18.2622 10.8144 18.4338C10.5521 18.8206 10.2746 19.1375 9.93035 19.4129C9.33696 19.8894 8.35125 20.1079 7.2519 19.9473C3.66097 19.4217 1.71033 16.8263 1.71033 13.7402C1.71033 12.3775 1.9879 11.2934 2.71133 10.3678C3.155 9.80068 3.70687 9.32859 4.36801 8.94065L4.26529 9.16795C5.61052 6.05348 8.62118 3.99902 12.0001 3.99902ZM12.0001 8.82591C9.02442 8.82591 6.76888 9.18872 5.2499 9.99629C5.22039 10.0192 5.18651 10.0378 5.15264 10.052C4.58438 10.3657 4.12432 10.747 3.77243 11.1973C3.2621 11.8497 3.05665 12.6518 3.05665 13.7402C3.05665 16.1935 4.55816 18.1923 7.44642 18.6152C8.19608 18.7245 8.80586 18.589 9.0878 18.3627C9.31619 18.1803 9.50743 17.9617 9.69977 17.6776C9.80468 17.5235 10.1675 16.9213 10.1653 16.9235L10.2647 16.7684C10.7346 16.0613 11.2133 15.7182 12.0001 15.7182C12.8088 15.7182 13.2885 16.0744 13.7606 16.8132L13.8568 16.9705C13.8415 16.9465 14.1966 17.5595 14.295 17.7114C14.4742 17.9868 14.6501 18.1999 14.8578 18.3791C15.0479 18.5442 15.8052 18.6971 16.4762 18.613C19.2464 18.2644 20.9436 16.0668 20.9436 13.7402C20.9436 12.7556 20.6977 11.8377 20.2136 11.182C19.8726 10.7219 19.4115 10.334 18.8312 10.0149C18.7951 10.0018 18.7623 9.98427 18.7317 9.96351C17.2401 9.17888 14.9911 8.82591 12.0001 8.82591ZM12.0001 5.34535C9.8014 5.34535 7.78409 6.38679 6.46072 8.08281C7.97205 7.66317 9.81888 7.47958 12.0001 7.47958C14.1835 7.47958 16.0249 7.65662 17.5242 8.06204C16.1997 6.37804 14.1901 5.34535 12.0001 5.34535Z" fill="white"/>
</g>
<defs>
<clipPath id="clip0_1074_15022">
<rect width="24" height="24" fill="white"/>
</clipPath>
</defs>
</svg>
